M48
; DRILL file {KiCad 8.99.0-unknown-4e8e14ae3a~177~ubuntu22.04.1} date 2024-03-17T17:43:03+1000
; FORMAT={-:-/ absolute / metric / decimal}
; #@! TF.CreationDate,2024-03-17T17:43:03+10:00
; #@! TF.GenerationSoftware,Kicad,Pcbnew,8.99.0-unknown-4e8e14ae3a~177~ubuntu22.04.1
; #@! TF.FileFunction,Plated,1,2,PTH
FMAT,2
METRIC
; #@! TA.AperFunction,Plated,PTH,ComponentDrill
T1C0.250
; #@! TA.AperFunction,Plated,PTH,ViaDrill
T2C0.300
; #@! TA.AperFunction,Plated,PTH,ViaDrill
T3C0.400
; #@! TA.AperFunction,Plated,PTH,ComponentDrill
T4C0.400
%
G90
G05
T1
X78.75Y-54.0
X79.5Y-54.0
T2
X70.5Y-46.21
X70.5Y-47.475
X70.5Y-48.75
X81.8Y-54.8
X81.8Y-55.8
T3
X47.5Y-61.525
X47.5Y-64.025
X50.0Y-59.025
X50.0Y-61.525
X52.5Y-59.025
X52.5Y-61.525
X62.5Y-46.525
X62.5Y-49.025
X62.5Y-51.525
X62.5Y-54.025
X62.5Y-56.525
X62.5Y-59.025
X62.5Y-61.525
X64.999Y-61.524
X65.0Y-46.525
X65.0Y-49.025
X65.0Y-51.525
X65.0Y-54.025
X65.0Y-56.525
X65.0Y-59.025
X72.5Y-56.525
X72.5Y-59.025
X75.0Y-56.525
X77.5Y-51.525
X80.0Y-51.525
X82.5Y-51.525
T4
X46.5Y-64.3
X73.0Y-55.025
X74.0Y-53.025
X74.0Y-54.0
X84.1Y-52.625
X85.6Y-52.625
M30
