%TF.GenerationSoftware,KiCad,Pcbnew,7.0.10-7.0.10~ubuntu22.04.1*%
%TF.CreationDate,2024-01-14T22:11:41+10:00*%
%TF.ProjectId,MXBreakout,4d584272-6561-46b6-9f75-742e6b696361,rev?*%
%TF.SameCoordinates,Original*%
%TF.FileFunction,Copper,L1,Top*%
%TF.FilePolarity,Positive*%
%FSLAX46Y46*%
G04 Gerber Fmt 4.6, Leading zero omitted, Abs format (unit mm)*
G04 Created by KiCad (PCBNEW 7.0.10-7.0.10~ubuntu22.04.1) date 2024-01-14 22:11:41*
%MOMM*%
%LPD*%
G01*
G04 APERTURE LIST*
G04 Aperture macros list*
%AMRoundRect*
0 Rectangle with rounded corners*
0 $1 Rounding radius*
0 $2 $3 $4 $5 $6 $7 $8 $9 X,Y pos of 4 corners*
0 Add a 4 corners polygon primitive as box body*
4,1,4,$2,$3,$4,$5,$6,$7,$8,$9,$2,$3,0*
0 Add four circle primitives for the rounded corners*
1,1,$1+$1,$2,$3*
1,1,$1+$1,$4,$5*
1,1,$1+$1,$6,$7*
1,1,$1+$1,$8,$9*
0 Add four rect primitives between the rounded corners*
20,1,$1+$1,$2,$3,$4,$5,0*
20,1,$1+$1,$4,$5,$6,$7,0*
20,1,$1+$1,$6,$7,$8,$9,0*
20,1,$1+$1,$8,$9,$2,$3,0*%
G04 Aperture macros list end*
%TA.AperFunction,SMDPad,CuDef*%
%ADD10C,0.750000*%
%TD*%
%TA.AperFunction,SMDPad,CuDef*%
%ADD11RoundRect,0.150000X-0.875000X-0.150000X0.875000X-0.150000X0.875000X0.150000X-0.875000X0.150000X0*%
%TD*%
%TA.AperFunction,SMDPad,CuDef*%
%ADD12R,1.300000X1.900000*%
%TD*%
%TA.AperFunction,SMDPad,CuDef*%
%ADD13C,1.000000*%
%TD*%
%TA.AperFunction,SMDPad,CuDef*%
%ADD14RoundRect,0.140000X-0.170000X0.140000X-0.170000X-0.140000X0.170000X-0.140000X0.170000X0.140000X0*%
%TD*%
%TA.AperFunction,SMDPad,CuDef*%
%ADD15RoundRect,0.135000X-0.185000X0.135000X-0.185000X-0.135000X0.185000X-0.135000X0.185000X0.135000X0*%
%TD*%
%TA.AperFunction,SMDPad,CuDef*%
%ADD16RoundRect,0.218750X-0.256250X0.218750X-0.256250X-0.218750X0.256250X-0.218750X0.256250X0.218750X0*%
%TD*%
%TA.AperFunction,SMDPad,CuDef*%
%ADD17RoundRect,0.140000X0.140000X0.170000X-0.140000X0.170000X-0.140000X-0.170000X0.140000X-0.170000X0*%
%TD*%
%TA.AperFunction,ViaPad*%
%ADD18C,0.800000*%
%TD*%
%TA.AperFunction,ViaPad*%
%ADD19C,1.000000*%
%TD*%
%TA.AperFunction,Conductor*%
%ADD20C,0.250000*%
%TD*%
G04 APERTURE END LIST*
D10*
%TO.P,TP6,1,1*%
%TO.N,Net-(U1-DATA2)*%
X116200000Y-96050000D03*
%TD*%
%TO.P,TP7,1,1*%
%TO.N,Net-(U1-DATA3)*%
X116200000Y-97325000D03*
%TD*%
%TO.P,TP5,1,1*%
%TO.N,Net-(U1-DATA1)*%
X116200000Y-94775000D03*
%TD*%
%TO.P,TP4,1,1*%
%TO.N,Net-(U1-DATA0)*%
X116200000Y-93500000D03*
%TD*%
D11*
%TO.P,U1,1*%
%TO.N,N/C*%
X118550000Y-80795000D03*
%TO.P,U1,2*%
X118550000Y-82065000D03*
%TO.P,U1,3*%
X118550000Y-83335000D03*
%TO.P,U1,4,GND*%
%TO.N,GND*%
X118550000Y-84605000D03*
%TO.P,U1,5*%
%TO.N,N/C*%
X118550000Y-85875000D03*
%TO.P,U1,6*%
X118550000Y-87145000D03*
%TO.P,U1,7*%
X118550000Y-88415000D03*
%TO.P,U1,8*%
X118550000Y-89685000D03*
%TO.P,U1,9*%
X118550000Y-90955000D03*
%TO.P,U1,10*%
X118550000Y-92225000D03*
%TO.P,U1,11,DATA0*%
%TO.N,Net-(U1-DATA0)*%
X118550000Y-93495000D03*
%TO.P,U1,12,DATA1*%
%TO.N,Net-(U1-DATA1)*%
X118550000Y-94765000D03*
%TO.P,U1,13,DATA2*%
%TO.N,Net-(U1-DATA2)*%
X118550000Y-96035000D03*
%TO.P,U1,14,DATA3*%
%TO.N,Net-(U1-DATA3)*%
X118550000Y-97305000D03*
%TO.P,U1,15*%
%TO.N,N/C*%
X127850000Y-97305000D03*
%TO.P,U1,16,GND*%
%TO.N,GND*%
X127850000Y-96035000D03*
%TO.P,U1,17,VDD*%
%TO.N,+3.3V*%
X127850000Y-94765000D03*
%TO.P,U1,18*%
%TO.N,N/C*%
X127850000Y-93495000D03*
%TO.P,U1,19*%
X127850000Y-92225000D03*
%TO.P,U1,20,U22*%
%TO.N,unconnected-(U1-U22-Pad20)*%
X127850000Y-90955000D03*
%TO.P,U1,21*%
%TO.N,N/C*%
X127850000Y-89685000D03*
%TO.P,U1,22,X_2*%
%TO.N,Net-(U1-X_2)*%
X127850000Y-88415000D03*
%TO.P,U1,23,X_1*%
%TO.N,Net-(U1-X_1)*%
X127850000Y-87145000D03*
%TO.P,U1,24,VDD*%
%TO.N,+3.3V*%
X127850000Y-85875000D03*
%TO.P,U1,25,VDD*%
X127850000Y-84605000D03*
%TO.P,U1,26,BATT*%
%TO.N,Net-(D1-K)*%
X127850000Y-83335000D03*
%TO.P,U1,27,VDD*%
%TO.N,+3.3V*%
X127850000Y-82065000D03*
%TO.P,U1,28*%
%TO.N,N/C*%
X127850000Y-80795000D03*
%TD*%
D12*
%TO.P,X1,1,1*%
%TO.N,Net-(U1-X_2)*%
X131050000Y-89400000D03*
%TO.P,X1,2,2*%
%TO.N,GND*%
X136550000Y-89400000D03*
%TO.P,X1,3,3*%
X136550000Y-86200000D03*
%TO.P,X1,4,4*%
%TO.N,Net-(U1-X_1)*%
X131050000Y-86200000D03*
%TD*%
D13*
%TO.P,TP9,1,1*%
%TO.N,+3.3V*%
X135525000Y-95175000D03*
%TD*%
D14*
%TO.P,C3,1*%
%TO.N,GND*%
X129800000Y-81120000D03*
%TO.P,C3,2*%
%TO.N,+3.3V*%
X129800000Y-82080000D03*
%TD*%
D13*
%TO.P,TP8,1,1*%
%TO.N,Net-(R1-Pad2)*%
X140300000Y-93700000D03*
%TD*%
%TO.P,TP3,1,1*%
%TO.N,GND*%
X131950000Y-95175000D03*
%TD*%
D15*
%TO.P,R1,1*%
%TO.N,Net-(D1-A)*%
X140300000Y-86130000D03*
%TO.P,R1,2*%
%TO.N,Net-(R1-Pad2)*%
X140300000Y-87150000D03*
%TD*%
D16*
%TO.P,D1,2,A*%
%TO.N,Net-(D1-A)*%
X140300000Y-84925000D03*
%TO.P,D1,1,K*%
%TO.N,Net-(D1-K)*%
X140300000Y-83350000D03*
%TD*%
D17*
%TO.P,C2,2*%
%TO.N,Net-(U1-X_2)*%
X133320000Y-91400000D03*
%TO.P,C2,1*%
%TO.N,GND*%
X134280000Y-91400000D03*
%TD*%
%TO.P,C1,1*%
%TO.N,GND*%
X134280000Y-84200000D03*
%TO.P,C1,2*%
%TO.N,Net-(U1-X_1)*%
X133320000Y-84200000D03*
%TD*%
D18*
%TO.N,GND*%
X141800714Y-96945476D03*
X141800714Y-94405476D03*
X141800714Y-91865476D03*
X141800714Y-84245476D03*
X141800714Y-81705476D03*
X139260714Y-96945476D03*
X139260714Y-91865476D03*
X139260714Y-81705476D03*
X136720714Y-96945476D03*
X136720714Y-94405476D03*
X136720714Y-91865476D03*
X136720714Y-84245476D03*
X136720714Y-81705476D03*
X134180714Y-96945476D03*
X134180714Y-89325476D03*
X134180714Y-86785476D03*
X134180714Y-81705476D03*
X131640714Y-96945476D03*
X131640714Y-91865476D03*
X131640714Y-81705476D03*
X124020714Y-96945476D03*
X124020714Y-94405476D03*
X124020714Y-91865476D03*
X124020714Y-89325476D03*
X124020714Y-86785476D03*
X124020714Y-84245476D03*
X124020714Y-81705476D03*
X121480714Y-96945476D03*
X121480714Y-94405476D03*
X121480714Y-91865476D03*
X121480714Y-89325476D03*
X121480714Y-86785476D03*
X121480714Y-84245476D03*
X121480714Y-81705476D03*
X116400714Y-91865476D03*
X116400714Y-84245476D03*
X116400714Y-81705476D03*
D19*
%TO.N,Net-(R1-Pad2)*%
X140300000Y-88850000D03*
%TD*%
D20*
%TO.N,Net-(R1-Pad2)*%
X140300000Y-87150000D02*
X140300000Y-88850000D01*
%TO.N,Net-(D1-K)*%
X127850000Y-83335000D02*
X140285000Y-83335000D01*
X140285000Y-83335000D02*
X140300000Y-83350000D01*
X127865000Y-83350000D02*
X127850000Y-83335000D01*
%TO.N,+3.3V*%
X135525000Y-95175000D02*
X134875000Y-95175000D01*
X132550000Y-92850000D02*
X126500000Y-92850000D01*
X134875000Y-95175000D02*
X132550000Y-92850000D01*
X126500000Y-94439999D02*
X126500000Y-92850000D01*
X126500000Y-92850000D02*
X126500000Y-85250000D01*
%TO.N,Net-(R1-Pad2)*%
X140300000Y-93700000D02*
X140300000Y-88850000D01*
%TO.N,Net-(U1-X_2)*%
X130065000Y-88415000D02*
X127850000Y-88415000D01*
%TO.N,Net-(U1-X_1)*%
X130105000Y-87145000D02*
X127850000Y-87145000D01*
%TO.N,Net-(U1-DATA3)*%
X118550000Y-97305000D02*
X116220000Y-97305000D01*
%TO.N,Net-(U1-DATA2)*%
X118550000Y-96035000D02*
X116215000Y-96035000D01*
%TO.N,Net-(U1-DATA1)*%
X118550000Y-94765000D02*
X116210000Y-94765000D01*
%TO.N,Net-(U1-DATA0)*%
X118550000Y-93495000D02*
X116205000Y-93495000D01*
%TO.N,+3.3V*%
X127850000Y-85250000D02*
X127850000Y-85875000D01*
X127850000Y-84605000D02*
X127850000Y-85250000D01*
X127850000Y-85250000D02*
X126500000Y-85250000D01*
X126500000Y-85250000D02*
X126500000Y-82850000D01*
X127850000Y-94765000D02*
X126825001Y-94765000D01*
X126825001Y-94765000D02*
X126500000Y-94439999D01*
X126500000Y-82850000D02*
X127285000Y-82065000D01*
X127285000Y-82065000D02*
X127850000Y-82065000D01*
X129800000Y-82080000D02*
X127865000Y-82080000D01*
%TO.N,Net-(D1-K)*%
X128215000Y-83350000D02*
X128200000Y-83335000D01*
%TO.N,Net-(D1-A)*%
X140300000Y-86130000D02*
X140300000Y-84925000D01*
%TO.N,+3.3V*%
X127515000Y-94765000D02*
X128200000Y-94765000D01*
%TO.N,Net-(U1-X_1)*%
X131050000Y-86200000D02*
X133050000Y-84200000D01*
X133050000Y-84200000D02*
X133320000Y-84200000D01*
%TO.N,Net-(U1-X_2)*%
X131050000Y-89400000D02*
X133050000Y-91400000D01*
X133050000Y-91400000D02*
X133320000Y-91400000D01*
X130065000Y-88415000D02*
X131050000Y-89400000D01*
%TO.N,Net-(U1-X_1)*%
X130105000Y-87145000D02*
X131050000Y-86200000D01*
%TD*%
%TA.AperFunction,Conductor*%
%TO.N,GND*%
G36*
X142055011Y-79352136D02*
G01*
X142083391Y-79354930D01*
X142084919Y-79355092D01*
X142213179Y-79369543D01*
X142235262Y-79374096D01*
X142291565Y-79391173D01*
X142296471Y-79392776D01*
X142385216Y-79423829D01*
X142402708Y-79431509D01*
X142426526Y-79444239D01*
X142460144Y-79462207D01*
X142467639Y-79466558D01*
X142542094Y-79513341D01*
X142554767Y-79522468D01*
X142606618Y-79565020D01*
X142615634Y-79573192D01*
X142676806Y-79634364D01*
X142684978Y-79643380D01*
X142727524Y-79695222D01*
X142736665Y-79707915D01*
X142783429Y-79782340D01*
X142787795Y-79789862D01*
X142818489Y-79847290D01*
X142826170Y-79864785D01*
X142857213Y-79953500D01*
X142858834Y-79958463D01*
X142875899Y-80014724D01*
X142880457Y-80036833D01*
X142894900Y-80165023D01*
X142895083Y-80166755D01*
X142897862Y-80194978D01*
X142898459Y-80207122D01*
X142899499Y-97493898D01*
X142898902Y-97506060D01*
X142896105Y-97534456D01*
X142895922Y-97536185D01*
X142881502Y-97664165D01*
X142876943Y-97686274D01*
X142859800Y-97742790D01*
X142858180Y-97747752D01*
X142827238Y-97836177D01*
X142819555Y-97853676D01*
X142788730Y-97911345D01*
X142784366Y-97918863D01*
X142737773Y-97993016D01*
X142728632Y-98005709D01*
X142685903Y-98057774D01*
X142677731Y-98066790D01*
X142616790Y-98127731D01*
X142607774Y-98135903D01*
X142555709Y-98178632D01*
X142543016Y-98187773D01*
X142468863Y-98234366D01*
X142461345Y-98238730D01*
X142403676Y-98269555D01*
X142386177Y-98277238D01*
X142297752Y-98308180D01*
X142292791Y-98309800D01*
X142236276Y-98326943D01*
X142214166Y-98331502D01*
X142086220Y-98345918D01*
X142084490Y-98346101D01*
X142056061Y-98348901D01*
X142043902Y-98349498D01*
X115857123Y-98348459D01*
X115844977Y-98347862D01*
X115816755Y-98345083D01*
X115815023Y-98344900D01*
X115686833Y-98330457D01*
X115664724Y-98325899D01*
X115608463Y-98308834D01*
X115603500Y-98307213D01*
X115514785Y-98276170D01*
X115497290Y-98268489D01*
X115439862Y-98237795D01*
X115432340Y-98233429D01*
X115357911Y-98186662D01*
X115345226Y-98177527D01*
X115293380Y-98134978D01*
X115284364Y-98126806D01*
X115223192Y-98065634D01*
X115215020Y-98056618D01*
X115172468Y-98004767D01*
X115163341Y-97992094D01*
X115116558Y-97917639D01*
X115112203Y-97910136D01*
X115081509Y-97852708D01*
X115073828Y-97835213D01*
X115063431Y-97805500D01*
X115042776Y-97746471D01*
X115041173Y-97741565D01*
X115024096Y-97685262D01*
X115019543Y-97663179D01*
X115005092Y-97534919D01*
X115004930Y-97533391D01*
X115002136Y-97505011D01*
X115001541Y-97492868D01*
X115001541Y-97325000D01*
X115619534Y-97325000D01*
X115639312Y-97475234D01*
X115639313Y-97475236D01*
X115672929Y-97556393D01*
X115697302Y-97615233D01*
X115789549Y-97735451D01*
X115909767Y-97827698D01*
X116049764Y-97885687D01*
X116124882Y-97895576D01*
X116199999Y-97905466D01*
X116200000Y-97905466D01*
X116200001Y-97905466D01*
X116250078Y-97898873D01*
X116350236Y-97885687D01*
X116490233Y-97827698D01*
X116610451Y-97735451D01*
X116648186Y-97686274D01*
X116653758Y-97679013D01*
X116710186Y-97637811D01*
X116752133Y-97630500D01*
X117303456Y-97630500D01*
X117370495Y-97650185D01*
X117391137Y-97666819D01*
X117468514Y-97744196D01*
X117468515Y-97744196D01*
X117468517Y-97744198D01*
X117573607Y-97795573D01*
X117607673Y-97800536D01*
X117641739Y-97805500D01*
X117641740Y-97805500D01*
X119458261Y-97805500D01*
X119480971Y-97802191D01*
X119526393Y-97795573D01*
X119631483Y-97744198D01*
X119714198Y-97661483D01*
X119765573Y-97556393D01*
X119775500Y-97488260D01*
X119775500Y-97121740D01*
X119765573Y-97053607D01*
X119714198Y-96948517D01*
X119714196Y-96948515D01*
X119714196Y-96948514D01*
X119631485Y-96865803D01*
X119526391Y-96814426D01*
X119458261Y-96804500D01*
X119458260Y-96804500D01*
X117641740Y-96804500D01*
X117641739Y-96804500D01*
X117573608Y-96814426D01*
X117468514Y-96865803D01*
X117391137Y-96943181D01*
X117329814Y-96976666D01*
X117303456Y-96979500D01*
X116721440Y-96979500D01*
X116654401Y-96959815D01*
X116623066Y-96930988D01*
X116610453Y-96914552D01*
X116610451Y-96914549D01*
X116490233Y-96822302D01*
X116490230Y-96822301D01*
X116490228Y-96822299D01*
X116441368Y-96802061D01*
X116386964Y-96758220D01*
X116364899Y-96691926D01*
X116382178Y-96624227D01*
X116433315Y-96576616D01*
X116441368Y-96572939D01*
X116490228Y-96552700D01*
X116490229Y-96552700D01*
X116490229Y-96552699D01*
X116490233Y-96552698D01*
X116610451Y-96460451D01*
X116622155Y-96445198D01*
X116649922Y-96409013D01*
X116706350Y-96367811D01*
X116748297Y-96360500D01*
X117303456Y-96360500D01*
X117370495Y-96380185D01*
X117391137Y-96396819D01*
X117468514Y-96474196D01*
X117468515Y-96474196D01*
X117468517Y-96474198D01*
X117573607Y-96525573D01*
X117607673Y-96530536D01*
X117641739Y-96535500D01*
X117641740Y-96535500D01*
X119458261Y-96535500D01*
X119480971Y-96532191D01*
X119526393Y-96525573D01*
X119631483Y-96474198D01*
X119714198Y-96391483D01*
X119765573Y-96286393D01*
X119765776Y-96285001D01*
X126327704Y-96285001D01*
X126327899Y-96287486D01*
X126373718Y-96445198D01*
X126457314Y-96586552D01*
X126457321Y-96586561D01*
X126573438Y-96702678D01*
X126573446Y-96702684D01*
X126660925Y-96754419D01*
X126708608Y-96805488D01*
X126721112Y-96874230D01*
X126694467Y-96938819D01*
X126685927Y-96948340D01*
X126685804Y-96948513D01*
X126634426Y-97053608D01*
X126624500Y-97121739D01*
X126624500Y-97488260D01*
X126634426Y-97556391D01*
X126685803Y-97661485D01*
X126768514Y-97744196D01*
X126768515Y-97744196D01*
X126768517Y-97744198D01*
X126873607Y-97795573D01*
X126907673Y-97800536D01*
X126941739Y-97805500D01*
X126941740Y-97805500D01*
X128758261Y-97805500D01*
X128780971Y-97802191D01*
X128826393Y-97795573D01*
X128931483Y-97744198D01*
X129014198Y-97661483D01*
X129065573Y-97556393D01*
X129075500Y-97488260D01*
X129075500Y-97121740D01*
X129065573Y-97053607D01*
X129014198Y-96948517D01*
X129014195Y-96948514D01*
X129014195Y-96948513D01*
X129008227Y-96940153D01*
X129009340Y-96939357D01*
X128981029Y-96887509D01*
X128986013Y-96817817D01*
X129027885Y-96761884D01*
X129039075Y-96754419D01*
X129126550Y-96702687D01*
X129126561Y-96702678D01*
X129242678Y-96586561D01*
X129242685Y-96586552D01*
X129326281Y-96445198D01*
X129372100Y-96287486D01*
X129372295Y-96285001D01*
X129372295Y-96285000D01*
X126327705Y-96285000D01*
X126327704Y-96285001D01*
X119765776Y-96285001D01*
X119775500Y-96218260D01*
X119775500Y-96037075D01*
X131441476Y-96037075D01*
X131565462Y-96103348D01*
X131753969Y-96160531D01*
X131753965Y-96160531D01*
X131950000Y-96179838D01*
X132146032Y-96160531D01*
X132334537Y-96103348D01*
X132458523Y-96037076D01*
X132458523Y-96037075D01*
X131950001Y-95528553D01*
X131950000Y-95528553D01*
X131441476Y-96037075D01*
X119775500Y-96037075D01*
X119775500Y-95851740D01*
X119765573Y-95783607D01*
X119714198Y-95678517D01*
X119714196Y-95678515D01*
X119714196Y-95678514D01*
X119631485Y-95595803D01*
X119526391Y-95544426D01*
X119458261Y-95534500D01*
X119458260Y-95534500D01*
X117641740Y-95534500D01*
X117641739Y-95534500D01*
X117573608Y-95544426D01*
X117468514Y-95595803D01*
X117391137Y-95673181D01*
X117329814Y-95706666D01*
X117303456Y-95709500D01*
X116725277Y-95709500D01*
X116658238Y-95689815D01*
X116626902Y-95660987D01*
X116610454Y-95639552D01*
X116610452Y-95639550D01*
X116610451Y-95639549D01*
X116490233Y-95547302D01*
X116490230Y-95547301D01*
X116490228Y-95547299D01*
X116441368Y-95527061D01*
X116386964Y-95483220D01*
X116364899Y-95416926D01*
X116382178Y-95349227D01*
X116433315Y-95301616D01*
X116441368Y-95297939D01*
X116490228Y-95277700D01*
X116490229Y-95277700D01*
X116490229Y-95277699D01*
X116490233Y-95277698D01*
X116610451Y-95185451D01*
X116622283Y-95170030D01*
X116646085Y-95139013D01*
X116702513Y-95097810D01*
X116744460Y-95090500D01*
X117303456Y-95090500D01*
X117370495Y-95110185D01*
X117391137Y-95126819D01*
X117468514Y-95204196D01*
X117468515Y-95204196D01*
X117468517Y-95204198D01*
X117573607Y-95255573D01*
X117607673Y-95260536D01*
X117641739Y-95265500D01*
X117641740Y-95265500D01*
X119458261Y-95265500D01*
X119480971Y-95262191D01*
X119526393Y-95255573D01*
X119631483Y-95204198D01*
X119714198Y-95121483D01*
X119765573Y-95016393D01*
X119775500Y-94948260D01*
X119775500Y-94581740D01*
X119765573Y-94513607D01*
X119743672Y-94468807D01*
X126170735Y-94468807D01*
X126180512Y-94505297D01*
X126182852Y-94515851D01*
X126189411Y-94553041D01*
X126191235Y-94558054D01*
X126198197Y-94574860D01*
X126200446Y-94579683D01*
X126222104Y-94610615D01*
X126227914Y-94619733D01*
X126246806Y-94652454D01*
X126263517Y-94666476D01*
X126275743Y-94676735D01*
X126283718Y-94684043D01*
X126580951Y-94981276D01*
X126588259Y-94989251D01*
X126612544Y-95018192D01*
X126620856Y-95025167D01*
X126619853Y-95026361D01*
X126659695Y-95068144D01*
X126660880Y-95070505D01*
X126685802Y-95121484D01*
X126691773Y-95129847D01*
X126690658Y-95130642D01*
X126718970Y-95182490D01*
X126713986Y-95252182D01*
X126672114Y-95308115D01*
X126660926Y-95315580D01*
X126573444Y-95367317D01*
X126573438Y-95367321D01*
X126457321Y-95483438D01*
X126457314Y-95483447D01*
X126373718Y-95624801D01*
X126327899Y-95782513D01*
X126327704Y-95784998D01*
X126327705Y-95785000D01*
X129372295Y-95785000D01*
X129372295Y-95784998D01*
X129372100Y-95782513D01*
X129326281Y-95624801D01*
X129242685Y-95483447D01*
X129242678Y-95483438D01*
X129126561Y-95367321D01*
X129126552Y-95367314D01*
X129039074Y-95315580D01*
X128991390Y-95264511D01*
X128978887Y-95195769D01*
X128987455Y-95175000D01*
X130945161Y-95175000D01*
X130964468Y-95371032D01*
X131021651Y-95559537D01*
X131087923Y-95683522D01*
X131596447Y-95175000D01*
X132303553Y-95175000D01*
X132812076Y-95683523D01*
X132878348Y-95559537D01*
X132935531Y-95371032D01*
X132954838Y-95175000D01*
X132935531Y-94978967D01*
X132878348Y-94790462D01*
X132812075Y-94666476D01*
X132303553Y-95174999D01*
X132303553Y-95175000D01*
X131596447Y-95175000D01*
X131087923Y-94666476D01*
X131021649Y-94790466D01*
X130964468Y-94978967D01*
X130945161Y-95175000D01*
X128987455Y-95175000D01*
X129005532Y-95131180D01*
X129014074Y-95121656D01*
X129014195Y-95121486D01*
X129014198Y-95121483D01*
X129065573Y-95016393D01*
X129075500Y-94948260D01*
X129075500Y-94581740D01*
X129065573Y-94513607D01*
X129014198Y-94408517D01*
X129014196Y-94408515D01*
X129014196Y-94408514D01*
X128931485Y-94325803D01*
X128905138Y-94312923D01*
X131441476Y-94312923D01*
X131950000Y-94821447D01*
X131950001Y-94821447D01*
X132458522Y-94312923D01*
X132334537Y-94246651D01*
X132146030Y-94189468D01*
X132146034Y-94189468D01*
X131950000Y-94170161D01*
X131753967Y-94189468D01*
X131565466Y-94246649D01*
X131441476Y-94312923D01*
X128905138Y-94312923D01*
X128826391Y-94274426D01*
X128758261Y-94264500D01*
X128758260Y-94264500D01*
X126949500Y-94264500D01*
X126882461Y-94244815D01*
X126836706Y-94192011D01*
X126825500Y-94140500D01*
X126825500Y-94119500D01*
X126845185Y-94052461D01*
X126897989Y-94006706D01*
X126949500Y-93995500D01*
X128758261Y-93995500D01*
X128780971Y-93992191D01*
X128826393Y-93985573D01*
X128931483Y-93934198D01*
X129014198Y-93851483D01*
X129065573Y-93746393D01*
X129075500Y-93678260D01*
X129075500Y-93311740D01*
X129075500Y-93311739D01*
X129075500Y-93311734D01*
X129075263Y-93308465D01*
X129075500Y-93307370D01*
X129075500Y-93307253D01*
X129075525Y-93307253D01*
X129090049Y-93240178D01*
X129139406Y-93190725D01*
X129198938Y-93175500D01*
X132363812Y-93175500D01*
X132430851Y-93195185D01*
X132451493Y-93211819D01*
X134630950Y-95391276D01*
X134638257Y-95399250D01*
X134662541Y-95428190D01*
X134662543Y-95428191D01*
X134662545Y-95428194D01*
X134662547Y-95428195D01*
X134662548Y-95428196D01*
X134695256Y-95447080D01*
X134704379Y-95452892D01*
X134735313Y-95474552D01*
X134735316Y-95474554D01*
X134735319Y-95474554D01*
X134740176Y-95476820D01*
X134756942Y-95483764D01*
X134761951Y-95485587D01*
X134761954Y-95485587D01*
X134761955Y-95485588D01*
X134799161Y-95492147D01*
X134809681Y-95494479D01*
X134846194Y-95504264D01*
X134846200Y-95504263D01*
X134846529Y-95504293D01*
X134847016Y-95504483D01*
X134856675Y-95507072D01*
X134856386Y-95508149D01*
X134911597Y-95529749D01*
X134937767Y-95557381D01*
X134996817Y-95642929D01*
X135102505Y-95736560D01*
X135124150Y-95755736D01*
X135274773Y-95834789D01*
X135274775Y-95834790D01*
X135439944Y-95875500D01*
X135610056Y-95875500D01*
X135775225Y-95834790D01*
X135872745Y-95783607D01*
X135925849Y-95755736D01*
X135925850Y-95755734D01*
X135925852Y-95755734D01*
X136053183Y-95642929D01*
X136149818Y-95502930D01*
X136210140Y-95343872D01*
X136230645Y-95175000D01*
X136210140Y-95006128D01*
X136203739Y-94989251D01*
X136149817Y-94847068D01*
X136100071Y-94775000D01*
X136053183Y-94707071D01*
X135925852Y-94594266D01*
X135925849Y-94594263D01*
X135775226Y-94515210D01*
X135610056Y-94474500D01*
X135439944Y-94474500D01*
X135274773Y-94515210D01*
X135124150Y-94594263D01*
X135058467Y-94652454D01*
X135015561Y-94690464D01*
X134952330Y-94720185D01*
X134883066Y-94711001D01*
X134845655Y-94685329D01*
X133860326Y-93700000D01*
X139594355Y-93700000D01*
X139614859Y-93868869D01*
X139614860Y-93868874D01*
X139675182Y-94027931D01*
X139711445Y-94080466D01*
X139771817Y-94167929D01*
X139858604Y-94244815D01*
X139899150Y-94280736D01*
X140049773Y-94359789D01*
X140049775Y-94359790D01*
X140214944Y-94400500D01*
X140385056Y-94400500D01*
X140550225Y-94359790D01*
X140639522Y-94312923D01*
X140700849Y-94280736D01*
X140700850Y-94280734D01*
X140700852Y-94280734D01*
X140828183Y-94167929D01*
X140924818Y-94027930D01*
X140985140Y-93868872D01*
X141005645Y-93700000D01*
X140985140Y-93531128D01*
X140973334Y-93499999D01*
X140924817Y-93372068D01*
X140880914Y-93308465D01*
X140828183Y-93232071D01*
X140700852Y-93119266D01*
X140691869Y-93114551D01*
X140641659Y-93065964D01*
X140625500Y-93004757D01*
X140625500Y-89545242D01*
X140645185Y-89478203D01*
X140691875Y-89435445D01*
X140700852Y-89430734D01*
X140828183Y-89317929D01*
X140924818Y-89177930D01*
X140985140Y-89018872D01*
X141005645Y-88850000D01*
X140985140Y-88681128D01*
X140924818Y-88522070D01*
X140828183Y-88382071D01*
X140700852Y-88269266D01*
X140691869Y-88264551D01*
X140641659Y-88215964D01*
X140625500Y-88154757D01*
X140625500Y-87667059D01*
X140645185Y-87600020D01*
X140678377Y-87565484D01*
X140680398Y-87564067D01*
X140680404Y-87564065D01*
X140764065Y-87480404D01*
X140814068Y-87373173D01*
X140820500Y-87324316D01*
X140820500Y-86975684D01*
X140814068Y-86926827D01*
X140764065Y-86819596D01*
X140680404Y-86735935D01*
X140672733Y-86728264D01*
X140675561Y-86725435D01*
X140644843Y-86687023D01*
X140637635Y-86617526D01*
X140669143Y-86555165D01*
X140672903Y-86551906D01*
X140672733Y-86551736D01*
X140703969Y-86520500D01*
X140764065Y-86460404D01*
X140814068Y-86353173D01*
X140820500Y-86304316D01*
X140820500Y-85955684D01*
X140814068Y-85906827D01*
X140764065Y-85799596D01*
X140691840Y-85727371D01*
X140658355Y-85666048D01*
X140663339Y-85596356D01*
X140705211Y-85540423D01*
X140723215Y-85529212D01*
X140805751Y-85487158D01*
X140899658Y-85393251D01*
X140959951Y-85274920D01*
X140959951Y-85274918D01*
X140959952Y-85274917D01*
X140975500Y-85176751D01*
X140975500Y-84673248D01*
X140959952Y-84575082D01*
X140959951Y-84575080D01*
X140899658Y-84456749D01*
X140899654Y-84456745D01*
X140899653Y-84456743D01*
X140805756Y-84362846D01*
X140805753Y-84362844D01*
X140805751Y-84362842D01*
X140687420Y-84302549D01*
X140687419Y-84302548D01*
X140687416Y-84302547D01*
X140687417Y-84302547D01*
X140589251Y-84287000D01*
X140589246Y-84287000D01*
X140010754Y-84287000D01*
X140010749Y-84287000D01*
X139912582Y-84302547D01*
X139833692Y-84342744D01*
X139794249Y-84362842D01*
X139794248Y-84362843D01*
X139794243Y-84362846D01*
X139700346Y-84456743D01*
X139700343Y-84456748D01*
X139700342Y-84456749D01*
X139680244Y-84496192D01*
X139640047Y-84575082D01*
X139624500Y-84673248D01*
X139624500Y-85176751D01*
X139640047Y-85274917D01*
X139659364Y-85312829D01*
X139700342Y-85393251D01*
X139700344Y-85393253D01*
X139700346Y-85393256D01*
X139794243Y-85487153D01*
X139794246Y-85487155D01*
X139794249Y-85487158D01*
X139876773Y-85529206D01*
X139927569Y-85577179D01*
X139944364Y-85645000D01*
X139921827Y-85711135D01*
X139908160Y-85727371D01*
X139835934Y-85799597D01*
X139785931Y-85906828D01*
X139779500Y-85955683D01*
X139779500Y-86304316D01*
X139785931Y-86353171D01*
X139835935Y-86460404D01*
X139927267Y-86551736D01*
X139924443Y-86554559D01*
X139955183Y-86593042D01*
X139962352Y-86662542D01*
X139930808Y-86724886D01*
X139927101Y-86728098D01*
X139927267Y-86728264D01*
X139835935Y-86819595D01*
X139785931Y-86926828D01*
X139779500Y-86975683D01*
X139779500Y-87324316D01*
X139785931Y-87373171D01*
X139785932Y-87373173D01*
X139835935Y-87480404D01*
X139919596Y-87564065D01*
X139919598Y-87564066D01*
X139921623Y-87565484D01*
X139924044Y-87568513D01*
X139927267Y-87571736D01*
X139926907Y-87572095D01*
X139965248Y-87620061D01*
X139974500Y-87667059D01*
X139974500Y-88154757D01*
X139954815Y-88221796D01*
X139908131Y-88264551D01*
X139899149Y-88269265D01*
X139899148Y-88269266D01*
X139783445Y-88371770D01*
X139771816Y-88382072D01*
X139675182Y-88522068D01*
X139614860Y-88681125D01*
X139614859Y-88681130D01*
X139594355Y-88850000D01*
X139614859Y-89018869D01*
X139614860Y-89018874D01*
X139675182Y-89177931D01*
X139722031Y-89245802D01*
X139771817Y-89317929D01*
X139899148Y-89430734D01*
X139908124Y-89435445D01*
X139958337Y-89484027D01*
X139974500Y-89545242D01*
X139974500Y-93004757D01*
X139954815Y-93071796D01*
X139908131Y-93114551D01*
X139899149Y-93119265D01*
X139899148Y-93119266D01*
X139771816Y-93232072D01*
X139675182Y-93372068D01*
X139614860Y-93531125D01*
X139614859Y-93531130D01*
X139594355Y-93700000D01*
X133860326Y-93700000D01*
X132794044Y-92633718D01*
X132786734Y-92625741D01*
X132762456Y-92596807D01*
X132762455Y-92596806D01*
X132729734Y-92577914D01*
X132720616Y-92572104D01*
X132689684Y-92550446D01*
X132684861Y-92548197D01*
X132668055Y-92541235D01*
X132663042Y-92539411D01*
X132625852Y-92532852D01*
X132615298Y-92530512D01*
X132578808Y-92520735D01*
X132541181Y-92524028D01*
X132530372Y-92524500D01*
X129199500Y-92524500D01*
X129132461Y-92504815D01*
X129086706Y-92452011D01*
X129075500Y-92400500D01*
X129075500Y-92041739D01*
X129065573Y-91973608D01*
X129065573Y-91973607D01*
X129014198Y-91868517D01*
X129014196Y-91868515D01*
X129014196Y-91868514D01*
X128931485Y-91785803D01*
X128826391Y-91734426D01*
X128758261Y-91724500D01*
X128758260Y-91724500D01*
X126949500Y-91724500D01*
X126882461Y-91704815D01*
X126836706Y-91652011D01*
X126825500Y-91600500D01*
X126825500Y-91579500D01*
X126845185Y-91512461D01*
X126897989Y-91466706D01*
X126949500Y-91455500D01*
X128758261Y-91455500D01*
X128780971Y-91452191D01*
X128826393Y-91445573D01*
X128931483Y-91394198D01*
X129014198Y-91311483D01*
X129065573Y-91206393D01*
X129075500Y-91138260D01*
X129075500Y-90771740D01*
X129065573Y-90703607D01*
X129014198Y-90598517D01*
X129014196Y-90598515D01*
X129014196Y-90598514D01*
X128931485Y-90515803D01*
X128826391Y-90464426D01*
X128758261Y-90454500D01*
X128758260Y-90454500D01*
X126949500Y-90454500D01*
X126882461Y-90434815D01*
X126836706Y-90382011D01*
X126825500Y-90330500D01*
X126825500Y-90309500D01*
X126845185Y-90242461D01*
X126897989Y-90196706D01*
X126949500Y-90185500D01*
X128758261Y-90185500D01*
X128780971Y-90182191D01*
X128826393Y-90175573D01*
X128931483Y-90124198D01*
X129014198Y-90041483D01*
X129065573Y-89936393D01*
X129075500Y-89868260D01*
X129075500Y-89501740D01*
X129065573Y-89433607D01*
X129014198Y-89328517D01*
X129014196Y-89328515D01*
X129014196Y-89328514D01*
X128931485Y-89245803D01*
X128826391Y-89194426D01*
X128758261Y-89184500D01*
X128758260Y-89184500D01*
X126949500Y-89184500D01*
X126882461Y-89164815D01*
X126836706Y-89112011D01*
X126825500Y-89060500D01*
X126825500Y-89039500D01*
X126845185Y-88972461D01*
X126897989Y-88926706D01*
X126949500Y-88915500D01*
X128758261Y-88915500D01*
X128780971Y-88912191D01*
X128826393Y-88905573D01*
X128931483Y-88854198D01*
X128935681Y-88850000D01*
X129008863Y-88776819D01*
X129070186Y-88743334D01*
X129096544Y-88740500D01*
X129878812Y-88740500D01*
X129945851Y-88760185D01*
X129966493Y-88776819D01*
X130163181Y-88973507D01*
X130196666Y-89034830D01*
X130199500Y-89061188D01*
X130199500Y-90369752D01*
X130211131Y-90428229D01*
X130211132Y-90428230D01*
X130255447Y-90494552D01*
X130321769Y-90538867D01*
X130321770Y-90538868D01*
X130380247Y-90550499D01*
X130380250Y-90550500D01*
X131688812Y-90550500D01*
X131755851Y-90570185D01*
X131776493Y-90586819D01*
X132805950Y-91616276D01*
X132813258Y-91624250D01*
X132836552Y-91652011D01*
X132839540Y-91655571D01*
X132856933Y-91682873D01*
X132896776Y-91768316D01*
X132981684Y-91853224D01*
X133090513Y-91903972D01*
X133140099Y-91910500D01*
X133499900Y-91910499D01*
X133509534Y-91909230D01*
X133578565Y-91919994D01*
X133624038Y-91960351D01*
X133625502Y-91959217D01*
X133630283Y-91965381D01*
X133744616Y-92079714D01*
X133744625Y-92079721D01*
X133883804Y-92162031D01*
X134030000Y-92204504D01*
X134030000Y-91650000D01*
X134530000Y-91650000D01*
X134530000Y-92204503D01*
X134676195Y-92162031D01*
X134815374Y-92079721D01*
X134815383Y-92079714D01*
X134929714Y-91965383D01*
X134929721Y-91965374D01*
X135012031Y-91826195D01*
X135012033Y-91826190D01*
X135057144Y-91670918D01*
X135057145Y-91670912D01*
X135058790Y-91650000D01*
X134530000Y-91650000D01*
X134030000Y-91650000D01*
X134030000Y-91150000D01*
X134530000Y-91150000D01*
X135058790Y-91150000D01*
X135057145Y-91129089D01*
X135012031Y-90973804D01*
X134929721Y-90834625D01*
X134929714Y-90834616D01*
X134815383Y-90720285D01*
X134815374Y-90720278D01*
X134676193Y-90637967D01*
X134676190Y-90637965D01*
X134530001Y-90595493D01*
X134530000Y-90595494D01*
X134530000Y-91150000D01*
X134030000Y-91150000D01*
X134030000Y-90595494D01*
X134029998Y-90595493D01*
X133883809Y-90637965D01*
X133883806Y-90637967D01*
X133744625Y-90720278D01*
X133744620Y-90720282D01*
X133630282Y-90834621D01*
X133625499Y-90840788D01*
X133623544Y-90839272D01*
X133581362Y-90878644D01*
X133512618Y-90891135D01*
X133509537Y-90890768D01*
X133499904Y-90889500D01*
X133140106Y-90889500D01*
X133130474Y-90890768D01*
X133090513Y-90896028D01*
X133090510Y-90896029D01*
X133081108Y-90897267D01*
X133080737Y-90894452D01*
X133025947Y-90894341D01*
X132973442Y-90863116D01*
X131936819Y-89826493D01*
X131903334Y-89765170D01*
X131900500Y-89738812D01*
X131900500Y-89650000D01*
X135400000Y-89650000D01*
X135400000Y-90397844D01*
X135406401Y-90457372D01*
X135406403Y-90457379D01*
X135456645Y-90592086D01*
X135456649Y-90592093D01*
X135542809Y-90707187D01*
X135542812Y-90707190D01*
X135657906Y-90793350D01*
X135657913Y-90793354D01*
X135792620Y-90843596D01*
X135792627Y-90843598D01*
X135852155Y-90849999D01*
X135852172Y-90850000D01*
X136300000Y-90850000D01*
X136300000Y-89650000D01*
X136800000Y-89650000D01*
X136800000Y-90850000D01*
X137247828Y-90850000D01*
X137247844Y-90849999D01*
X137307372Y-90843598D01*
X137307379Y-90843596D01*
X137442086Y-90793354D01*
X137442093Y-90793350D01*
X137557187Y-90707190D01*
X137557190Y-90707187D01*
X137643350Y-90592093D01*
X137643354Y-90592086D01*
X137693596Y-90457379D01*
X137693598Y-90457372D01*
X137699999Y-90397844D01*
X137700000Y-90397827D01*
X137700000Y-89650000D01*
X136800000Y-89650000D01*
X136300000Y-89650000D01*
X135400000Y-89650000D01*
X131900500Y-89650000D01*
X131900500Y-89150000D01*
X135400000Y-89150000D01*
X136300000Y-89150000D01*
X136300000Y-87950000D01*
X136800000Y-87950000D01*
X136800000Y-89150000D01*
X137700000Y-89150000D01*
X137700000Y-88402172D01*
X137699999Y-88402155D01*
X137693598Y-88342627D01*
X137693596Y-88342620D01*
X137643354Y-88207913D01*
X137643350Y-88207906D01*
X137557190Y-88092812D01*
X137557187Y-88092809D01*
X137442093Y-88006649D01*
X137442086Y-88006645D01*
X137307379Y-87956403D01*
X137307372Y-87956401D01*
X137247844Y-87950000D01*
X136800000Y-87950000D01*
X136300000Y-87950000D01*
X135852155Y-87950000D01*
X135792627Y-87956401D01*
X135792620Y-87956403D01*
X135657913Y-88006645D01*
X135657906Y-88006649D01*
X135542812Y-88092809D01*
X135542809Y-88092812D01*
X135456649Y-88207906D01*
X135456645Y-88207913D01*
X135406403Y-88342620D01*
X135406401Y-88342627D01*
X135400000Y-88402155D01*
X135400000Y-89150000D01*
X131900500Y-89150000D01*
X131900500Y-88430249D01*
X131900499Y-88430247D01*
X131888868Y-88371770D01*
X131888867Y-88371769D01*
X131844552Y-88305447D01*
X131778230Y-88261132D01*
X131778229Y-88261131D01*
X131719752Y-88249500D01*
X131719748Y-88249500D01*
X130411188Y-88249500D01*
X130344149Y-88229815D01*
X130323507Y-88213181D01*
X130309044Y-88198718D01*
X130301734Y-88190741D01*
X130277456Y-88161807D01*
X130277455Y-88161806D01*
X130244734Y-88142914D01*
X130235616Y-88137104D01*
X130204684Y-88115446D01*
X130199861Y-88113197D01*
X130183055Y-88106235D01*
X130178042Y-88104411D01*
X130140852Y-88097852D01*
X130130298Y-88095512D01*
X130093808Y-88085735D01*
X130056181Y-88089028D01*
X130045372Y-88089500D01*
X129096544Y-88089500D01*
X129029505Y-88069815D01*
X129008863Y-88053181D01*
X128931485Y-87975803D01*
X128826391Y-87924426D01*
X128758261Y-87914500D01*
X128758260Y-87914500D01*
X126949500Y-87914500D01*
X126882461Y-87894815D01*
X126836706Y-87842011D01*
X126825500Y-87790500D01*
X126825500Y-87769500D01*
X126845185Y-87702461D01*
X126897989Y-87656706D01*
X126949500Y-87645500D01*
X128758261Y-87645500D01*
X128780971Y-87642191D01*
X128826393Y-87635573D01*
X128931483Y-87584198D01*
X128951618Y-87564063D01*
X129008863Y-87506819D01*
X129070186Y-87473334D01*
X129096544Y-87470500D01*
X130085372Y-87470500D01*
X130096180Y-87470971D01*
X130133807Y-87474264D01*
X130170319Y-87464479D01*
X130180830Y-87462149D01*
X130218045Y-87455588D01*
X130218050Y-87455584D01*
X130223099Y-87453747D01*
X130239824Y-87446819D01*
X130244681Y-87444554D01*
X130244684Y-87444554D01*
X130275625Y-87422887D01*
X130284744Y-87417079D01*
X130317455Y-87398194D01*
X130320305Y-87394797D01*
X130378474Y-87356094D01*
X130415297Y-87350500D01*
X131719750Y-87350500D01*
X131719751Y-87350499D01*
X131736786Y-87347111D01*
X131778229Y-87338868D01*
X131778229Y-87338867D01*
X131778231Y-87338867D01*
X131844552Y-87294552D01*
X131888867Y-87228231D01*
X131888867Y-87228229D01*
X131888868Y-87228229D01*
X131900499Y-87169752D01*
X131900500Y-87169750D01*
X131900500Y-86450000D01*
X135400000Y-86450000D01*
X135400000Y-87197844D01*
X135406401Y-87257372D01*
X135406403Y-87257379D01*
X135456645Y-87392086D01*
X135456649Y-87392093D01*
X135542809Y-87507187D01*
X135542812Y-87507190D01*
X135657906Y-87593350D01*
X135657913Y-87593354D01*
X135792620Y-87643596D01*
X135792627Y-87643598D01*
X135852155Y-87649999D01*
X135852172Y-87650000D01*
X136300000Y-87650000D01*
X136300000Y-86450000D01*
X136800000Y-86450000D01*
X136800000Y-87650000D01*
X137247828Y-87650000D01*
X137247844Y-87649999D01*
X137307372Y-87643598D01*
X137307379Y-87643596D01*
X137442086Y-87593354D01*
X137442093Y-87593350D01*
X137557187Y-87507190D01*
X137557190Y-87507187D01*
X137643350Y-87392093D01*
X137643354Y-87392086D01*
X137693596Y-87257379D01*
X137693598Y-87257372D01*
X137699999Y-87197844D01*
X137700000Y-87197827D01*
X137700000Y-86450000D01*
X136800000Y-86450000D01*
X136300000Y-86450000D01*
X135400000Y-86450000D01*
X131900500Y-86450000D01*
X131900500Y-85950000D01*
X135400000Y-85950000D01*
X136300000Y-85950000D01*
X136300000Y-84750000D01*
X136800000Y-84750000D01*
X136800000Y-85950000D01*
X137700000Y-85950000D01*
X137700000Y-85202172D01*
X137699999Y-85202155D01*
X137693598Y-85142627D01*
X137693596Y-85142620D01*
X137643354Y-85007913D01*
X137643350Y-85007906D01*
X137557190Y-84892812D01*
X137557187Y-84892809D01*
X137442093Y-84806649D01*
X137442086Y-84806645D01*
X137307379Y-84756403D01*
X137307372Y-84756401D01*
X137247844Y-84750000D01*
X136800000Y-84750000D01*
X136300000Y-84750000D01*
X135852155Y-84750000D01*
X135792627Y-84756401D01*
X135792620Y-84756403D01*
X135657913Y-84806645D01*
X135657906Y-84806649D01*
X135542812Y-84892809D01*
X135542809Y-84892812D01*
X135456649Y-85007906D01*
X135456645Y-85007913D01*
X135406403Y-85142620D01*
X135406401Y-85142627D01*
X135400000Y-85202155D01*
X135400000Y-85950000D01*
X131900500Y-85950000D01*
X131900500Y-85861187D01*
X131920185Y-85794148D01*
X131936814Y-85773510D01*
X132973442Y-84736882D01*
X133034763Y-84703399D01*
X133080808Y-84704998D01*
X133081107Y-84702734D01*
X133098197Y-84704983D01*
X133140099Y-84710500D01*
X133499900Y-84710499D01*
X133509534Y-84709230D01*
X133578565Y-84719994D01*
X133624038Y-84760351D01*
X133625502Y-84759217D01*
X133630283Y-84765381D01*
X133744616Y-84879714D01*
X133744625Y-84879721D01*
X133883804Y-84962031D01*
X134030000Y-85004504D01*
X134030000Y-84450000D01*
X134530000Y-84450000D01*
X134530000Y-85004503D01*
X134676195Y-84962031D01*
X134815374Y-84879721D01*
X134815383Y-84879714D01*
X134929714Y-84765383D01*
X134929721Y-84765374D01*
X135012031Y-84626195D01*
X135012033Y-84626190D01*
X135057144Y-84470918D01*
X135057145Y-84470912D01*
X135058790Y-84450000D01*
X134530000Y-84450000D01*
X134030000Y-84450000D01*
X134030000Y-84074000D01*
X134049685Y-84006961D01*
X134102489Y-83961206D01*
X134154000Y-83950000D01*
X135058790Y-83950000D01*
X135057145Y-83929089D01*
X135025189Y-83819094D01*
X135025389Y-83749225D01*
X135063332Y-83690555D01*
X135126970Y-83661712D01*
X135144266Y-83660500D01*
X139543977Y-83660500D01*
X139611016Y-83680185D01*
X139654459Y-83728202D01*
X139677895Y-83774196D01*
X139700343Y-83818252D01*
X139700346Y-83818256D01*
X139794243Y-83912153D01*
X139794245Y-83912154D01*
X139794249Y-83912158D01*
X139912580Y-83972451D01*
X139912581Y-83972451D01*
X139912583Y-83972452D01*
X139912582Y-83972452D01*
X140010749Y-83988000D01*
X140010754Y-83988000D01*
X140589251Y-83988000D01*
X140687417Y-83972452D01*
X140687418Y-83972451D01*
X140687420Y-83972451D01*
X140805751Y-83912158D01*
X140899658Y-83818251D01*
X140959951Y-83699920D01*
X140959951Y-83699918D01*
X140959952Y-83699917D01*
X140975500Y-83601751D01*
X140975500Y-83098248D01*
X140959952Y-83000082D01*
X140948964Y-82978517D01*
X140899658Y-82881749D01*
X140899654Y-82881745D01*
X140899653Y-82881743D01*
X140805756Y-82787846D01*
X140805753Y-82787844D01*
X140805751Y-82787842D01*
X140687420Y-82727549D01*
X140687419Y-82727548D01*
X140687416Y-82727547D01*
X140687417Y-82727547D01*
X140589251Y-82712000D01*
X140589246Y-82712000D01*
X140010754Y-82712000D01*
X140010749Y-82712000D01*
X139912582Y-82727547D01*
X139844945Y-82762011D01*
X139794249Y-82787842D01*
X139794248Y-82787843D01*
X139794243Y-82787846D01*
X139700346Y-82881743D01*
X139700341Y-82881750D01*
X139669746Y-82941796D01*
X139621772Y-82992591D01*
X139559262Y-83009500D01*
X129096544Y-83009500D01*
X129029505Y-82989815D01*
X129008863Y-82973181D01*
X128931485Y-82895803D01*
X128826391Y-82844426D01*
X128758261Y-82834500D01*
X128758260Y-82834500D01*
X127275188Y-82834500D01*
X127208149Y-82814815D01*
X127162394Y-82762011D01*
X127152450Y-82692853D01*
X127181475Y-82629297D01*
X127187507Y-82622819D01*
X127208507Y-82601819D01*
X127269830Y-82568334D01*
X127296188Y-82565500D01*
X128758261Y-82565500D01*
X128792577Y-82560500D01*
X128826393Y-82555573D01*
X128931483Y-82504198D01*
X128993863Y-82441817D01*
X129055184Y-82408334D01*
X129081543Y-82405500D01*
X129282597Y-82405500D01*
X129349636Y-82425185D01*
X129370278Y-82441818D01*
X129431684Y-82503224D01*
X129540513Y-82553972D01*
X129590099Y-82560500D01*
X130009900Y-82560499D01*
X130059487Y-82553972D01*
X130168316Y-82503224D01*
X130253224Y-82418316D01*
X130303972Y-82309487D01*
X130310500Y-82259901D01*
X130310499Y-81900100D01*
X130309230Y-81890463D01*
X130319994Y-81821433D01*
X130360350Y-81775962D01*
X130359215Y-81774499D01*
X130365383Y-81769714D01*
X130479714Y-81655383D01*
X130479721Y-81655374D01*
X130562031Y-81516195D01*
X130604504Y-81370000D01*
X129674000Y-81370000D01*
X129606961Y-81350315D01*
X129561206Y-81297511D01*
X129550000Y-81246000D01*
X129550000Y-80341210D01*
X129549999Y-80341209D01*
X130050000Y-80341209D01*
X130050000Y-80870000D01*
X130604504Y-80870000D01*
X130562031Y-80723804D01*
X130479721Y-80584625D01*
X130479714Y-80584616D01*
X130365383Y-80470285D01*
X130365374Y-80470278D01*
X130226195Y-80387968D01*
X130226190Y-80387966D01*
X130070918Y-80342855D01*
X130070912Y-80342854D01*
X130050000Y-80341209D01*
X129549999Y-80341209D01*
X129529087Y-80342854D01*
X129529081Y-80342855D01*
X129373809Y-80387966D01*
X129373804Y-80387968D01*
X129234625Y-80470278D01*
X129234614Y-80470286D01*
X129219806Y-80485095D01*
X129158482Y-80518579D01*
X129088791Y-80513593D01*
X129032858Y-80471720D01*
X129020729Y-80451876D01*
X129014198Y-80438517D01*
X129014196Y-80438515D01*
X129014196Y-80438514D01*
X128931485Y-80355803D01*
X128826391Y-80304426D01*
X128758261Y-80294500D01*
X128758260Y-80294500D01*
X126941740Y-80294500D01*
X126941739Y-80294500D01*
X126873608Y-80304426D01*
X126768514Y-80355803D01*
X126685803Y-80438514D01*
X126634426Y-80543608D01*
X126624500Y-80611739D01*
X126624500Y-80978260D01*
X126634426Y-81046391D01*
X126685803Y-81151485D01*
X126768514Y-81234196D01*
X126768515Y-81234196D01*
X126768517Y-81234198D01*
X126873607Y-81285573D01*
X126874486Y-81285701D01*
X126941739Y-81295500D01*
X126941740Y-81295500D01*
X128758261Y-81295500D01*
X128825514Y-81285701D01*
X128826393Y-81285573D01*
X128826394Y-81285572D01*
X128835595Y-81282730D01*
X128836513Y-81285701D01*
X128889409Y-81276655D01*
X128953714Y-81303981D01*
X128993037Y-81361734D01*
X128994108Y-81365225D01*
X129014547Y-81435578D01*
X129014347Y-81505447D01*
X128976404Y-81564117D01*
X128912766Y-81592960D01*
X128843636Y-81582818D01*
X128841010Y-81581573D01*
X128826391Y-81574426D01*
X128758261Y-81564500D01*
X128758260Y-81564500D01*
X126941740Y-81564500D01*
X126941739Y-81564500D01*
X126873608Y-81574426D01*
X126768514Y-81625803D01*
X126685803Y-81708514D01*
X126634426Y-81813608D01*
X126624500Y-81881739D01*
X126624500Y-82213811D01*
X126604815Y-82280850D01*
X126588181Y-82301492D01*
X126283715Y-82605957D01*
X126275742Y-82613264D01*
X126246805Y-82637545D01*
X126227914Y-82670264D01*
X126222105Y-82679381D01*
X126200446Y-82710313D01*
X126198206Y-82715117D01*
X126191229Y-82731961D01*
X126189410Y-82736960D01*
X126182852Y-82774148D01*
X126180512Y-82784703D01*
X126170735Y-82821191D01*
X126170735Y-82821192D01*
X126174028Y-82858817D01*
X126174500Y-82869626D01*
X126174500Y-94420371D01*
X126174028Y-94431180D01*
X126170735Y-94468807D01*
X119743672Y-94468807D01*
X119714198Y-94408517D01*
X119714196Y-94408515D01*
X119714196Y-94408514D01*
X119631485Y-94325803D01*
X119526391Y-94274426D01*
X119458261Y-94264500D01*
X119458260Y-94264500D01*
X117641740Y-94264500D01*
X117641739Y-94264500D01*
X117573608Y-94274426D01*
X117468514Y-94325803D01*
X117391137Y-94403181D01*
X117329814Y-94436666D01*
X117303456Y-94439500D01*
X116729113Y-94439500D01*
X116662074Y-94419815D01*
X116630738Y-94390987D01*
X116622275Y-94379959D01*
X116610451Y-94364549D01*
X116490233Y-94272302D01*
X116490230Y-94272301D01*
X116490228Y-94272299D01*
X116441368Y-94252061D01*
X116386964Y-94208220D01*
X116364899Y-94141926D01*
X116382178Y-94074227D01*
X116433315Y-94026616D01*
X116441368Y-94022939D01*
X116490228Y-94002700D01*
X116490229Y-94002700D01*
X116490229Y-94002699D01*
X116490233Y-94002698D01*
X116610451Y-93910451D01*
X116642248Y-93869013D01*
X116698676Y-93827811D01*
X116740623Y-93820500D01*
X117303456Y-93820500D01*
X117370495Y-93840185D01*
X117391137Y-93856819D01*
X117468514Y-93934196D01*
X117468515Y-93934196D01*
X117468517Y-93934198D01*
X117573607Y-93985573D01*
X117607673Y-93990536D01*
X117641739Y-93995500D01*
X117641740Y-93995500D01*
X119458261Y-93995500D01*
X119480971Y-93992191D01*
X119526393Y-93985573D01*
X119631483Y-93934198D01*
X119714198Y-93851483D01*
X119765573Y-93746393D01*
X119775500Y-93678260D01*
X119775500Y-93311740D01*
X119765573Y-93243607D01*
X119714198Y-93138517D01*
X119714196Y-93138515D01*
X119714196Y-93138514D01*
X119631485Y-93055803D01*
X119526391Y-93004426D01*
X119458261Y-92994500D01*
X119458260Y-92994500D01*
X117641740Y-92994500D01*
X117641739Y-92994500D01*
X117573608Y-93004426D01*
X117468514Y-93055803D01*
X117391137Y-93133181D01*
X117329814Y-93166666D01*
X117303456Y-93169500D01*
X116732950Y-93169500D01*
X116665911Y-93149815D01*
X116634575Y-93120988D01*
X116629636Y-93114551D01*
X116610451Y-93089549D01*
X116490233Y-92997302D01*
X116490229Y-92997300D01*
X116350236Y-92939313D01*
X116350234Y-92939312D01*
X116200001Y-92919534D01*
X116199999Y-92919534D01*
X116049765Y-92939312D01*
X116049763Y-92939313D01*
X115909770Y-92997300D01*
X115909767Y-92997301D01*
X115909767Y-92997302D01*
X115812685Y-93071796D01*
X115789549Y-93089549D01*
X115697300Y-93209770D01*
X115639313Y-93349763D01*
X115639312Y-93349765D01*
X115619534Y-93499999D01*
X115619534Y-93500000D01*
X115639312Y-93650234D01*
X115639313Y-93650236D01*
X115697302Y-93790233D01*
X115789549Y-93910451D01*
X115909767Y-94002698D01*
X115909772Y-94002700D01*
X115958632Y-94022939D01*
X116013035Y-94066780D01*
X116035100Y-94133074D01*
X116017821Y-94200774D01*
X115966683Y-94248384D01*
X115958632Y-94252061D01*
X115909770Y-94272300D01*
X115909767Y-94272301D01*
X115909767Y-94272302D01*
X115789549Y-94364549D01*
X115709550Y-94468806D01*
X115697300Y-94484770D01*
X115639313Y-94624763D01*
X115639312Y-94624765D01*
X115619534Y-94774999D01*
X115619534Y-94775000D01*
X115639312Y-94925234D01*
X115639313Y-94925236D01*
X115681200Y-95026361D01*
X115697302Y-95065233D01*
X115789549Y-95185451D01*
X115909767Y-95277698D01*
X115909772Y-95277700D01*
X115958632Y-95297939D01*
X116013035Y-95341780D01*
X116035100Y-95408074D01*
X116017821Y-95475774D01*
X115966683Y-95523384D01*
X115958632Y-95527061D01*
X115909770Y-95547300D01*
X115909767Y-95547301D01*
X115909767Y-95547302D01*
X115789549Y-95639549D01*
X115735874Y-95709500D01*
X115697300Y-95759770D01*
X115639313Y-95899763D01*
X115639312Y-95899765D01*
X115619534Y-96049999D01*
X115619534Y-96050000D01*
X115639312Y-96200234D01*
X115639313Y-96200236D01*
X115675000Y-96286393D01*
X115697302Y-96340233D01*
X115789549Y-96460451D01*
X115909767Y-96552698D01*
X115909772Y-96552700D01*
X115958632Y-96572939D01*
X116013035Y-96616780D01*
X116035100Y-96683074D01*
X116017821Y-96750774D01*
X115966683Y-96798384D01*
X115958632Y-96802061D01*
X115909770Y-96822300D01*
X115909767Y-96822301D01*
X115909767Y-96822302D01*
X115824788Y-96887509D01*
X115789549Y-96914549D01*
X115697300Y-97034770D01*
X115639313Y-97174763D01*
X115639312Y-97174765D01*
X115619534Y-97324999D01*
X115619534Y-97325000D01*
X115001541Y-97325000D01*
X115001541Y-92408260D01*
X117324500Y-92408260D01*
X117334426Y-92476391D01*
X117385803Y-92581485D01*
X117468514Y-92664196D01*
X117468515Y-92664196D01*
X117468517Y-92664198D01*
X117573607Y-92715573D01*
X117607673Y-92720536D01*
X117641739Y-92725500D01*
X117641740Y-92725500D01*
X119458261Y-92725500D01*
X119480971Y-92722191D01*
X119526393Y-92715573D01*
X119631483Y-92664198D01*
X119714198Y-92581483D01*
X119765573Y-92476393D01*
X119775500Y-92408260D01*
X119775500Y-92041740D01*
X119765573Y-91973607D01*
X119714198Y-91868517D01*
X119714196Y-91868515D01*
X119714196Y-91868514D01*
X119631485Y-91785803D01*
X119526391Y-91734426D01*
X119458261Y-91724500D01*
X119458260Y-91724500D01*
X117641740Y-91724500D01*
X117641739Y-91724500D01*
X117573608Y-91734426D01*
X117468514Y-91785803D01*
X117385803Y-91868514D01*
X117334426Y-91973608D01*
X117324500Y-92041739D01*
X117324500Y-92408260D01*
X115001541Y-92408260D01*
X115001541Y-91138260D01*
X117324500Y-91138260D01*
X117334426Y-91206391D01*
X117385803Y-91311485D01*
X117468514Y-91394196D01*
X117468515Y-91394196D01*
X117468517Y-91394198D01*
X117573607Y-91445573D01*
X117607673Y-91450536D01*
X117641739Y-91455500D01*
X117641740Y-91455500D01*
X119458261Y-91455500D01*
X119480971Y-91452191D01*
X119526393Y-91445573D01*
X119631483Y-91394198D01*
X119714198Y-91311483D01*
X119765573Y-91206393D01*
X119775500Y-91138260D01*
X119775500Y-90771740D01*
X119765573Y-90703607D01*
X119714198Y-90598517D01*
X119714196Y-90598515D01*
X119714196Y-90598514D01*
X119631485Y-90515803D01*
X119526391Y-90464426D01*
X119458261Y-90454500D01*
X119458260Y-90454500D01*
X117641740Y-90454500D01*
X117641739Y-90454500D01*
X117573608Y-90464426D01*
X117468514Y-90515803D01*
X117385803Y-90598514D01*
X117334426Y-90703608D01*
X117324500Y-90771739D01*
X117324500Y-91138260D01*
X115001541Y-91138260D01*
X115001541Y-89868260D01*
X117324500Y-89868260D01*
X117334426Y-89936391D01*
X117385803Y-90041485D01*
X117468514Y-90124196D01*
X117468515Y-90124196D01*
X117468517Y-90124198D01*
X117573607Y-90175573D01*
X117607673Y-90180536D01*
X117641739Y-90185500D01*
X117641740Y-90185500D01*
X119458261Y-90185500D01*
X119480971Y-90182191D01*
X119526393Y-90175573D01*
X119631483Y-90124198D01*
X119714198Y-90041483D01*
X119765573Y-89936393D01*
X119775500Y-89868260D01*
X119775500Y-89501740D01*
X119765573Y-89433607D01*
X119714198Y-89328517D01*
X119714196Y-89328515D01*
X119714196Y-89328514D01*
X119631485Y-89245803D01*
X119526391Y-89194426D01*
X119458261Y-89184500D01*
X119458260Y-89184500D01*
X117641740Y-89184500D01*
X117641739Y-89184500D01*
X117573608Y-89194426D01*
X117468514Y-89245803D01*
X117385803Y-89328514D01*
X117334426Y-89433608D01*
X117324500Y-89501739D01*
X117324500Y-89868260D01*
X115001541Y-89868260D01*
X115001541Y-88598260D01*
X117324500Y-88598260D01*
X117334426Y-88666391D01*
X117385803Y-88771485D01*
X117468514Y-88854196D01*
X117468515Y-88854196D01*
X117468517Y-88854198D01*
X117573607Y-88905573D01*
X117607673Y-88910536D01*
X117641739Y-88915500D01*
X117641740Y-88915500D01*
X119458261Y-88915500D01*
X119480971Y-88912191D01*
X119526393Y-88905573D01*
X119631483Y-88854198D01*
X119714198Y-88771483D01*
X119765573Y-88666393D01*
X119775500Y-88598260D01*
X119775500Y-88231740D01*
X119773201Y-88215964D01*
X119770536Y-88197673D01*
X119765573Y-88163607D01*
X119714198Y-88058517D01*
X119714196Y-88058515D01*
X119714196Y-88058514D01*
X119631485Y-87975803D01*
X119526391Y-87924426D01*
X119458261Y-87914500D01*
X119458260Y-87914500D01*
X117641740Y-87914500D01*
X117641739Y-87914500D01*
X117573608Y-87924426D01*
X117468514Y-87975803D01*
X117385803Y-88058514D01*
X117334426Y-88163608D01*
X117324500Y-88231739D01*
X117324500Y-88598260D01*
X115001541Y-88598260D01*
X115001541Y-87328260D01*
X117324500Y-87328260D01*
X117334426Y-87396391D01*
X117334427Y-87396393D01*
X117367030Y-87463085D01*
X117385803Y-87501485D01*
X117468514Y-87584196D01*
X117468515Y-87584196D01*
X117468517Y-87584198D01*
X117573607Y-87635573D01*
X117607673Y-87640536D01*
X117641739Y-87645500D01*
X117641740Y-87645500D01*
X119458261Y-87645500D01*
X119480971Y-87642191D01*
X119526393Y-87635573D01*
X119631483Y-87584198D01*
X119714198Y-87501483D01*
X119765573Y-87396393D01*
X119775500Y-87328260D01*
X119775500Y-86961740D01*
X119765573Y-86893607D01*
X119714198Y-86788517D01*
X119714196Y-86788515D01*
X119714196Y-86788514D01*
X119631485Y-86705803D01*
X119526391Y-86654426D01*
X119458261Y-86644500D01*
X119458260Y-86644500D01*
X117641740Y-86644500D01*
X117641739Y-86644500D01*
X117573608Y-86654426D01*
X117468514Y-86705803D01*
X117385803Y-86788514D01*
X117334426Y-86893608D01*
X117324500Y-86961739D01*
X117324500Y-87328260D01*
X115001541Y-87328260D01*
X115001541Y-84855001D01*
X117027704Y-84855001D01*
X117027899Y-84857486D01*
X117073718Y-85015198D01*
X117157314Y-85156552D01*
X117157321Y-85156561D01*
X117273438Y-85272678D01*
X117273446Y-85272684D01*
X117360925Y-85324419D01*
X117408608Y-85375488D01*
X117421112Y-85444230D01*
X117394467Y-85508819D01*
X117385927Y-85518340D01*
X117385804Y-85518513D01*
X117334426Y-85623608D01*
X117324500Y-85691739D01*
X117324500Y-86058260D01*
X117334426Y-86126391D01*
X117385803Y-86231485D01*
X117468514Y-86314196D01*
X117468515Y-86314196D01*
X117468517Y-86314198D01*
X117573607Y-86365573D01*
X117607673Y-86370536D01*
X117641739Y-86375500D01*
X117641740Y-86375500D01*
X119458261Y-86375500D01*
X119480971Y-86372191D01*
X119526393Y-86365573D01*
X119631483Y-86314198D01*
X119714198Y-86231483D01*
X119765573Y-86126393D01*
X119775500Y-86058260D01*
X119775500Y-85691740D01*
X119765573Y-85623607D01*
X119714198Y-85518517D01*
X119714195Y-85518514D01*
X119714195Y-85518513D01*
X119708227Y-85510153D01*
X119709340Y-85509357D01*
X119681029Y-85457509D01*
X119686013Y-85387817D01*
X119727885Y-85331884D01*
X119739075Y-85324419D01*
X119826550Y-85272687D01*
X119826561Y-85272678D01*
X119942678Y-85156561D01*
X119942685Y-85156552D01*
X120026281Y-85015198D01*
X120072100Y-84857486D01*
X120072295Y-84855001D01*
X120072295Y-84855000D01*
X117027705Y-84855000D01*
X117027704Y-84855001D01*
X115001541Y-84855001D01*
X115001541Y-84354998D01*
X117027704Y-84354998D01*
X117027705Y-84355000D01*
X120072295Y-84355000D01*
X120072295Y-84354998D01*
X120072100Y-84352513D01*
X120026281Y-84194801D01*
X119942685Y-84053447D01*
X119942678Y-84053438D01*
X119826561Y-83937321D01*
X119826552Y-83937314D01*
X119739074Y-83885580D01*
X119691390Y-83834511D01*
X119678887Y-83765769D01*
X119705532Y-83701180D01*
X119714074Y-83691656D01*
X119714195Y-83691486D01*
X119714198Y-83691483D01*
X119765573Y-83586393D01*
X119775500Y-83518260D01*
X119775500Y-83151740D01*
X119765573Y-83083607D01*
X119714198Y-82978517D01*
X119714196Y-82978515D01*
X119714196Y-82978514D01*
X119631485Y-82895803D01*
X119526391Y-82844426D01*
X119458261Y-82834500D01*
X119458260Y-82834500D01*
X117641740Y-82834500D01*
X117641739Y-82834500D01*
X117573608Y-82844426D01*
X117468514Y-82895803D01*
X117385803Y-82978514D01*
X117334426Y-83083608D01*
X117324500Y-83151739D01*
X117324500Y-83518260D01*
X117334426Y-83586391D01*
X117334427Y-83586393D01*
X117385802Y-83691483D01*
X117385803Y-83691484D01*
X117385804Y-83691486D01*
X117391773Y-83699847D01*
X117390658Y-83700642D01*
X117418970Y-83752490D01*
X117413986Y-83822182D01*
X117372114Y-83878115D01*
X117360926Y-83885580D01*
X117273444Y-83937317D01*
X117273438Y-83937321D01*
X117157321Y-84053438D01*
X117157314Y-84053447D01*
X117073718Y-84194801D01*
X117027899Y-84352513D01*
X117027704Y-84354998D01*
X115001541Y-84354998D01*
X115001541Y-82248260D01*
X117324500Y-82248260D01*
X117334426Y-82316391D01*
X117385803Y-82421485D01*
X117468514Y-82504196D01*
X117468515Y-82504196D01*
X117468517Y-82504198D01*
X117573607Y-82555573D01*
X117607416Y-82560499D01*
X117641739Y-82565500D01*
X117641740Y-82565500D01*
X119458261Y-82565500D01*
X119492577Y-82560500D01*
X119526393Y-82555573D01*
X119631483Y-82504198D01*
X119714198Y-82421483D01*
X119765573Y-82316393D01*
X119775500Y-82248260D01*
X119775500Y-81881740D01*
X119765573Y-81813607D01*
X119714198Y-81708517D01*
X119714196Y-81708515D01*
X119714196Y-81708514D01*
X119631485Y-81625803D01*
X119526391Y-81574426D01*
X119458261Y-81564500D01*
X119458260Y-81564500D01*
X117641740Y-81564500D01*
X117641739Y-81564500D01*
X117573608Y-81574426D01*
X117468514Y-81625803D01*
X117385803Y-81708514D01*
X117334426Y-81813608D01*
X117324500Y-81881739D01*
X117324500Y-82248260D01*
X115001541Y-82248260D01*
X115001541Y-80978260D01*
X117324500Y-80978260D01*
X117334426Y-81046391D01*
X117385803Y-81151485D01*
X117468514Y-81234196D01*
X117468515Y-81234196D01*
X117468517Y-81234198D01*
X117573607Y-81285573D01*
X117574486Y-81285701D01*
X117641739Y-81295500D01*
X117641740Y-81295500D01*
X119458261Y-81295500D01*
X119480971Y-81292191D01*
X119526393Y-81285573D01*
X119631483Y-81234198D01*
X119714198Y-81151483D01*
X119765573Y-81046393D01*
X119775500Y-80978260D01*
X119775500Y-80611740D01*
X119765573Y-80543607D01*
X119714198Y-80438517D01*
X119714196Y-80438515D01*
X119714196Y-80438514D01*
X119631485Y-80355803D01*
X119526391Y-80304426D01*
X119458261Y-80294500D01*
X119458260Y-80294500D01*
X117641740Y-80294500D01*
X117641739Y-80294500D01*
X117573608Y-80304426D01*
X117468514Y-80355803D01*
X117385803Y-80438514D01*
X117334426Y-80543608D01*
X117324500Y-80611739D01*
X117324500Y-80978260D01*
X115001541Y-80978260D01*
X115001541Y-80207131D01*
X115002137Y-80194986D01*
X115002138Y-80194978D01*
X115004933Y-80166578D01*
X115005087Y-80165126D01*
X115019544Y-80036816D01*
X115024095Y-80014741D01*
X115041182Y-79958406D01*
X115042766Y-79953556D01*
X115073833Y-79864773D01*
X115081505Y-79847298D01*
X115112221Y-79789830D01*
X115116542Y-79782384D01*
X115163351Y-79707889D01*
X115172456Y-79695246D01*
X115215039Y-79643358D01*
X115223172Y-79634385D01*
X115284385Y-79573172D01*
X115293358Y-79565039D01*
X115345246Y-79522456D01*
X115357889Y-79513351D01*
X115432384Y-79466542D01*
X115439830Y-79462221D01*
X115497298Y-79431505D01*
X115514773Y-79423833D01*
X115603556Y-79392766D01*
X115608406Y-79391182D01*
X115664741Y-79374095D01*
X115686816Y-79369544D01*
X115815126Y-79355087D01*
X115816578Y-79354933D01*
X115844987Y-79352136D01*
X115857132Y-79351541D01*
X142042868Y-79351541D01*
X142055011Y-79352136D01*
G37*
%TD.AperFunction*%
%TD*%
%TA.AperFunction,NonConductor*%
G36*
X132848999Y-83680185D02*
G01*
X132894754Y-83732989D01*
X132904698Y-83802147D01*
X132894341Y-83836903D01*
X132889771Y-83846706D01*
X132856930Y-83917130D01*
X132839538Y-83944429D01*
X132813264Y-83975741D01*
X132805956Y-83983716D01*
X131776492Y-85013181D01*
X131715169Y-85046666D01*
X131688811Y-85049500D01*
X130380247Y-85049500D01*
X130321770Y-85061131D01*
X130321769Y-85061132D01*
X130255447Y-85105447D01*
X130211132Y-85171769D01*
X130211131Y-85171770D01*
X130199500Y-85230247D01*
X130199500Y-86538812D01*
X130179815Y-86605851D01*
X130163181Y-86626493D01*
X130006493Y-86783181D01*
X129945170Y-86816666D01*
X129918812Y-86819500D01*
X129096544Y-86819500D01*
X129029505Y-86799815D01*
X129008863Y-86783181D01*
X128931485Y-86705803D01*
X128826391Y-86654426D01*
X128758261Y-86644500D01*
X128758260Y-86644500D01*
X126949500Y-86644500D01*
X126882461Y-86624815D01*
X126836706Y-86572011D01*
X126825500Y-86520500D01*
X126825500Y-86499500D01*
X126845185Y-86432461D01*
X126897989Y-86386706D01*
X126949500Y-86375500D01*
X128758261Y-86375500D01*
X128780971Y-86372191D01*
X128826393Y-86365573D01*
X128931483Y-86314198D01*
X129014198Y-86231483D01*
X129065573Y-86126393D01*
X129075500Y-86058260D01*
X129075500Y-85691740D01*
X129065573Y-85623607D01*
X129014198Y-85518517D01*
X129014196Y-85518515D01*
X129014196Y-85518514D01*
X128931485Y-85435803D01*
X128826391Y-85384426D01*
X128758261Y-85374500D01*
X128758260Y-85374500D01*
X128299500Y-85374500D01*
X128232461Y-85354815D01*
X128186706Y-85302011D01*
X128175500Y-85250500D01*
X128175500Y-85229500D01*
X128195185Y-85162461D01*
X128247989Y-85116706D01*
X128299500Y-85105500D01*
X128758261Y-85105500D01*
X128780971Y-85102191D01*
X128826393Y-85095573D01*
X128931483Y-85044198D01*
X129014198Y-84961483D01*
X129065573Y-84856393D01*
X129075500Y-84788260D01*
X129075500Y-84421740D01*
X129065573Y-84353607D01*
X129014198Y-84248517D01*
X129014196Y-84248515D01*
X129014196Y-84248514D01*
X128931485Y-84165803D01*
X128826391Y-84114426D01*
X128758261Y-84104500D01*
X128758260Y-84104500D01*
X126949500Y-84104500D01*
X126882461Y-84084815D01*
X126836706Y-84032011D01*
X126825500Y-83980500D01*
X126825500Y-83959500D01*
X126845185Y-83892461D01*
X126897989Y-83846706D01*
X126949500Y-83835500D01*
X128758261Y-83835500D01*
X128784451Y-83831684D01*
X128826393Y-83825573D01*
X128931483Y-83774198D01*
X128958905Y-83746776D01*
X129008863Y-83696819D01*
X129070186Y-83663334D01*
X129096544Y-83660500D01*
X132781960Y-83660500D01*
X132848999Y-83680185D01*
G37*
%TD.AperFunction*%
M02*
