M48
; DRILL file {KiCad 8.0.0~rc1-42d8c85f12~176~ubuntu22.04.1} date 2024-01-15T17:13:58+1000
; FORMAT={-:-/ absolute / metric / decimal}
; #@! TF.CreationDate,2024-01-15T17:13:58+10:00
; #@! TF.GenerationSoftware,Kicad,Pcbnew,8.0.0~rc1-42d8c85f12~176~ubuntu22.04.1
; #@! TF.FileFunction,Plated,1,2,PTH
FMAT,2
METRIC
; #@! TA.AperFunction,Plated,PTH,ComponentDrill
T1C0.350
; #@! TA.AperFunction,Plated,PTH,ViaDrill
T2C0.400
%
G90
G05
T1
X123.0Y-86.0
X124.0Y-84.0
X124.0Y-84.975
X128.75Y-84.975
X129.5Y-84.975
X134.1Y-83.6
X135.6Y-83.6
T2
X95.0Y-95.0
X95.0Y-97.5
X95.0Y-100.0
X97.5Y-93.25
X100.0Y-92.5
X100.0Y-95.0
X100.0Y-97.5
X105.0Y-92.5
X105.0Y-97.5
X107.25Y-89.885
X110.0Y-95.0
X112.5Y-77.5
X112.5Y-80.0
X112.5Y-82.5
X112.5Y-85.0
X112.5Y-90.0
X112.5Y-92.5
X115.0Y-77.5
X115.0Y-80.0
X115.0Y-82.5
X115.0Y-85.0
X115.0Y-90.0
X115.0Y-92.5
X127.5Y-87.5
X127.5Y-90.0
X130.0Y-82.5
M30
