%TF.GenerationSoftware,KiCad,Pcbnew,8.0.0~rc1-42d8c85f12~176~ubuntu22.04.1*%
%TF.CreationDate,2024-01-15T17:13:56+10:00*%
%TF.ProjectId,MXBreakout,4d584272-6561-46b6-9f75-742e6b696361,rev?*%
%TF.SameCoordinates,Original*%
%TF.FileFunction,Profile,NP*%
%FSLAX46Y46*%
G04 Gerber Fmt 4.6, Leading zero omitted, Abs format (unit mm)*
G04 Created by KiCad (PCBNEW 8.0.0~rc1-42d8c85f12~176~ubuntu22.04.1) date 2024-01-15 17:13:56*
%MOMM*%
%LPD*%
G01*
G04 APERTURE LIST*
%TA.AperFunction,Profile*%
%ADD10C,0.100000*%
%TD*%
G04 APERTURE END LIST*
D10*
X96650000Y-92100000D02*
X95050000Y-92100000D01*
X94250000Y-92900000D02*
X95050000Y-92100000D01*
X99750000Y-89000000D02*
X96650000Y-92100000D01*
X94250000Y-102500000D02*
X94250000Y-92900000D01*
X94950000Y-103200000D02*
X94250000Y-102500000D01*
X109450000Y-103200000D02*
X94950000Y-103200000D01*
X103250000Y-89000000D02*
X99750000Y-89000000D01*
X106550000Y-85700000D02*
X103250000Y-89000000D01*
X106550000Y-76200000D02*
X106550000Y-85700000D01*
X107850000Y-74900000D02*
X106550000Y-76200000D01*
X119850000Y-74900000D02*
X107850000Y-74900000D01*
X135950000Y-81600000D02*
X126550000Y-81600000D01*
X136550000Y-82200000D02*
X135950000Y-81600000D01*
X136550000Y-84000000D02*
X136550000Y-82200000D01*
X119850000Y-74900000D02*
X126550000Y-81600000D01*
X118850000Y-94700000D02*
X112550000Y-94700000D01*
X122150000Y-91400000D02*
X118850000Y-94700000D01*
X129150000Y-91400000D02*
X122150000Y-91400000D01*
X136550000Y-84000000D02*
X129150000Y-91400000D01*
X110350000Y-102300000D02*
X109450000Y-103200000D01*
X110350000Y-96900000D02*
X110350000Y-102300000D01*
X112550000Y-94700000D02*
X110350000Y-96900000D01*
X131950000Y-85050000D02*
X131950000Y-85500000D01*
X130450000Y-85050000D02*
X131950000Y-85050000D01*
X130450000Y-87550000D02*
X130450000Y-85050000D01*
X131950000Y-87550000D02*
X130450000Y-87550000D01*
X131950000Y-87100000D02*
X131950000Y-87550000D01*
X131950000Y-86000000D02*
X131950000Y-85500000D01*
X132250000Y-86000000D02*
X131950000Y-86000000D01*
X132250000Y-86600000D02*
X132250000Y-86000000D01*
X131950000Y-86600000D02*
X132250000Y-86600000D01*
X131950000Y-87100000D02*
X131950000Y-86600000D01*
M02*
