%TF.GenerationSoftware,KiCad,Pcbnew,7.0.10-7.0.10~ubuntu22.04.1*%
%TF.CreationDate,2024-01-14T22:11:58+10:00*%
%TF.ProjectId,MXBreakout,4d584272-6561-46b6-9f75-742e6b696361,rev?*%
%TF.SameCoordinates,Original*%
%TF.FileFunction,Drillmap*%
%TF.FilePolarity,Positive*%
%FSLAX45Y45*%
G04 Gerber Fmt 4.5, Leading zero omitted, Abs format (unit mm)*
G04 Created by KiCad (PCBNEW 7.0.10-7.0.10~ubuntu22.04.1) date 2024-01-14 22:11:58*
%MOMM*%
%LPD*%
G01*
G04 APERTURE LIST*
%ADD10C,0.100000*%
%ADD11C,0.200000*%
G04 APERTURE END LIST*
D10*
X11500104Y-8020104D02*
X11500104Y-9749896D01*
X14204896Y-7935104D02*
X11585104Y-7935104D01*
X14290000Y-9750000D02*
X14289896Y-8020104D01*
X11585104Y-9834896D02*
X14205000Y-9835000D01*
X11500104Y-9749896D02*
G75*
G03*
X11585104Y-9834896I85000J0D01*
G01*
X11585104Y-7935104D02*
G75*
G03*
X11500104Y-8020104I0J-85000D01*
G01*
X14289896Y-8020104D02*
G75*
G03*
X14204896Y-7935104I-85000J0D01*
G01*
X14205000Y-9835000D02*
G75*
G03*
X14290000Y-9750000I0J85000D01*
G01*
D11*
X11755881Y-10151484D02*
X11755881Y-9951484D01*
X11755881Y-9951484D02*
X11803500Y-9951484D01*
X11803500Y-9951484D02*
X11832071Y-9961008D01*
X11832071Y-9961008D02*
X11851119Y-9980055D01*
X11851119Y-9980055D02*
X11860643Y-9999103D01*
X11860643Y-9999103D02*
X11870167Y-10037198D01*
X11870167Y-10037198D02*
X11870167Y-10065770D01*
X11870167Y-10065770D02*
X11860643Y-10103865D01*
X11860643Y-10103865D02*
X11851119Y-10122912D01*
X11851119Y-10122912D02*
X11832071Y-10141960D01*
X11832071Y-10141960D02*
X11803500Y-10151484D01*
X11803500Y-10151484D02*
X11755881Y-10151484D01*
X11955881Y-10151484D02*
X11955881Y-10018150D01*
X11955881Y-10056246D02*
X11965405Y-10037198D01*
X11965405Y-10037198D02*
X11974928Y-10027674D01*
X11974928Y-10027674D02*
X11993976Y-10018150D01*
X11993976Y-10018150D02*
X12013024Y-10018150D01*
X12079690Y-10151484D02*
X12079690Y-10018150D01*
X12079690Y-9951484D02*
X12070167Y-9961008D01*
X12070167Y-9961008D02*
X12079690Y-9970531D01*
X12079690Y-9970531D02*
X12089214Y-9961008D01*
X12089214Y-9961008D02*
X12079690Y-9951484D01*
X12079690Y-9951484D02*
X12079690Y-9970531D01*
X12203500Y-10151484D02*
X12184452Y-10141960D01*
X12184452Y-10141960D02*
X12174928Y-10122912D01*
X12174928Y-10122912D02*
X12174928Y-9951484D01*
X12308262Y-10151484D02*
X12289214Y-10141960D01*
X12289214Y-10141960D02*
X12279690Y-10122912D01*
X12279690Y-10122912D02*
X12279690Y-9951484D01*
X12536833Y-10151484D02*
X12536833Y-9951484D01*
X12536833Y-9951484D02*
X12603500Y-10094341D01*
X12603500Y-10094341D02*
X12670167Y-9951484D01*
X12670167Y-9951484D02*
X12670167Y-10151484D01*
X12851119Y-10151484D02*
X12851119Y-10046722D01*
X12851119Y-10046722D02*
X12841595Y-10027674D01*
X12841595Y-10027674D02*
X12822548Y-10018150D01*
X12822548Y-10018150D02*
X12784452Y-10018150D01*
X12784452Y-10018150D02*
X12765405Y-10027674D01*
X12851119Y-10141960D02*
X12832071Y-10151484D01*
X12832071Y-10151484D02*
X12784452Y-10151484D01*
X12784452Y-10151484D02*
X12765405Y-10141960D01*
X12765405Y-10141960D02*
X12755881Y-10122912D01*
X12755881Y-10122912D02*
X12755881Y-10103865D01*
X12755881Y-10103865D02*
X12765405Y-10084817D01*
X12765405Y-10084817D02*
X12784452Y-10075293D01*
X12784452Y-10075293D02*
X12832071Y-10075293D01*
X12832071Y-10075293D02*
X12851119Y-10065770D01*
X12946357Y-10018150D02*
X12946357Y-10218150D01*
X12946357Y-10027674D02*
X12965405Y-10018150D01*
X12965405Y-10018150D02*
X13003500Y-10018150D01*
X13003500Y-10018150D02*
X13022548Y-10027674D01*
X13022548Y-10027674D02*
X13032071Y-10037198D01*
X13032071Y-10037198D02*
X13041595Y-10056246D01*
X13041595Y-10056246D02*
X13041595Y-10113389D01*
X13041595Y-10113389D02*
X13032071Y-10132436D01*
X13032071Y-10132436D02*
X13022548Y-10141960D01*
X13022548Y-10141960D02*
X13003500Y-10151484D01*
X13003500Y-10151484D02*
X12965405Y-10151484D01*
X12965405Y-10151484D02*
X12946357Y-10141960D01*
X13127309Y-10132436D02*
X13136833Y-10141960D01*
X13136833Y-10141960D02*
X13127309Y-10151484D01*
X13127309Y-10151484D02*
X13117786Y-10141960D01*
X13117786Y-10141960D02*
X13127309Y-10132436D01*
X13127309Y-10132436D02*
X13127309Y-10151484D01*
X13127309Y-10027674D02*
X13136833Y-10037198D01*
X13136833Y-10037198D02*
X13127309Y-10046722D01*
X13127309Y-10046722D02*
X13117786Y-10037198D01*
X13117786Y-10037198D02*
X13127309Y-10027674D01*
X13127309Y-10027674D02*
X13127309Y-10046722D01*
M02*
