%TF.GenerationSoftware,KiCad,Pcbnew,8.0.0~rc1-42d8c85f12~176~ubuntu22.04.1*%
%TF.CreationDate,2024-01-15T17:13:56+10:00*%
%TF.ProjectId,MXBreakout,4d584272-6561-46b6-9f75-742e6b696361,rev?*%
%TF.SameCoordinates,Original*%
%TF.FileFunction,Copper,L1,Top*%
%TF.FilePolarity,Positive*%
%FSLAX46Y46*%
G04 Gerber Fmt 4.6, Leading zero omitted, Abs format (unit mm)*
G04 Created by KiCad (PCBNEW 8.0.0~rc1-42d8c85f12~176~ubuntu22.04.1) date 2024-01-15 17:13:56*
%MOMM*%
%LPD*%
G01*
G04 APERTURE LIST*
G04 Aperture macros list*
%AMRoundRect*
0 Rectangle with rounded corners*
0 $1 Rounding radius*
0 $2 $3 $4 $5 $6 $7 $8 $9 X,Y pos of 4 corners*
0 Add a 4 corners polygon primitive as box body*
4,1,4,$2,$3,$4,$5,$6,$7,$8,$9,$2,$3,0*
0 Add four circle primitives for the rounded corners*
1,1,$1+$1,$2,$3*
1,1,$1+$1,$4,$5*
1,1,$1+$1,$6,$7*
1,1,$1+$1,$8,$9*
0 Add four rect primitives between the rounded corners*
20,1,$1+$1,$2,$3,$4,$5,0*
20,1,$1+$1,$4,$5,$6,$7,0*
20,1,$1+$1,$6,$7,$8,$9,0*
20,1,$1+$1,$8,$9,$2,$3,0*%
G04 Aperture macros list end*
%TA.AperFunction,SMDPad,CuDef*%
%ADD10C,1.000000*%
%TD*%
%TA.AperFunction,ComponentPad*%
%ADD11C,0.500000*%
%TD*%
%TA.AperFunction,SMDPad,CuDef*%
%ADD12RoundRect,0.150000X0.150000X-0.512500X0.150000X0.512500X-0.150000X0.512500X-0.150000X-0.512500X0*%
%TD*%
%TA.AperFunction,SMDPad,CuDef*%
%ADD13RoundRect,0.135000X0.185000X-0.135000X0.185000X0.135000X-0.185000X0.135000X-0.185000X-0.135000X0*%
%TD*%
%TA.AperFunction,SMDPad,CuDef*%
%ADD14RoundRect,0.150000X0.875000X0.150000X-0.875000X0.150000X-0.875000X-0.150000X0.875000X-0.150000X0*%
%TD*%
%TA.AperFunction,SMDPad,CuDef*%
%ADD15RoundRect,0.218750X-0.256250X0.218750X-0.256250X-0.218750X0.256250X-0.218750X0.256250X0.218750X0*%
%TD*%
%TA.AperFunction,SMDPad,CuDef*%
%ADD16RoundRect,0.140000X0.170000X-0.140000X0.170000X0.140000X-0.170000X0.140000X-0.170000X-0.140000X0*%
%TD*%
%TA.AperFunction,SMDPad,CuDef*%
%ADD17RoundRect,0.135000X-0.185000X0.135000X-0.185000X-0.135000X0.185000X-0.135000X0.185000X0.135000X0*%
%TD*%
%TA.AperFunction,SMDPad,CuDef*%
%ADD18RoundRect,0.140000X-0.140000X-0.170000X0.140000X-0.170000X0.140000X0.170000X-0.140000X0.170000X0*%
%TD*%
%TA.AperFunction,SMDPad,CuDef*%
%ADD19R,1.900000X1.300000*%
%TD*%
%TA.AperFunction,ViaPad*%
%ADD20C,0.800000*%
%TD*%
%TA.AperFunction,Conductor*%
%ADD21C,0.250000*%
%TD*%
G04 APERTURE END LIST*
D10*
%TO.P,TP9,1,1*%
%TO.N,+3.3V*%
X1025000Y-1025000D03*
%TD*%
D11*
%TO.P,TP3,1,1*%
%TO.N,GND*%
X135600000Y-83600000D03*
%TD*%
D10*
%TO.P,TP2,1,1*%
%TO.N,GND*%
X100275000Y-100900000D03*
%TD*%
%TO.P,TP8,1,1*%
%TO.N,Net-(R1-Pad2)*%
X96250000Y-100900000D03*
%TD*%
D12*
%TO.P,U10,1,GND*%
%TO.N,GND*%
X122925000Y-90275000D03*
%TO.P,U10,2,GND*%
X123875000Y-90275000D03*
%TO.P,U10,3,GND*%
X124825000Y-90275000D03*
%TO.P,U10,4,RST*%
%TO.N,Net-(U10-RST)*%
X124825000Y-88000000D03*
%TO.P,U10,5,3.3V*%
%TO.N,+3.3V*%
X122925000Y-88000000D03*
%TD*%
D11*
%TO.P,TP11,1,1*%
%TO.N,Net-(U10-RST)*%
X124000000Y-84000000D03*
%TD*%
D13*
%TO.P,TP10,2,2*%
%TO.N,+3.3V*%
X132000000Y-85750000D03*
%TO.P,TP10,1,1*%
X132000000Y-86770000D03*
%TD*%
D11*
%TO.P,TP7,1,1*%
%TO.N,/DATA3*%
X123000000Y-86000000D03*
%TD*%
%TO.P,TP6,1,1*%
%TO.N,/DATA2*%
X128750000Y-84975000D03*
%TD*%
%TO.P,TP5,1,1*%
%TO.N,/DATA1*%
X129500000Y-84975000D03*
%TD*%
%TO.P,TP4,1,1*%
%TO.N,/DATA0*%
X124000000Y-84975000D03*
%TD*%
%TO.P,TP3,1,1*%
%TO.N,GND*%
X134100000Y-83600000D03*
%TD*%
D14*
%TO.P,U1,28*%
%TO.N,N/C*%
X109200000Y-92425000D03*
%TO.P,U1,27,VDD*%
%TO.N,+3.3V*%
X109200000Y-91155000D03*
%TO.P,U1,26,BATT*%
%TO.N,Net-(D1-K)*%
X109200000Y-89885000D03*
%TO.P,U1,25,VDD*%
%TO.N,+3.3V*%
X109200000Y-88615000D03*
%TO.P,U1,24,VDD*%
X109200000Y-87345000D03*
%TO.P,U1,23,X_1*%
%TO.N,Net-(U1-X_1)*%
X109200000Y-86075000D03*
%TO.P,U1,22,X_2*%
%TO.N,Net-(U1-X_2)*%
X109200000Y-84805000D03*
%TO.P,U1,21*%
%TO.N,N/C*%
X109200000Y-83535000D03*
%TO.P,U1,20,U22*%
%TO.N,unconnected-(U1-U22-Pad20)*%
X109200000Y-82265000D03*
%TO.P,U1,19*%
%TO.N,N/C*%
X109200000Y-80995000D03*
%TO.P,U1,18*%
X109200000Y-79725000D03*
%TO.P,U1,17,VDD*%
%TO.N,+3.3V*%
X109200000Y-78455000D03*
%TO.P,U1,16,GND*%
%TO.N,GND*%
X109200000Y-77185000D03*
%TO.P,U1,15*%
%TO.N,N/C*%
X109200000Y-75915000D03*
%TO.P,U1,14,DATA3*%
%TO.N,/DATA3*%
X118500000Y-75915000D03*
%TO.P,U1,13,DATA2*%
%TO.N,/DATA2*%
X118500000Y-77185000D03*
%TO.P,U1,12,DATA1*%
%TO.N,/DATA1*%
X118500000Y-78455000D03*
%TO.P,U1,11,DATA0*%
%TO.N,/DATA0*%
X118500000Y-79725000D03*
%TO.P,U1,10*%
%TO.N,N/C*%
X118500000Y-80995000D03*
%TO.P,U1,9*%
X118500000Y-82265000D03*
%TO.P,U1,8*%
X118500000Y-83535000D03*
%TO.P,U1,7*%
X118500000Y-84805000D03*
%TO.P,U1,6*%
X118500000Y-86075000D03*
%TO.P,U1,5*%
X118500000Y-87345000D03*
%TO.P,U1,4,GND*%
%TO.N,GND*%
X118500000Y-88615000D03*
%TO.P,U1,3*%
%TO.N,N/C*%
X118500000Y-89885000D03*
%TO.P,U1,2*%
X118500000Y-91155000D03*
%TO.P,U1,1*%
X118500000Y-92425000D03*
%TD*%
D15*
%TO.P,D1,1,K*%
%TO.N,Net-(D1-K)*%
X97500000Y-94712500D03*
%TO.P,D1,2,A*%
%TO.N,Net-(D1-A)*%
X97500000Y-96287500D03*
%TD*%
D16*
%TO.P,C2,1*%
%TO.N,GND*%
X101225000Y-98405000D03*
%TO.P,C2,2*%
%TO.N,Net-(U1-X_2)*%
X101225000Y-97445000D03*
%TD*%
D17*
%TO.P,R1,2*%
%TO.N,Net-(R1-Pad2)*%
X97500000Y-98495000D03*
%TO.P,R1,1*%
%TO.N,Net-(D1-A)*%
X97500000Y-97475000D03*
%TD*%
D18*
%TO.P,C3,1*%
%TO.N,GND*%
X131040000Y-83700000D03*
%TO.P,C3,2*%
%TO.N,+3.3V*%
X132000000Y-83700000D03*
%TD*%
D16*
%TO.P,C1,1*%
%TO.N,GND*%
X108425000Y-98405000D03*
%TO.P,C1,2*%
%TO.N,Net-(U1-X_1)*%
X108425000Y-97445000D03*
%TD*%
D19*
%TO.P,X1,1,1*%
%TO.N,Net-(U1-X_2)*%
X103225000Y-95175000D03*
%TO.P,X1,2,2*%
%TO.N,GND*%
X103225000Y-100675000D03*
%TO.P,X1,3,3*%
X106425000Y-100675000D03*
%TO.P,X1,4,4*%
%TO.N,Net-(U1-X_1)*%
X106425000Y-95175000D03*
%TD*%
D20*
%TO.N,GND*%
X130000000Y-82500000D03*
X127500000Y-90000000D03*
X127500000Y-87500000D03*
X100000000Y-97500000D03*
X95000000Y-100000000D03*
X95000000Y-95000000D03*
X95000000Y-97500000D03*
X105000000Y-97500000D03*
X105000000Y-92500000D03*
X100000000Y-92500000D03*
X100000000Y-95000000D03*
X110000000Y-95000000D03*
X112500000Y-92500000D03*
X115000000Y-92500000D03*
X115000000Y-90000000D03*
X112500000Y-90000000D03*
X112500000Y-85000000D03*
X115000000Y-85000000D03*
X115000000Y-82500000D03*
X112500000Y-82500000D03*
X112500000Y-80000000D03*
X115000000Y-80000000D03*
X115000000Y-77500000D03*
X112500000Y-77500000D03*
%TO.N,Net-(D1-K)*%
X107250000Y-89885000D03*
X97500000Y-93250000D03*
%TD*%
D21*
%TO.N,+3.3V*%
X110550000Y-88000000D02*
X111000000Y-88000000D01*
X111000000Y-88000000D02*
X111010000Y-87990000D01*
X111010000Y-87990000D02*
X122915000Y-87990000D01*
X109200000Y-88000000D02*
X109200000Y-88615000D01*
X109200000Y-87345000D02*
X109200000Y-88000000D01*
X110550000Y-78780001D02*
X110550000Y-88000000D01*
X110550000Y-88000000D02*
X110550000Y-90235908D01*
X109200000Y-88000000D02*
X110550000Y-88000000D01*
X109200000Y-78455000D02*
X110224999Y-78455000D01*
X110224999Y-78455000D02*
X110550000Y-78780001D01*
X109630908Y-91155000D02*
X109200000Y-91155000D01*
X110550000Y-90235908D02*
X109630908Y-91155000D01*
%TO.N,Net-(D1-K)*%
X107250000Y-89885000D02*
X109200000Y-89885000D01*
%TO.N,Net-(U1-X_1)*%
X106425000Y-95175000D02*
X106500000Y-95100000D01*
X106500000Y-95100000D02*
X106500000Y-87625000D01*
X106500000Y-87625000D02*
X108050000Y-86075000D01*
X108050000Y-86075000D02*
X109200000Y-86075000D01*
%TO.N,Net-(D1-K)*%
X97500000Y-93250000D02*
X97500000Y-94712500D01*
%TO.N,Net-(D1-A)*%
X97500000Y-97475000D02*
X97500000Y-96270000D01*
%TO.N,Net-(R1-Pad2)*%
X97500000Y-98495000D02*
X97500000Y-99650000D01*
X97500000Y-99650000D02*
X96250000Y-100900000D01*
%TO.N,Net-(U1-X_2)*%
X103225000Y-95175000D02*
X103225000Y-89765000D01*
X103225000Y-89765000D02*
X108185000Y-84805000D01*
X108185000Y-84805000D02*
X109200000Y-84805000D01*
X101225000Y-97445000D02*
X101225000Y-97175000D01*
X101225000Y-97175000D02*
X103225000Y-95175000D01*
%TO.N,Net-(U1-X_1)*%
X106425000Y-95175000D02*
X108425000Y-97175000D01*
X108425000Y-97175000D02*
X108425000Y-97445000D01*
%TO.N,+3.3V*%
X132000000Y-83700000D02*
X132000000Y-84925000D01*
X132000000Y-84925000D02*
X132001777Y-84925000D01*
X132001777Y-84925000D02*
X132375000Y-85298223D01*
X132375000Y-86651777D02*
X132301777Y-86725000D01*
X132375000Y-85298223D02*
X132375000Y-86651777D01*
X132301777Y-86725000D02*
X132075000Y-86725000D01*
X132075000Y-86725000D02*
X132075000Y-87601777D01*
X122925000Y-88000000D02*
X123912500Y-88987500D01*
X123912500Y-88987500D02*
X130689277Y-88987500D01*
X130689277Y-88987500D02*
X132075000Y-87601777D01*
X132075000Y-87601777D02*
X132075000Y-86770000D01*
%TO.N,/DATA3*%
X123000000Y-86000000D02*
X123000000Y-85044092D01*
X116500000Y-80695908D02*
X116500000Y-77484092D01*
X123000000Y-85044092D02*
X119575908Y-81620000D01*
X119575908Y-81620000D02*
X117424092Y-81620000D01*
X116500000Y-77484092D02*
X118069092Y-75915000D01*
X117424092Y-81620000D02*
X116500000Y-80695908D01*
X118069092Y-75915000D02*
X118500000Y-75915000D01*
%TO.N,/DATA2*%
X118500000Y-77185000D02*
X117475001Y-77185000D01*
X117475001Y-77185000D02*
X117150000Y-77510001D01*
X117150000Y-77510001D02*
X117150000Y-78805908D01*
X117424092Y-79080000D02*
X122693604Y-79080000D01*
X117150000Y-78805908D02*
X117424092Y-79080000D01*
X122693604Y-79080000D02*
X128588604Y-84975000D01*
X128588604Y-84975000D02*
X128750000Y-84975000D01*
%TO.N,/DATA1*%
X129500000Y-84975000D02*
X129500000Y-84911827D01*
X129500000Y-84911827D02*
X128988173Y-84400000D01*
X128988173Y-84400000D02*
X128650000Y-84400000D01*
X122705000Y-78455000D02*
X118500000Y-78455000D01*
X128650000Y-84400000D02*
X122705000Y-78455000D01*
%TO.N,/DATA0*%
X123250000Y-83450001D02*
X123250000Y-84225000D01*
X119524999Y-79725000D02*
X123250000Y-83450001D01*
X123250000Y-84225000D02*
X124000000Y-84975000D01*
X118500000Y-79725000D02*
X119524999Y-79725000D01*
%TO.N,Net-(U10-RST)*%
X124000000Y-84000000D02*
X124825000Y-84825000D01*
X124825000Y-84825000D02*
X124825000Y-88000000D01*
%TD*%
%TA.AperFunction,Conductor*%
%TO.N,GND*%
G36*
X122574454Y-79425185D02*
G01*
X122595096Y-79441819D01*
X128345228Y-85191951D01*
X128360902Y-85214520D01*
X128362326Y-85213606D01*
X128367117Y-85221062D01*
X128387163Y-85244196D01*
X128451951Y-85318967D01*
X128560931Y-85389004D01*
X128685225Y-85425499D01*
X128685227Y-85425500D01*
X128685228Y-85425500D01*
X128814773Y-85425500D01*
X128814773Y-85425499D01*
X128939069Y-85389004D01*
X129048049Y-85318967D01*
X129048049Y-85318966D01*
X129055510Y-85314172D01*
X129057065Y-85316592D01*
X129107347Y-85293627D01*
X129176506Y-85303567D01*
X129194056Y-85314846D01*
X129194490Y-85314172D01*
X129201950Y-85318966D01*
X129201951Y-85318967D01*
X129310931Y-85389004D01*
X129435225Y-85425499D01*
X129435227Y-85425500D01*
X129435228Y-85425500D01*
X129564773Y-85425500D01*
X129564773Y-85425499D01*
X129689069Y-85389004D01*
X129798049Y-85318967D01*
X129882882Y-85221063D01*
X129936697Y-85103226D01*
X129955133Y-84975000D01*
X129936697Y-84846774D01*
X129882882Y-84728937D01*
X129798049Y-84631033D01*
X129783587Y-84621739D01*
X129689067Y-84560994D01*
X129606785Y-84536835D01*
X129554039Y-84505539D01*
X129188037Y-84139537D01*
X129188035Y-84139535D01*
X129150923Y-84118108D01*
X129113813Y-84096682D01*
X129072419Y-84085591D01*
X129031026Y-84074500D01*
X129031025Y-84074500D01*
X128836188Y-84074500D01*
X128769149Y-84054815D01*
X128748507Y-84038181D01*
X128660326Y-83950000D01*
X130261210Y-83950000D01*
X130262854Y-83970910D01*
X130307968Y-84126195D01*
X130390278Y-84265374D01*
X130390285Y-84265383D01*
X130504616Y-84379714D01*
X130504625Y-84379721D01*
X130643804Y-84462031D01*
X130790000Y-84504504D01*
X130790000Y-83950000D01*
X130261210Y-83950000D01*
X128660326Y-83950000D01*
X128160325Y-83449999D01*
X130261209Y-83449999D01*
X130261210Y-83450000D01*
X130790000Y-83450000D01*
X130790000Y-82895494D01*
X130789998Y-82895493D01*
X130643809Y-82937965D01*
X130643806Y-82937967D01*
X130504625Y-83020278D01*
X130504616Y-83020285D01*
X130390285Y-83134616D01*
X130390278Y-83134625D01*
X130307968Y-83273804D01*
X130307966Y-83273809D01*
X130262855Y-83429081D01*
X130262854Y-83429087D01*
X130261209Y-83449999D01*
X128160325Y-83449999D01*
X126522007Y-81811681D01*
X126488522Y-81750358D01*
X126493506Y-81680666D01*
X126535378Y-81624733D01*
X126600842Y-81600316D01*
X126609688Y-81600000D01*
X135898638Y-81600000D01*
X135965677Y-81619685D01*
X135986319Y-81636319D01*
X136513681Y-82163681D01*
X136547166Y-82225004D01*
X136550000Y-82251362D01*
X136550000Y-83314326D01*
X136530315Y-83381365D01*
X136477511Y-83427120D01*
X136408353Y-83437064D01*
X136344797Y-83408039D01*
X136308959Y-83355281D01*
X136280267Y-83273285D01*
X136280266Y-83273285D01*
X135600000Y-83953553D01*
X135273285Y-84280266D01*
X135432056Y-84335824D01*
X135599996Y-84354746D01*
X135600004Y-84354746D01*
X135767941Y-84335824D01*
X135767949Y-84335822D01*
X135927470Y-84280003D01*
X135930628Y-84278483D01*
X135932874Y-84278112D01*
X135934046Y-84277703D01*
X135934117Y-84277908D01*
X135999568Y-84267126D01*
X136063705Y-84294843D01*
X136102675Y-84352835D01*
X136104106Y-84422690D01*
X136072119Y-84477880D01*
X129186319Y-91363681D01*
X129124996Y-91397166D01*
X129098638Y-91400000D01*
X125581102Y-91400000D01*
X125514063Y-91380315D01*
X125468308Y-91327511D01*
X125458364Y-91258353D01*
X125487389Y-91194797D01*
X125492422Y-91189390D01*
X125492685Y-91189052D01*
X125576282Y-91047696D01*
X125576283Y-91047693D01*
X125622099Y-90889995D01*
X125622100Y-90889989D01*
X125624999Y-90853149D01*
X125625000Y-90853134D01*
X125625000Y-90525000D01*
X122125000Y-90525000D01*
X122125000Y-90853149D01*
X122127899Y-90889989D01*
X122127900Y-90889995D01*
X122173716Y-91047693D01*
X122173717Y-91047696D01*
X122257314Y-91189052D01*
X122262100Y-91195222D01*
X122260869Y-91196176D01*
X122290064Y-91249642D01*
X122285080Y-91319334D01*
X122243208Y-91375267D01*
X122177744Y-91399684D01*
X122168898Y-91400000D01*
X122149999Y-91400000D01*
X118886319Y-94663681D01*
X118824996Y-94697166D01*
X118798638Y-94700000D01*
X112549999Y-94700000D01*
X110350000Y-96899999D01*
X110350000Y-102248638D01*
X110330315Y-102315677D01*
X110313681Y-102336319D01*
X109486319Y-103163681D01*
X109424996Y-103197166D01*
X109398638Y-103200000D01*
X95001362Y-103200000D01*
X94934323Y-103180315D01*
X94913681Y-103163681D01*
X94286319Y-102536319D01*
X94252834Y-102474996D01*
X94250000Y-102448638D01*
X94250000Y-101762075D01*
X99766476Y-101762075D01*
X99890462Y-101828348D01*
X100078969Y-101885531D01*
X100078965Y-101885531D01*
X100275000Y-101904838D01*
X100471032Y-101885531D01*
X100659537Y-101828348D01*
X100783523Y-101762076D01*
X100783523Y-101762075D01*
X100275001Y-101253553D01*
X100275000Y-101253553D01*
X99766476Y-101762075D01*
X94250000Y-101762075D01*
X94250000Y-100900000D01*
X95544355Y-100900000D01*
X95564859Y-101068869D01*
X95564860Y-101068874D01*
X95625182Y-101227931D01*
X95642868Y-101253553D01*
X95721817Y-101367929D01*
X95827505Y-101461560D01*
X95849150Y-101480736D01*
X95999773Y-101559789D01*
X95999775Y-101559790D01*
X96164944Y-101600500D01*
X96335056Y-101600500D01*
X96500225Y-101559790D01*
X96579692Y-101518081D01*
X96650849Y-101480736D01*
X96650850Y-101480734D01*
X96650852Y-101480734D01*
X96778183Y-101367929D01*
X96874818Y-101227930D01*
X96935140Y-101068872D01*
X96955645Y-100900000D01*
X99270161Y-100900000D01*
X99289468Y-101096032D01*
X99346651Y-101284537D01*
X99412923Y-101408522D01*
X99921447Y-100900000D01*
X100628553Y-100900000D01*
X101137075Y-101408523D01*
X101137076Y-101408523D01*
X101203348Y-101284537D01*
X101260531Y-101096032D01*
X101277376Y-100925000D01*
X101775000Y-100925000D01*
X101775000Y-101372844D01*
X101781401Y-101432372D01*
X101781403Y-101432379D01*
X101831645Y-101567086D01*
X101831649Y-101567093D01*
X101917809Y-101682187D01*
X101917812Y-101682190D01*
X102032906Y-101768350D01*
X102032913Y-101768354D01*
X102167620Y-101818596D01*
X102167627Y-101818598D01*
X102227155Y-101824999D01*
X102227172Y-101825000D01*
X102975000Y-101825000D01*
X102975000Y-100925000D01*
X103475000Y-100925000D01*
X103475000Y-101825000D01*
X104222828Y-101825000D01*
X104222844Y-101824999D01*
X104282372Y-101818598D01*
X104282379Y-101818596D01*
X104417086Y-101768354D01*
X104417093Y-101768350D01*
X104532187Y-101682190D01*
X104532190Y-101682187D01*
X104618350Y-101567093D01*
X104618354Y-101567086D01*
X104668596Y-101432379D01*
X104668598Y-101432372D01*
X104674999Y-101372844D01*
X104675000Y-101372827D01*
X104675000Y-100925000D01*
X104975000Y-100925000D01*
X104975000Y-101372844D01*
X104981401Y-101432372D01*
X104981403Y-101432379D01*
X105031645Y-101567086D01*
X105031649Y-101567093D01*
X105117809Y-101682187D01*
X105117812Y-101682190D01*
X105232906Y-101768350D01*
X105232913Y-101768354D01*
X105367620Y-101818596D01*
X105367627Y-101818598D01*
X105427155Y-101824999D01*
X105427172Y-101825000D01*
X106175000Y-101825000D01*
X106175000Y-100925000D01*
X106675000Y-100925000D01*
X106675000Y-101825000D01*
X107422828Y-101825000D01*
X107422844Y-101824999D01*
X107482372Y-101818598D01*
X107482379Y-101818596D01*
X107617086Y-101768354D01*
X107617093Y-101768350D01*
X107732187Y-101682190D01*
X107732190Y-101682187D01*
X107818350Y-101567093D01*
X107818354Y-101567086D01*
X107868596Y-101432379D01*
X107868598Y-101432372D01*
X107874999Y-101372844D01*
X107875000Y-101372827D01*
X107875000Y-100925000D01*
X106675000Y-100925000D01*
X106175000Y-100925000D01*
X104975000Y-100925000D01*
X104675000Y-100925000D01*
X103475000Y-100925000D01*
X102975000Y-100925000D01*
X101775000Y-100925000D01*
X101277376Y-100925000D01*
X101279838Y-100900000D01*
X101260531Y-100703967D01*
X101203348Y-100515462D01*
X101154994Y-100425000D01*
X101775000Y-100425000D01*
X102975000Y-100425000D01*
X102975000Y-99525000D01*
X103475000Y-99525000D01*
X103475000Y-100425000D01*
X104675000Y-100425000D01*
X104975000Y-100425000D01*
X106175000Y-100425000D01*
X106175000Y-99525000D01*
X106675000Y-99525000D01*
X106675000Y-100425000D01*
X107875000Y-100425000D01*
X107875000Y-99977172D01*
X107874999Y-99977155D01*
X107868598Y-99917627D01*
X107868596Y-99917620D01*
X107818354Y-99782913D01*
X107818350Y-99782906D01*
X107732190Y-99667812D01*
X107732187Y-99667809D01*
X107617093Y-99581649D01*
X107617086Y-99581645D01*
X107482379Y-99531403D01*
X107482372Y-99531401D01*
X107422844Y-99525000D01*
X106675000Y-99525000D01*
X106175000Y-99525000D01*
X105427155Y-99525000D01*
X105367627Y-99531401D01*
X105367620Y-99531403D01*
X105232913Y-99581645D01*
X105232906Y-99581649D01*
X105117812Y-99667809D01*
X105117809Y-99667812D01*
X105031649Y-99782906D01*
X105031645Y-99782913D01*
X104981403Y-99917620D01*
X104981401Y-99917627D01*
X104975000Y-99977155D01*
X104975000Y-100425000D01*
X104675000Y-100425000D01*
X104675000Y-99977172D01*
X104674999Y-99977155D01*
X104668598Y-99917627D01*
X104668596Y-99917620D01*
X104618354Y-99782913D01*
X104618350Y-99782906D01*
X104532190Y-99667812D01*
X104532187Y-99667809D01*
X104417093Y-99581649D01*
X104417086Y-99581645D01*
X104282379Y-99531403D01*
X104282372Y-99531401D01*
X104222844Y-99525000D01*
X103475000Y-99525000D01*
X102975000Y-99525000D01*
X102227155Y-99525000D01*
X102167627Y-99531401D01*
X102167620Y-99531403D01*
X102032913Y-99581645D01*
X102032906Y-99581649D01*
X101917812Y-99667809D01*
X101917809Y-99667812D01*
X101831649Y-99782906D01*
X101831645Y-99782913D01*
X101781403Y-99917620D01*
X101781401Y-99917627D01*
X101775000Y-99977155D01*
X101775000Y-100425000D01*
X101154994Y-100425000D01*
X101137075Y-100391476D01*
X100628553Y-100899999D01*
X100628553Y-100900000D01*
X99921447Y-100900000D01*
X99412923Y-100391476D01*
X99346649Y-100515466D01*
X99289468Y-100703967D01*
X99270161Y-100900000D01*
X96955645Y-100900000D01*
X96936360Y-100741176D01*
X96947820Y-100672254D01*
X96971772Y-100638553D01*
X97572404Y-100037923D01*
X99766476Y-100037923D01*
X100275000Y-100546447D01*
X100275001Y-100546447D01*
X100783522Y-100037923D01*
X100659537Y-99971651D01*
X100471030Y-99914468D01*
X100471034Y-99914468D01*
X100275000Y-99895161D01*
X100078967Y-99914468D01*
X99890466Y-99971649D01*
X99766476Y-100037923D01*
X97572404Y-100037923D01*
X97760465Y-99849862D01*
X97803318Y-99775639D01*
X97825500Y-99692853D01*
X97825500Y-99607147D01*
X97825500Y-99012059D01*
X97845185Y-98945020D01*
X97878377Y-98910484D01*
X97880398Y-98909067D01*
X97880404Y-98909065D01*
X97964065Y-98825404D01*
X98014068Y-98718173D01*
X98020500Y-98669316D01*
X98020500Y-98655000D01*
X100420496Y-98655000D01*
X100462968Y-98801195D01*
X100545278Y-98940374D01*
X100545285Y-98940383D01*
X100659616Y-99054714D01*
X100659625Y-99054721D01*
X100798804Y-99137031D01*
X100954089Y-99182145D01*
X100975000Y-99183789D01*
X100975000Y-98655000D01*
X101475000Y-98655000D01*
X101475000Y-99183789D01*
X101495910Y-99182145D01*
X101651195Y-99137031D01*
X101790374Y-99054721D01*
X101790383Y-99054714D01*
X101904714Y-98940383D01*
X101904721Y-98940374D01*
X101987031Y-98801195D01*
X102029504Y-98655000D01*
X107620496Y-98655000D01*
X107662968Y-98801195D01*
X107745278Y-98940374D01*
X107745285Y-98940383D01*
X107859616Y-99054714D01*
X107859625Y-99054721D01*
X107998804Y-99137031D01*
X108154089Y-99182145D01*
X108175000Y-99183789D01*
X108175000Y-98655000D01*
X108675000Y-98655000D01*
X108675000Y-99183789D01*
X108695910Y-99182145D01*
X108851195Y-99137031D01*
X108990374Y-99054721D01*
X108990383Y-99054714D01*
X109104714Y-98940383D01*
X109104721Y-98940374D01*
X109187031Y-98801195D01*
X109229504Y-98655000D01*
X108675000Y-98655000D01*
X108175000Y-98655000D01*
X107620496Y-98655000D01*
X102029504Y-98655000D01*
X101475000Y-98655000D01*
X100975000Y-98655000D01*
X100420496Y-98655000D01*
X98020500Y-98655000D01*
X98020500Y-98320684D01*
X98014068Y-98271827D01*
X97964065Y-98164596D01*
X97880404Y-98080935D01*
X97872733Y-98073264D01*
X97875561Y-98070435D01*
X97844843Y-98032023D01*
X97837635Y-97962526D01*
X97869143Y-97900165D01*
X97872903Y-97896906D01*
X97872733Y-97896736D01*
X97901245Y-97868224D01*
X97964065Y-97805404D01*
X98014068Y-97698173D01*
X98020500Y-97649316D01*
X98020500Y-97300684D01*
X98014068Y-97251827D01*
X97964065Y-97144596D01*
X97903433Y-97083964D01*
X97869948Y-97022641D01*
X97874932Y-96952949D01*
X97916804Y-96897016D01*
X97934808Y-96885805D01*
X98005751Y-96849658D01*
X98099658Y-96755751D01*
X98159951Y-96637420D01*
X98159951Y-96637418D01*
X98159952Y-96637417D01*
X98175500Y-96539251D01*
X98175500Y-96035748D01*
X98159952Y-95937582D01*
X98142449Y-95903231D01*
X98099658Y-95819249D01*
X98099654Y-95819245D01*
X98099653Y-95819243D01*
X98005756Y-95725346D01*
X98005753Y-95725344D01*
X98005751Y-95725342D01*
X97887420Y-95665049D01*
X97887419Y-95665048D01*
X97887416Y-95665047D01*
X97887417Y-95665047D01*
X97789251Y-95649500D01*
X97789246Y-95649500D01*
X97210754Y-95649500D01*
X97210749Y-95649500D01*
X97112582Y-95665047D01*
X97033692Y-95705244D01*
X96994249Y-95725342D01*
X96994248Y-95725343D01*
X96994243Y-95725346D01*
X96900346Y-95819243D01*
X96900343Y-95819248D01*
X96900342Y-95819249D01*
X96880244Y-95858692D01*
X96840047Y-95937582D01*
X96824500Y-96035748D01*
X96824500Y-96539251D01*
X96840047Y-96637417D01*
X96840049Y-96637420D01*
X96900342Y-96755751D01*
X96900344Y-96755753D01*
X96900346Y-96755756D01*
X96994243Y-96849653D01*
X96994246Y-96849655D01*
X96994249Y-96849658D01*
X97065180Y-96885799D01*
X97115976Y-96933772D01*
X97132771Y-97001593D01*
X97110234Y-97067728D01*
X97096567Y-97083964D01*
X97035934Y-97144597D01*
X96985931Y-97251828D01*
X96979500Y-97300683D01*
X96979500Y-97649316D01*
X96985931Y-97698171D01*
X97035935Y-97805404D01*
X97127267Y-97896736D01*
X97124443Y-97899559D01*
X97155183Y-97938042D01*
X97162352Y-98007542D01*
X97130808Y-98069886D01*
X97127101Y-98073098D01*
X97127267Y-98073264D01*
X97035935Y-98164595D01*
X96985931Y-98271828D01*
X96979500Y-98320683D01*
X96979500Y-98669316D01*
X96985931Y-98718171D01*
X96985932Y-98718173D01*
X97035935Y-98825404D01*
X97119596Y-98909065D01*
X97119598Y-98909066D01*
X97121623Y-98910484D01*
X97124044Y-98913513D01*
X97127267Y-98916736D01*
X97126907Y-98917095D01*
X97165248Y-98965061D01*
X97174500Y-99012059D01*
X97174500Y-99463810D01*
X97154815Y-99530849D01*
X97138181Y-99551491D01*
X96508952Y-100180719D01*
X96447629Y-100214204D01*
X96391598Y-100213435D01*
X96335059Y-100199500D01*
X96335056Y-100199500D01*
X96164944Y-100199500D01*
X95999773Y-100240210D01*
X95849150Y-100319263D01*
X95721816Y-100432072D01*
X95625182Y-100572068D01*
X95564860Y-100731125D01*
X95564859Y-100731130D01*
X95544355Y-100900000D01*
X94250000Y-100900000D01*
X94250000Y-94964251D01*
X96824500Y-94964251D01*
X96840047Y-95062417D01*
X96840049Y-95062420D01*
X96900342Y-95180751D01*
X96900344Y-95180753D01*
X96900346Y-95180756D01*
X96994243Y-95274653D01*
X96994245Y-95274654D01*
X96994249Y-95274658D01*
X97112580Y-95334951D01*
X97112581Y-95334951D01*
X97112583Y-95334952D01*
X97112582Y-95334952D01*
X97210749Y-95350500D01*
X97210754Y-95350500D01*
X97789251Y-95350500D01*
X97887417Y-95334952D01*
X97887418Y-95334951D01*
X97887420Y-95334951D01*
X98005751Y-95274658D01*
X98099658Y-95180751D01*
X98159951Y-95062420D01*
X98159951Y-95062418D01*
X98159952Y-95062417D01*
X98175500Y-94964251D01*
X98175500Y-94460748D01*
X98159952Y-94362582D01*
X98159951Y-94362580D01*
X98099658Y-94244249D01*
X98099654Y-94244245D01*
X98099653Y-94244243D01*
X98005756Y-94150346D01*
X98005753Y-94150344D01*
X98005751Y-94150342D01*
X97893204Y-94092996D01*
X97842409Y-94045022D01*
X97825500Y-93982512D01*
X97825500Y-93818298D01*
X97845185Y-93751259D01*
X97874010Y-93719925D01*
X97928282Y-93678282D01*
X98024536Y-93552841D01*
X98085044Y-93406762D01*
X98105682Y-93250000D01*
X98085044Y-93093238D01*
X98024536Y-92947159D01*
X97928282Y-92821718D01*
X97802841Y-92725464D01*
X97684368Y-92676391D01*
X97656762Y-92664956D01*
X97656760Y-92664955D01*
X97500001Y-92644318D01*
X97499999Y-92644318D01*
X97343239Y-92664955D01*
X97343237Y-92664956D01*
X97197160Y-92725463D01*
X97071718Y-92821718D01*
X96975463Y-92947160D01*
X96914956Y-93093237D01*
X96914955Y-93093239D01*
X96894318Y-93249998D01*
X96894318Y-93250001D01*
X96914955Y-93406760D01*
X96914956Y-93406762D01*
X96975464Y-93552841D01*
X97071718Y-93678282D01*
X97125987Y-93719924D01*
X97167189Y-93776349D01*
X97174500Y-93818298D01*
X97174500Y-93982512D01*
X97154815Y-94049551D01*
X97106795Y-94092996D01*
X96994249Y-94150342D01*
X96994248Y-94150343D01*
X96994243Y-94150346D01*
X96900346Y-94244243D01*
X96900343Y-94244248D01*
X96840047Y-94362582D01*
X96824500Y-94460748D01*
X96824500Y-94964251D01*
X94250000Y-94964251D01*
X94250000Y-92951362D01*
X94269685Y-92884323D01*
X94286319Y-92863681D01*
X95013681Y-92136319D01*
X95075004Y-92102834D01*
X95101362Y-92100000D01*
X96650000Y-92100000D01*
X99713681Y-89036319D01*
X99775004Y-89002834D01*
X99801362Y-89000000D01*
X103230311Y-89000000D01*
X103297350Y-89019685D01*
X103343105Y-89072489D01*
X103353049Y-89141647D01*
X103324024Y-89205203D01*
X103317992Y-89211681D01*
X102964537Y-89565135D01*
X102964533Y-89565141D01*
X102921681Y-89639361D01*
X102921682Y-89639362D01*
X102899500Y-89722147D01*
X102899500Y-94200500D01*
X102879815Y-94267539D01*
X102827011Y-94313294D01*
X102775500Y-94324500D01*
X102255247Y-94324500D01*
X102196770Y-94336131D01*
X102196769Y-94336132D01*
X102130447Y-94380447D01*
X102086132Y-94446769D01*
X102086131Y-94446770D01*
X102074500Y-94505247D01*
X102074500Y-95813810D01*
X102054815Y-95880849D01*
X102038181Y-95901491D01*
X100986840Y-96952831D01*
X100951565Y-96977532D01*
X100856682Y-97021777D01*
X100771776Y-97106683D01*
X100721027Y-97215514D01*
X100714500Y-97265097D01*
X100714500Y-97624896D01*
X100714501Y-97624900D01*
X100715768Y-97634528D01*
X100715770Y-97634538D01*
X100705001Y-97703573D01*
X100664650Y-97749032D01*
X100665788Y-97750499D01*
X100659621Y-97755282D01*
X100545282Y-97869620D01*
X100545278Y-97869625D01*
X100462968Y-98008804D01*
X100420496Y-98155000D01*
X102029504Y-98155000D01*
X101987031Y-98008804D01*
X101904721Y-97869625D01*
X101904714Y-97869616D01*
X101790381Y-97755283D01*
X101784217Y-97750502D01*
X101785733Y-97748547D01*
X101746363Y-97706378D01*
X101733862Y-97637635D01*
X101734231Y-97634538D01*
X101735500Y-97624901D01*
X101735499Y-97265100D01*
X101728972Y-97215513D01*
X101728970Y-97215510D01*
X101727733Y-97206106D01*
X101730547Y-97205735D01*
X101730659Y-97150946D01*
X101761882Y-97098443D01*
X102798508Y-96061819D01*
X102859831Y-96028334D01*
X102886189Y-96025500D01*
X104194750Y-96025500D01*
X104194751Y-96025499D01*
X104209568Y-96022552D01*
X104253229Y-96013868D01*
X104253229Y-96013867D01*
X104253231Y-96013867D01*
X104319552Y-95969552D01*
X104363867Y-95903231D01*
X104363867Y-95903229D01*
X104363868Y-95903229D01*
X104375499Y-95844752D01*
X104375500Y-95844750D01*
X104375500Y-94505249D01*
X104375499Y-94505247D01*
X104363868Y-94446770D01*
X104363867Y-94446769D01*
X104319552Y-94380447D01*
X104253230Y-94336132D01*
X104253229Y-94336131D01*
X104194752Y-94324500D01*
X104194748Y-94324500D01*
X103674500Y-94324500D01*
X103607461Y-94304815D01*
X103561706Y-94252011D01*
X103550500Y-94200500D01*
X103550500Y-89951188D01*
X103570185Y-89884149D01*
X103586814Y-89863512D01*
X105962820Y-87487506D01*
X106024142Y-87454022D01*
X106093834Y-87459006D01*
X106149767Y-87500878D01*
X106174184Y-87566342D01*
X106174500Y-87575188D01*
X106174500Y-94200500D01*
X106154815Y-94267539D01*
X106102011Y-94313294D01*
X106050500Y-94324500D01*
X105455247Y-94324500D01*
X105396770Y-94336131D01*
X105396769Y-94336132D01*
X105330447Y-94380447D01*
X105286132Y-94446769D01*
X105286131Y-94446770D01*
X105274500Y-94505247D01*
X105274500Y-95844752D01*
X105286131Y-95903229D01*
X105286132Y-95903230D01*
X105330447Y-95969552D01*
X105396769Y-96013867D01*
X105396770Y-96013868D01*
X105455247Y-96025499D01*
X105455250Y-96025500D01*
X105455252Y-96025500D01*
X106763811Y-96025500D01*
X106830850Y-96045185D01*
X106851492Y-96061819D01*
X107888115Y-97098442D01*
X107921600Y-97159765D01*
X107920004Y-97205810D01*
X107922266Y-97206108D01*
X107914500Y-97265098D01*
X107914500Y-97624896D01*
X107914501Y-97624900D01*
X107915768Y-97634528D01*
X107915770Y-97634538D01*
X107905001Y-97703573D01*
X107864650Y-97749032D01*
X107865788Y-97750499D01*
X107859621Y-97755282D01*
X107745282Y-97869620D01*
X107745278Y-97869625D01*
X107662968Y-98008804D01*
X107620496Y-98155000D01*
X109229504Y-98155000D01*
X109187031Y-98008804D01*
X109104721Y-97869625D01*
X109104714Y-97869616D01*
X108990381Y-97755283D01*
X108984217Y-97750502D01*
X108985733Y-97748547D01*
X108946363Y-97706378D01*
X108933862Y-97637635D01*
X108934231Y-97634538D01*
X108935500Y-97624901D01*
X108935499Y-97265100D01*
X108928972Y-97215513D01*
X108878224Y-97106684D01*
X108793316Y-97021776D01*
X108698433Y-96977531D01*
X108663157Y-96952830D01*
X107611819Y-95901492D01*
X107578334Y-95840169D01*
X107575500Y-95813811D01*
X107575500Y-94505249D01*
X107575499Y-94505247D01*
X107563868Y-94446770D01*
X107563867Y-94446769D01*
X107519552Y-94380447D01*
X107453230Y-94336132D01*
X107453229Y-94336131D01*
X107394752Y-94324500D01*
X107394748Y-94324500D01*
X106949500Y-94324500D01*
X106882461Y-94304815D01*
X106836706Y-94252011D01*
X106825500Y-94200500D01*
X106825500Y-92608260D01*
X107974500Y-92608260D01*
X107984426Y-92676391D01*
X108035803Y-92781485D01*
X108118514Y-92864196D01*
X108118515Y-92864196D01*
X108118517Y-92864198D01*
X108223607Y-92915573D01*
X108257673Y-92920536D01*
X108291739Y-92925500D01*
X108291740Y-92925500D01*
X110108261Y-92925500D01*
X110130971Y-92922191D01*
X110176393Y-92915573D01*
X110281483Y-92864198D01*
X110364198Y-92781483D01*
X110415573Y-92676393D01*
X110425500Y-92608260D01*
X117274500Y-92608260D01*
X117284426Y-92676391D01*
X117335803Y-92781485D01*
X117418514Y-92864196D01*
X117418515Y-92864196D01*
X117418517Y-92864198D01*
X117523607Y-92915573D01*
X117557673Y-92920536D01*
X117591739Y-92925500D01*
X117591740Y-92925500D01*
X119408261Y-92925500D01*
X119430971Y-92922191D01*
X119476393Y-92915573D01*
X119581483Y-92864198D01*
X119664198Y-92781483D01*
X119715573Y-92676393D01*
X119725500Y-92608260D01*
X119725500Y-92241740D01*
X119715573Y-92173607D01*
X119664198Y-92068517D01*
X119664196Y-92068515D01*
X119664196Y-92068514D01*
X119581485Y-91985803D01*
X119476391Y-91934426D01*
X119408261Y-91924500D01*
X119408260Y-91924500D01*
X117591740Y-91924500D01*
X117591739Y-91924500D01*
X117523608Y-91934426D01*
X117418514Y-91985803D01*
X117335803Y-92068514D01*
X117284426Y-92173608D01*
X117274500Y-92241739D01*
X117274500Y-92608260D01*
X110425500Y-92608260D01*
X110425500Y-92241740D01*
X110415573Y-92173607D01*
X110364198Y-92068517D01*
X110364196Y-92068515D01*
X110364196Y-92068514D01*
X110281485Y-91985803D01*
X110176391Y-91934426D01*
X110108261Y-91924500D01*
X110108260Y-91924500D01*
X108291740Y-91924500D01*
X108291739Y-91924500D01*
X108223608Y-91934426D01*
X108118514Y-91985803D01*
X108035803Y-92068514D01*
X107984426Y-92173608D01*
X107974500Y-92241739D01*
X107974500Y-92608260D01*
X106825500Y-92608260D01*
X106825500Y-90544722D01*
X106845185Y-90477683D01*
X106897989Y-90431928D01*
X106967147Y-90421984D01*
X106996950Y-90430160D01*
X107093238Y-90470044D01*
X107171619Y-90480363D01*
X107249999Y-90490682D01*
X107250000Y-90490682D01*
X107250001Y-90490682D01*
X107302254Y-90483802D01*
X107406762Y-90470044D01*
X107552841Y-90409536D01*
X107678282Y-90313282D01*
X107719923Y-90259013D01*
X107776351Y-90217811D01*
X107818299Y-90210500D01*
X107953456Y-90210500D01*
X108020495Y-90230185D01*
X108041137Y-90246819D01*
X108118514Y-90324196D01*
X108118515Y-90324196D01*
X108118517Y-90324198D01*
X108223607Y-90375573D01*
X108257673Y-90380536D01*
X108291739Y-90385500D01*
X108291740Y-90385500D01*
X109640719Y-90385500D01*
X109707758Y-90405185D01*
X109753513Y-90457989D01*
X109763457Y-90527147D01*
X109734432Y-90590703D01*
X109728400Y-90597181D01*
X109707400Y-90618181D01*
X109646077Y-90651666D01*
X109619719Y-90654500D01*
X108291739Y-90654500D01*
X108223608Y-90664426D01*
X108118514Y-90715803D01*
X108035803Y-90798514D01*
X107984426Y-90903608D01*
X107974500Y-90971739D01*
X107974500Y-91338260D01*
X107984426Y-91406391D01*
X108035803Y-91511485D01*
X108118514Y-91594196D01*
X108118515Y-91594196D01*
X108118517Y-91594198D01*
X108223607Y-91645573D01*
X108257673Y-91650536D01*
X108291739Y-91655500D01*
X108291740Y-91655500D01*
X110108261Y-91655500D01*
X110130971Y-91652191D01*
X110176393Y-91645573D01*
X110281483Y-91594198D01*
X110364198Y-91511483D01*
X110415573Y-91406393D01*
X110425500Y-91338260D01*
X117274500Y-91338260D01*
X117284426Y-91406391D01*
X117335803Y-91511485D01*
X117418514Y-91594196D01*
X117418515Y-91594196D01*
X117418517Y-91594198D01*
X117523607Y-91645573D01*
X117557673Y-91650536D01*
X117591739Y-91655500D01*
X117591740Y-91655500D01*
X119408261Y-91655500D01*
X119430971Y-91652191D01*
X119476393Y-91645573D01*
X119581483Y-91594198D01*
X119664198Y-91511483D01*
X119715573Y-91406393D01*
X119725500Y-91338260D01*
X119725500Y-90971740D01*
X119715573Y-90903607D01*
X119664198Y-90798517D01*
X119664196Y-90798515D01*
X119664196Y-90798514D01*
X119581485Y-90715803D01*
X119476391Y-90664426D01*
X119408261Y-90654500D01*
X119408260Y-90654500D01*
X117591740Y-90654500D01*
X117591739Y-90654500D01*
X117523608Y-90664426D01*
X117418514Y-90715803D01*
X117335803Y-90798514D01*
X117284426Y-90903608D01*
X117274500Y-90971739D01*
X117274500Y-91338260D01*
X110425500Y-91338260D01*
X110425500Y-90971740D01*
X110415573Y-90903607D01*
X110415572Y-90903605D01*
X110415266Y-90901504D01*
X110425078Y-90832327D01*
X110450286Y-90795947D01*
X110810465Y-90435770D01*
X110828123Y-90405185D01*
X110839488Y-90385501D01*
X110853316Y-90361549D01*
X110853318Y-90361546D01*
X110875500Y-90278761D01*
X110875500Y-88865001D01*
X116977704Y-88865001D01*
X116977899Y-88867486D01*
X117023718Y-89025198D01*
X117107314Y-89166552D01*
X117107321Y-89166561D01*
X117223438Y-89282678D01*
X117223446Y-89282684D01*
X117310925Y-89334419D01*
X117358608Y-89385488D01*
X117371112Y-89454230D01*
X117344467Y-89518819D01*
X117335927Y-89528340D01*
X117335804Y-89528513D01*
X117284426Y-89633608D01*
X117274500Y-89701739D01*
X117274500Y-90068260D01*
X117284426Y-90136391D01*
X117335803Y-90241485D01*
X117418514Y-90324196D01*
X117418515Y-90324196D01*
X117418517Y-90324198D01*
X117523607Y-90375573D01*
X117557673Y-90380536D01*
X117591739Y-90385500D01*
X117591740Y-90385500D01*
X119408261Y-90385500D01*
X119430971Y-90382191D01*
X119476393Y-90375573D01*
X119581483Y-90324198D01*
X119664198Y-90241483D01*
X119715573Y-90136393D01*
X119725500Y-90068260D01*
X119725500Y-90025000D01*
X122125000Y-90025000D01*
X122675000Y-90025000D01*
X122675000Y-89115203D01*
X122672503Y-89115400D01*
X122514806Y-89161216D01*
X122514803Y-89161217D01*
X122373447Y-89244814D01*
X122373438Y-89244821D01*
X122257321Y-89360938D01*
X122257314Y-89360947D01*
X122173717Y-89502303D01*
X122173716Y-89502306D01*
X122127900Y-89660004D01*
X122127899Y-89660010D01*
X122125000Y-89696850D01*
X122125000Y-90025000D01*
X119725500Y-90025000D01*
X119725500Y-89701740D01*
X119715573Y-89633607D01*
X119664198Y-89528517D01*
X119664195Y-89528514D01*
X119664195Y-89528513D01*
X119658227Y-89520153D01*
X119659340Y-89519357D01*
X119631029Y-89467509D01*
X119636013Y-89397817D01*
X119677885Y-89341884D01*
X119689075Y-89334419D01*
X119776550Y-89282687D01*
X119776561Y-89282678D01*
X119892678Y-89166561D01*
X119892685Y-89166552D01*
X119976281Y-89025198D01*
X120022100Y-88867486D01*
X120022295Y-88865001D01*
X120022295Y-88865000D01*
X116977705Y-88865000D01*
X116977704Y-88865001D01*
X110875500Y-88865001D01*
X110875500Y-88449500D01*
X110895185Y-88382461D01*
X110947989Y-88336706D01*
X110999500Y-88325500D01*
X111042851Y-88325500D01*
X111042853Y-88325500D01*
X111064406Y-88319724D01*
X111096498Y-88315500D01*
X116877708Y-88315500D01*
X116944747Y-88335185D01*
X116968763Y-88355328D01*
X116977704Y-88365000D01*
X120022296Y-88365000D01*
X120031237Y-88355328D01*
X120091198Y-88319462D01*
X120122292Y-88315500D01*
X122300500Y-88315500D01*
X122367539Y-88335185D01*
X122413294Y-88387989D01*
X122424500Y-88439500D01*
X122424500Y-88545760D01*
X122434426Y-88613891D01*
X122485803Y-88718985D01*
X122568514Y-88801696D01*
X122568515Y-88801696D01*
X122568517Y-88801698D01*
X122673607Y-88853073D01*
X122707673Y-88858036D01*
X122741739Y-88863000D01*
X122741740Y-88863000D01*
X123108255Y-88863000D01*
X123108260Y-88863000D01*
X123176393Y-88853073D01*
X123177460Y-88852551D01*
X123191792Y-88845545D01*
X123260665Y-88833784D01*
X123324963Y-88861126D01*
X123333936Y-88869263D01*
X123403433Y-88938760D01*
X123436918Y-89000083D01*
X123431934Y-89069775D01*
X123390062Y-89125708D01*
X123324598Y-89150125D01*
X123281157Y-89145517D01*
X123177494Y-89115400D01*
X123177497Y-89115400D01*
X123175000Y-89115203D01*
X123175000Y-90025000D01*
X125625000Y-90025000D01*
X125625000Y-89696865D01*
X125624999Y-89696850D01*
X125622100Y-89660010D01*
X125622099Y-89660004D01*
X125576283Y-89502306D01*
X125576280Y-89502299D01*
X125574992Y-89500120D01*
X125574502Y-89498189D01*
X125573185Y-89495146D01*
X125573676Y-89494933D01*
X125557809Y-89432396D01*
X125579969Y-89366134D01*
X125634436Y-89322371D01*
X125681724Y-89313000D01*
X130732128Y-89313000D01*
X130732130Y-89313000D01*
X130814916Y-89290818D01*
X130889139Y-89247965D01*
X132335465Y-87801639D01*
X132378318Y-87727416D01*
X132400500Y-87644630D01*
X132400500Y-87558924D01*
X132400500Y-87215331D01*
X132420185Y-87148292D01*
X132436819Y-87127650D01*
X132448513Y-87115956D01*
X132464065Y-87100404D01*
X132514068Y-86993173D01*
X132514067Y-86993173D01*
X132518078Y-86984574D01*
X132519418Y-86985199D01*
X132544825Y-86942278D01*
X132581301Y-86905803D01*
X132635465Y-86851639D01*
X132678318Y-86777416D01*
X132700500Y-86694630D01*
X132700500Y-86608924D01*
X132700500Y-85255370D01*
X132699195Y-85250500D01*
X132678318Y-85172584D01*
X132635465Y-85098361D01*
X132361819Y-84824715D01*
X132328334Y-84763392D01*
X132325500Y-84737034D01*
X132325500Y-84280266D01*
X133773285Y-84280266D01*
X133932056Y-84335824D01*
X134099996Y-84354746D01*
X134100004Y-84354746D01*
X134267943Y-84335824D01*
X134426713Y-84280267D01*
X134426714Y-84280266D01*
X134100001Y-83953553D01*
X134100000Y-83953553D01*
X133773285Y-84280266D01*
X132325500Y-84280266D01*
X132325500Y-84217402D01*
X132345185Y-84150363D01*
X132361819Y-84129721D01*
X132383551Y-84107989D01*
X132423224Y-84068316D01*
X132473972Y-83959487D01*
X132480500Y-83909901D01*
X132480499Y-83600003D01*
X133345254Y-83600003D01*
X133364175Y-83767938D01*
X133364176Y-83767943D01*
X133419732Y-83926714D01*
X133711637Y-83634810D01*
X133925000Y-83634810D01*
X133951643Y-83699129D01*
X134000871Y-83748357D01*
X134065190Y-83775000D01*
X134134810Y-83775000D01*
X134199129Y-83748357D01*
X134248357Y-83699129D01*
X134275000Y-83634810D01*
X134275000Y-83600001D01*
X134453553Y-83600001D01*
X134780265Y-83926713D01*
X134822405Y-83917095D01*
X134877593Y-83917095D01*
X134919732Y-83926713D01*
X135211637Y-83634810D01*
X135425000Y-83634810D01*
X135451643Y-83699129D01*
X135500871Y-83748357D01*
X135565190Y-83775000D01*
X135634810Y-83775000D01*
X135699129Y-83748357D01*
X135748357Y-83699129D01*
X135775000Y-83634810D01*
X135775000Y-83565190D01*
X135748357Y-83500871D01*
X135699129Y-83451643D01*
X135634810Y-83425000D01*
X135565190Y-83425000D01*
X135500871Y-83451643D01*
X135451643Y-83500871D01*
X135425000Y-83565190D01*
X135425000Y-83634810D01*
X135211637Y-83634810D01*
X135246447Y-83600000D01*
X134919731Y-83273284D01*
X134877592Y-83282903D01*
X134822406Y-83282903D01*
X134780266Y-83273284D01*
X134453553Y-83599999D01*
X134453553Y-83600001D01*
X134275000Y-83600001D01*
X134275000Y-83565190D01*
X134248357Y-83500871D01*
X134199129Y-83451643D01*
X134134810Y-83425000D01*
X134065190Y-83425000D01*
X134000871Y-83451643D01*
X133951643Y-83500871D01*
X133925000Y-83565190D01*
X133925000Y-83634810D01*
X133711637Y-83634810D01*
X133746447Y-83600000D01*
X133419732Y-83273285D01*
X133364176Y-83432053D01*
X133364175Y-83432058D01*
X133345254Y-83599996D01*
X133345254Y-83600003D01*
X132480499Y-83600003D01*
X132480499Y-83490100D01*
X132473972Y-83440513D01*
X132423224Y-83331684D01*
X132338316Y-83246776D01*
X132229487Y-83196028D01*
X132229485Y-83196027D01*
X132229486Y-83196027D01*
X132179902Y-83189500D01*
X131820102Y-83189500D01*
X131811746Y-83190600D01*
X131810459Y-83190769D01*
X131741425Y-83180001D01*
X131695964Y-83139648D01*
X131694499Y-83140785D01*
X131689714Y-83134616D01*
X131575383Y-83020285D01*
X131575374Y-83020278D01*
X131436193Y-82937967D01*
X131436190Y-82937965D01*
X131373432Y-82919732D01*
X133773285Y-82919732D01*
X134100000Y-83246447D01*
X134100001Y-83246447D01*
X134426714Y-82919732D01*
X135273285Y-82919732D01*
X135600000Y-83246447D01*
X135600001Y-83246447D01*
X135926714Y-82919732D01*
X135767943Y-82864176D01*
X135767938Y-82864175D01*
X135600004Y-82845254D01*
X135599996Y-82845254D01*
X135432058Y-82864175D01*
X135432053Y-82864176D01*
X135273285Y-82919732D01*
X134426714Y-82919732D01*
X134267943Y-82864176D01*
X134267938Y-82864175D01*
X134100004Y-82845254D01*
X134099996Y-82845254D01*
X133932058Y-82864175D01*
X133932053Y-82864176D01*
X133773285Y-82919732D01*
X131373432Y-82919732D01*
X131290001Y-82895493D01*
X131290000Y-82895494D01*
X131290000Y-84504503D01*
X131436193Y-84462032D01*
X131487378Y-84431761D01*
X131555102Y-84414578D01*
X131621365Y-84436737D01*
X131665128Y-84491203D01*
X131674500Y-84538493D01*
X131674500Y-84926000D01*
X131654815Y-84993039D01*
X131602011Y-85038794D01*
X131550500Y-85050000D01*
X130450000Y-85050000D01*
X130450000Y-87550000D01*
X131367088Y-87550000D01*
X131434127Y-87569685D01*
X131479882Y-87622489D01*
X131489826Y-87691647D01*
X131460801Y-87755203D01*
X131454769Y-87761681D01*
X130590769Y-88625681D01*
X130529446Y-88659166D01*
X130503088Y-88662000D01*
X125449500Y-88662000D01*
X125382461Y-88642315D01*
X125336706Y-88589511D01*
X125325500Y-88538000D01*
X125325500Y-87454239D01*
X125315573Y-87386108D01*
X125315573Y-87386107D01*
X125264198Y-87281017D01*
X125264196Y-87281015D01*
X125264196Y-87281014D01*
X125186819Y-87203637D01*
X125153334Y-87142314D01*
X125150500Y-87115956D01*
X125150500Y-84782149D01*
X125150500Y-84782147D01*
X125128318Y-84699362D01*
X125128318Y-84699361D01*
X125085465Y-84625138D01*
X124483443Y-84023116D01*
X124449958Y-83961793D01*
X124448386Y-83953080D01*
X124447943Y-83950000D01*
X124436697Y-83871774D01*
X124424500Y-83845066D01*
X124382884Y-83753940D01*
X124382882Y-83753938D01*
X124382882Y-83753937D01*
X124298049Y-83656033D01*
X124189069Y-83585996D01*
X124189065Y-83585994D01*
X124189064Y-83585994D01*
X124064774Y-83549500D01*
X124064772Y-83549500D01*
X123935228Y-83549500D01*
X123935226Y-83549500D01*
X123810933Y-83585994D01*
X123810932Y-83585994D01*
X123766538Y-83614525D01*
X123699498Y-83634209D01*
X123632459Y-83614524D01*
X123586705Y-83561719D01*
X123575500Y-83510209D01*
X123575500Y-83407150D01*
X123575500Y-83407148D01*
X123553318Y-83324363D01*
X123553318Y-83324362D01*
X123510465Y-83250139D01*
X119877507Y-79617181D01*
X119844022Y-79555858D01*
X119849006Y-79486166D01*
X119890878Y-79430233D01*
X119956342Y-79405816D01*
X119965188Y-79405500D01*
X122507415Y-79405500D01*
X122574454Y-79425185D01*
G37*
%TD.AperFunction*%
%TA.AperFunction,Conductor*%
G36*
X119865677Y-74919685D02*
G01*
X119886319Y-74936319D01*
X122873661Y-77923661D01*
X122907146Y-77984984D01*
X122902162Y-78054676D01*
X122860290Y-78110609D01*
X122794826Y-78135026D01*
X122753888Y-78131117D01*
X122747854Y-78129500D01*
X122747853Y-78129500D01*
X119746544Y-78129500D01*
X119679505Y-78109815D01*
X119658863Y-78093181D01*
X119581485Y-78015803D01*
X119476391Y-77964426D01*
X119408261Y-77954500D01*
X119408260Y-77954500D01*
X117599500Y-77954500D01*
X117532461Y-77934815D01*
X117486706Y-77882011D01*
X117475500Y-77830500D01*
X117475500Y-77809500D01*
X117495185Y-77742461D01*
X117547989Y-77696706D01*
X117599500Y-77685500D01*
X119408261Y-77685500D01*
X119430971Y-77682191D01*
X119476393Y-77675573D01*
X119581483Y-77624198D01*
X119664198Y-77541483D01*
X119715573Y-77436393D01*
X119725500Y-77368260D01*
X119725500Y-77001740D01*
X119715573Y-76933607D01*
X119664198Y-76828517D01*
X119664196Y-76828515D01*
X119664196Y-76828514D01*
X119581485Y-76745803D01*
X119476391Y-76694426D01*
X119408261Y-76684500D01*
X119408260Y-76684500D01*
X118059281Y-76684500D01*
X117992242Y-76664815D01*
X117946487Y-76612011D01*
X117936543Y-76542853D01*
X117965568Y-76479297D01*
X117971600Y-76472819D01*
X117992600Y-76451819D01*
X118053923Y-76418334D01*
X118080281Y-76415500D01*
X119408261Y-76415500D01*
X119430971Y-76412191D01*
X119476393Y-76405573D01*
X119581483Y-76354198D01*
X119664198Y-76271483D01*
X119715573Y-76166393D01*
X119725500Y-76098260D01*
X119725500Y-75731740D01*
X119715573Y-75663607D01*
X119664198Y-75558517D01*
X119664196Y-75558515D01*
X119664196Y-75558514D01*
X119581485Y-75475803D01*
X119476391Y-75424426D01*
X119408261Y-75414500D01*
X119408260Y-75414500D01*
X117591740Y-75414500D01*
X117591739Y-75414500D01*
X117523608Y-75424426D01*
X117418514Y-75475803D01*
X117335803Y-75558514D01*
X117284426Y-75663608D01*
X117274500Y-75731739D01*
X117274500Y-75731740D01*
X117274500Y-76098260D01*
X117279748Y-76134282D01*
X117284733Y-76168497D01*
X117274918Y-76237674D01*
X117249709Y-76274054D01*
X116239537Y-77284227D01*
X116239533Y-77284233D01*
X116196681Y-77358454D01*
X116196680Y-77358456D01*
X116189740Y-77384360D01*
X116189740Y-77384362D01*
X116174500Y-77441239D01*
X116174500Y-80653055D01*
X116174500Y-80738761D01*
X116175799Y-80743608D01*
X116196682Y-80821548D01*
X116208105Y-80841332D01*
X116239535Y-80895770D01*
X117163626Y-81819861D01*
X117163627Y-81819862D01*
X117224230Y-81880465D01*
X117224231Y-81880466D01*
X117224233Y-81880467D01*
X117224820Y-81880806D01*
X117225216Y-81881221D01*
X117230681Y-81885415D01*
X117230027Y-81886267D01*
X117273035Y-81931373D01*
X117286259Y-81999980D01*
X117285525Y-82006070D01*
X117284427Y-82013607D01*
X117274500Y-82081740D01*
X117274500Y-82081744D01*
X117274500Y-82448260D01*
X117284426Y-82516391D01*
X117335803Y-82621485D01*
X117418514Y-82704196D01*
X117418515Y-82704196D01*
X117418517Y-82704198D01*
X117523607Y-82755573D01*
X117557673Y-82760536D01*
X117591739Y-82765500D01*
X117591740Y-82765500D01*
X119408261Y-82765500D01*
X119430971Y-82762191D01*
X119476393Y-82755573D01*
X119581483Y-82704198D01*
X119664198Y-82621483D01*
X119715573Y-82516393D01*
X119717634Y-82502240D01*
X119746778Y-82438742D01*
X119805627Y-82401078D01*
X119875497Y-82401209D01*
X119928020Y-82432439D01*
X122638181Y-85142600D01*
X122671666Y-85203923D01*
X122674500Y-85230281D01*
X122674500Y-85641464D01*
X122654815Y-85708503D01*
X122644215Y-85722664D01*
X122617119Y-85753935D01*
X122617116Y-85753939D01*
X122563302Y-85871774D01*
X122544867Y-86000000D01*
X122563302Y-86128225D01*
X122617117Y-86246061D01*
X122617118Y-86246063D01*
X122701951Y-86343967D01*
X122810931Y-86414004D01*
X122935225Y-86450499D01*
X122935227Y-86450500D01*
X122935228Y-86450500D01*
X123064773Y-86450500D01*
X123064773Y-86450499D01*
X123189069Y-86414004D01*
X123298049Y-86343967D01*
X123382882Y-86246063D01*
X123436697Y-86128226D01*
X123455133Y-86000000D01*
X123436697Y-85871774D01*
X123404593Y-85801476D01*
X123382883Y-85753939D01*
X123382882Y-85753938D01*
X123382882Y-85753937D01*
X123373880Y-85743548D01*
X123355785Y-85722664D01*
X123326762Y-85659108D01*
X123325500Y-85641464D01*
X123325500Y-85152528D01*
X123345185Y-85085489D01*
X123397989Y-85039734D01*
X123467147Y-85029790D01*
X123530703Y-85058815D01*
X123562294Y-85101016D01*
X123563302Y-85103225D01*
X123563303Y-85103226D01*
X123617118Y-85221063D01*
X123701951Y-85318967D01*
X123810931Y-85389004D01*
X123935225Y-85425499D01*
X123935227Y-85425500D01*
X123935228Y-85425500D01*
X124064773Y-85425500D01*
X124064773Y-85425499D01*
X124189069Y-85389004D01*
X124298049Y-85318967D01*
X124298049Y-85318966D01*
X124305510Y-85314172D01*
X124306963Y-85316433D01*
X124357854Y-85293193D01*
X124427013Y-85303137D01*
X124479816Y-85348893D01*
X124499500Y-85415931D01*
X124499500Y-87115956D01*
X124479815Y-87182995D01*
X124463181Y-87203637D01*
X124385803Y-87281014D01*
X124334426Y-87386108D01*
X124324500Y-87454239D01*
X124324500Y-88538000D01*
X124304815Y-88605039D01*
X124252011Y-88650794D01*
X124200500Y-88662000D01*
X124098689Y-88662000D01*
X124031650Y-88642315D01*
X124011008Y-88625681D01*
X123461819Y-88076492D01*
X123428334Y-88015169D01*
X123425500Y-87988811D01*
X123425500Y-87454239D01*
X123415573Y-87386108D01*
X123415573Y-87386107D01*
X123364198Y-87281017D01*
X123364196Y-87281015D01*
X123364196Y-87281014D01*
X123281485Y-87198303D01*
X123176391Y-87146926D01*
X123108261Y-87137000D01*
X123108260Y-87137000D01*
X122741740Y-87137000D01*
X122741739Y-87137000D01*
X122673608Y-87146926D01*
X122568514Y-87198303D01*
X122485803Y-87281014D01*
X122434426Y-87386108D01*
X122424500Y-87454239D01*
X122424500Y-87540500D01*
X122404815Y-87607539D01*
X122352011Y-87653294D01*
X122300500Y-87664500D01*
X119848938Y-87664500D01*
X119781899Y-87644815D01*
X119736144Y-87592011D01*
X119725263Y-87531535D01*
X119725500Y-87528265D01*
X119725500Y-87161739D01*
X119715573Y-87093608D01*
X119666474Y-86993173D01*
X119664198Y-86988517D01*
X119664196Y-86988515D01*
X119664196Y-86988514D01*
X119581485Y-86905803D01*
X119476391Y-86854426D01*
X119408261Y-86844500D01*
X119408260Y-86844500D01*
X117591740Y-86844500D01*
X117591739Y-86844500D01*
X117523608Y-86854426D01*
X117418514Y-86905803D01*
X117335803Y-86988514D01*
X117284426Y-87093608D01*
X117274500Y-87161739D01*
X117274500Y-87528265D01*
X117274737Y-87531535D01*
X117274500Y-87532629D01*
X117274500Y-87532747D01*
X117274475Y-87532747D01*
X117259951Y-87599822D01*
X117210594Y-87649275D01*
X117151062Y-87664500D01*
X110999500Y-87664500D01*
X110932461Y-87644815D01*
X110886706Y-87592011D01*
X110875500Y-87540500D01*
X110875500Y-86258260D01*
X117274500Y-86258260D01*
X117284426Y-86326391D01*
X117335803Y-86431485D01*
X117418514Y-86514196D01*
X117418515Y-86514196D01*
X117418517Y-86514198D01*
X117523607Y-86565573D01*
X117557673Y-86570536D01*
X117591739Y-86575500D01*
X117591740Y-86575500D01*
X119408261Y-86575500D01*
X119430971Y-86572191D01*
X119476393Y-86565573D01*
X119581483Y-86514198D01*
X119664198Y-86431483D01*
X119715573Y-86326393D01*
X119725500Y-86258260D01*
X119725500Y-85891740D01*
X119715573Y-85823607D01*
X119664198Y-85718517D01*
X119664196Y-85718515D01*
X119664196Y-85718514D01*
X119581485Y-85635803D01*
X119476391Y-85584426D01*
X119408261Y-85574500D01*
X119408260Y-85574500D01*
X117591740Y-85574500D01*
X117591739Y-85574500D01*
X117523608Y-85584426D01*
X117418514Y-85635803D01*
X117335803Y-85718514D01*
X117284426Y-85823608D01*
X117274500Y-85891739D01*
X117274500Y-86258260D01*
X110875500Y-86258260D01*
X110875500Y-84988260D01*
X117274500Y-84988260D01*
X117284426Y-85056391D01*
X117335803Y-85161485D01*
X117418514Y-85244196D01*
X117418515Y-85244196D01*
X117418517Y-85244198D01*
X117523607Y-85295573D01*
X117535632Y-85297325D01*
X117591739Y-85305500D01*
X117591740Y-85305500D01*
X119408261Y-85305500D01*
X119430971Y-85302191D01*
X119476393Y-85295573D01*
X119581483Y-85244198D01*
X119664198Y-85161483D01*
X119715573Y-85056393D01*
X119725500Y-84988260D01*
X119725500Y-84621740D01*
X119715573Y-84553607D01*
X119664198Y-84448517D01*
X119664196Y-84448515D01*
X119664196Y-84448514D01*
X119581485Y-84365803D01*
X119476391Y-84314426D01*
X119408261Y-84304500D01*
X119408260Y-84304500D01*
X117591740Y-84304500D01*
X117591739Y-84304500D01*
X117523608Y-84314426D01*
X117418514Y-84365803D01*
X117335803Y-84448514D01*
X117284426Y-84553608D01*
X117274500Y-84621739D01*
X117274500Y-84988260D01*
X110875500Y-84988260D01*
X110875500Y-83718260D01*
X117274500Y-83718260D01*
X117284426Y-83786391D01*
X117335803Y-83891485D01*
X117418514Y-83974196D01*
X117418515Y-83974196D01*
X117418517Y-83974198D01*
X117523607Y-84025573D01*
X117557673Y-84030536D01*
X117591739Y-84035500D01*
X117591740Y-84035500D01*
X119408261Y-84035500D01*
X119430971Y-84032191D01*
X119476393Y-84025573D01*
X119581483Y-83974198D01*
X119664198Y-83891483D01*
X119715573Y-83786393D01*
X119725500Y-83718260D01*
X119725500Y-83351740D01*
X119715573Y-83283607D01*
X119664198Y-83178517D01*
X119664196Y-83178515D01*
X119664196Y-83178514D01*
X119581485Y-83095803D01*
X119476391Y-83044426D01*
X119408261Y-83034500D01*
X119408260Y-83034500D01*
X117591740Y-83034500D01*
X117591739Y-83034500D01*
X117523608Y-83044426D01*
X117418514Y-83095803D01*
X117335803Y-83178514D01*
X117284426Y-83283608D01*
X117274500Y-83351739D01*
X117274500Y-83718260D01*
X110875500Y-83718260D01*
X110875500Y-78737149D01*
X110875500Y-78737148D01*
X110867259Y-78706393D01*
X110853318Y-78654362D01*
X110825422Y-78606046D01*
X110810465Y-78580139D01*
X110749862Y-78519536D01*
X110749860Y-78519534D01*
X110424861Y-78194535D01*
X110419114Y-78188788D01*
X110419926Y-78187975D01*
X110390102Y-78151506D01*
X110364198Y-78098517D01*
X110364195Y-78098514D01*
X110364195Y-78098513D01*
X110358227Y-78090153D01*
X110359340Y-78089357D01*
X110331029Y-78037509D01*
X110336013Y-77967817D01*
X110377885Y-77911884D01*
X110389075Y-77904419D01*
X110476550Y-77852687D01*
X110476561Y-77852678D01*
X110592678Y-77736561D01*
X110592685Y-77736552D01*
X110676281Y-77595198D01*
X110722100Y-77437486D01*
X110722295Y-77435001D01*
X110722295Y-77435000D01*
X107677705Y-77435000D01*
X107677704Y-77435001D01*
X107677899Y-77437486D01*
X107723718Y-77595198D01*
X107807314Y-77736552D01*
X107807321Y-77736561D01*
X107923438Y-77852678D01*
X107923446Y-77852684D01*
X108010925Y-77904419D01*
X108058608Y-77955488D01*
X108071112Y-78024230D01*
X108044467Y-78088819D01*
X108035927Y-78098340D01*
X108035804Y-78098513D01*
X107984426Y-78203608D01*
X107974500Y-78271739D01*
X107974500Y-78638260D01*
X107984426Y-78706391D01*
X108035803Y-78811485D01*
X108118514Y-78894196D01*
X108118515Y-78894196D01*
X108118517Y-78894198D01*
X108223607Y-78945573D01*
X108257673Y-78950536D01*
X108291739Y-78955500D01*
X110100500Y-78955500D01*
X110167539Y-78975185D01*
X110213294Y-79027989D01*
X110224500Y-79079500D01*
X110224500Y-79100500D01*
X110204815Y-79167539D01*
X110152011Y-79213294D01*
X110100500Y-79224500D01*
X108291739Y-79224500D01*
X108223608Y-79234426D01*
X108118514Y-79285803D01*
X108035803Y-79368514D01*
X107984426Y-79473608D01*
X107974500Y-79541739D01*
X107974500Y-79908260D01*
X107984426Y-79976391D01*
X108035803Y-80081485D01*
X108118514Y-80164196D01*
X108118515Y-80164196D01*
X108118517Y-80164198D01*
X108223607Y-80215573D01*
X108257673Y-80220536D01*
X108291739Y-80225500D01*
X110100500Y-80225500D01*
X110167539Y-80245185D01*
X110213294Y-80297989D01*
X110224500Y-80349500D01*
X110224500Y-80370500D01*
X110204815Y-80437539D01*
X110152011Y-80483294D01*
X110100500Y-80494500D01*
X108291739Y-80494500D01*
X108223608Y-80504426D01*
X108118514Y-80555803D01*
X108035803Y-80638514D01*
X107984426Y-80743608D01*
X107974500Y-80811739D01*
X107974500Y-81178260D01*
X107984426Y-81246391D01*
X108035803Y-81351485D01*
X108118514Y-81434196D01*
X108118515Y-81434196D01*
X108118517Y-81434198D01*
X108223607Y-81485573D01*
X108257673Y-81490536D01*
X108291739Y-81495500D01*
X110100500Y-81495500D01*
X110167539Y-81515185D01*
X110213294Y-81567989D01*
X110224500Y-81619500D01*
X110224500Y-81640500D01*
X110204815Y-81707539D01*
X110152011Y-81753294D01*
X110100500Y-81764500D01*
X108291739Y-81764500D01*
X108223608Y-81774426D01*
X108118514Y-81825803D01*
X108035803Y-81908514D01*
X107984426Y-82013608D01*
X107974500Y-82081739D01*
X107974500Y-82448260D01*
X107984426Y-82516391D01*
X108035803Y-82621485D01*
X108118514Y-82704196D01*
X108118515Y-82704196D01*
X108118517Y-82704198D01*
X108223607Y-82755573D01*
X108257673Y-82760536D01*
X108291739Y-82765500D01*
X110100500Y-82765500D01*
X110167539Y-82785185D01*
X110213294Y-82837989D01*
X110224500Y-82889500D01*
X110224500Y-82910500D01*
X110204815Y-82977539D01*
X110152011Y-83023294D01*
X110100500Y-83034500D01*
X108291739Y-83034500D01*
X108223608Y-83044426D01*
X108118514Y-83095803D01*
X108035803Y-83178514D01*
X107984426Y-83283608D01*
X107974500Y-83351739D01*
X107974500Y-83718260D01*
X107984426Y-83786391D01*
X108035803Y-83891485D01*
X108118514Y-83974196D01*
X108118515Y-83974196D01*
X108118517Y-83974198D01*
X108223607Y-84025573D01*
X108257673Y-84030536D01*
X108291739Y-84035500D01*
X110100500Y-84035500D01*
X110167539Y-84055185D01*
X110213294Y-84107989D01*
X110224500Y-84159500D01*
X110224500Y-84180500D01*
X110204815Y-84247539D01*
X110152011Y-84293294D01*
X110100500Y-84304500D01*
X108291739Y-84304500D01*
X108223608Y-84314426D01*
X108118514Y-84365803D01*
X108035802Y-84448515D01*
X108035802Y-84448516D01*
X108001510Y-84518660D01*
X107977791Y-84551880D01*
X106761681Y-85767991D01*
X106700358Y-85801476D01*
X106630666Y-85796492D01*
X106574733Y-85754620D01*
X106550316Y-85689156D01*
X106550000Y-85680310D01*
X106550000Y-76934998D01*
X107677704Y-76934998D01*
X107677705Y-76935000D01*
X110722295Y-76935000D01*
X110722295Y-76934998D01*
X110722100Y-76932513D01*
X110676281Y-76774801D01*
X110592685Y-76633447D01*
X110592678Y-76633438D01*
X110476561Y-76517321D01*
X110476552Y-76517314D01*
X110389074Y-76465580D01*
X110341390Y-76414511D01*
X110328887Y-76345769D01*
X110355532Y-76281180D01*
X110364074Y-76271656D01*
X110364195Y-76271486D01*
X110364198Y-76271483D01*
X110415573Y-76166393D01*
X110425500Y-76098260D01*
X110425500Y-75731740D01*
X110415573Y-75663607D01*
X110364198Y-75558517D01*
X110364196Y-75558515D01*
X110364196Y-75558514D01*
X110281485Y-75475803D01*
X110176391Y-75424426D01*
X110108261Y-75414500D01*
X110108260Y-75414500D01*
X108291740Y-75414500D01*
X108291739Y-75414500D01*
X108223608Y-75424426D01*
X108118514Y-75475803D01*
X108035803Y-75558514D01*
X107984426Y-75663608D01*
X107974500Y-75731739D01*
X107974500Y-76098260D01*
X107984426Y-76166391D01*
X107984427Y-76166393D01*
X108035802Y-76271483D01*
X108035803Y-76271484D01*
X108035804Y-76271486D01*
X108041773Y-76279847D01*
X108040658Y-76280642D01*
X108068970Y-76332490D01*
X108063986Y-76402182D01*
X108022114Y-76458115D01*
X108010926Y-76465580D01*
X107923444Y-76517317D01*
X107923438Y-76517321D01*
X107807321Y-76633438D01*
X107807314Y-76633447D01*
X107723718Y-76774801D01*
X107677899Y-76932513D01*
X107677704Y-76934998D01*
X106550000Y-76934998D01*
X106550000Y-76251362D01*
X106569685Y-76184323D01*
X106586319Y-76163681D01*
X107813681Y-74936319D01*
X107875004Y-74902834D01*
X107901362Y-74900000D01*
X119798638Y-74900000D01*
X119865677Y-74919685D01*
G37*
%TD.AperFunction*%
%TD*%
%TA.AperFunction,NonConductor*%
G36*
X117030703Y-79147384D02*
G01*
X117037181Y-79153416D01*
X117163625Y-79279860D01*
X117163627Y-79279862D01*
X117224230Y-79340465D01*
X117224231Y-79340466D01*
X117224233Y-79340467D01*
X117224820Y-79340806D01*
X117225216Y-79341221D01*
X117230681Y-79345415D01*
X117230027Y-79346267D01*
X117273035Y-79391373D01*
X117286259Y-79459980D01*
X117285525Y-79466070D01*
X117284427Y-79473607D01*
X117274500Y-79541740D01*
X117274500Y-79541744D01*
X117274500Y-79908260D01*
X117284426Y-79976391D01*
X117335803Y-80081485D01*
X117418514Y-80164196D01*
X117418515Y-80164196D01*
X117418517Y-80164198D01*
X117523607Y-80215573D01*
X117557673Y-80220536D01*
X117591739Y-80225500D01*
X117591740Y-80225500D01*
X119408259Y-80225500D01*
X119408260Y-80225500D01*
X119476393Y-80215573D01*
X119476394Y-80215572D01*
X119483650Y-80214515D01*
X119552827Y-80224327D01*
X119589210Y-80249538D01*
X119670346Y-80330674D01*
X119703831Y-80391997D01*
X119698847Y-80461689D01*
X119656975Y-80517622D01*
X119591511Y-80542039D01*
X119528205Y-80529756D01*
X119476391Y-80504426D01*
X119408261Y-80494500D01*
X119408260Y-80494500D01*
X117591740Y-80494500D01*
X117591739Y-80494500D01*
X117523608Y-80504426D01*
X117418514Y-80555803D01*
X117335803Y-80638514D01*
X117284425Y-80743609D01*
X117281584Y-80752807D01*
X117279470Y-80752153D01*
X117255760Y-80803807D01*
X117196909Y-80841467D01*
X117127039Y-80841332D01*
X117074523Y-80810104D01*
X116861819Y-80597400D01*
X116828334Y-80536077D01*
X116825500Y-80509719D01*
X116825500Y-79241097D01*
X116845185Y-79174058D01*
X116897989Y-79128303D01*
X116967147Y-79118359D01*
X117030703Y-79147384D01*
G37*
%TD.AperFunction*%
%TA.AperFunction,NonConductor*%
G36*
X119889325Y-80549653D02*
G01*
X122888181Y-83548509D01*
X122921666Y-83609832D01*
X122924500Y-83636190D01*
X122924500Y-84208903D01*
X122904815Y-84275942D01*
X122852011Y-84321697D01*
X122782853Y-84331641D01*
X122719297Y-84302616D01*
X122712819Y-84296584D01*
X119775772Y-81359537D01*
X119775770Y-81359535D01*
X119775767Y-81359533D01*
X119769321Y-81354587D01*
X119770511Y-81353035D01*
X119729645Y-81310166D01*
X119716430Y-81241557D01*
X119717163Y-81235480D01*
X119725500Y-81178260D01*
X119725500Y-80811739D01*
X119715573Y-80743608D01*
X119713203Y-80738761D01*
X119690242Y-80691792D01*
X119678484Y-80622921D01*
X119705828Y-80558624D01*
X119763592Y-80519317D01*
X119833437Y-80517479D01*
X119889325Y-80549653D01*
G37*
%TD.AperFunction*%
%TA.AperFunction,NonConductor*%
G36*
X108291739Y-85305500D02*
G01*
X110100500Y-85305500D01*
X110167539Y-85325185D01*
X110213294Y-85377989D01*
X110224500Y-85429500D01*
X110224500Y-85450500D01*
X110204815Y-85517539D01*
X110152011Y-85563294D01*
X110100500Y-85574500D01*
X108291739Y-85574500D01*
X108223607Y-85584426D01*
X108223606Y-85584426D01*
X108191353Y-85600194D01*
X108122480Y-85611952D01*
X108058183Y-85584608D01*
X108018876Y-85526843D01*
X108017040Y-85456998D01*
X108049211Y-85401114D01*
X108119517Y-85330808D01*
X108180838Y-85297325D01*
X108225074Y-85295787D01*
X108291739Y-85305500D01*
G37*
%TD.AperFunction*%
%TA.AperFunction,NonConductor*%
G36*
X108155100Y-86532740D02*
G01*
X108166220Y-86537518D01*
X108223607Y-86565573D01*
X108257673Y-86570536D01*
X108291739Y-86575500D01*
X110100500Y-86575500D01*
X110167539Y-86595185D01*
X110213294Y-86647989D01*
X110224500Y-86699500D01*
X110224500Y-86720500D01*
X110204815Y-86787539D01*
X110152011Y-86833294D01*
X110100500Y-86844500D01*
X108291739Y-86844500D01*
X108223608Y-86854426D01*
X108118514Y-86905803D01*
X108035803Y-86988514D01*
X107984426Y-87093608D01*
X107974500Y-87161739D01*
X107974500Y-87528260D01*
X107984426Y-87596391D01*
X108035803Y-87701485D01*
X108118514Y-87784196D01*
X108118515Y-87784196D01*
X108118517Y-87784198D01*
X108223607Y-87835573D01*
X108257673Y-87840536D01*
X108291739Y-87845500D01*
X108291740Y-87845500D01*
X108750500Y-87845500D01*
X108817539Y-87865185D01*
X108863294Y-87917989D01*
X108874500Y-87969500D01*
X108874500Y-87990500D01*
X108854815Y-88057539D01*
X108802011Y-88103294D01*
X108750500Y-88114500D01*
X108291739Y-88114500D01*
X108223608Y-88124426D01*
X108118514Y-88175803D01*
X108035803Y-88258514D01*
X107984426Y-88363608D01*
X107974500Y-88431739D01*
X107974500Y-88798260D01*
X107984426Y-88866391D01*
X108035803Y-88971485D01*
X108118514Y-89054196D01*
X108118515Y-89054196D01*
X108118517Y-89054198D01*
X108223607Y-89105573D01*
X108257673Y-89110536D01*
X108291739Y-89115500D01*
X110100500Y-89115500D01*
X110167539Y-89135185D01*
X110213294Y-89187989D01*
X110224500Y-89239500D01*
X110224500Y-89260500D01*
X110204815Y-89327539D01*
X110152011Y-89373294D01*
X110100500Y-89384500D01*
X108291739Y-89384500D01*
X108223608Y-89394426D01*
X108118514Y-89445803D01*
X108041137Y-89523181D01*
X107979814Y-89556666D01*
X107953456Y-89559500D01*
X107818299Y-89559500D01*
X107751260Y-89539815D01*
X107719923Y-89510986D01*
X107678283Y-89456719D01*
X107678282Y-89456718D01*
X107552841Y-89360464D01*
X107521077Y-89347307D01*
X107406762Y-89299956D01*
X107406760Y-89299955D01*
X107250001Y-89279318D01*
X107249999Y-89279318D01*
X107093239Y-89299955D01*
X107093234Y-89299957D01*
X106996952Y-89339838D01*
X106927483Y-89347307D01*
X106865004Y-89316031D01*
X106829352Y-89255942D01*
X106825500Y-89225277D01*
X106825500Y-87811189D01*
X106845185Y-87744150D01*
X106861819Y-87723508D01*
X107438401Y-87146926D01*
X108024087Y-86561239D01*
X108085408Y-86527756D01*
X108155100Y-86532740D01*
G37*
%TD.AperFunction*%
M02*
