%TF.GenerationSoftware,KiCad,Pcbnew,8.0.0~rc1-42d8c85f12~176~ubuntu22.04.1*%
%TF.CreationDate,2024-01-16T22:26:43+10:00*%
%TF.ProjectId,MXBreakout,4d584272-6561-46b6-9f75-742e6b696361,rev?*%
%TF.SameCoordinates,Original*%
%TF.FileFunction,Copper,L2,Bot*%
%TF.FilePolarity,Positive*%
%FSLAX46Y46*%
G04 Gerber Fmt 4.6, Leading zero omitted, Abs format (unit mm)*
G04 Created by KiCad (PCBNEW 8.0.0~rc1-42d8c85f12~176~ubuntu22.04.1) date 2024-01-16 22:26:43*
%MOMM*%
%LPD*%
G01*
G04 APERTURE LIST*
%TA.AperFunction,ComponentPad*%
%ADD10C,0.500000*%
%TD*%
%TA.AperFunction,ViaPad*%
%ADD11C,0.800000*%
%TD*%
%TA.AperFunction,ViaPad*%
%ADD12C,1.250000*%
%TD*%
%TA.AperFunction,ViaPad*%
%ADD13C,0.500000*%
%TD*%
%TA.AperFunction,Conductor*%
%ADD14C,0.250000*%
%TD*%
%TA.AperFunction,Conductor*%
%ADD15C,0.200000*%
%TD*%
G04 APERTURE END LIST*
D10*
%TO.P,REF\u002A\u002A,1*%
%TO.N,GND*%
X95000000Y-102500000D03*
%TD*%
%TO.P,TP4,1,1*%
%TO.N,/DATA0*%
X124000000Y-84975000D03*
%TD*%
%TO.P,REF\u002A\u002A,1*%
%TO.N,GND*%
X90000000Y-98750000D03*
%TD*%
%TO.P,TP3,1,1*%
%TO.N,GND*%
X134100000Y-83600000D03*
%TD*%
%TO.P,TP11,1,1*%
%TO.N,Net-(U10-RST)*%
X124000000Y-84000000D03*
%TD*%
%TO.P,TP3,1,1*%
%TO.N,GND*%
X135600000Y-83600000D03*
%TD*%
%TO.P,REF\u002A\u002A,1*%
%TO.N,GND*%
X90000000Y-97500000D03*
%TD*%
%TO.P,REF\u002A\u002A,1*%
%TO.N,GND*%
X90000000Y-96250000D03*
%TD*%
%TO.P,REF\u002A\u002A,1*%
%TO.N,GND*%
X92500000Y-102500000D03*
%TD*%
%TO.P,REF\u002A\u002A,1*%
%TO.N,GND*%
X93750000Y-102500000D03*
%TD*%
%TO.P,REF\u002A\u002A,1*%
%TO.N,GND*%
X103750000Y-102500000D03*
%TD*%
%TO.P,TP6,1,1*%
%TO.N,/DATA2*%
X128750000Y-84975000D03*
%TD*%
%TO.P,REF\u002A\u002A,1*%
%TO.N,GND*%
X90000000Y-100000000D03*
%TD*%
%TO.P,TP7,1,1*%
%TO.N,/DATA3*%
X123000000Y-86000000D03*
%TD*%
%TO.P,TP5,1,1*%
%TO.N,/DATA1*%
X129500000Y-84975000D03*
%TD*%
%TO.P,REF\u002A\u002A,1*%
%TO.N,GND*%
X102500000Y-102500000D03*
%TD*%
%TO.P,REF\u002A\u002A,1*%
%TO.N,GND*%
X90000000Y-95000000D03*
%TD*%
D11*
%TO.N,GND*%
X115000000Y-87500000D03*
D12*
X103750000Y-102500000D03*
D11*
X112500000Y-87500000D03*
X105000000Y-95000000D03*
X97500000Y-92500000D03*
X112500000Y-82500000D03*
X130000000Y-82500000D03*
X112500000Y-92500000D03*
D12*
X93750000Y-102500000D03*
D11*
X115000000Y-82500000D03*
D12*
X102500000Y-102500000D03*
D11*
X107500000Y-92500000D03*
X114999203Y-92499203D03*
D12*
X92500000Y-102500000D03*
X90000000Y-98750000D03*
D11*
X112500000Y-90000000D03*
D12*
X90000000Y-97500000D03*
X95000000Y-102500000D03*
D11*
X112500000Y-77500000D03*
D12*
X90000000Y-96250000D03*
D11*
X115000000Y-77500000D03*
D12*
X90000000Y-100000000D03*
D11*
X112500000Y-80000000D03*
D12*
X90000000Y-95000000D03*
D11*
X115000000Y-80000000D03*
X115000000Y-85000000D03*
X115000000Y-90000000D03*
X112500000Y-85000000D03*
X127500000Y-82500000D03*
X100000000Y-90000000D03*
%TO.N,Net-(D1-K)*%
X107250000Y-89885000D03*
X92575000Y-93450000D03*
D13*
%TO.N,/DATA0*%
X120150000Y-79725000D03*
%TO.N,/DATA1*%
X120150000Y-78450000D03*
%TO.N,/DATA2*%
X120150000Y-77185000D03*
%TD*%
D14*
%TO.N,Net-(D1-K)*%
X107250000Y-89885000D02*
X103685000Y-93450000D01*
X103685000Y-93450000D02*
X92575000Y-93450000D01*
D15*
%TO.N,/DATA0*%
X120150000Y-81125000D02*
X120150000Y-79725000D01*
X124000000Y-84975000D02*
X120150000Y-81125000D01*
%TO.N,/DATA1*%
X128128553Y-83250000D02*
X125450000Y-83250000D01*
X129500000Y-84621447D02*
X128128553Y-83250000D01*
X129500000Y-84975000D02*
X129500000Y-84621447D01*
X125450000Y-83250000D02*
X120650000Y-78450000D01*
X120650000Y-78450000D02*
X120150000Y-78450000D01*
%TO.N,/DATA2*%
X120634314Y-79000000D02*
X119922182Y-79000000D01*
X128750000Y-84975000D02*
X126609314Y-84975000D01*
X119600000Y-78677818D02*
X119600000Y-77735000D01*
X119600000Y-77735000D02*
X120150000Y-77185000D01*
X126609314Y-84975000D02*
X120634314Y-79000000D01*
X119922182Y-79000000D02*
X119600000Y-78677818D01*
%TD*%
%TA.AperFunction,Conductor*%
%TO.N,GND*%
G36*
X119865677Y-74919685D02*
G01*
X119886319Y-74936319D01*
X126574999Y-81624999D01*
X126575000Y-81625000D01*
X135823719Y-81624919D01*
X135890758Y-81644603D01*
X135911400Y-81661238D01*
X136438762Y-82188600D01*
X136472247Y-82249923D01*
X136475081Y-82276281D01*
X136475081Y-83162259D01*
X136455396Y-83229298D01*
X136402592Y-83275053D01*
X136333434Y-83284997D01*
X136323488Y-83283150D01*
X136280266Y-83273284D01*
X135600000Y-83953553D01*
X135273285Y-84280266D01*
X135432056Y-84335824D01*
X135599996Y-84354746D01*
X135600004Y-84354746D01*
X135767941Y-84335824D01*
X135767954Y-84335821D01*
X135864658Y-84301983D01*
X135934437Y-84298421D01*
X135995064Y-84333149D01*
X136027292Y-84395143D01*
X136020887Y-84464718D01*
X135993294Y-84506705D01*
X132636319Y-87863681D01*
X132574996Y-87897166D01*
X132548638Y-87900000D01*
X123049999Y-87900000D01*
X122150000Y-88799999D01*
X122150000Y-91348638D01*
X122130315Y-91415677D01*
X122113681Y-91436319D01*
X119836319Y-93713681D01*
X119774996Y-93747166D01*
X119748638Y-93750000D01*
X106999999Y-93750000D01*
X105400000Y-95349999D01*
X105400000Y-102198638D01*
X105380315Y-102265677D01*
X105363681Y-102286319D01*
X104544574Y-103105425D01*
X104483251Y-103138910D01*
X104413559Y-103133926D01*
X104357626Y-103092054D01*
X104333209Y-103026590D01*
X104348061Y-102958317D01*
X104351900Y-102951771D01*
X104430002Y-102827472D01*
X104485822Y-102667949D01*
X104485824Y-102667941D01*
X104504746Y-102500003D01*
X104504746Y-102499996D01*
X104485824Y-102332056D01*
X104430266Y-102173285D01*
X103837680Y-102765871D01*
X103776357Y-102799356D01*
X103706665Y-102794372D01*
X103662318Y-102765871D01*
X103436229Y-102539782D01*
X103550000Y-102539782D01*
X103580448Y-102613291D01*
X103636709Y-102669552D01*
X103710218Y-102700000D01*
X103789782Y-102700000D01*
X103863291Y-102669552D01*
X103919552Y-102613291D01*
X103950000Y-102539782D01*
X103950000Y-102460218D01*
X103919552Y-102386709D01*
X103863291Y-102330448D01*
X103789782Y-102300000D01*
X103710218Y-102300000D01*
X103636709Y-102330448D01*
X103580448Y-102386709D01*
X103550000Y-102460218D01*
X103550000Y-102539782D01*
X103436229Y-102539782D01*
X103125000Y-102228553D01*
X102587681Y-102765872D01*
X102526358Y-102799357D01*
X102456666Y-102794373D01*
X102412319Y-102765872D01*
X102186229Y-102539782D01*
X102300000Y-102539782D01*
X102330448Y-102613291D01*
X102386709Y-102669552D01*
X102460218Y-102700000D01*
X102539782Y-102700000D01*
X102613291Y-102669552D01*
X102669552Y-102613291D01*
X102700000Y-102539782D01*
X102700000Y-102460218D01*
X102669552Y-102386709D01*
X102613291Y-102330448D01*
X102539782Y-102300000D01*
X102460218Y-102300000D01*
X102386709Y-102330448D01*
X102330448Y-102386709D01*
X102300000Y-102460218D01*
X102300000Y-102539782D01*
X102186229Y-102539782D01*
X101819732Y-102173285D01*
X101764176Y-102332053D01*
X101764175Y-102332058D01*
X101745254Y-102499996D01*
X101745254Y-102500003D01*
X101764175Y-102667941D01*
X101764177Y-102667949D01*
X101819997Y-102827473D01*
X101909127Y-102969321D01*
X101928128Y-103036558D01*
X101907761Y-103103393D01*
X101854493Y-103148608D01*
X101804562Y-103159293D01*
X97250290Y-103174999D01*
X97249862Y-103175000D01*
X95340410Y-103175000D01*
X95302665Y-103156106D01*
X95299479Y-103153032D01*
X94686229Y-102539782D01*
X94800000Y-102539782D01*
X94830448Y-102613291D01*
X94886709Y-102669552D01*
X94960218Y-102700000D01*
X95039782Y-102700000D01*
X95113291Y-102669552D01*
X95169552Y-102613291D01*
X95200000Y-102539782D01*
X95200000Y-102500001D01*
X95353553Y-102500001D01*
X95680266Y-102826714D01*
X95680267Y-102826713D01*
X95735824Y-102667943D01*
X95754746Y-102500003D01*
X95754746Y-102499996D01*
X95735824Y-102332056D01*
X95680266Y-102173285D01*
X95353553Y-102499999D01*
X95353553Y-102500001D01*
X95200000Y-102500001D01*
X95200000Y-102460218D01*
X95169552Y-102386709D01*
X95113291Y-102330448D01*
X95039782Y-102300000D01*
X94960218Y-102300000D01*
X94886709Y-102330448D01*
X94830448Y-102386709D01*
X94800000Y-102460218D01*
X94800000Y-102539782D01*
X94686229Y-102539782D01*
X94375000Y-102228553D01*
X93837681Y-102765872D01*
X93776358Y-102799357D01*
X93706666Y-102794373D01*
X93662319Y-102765872D01*
X93436229Y-102539782D01*
X93550000Y-102539782D01*
X93580448Y-102613291D01*
X93636709Y-102669552D01*
X93710218Y-102700000D01*
X93789782Y-102700000D01*
X93863291Y-102669552D01*
X93919552Y-102613291D01*
X93950000Y-102539782D01*
X93950000Y-102460218D01*
X93919552Y-102386709D01*
X93863291Y-102330448D01*
X93789782Y-102300000D01*
X93710218Y-102300000D01*
X93636709Y-102330448D01*
X93580448Y-102386709D01*
X93550000Y-102460218D01*
X93550000Y-102539782D01*
X93436229Y-102539782D01*
X93125000Y-102228553D01*
X92500000Y-102853553D01*
X92200520Y-103153032D01*
X92160289Y-103175000D01*
X90051362Y-103175000D01*
X89984323Y-103155315D01*
X89963681Y-103138681D01*
X89336319Y-102511319D01*
X89330140Y-102500003D01*
X91745254Y-102500003D01*
X91764175Y-102667938D01*
X91764176Y-102667943D01*
X91819732Y-102826714D01*
X92106665Y-102539782D01*
X92300000Y-102539782D01*
X92330448Y-102613291D01*
X92386709Y-102669552D01*
X92460218Y-102700000D01*
X92539782Y-102700000D01*
X92613291Y-102669552D01*
X92669552Y-102613291D01*
X92700000Y-102539782D01*
X92700000Y-102460218D01*
X92669552Y-102386709D01*
X92613291Y-102330448D01*
X92539782Y-102300000D01*
X92460218Y-102300000D01*
X92386709Y-102330448D01*
X92330448Y-102386709D01*
X92300000Y-102460218D01*
X92300000Y-102539782D01*
X92106665Y-102539782D01*
X92146447Y-102500000D01*
X91819732Y-102173285D01*
X91764176Y-102332053D01*
X91764175Y-102332058D01*
X91745254Y-102499996D01*
X91745254Y-102500003D01*
X89330140Y-102500003D01*
X89302834Y-102449996D01*
X89300000Y-102423638D01*
X89300000Y-101819732D01*
X92173285Y-101819732D01*
X92500000Y-102146447D01*
X92500001Y-102146447D01*
X92826714Y-101819732D01*
X93423285Y-101819732D01*
X93750000Y-102146447D01*
X93750001Y-102146447D01*
X94076714Y-101819732D01*
X94673285Y-101819732D01*
X95000000Y-102146447D01*
X95000001Y-102146447D01*
X95326714Y-101819732D01*
X102173285Y-101819732D01*
X102500000Y-102146447D01*
X102500001Y-102146447D01*
X102826714Y-101819732D01*
X103423285Y-101819732D01*
X103750000Y-102146447D01*
X103750001Y-102146447D01*
X104076714Y-101819732D01*
X103917943Y-101764176D01*
X103917938Y-101764175D01*
X103750004Y-101745254D01*
X103749996Y-101745254D01*
X103582058Y-101764175D01*
X103582053Y-101764176D01*
X103423285Y-101819732D01*
X102826714Y-101819732D01*
X102667943Y-101764176D01*
X102667938Y-101764175D01*
X102500004Y-101745254D01*
X102499996Y-101745254D01*
X102332058Y-101764175D01*
X102332053Y-101764176D01*
X102173285Y-101819732D01*
X95326714Y-101819732D01*
X95167943Y-101764176D01*
X95167938Y-101764175D01*
X95000004Y-101745254D01*
X94999996Y-101745254D01*
X94832058Y-101764175D01*
X94832053Y-101764176D01*
X94673285Y-101819732D01*
X94076714Y-101819732D01*
X93917943Y-101764176D01*
X93917938Y-101764175D01*
X93750004Y-101745254D01*
X93749996Y-101745254D01*
X93582058Y-101764175D01*
X93582053Y-101764176D01*
X93423285Y-101819732D01*
X92826714Y-101819732D01*
X92667943Y-101764176D01*
X92667938Y-101764175D01*
X92500004Y-101745254D01*
X92499996Y-101745254D01*
X92332058Y-101764175D01*
X92332053Y-101764176D01*
X92173285Y-101819732D01*
X89300000Y-101819732D01*
X89300000Y-100680266D01*
X89673285Y-100680266D01*
X89832056Y-100735824D01*
X89999996Y-100754746D01*
X90000004Y-100754746D01*
X90167943Y-100735824D01*
X90326713Y-100680267D01*
X90326714Y-100680266D01*
X90000001Y-100353553D01*
X90000000Y-100353553D01*
X89673285Y-100680266D01*
X89300000Y-100680266D01*
X89300000Y-100397808D01*
X89319685Y-100330769D01*
X89336319Y-100310127D01*
X89606664Y-100039782D01*
X89800000Y-100039782D01*
X89830448Y-100113291D01*
X89886709Y-100169552D01*
X89960218Y-100200000D01*
X90039782Y-100200000D01*
X90113291Y-100169552D01*
X90169552Y-100113291D01*
X90200000Y-100039782D01*
X90200000Y-100000001D01*
X90353553Y-100000001D01*
X90680266Y-100326714D01*
X90680267Y-100326713D01*
X90735824Y-100167943D01*
X90754746Y-100000003D01*
X90754746Y-99999996D01*
X90735824Y-99832056D01*
X90680266Y-99673285D01*
X90353553Y-99999999D01*
X90353553Y-100000001D01*
X90200000Y-100000001D01*
X90200000Y-99960218D01*
X90169552Y-99886709D01*
X90113291Y-99830448D01*
X90039782Y-99800000D01*
X89960218Y-99800000D01*
X89886709Y-99830448D01*
X89830448Y-99886709D01*
X89800000Y-99960218D01*
X89800000Y-100039782D01*
X89606664Y-100039782D01*
X90000000Y-99646447D01*
X90271447Y-99375000D01*
X89734128Y-98837681D01*
X89707973Y-98789782D01*
X89800000Y-98789782D01*
X89830448Y-98863291D01*
X89886709Y-98919552D01*
X89960218Y-98950000D01*
X90039782Y-98950000D01*
X90113291Y-98919552D01*
X90169552Y-98863291D01*
X90200000Y-98789782D01*
X90200000Y-98750001D01*
X90353553Y-98750001D01*
X90680266Y-99076714D01*
X90680267Y-99076713D01*
X90735824Y-98917943D01*
X90754746Y-98750003D01*
X90754746Y-98749996D01*
X90735824Y-98582056D01*
X90680266Y-98423285D01*
X90353553Y-98749999D01*
X90353553Y-98750001D01*
X90200000Y-98750001D01*
X90200000Y-98710218D01*
X90169552Y-98636709D01*
X90113291Y-98580448D01*
X90039782Y-98550000D01*
X89960218Y-98550000D01*
X89886709Y-98580448D01*
X89830448Y-98636709D01*
X89800000Y-98710218D01*
X89800000Y-98789782D01*
X89707973Y-98789782D01*
X89700643Y-98776358D01*
X89705627Y-98706666D01*
X89734128Y-98662319D01*
X90271447Y-98125000D01*
X89734128Y-97587681D01*
X89707973Y-97539782D01*
X89800000Y-97539782D01*
X89830448Y-97613291D01*
X89886709Y-97669552D01*
X89960218Y-97700000D01*
X90039782Y-97700000D01*
X90113291Y-97669552D01*
X90169552Y-97613291D01*
X90200000Y-97539782D01*
X90200000Y-97500001D01*
X90353553Y-97500001D01*
X90680266Y-97826714D01*
X90680267Y-97826713D01*
X90735824Y-97667943D01*
X90754746Y-97500003D01*
X90754746Y-97499996D01*
X90735824Y-97332056D01*
X90680266Y-97173285D01*
X90353553Y-97499999D01*
X90353553Y-97500001D01*
X90200000Y-97500001D01*
X90200000Y-97460218D01*
X90169552Y-97386709D01*
X90113291Y-97330448D01*
X90039782Y-97300000D01*
X89960218Y-97300000D01*
X89886709Y-97330448D01*
X89830448Y-97386709D01*
X89800000Y-97460218D01*
X89800000Y-97539782D01*
X89707973Y-97539782D01*
X89700643Y-97526358D01*
X89705627Y-97456666D01*
X89734128Y-97412319D01*
X90271447Y-96875000D01*
X89734128Y-96337681D01*
X89707973Y-96289782D01*
X89800000Y-96289782D01*
X89830448Y-96363291D01*
X89886709Y-96419552D01*
X89960218Y-96450000D01*
X90039782Y-96450000D01*
X90113291Y-96419552D01*
X90169552Y-96363291D01*
X90200000Y-96289782D01*
X90200000Y-96250001D01*
X90353553Y-96250001D01*
X90680266Y-96576714D01*
X90680267Y-96576713D01*
X90735824Y-96417943D01*
X90754746Y-96250003D01*
X90754746Y-96249996D01*
X90735824Y-96082056D01*
X90680266Y-95923285D01*
X90353553Y-96249999D01*
X90353553Y-96250001D01*
X90200000Y-96250001D01*
X90200000Y-96210218D01*
X90169552Y-96136709D01*
X90113291Y-96080448D01*
X90039782Y-96050000D01*
X89960218Y-96050000D01*
X89886709Y-96080448D01*
X89830448Y-96136709D01*
X89800000Y-96210218D01*
X89800000Y-96289782D01*
X89707973Y-96289782D01*
X89700643Y-96276358D01*
X89705627Y-96206666D01*
X89734128Y-96162319D01*
X90271447Y-95625000D01*
X90000000Y-95353553D01*
X89686229Y-95039782D01*
X89800000Y-95039782D01*
X89830448Y-95113291D01*
X89886709Y-95169552D01*
X89960218Y-95200000D01*
X90039782Y-95200000D01*
X90113291Y-95169552D01*
X90169552Y-95113291D01*
X90200000Y-95039782D01*
X90200000Y-95000001D01*
X90353553Y-95000001D01*
X90680266Y-95326714D01*
X90680267Y-95326713D01*
X90735824Y-95167943D01*
X90754746Y-95000003D01*
X90754746Y-94999996D01*
X90735824Y-94832056D01*
X90680266Y-94673285D01*
X90353553Y-94999999D01*
X90353553Y-95000001D01*
X90200000Y-95000001D01*
X90200000Y-94960218D01*
X90169552Y-94886709D01*
X90113291Y-94830448D01*
X90039782Y-94800000D01*
X89960218Y-94800000D01*
X89886709Y-94830448D01*
X89830448Y-94886709D01*
X89800000Y-94960218D01*
X89800000Y-95039782D01*
X89686229Y-95039782D01*
X89336319Y-94689871D01*
X89302834Y-94628548D01*
X89300000Y-94602190D01*
X89300000Y-94319732D01*
X89673285Y-94319732D01*
X90000000Y-94646447D01*
X90000001Y-94646447D01*
X90326714Y-94319732D01*
X90167943Y-94264176D01*
X90167938Y-94264175D01*
X90000004Y-94245254D01*
X89999996Y-94245254D01*
X89832058Y-94264175D01*
X89832053Y-94264176D01*
X89673285Y-94319732D01*
X89300000Y-94319732D01*
X89300000Y-93450001D01*
X91969318Y-93450001D01*
X91989955Y-93606760D01*
X91989956Y-93606762D01*
X92050464Y-93752841D01*
X92146718Y-93878282D01*
X92272159Y-93974536D01*
X92418238Y-94035044D01*
X92496619Y-94045363D01*
X92574999Y-94055682D01*
X92575000Y-94055682D01*
X92575001Y-94055682D01*
X92627254Y-94048802D01*
X92731762Y-94035044D01*
X92877841Y-93974536D01*
X93003282Y-93878282D01*
X93044923Y-93824013D01*
X93101351Y-93782811D01*
X93143299Y-93775500D01*
X103727851Y-93775500D01*
X103727853Y-93775500D01*
X103810639Y-93753318D01*
X103884862Y-93710465D01*
X107078316Y-90517009D01*
X107139637Y-90483526D01*
X107182181Y-90481753D01*
X107249999Y-90490682D01*
X107250000Y-90490682D01*
X107250001Y-90490682D01*
X107302254Y-90483802D01*
X107406762Y-90470044D01*
X107552841Y-90409536D01*
X107678282Y-90313282D01*
X107774536Y-90187841D01*
X107835044Y-90041762D01*
X107855682Y-89885000D01*
X107835044Y-89728238D01*
X107774536Y-89582159D01*
X107678282Y-89456718D01*
X107552841Y-89360464D01*
X107406762Y-89299956D01*
X107406760Y-89299955D01*
X107250001Y-89279318D01*
X107249999Y-89279318D01*
X107093239Y-89299955D01*
X107093237Y-89299956D01*
X106947160Y-89360463D01*
X106821718Y-89456718D01*
X106725463Y-89582160D01*
X106664956Y-89728237D01*
X106664955Y-89728239D01*
X106644318Y-89884998D01*
X106644318Y-89885001D01*
X106653246Y-89952817D01*
X106642480Y-90021852D01*
X106617988Y-90056683D01*
X103586492Y-93088181D01*
X103525169Y-93121666D01*
X103498811Y-93124500D01*
X93143299Y-93124500D01*
X93076260Y-93104815D01*
X93044923Y-93075986D01*
X93003283Y-93021719D01*
X92879011Y-92926362D01*
X92877841Y-92925464D01*
X92731762Y-92864956D01*
X92731760Y-92864955D01*
X92575001Y-92844318D01*
X92574999Y-92844318D01*
X92418239Y-92864955D01*
X92418237Y-92864956D01*
X92272160Y-92925463D01*
X92146718Y-93021718D01*
X92050463Y-93147160D01*
X91989956Y-93293237D01*
X91989955Y-93293239D01*
X91969318Y-93449998D01*
X91969318Y-93450001D01*
X89300000Y-93450001D01*
X89300000Y-92926362D01*
X89319685Y-92859323D01*
X89336319Y-92838681D01*
X89698568Y-92476432D01*
X89701440Y-92473650D01*
X90064227Y-92133537D01*
X90126598Y-92102047D01*
X90149036Y-92100000D01*
X96950000Y-92100000D01*
X100013681Y-89036319D01*
X100075004Y-89002834D01*
X100101362Y-89000000D01*
X103250000Y-89000000D01*
X106250001Y-85999999D01*
X122544867Y-85999999D01*
X122548238Y-86023445D01*
X122549500Y-86041092D01*
X122549500Y-86059310D01*
X122555991Y-86083537D01*
X122558952Y-86097976D01*
X122563301Y-86128222D01*
X122563302Y-86128225D01*
X122570286Y-86143518D01*
X122577264Y-86162927D01*
X122577267Y-86162940D01*
X122580201Y-86173886D01*
X122596170Y-86201545D01*
X122601574Y-86212027D01*
X122617118Y-86246063D01*
X122623612Y-86253558D01*
X122637291Y-86272767D01*
X122639510Y-86276612D01*
X122666920Y-86304022D01*
X122672952Y-86310500D01*
X122701951Y-86343967D01*
X122704485Y-86345595D01*
X122716897Y-86355598D01*
X122716941Y-86355542D01*
X122723381Y-86360483D01*
X122723387Y-86360489D01*
X122762871Y-86383285D01*
X122762878Y-86383289D01*
X122767918Y-86386361D01*
X122810930Y-86414004D01*
X122812226Y-86414595D01*
X122821171Y-86417751D01*
X122826107Y-86419795D01*
X122826114Y-86419799D01*
X122874940Y-86432881D01*
X122876778Y-86433374D01*
X122879580Y-86434160D01*
X122935228Y-86450500D01*
X123064772Y-86450500D01*
X123120426Y-86434157D01*
X123123243Y-86433368D01*
X123173886Y-86419799D01*
X123173892Y-86419795D01*
X123178821Y-86417754D01*
X123187768Y-86414597D01*
X123189062Y-86414005D01*
X123189069Y-86414004D01*
X123232114Y-86386339D01*
X123237086Y-86383309D01*
X123276613Y-86360489D01*
X123276618Y-86360483D01*
X123283068Y-86355536D01*
X123283111Y-86355593D01*
X123295525Y-86345588D01*
X123298049Y-86343967D01*
X123327054Y-86310491D01*
X123333060Y-86304040D01*
X123360489Y-86276613D01*
X123362708Y-86272767D01*
X123376391Y-86253553D01*
X123382882Y-86246063D01*
X123398428Y-86212018D01*
X123403822Y-86201555D01*
X123419799Y-86173886D01*
X123422734Y-86162931D01*
X123429715Y-86143513D01*
X123436697Y-86128226D01*
X123441046Y-86097976D01*
X123444007Y-86083537D01*
X123450500Y-86059309D01*
X123450500Y-86041092D01*
X123451762Y-86023445D01*
X123455133Y-85999999D01*
X123451762Y-85976552D01*
X123450500Y-85958906D01*
X123450500Y-85940692D01*
X123446968Y-85927511D01*
X123444004Y-85916451D01*
X123441044Y-85902013D01*
X123436697Y-85871774D01*
X123429713Y-85856481D01*
X123422734Y-85837069D01*
X123419799Y-85826114D01*
X123403826Y-85798450D01*
X123398427Y-85787975D01*
X123382884Y-85753941D01*
X123382883Y-85753940D01*
X123382882Y-85753937D01*
X123376385Y-85746439D01*
X123362709Y-85727233D01*
X123360488Y-85723386D01*
X123333062Y-85695960D01*
X123327046Y-85689498D01*
X123327034Y-85689484D01*
X123298049Y-85656033D01*
X123298047Y-85656032D01*
X123298048Y-85656032D01*
X123295508Y-85654400D01*
X123283101Y-85644401D01*
X123283059Y-85644458D01*
X123276617Y-85639515D01*
X123276613Y-85639511D01*
X123259933Y-85629881D01*
X123237115Y-85616706D01*
X123232078Y-85613636D01*
X123189068Y-85585995D01*
X123187773Y-85585404D01*
X123178845Y-85582254D01*
X123173887Y-85580200D01*
X123123195Y-85566617D01*
X123120358Y-85565821D01*
X123064772Y-85549500D01*
X122935228Y-85549500D01*
X122879584Y-85565837D01*
X122876747Y-85566633D01*
X122826112Y-85580201D01*
X122821148Y-85582257D01*
X122812223Y-85585405D01*
X122810932Y-85585995D01*
X122767923Y-85613635D01*
X122762887Y-85616704D01*
X122723388Y-85639509D01*
X122716942Y-85644456D01*
X122716900Y-85644401D01*
X122704501Y-85654392D01*
X122701956Y-85656027D01*
X122701951Y-85656032D01*
X122672965Y-85689484D01*
X122666936Y-85695960D01*
X122639511Y-85723386D01*
X122637283Y-85727245D01*
X122623618Y-85746435D01*
X122617117Y-85753937D01*
X122601574Y-85787971D01*
X122596169Y-85798454D01*
X122580202Y-85826110D01*
X122577265Y-85837069D01*
X122570290Y-85856472D01*
X122563302Y-85871774D01*
X122563301Y-85871780D01*
X122558952Y-85902023D01*
X122555990Y-85916464D01*
X122549501Y-85940683D01*
X122549500Y-85940691D01*
X122549500Y-85958906D01*
X122548238Y-85976552D01*
X122544867Y-85999999D01*
X106250001Y-85999999D01*
X106550000Y-85700000D01*
X106550000Y-78717380D01*
X119299500Y-78717380D01*
X119313152Y-78768331D01*
X119319979Y-78793808D01*
X119319980Y-78793809D01*
X119332497Y-78815489D01*
X119359540Y-78862329D01*
X119681722Y-79184511D01*
X119737671Y-79240460D01*
X119737672Y-79240461D01*
X119737674Y-79240462D01*
X119764973Y-79256223D01*
X119813188Y-79306789D01*
X119826412Y-79375396D01*
X119800444Y-79440261D01*
X119796687Y-79444812D01*
X119767118Y-79478937D01*
X119767117Y-79478938D01*
X119713302Y-79596774D01*
X119694867Y-79725000D01*
X119713302Y-79853225D01*
X119767117Y-79971061D01*
X119767118Y-79971063D01*
X119819214Y-80031186D01*
X119848238Y-80094738D01*
X119849500Y-80112386D01*
X119849500Y-81164562D01*
X119863152Y-81215513D01*
X119869979Y-81240990D01*
X119869982Y-81240995D01*
X119909535Y-81309504D01*
X119909541Y-81309512D01*
X123510618Y-84910589D01*
X123544103Y-84971912D01*
X123545674Y-84980619D01*
X123548237Y-84998441D01*
X123549500Y-85016092D01*
X123549500Y-85034310D01*
X123555991Y-85058537D01*
X123558952Y-85072976D01*
X123563301Y-85103222D01*
X123563302Y-85103225D01*
X123570286Y-85118518D01*
X123577264Y-85137927D01*
X123577267Y-85137940D01*
X123580201Y-85148886D01*
X123596170Y-85176545D01*
X123601574Y-85187027D01*
X123617118Y-85221063D01*
X123623612Y-85228558D01*
X123637291Y-85247767D01*
X123639510Y-85251612D01*
X123666920Y-85279022D01*
X123672952Y-85285500D01*
X123701951Y-85318967D01*
X123704485Y-85320595D01*
X123716897Y-85330598D01*
X123716941Y-85330542D01*
X123723381Y-85335483D01*
X123723387Y-85335489D01*
X123762871Y-85358285D01*
X123762878Y-85358289D01*
X123767918Y-85361361D01*
X123810930Y-85389004D01*
X123812226Y-85389595D01*
X123821171Y-85392751D01*
X123826107Y-85394795D01*
X123826114Y-85394799D01*
X123874940Y-85407881D01*
X123876778Y-85408374D01*
X123879580Y-85409160D01*
X123935228Y-85425500D01*
X124064772Y-85425500D01*
X124120426Y-85409157D01*
X124123243Y-85408368D01*
X124173886Y-85394799D01*
X124173892Y-85394795D01*
X124178821Y-85392754D01*
X124187768Y-85389597D01*
X124189062Y-85389005D01*
X124189069Y-85389004D01*
X124232114Y-85361339D01*
X124237086Y-85358309D01*
X124276613Y-85335489D01*
X124276618Y-85335483D01*
X124283068Y-85330536D01*
X124283111Y-85330593D01*
X124295525Y-85320588D01*
X124298049Y-85318967D01*
X124327054Y-85285491D01*
X124333060Y-85279040D01*
X124360489Y-85251613D01*
X124362708Y-85247767D01*
X124376391Y-85228553D01*
X124382882Y-85221063D01*
X124398428Y-85187018D01*
X124403822Y-85176555D01*
X124419799Y-85148886D01*
X124422734Y-85137931D01*
X124429715Y-85118513D01*
X124436697Y-85103226D01*
X124441046Y-85072976D01*
X124444007Y-85058537D01*
X124450500Y-85034309D01*
X124450500Y-85016092D01*
X124451762Y-84998445D01*
X124455133Y-84974999D01*
X124451762Y-84951552D01*
X124450500Y-84933906D01*
X124450500Y-84915692D01*
X124450500Y-84915691D01*
X124444004Y-84891451D01*
X124441044Y-84877013D01*
X124436697Y-84846776D01*
X124436696Y-84846771D01*
X124433780Y-84840387D01*
X124429713Y-84831481D01*
X124422735Y-84812074D01*
X124419799Y-84801114D01*
X124403826Y-84773450D01*
X124398427Y-84762975D01*
X124382884Y-84728941D01*
X124382883Y-84728940D01*
X124382882Y-84728937D01*
X124376385Y-84721439D01*
X124362709Y-84702233D01*
X124360488Y-84698386D01*
X124354260Y-84692158D01*
X124333065Y-84670963D01*
X124327046Y-84664498D01*
X124298049Y-84631033D01*
X124298047Y-84631032D01*
X124298048Y-84631032D01*
X124295508Y-84629400D01*
X124283101Y-84619401D01*
X124283059Y-84619458D01*
X124276617Y-84614515D01*
X124276613Y-84614511D01*
X124261110Y-84605560D01*
X124242621Y-84594885D01*
X124194406Y-84544317D01*
X124181185Y-84475710D01*
X124207154Y-84410846D01*
X124242623Y-84380112D01*
X124276613Y-84360489D01*
X124276616Y-84360485D01*
X124283068Y-84355536D01*
X124283111Y-84355593D01*
X124295525Y-84345588D01*
X124298049Y-84343967D01*
X124327054Y-84310491D01*
X124333060Y-84304040D01*
X124360489Y-84276613D01*
X124362708Y-84272767D01*
X124376387Y-84253557D01*
X124382882Y-84246063D01*
X124398428Y-84212018D01*
X124403822Y-84201555D01*
X124419799Y-84173886D01*
X124422734Y-84162931D01*
X124429715Y-84143513D01*
X124436697Y-84128226D01*
X124441044Y-84097985D01*
X124444005Y-84083544D01*
X124450500Y-84059309D01*
X124450500Y-84041092D01*
X124451762Y-84023445D01*
X124455133Y-83999999D01*
X124451762Y-83976552D01*
X124450500Y-83958906D01*
X124450500Y-83940692D01*
X124450500Y-83940691D01*
X124444004Y-83916451D01*
X124441044Y-83902013D01*
X124436697Y-83871776D01*
X124436696Y-83871771D01*
X124433780Y-83865387D01*
X124429713Y-83856481D01*
X124422734Y-83837069D01*
X124419799Y-83826114D01*
X124403826Y-83798450D01*
X124398427Y-83787975D01*
X124382884Y-83753941D01*
X124382883Y-83753940D01*
X124382882Y-83753937D01*
X124376385Y-83746439D01*
X124362709Y-83727233D01*
X124360488Y-83723386D01*
X124350393Y-83713291D01*
X124333062Y-83695960D01*
X124327046Y-83689498D01*
X124327034Y-83689484D01*
X124298049Y-83656033D01*
X124298047Y-83656032D01*
X124298048Y-83656032D01*
X124295508Y-83654400D01*
X124283101Y-83644401D01*
X124283059Y-83644458D01*
X124276617Y-83639515D01*
X124276613Y-83639511D01*
X124259933Y-83629881D01*
X124237115Y-83616706D01*
X124232078Y-83613636D01*
X124189068Y-83585995D01*
X124187773Y-83585404D01*
X124178845Y-83582254D01*
X124173887Y-83580200D01*
X124123195Y-83566617D01*
X124120358Y-83565821D01*
X124064772Y-83549500D01*
X123935228Y-83549500D01*
X123879584Y-83565837D01*
X123876747Y-83566633D01*
X123826112Y-83580201D01*
X123821148Y-83582257D01*
X123812223Y-83585405D01*
X123810932Y-83585995D01*
X123767923Y-83613635D01*
X123762887Y-83616704D01*
X123723388Y-83639509D01*
X123716942Y-83644456D01*
X123716900Y-83644401D01*
X123704501Y-83654392D01*
X123701956Y-83656027D01*
X123701951Y-83656032D01*
X123672965Y-83689484D01*
X123666936Y-83695960D01*
X123639511Y-83723386D01*
X123637283Y-83727245D01*
X123623618Y-83746435D01*
X123617117Y-83753937D01*
X123601574Y-83787971D01*
X123596169Y-83798454D01*
X123580202Y-83826110D01*
X123577265Y-83837069D01*
X123570288Y-83856475D01*
X123561764Y-83875142D01*
X123516012Y-83927948D01*
X123448973Y-83947635D01*
X123381933Y-83927953D01*
X123361287Y-83911316D01*
X120486819Y-81036848D01*
X120453334Y-80975525D01*
X120450500Y-80949167D01*
X120450500Y-80112386D01*
X120470185Y-80045347D01*
X120480778Y-80031194D01*
X120532882Y-79971063D01*
X120586697Y-79853226D01*
X120605133Y-79725000D01*
X120602872Y-79709275D01*
X120612815Y-79640118D01*
X120658570Y-79587314D01*
X120725609Y-79567629D01*
X120792649Y-79587313D01*
X120813291Y-79603948D01*
X126368854Y-85159511D01*
X126424803Y-85215460D01*
X126424805Y-85215461D01*
X126424809Y-85215464D01*
X126480771Y-85247773D01*
X126493325Y-85255021D01*
X126569752Y-85275500D01*
X126648876Y-85275500D01*
X128357658Y-85275500D01*
X128424697Y-85295185D01*
X128451368Y-85318294D01*
X128451951Y-85318967D01*
X128454485Y-85320595D01*
X128466897Y-85330598D01*
X128466941Y-85330542D01*
X128473381Y-85335483D01*
X128473387Y-85335489D01*
X128512871Y-85358285D01*
X128512878Y-85358289D01*
X128517918Y-85361361D01*
X128560930Y-85389004D01*
X128562226Y-85389595D01*
X128571171Y-85392751D01*
X128576107Y-85394795D01*
X128576114Y-85394799D01*
X128624940Y-85407881D01*
X128626778Y-85408374D01*
X128629580Y-85409160D01*
X128685228Y-85425500D01*
X128814772Y-85425500D01*
X128870426Y-85409157D01*
X128873243Y-85408368D01*
X128923886Y-85394799D01*
X128923892Y-85394795D01*
X128928821Y-85392754D01*
X128937768Y-85389597D01*
X128939062Y-85389005D01*
X128939069Y-85389004D01*
X128982114Y-85361339D01*
X128987086Y-85358309D01*
X129026613Y-85335489D01*
X129026618Y-85335483D01*
X129033068Y-85330536D01*
X129033111Y-85330593D01*
X129045525Y-85320588D01*
X129048049Y-85318967D01*
X129048049Y-85318966D01*
X129055523Y-85314165D01*
X129057079Y-85316587D01*
X129107340Y-85293628D01*
X129176499Y-85303564D01*
X129194051Y-85314843D01*
X129194485Y-85314169D01*
X129201950Y-85318966D01*
X129201951Y-85318967D01*
X129204485Y-85320595D01*
X129216897Y-85330598D01*
X129216941Y-85330542D01*
X129223381Y-85335483D01*
X129223387Y-85335489D01*
X129262871Y-85358285D01*
X129262878Y-85358289D01*
X129267918Y-85361361D01*
X129310930Y-85389004D01*
X129312226Y-85389595D01*
X129321171Y-85392751D01*
X129326107Y-85394795D01*
X129326114Y-85394799D01*
X129374940Y-85407881D01*
X129376778Y-85408374D01*
X129379580Y-85409160D01*
X129435228Y-85425500D01*
X129564772Y-85425500D01*
X129620426Y-85409157D01*
X129623243Y-85408368D01*
X129673886Y-85394799D01*
X129673892Y-85394795D01*
X129678821Y-85392754D01*
X129687768Y-85389597D01*
X129689062Y-85389005D01*
X129689069Y-85389004D01*
X129732114Y-85361339D01*
X129737086Y-85358309D01*
X129776613Y-85335489D01*
X129776618Y-85335483D01*
X129783068Y-85330536D01*
X129783111Y-85330593D01*
X129795525Y-85320588D01*
X129798049Y-85318967D01*
X129827054Y-85285491D01*
X129833060Y-85279040D01*
X129860489Y-85251613D01*
X129862708Y-85247767D01*
X129876391Y-85228553D01*
X129882882Y-85221063D01*
X129898428Y-85187018D01*
X129903822Y-85176555D01*
X129919799Y-85148886D01*
X129922734Y-85137931D01*
X129929715Y-85118513D01*
X129936697Y-85103226D01*
X129941046Y-85072976D01*
X129944007Y-85058537D01*
X129946295Y-85050000D01*
X130450000Y-85050000D01*
X130450000Y-87550000D01*
X131950000Y-87550000D01*
X131950000Y-87100000D01*
X131950000Y-86724000D01*
X131969685Y-86656961D01*
X132022489Y-86611206D01*
X132074000Y-86600000D01*
X132250000Y-86600000D01*
X132250000Y-86000000D01*
X132074000Y-86000000D01*
X132006961Y-85980315D01*
X131961206Y-85927511D01*
X131950000Y-85876000D01*
X131950000Y-85050000D01*
X130450000Y-85050000D01*
X129946295Y-85050000D01*
X129950500Y-85034309D01*
X129950500Y-85016092D01*
X129951762Y-84998445D01*
X129955133Y-84974999D01*
X129951762Y-84951552D01*
X129950500Y-84933906D01*
X129950500Y-84915692D01*
X129950500Y-84915691D01*
X129944004Y-84891451D01*
X129941044Y-84877013D01*
X129936697Y-84846776D01*
X129936696Y-84846771D01*
X129933780Y-84840387D01*
X129929713Y-84831481D01*
X129922735Y-84812074D01*
X129919799Y-84801114D01*
X129903826Y-84773450D01*
X129898427Y-84762975D01*
X129882884Y-84728941D01*
X129882883Y-84728940D01*
X129882882Y-84728937D01*
X129876385Y-84721439D01*
X129862709Y-84702233D01*
X129860489Y-84698387D01*
X129860487Y-84698385D01*
X129860486Y-84698383D01*
X129836819Y-84674716D01*
X129803334Y-84613393D01*
X129800500Y-84587035D01*
X129800500Y-84581886D01*
X129800500Y-84581885D01*
X129780021Y-84505458D01*
X129756500Y-84464718D01*
X129740464Y-84436942D01*
X129740458Y-84436934D01*
X129583790Y-84280266D01*
X133773285Y-84280266D01*
X133932056Y-84335824D01*
X134099996Y-84354746D01*
X134100004Y-84354746D01*
X134267943Y-84335824D01*
X134426713Y-84280267D01*
X134426714Y-84280266D01*
X134100001Y-83953553D01*
X134100000Y-83953553D01*
X133773285Y-84280266D01*
X129583790Y-84280266D01*
X128903527Y-83600003D01*
X133345254Y-83600003D01*
X133364175Y-83767938D01*
X133364176Y-83767943D01*
X133419732Y-83926714D01*
X133706665Y-83639782D01*
X133900000Y-83639782D01*
X133930448Y-83713291D01*
X133986709Y-83769552D01*
X134060218Y-83800000D01*
X134139782Y-83800000D01*
X134213291Y-83769552D01*
X134269552Y-83713291D01*
X134300000Y-83639782D01*
X134300000Y-83600001D01*
X134453553Y-83600001D01*
X134780265Y-83926713D01*
X134822405Y-83917095D01*
X134877593Y-83917095D01*
X134919732Y-83926713D01*
X135206665Y-83639782D01*
X135400000Y-83639782D01*
X135430448Y-83713291D01*
X135486709Y-83769552D01*
X135560218Y-83800000D01*
X135639782Y-83800000D01*
X135713291Y-83769552D01*
X135769552Y-83713291D01*
X135800000Y-83639782D01*
X135800000Y-83560218D01*
X135769552Y-83486709D01*
X135713291Y-83430448D01*
X135639782Y-83400000D01*
X135560218Y-83400000D01*
X135486709Y-83430448D01*
X135430448Y-83486709D01*
X135400000Y-83560218D01*
X135400000Y-83639782D01*
X135206665Y-83639782D01*
X135246447Y-83600000D01*
X134919731Y-83273284D01*
X134877592Y-83282903D01*
X134822406Y-83282903D01*
X134780266Y-83273284D01*
X134453553Y-83599999D01*
X134453553Y-83600001D01*
X134300000Y-83600001D01*
X134300000Y-83560218D01*
X134269552Y-83486709D01*
X134213291Y-83430448D01*
X134139782Y-83400000D01*
X134060218Y-83400000D01*
X133986709Y-83430448D01*
X133930448Y-83486709D01*
X133900000Y-83560218D01*
X133900000Y-83639782D01*
X133706665Y-83639782D01*
X133746447Y-83600000D01*
X133419732Y-83273285D01*
X133364176Y-83432053D01*
X133364175Y-83432058D01*
X133345254Y-83599996D01*
X133345254Y-83600003D01*
X128903527Y-83600003D01*
X128313065Y-83009541D01*
X128313057Y-83009535D01*
X128244548Y-82969982D01*
X128244543Y-82969979D01*
X128219066Y-82963152D01*
X128168115Y-82949500D01*
X128168113Y-82949500D01*
X125625833Y-82949500D01*
X125558794Y-82929815D01*
X125546281Y-82919732D01*
X133773285Y-82919732D01*
X134100000Y-83246447D01*
X134100001Y-83246447D01*
X134426714Y-82919732D01*
X135273285Y-82919732D01*
X135600000Y-83246447D01*
X135600001Y-83246447D01*
X135926714Y-82919732D01*
X135767943Y-82864176D01*
X135767938Y-82864175D01*
X135600004Y-82845254D01*
X135599996Y-82845254D01*
X135432058Y-82864175D01*
X135432053Y-82864176D01*
X135273285Y-82919732D01*
X134426714Y-82919732D01*
X134267943Y-82864176D01*
X134267938Y-82864175D01*
X134100004Y-82845254D01*
X134099996Y-82845254D01*
X133932058Y-82864175D01*
X133932053Y-82864176D01*
X133773285Y-82919732D01*
X125546281Y-82919732D01*
X125538152Y-82913181D01*
X120834511Y-78209540D01*
X120824806Y-78203937D01*
X120791922Y-78184951D01*
X120765990Y-78169979D01*
X120740513Y-78163152D01*
X120689562Y-78149500D01*
X120689560Y-78149500D01*
X120542343Y-78149500D01*
X120475304Y-78129815D01*
X120448631Y-78106704D01*
X120448050Y-78106034D01*
X120448049Y-78106033D01*
X120339069Y-78035996D01*
X120339065Y-78035994D01*
X120339064Y-78035994D01*
X120214774Y-77999500D01*
X120214772Y-77999500D01*
X120085228Y-77999500D01*
X120085226Y-77999500D01*
X120076448Y-78000762D01*
X120075996Y-77997624D01*
X120021736Y-77997617D01*
X119962963Y-77959835D01*
X119933947Y-77896275D01*
X119943900Y-77827118D01*
X119969001Y-77790969D01*
X120088154Y-77671816D01*
X120149475Y-77638334D01*
X120175833Y-77635500D01*
X120214773Y-77635500D01*
X120214773Y-77635499D01*
X120339069Y-77599004D01*
X120448049Y-77528967D01*
X120532882Y-77431063D01*
X120586697Y-77313226D01*
X120605133Y-77185000D01*
X120586697Y-77056774D01*
X120532882Y-76938937D01*
X120448049Y-76841033D01*
X120339069Y-76770996D01*
X120339065Y-76770994D01*
X120339064Y-76770994D01*
X120214774Y-76734500D01*
X120214772Y-76734500D01*
X120085228Y-76734500D01*
X120085226Y-76734500D01*
X119960935Y-76770994D01*
X119960932Y-76770995D01*
X119960931Y-76770996D01*
X119909677Y-76803934D01*
X119851950Y-76841033D01*
X119767118Y-76938937D01*
X119767117Y-76938938D01*
X119713302Y-77056774D01*
X119695675Y-77179376D01*
X119666650Y-77242931D01*
X119660619Y-77249409D01*
X119415489Y-77494540D01*
X119359541Y-77550487D01*
X119359535Y-77550495D01*
X119319982Y-77619004D01*
X119319979Y-77619009D01*
X119314801Y-77638334D01*
X119299500Y-77695438D01*
X119299500Y-78717380D01*
X106550000Y-78717380D01*
X106550000Y-76251362D01*
X106569685Y-76184323D01*
X106586319Y-76163681D01*
X107813681Y-74936319D01*
X107875004Y-74902834D01*
X107901362Y-74900000D01*
X119798638Y-74900000D01*
X119865677Y-74919685D01*
G37*
%TD.AperFunction*%
%TD*%
%TA.AperFunction,NonConductor*%
G36*
X128019759Y-83570185D02*
G01*
X128040401Y-83586819D01*
X128766401Y-84312819D01*
X128799886Y-84374142D01*
X128794902Y-84443834D01*
X128753030Y-84499767D01*
X128693807Y-84521856D01*
X128694006Y-84523238D01*
X128687653Y-84524151D01*
X128687566Y-84524184D01*
X128687379Y-84524190D01*
X128685227Y-84524500D01*
X128629584Y-84540837D01*
X128626747Y-84541633D01*
X128576112Y-84555201D01*
X128571148Y-84557257D01*
X128562223Y-84560405D01*
X128560932Y-84560995D01*
X128535658Y-84577237D01*
X128520413Y-84587035D01*
X128517923Y-84588635D01*
X128512887Y-84591704D01*
X128473388Y-84614509D01*
X128466942Y-84619456D01*
X128466900Y-84619401D01*
X128454501Y-84629392D01*
X128451956Y-84631027D01*
X128451950Y-84631033D01*
X128451369Y-84631704D01*
X128450622Y-84632183D01*
X128445249Y-84636840D01*
X128444579Y-84636067D01*
X128392591Y-84669477D01*
X128357657Y-84674500D01*
X126785147Y-84674500D01*
X126718108Y-84654815D01*
X126697466Y-84638181D01*
X125821466Y-83762181D01*
X125787981Y-83700858D01*
X125792965Y-83631166D01*
X125834837Y-83575233D01*
X125900301Y-83550816D01*
X125909147Y-83550500D01*
X127952720Y-83550500D01*
X128019759Y-83570185D01*
G37*
%TD.AperFunction*%
M02*
