%TF.GenerationSoftware,KiCad,Pcbnew,7.0.10-7.0.10~ubuntu22.04.1*%
%TF.CreationDate,2024-01-14T22:11:58+10:00*%
%TF.ProjectId,MXBreakout,4d584272-6561-46b6-9f75-742e6b696361,rev?*%
%TF.SameCoordinates,Original*%
%TF.FileFunction,Drillmap*%
%TF.FilePolarity,Positive*%
%FSLAX45Y45*%
G04 Gerber Fmt 4.5, Leading zero omitted, Abs format (unit mm)*
G04 Created by KiCad (PCBNEW 7.0.10-7.0.10~ubuntu22.04.1) date 2024-01-14 22:11:58*
%MOMM*%
%LPD*%
G01*
G04 APERTURE LIST*
%ADD10C,0.100000*%
%ADD11C,0.200000*%
G04 APERTURE END LIST*
D10*
X11500104Y-8020104D02*
X11500104Y-9749896D01*
X14204896Y-7935104D02*
X11585104Y-7935104D01*
X14290000Y-9750000D02*
X14289896Y-8020104D01*
X11585104Y-9834896D02*
X14205000Y-9835000D01*
X11500104Y-9749896D02*
G75*
G03*
X11585104Y-9834896I85000J0D01*
G01*
X11585104Y-7935104D02*
G75*
G03*
X11500104Y-8020104I0J-85000D01*
G01*
X14289896Y-8020104D02*
G75*
G03*
X14204896Y-7935104I-85000J0D01*
G01*
X14205000Y-9835000D02*
G75*
G03*
X14290000Y-9750000I0J85000D01*
G01*
D11*
D10*
X11620071Y-8150548D02*
X11660071Y-8190548D01*
X11660071Y-8150548D02*
X11620071Y-8190548D01*
X11620071Y-8404548D02*
X11660071Y-8444548D01*
X11660071Y-8404548D02*
X11620071Y-8444548D01*
X11620071Y-9166548D02*
X11660071Y-9206548D01*
X11660071Y-9166548D02*
X11620071Y-9206548D01*
X12128071Y-8150548D02*
X12168071Y-8190548D01*
X12168071Y-8150548D02*
X12128071Y-8190548D01*
X12128071Y-8404548D02*
X12168071Y-8444548D01*
X12168071Y-8404548D02*
X12128071Y-8444548D01*
X12128071Y-8658548D02*
X12168071Y-8698548D01*
X12168071Y-8658548D02*
X12128071Y-8698548D01*
X12128071Y-8912548D02*
X12168071Y-8952548D01*
X12168071Y-8912548D02*
X12128071Y-8952548D01*
X12128071Y-9166548D02*
X12168071Y-9206548D01*
X12168071Y-9166548D02*
X12128071Y-9206548D01*
X12128071Y-9420548D02*
X12168071Y-9460548D01*
X12168071Y-9420548D02*
X12128071Y-9460548D01*
X12128071Y-9674548D02*
X12168071Y-9714548D01*
X12168071Y-9674548D02*
X12128071Y-9714548D01*
X12382071Y-8150548D02*
X12422071Y-8190548D01*
X12422071Y-8150548D02*
X12382071Y-8190548D01*
X12382071Y-8404548D02*
X12422071Y-8444548D01*
X12422071Y-8404548D02*
X12382071Y-8444548D01*
X12382071Y-8658548D02*
X12422071Y-8698548D01*
X12422071Y-8658548D02*
X12382071Y-8698548D01*
X12382071Y-8912548D02*
X12422071Y-8952548D01*
X12422071Y-8912548D02*
X12382071Y-8952548D01*
X12382071Y-9166548D02*
X12422071Y-9206548D01*
X12422071Y-9166548D02*
X12382071Y-9206548D01*
X12382071Y-9420548D02*
X12422071Y-9460548D01*
X12422071Y-9420548D02*
X12382071Y-9460548D01*
X12382071Y-9674548D02*
X12422071Y-9714548D01*
X12422071Y-9674548D02*
X12382071Y-9714548D01*
X13144071Y-8150548D02*
X13184071Y-8190548D01*
X13184071Y-8150548D02*
X13144071Y-8190548D01*
X13144071Y-9166548D02*
X13184071Y-9206548D01*
X13184071Y-9166548D02*
X13144071Y-9206548D01*
X13144071Y-9674548D02*
X13184071Y-9714548D01*
X13184071Y-9674548D02*
X13144071Y-9714548D01*
X13398071Y-8150548D02*
X13438071Y-8190548D01*
X13438071Y-8150548D02*
X13398071Y-8190548D01*
X13398071Y-8658548D02*
X13438071Y-8698548D01*
X13438071Y-8658548D02*
X13398071Y-8698548D01*
X13398071Y-8912548D02*
X13438071Y-8952548D01*
X13438071Y-8912548D02*
X13398071Y-8952548D01*
X13398071Y-9674548D02*
X13438071Y-9714548D01*
X13438071Y-9674548D02*
X13398071Y-9714548D01*
X13652071Y-8150548D02*
X13692071Y-8190548D01*
X13692071Y-8150548D02*
X13652071Y-8190548D01*
X13652071Y-8404548D02*
X13692071Y-8444548D01*
X13692071Y-8404548D02*
X13652071Y-8444548D01*
X13652071Y-9166548D02*
X13692071Y-9206548D01*
X13692071Y-9166548D02*
X13652071Y-9206548D01*
X13652071Y-9420548D02*
X13692071Y-9460548D01*
X13692071Y-9420548D02*
X13652071Y-9460548D01*
X13652071Y-9674548D02*
X13692071Y-9714548D01*
X13692071Y-9674548D02*
X13652071Y-9714548D01*
X13906071Y-8150548D02*
X13946071Y-8190548D01*
X13946071Y-8150548D02*
X13906071Y-8190548D01*
X13906071Y-9166548D02*
X13946071Y-9206548D01*
X13946071Y-9166548D02*
X13906071Y-9206548D01*
X13906071Y-9674548D02*
X13946071Y-9714548D01*
X13946071Y-9674548D02*
X13906071Y-9714548D01*
X14160071Y-8150548D02*
X14200071Y-8190548D01*
X14200071Y-8150548D02*
X14160071Y-8190548D01*
X14160071Y-8404548D02*
X14200071Y-8444548D01*
X14200071Y-8404548D02*
X14160071Y-8444548D01*
X14160071Y-9166548D02*
X14200071Y-9206548D01*
X14200071Y-9166548D02*
X14160071Y-9206548D01*
X14160071Y-9420548D02*
X14200071Y-9460548D01*
X14200071Y-9420548D02*
X14160071Y-9460548D01*
X14160071Y-9674548D02*
X14200071Y-9714548D01*
X14200071Y-9674548D02*
X14160071Y-9714548D01*
X14055000Y-8885000D02*
G75*
G03*
X14005000Y-8885000I-25000J0D01*
G01*
X14005000Y-8885000D02*
G75*
G03*
X14055000Y-8885000I25000J0D01*
G01*
D11*
X11755881Y-10151484D02*
X11755881Y-9951484D01*
X11755881Y-9951484D02*
X11803500Y-9951484D01*
X11803500Y-9951484D02*
X11832071Y-9961008D01*
X11832071Y-9961008D02*
X11851119Y-9980055D01*
X11851119Y-9980055D02*
X11860643Y-9999103D01*
X11860643Y-9999103D02*
X11870167Y-10037198D01*
X11870167Y-10037198D02*
X11870167Y-10065770D01*
X11870167Y-10065770D02*
X11860643Y-10103865D01*
X11860643Y-10103865D02*
X11851119Y-10122912D01*
X11851119Y-10122912D02*
X11832071Y-10141960D01*
X11832071Y-10141960D02*
X11803500Y-10151484D01*
X11803500Y-10151484D02*
X11755881Y-10151484D01*
X11955881Y-10151484D02*
X11955881Y-10018150D01*
X11955881Y-10056246D02*
X11965405Y-10037198D01*
X11965405Y-10037198D02*
X11974928Y-10027674D01*
X11974928Y-10027674D02*
X11993976Y-10018150D01*
X11993976Y-10018150D02*
X12013024Y-10018150D01*
X12079690Y-10151484D02*
X12079690Y-10018150D01*
X12079690Y-9951484D02*
X12070167Y-9961008D01*
X12070167Y-9961008D02*
X12079690Y-9970531D01*
X12079690Y-9970531D02*
X12089214Y-9961008D01*
X12089214Y-9961008D02*
X12079690Y-9951484D01*
X12079690Y-9951484D02*
X12079690Y-9970531D01*
X12203500Y-10151484D02*
X12184452Y-10141960D01*
X12184452Y-10141960D02*
X12174928Y-10122912D01*
X12174928Y-10122912D02*
X12174928Y-9951484D01*
X12308262Y-10151484D02*
X12289214Y-10141960D01*
X12289214Y-10141960D02*
X12279690Y-10122912D01*
X12279690Y-10122912D02*
X12279690Y-9951484D01*
X12536833Y-10151484D02*
X12536833Y-9951484D01*
X12536833Y-9951484D02*
X12603500Y-10094341D01*
X12603500Y-10094341D02*
X12670167Y-9951484D01*
X12670167Y-9951484D02*
X12670167Y-10151484D01*
X12851119Y-10151484D02*
X12851119Y-10046722D01*
X12851119Y-10046722D02*
X12841595Y-10027674D01*
X12841595Y-10027674D02*
X12822548Y-10018150D01*
X12822548Y-10018150D02*
X12784452Y-10018150D01*
X12784452Y-10018150D02*
X12765405Y-10027674D01*
X12851119Y-10141960D02*
X12832071Y-10151484D01*
X12832071Y-10151484D02*
X12784452Y-10151484D01*
X12784452Y-10151484D02*
X12765405Y-10141960D01*
X12765405Y-10141960D02*
X12755881Y-10122912D01*
X12755881Y-10122912D02*
X12755881Y-10103865D01*
X12755881Y-10103865D02*
X12765405Y-10084817D01*
X12765405Y-10084817D02*
X12784452Y-10075293D01*
X12784452Y-10075293D02*
X12832071Y-10075293D01*
X12832071Y-10075293D02*
X12851119Y-10065770D01*
X12946357Y-10018150D02*
X12946357Y-10218150D01*
X12946357Y-10027674D02*
X12965405Y-10018150D01*
X12965405Y-10018150D02*
X13003500Y-10018150D01*
X13003500Y-10018150D02*
X13022548Y-10027674D01*
X13022548Y-10027674D02*
X13032071Y-10037198D01*
X13032071Y-10037198D02*
X13041595Y-10056246D01*
X13041595Y-10056246D02*
X13041595Y-10113389D01*
X13041595Y-10113389D02*
X13032071Y-10132436D01*
X13032071Y-10132436D02*
X13022548Y-10141960D01*
X13022548Y-10141960D02*
X13003500Y-10151484D01*
X13003500Y-10151484D02*
X12965405Y-10151484D01*
X12965405Y-10151484D02*
X12946357Y-10141960D01*
X13127309Y-10132436D02*
X13136833Y-10141960D01*
X13136833Y-10141960D02*
X13127309Y-10151484D01*
X13127309Y-10151484D02*
X13117786Y-10141960D01*
X13117786Y-10141960D02*
X13127309Y-10132436D01*
X13127309Y-10132436D02*
X13127309Y-10151484D01*
X13127309Y-10027674D02*
X13136833Y-10037198D01*
X13136833Y-10037198D02*
X13127309Y-10046722D01*
X13127309Y-10046722D02*
X13117786Y-10037198D01*
X13117786Y-10037198D02*
X13127309Y-10027674D01*
X13127309Y-10027674D02*
X13127309Y-10046722D01*
D10*
X11455104Y-10460000D02*
X11495104Y-10500000D01*
X11495104Y-10460000D02*
X11455104Y-10500000D01*
D11*
X11793976Y-10371484D02*
X11813024Y-10371484D01*
X11813024Y-10371484D02*
X11832071Y-10381008D01*
X11832071Y-10381008D02*
X11841595Y-10390531D01*
X11841595Y-10390531D02*
X11851119Y-10409579D01*
X11851119Y-10409579D02*
X11860643Y-10447674D01*
X11860643Y-10447674D02*
X11860643Y-10495293D01*
X11860643Y-10495293D02*
X11851119Y-10533389D01*
X11851119Y-10533389D02*
X11841595Y-10552436D01*
X11841595Y-10552436D02*
X11832071Y-10561960D01*
X11832071Y-10561960D02*
X11813024Y-10571484D01*
X11813024Y-10571484D02*
X11793976Y-10571484D01*
X11793976Y-10571484D02*
X11774928Y-10561960D01*
X11774928Y-10561960D02*
X11765405Y-10552436D01*
X11765405Y-10552436D02*
X11755881Y-10533389D01*
X11755881Y-10533389D02*
X11746357Y-10495293D01*
X11746357Y-10495293D02*
X11746357Y-10447674D01*
X11746357Y-10447674D02*
X11755881Y-10409579D01*
X11755881Y-10409579D02*
X11765405Y-10390531D01*
X11765405Y-10390531D02*
X11774928Y-10381008D01*
X11774928Y-10381008D02*
X11793976Y-10371484D01*
X11946357Y-10552436D02*
X11955881Y-10561960D01*
X11955881Y-10561960D02*
X11946357Y-10571484D01*
X11946357Y-10571484D02*
X11936833Y-10561960D01*
X11936833Y-10561960D02*
X11946357Y-10552436D01*
X11946357Y-10552436D02*
X11946357Y-10571484D01*
X12127309Y-10438150D02*
X12127309Y-10571484D01*
X12079690Y-10361960D02*
X12032071Y-10504817D01*
X12032071Y-10504817D02*
X12155881Y-10504817D01*
X12270167Y-10371484D02*
X12289214Y-10371484D01*
X12289214Y-10371484D02*
X12308262Y-10381008D01*
X12308262Y-10381008D02*
X12317786Y-10390531D01*
X12317786Y-10390531D02*
X12327309Y-10409579D01*
X12327309Y-10409579D02*
X12336833Y-10447674D01*
X12336833Y-10447674D02*
X12336833Y-10495293D01*
X12336833Y-10495293D02*
X12327309Y-10533389D01*
X12327309Y-10533389D02*
X12317786Y-10552436D01*
X12317786Y-10552436D02*
X12308262Y-10561960D01*
X12308262Y-10561960D02*
X12289214Y-10571484D01*
X12289214Y-10571484D02*
X12270167Y-10571484D01*
X12270167Y-10571484D02*
X12251119Y-10561960D01*
X12251119Y-10561960D02*
X12241595Y-10552436D01*
X12241595Y-10552436D02*
X12232071Y-10533389D01*
X12232071Y-10533389D02*
X12222548Y-10495293D01*
X12222548Y-10495293D02*
X12222548Y-10447674D01*
X12222548Y-10447674D02*
X12232071Y-10409579D01*
X12232071Y-10409579D02*
X12241595Y-10390531D01*
X12241595Y-10390531D02*
X12251119Y-10381008D01*
X12251119Y-10381008D02*
X12270167Y-10371484D01*
X12460643Y-10371484D02*
X12479690Y-10371484D01*
X12479690Y-10371484D02*
X12498738Y-10381008D01*
X12498738Y-10381008D02*
X12508262Y-10390531D01*
X12508262Y-10390531D02*
X12517786Y-10409579D01*
X12517786Y-10409579D02*
X12527309Y-10447674D01*
X12527309Y-10447674D02*
X12527309Y-10495293D01*
X12527309Y-10495293D02*
X12517786Y-10533389D01*
X12517786Y-10533389D02*
X12508262Y-10552436D01*
X12508262Y-10552436D02*
X12498738Y-10561960D01*
X12498738Y-10561960D02*
X12479690Y-10571484D01*
X12479690Y-10571484D02*
X12460643Y-10571484D01*
X12460643Y-10571484D02*
X12441595Y-10561960D01*
X12441595Y-10561960D02*
X12432071Y-10552436D01*
X12432071Y-10552436D02*
X12422548Y-10533389D01*
X12422548Y-10533389D02*
X12413024Y-10495293D01*
X12413024Y-10495293D02*
X12413024Y-10447674D01*
X12413024Y-10447674D02*
X12422548Y-10409579D01*
X12422548Y-10409579D02*
X12432071Y-10390531D01*
X12432071Y-10390531D02*
X12441595Y-10381008D01*
X12441595Y-10381008D02*
X12460643Y-10371484D01*
X12613024Y-10571484D02*
X12613024Y-10438150D01*
X12613024Y-10457198D02*
X12622548Y-10447674D01*
X12622548Y-10447674D02*
X12641595Y-10438150D01*
X12641595Y-10438150D02*
X12670167Y-10438150D01*
X12670167Y-10438150D02*
X12689214Y-10447674D01*
X12689214Y-10447674D02*
X12698738Y-10466722D01*
X12698738Y-10466722D02*
X12698738Y-10571484D01*
X12698738Y-10466722D02*
X12708262Y-10447674D01*
X12708262Y-10447674D02*
X12727309Y-10438150D01*
X12727309Y-10438150D02*
X12755881Y-10438150D01*
X12755881Y-10438150D02*
X12774929Y-10447674D01*
X12774929Y-10447674D02*
X12784452Y-10466722D01*
X12784452Y-10466722D02*
X12784452Y-10571484D01*
X12879690Y-10571484D02*
X12879690Y-10438150D01*
X12879690Y-10457198D02*
X12889214Y-10447674D01*
X12889214Y-10447674D02*
X12908262Y-10438150D01*
X12908262Y-10438150D02*
X12936833Y-10438150D01*
X12936833Y-10438150D02*
X12955881Y-10447674D01*
X12955881Y-10447674D02*
X12965405Y-10466722D01*
X12965405Y-10466722D02*
X12965405Y-10571484D01*
X12965405Y-10466722D02*
X12974929Y-10447674D01*
X12974929Y-10447674D02*
X12993976Y-10438150D01*
X12993976Y-10438150D02*
X13022548Y-10438150D01*
X13022548Y-10438150D02*
X13041595Y-10447674D01*
X13041595Y-10447674D02*
X13051119Y-10466722D01*
X13051119Y-10466722D02*
X13051119Y-10571484D01*
X13441595Y-10361960D02*
X13270167Y-10619103D01*
X13698738Y-10371484D02*
X13717786Y-10371484D01*
X13717786Y-10371484D02*
X13736833Y-10381008D01*
X13736833Y-10381008D02*
X13746357Y-10390531D01*
X13746357Y-10390531D02*
X13755881Y-10409579D01*
X13755881Y-10409579D02*
X13765405Y-10447674D01*
X13765405Y-10447674D02*
X13765405Y-10495293D01*
X13765405Y-10495293D02*
X13755881Y-10533389D01*
X13755881Y-10533389D02*
X13746357Y-10552436D01*
X13746357Y-10552436D02*
X13736833Y-10561960D01*
X13736833Y-10561960D02*
X13717786Y-10571484D01*
X13717786Y-10571484D02*
X13698738Y-10571484D01*
X13698738Y-10571484D02*
X13679691Y-10561960D01*
X13679691Y-10561960D02*
X13670167Y-10552436D01*
X13670167Y-10552436D02*
X13660643Y-10533389D01*
X13660643Y-10533389D02*
X13651119Y-10495293D01*
X13651119Y-10495293D02*
X13651119Y-10447674D01*
X13651119Y-10447674D02*
X13660643Y-10409579D01*
X13660643Y-10409579D02*
X13670167Y-10390531D01*
X13670167Y-10390531D02*
X13679691Y-10381008D01*
X13679691Y-10381008D02*
X13698738Y-10371484D01*
X13851119Y-10552436D02*
X13860643Y-10561960D01*
X13860643Y-10561960D02*
X13851119Y-10571484D01*
X13851119Y-10571484D02*
X13841595Y-10561960D01*
X13841595Y-10561960D02*
X13851119Y-10552436D01*
X13851119Y-10552436D02*
X13851119Y-10571484D01*
X13984452Y-10371484D02*
X14003500Y-10371484D01*
X14003500Y-10371484D02*
X14022548Y-10381008D01*
X14022548Y-10381008D02*
X14032072Y-10390531D01*
X14032072Y-10390531D02*
X14041595Y-10409579D01*
X14041595Y-10409579D02*
X14051119Y-10447674D01*
X14051119Y-10447674D02*
X14051119Y-10495293D01*
X14051119Y-10495293D02*
X14041595Y-10533389D01*
X14041595Y-10533389D02*
X14032072Y-10552436D01*
X14032072Y-10552436D02*
X14022548Y-10561960D01*
X14022548Y-10561960D02*
X14003500Y-10571484D01*
X14003500Y-10571484D02*
X13984452Y-10571484D01*
X13984452Y-10571484D02*
X13965405Y-10561960D01*
X13965405Y-10561960D02*
X13955881Y-10552436D01*
X13955881Y-10552436D02*
X13946357Y-10533389D01*
X13946357Y-10533389D02*
X13936833Y-10495293D01*
X13936833Y-10495293D02*
X13936833Y-10447674D01*
X13936833Y-10447674D02*
X13946357Y-10409579D01*
X13946357Y-10409579D02*
X13955881Y-10390531D01*
X13955881Y-10390531D02*
X13965405Y-10381008D01*
X13965405Y-10381008D02*
X13984452Y-10371484D01*
X14241595Y-10571484D02*
X14127310Y-10571484D01*
X14184452Y-10571484D02*
X14184452Y-10371484D01*
X14184452Y-10371484D02*
X14165405Y-10400055D01*
X14165405Y-10400055D02*
X14146357Y-10419103D01*
X14146357Y-10419103D02*
X14127310Y-10428627D01*
X14422548Y-10371484D02*
X14327310Y-10371484D01*
X14327310Y-10371484D02*
X14317786Y-10466722D01*
X14317786Y-10466722D02*
X14327310Y-10457198D01*
X14327310Y-10457198D02*
X14346357Y-10447674D01*
X14346357Y-10447674D02*
X14393976Y-10447674D01*
X14393976Y-10447674D02*
X14413024Y-10457198D01*
X14413024Y-10457198D02*
X14422548Y-10466722D01*
X14422548Y-10466722D02*
X14432072Y-10485770D01*
X14432072Y-10485770D02*
X14432072Y-10533389D01*
X14432072Y-10533389D02*
X14422548Y-10552436D01*
X14422548Y-10552436D02*
X14413024Y-10561960D01*
X14413024Y-10561960D02*
X14393976Y-10571484D01*
X14393976Y-10571484D02*
X14346357Y-10571484D01*
X14346357Y-10571484D02*
X14327310Y-10561960D01*
X14327310Y-10561960D02*
X14317786Y-10552436D01*
X14498738Y-10371484D02*
X14632072Y-10371484D01*
X14632072Y-10371484D02*
X14546357Y-10571484D01*
X14698738Y-10371484D02*
X14698738Y-10409579D01*
X14774929Y-10371484D02*
X14774929Y-10409579D01*
X15070167Y-10647674D02*
X15060643Y-10638150D01*
X15060643Y-10638150D02*
X15041595Y-10609579D01*
X15041595Y-10609579D02*
X15032072Y-10590531D01*
X15032072Y-10590531D02*
X15022548Y-10561960D01*
X15022548Y-10561960D02*
X15013024Y-10514341D01*
X15013024Y-10514341D02*
X15013024Y-10476246D01*
X15013024Y-10476246D02*
X15022548Y-10428627D01*
X15022548Y-10428627D02*
X15032072Y-10400055D01*
X15032072Y-10400055D02*
X15041595Y-10381008D01*
X15041595Y-10381008D02*
X15060643Y-10352436D01*
X15060643Y-10352436D02*
X15070167Y-10342912D01*
X15127310Y-10371484D02*
X15251119Y-10371484D01*
X15251119Y-10371484D02*
X15184453Y-10447674D01*
X15184453Y-10447674D02*
X15213024Y-10447674D01*
X15213024Y-10447674D02*
X15232072Y-10457198D01*
X15232072Y-10457198D02*
X15241595Y-10466722D01*
X15241595Y-10466722D02*
X15251119Y-10485770D01*
X15251119Y-10485770D02*
X15251119Y-10533389D01*
X15251119Y-10533389D02*
X15241595Y-10552436D01*
X15241595Y-10552436D02*
X15232072Y-10561960D01*
X15232072Y-10561960D02*
X15213024Y-10571484D01*
X15213024Y-10571484D02*
X15155881Y-10571484D01*
X15155881Y-10571484D02*
X15136834Y-10561960D01*
X15136834Y-10561960D02*
X15127310Y-10552436D01*
X15317786Y-10371484D02*
X15451119Y-10371484D01*
X15451119Y-10371484D02*
X15365405Y-10571484D01*
X15679691Y-10571484D02*
X15679691Y-10371484D01*
X15765405Y-10571484D02*
X15765405Y-10466722D01*
X15765405Y-10466722D02*
X15755881Y-10447674D01*
X15755881Y-10447674D02*
X15736834Y-10438150D01*
X15736834Y-10438150D02*
X15708262Y-10438150D01*
X15708262Y-10438150D02*
X15689215Y-10447674D01*
X15689215Y-10447674D02*
X15679691Y-10457198D01*
X15889215Y-10571484D02*
X15870167Y-10561960D01*
X15870167Y-10561960D02*
X15860643Y-10552436D01*
X15860643Y-10552436D02*
X15851119Y-10533389D01*
X15851119Y-10533389D02*
X15851119Y-10476246D01*
X15851119Y-10476246D02*
X15860643Y-10457198D01*
X15860643Y-10457198D02*
X15870167Y-10447674D01*
X15870167Y-10447674D02*
X15889215Y-10438150D01*
X15889215Y-10438150D02*
X15917786Y-10438150D01*
X15917786Y-10438150D02*
X15936834Y-10447674D01*
X15936834Y-10447674D02*
X15946357Y-10457198D01*
X15946357Y-10457198D02*
X15955881Y-10476246D01*
X15955881Y-10476246D02*
X15955881Y-10533389D01*
X15955881Y-10533389D02*
X15946357Y-10552436D01*
X15946357Y-10552436D02*
X15936834Y-10561960D01*
X15936834Y-10561960D02*
X15917786Y-10571484D01*
X15917786Y-10571484D02*
X15889215Y-10571484D01*
X16070167Y-10571484D02*
X16051119Y-10561960D01*
X16051119Y-10561960D02*
X16041596Y-10542912D01*
X16041596Y-10542912D02*
X16041596Y-10371484D01*
X16222548Y-10561960D02*
X16203500Y-10571484D01*
X16203500Y-10571484D02*
X16165405Y-10571484D01*
X16165405Y-10571484D02*
X16146357Y-10561960D01*
X16146357Y-10561960D02*
X16136834Y-10542912D01*
X16136834Y-10542912D02*
X16136834Y-10466722D01*
X16136834Y-10466722D02*
X16146357Y-10447674D01*
X16146357Y-10447674D02*
X16165405Y-10438150D01*
X16165405Y-10438150D02*
X16203500Y-10438150D01*
X16203500Y-10438150D02*
X16222548Y-10447674D01*
X16222548Y-10447674D02*
X16232072Y-10466722D01*
X16232072Y-10466722D02*
X16232072Y-10485770D01*
X16232072Y-10485770D02*
X16136834Y-10504817D01*
X16308262Y-10561960D02*
X16327310Y-10571484D01*
X16327310Y-10571484D02*
X16365405Y-10571484D01*
X16365405Y-10571484D02*
X16384453Y-10561960D01*
X16384453Y-10561960D02*
X16393977Y-10542912D01*
X16393977Y-10542912D02*
X16393977Y-10533389D01*
X16393977Y-10533389D02*
X16384453Y-10514341D01*
X16384453Y-10514341D02*
X16365405Y-10504817D01*
X16365405Y-10504817D02*
X16336834Y-10504817D01*
X16336834Y-10504817D02*
X16317786Y-10495293D01*
X16317786Y-10495293D02*
X16308262Y-10476246D01*
X16308262Y-10476246D02*
X16308262Y-10466722D01*
X16308262Y-10466722D02*
X16317786Y-10447674D01*
X16317786Y-10447674D02*
X16336834Y-10438150D01*
X16336834Y-10438150D02*
X16365405Y-10438150D01*
X16365405Y-10438150D02*
X16384453Y-10447674D01*
X16460643Y-10647674D02*
X16470167Y-10638150D01*
X16470167Y-10638150D02*
X16489215Y-10609579D01*
X16489215Y-10609579D02*
X16498738Y-10590531D01*
X16498738Y-10590531D02*
X16508262Y-10561960D01*
X16508262Y-10561960D02*
X16517786Y-10514341D01*
X16517786Y-10514341D02*
X16517786Y-10476246D01*
X16517786Y-10476246D02*
X16508262Y-10428627D01*
X16508262Y-10428627D02*
X16498738Y-10400055D01*
X16498738Y-10400055D02*
X16489215Y-10381008D01*
X16489215Y-10381008D02*
X16470167Y-10352436D01*
X16470167Y-10352436D02*
X16460643Y-10342912D01*
D10*
X11495104Y-10744000D02*
G75*
G03*
X11445104Y-10744000I-25000J0D01*
G01*
X11445104Y-10744000D02*
G75*
G03*
X11495104Y-10744000I25000J0D01*
G01*
D11*
X11793976Y-10635484D02*
X11813024Y-10635484D01*
X11813024Y-10635484D02*
X11832071Y-10645008D01*
X11832071Y-10645008D02*
X11841595Y-10654531D01*
X11841595Y-10654531D02*
X11851119Y-10673579D01*
X11851119Y-10673579D02*
X11860643Y-10711674D01*
X11860643Y-10711674D02*
X11860643Y-10759293D01*
X11860643Y-10759293D02*
X11851119Y-10797389D01*
X11851119Y-10797389D02*
X11841595Y-10816436D01*
X11841595Y-10816436D02*
X11832071Y-10825960D01*
X11832071Y-10825960D02*
X11813024Y-10835484D01*
X11813024Y-10835484D02*
X11793976Y-10835484D01*
X11793976Y-10835484D02*
X11774928Y-10825960D01*
X11774928Y-10825960D02*
X11765405Y-10816436D01*
X11765405Y-10816436D02*
X11755881Y-10797389D01*
X11755881Y-10797389D02*
X11746357Y-10759293D01*
X11746357Y-10759293D02*
X11746357Y-10711674D01*
X11746357Y-10711674D02*
X11755881Y-10673579D01*
X11755881Y-10673579D02*
X11765405Y-10654531D01*
X11765405Y-10654531D02*
X11774928Y-10645008D01*
X11774928Y-10645008D02*
X11793976Y-10635484D01*
X11946357Y-10816436D02*
X11955881Y-10825960D01*
X11955881Y-10825960D02*
X11946357Y-10835484D01*
X11946357Y-10835484D02*
X11936833Y-10825960D01*
X11936833Y-10825960D02*
X11946357Y-10816436D01*
X11946357Y-10816436D02*
X11946357Y-10835484D01*
X12136833Y-10635484D02*
X12041595Y-10635484D01*
X12041595Y-10635484D02*
X12032071Y-10730722D01*
X12032071Y-10730722D02*
X12041595Y-10721198D01*
X12041595Y-10721198D02*
X12060643Y-10711674D01*
X12060643Y-10711674D02*
X12108262Y-10711674D01*
X12108262Y-10711674D02*
X12127309Y-10721198D01*
X12127309Y-10721198D02*
X12136833Y-10730722D01*
X12136833Y-10730722D02*
X12146357Y-10749770D01*
X12146357Y-10749770D02*
X12146357Y-10797389D01*
X12146357Y-10797389D02*
X12136833Y-10816436D01*
X12136833Y-10816436D02*
X12127309Y-10825960D01*
X12127309Y-10825960D02*
X12108262Y-10835484D01*
X12108262Y-10835484D02*
X12060643Y-10835484D01*
X12060643Y-10835484D02*
X12041595Y-10825960D01*
X12041595Y-10825960D02*
X12032071Y-10816436D01*
X12270167Y-10635484D02*
X12289214Y-10635484D01*
X12289214Y-10635484D02*
X12308262Y-10645008D01*
X12308262Y-10645008D02*
X12317786Y-10654531D01*
X12317786Y-10654531D02*
X12327309Y-10673579D01*
X12327309Y-10673579D02*
X12336833Y-10711674D01*
X12336833Y-10711674D02*
X12336833Y-10759293D01*
X12336833Y-10759293D02*
X12327309Y-10797389D01*
X12327309Y-10797389D02*
X12317786Y-10816436D01*
X12317786Y-10816436D02*
X12308262Y-10825960D01*
X12308262Y-10825960D02*
X12289214Y-10835484D01*
X12289214Y-10835484D02*
X12270167Y-10835484D01*
X12270167Y-10835484D02*
X12251119Y-10825960D01*
X12251119Y-10825960D02*
X12241595Y-10816436D01*
X12241595Y-10816436D02*
X12232071Y-10797389D01*
X12232071Y-10797389D02*
X12222548Y-10759293D01*
X12222548Y-10759293D02*
X12222548Y-10711674D01*
X12222548Y-10711674D02*
X12232071Y-10673579D01*
X12232071Y-10673579D02*
X12241595Y-10654531D01*
X12241595Y-10654531D02*
X12251119Y-10645008D01*
X12251119Y-10645008D02*
X12270167Y-10635484D01*
X12460643Y-10635484D02*
X12479690Y-10635484D01*
X12479690Y-10635484D02*
X12498738Y-10645008D01*
X12498738Y-10645008D02*
X12508262Y-10654531D01*
X12508262Y-10654531D02*
X12517786Y-10673579D01*
X12517786Y-10673579D02*
X12527309Y-10711674D01*
X12527309Y-10711674D02*
X12527309Y-10759293D01*
X12527309Y-10759293D02*
X12517786Y-10797389D01*
X12517786Y-10797389D02*
X12508262Y-10816436D01*
X12508262Y-10816436D02*
X12498738Y-10825960D01*
X12498738Y-10825960D02*
X12479690Y-10835484D01*
X12479690Y-10835484D02*
X12460643Y-10835484D01*
X12460643Y-10835484D02*
X12441595Y-10825960D01*
X12441595Y-10825960D02*
X12432071Y-10816436D01*
X12432071Y-10816436D02*
X12422548Y-10797389D01*
X12422548Y-10797389D02*
X12413024Y-10759293D01*
X12413024Y-10759293D02*
X12413024Y-10711674D01*
X12413024Y-10711674D02*
X12422548Y-10673579D01*
X12422548Y-10673579D02*
X12432071Y-10654531D01*
X12432071Y-10654531D02*
X12441595Y-10645008D01*
X12441595Y-10645008D02*
X12460643Y-10635484D01*
X12613024Y-10835484D02*
X12613024Y-10702150D01*
X12613024Y-10721198D02*
X12622548Y-10711674D01*
X12622548Y-10711674D02*
X12641595Y-10702150D01*
X12641595Y-10702150D02*
X12670167Y-10702150D01*
X12670167Y-10702150D02*
X12689214Y-10711674D01*
X12689214Y-10711674D02*
X12698738Y-10730722D01*
X12698738Y-10730722D02*
X12698738Y-10835484D01*
X12698738Y-10730722D02*
X12708262Y-10711674D01*
X12708262Y-10711674D02*
X12727309Y-10702150D01*
X12727309Y-10702150D02*
X12755881Y-10702150D01*
X12755881Y-10702150D02*
X12774929Y-10711674D01*
X12774929Y-10711674D02*
X12784452Y-10730722D01*
X12784452Y-10730722D02*
X12784452Y-10835484D01*
X12879690Y-10835484D02*
X12879690Y-10702150D01*
X12879690Y-10721198D02*
X12889214Y-10711674D01*
X12889214Y-10711674D02*
X12908262Y-10702150D01*
X12908262Y-10702150D02*
X12936833Y-10702150D01*
X12936833Y-10702150D02*
X12955881Y-10711674D01*
X12955881Y-10711674D02*
X12965405Y-10730722D01*
X12965405Y-10730722D02*
X12965405Y-10835484D01*
X12965405Y-10730722D02*
X12974929Y-10711674D01*
X12974929Y-10711674D02*
X12993976Y-10702150D01*
X12993976Y-10702150D02*
X13022548Y-10702150D01*
X13022548Y-10702150D02*
X13041595Y-10711674D01*
X13041595Y-10711674D02*
X13051119Y-10730722D01*
X13051119Y-10730722D02*
X13051119Y-10835484D01*
X13441595Y-10625960D02*
X13270167Y-10883103D01*
X13698738Y-10635484D02*
X13717786Y-10635484D01*
X13717786Y-10635484D02*
X13736833Y-10645008D01*
X13736833Y-10645008D02*
X13746357Y-10654531D01*
X13746357Y-10654531D02*
X13755881Y-10673579D01*
X13755881Y-10673579D02*
X13765405Y-10711674D01*
X13765405Y-10711674D02*
X13765405Y-10759293D01*
X13765405Y-10759293D02*
X13755881Y-10797389D01*
X13755881Y-10797389D02*
X13746357Y-10816436D01*
X13746357Y-10816436D02*
X13736833Y-10825960D01*
X13736833Y-10825960D02*
X13717786Y-10835484D01*
X13717786Y-10835484D02*
X13698738Y-10835484D01*
X13698738Y-10835484D02*
X13679691Y-10825960D01*
X13679691Y-10825960D02*
X13670167Y-10816436D01*
X13670167Y-10816436D02*
X13660643Y-10797389D01*
X13660643Y-10797389D02*
X13651119Y-10759293D01*
X13651119Y-10759293D02*
X13651119Y-10711674D01*
X13651119Y-10711674D02*
X13660643Y-10673579D01*
X13660643Y-10673579D02*
X13670167Y-10654531D01*
X13670167Y-10654531D02*
X13679691Y-10645008D01*
X13679691Y-10645008D02*
X13698738Y-10635484D01*
X13851119Y-10816436D02*
X13860643Y-10825960D01*
X13860643Y-10825960D02*
X13851119Y-10835484D01*
X13851119Y-10835484D02*
X13841595Y-10825960D01*
X13841595Y-10825960D02*
X13851119Y-10816436D01*
X13851119Y-10816436D02*
X13851119Y-10835484D01*
X13984452Y-10635484D02*
X14003500Y-10635484D01*
X14003500Y-10635484D02*
X14022548Y-10645008D01*
X14022548Y-10645008D02*
X14032072Y-10654531D01*
X14032072Y-10654531D02*
X14041595Y-10673579D01*
X14041595Y-10673579D02*
X14051119Y-10711674D01*
X14051119Y-10711674D02*
X14051119Y-10759293D01*
X14051119Y-10759293D02*
X14041595Y-10797389D01*
X14041595Y-10797389D02*
X14032072Y-10816436D01*
X14032072Y-10816436D02*
X14022548Y-10825960D01*
X14022548Y-10825960D02*
X14003500Y-10835484D01*
X14003500Y-10835484D02*
X13984452Y-10835484D01*
X13984452Y-10835484D02*
X13965405Y-10825960D01*
X13965405Y-10825960D02*
X13955881Y-10816436D01*
X13955881Y-10816436D02*
X13946357Y-10797389D01*
X13946357Y-10797389D02*
X13936833Y-10759293D01*
X13936833Y-10759293D02*
X13936833Y-10711674D01*
X13936833Y-10711674D02*
X13946357Y-10673579D01*
X13946357Y-10673579D02*
X13955881Y-10654531D01*
X13955881Y-10654531D02*
X13965405Y-10645008D01*
X13965405Y-10645008D02*
X13984452Y-10635484D01*
X14241595Y-10835484D02*
X14127310Y-10835484D01*
X14184452Y-10835484D02*
X14184452Y-10635484D01*
X14184452Y-10635484D02*
X14165405Y-10664055D01*
X14165405Y-10664055D02*
X14146357Y-10683103D01*
X14146357Y-10683103D02*
X14127310Y-10692627D01*
X14336833Y-10835484D02*
X14374929Y-10835484D01*
X14374929Y-10835484D02*
X14393976Y-10825960D01*
X14393976Y-10825960D02*
X14403500Y-10816436D01*
X14403500Y-10816436D02*
X14422548Y-10787865D01*
X14422548Y-10787865D02*
X14432072Y-10749770D01*
X14432072Y-10749770D02*
X14432072Y-10673579D01*
X14432072Y-10673579D02*
X14422548Y-10654531D01*
X14422548Y-10654531D02*
X14413024Y-10645008D01*
X14413024Y-10645008D02*
X14393976Y-10635484D01*
X14393976Y-10635484D02*
X14355881Y-10635484D01*
X14355881Y-10635484D02*
X14336833Y-10645008D01*
X14336833Y-10645008D02*
X14327310Y-10654531D01*
X14327310Y-10654531D02*
X14317786Y-10673579D01*
X14317786Y-10673579D02*
X14317786Y-10721198D01*
X14317786Y-10721198D02*
X14327310Y-10740246D01*
X14327310Y-10740246D02*
X14336833Y-10749770D01*
X14336833Y-10749770D02*
X14355881Y-10759293D01*
X14355881Y-10759293D02*
X14393976Y-10759293D01*
X14393976Y-10759293D02*
X14413024Y-10749770D01*
X14413024Y-10749770D02*
X14422548Y-10740246D01*
X14422548Y-10740246D02*
X14432072Y-10721198D01*
X14498738Y-10635484D02*
X14632072Y-10635484D01*
X14632072Y-10635484D02*
X14546357Y-10835484D01*
X14698738Y-10635484D02*
X14698738Y-10673579D01*
X14774929Y-10635484D02*
X14774929Y-10673579D01*
X15070167Y-10911674D02*
X15060643Y-10902150D01*
X15060643Y-10902150D02*
X15041595Y-10873579D01*
X15041595Y-10873579D02*
X15032072Y-10854531D01*
X15032072Y-10854531D02*
X15022548Y-10825960D01*
X15022548Y-10825960D02*
X15013024Y-10778341D01*
X15013024Y-10778341D02*
X15013024Y-10740246D01*
X15013024Y-10740246D02*
X15022548Y-10692627D01*
X15022548Y-10692627D02*
X15032072Y-10664055D01*
X15032072Y-10664055D02*
X15041595Y-10645008D01*
X15041595Y-10645008D02*
X15060643Y-10616436D01*
X15060643Y-10616436D02*
X15070167Y-10606912D01*
X15251119Y-10835484D02*
X15136834Y-10835484D01*
X15193976Y-10835484D02*
X15193976Y-10635484D01*
X15193976Y-10635484D02*
X15174929Y-10664055D01*
X15174929Y-10664055D02*
X15155881Y-10683103D01*
X15155881Y-10683103D02*
X15136834Y-10692627D01*
X15489215Y-10835484D02*
X15489215Y-10635484D01*
X15574929Y-10835484D02*
X15574929Y-10730722D01*
X15574929Y-10730722D02*
X15565405Y-10711674D01*
X15565405Y-10711674D02*
X15546357Y-10702150D01*
X15546357Y-10702150D02*
X15517786Y-10702150D01*
X15517786Y-10702150D02*
X15498738Y-10711674D01*
X15498738Y-10711674D02*
X15489215Y-10721198D01*
X15698738Y-10835484D02*
X15679691Y-10825960D01*
X15679691Y-10825960D02*
X15670167Y-10816436D01*
X15670167Y-10816436D02*
X15660643Y-10797389D01*
X15660643Y-10797389D02*
X15660643Y-10740246D01*
X15660643Y-10740246D02*
X15670167Y-10721198D01*
X15670167Y-10721198D02*
X15679691Y-10711674D01*
X15679691Y-10711674D02*
X15698738Y-10702150D01*
X15698738Y-10702150D02*
X15727310Y-10702150D01*
X15727310Y-10702150D02*
X15746357Y-10711674D01*
X15746357Y-10711674D02*
X15755881Y-10721198D01*
X15755881Y-10721198D02*
X15765405Y-10740246D01*
X15765405Y-10740246D02*
X15765405Y-10797389D01*
X15765405Y-10797389D02*
X15755881Y-10816436D01*
X15755881Y-10816436D02*
X15746357Y-10825960D01*
X15746357Y-10825960D02*
X15727310Y-10835484D01*
X15727310Y-10835484D02*
X15698738Y-10835484D01*
X15879691Y-10835484D02*
X15860643Y-10825960D01*
X15860643Y-10825960D02*
X15851119Y-10806912D01*
X15851119Y-10806912D02*
X15851119Y-10635484D01*
X16032072Y-10825960D02*
X16013024Y-10835484D01*
X16013024Y-10835484D02*
X15974929Y-10835484D01*
X15974929Y-10835484D02*
X15955881Y-10825960D01*
X15955881Y-10825960D02*
X15946357Y-10806912D01*
X15946357Y-10806912D02*
X15946357Y-10730722D01*
X15946357Y-10730722D02*
X15955881Y-10711674D01*
X15955881Y-10711674D02*
X15974929Y-10702150D01*
X15974929Y-10702150D02*
X16013024Y-10702150D01*
X16013024Y-10702150D02*
X16032072Y-10711674D01*
X16032072Y-10711674D02*
X16041596Y-10730722D01*
X16041596Y-10730722D02*
X16041596Y-10749770D01*
X16041596Y-10749770D02*
X15946357Y-10768817D01*
X16108262Y-10911674D02*
X16117786Y-10902150D01*
X16117786Y-10902150D02*
X16136834Y-10873579D01*
X16136834Y-10873579D02*
X16146357Y-10854531D01*
X16146357Y-10854531D02*
X16155881Y-10825960D01*
X16155881Y-10825960D02*
X16165405Y-10778341D01*
X16165405Y-10778341D02*
X16165405Y-10740246D01*
X16165405Y-10740246D02*
X16155881Y-10692627D01*
X16155881Y-10692627D02*
X16146357Y-10664055D01*
X16146357Y-10664055D02*
X16136834Y-10645008D01*
X16136834Y-10645008D02*
X16117786Y-10616436D01*
X16117786Y-10616436D02*
X16108262Y-10606912D01*
M02*
