%TF.GenerationSoftware,KiCad,Pcbnew,8.0.0~rc1-42d8c85f12~176~ubuntu22.04.1*%
%TF.CreationDate,2024-01-16T22:26:44+10:00*%
%TF.ProjectId,MXBreakout,4d584272-6561-46b6-9f75-742e6b696361,rev?*%
%TF.SameCoordinates,Original*%
%TF.FileFunction,Profile,NP*%
%FSLAX46Y46*%
G04 Gerber Fmt 4.6, Leading zero omitted, Abs format (unit mm)*
G04 Created by KiCad (PCBNEW 8.0.0~rc1-42d8c85f12~176~ubuntu22.04.1) date 2024-01-16 22:26:44*
%MOMM*%
%LPD*%
G01*
G04 APERTURE LIST*
%TA.AperFunction,Profile*%
%ADD10C,0.100000*%
%TD*%
G04 APERTURE END LIST*
D10*
X122150000Y-88800000D02*
X122150000Y-91400000D01*
X132250000Y-86000000D02*
X131950000Y-86000000D01*
X119850000Y-74900000D02*
X107850000Y-74900000D01*
X106550000Y-85700000D02*
X103250000Y-89000000D01*
X131950000Y-87550000D02*
X130450000Y-87550000D01*
X122150000Y-88800000D02*
X123050000Y-87900000D01*
X89300000Y-102475000D02*
X89300000Y-92875000D01*
X130450000Y-85050000D02*
X131950000Y-85050000D01*
X105400000Y-102275000D02*
X104500000Y-103175000D01*
X132600000Y-87900000D02*
X123050000Y-87900000D01*
X131950000Y-87100000D02*
X131950000Y-87550000D01*
X136475081Y-82224919D02*
X135875081Y-81624919D01*
X90000000Y-103175000D02*
X89300000Y-102475000D01*
X107850000Y-74900000D02*
X106550000Y-76200000D01*
X136475081Y-84024919D02*
X136475081Y-82224919D01*
X119800000Y-93750000D02*
X122150000Y-91400000D01*
X105400000Y-95350000D02*
X107000000Y-93750000D01*
X132250000Y-86600000D02*
X132250000Y-86000000D01*
X96962500Y-92075000D02*
X90100000Y-92075000D01*
X131950000Y-86600000D02*
X132250000Y-86600000D01*
X89300000Y-92875000D02*
X90100000Y-92075000D01*
X132600000Y-87900000D02*
X136475081Y-84024919D01*
X130450000Y-87550000D02*
X130450000Y-85050000D01*
X103250000Y-89000000D02*
X100037500Y-89000000D01*
X100037500Y-89000000D02*
X96962500Y-92075000D01*
X119850000Y-74900000D02*
X126575000Y-81625000D01*
X135875081Y-81624919D02*
X126575000Y-81625000D01*
X131950000Y-85050000D02*
X131950000Y-85500000D01*
X131950000Y-86000000D02*
X131950000Y-85500000D01*
X104500000Y-103175000D02*
X90000000Y-103175000D01*
X131950000Y-87100000D02*
X131950000Y-86600000D01*
X105400000Y-95350000D02*
X105400000Y-102275000D01*
X119800000Y-93750000D02*
X107000000Y-93750000D01*
X106550000Y-76200000D02*
X106550000Y-85700000D01*
M02*
