%TF.GenerationSoftware,KiCad,Pcbnew,8.0.0~rc1-42d8c85f12~176~ubuntu22.04.1*%
%TF.CreationDate,2024-01-15T17:13:56+10:00*%
%TF.ProjectId,MXBreakout,4d584272-6561-46b6-9f75-742e6b696361,rev?*%
%TF.SameCoordinates,Original*%
%TF.FileFunction,Paste,Top*%
%TF.FilePolarity,Positive*%
%FSLAX46Y46*%
G04 Gerber Fmt 4.6, Leading zero omitted, Abs format (unit mm)*
G04 Created by KiCad (PCBNEW 8.0.0~rc1-42d8c85f12~176~ubuntu22.04.1) date 2024-01-15 17:13:56*
%MOMM*%
%LPD*%
G01*
G04 APERTURE LIST*
G04 Aperture macros list*
%AMRoundRect*
0 Rectangle with rounded corners*
0 $1 Rounding radius*
0 $2 $3 $4 $5 $6 $7 $8 $9 X,Y pos of 4 corners*
0 Add a 4 corners polygon primitive as box body*
4,1,4,$2,$3,$4,$5,$6,$7,$8,$9,$2,$3,0*
0 Add four circle primitives for the rounded corners*
1,1,$1+$1,$2,$3*
1,1,$1+$1,$4,$5*
1,1,$1+$1,$6,$7*
1,1,$1+$1,$8,$9*
0 Add four rect primitives between the rounded corners*
20,1,$1+$1,$2,$3,$4,$5,0*
20,1,$1+$1,$4,$5,$6,$7,0*
20,1,$1+$1,$6,$7,$8,$9,0*
20,1,$1+$1,$8,$9,$2,$3,0*%
G04 Aperture macros list end*
%ADD10RoundRect,0.150000X0.150000X-0.512500X0.150000X0.512500X-0.150000X0.512500X-0.150000X-0.512500X0*%
%ADD11RoundRect,0.135000X0.185000X-0.135000X0.185000X0.135000X-0.185000X0.135000X-0.185000X-0.135000X0*%
%ADD12RoundRect,0.150000X0.875000X0.150000X-0.875000X0.150000X-0.875000X-0.150000X0.875000X-0.150000X0*%
%ADD13RoundRect,0.218750X-0.256250X0.218750X-0.256250X-0.218750X0.256250X-0.218750X0.256250X0.218750X0*%
%ADD14RoundRect,0.140000X0.170000X-0.140000X0.170000X0.140000X-0.170000X0.140000X-0.170000X-0.140000X0*%
%ADD15RoundRect,0.135000X-0.185000X0.135000X-0.185000X-0.135000X0.185000X-0.135000X0.185000X0.135000X0*%
%ADD16RoundRect,0.140000X-0.140000X-0.170000X0.140000X-0.170000X0.140000X0.170000X-0.140000X0.170000X0*%
%ADD17R,1.900000X1.300000*%
G04 APERTURE END LIST*
D10*
%TO.C,U10*%
X122925000Y-90275000D03*
X123875000Y-90275000D03*
X124825000Y-90275000D03*
X124825000Y-88000000D03*
X122925000Y-88000000D03*
%TD*%
D11*
%TO.C,TP10*%
X132000000Y-85750000D03*
X132000000Y-86770000D03*
%TD*%
D12*
%TO.C,U1*%
X109200000Y-92425000D03*
X109200000Y-91155000D03*
X109200000Y-89885000D03*
X109200000Y-88615000D03*
X109200000Y-87345000D03*
X109200000Y-86075000D03*
X109200000Y-84805000D03*
X109200000Y-83535000D03*
X109200000Y-82265000D03*
X109200000Y-80995000D03*
X109200000Y-79725000D03*
X109200000Y-78455000D03*
X109200000Y-77185000D03*
X109200000Y-75915000D03*
X118500000Y-75915000D03*
X118500000Y-77185000D03*
X118500000Y-78455000D03*
X118500000Y-79725000D03*
X118500000Y-80995000D03*
X118500000Y-82265000D03*
X118500000Y-83535000D03*
X118500000Y-84805000D03*
X118500000Y-86075000D03*
X118500000Y-87345000D03*
X118500000Y-88615000D03*
X118500000Y-89885000D03*
X118500000Y-91155000D03*
X118500000Y-92425000D03*
%TD*%
D13*
%TO.C,D1*%
X97500000Y-94712500D03*
X97500000Y-96287500D03*
%TD*%
D14*
%TO.C,C2*%
X101225000Y-98405000D03*
X101225000Y-97445000D03*
%TD*%
D15*
%TO.C,R1*%
X97500000Y-98495000D03*
X97500000Y-97475000D03*
%TD*%
D16*
%TO.C,C3*%
X131040000Y-83700000D03*
X132000000Y-83700000D03*
%TD*%
D14*
%TO.C,C1*%
X108425000Y-98405000D03*
X108425000Y-97445000D03*
%TD*%
D17*
%TO.C,X1*%
X103225000Y-95175000D03*
X103225000Y-100675000D03*
X106425000Y-100675000D03*
X106425000Y-95175000D03*
%TD*%
M02*
