M48
; DRILL file {KiCad 7.0.10-7.0.10~ubuntu22.04.1} date Sun 14 Jan 2024 22:11:57
; FORMAT={-:-/ absolute / metric / decimal}
; #@! TF.CreationDate,2024-01-14T22:11:57+10:00
; #@! TF.GenerationSoftware,Kicad,Pcbnew,7.0.10-7.0.10~ubuntu22.04.1
; #@! TF.FileFunction,Plated,1,2,PTH
FMAT,2
METRIC
; #@! TA.AperFunction,Plated,PTH,ViaDrill
T1C0.400
; #@! TA.AperFunction,Plated,PTH,ViaDrill
T2C0.500
%
G90
G05
T1
X116.401Y-81.705
X116.401Y-84.245
X116.401Y-91.865
X121.481Y-81.705
X121.481Y-84.245
X121.481Y-86.785
X121.481Y-89.325
X121.481Y-91.865
X121.481Y-94.405
X121.481Y-96.945
X124.021Y-81.705
X124.021Y-84.245
X124.021Y-86.785
X124.021Y-89.325
X124.021Y-91.865
X124.021Y-94.405
X124.021Y-96.945
X131.641Y-81.705
X131.641Y-91.865
X131.641Y-96.945
X134.181Y-81.705
X134.181Y-86.785
X134.181Y-89.325
X134.181Y-96.945
X136.721Y-81.705
X136.721Y-84.245
X136.721Y-91.865
X136.721Y-94.405
X136.721Y-96.945
X139.261Y-81.705
X139.261Y-91.865
X139.261Y-96.945
X141.801Y-81.705
X141.801Y-84.245
X141.801Y-91.865
X141.801Y-94.405
X141.801Y-96.945
T2
X140.3Y-88.85
M30
