%TF.GenerationSoftware,KiCad,Pcbnew,8.99.0-unknown-4e8e14ae3a~177~ubuntu22.04.1*%
%TF.CreationDate,2024-03-17T17:43:00+10:00*%
%TF.ProjectId,MXBreakout,4d584272-6561-46b6-9f75-742e6b696361,rev?*%
%TF.SameCoordinates,Original*%
%TF.FileFunction,Legend,Top*%
%TF.FilePolarity,Positive*%
%FSLAX46Y46*%
G04 Gerber Fmt 4.6, Leading zero omitted, Abs format (unit mm)*
G04 Created by KiCad (PCBNEW 8.99.0-unknown-4e8e14ae3a~177~ubuntu22.04.1) date 2024-03-17 17:43:00*
%MOMM*%
%LPD*%
G01*
G04 APERTURE LIST*
%ADD10C,0.150000*%
%ADD11C,0.075000*%
%ADD12C,0.080000*%
%ADD13C,0.100000*%
%ADD14C,0.120000*%
%ADD15C,0.025000*%
G04 APERTURE END LIST*
D10*
X66800000Y-61225000D02*
G75*
G02*
X66400000Y-61225000I-200000J0D01*
G01*
X66400000Y-61225000D02*
G75*
G02*
X66800000Y-61225000I200000J0D01*
G01*
X69989164Y-60946428D02*
X70596307Y-60946428D01*
X70596307Y-60946428D02*
X70667735Y-60910714D01*
X70667735Y-60910714D02*
X70703450Y-60875000D01*
X70703450Y-60875000D02*
X70739164Y-60803571D01*
X70739164Y-60803571D02*
X70739164Y-60660714D01*
X70739164Y-60660714D02*
X70703450Y-60589285D01*
X70703450Y-60589285D02*
X70667735Y-60553571D01*
X70667735Y-60553571D02*
X70596307Y-60517857D01*
X70596307Y-60517857D02*
X69989164Y-60517857D01*
X70739164Y-59767857D02*
X70739164Y-60196428D01*
X70739164Y-59982143D02*
X69989164Y-59982143D01*
X69989164Y-59982143D02*
X70096307Y-60053571D01*
X70096307Y-60053571D02*
X70167735Y-60125000D01*
X70167735Y-60125000D02*
X70203450Y-60196428D01*
D11*
X74580952Y-54127409D02*
X74580952Y-54532171D01*
X74580952Y-54532171D02*
X74604762Y-54579790D01*
X74604762Y-54579790D02*
X74628571Y-54603600D01*
X74628571Y-54603600D02*
X74676190Y-54627409D01*
X74676190Y-54627409D02*
X74771428Y-54627409D01*
X74771428Y-54627409D02*
X74819047Y-54603600D01*
X74819047Y-54603600D02*
X74842857Y-54579790D01*
X74842857Y-54579790D02*
X74866666Y-54532171D01*
X74866666Y-54532171D02*
X74866666Y-54127409D01*
X75366667Y-54627409D02*
X75080953Y-54627409D01*
X75223810Y-54627409D02*
X75223810Y-54127409D01*
X75223810Y-54127409D02*
X75176191Y-54198838D01*
X75176191Y-54198838D02*
X75128572Y-54246457D01*
X75128572Y-54246457D02*
X75080953Y-54270266D01*
X75676190Y-54127409D02*
X75723809Y-54127409D01*
X75723809Y-54127409D02*
X75771428Y-54151219D01*
X75771428Y-54151219D02*
X75795238Y-54175028D01*
X75795238Y-54175028D02*
X75819047Y-54222647D01*
X75819047Y-54222647D02*
X75842857Y-54317885D01*
X75842857Y-54317885D02*
X75842857Y-54436933D01*
X75842857Y-54436933D02*
X75819047Y-54532171D01*
X75819047Y-54532171D02*
X75795238Y-54579790D01*
X75795238Y-54579790D02*
X75771428Y-54603600D01*
X75771428Y-54603600D02*
X75723809Y-54627409D01*
X75723809Y-54627409D02*
X75676190Y-54627409D01*
X75676190Y-54627409D02*
X75628571Y-54603600D01*
X75628571Y-54603600D02*
X75604762Y-54579790D01*
X75604762Y-54579790D02*
X75580952Y-54532171D01*
X75580952Y-54532171D02*
X75557143Y-54436933D01*
X75557143Y-54436933D02*
X75557143Y-54317885D01*
X75557143Y-54317885D02*
X75580952Y-54222647D01*
X75580952Y-54222647D02*
X75604762Y-54175028D01*
X75604762Y-54175028D02*
X75628571Y-54151219D01*
X75628571Y-54151219D02*
X75676190Y-54127409D01*
X54093452Y-64427409D02*
X54093452Y-63927409D01*
X54093452Y-63927409D02*
X54212500Y-63927409D01*
X54212500Y-63927409D02*
X54283928Y-63951219D01*
X54283928Y-63951219D02*
X54331547Y-63998838D01*
X54331547Y-63998838D02*
X54355357Y-64046457D01*
X54355357Y-64046457D02*
X54379166Y-64141695D01*
X54379166Y-64141695D02*
X54379166Y-64213123D01*
X54379166Y-64213123D02*
X54355357Y-64308361D01*
X54355357Y-64308361D02*
X54331547Y-64355980D01*
X54331547Y-64355980D02*
X54283928Y-64403600D01*
X54283928Y-64403600D02*
X54212500Y-64427409D01*
X54212500Y-64427409D02*
X54093452Y-64427409D01*
X54855357Y-64427409D02*
X54569643Y-64427409D01*
X54712500Y-64427409D02*
X54712500Y-63927409D01*
X54712500Y-63927409D02*
X54664881Y-63998838D01*
X54664881Y-63998838D02*
X54617262Y-64046457D01*
X54617262Y-64046457D02*
X54569643Y-64070266D01*
D12*
X71019332Y-47694798D02*
X71305542Y-47981008D01*
X71305542Y-47981008D02*
X71356050Y-47997843D01*
X71356050Y-47997843D02*
X71389722Y-47997843D01*
X71389722Y-47997843D02*
X71440229Y-47981008D01*
X71440229Y-47981008D02*
X71507573Y-47913664D01*
X71507573Y-47913664D02*
X71524409Y-47863156D01*
X71524409Y-47863156D02*
X71524409Y-47829485D01*
X71524409Y-47829485D02*
X71507573Y-47778977D01*
X71507573Y-47778977D02*
X71221363Y-47492767D01*
X71928470Y-47492767D02*
X71726440Y-47694797D01*
X71827455Y-47593782D02*
X71473901Y-47240229D01*
X71473901Y-47240229D02*
X71490737Y-47324408D01*
X71490737Y-47324408D02*
X71490737Y-47391752D01*
X71490737Y-47391752D02*
X71473901Y-47442259D01*
X71793783Y-46920347D02*
X71827455Y-46886676D01*
X71827455Y-46886676D02*
X71877962Y-46869840D01*
X71877962Y-46869840D02*
X71911634Y-46869840D01*
X71911634Y-46869840D02*
X71962142Y-46886676D01*
X71962142Y-46886676D02*
X72046321Y-46937183D01*
X72046321Y-46937183D02*
X72130500Y-47021363D01*
X72130500Y-47021363D02*
X72181008Y-47105542D01*
X72181008Y-47105542D02*
X72197844Y-47156050D01*
X72197844Y-47156050D02*
X72197844Y-47189721D01*
X72197844Y-47189721D02*
X72181008Y-47240229D01*
X72181008Y-47240229D02*
X72147336Y-47273901D01*
X72147336Y-47273901D02*
X72096829Y-47290737D01*
X72096829Y-47290737D02*
X72063157Y-47290737D01*
X72063157Y-47290737D02*
X72012649Y-47273901D01*
X72012649Y-47273901D02*
X71928470Y-47223393D01*
X71928470Y-47223393D02*
X71844290Y-47139214D01*
X71844290Y-47139214D02*
X71793783Y-47055034D01*
X71793783Y-47055034D02*
X71776947Y-47004527D01*
X71776947Y-47004527D02*
X71776947Y-46970855D01*
X71776947Y-46970855D02*
X71793783Y-46920347D01*
D13*
X53570335Y-61125000D02*
X53606050Y-61160714D01*
X53606050Y-61160714D02*
X53641764Y-61267857D01*
X53641764Y-61267857D02*
X53641764Y-61339285D01*
X53641764Y-61339285D02*
X53606050Y-61446428D01*
X53606050Y-61446428D02*
X53534621Y-61517857D01*
X53534621Y-61517857D02*
X53463192Y-61553571D01*
X53463192Y-61553571D02*
X53320335Y-61589285D01*
X53320335Y-61589285D02*
X53213192Y-61589285D01*
X53213192Y-61589285D02*
X53070335Y-61553571D01*
X53070335Y-61553571D02*
X52998907Y-61517857D01*
X52998907Y-61517857D02*
X52927478Y-61446428D01*
X52927478Y-61446428D02*
X52891764Y-61339285D01*
X52891764Y-61339285D02*
X52891764Y-61267857D01*
X52891764Y-61267857D02*
X52927478Y-61160714D01*
X52927478Y-61160714D02*
X52963192Y-61125000D01*
X52963192Y-60839285D02*
X52927478Y-60803571D01*
X52927478Y-60803571D02*
X52891764Y-60732143D01*
X52891764Y-60732143D02*
X52891764Y-60553571D01*
X52891764Y-60553571D02*
X52927478Y-60482143D01*
X52927478Y-60482143D02*
X52963192Y-60446428D01*
X52963192Y-60446428D02*
X53034621Y-60410714D01*
X53034621Y-60410714D02*
X53106050Y-60410714D01*
X53106050Y-60410714D02*
X53213192Y-60446428D01*
X53213192Y-60446428D02*
X53641764Y-60875000D01*
X53641764Y-60875000D02*
X53641764Y-60410714D01*
X51852499Y-64441764D02*
X51602499Y-64084621D01*
X51423928Y-64441764D02*
X51423928Y-63691764D01*
X51423928Y-63691764D02*
X51709642Y-63691764D01*
X51709642Y-63691764D02*
X51781071Y-63727478D01*
X51781071Y-63727478D02*
X51816785Y-63763192D01*
X51816785Y-63763192D02*
X51852499Y-63834621D01*
X51852499Y-63834621D02*
X51852499Y-63941764D01*
X51852499Y-63941764D02*
X51816785Y-64013192D01*
X51816785Y-64013192D02*
X51781071Y-64048907D01*
X51781071Y-64048907D02*
X51709642Y-64084621D01*
X51709642Y-64084621D02*
X51423928Y-64084621D01*
X52566785Y-64441764D02*
X52138214Y-64441764D01*
X52352499Y-64441764D02*
X52352499Y-63691764D01*
X52352499Y-63691764D02*
X52281071Y-63798907D01*
X52281071Y-63798907D02*
X52209642Y-63870335D01*
X52209642Y-63870335D02*
X52138214Y-63906050D01*
D11*
X48065504Y-63584522D02*
X48089314Y-63513094D01*
X48089314Y-63513094D02*
X48113123Y-63489284D01*
X48113123Y-63489284D02*
X48160742Y-63465475D01*
X48160742Y-63465475D02*
X48232171Y-63465475D01*
X48232171Y-63465475D02*
X48279790Y-63489284D01*
X48279790Y-63489284D02*
X48303600Y-63513094D01*
X48303600Y-63513094D02*
X48327409Y-63560713D01*
X48327409Y-63560713D02*
X48327409Y-63751189D01*
X48327409Y-63751189D02*
X47827409Y-63751189D01*
X47827409Y-63751189D02*
X47827409Y-63584522D01*
X47827409Y-63584522D02*
X47851219Y-63536903D01*
X47851219Y-63536903D02*
X47875028Y-63513094D01*
X47875028Y-63513094D02*
X47922647Y-63489284D01*
X47922647Y-63489284D02*
X47970266Y-63489284D01*
X47970266Y-63489284D02*
X48017885Y-63513094D01*
X48017885Y-63513094D02*
X48041695Y-63536903D01*
X48041695Y-63536903D02*
X48065504Y-63584522D01*
X48065504Y-63584522D02*
X48065504Y-63751189D01*
X48184552Y-63274998D02*
X48184552Y-63036903D01*
X48327409Y-63322617D02*
X47827409Y-63155951D01*
X47827409Y-63155951D02*
X48327409Y-62989284D01*
X47827409Y-62894046D02*
X47827409Y-62608332D01*
X48327409Y-62751189D02*
X47827409Y-62751189D01*
X47827409Y-62513094D02*
X47827409Y-62227380D01*
X48327409Y-62370237D02*
X47827409Y-62370237D01*
D10*
X81394999Y-51967735D02*
X81359285Y-52003450D01*
X81359285Y-52003450D02*
X81252142Y-52039164D01*
X81252142Y-52039164D02*
X81180714Y-52039164D01*
X81180714Y-52039164D02*
X81073571Y-52003450D01*
X81073571Y-52003450D02*
X81002142Y-51932021D01*
X81002142Y-51932021D02*
X80966428Y-51860592D01*
X80966428Y-51860592D02*
X80930714Y-51717735D01*
X80930714Y-51717735D02*
X80930714Y-51610592D01*
X80930714Y-51610592D02*
X80966428Y-51467735D01*
X80966428Y-51467735D02*
X81002142Y-51396307D01*
X81002142Y-51396307D02*
X81073571Y-51324878D01*
X81073571Y-51324878D02*
X81180714Y-51289164D01*
X81180714Y-51289164D02*
X81252142Y-51289164D01*
X81252142Y-51289164D02*
X81359285Y-51324878D01*
X81359285Y-51324878D02*
X81394999Y-51360592D01*
X81644999Y-51289164D02*
X82109285Y-51289164D01*
X82109285Y-51289164D02*
X81859285Y-51574878D01*
X81859285Y-51574878D02*
X81966428Y-51574878D01*
X81966428Y-51574878D02*
X82037857Y-51610592D01*
X82037857Y-51610592D02*
X82073571Y-51646307D01*
X82073571Y-51646307D02*
X82109285Y-51717735D01*
X82109285Y-51717735D02*
X82109285Y-51896307D01*
X82109285Y-51896307D02*
X82073571Y-51967735D01*
X82073571Y-51967735D02*
X82037857Y-52003450D01*
X82037857Y-52003450D02*
X81966428Y-52039164D01*
X81966428Y-52039164D02*
X81752142Y-52039164D01*
X81752142Y-52039164D02*
X81680714Y-52003450D01*
X81680714Y-52003450D02*
X81644999Y-51967735D01*
D13*
X54642857Y-57609621D02*
X54642857Y-57966764D01*
X54392857Y-57216764D02*
X54642857Y-57609621D01*
X54642857Y-57609621D02*
X54892857Y-57216764D01*
X55535714Y-57966764D02*
X55107143Y-57966764D01*
X55321428Y-57966764D02*
X55321428Y-57216764D01*
X55321428Y-57216764D02*
X55250000Y-57323907D01*
X55250000Y-57323907D02*
X55178571Y-57395335D01*
X55178571Y-57395335D02*
X55107143Y-57431050D01*
X56970335Y-61125000D02*
X57006050Y-61160714D01*
X57006050Y-61160714D02*
X57041764Y-61267857D01*
X57041764Y-61267857D02*
X57041764Y-61339285D01*
X57041764Y-61339285D02*
X57006050Y-61446428D01*
X57006050Y-61446428D02*
X56934621Y-61517857D01*
X56934621Y-61517857D02*
X56863192Y-61553571D01*
X56863192Y-61553571D02*
X56720335Y-61589285D01*
X56720335Y-61589285D02*
X56613192Y-61589285D01*
X56613192Y-61589285D02*
X56470335Y-61553571D01*
X56470335Y-61553571D02*
X56398907Y-61517857D01*
X56398907Y-61517857D02*
X56327478Y-61446428D01*
X56327478Y-61446428D02*
X56291764Y-61339285D01*
X56291764Y-61339285D02*
X56291764Y-61267857D01*
X56291764Y-61267857D02*
X56327478Y-61160714D01*
X56327478Y-61160714D02*
X56363192Y-61125000D01*
X57041764Y-60410714D02*
X57041764Y-60839285D01*
X57041764Y-60625000D02*
X56291764Y-60625000D01*
X56291764Y-60625000D02*
X56398907Y-60696428D01*
X56398907Y-60696428D02*
X56470335Y-60767857D01*
X56470335Y-60767857D02*
X56506050Y-60839285D01*
D14*
%TO.C,U1*%
X59990000Y-44135000D02*
X59990000Y-44380000D01*
X59990000Y-62255000D02*
X59990000Y-62010000D01*
X63850000Y-44135000D02*
X59990000Y-44135000D01*
X63850000Y-44135000D02*
X67710000Y-44135000D01*
X63850000Y-62255000D02*
X59990000Y-62255000D01*
X63850000Y-62255000D02*
X67710000Y-62255000D01*
X67710000Y-44135000D02*
X67710000Y-44380000D01*
X67710000Y-62010000D02*
X69525000Y-62010000D01*
X67710000Y-62255000D02*
X67710000Y-62010000D01*
D15*
%TO.C,TP4*%
X74275000Y-54000000D02*
G75*
G02*
X73725000Y-54000000I-275000J0D01*
G01*
X73725000Y-54000000D02*
G75*
G02*
X74275000Y-54000000I275000J0D01*
G01*
%TO.C,TP3*%
X84375000Y-52625000D02*
G75*
G02*
X83825000Y-52625000I-275000J0D01*
G01*
X83825000Y-52625000D02*
G75*
G02*
X84375000Y-52625000I275000J0D01*
G01*
D14*
%TO.C,TP12*%
X75500000Y-53600000D02*
G75*
G02*
X74900000Y-53600000I-300000J0D01*
G01*
X74900000Y-53600000D02*
G75*
G02*
X75500000Y-53600000I300000J0D01*
G01*
D15*
%TO.C,TP11*%
X74275000Y-53025000D02*
G75*
G02*
X73725000Y-53025000I-275000J0D01*
G01*
X73725000Y-53025000D02*
G75*
G02*
X74275000Y-53025000I275000J0D01*
G01*
%TO.C,TP3*%
X85875000Y-52625000D02*
G75*
G02*
X85325000Y-52625000I-275000J0D01*
G01*
X85325000Y-52625000D02*
G75*
G02*
X85875000Y-52625000I275000J0D01*
G01*
D14*
%TO.C,D1*%
X53662500Y-63760000D02*
X55947500Y-63760000D01*
X55947500Y-62290000D02*
X53662500Y-62290000D01*
X55947500Y-63760000D02*
X55947500Y-62290000D01*
%TO.C,U10*%
X71826247Y-50882421D02*
X71260562Y-50316735D01*
X71826247Y-50882421D02*
X72391933Y-51448106D01*
X74032421Y-48676247D02*
X72759628Y-47403455D01*
X74032421Y-48676247D02*
X74598106Y-49241933D01*
%TO.C,C2*%
X53890000Y-61107836D02*
X53890000Y-60892164D01*
X54610000Y-61107836D02*
X54610000Y-60892164D01*
%TO.C,R1*%
X52131141Y-62645000D02*
X51823859Y-62645000D01*
X52131141Y-63405000D02*
X51823859Y-63405000D01*
%TO.C,TP8*%
X49950000Y-63025000D02*
G75*
G02*
X48550000Y-63025000I-700000J0D01*
G01*
X48550000Y-63025000D02*
G75*
G02*
X49950000Y-63025000I700000J0D01*
G01*
D15*
%TO.C,TP6*%
X79025000Y-54000000D02*
G75*
G02*
X78475000Y-54000000I-275000J0D01*
G01*
X78475000Y-54000000D02*
G75*
G02*
X79025000Y-54000000I275000J0D01*
G01*
%TO.C,TP7*%
X73275000Y-55025000D02*
G75*
G02*
X72725000Y-55025000I-275000J0D01*
G01*
X72725000Y-55025000D02*
G75*
G02*
X73275000Y-55025000I275000J0D01*
G01*
D14*
%TO.C,C3*%
X81412164Y-52365000D02*
X81627836Y-52365000D01*
X81412164Y-53085000D02*
X81627836Y-53085000D01*
%TO.C,Y1*%
X53800000Y-58225000D02*
X53800000Y-59825000D01*
X53800000Y-59825000D02*
X56200000Y-59825000D01*
X56200000Y-58225000D02*
X53800000Y-58225000D01*
D15*
%TO.C,REF\u002A\u002A*%
X46850000Y-64300000D02*
G75*
G02*
X46150000Y-64300000I-350000J0D01*
G01*
X46150000Y-64300000D02*
G75*
G02*
X46850000Y-64300000I350000J0D01*
G01*
%TO.C,TP5*%
X79775000Y-54000000D02*
G75*
G02*
X79225000Y-54000000I-275000J0D01*
G01*
X79225000Y-54000000D02*
G75*
G02*
X79775000Y-54000000I275000J0D01*
G01*
D14*
%TO.C,C1*%
X55340000Y-61107836D02*
X55340000Y-60892164D01*
X56060000Y-61107836D02*
X56060000Y-60892164D01*
%TD*%
M02*
