%TF.GenerationSoftware,KiCad,Pcbnew,8.99.0-unknown-4e8e14ae3a~177~ubuntu22.04.1*%
%TF.CreationDate,2024-03-17T17:43:04+10:00*%
%TF.ProjectId,MXBreakout,4d584272-6561-46b6-9f75-742e6b696361,rev?*%
%TF.SameCoordinates,Original*%
%TF.FileFunction,Drillmap*%
%TF.FilePolarity,Positive*%
%FSLAX45Y45*%
G04 Gerber Fmt 4.5, Leading zero omitted, Abs format (unit mm)*
G04 Created by KiCad (PCBNEW 8.99.0-unknown-4e8e14ae3a~177~ubuntu22.04.1) date 2024-03-17 17:43:04*
%MOMM*%
%LPD*%
G01*
G04 APERTURE LIST*
%ADD10C,0.100000*%
%ADD11C,0.200000*%
G04 APERTURE END LIST*
D10*
X8180000Y-5410000D02*
X8180000Y-5655000D01*
X6985000Y-4392500D02*
X5785000Y-4392500D01*
X5655000Y-5472500D02*
X5325000Y-5802500D01*
X8180000Y-5655000D02*
X8045000Y-5655000D01*
X8045000Y-5410000D02*
X8180000Y-5410000D01*
X8260000Y-5692500D02*
X7565000Y-5692500D01*
X8647508Y-5124992D02*
X8587508Y-5064992D01*
X5785000Y-4392500D02*
X5655000Y-4522500D01*
X5540000Y-6510000D02*
X5540000Y-6437500D01*
X8647508Y-5304992D02*
X8647508Y-5124992D01*
X6980000Y-6277500D02*
X7565000Y-5692500D01*
X5540000Y-6437500D02*
X5700000Y-6277500D01*
X4525000Y-6277500D02*
X4525000Y-6510000D01*
X8260000Y-5692500D02*
X8647508Y-5304992D01*
X8045000Y-5655000D02*
X8045000Y-5410000D01*
X5325000Y-5802500D02*
X5000000Y-5802500D01*
X4525000Y-6277500D02*
X5000000Y-5802500D01*
X6985000Y-4392500D02*
X7657500Y-5065000D01*
X8587508Y-5064992D02*
X7657500Y-5065000D01*
X5540000Y-6510000D02*
X4525000Y-6510000D01*
X6980000Y-6277500D02*
X5700000Y-6277500D01*
X5655000Y-4522500D02*
X5655000Y-5472500D01*
D11*
X4780777Y-6826484D02*
X4780777Y-6626484D01*
X4780777Y-6626484D02*
X4828396Y-6626484D01*
X4828396Y-6626484D02*
X4856967Y-6636008D01*
X4856967Y-6636008D02*
X4876015Y-6655055D01*
X4876015Y-6655055D02*
X4885539Y-6674103D01*
X4885539Y-6674103D02*
X4895063Y-6712198D01*
X4895063Y-6712198D02*
X4895063Y-6740769D01*
X4895063Y-6740769D02*
X4885539Y-6778865D01*
X4885539Y-6778865D02*
X4876015Y-6797912D01*
X4876015Y-6797912D02*
X4856967Y-6816960D01*
X4856967Y-6816960D02*
X4828396Y-6826484D01*
X4828396Y-6826484D02*
X4780777Y-6826484D01*
X4980777Y-6826484D02*
X4980777Y-6693150D01*
X4980777Y-6731246D02*
X4990301Y-6712198D01*
X4990301Y-6712198D02*
X4999824Y-6702674D01*
X4999824Y-6702674D02*
X5018872Y-6693150D01*
X5018872Y-6693150D02*
X5037920Y-6693150D01*
X5104586Y-6826484D02*
X5104586Y-6693150D01*
X5104586Y-6626484D02*
X5095063Y-6636008D01*
X5095063Y-6636008D02*
X5104586Y-6645531D01*
X5104586Y-6645531D02*
X5114110Y-6636008D01*
X5114110Y-6636008D02*
X5104586Y-6626484D01*
X5104586Y-6626484D02*
X5104586Y-6645531D01*
X5228396Y-6826484D02*
X5209348Y-6816960D01*
X5209348Y-6816960D02*
X5199824Y-6797912D01*
X5199824Y-6797912D02*
X5199824Y-6626484D01*
X5333158Y-6826484D02*
X5314110Y-6816960D01*
X5314110Y-6816960D02*
X5304586Y-6797912D01*
X5304586Y-6797912D02*
X5304586Y-6626484D01*
X5561729Y-6826484D02*
X5561729Y-6626484D01*
X5561729Y-6626484D02*
X5628396Y-6769341D01*
X5628396Y-6769341D02*
X5695062Y-6626484D01*
X5695062Y-6626484D02*
X5695062Y-6826484D01*
X5876015Y-6826484D02*
X5876015Y-6721722D01*
X5876015Y-6721722D02*
X5866491Y-6702674D01*
X5866491Y-6702674D02*
X5847443Y-6693150D01*
X5847443Y-6693150D02*
X5809348Y-6693150D01*
X5809348Y-6693150D02*
X5790301Y-6702674D01*
X5876015Y-6816960D02*
X5856967Y-6826484D01*
X5856967Y-6826484D02*
X5809348Y-6826484D01*
X5809348Y-6826484D02*
X5790301Y-6816960D01*
X5790301Y-6816960D02*
X5780777Y-6797912D01*
X5780777Y-6797912D02*
X5780777Y-6778865D01*
X5780777Y-6778865D02*
X5790301Y-6759817D01*
X5790301Y-6759817D02*
X5809348Y-6750293D01*
X5809348Y-6750293D02*
X5856967Y-6750293D01*
X5856967Y-6750293D02*
X5876015Y-6740769D01*
X5971253Y-6693150D02*
X5971253Y-6893150D01*
X5971253Y-6702674D02*
X5990301Y-6693150D01*
X5990301Y-6693150D02*
X6028396Y-6693150D01*
X6028396Y-6693150D02*
X6047443Y-6702674D01*
X6047443Y-6702674D02*
X6056967Y-6712198D01*
X6056967Y-6712198D02*
X6066491Y-6731246D01*
X6066491Y-6731246D02*
X6066491Y-6788388D01*
X6066491Y-6788388D02*
X6056967Y-6807436D01*
X6056967Y-6807436D02*
X6047443Y-6816960D01*
X6047443Y-6816960D02*
X6028396Y-6826484D01*
X6028396Y-6826484D02*
X5990301Y-6826484D01*
X5990301Y-6826484D02*
X5971253Y-6816960D01*
X6152205Y-6807436D02*
X6161729Y-6816960D01*
X6161729Y-6816960D02*
X6152205Y-6826484D01*
X6152205Y-6826484D02*
X6142682Y-6816960D01*
X6142682Y-6816960D02*
X6152205Y-6807436D01*
X6152205Y-6807436D02*
X6152205Y-6826484D01*
X6152205Y-6702674D02*
X6161729Y-6712198D01*
X6161729Y-6712198D02*
X6152205Y-6721722D01*
X6152205Y-6721722D02*
X6142682Y-6712198D01*
X6142682Y-6712198D02*
X6152205Y-6702674D01*
X6152205Y-6702674D02*
X6152205Y-6721722D01*
M02*
