%TF.GenerationSoftware,KiCad,Pcbnew,7.0.10-7.0.10~ubuntu22.04.1*%
%TF.CreationDate,2024-01-14T22:11:42+10:00*%
%TF.ProjectId,MXBreakout,4d584272-6561-46b6-9f75-742e6b696361,rev?*%
%TF.SameCoordinates,Original*%
%TF.FileFunction,Copper,L2,Bot*%
%TF.FilePolarity,Positive*%
%FSLAX46Y46*%
G04 Gerber Fmt 4.6, Leading zero omitted, Abs format (unit mm)*
G04 Created by KiCad (PCBNEW 7.0.10-7.0.10~ubuntu22.04.1) date 2024-01-14 22:11:42*
%MOMM*%
%LPD*%
G01*
G04 APERTURE LIST*
%TA.AperFunction,SMDPad,CuDef*%
%ADD10C,4.000000*%
%TD*%
%TA.AperFunction,ViaPad*%
%ADD11C,0.800000*%
%TD*%
%TA.AperFunction,ViaPad*%
%ADD12C,1.000000*%
%TD*%
G04 APERTURE END LIST*
D10*
%TO.P,TP2,1,1*%
%TO.N,GND*%
X117600000Y-88850000D03*
%TD*%
%TO.P,TP1,1,1*%
%TO.N,Net-(R1-Pad2)*%
X140300000Y-88850000D03*
%TD*%
D11*
%TO.N,GND*%
X141800714Y-96945476D03*
X141800714Y-94405476D03*
X141800714Y-91865476D03*
X141800714Y-84245476D03*
X141800714Y-81705476D03*
X139260714Y-96945476D03*
X139260714Y-91865476D03*
X139260714Y-81705476D03*
X136720714Y-96945476D03*
X136720714Y-94405476D03*
X136720714Y-91865476D03*
X136720714Y-84245476D03*
X136720714Y-81705476D03*
X134180714Y-96945476D03*
X134180714Y-89325476D03*
X134180714Y-86785476D03*
X134180714Y-81705476D03*
X131640714Y-96945476D03*
X131640714Y-91865476D03*
X131640714Y-81705476D03*
X124020714Y-96945476D03*
X124020714Y-94405476D03*
X124020714Y-91865476D03*
X124020714Y-89325476D03*
X124020714Y-86785476D03*
X124020714Y-84245476D03*
X124020714Y-81705476D03*
X121480714Y-96945476D03*
X121480714Y-94405476D03*
X121480714Y-91865476D03*
X121480714Y-89325476D03*
X121480714Y-86785476D03*
X121480714Y-84245476D03*
X121480714Y-81705476D03*
X116400714Y-91865476D03*
X116400714Y-84245476D03*
X116400714Y-81705476D03*
D12*
%TO.N,Net-(R1-Pad2)*%
X140300000Y-88850000D03*
%TD*%
%TA.AperFunction,Conductor*%
%TO.N,GND*%
G36*
X142055011Y-79352136D02*
G01*
X142083391Y-79354930D01*
X142084919Y-79355092D01*
X142213179Y-79369543D01*
X142235262Y-79374096D01*
X142291565Y-79391173D01*
X142296471Y-79392776D01*
X142385216Y-79423829D01*
X142402708Y-79431509D01*
X142426526Y-79444239D01*
X142460144Y-79462207D01*
X142467639Y-79466558D01*
X142542094Y-79513341D01*
X142554767Y-79522468D01*
X142606618Y-79565020D01*
X142615634Y-79573192D01*
X142676806Y-79634364D01*
X142684978Y-79643380D01*
X142727524Y-79695222D01*
X142736665Y-79707915D01*
X142783429Y-79782340D01*
X142787795Y-79789862D01*
X142818489Y-79847290D01*
X142826170Y-79864785D01*
X142857213Y-79953500D01*
X142858834Y-79958463D01*
X142875899Y-80014724D01*
X142880457Y-80036833D01*
X142894900Y-80165023D01*
X142895083Y-80166755D01*
X142897862Y-80194978D01*
X142898459Y-80207122D01*
X142899499Y-97493898D01*
X142898902Y-97506060D01*
X142896105Y-97534456D01*
X142895922Y-97536185D01*
X142881502Y-97664165D01*
X142876943Y-97686274D01*
X142859800Y-97742790D01*
X142858180Y-97747752D01*
X142827238Y-97836177D01*
X142819555Y-97853676D01*
X142788730Y-97911345D01*
X142784366Y-97918863D01*
X142737773Y-97993016D01*
X142728632Y-98005709D01*
X142685903Y-98057774D01*
X142677731Y-98066790D01*
X142616790Y-98127731D01*
X142607774Y-98135903D01*
X142555709Y-98178632D01*
X142543016Y-98187773D01*
X142468863Y-98234366D01*
X142461345Y-98238730D01*
X142403676Y-98269555D01*
X142386177Y-98277238D01*
X142297752Y-98308180D01*
X142292791Y-98309800D01*
X142236276Y-98326943D01*
X142214166Y-98331502D01*
X142086220Y-98345918D01*
X142084490Y-98346101D01*
X142056061Y-98348901D01*
X142043902Y-98349498D01*
X115857123Y-98348459D01*
X115844977Y-98347862D01*
X115816755Y-98345083D01*
X115815023Y-98344900D01*
X115686833Y-98330457D01*
X115664724Y-98325899D01*
X115608463Y-98308834D01*
X115603500Y-98307213D01*
X115514785Y-98276170D01*
X115497290Y-98268489D01*
X115439862Y-98237795D01*
X115432340Y-98233429D01*
X115357911Y-98186662D01*
X115345226Y-98177527D01*
X115293380Y-98134978D01*
X115284364Y-98126806D01*
X115223192Y-98065634D01*
X115215020Y-98056618D01*
X115172468Y-98004767D01*
X115163341Y-97992094D01*
X115116558Y-97917639D01*
X115112203Y-97910136D01*
X115081509Y-97852708D01*
X115073828Y-97835213D01*
X115043224Y-97747752D01*
X115042776Y-97746471D01*
X115041173Y-97741565D01*
X115024096Y-97685262D01*
X115019543Y-97663179D01*
X115005092Y-97534919D01*
X115004930Y-97533391D01*
X115002136Y-97505011D01*
X115001541Y-97492868D01*
X115001541Y-90788579D01*
X116014971Y-90788579D01*
X116014972Y-90788581D01*
X116257772Y-90964985D01*
X116257790Y-90964996D01*
X116533447Y-91116540D01*
X116533455Y-91116544D01*
X116825926Y-91232340D01*
X117130620Y-91310573D01*
X117130629Y-91310575D01*
X117442701Y-91349999D01*
X117442715Y-91350000D01*
X117757285Y-91350000D01*
X117757298Y-91349999D01*
X118069370Y-91310575D01*
X118069379Y-91310573D01*
X118374073Y-91232340D01*
X118666544Y-91116544D01*
X118666552Y-91116540D01*
X118942209Y-90964996D01*
X118942219Y-90964990D01*
X119185026Y-90788579D01*
X119185027Y-90788579D01*
X117600000Y-89203553D01*
X116014971Y-90788579D01*
X115001541Y-90788579D01*
X115001541Y-89725841D01*
X115021226Y-89658802D01*
X115074030Y-89613047D01*
X115143188Y-89603103D01*
X115206744Y-89632128D01*
X115243472Y-89687523D01*
X115270963Y-89772132D01*
X115270965Y-89772137D01*
X115404900Y-90056761D01*
X115404903Y-90056767D01*
X115573457Y-90322367D01*
X115573460Y-90322371D01*
X115664286Y-90432160D01*
X117246446Y-88850001D01*
X117953553Y-88850001D01*
X119535712Y-90432160D01*
X119626544Y-90322364D01*
X119795096Y-90056767D01*
X119795099Y-90056761D01*
X119929034Y-89772137D01*
X119929036Y-89772132D01*
X120026244Y-89472958D01*
X120085191Y-89163949D01*
X120085192Y-89163942D01*
X120104943Y-88850005D01*
X120104943Y-88850000D01*
X138094778Y-88850000D01*
X138113644Y-89137837D01*
X138113646Y-89137849D01*
X138169917Y-89420745D01*
X138169921Y-89420760D01*
X138262642Y-89693905D01*
X138390219Y-89952606D01*
X138390223Y-89952613D01*
X138550478Y-90192452D01*
X138740672Y-90409327D01*
X138957546Y-90599520D01*
X139197389Y-90759778D01*
X139456098Y-90887359D01*
X139729247Y-90980081D01*
X140012161Y-91036356D01*
X140300000Y-91055222D01*
X140587839Y-91036356D01*
X140870753Y-90980081D01*
X141143902Y-90887359D01*
X141402611Y-90759778D01*
X141642454Y-90599520D01*
X141859327Y-90409327D01*
X142049520Y-90192454D01*
X142209778Y-89952611D01*
X142337359Y-89693902D01*
X142430081Y-89420753D01*
X142486356Y-89137839D01*
X142505222Y-88850000D01*
X142486356Y-88562161D01*
X142430081Y-88279247D01*
X142337359Y-88006098D01*
X142209778Y-87747389D01*
X142049520Y-87507546D01*
X141859327Y-87290672D01*
X141642452Y-87100478D01*
X141402613Y-86940223D01*
X141402606Y-86940219D01*
X141143905Y-86812642D01*
X140870760Y-86719921D01*
X140870754Y-86719919D01*
X140870753Y-86719919D01*
X140870751Y-86719918D01*
X140870745Y-86719917D01*
X140587849Y-86663646D01*
X140587839Y-86663644D01*
X140300000Y-86644778D01*
X140012161Y-86663644D01*
X140012155Y-86663645D01*
X140012150Y-86663646D01*
X139729254Y-86719917D01*
X139729239Y-86719921D01*
X139456094Y-86812642D01*
X139197393Y-86940219D01*
X139197386Y-86940223D01*
X138957547Y-87100478D01*
X138740672Y-87290672D01*
X138550478Y-87507547D01*
X138390223Y-87747386D01*
X138390219Y-87747393D01*
X138262642Y-88006094D01*
X138169921Y-88279239D01*
X138169917Y-88279254D01*
X138113646Y-88562150D01*
X138113644Y-88562162D01*
X138094778Y-88850000D01*
X120104943Y-88850000D01*
X120104943Y-88849994D01*
X120085192Y-88536057D01*
X120085191Y-88536050D01*
X120026244Y-88227041D01*
X119929036Y-87927867D01*
X119929034Y-87927862D01*
X119795099Y-87643238D01*
X119795096Y-87643232D01*
X119626542Y-87377632D01*
X119626539Y-87377628D01*
X119535712Y-87267838D01*
X117953553Y-88849999D01*
X117953553Y-88850001D01*
X117246446Y-88850001D01*
X117246447Y-88850000D01*
X117246447Y-88849999D01*
X115664286Y-87267838D01*
X115664285Y-87267838D01*
X115573459Y-87377629D01*
X115573457Y-87377632D01*
X115404903Y-87643232D01*
X115404900Y-87643238D01*
X115270965Y-87927862D01*
X115243472Y-88012477D01*
X115204034Y-88070152D01*
X115139675Y-88097350D01*
X115070829Y-88085435D01*
X115019353Y-88038191D01*
X115001541Y-87974158D01*
X115001541Y-86911419D01*
X116014971Y-86911419D01*
X117600000Y-88496447D01*
X117600001Y-88496447D01*
X119185027Y-86911419D01*
X119185026Y-86911417D01*
X118942227Y-86735014D01*
X118942209Y-86735003D01*
X118666552Y-86583459D01*
X118666544Y-86583455D01*
X118374073Y-86467659D01*
X118069379Y-86389426D01*
X118069370Y-86389424D01*
X117757298Y-86350000D01*
X117442701Y-86350000D01*
X117130629Y-86389424D01*
X117130620Y-86389426D01*
X116825926Y-86467659D01*
X116533455Y-86583455D01*
X116533447Y-86583459D01*
X116257787Y-86735004D01*
X116257782Y-86735007D01*
X116014972Y-86911418D01*
X116014971Y-86911419D01*
X115001541Y-86911419D01*
X115001541Y-80207131D01*
X115002137Y-80194986D01*
X115002138Y-80194978D01*
X115004933Y-80166578D01*
X115005087Y-80165126D01*
X115019544Y-80036816D01*
X115024095Y-80014741D01*
X115041182Y-79958406D01*
X115042766Y-79953556D01*
X115073833Y-79864773D01*
X115081505Y-79847298D01*
X115112221Y-79789830D01*
X115116542Y-79782384D01*
X115163351Y-79707889D01*
X115172456Y-79695246D01*
X115215039Y-79643358D01*
X115223172Y-79634385D01*
X115284385Y-79573172D01*
X115293358Y-79565039D01*
X115345246Y-79522456D01*
X115357889Y-79513351D01*
X115432384Y-79466542D01*
X115439830Y-79462221D01*
X115497298Y-79431505D01*
X115514773Y-79423833D01*
X115603556Y-79392766D01*
X115608406Y-79391182D01*
X115664741Y-79374095D01*
X115686816Y-79369544D01*
X115815126Y-79355087D01*
X115816578Y-79354933D01*
X115844987Y-79352136D01*
X115857132Y-79351541D01*
X142042868Y-79351541D01*
X142055011Y-79352136D01*
G37*
%TD.AperFunction*%
%TD*%
M02*
