M48
; DRILL file {KiCad 8.0.0~rc1-42d8c85f12~176~ubuntu22.04.1} date 2024-01-16T22:26:44+1000
; FORMAT={-:-/ absolute / metric / decimal}
; #@! TF.CreationDate,2024-01-16T22:26:44+10:00
; #@! TF.GenerationSoftware,Kicad,Pcbnew,8.0.0~rc1-42d8c85f12~176~ubuntu22.04.1
; #@! TF.FileFunction,Plated,1,2,PTH
FMAT,2
METRIC
; #@! TA.AperFunction,Plated,PTH,ViaDrill
T1C0.300
; #@! TA.AperFunction,Plated,PTH,ViaDrill
T2C0.400
; #@! TA.AperFunction,Plated,PTH,ComponentDrill
T3C0.400
; #@! TA.AperFunction,Plated,PTH,ViaDrill
T4C0.750
%
G90
G05
T1
X120.15Y-77.185
X120.15Y-78.45
X120.15Y-79.725
T2
X92.575Y-93.45
X97.5Y-92.5
X100.0Y-90.0
X105.0Y-95.0
X107.25Y-89.885
X107.5Y-92.5
X112.5Y-77.5
X112.5Y-80.0
X112.5Y-82.5
X112.5Y-85.0
X112.5Y-87.5
X112.5Y-90.0
X112.5Y-92.5
X114.999Y-92.499
X115.0Y-77.5
X115.0Y-80.0
X115.0Y-82.5
X115.0Y-85.0
X115.0Y-87.5
X115.0Y-90.0
X127.5Y-82.5
X130.0Y-82.5
T3
X90.0Y-95.0
X90.0Y-96.25
X90.0Y-97.5
X90.0Y-98.75
X90.0Y-100.0
X92.5Y-102.5
X93.75Y-102.5
X95.0Y-102.5
X102.5Y-102.5
X103.75Y-102.5
X123.0Y-86.0
X124.0Y-84.0
X124.0Y-84.975
X128.75Y-84.975
X129.5Y-84.975
X134.1Y-83.6
X135.6Y-83.6
T4
X90.0Y-95.0
X90.0Y-96.25
X90.0Y-97.5
X90.0Y-98.75
X90.0Y-100.0
X92.5Y-102.5
X93.75Y-102.5
X95.0Y-102.5
X102.5Y-102.5
X103.75Y-102.5
M30
