%TF.GenerationSoftware,KiCad,Pcbnew,8.0.0~rc1-42d8c85f12~176~ubuntu22.04.1*%
%TF.CreationDate,2024-01-15T17:13:59+10:00*%
%TF.ProjectId,MXBreakout,4d584272-6561-46b6-9f75-742e6b696361,rev?*%
%TF.SameCoordinates,Original*%
%TF.FileFunction,Drillmap*%
%TF.FilePolarity,Positive*%
%FSLAX45Y45*%
G04 Gerber Fmt 4.5, Leading zero omitted, Abs format (unit mm)*
G04 Created by KiCad (PCBNEW 8.0.0~rc1-42d8c85f12~176~ubuntu22.04.1) date 2024-01-15 17:13:59*
%MOMM*%
%LPD*%
G01*
G04 APERTURE LIST*
%ADD10C,0.100000*%
%ADD11C,0.200000*%
G04 APERTURE END LIST*
D10*
X9665000Y-9210000D02*
X9505000Y-9210000D01*
X9425000Y-9290000D02*
X9505000Y-9210000D01*
X9975000Y-8900000D02*
X9665000Y-9210000D01*
X9425000Y-10250000D02*
X9425000Y-9290000D01*
X9495000Y-10320000D02*
X9425000Y-10250000D01*
X10945000Y-10320000D02*
X9495000Y-10320000D01*
X10325000Y-8900000D02*
X9975000Y-8900000D01*
X10655000Y-8570000D02*
X10325000Y-8900000D01*
X10655000Y-7620000D02*
X10655000Y-8570000D01*
X10785000Y-7490000D02*
X10655000Y-7620000D01*
X11985000Y-7490000D02*
X10785000Y-7490000D01*
X13595000Y-8160000D02*
X12655000Y-8160000D01*
X13655000Y-8220000D02*
X13595000Y-8160000D01*
X13655000Y-8400000D02*
X13655000Y-8220000D01*
X11985000Y-7490000D02*
X12655000Y-8160000D01*
X11885000Y-9470000D02*
X11255000Y-9470000D01*
X12215000Y-9140000D02*
X11885000Y-9470000D01*
X12915000Y-9140000D02*
X12215000Y-9140000D01*
X13655000Y-8400000D02*
X12915000Y-9140000D01*
X11035000Y-10230000D02*
X10945000Y-10320000D01*
X11035000Y-9690000D02*
X11035000Y-10230000D01*
X11255000Y-9470000D02*
X11035000Y-9690000D01*
X13195000Y-8505000D02*
X13195000Y-8550000D01*
X13045000Y-8505000D02*
X13195000Y-8505000D01*
X13045000Y-8755000D02*
X13045000Y-8505000D01*
X13195000Y-8755000D02*
X13045000Y-8755000D01*
X13195000Y-8710000D02*
X13195000Y-8755000D01*
X13195000Y-8600000D02*
X13195000Y-8550000D01*
X13225000Y-8600000D02*
X13195000Y-8600000D01*
X13225000Y-8660000D02*
X13225000Y-8600000D01*
X13195000Y-8660000D02*
X13225000Y-8660000D01*
X13195000Y-8710000D02*
X13195000Y-8660000D01*
D11*
D10*
X12282500Y-8582500D02*
X12317500Y-8617500D01*
X12317500Y-8582500D02*
X12282500Y-8617500D01*
X12382500Y-8382500D02*
X12417500Y-8417500D01*
X12417500Y-8382500D02*
X12382500Y-8417500D01*
X12382500Y-8480000D02*
X12417500Y-8515000D01*
X12417500Y-8480000D02*
X12382500Y-8515000D01*
X12857500Y-8480000D02*
X12892500Y-8515000D01*
X12892500Y-8480000D02*
X12857500Y-8515000D01*
X12932500Y-8480000D02*
X12967500Y-8515000D01*
X12967500Y-8480000D02*
X12932500Y-8515000D01*
X13392500Y-8342500D02*
X13427500Y-8377500D01*
X13427500Y-8342500D02*
X13392500Y-8377500D01*
X13542500Y-8342500D02*
X13577500Y-8377500D01*
X13577500Y-8342500D02*
X13542500Y-8377500D01*
X9520000Y-9500000D02*
G75*
G02*
X9480000Y-9500000I-20000J0D01*
G01*
X9480000Y-9500000D02*
G75*
G02*
X9520000Y-9500000I20000J0D01*
G01*
X9520000Y-9750000D02*
G75*
G02*
X9480000Y-9750000I-20000J0D01*
G01*
X9480000Y-9750000D02*
G75*
G02*
X9520000Y-9750000I20000J0D01*
G01*
X9520000Y-10000000D02*
G75*
G02*
X9480000Y-10000000I-20000J0D01*
G01*
X9480000Y-10000000D02*
G75*
G02*
X9520000Y-10000000I20000J0D01*
G01*
X9770000Y-9325000D02*
G75*
G02*
X9730000Y-9325000I-20000J0D01*
G01*
X9730000Y-9325000D02*
G75*
G02*
X9770000Y-9325000I20000J0D01*
G01*
X10020000Y-9250000D02*
G75*
G02*
X9980000Y-9250000I-20000J0D01*
G01*
X9980000Y-9250000D02*
G75*
G02*
X10020000Y-9250000I20000J0D01*
G01*
X10020000Y-9500000D02*
G75*
G02*
X9980000Y-9500000I-20000J0D01*
G01*
X9980000Y-9500000D02*
G75*
G02*
X10020000Y-9500000I20000J0D01*
G01*
X10020000Y-9750000D02*
G75*
G02*
X9980000Y-9750000I-20000J0D01*
G01*
X9980000Y-9750000D02*
G75*
G02*
X10020000Y-9750000I20000J0D01*
G01*
X10520000Y-9250000D02*
G75*
G02*
X10480000Y-9250000I-20000J0D01*
G01*
X10480000Y-9250000D02*
G75*
G02*
X10520000Y-9250000I20000J0D01*
G01*
X10520000Y-9750000D02*
G75*
G02*
X10480000Y-9750000I-20000J0D01*
G01*
X10480000Y-9750000D02*
G75*
G02*
X10520000Y-9750000I20000J0D01*
G01*
X10745000Y-8988500D02*
G75*
G02*
X10705000Y-8988500I-20000J0D01*
G01*
X10705000Y-8988500D02*
G75*
G02*
X10745000Y-8988500I20000J0D01*
G01*
X11020000Y-9500000D02*
G75*
G02*
X10980000Y-9500000I-20000J0D01*
G01*
X10980000Y-9500000D02*
G75*
G02*
X11020000Y-9500000I20000J0D01*
G01*
X11270000Y-7750000D02*
G75*
G02*
X11230000Y-7750000I-20000J0D01*
G01*
X11230000Y-7750000D02*
G75*
G02*
X11270000Y-7750000I20000J0D01*
G01*
X11270000Y-8000000D02*
G75*
G02*
X11230000Y-8000000I-20000J0D01*
G01*
X11230000Y-8000000D02*
G75*
G02*
X11270000Y-8000000I20000J0D01*
G01*
X11270000Y-8250000D02*
G75*
G02*
X11230000Y-8250000I-20000J0D01*
G01*
X11230000Y-8250000D02*
G75*
G02*
X11270000Y-8250000I20000J0D01*
G01*
X11270000Y-8500000D02*
G75*
G02*
X11230000Y-8500000I-20000J0D01*
G01*
X11230000Y-8500000D02*
G75*
G02*
X11270000Y-8500000I20000J0D01*
G01*
X11270000Y-9000000D02*
G75*
G02*
X11230000Y-9000000I-20000J0D01*
G01*
X11230000Y-9000000D02*
G75*
G02*
X11270000Y-9000000I20000J0D01*
G01*
X11270000Y-9250000D02*
G75*
G02*
X11230000Y-9250000I-20000J0D01*
G01*
X11230000Y-9250000D02*
G75*
G02*
X11270000Y-9250000I20000J0D01*
G01*
X11520000Y-7750000D02*
G75*
G02*
X11480000Y-7750000I-20000J0D01*
G01*
X11480000Y-7750000D02*
G75*
G02*
X11520000Y-7750000I20000J0D01*
G01*
X11520000Y-8000000D02*
G75*
G02*
X11480000Y-8000000I-20000J0D01*
G01*
X11480000Y-8000000D02*
G75*
G02*
X11520000Y-8000000I20000J0D01*
G01*
X11520000Y-8250000D02*
G75*
G02*
X11480000Y-8250000I-20000J0D01*
G01*
X11480000Y-8250000D02*
G75*
G02*
X11520000Y-8250000I20000J0D01*
G01*
X11520000Y-8500000D02*
G75*
G02*
X11480000Y-8500000I-20000J0D01*
G01*
X11480000Y-8500000D02*
G75*
G02*
X11520000Y-8500000I20000J0D01*
G01*
X11520000Y-9000000D02*
G75*
G02*
X11480000Y-9000000I-20000J0D01*
G01*
X11480000Y-9000000D02*
G75*
G02*
X11520000Y-9000000I20000J0D01*
G01*
X11520000Y-9250000D02*
G75*
G02*
X11480000Y-9250000I-20000J0D01*
G01*
X11480000Y-9250000D02*
G75*
G02*
X11520000Y-9250000I20000J0D01*
G01*
X12770000Y-8750000D02*
G75*
G02*
X12730000Y-8750000I-20000J0D01*
G01*
X12730000Y-8750000D02*
G75*
G02*
X12770000Y-8750000I20000J0D01*
G01*
X12770000Y-9000000D02*
G75*
G02*
X12730000Y-9000000I-20000J0D01*
G01*
X12730000Y-9000000D02*
G75*
G02*
X12770000Y-9000000I20000J0D01*
G01*
X13020000Y-8250000D02*
G75*
G02*
X12980000Y-8250000I-20000J0D01*
G01*
X12980000Y-8250000D02*
G75*
G02*
X13020000Y-8250000I20000J0D01*
G01*
D11*
X9680777Y-10636484D02*
X9680777Y-10436484D01*
X9680777Y-10436484D02*
X9728396Y-10436484D01*
X9728396Y-10436484D02*
X9756967Y-10446008D01*
X9756967Y-10446008D02*
X9776015Y-10465055D01*
X9776015Y-10465055D02*
X9785539Y-10484103D01*
X9785539Y-10484103D02*
X9795063Y-10522198D01*
X9795063Y-10522198D02*
X9795063Y-10550770D01*
X9795063Y-10550770D02*
X9785539Y-10588865D01*
X9785539Y-10588865D02*
X9776015Y-10607912D01*
X9776015Y-10607912D02*
X9756967Y-10626960D01*
X9756967Y-10626960D02*
X9728396Y-10636484D01*
X9728396Y-10636484D02*
X9680777Y-10636484D01*
X9880777Y-10636484D02*
X9880777Y-10503150D01*
X9880777Y-10541246D02*
X9890301Y-10522198D01*
X9890301Y-10522198D02*
X9899824Y-10512674D01*
X9899824Y-10512674D02*
X9918872Y-10503150D01*
X9918872Y-10503150D02*
X9937920Y-10503150D01*
X10004586Y-10636484D02*
X10004586Y-10503150D01*
X10004586Y-10436484D02*
X9995063Y-10446008D01*
X9995063Y-10446008D02*
X10004586Y-10455531D01*
X10004586Y-10455531D02*
X10014110Y-10446008D01*
X10014110Y-10446008D02*
X10004586Y-10436484D01*
X10004586Y-10436484D02*
X10004586Y-10455531D01*
X10128396Y-10636484D02*
X10109348Y-10626960D01*
X10109348Y-10626960D02*
X10099824Y-10607912D01*
X10099824Y-10607912D02*
X10099824Y-10436484D01*
X10233158Y-10636484D02*
X10214110Y-10626960D01*
X10214110Y-10626960D02*
X10204586Y-10607912D01*
X10204586Y-10607912D02*
X10204586Y-10436484D01*
X10461729Y-10636484D02*
X10461729Y-10436484D01*
X10461729Y-10436484D02*
X10528396Y-10579341D01*
X10528396Y-10579341D02*
X10595063Y-10436484D01*
X10595063Y-10436484D02*
X10595063Y-10636484D01*
X10776015Y-10636484D02*
X10776015Y-10531722D01*
X10776015Y-10531722D02*
X10766491Y-10512674D01*
X10766491Y-10512674D02*
X10747444Y-10503150D01*
X10747444Y-10503150D02*
X10709348Y-10503150D01*
X10709348Y-10503150D02*
X10690301Y-10512674D01*
X10776015Y-10626960D02*
X10756967Y-10636484D01*
X10756967Y-10636484D02*
X10709348Y-10636484D01*
X10709348Y-10636484D02*
X10690301Y-10626960D01*
X10690301Y-10626960D02*
X10680777Y-10607912D01*
X10680777Y-10607912D02*
X10680777Y-10588865D01*
X10680777Y-10588865D02*
X10690301Y-10569817D01*
X10690301Y-10569817D02*
X10709348Y-10560293D01*
X10709348Y-10560293D02*
X10756967Y-10560293D01*
X10756967Y-10560293D02*
X10776015Y-10550770D01*
X10871253Y-10503150D02*
X10871253Y-10703150D01*
X10871253Y-10512674D02*
X10890301Y-10503150D01*
X10890301Y-10503150D02*
X10928396Y-10503150D01*
X10928396Y-10503150D02*
X10947444Y-10512674D01*
X10947444Y-10512674D02*
X10956967Y-10522198D01*
X10956967Y-10522198D02*
X10966491Y-10541246D01*
X10966491Y-10541246D02*
X10966491Y-10598389D01*
X10966491Y-10598389D02*
X10956967Y-10617436D01*
X10956967Y-10617436D02*
X10947444Y-10626960D01*
X10947444Y-10626960D02*
X10928396Y-10636484D01*
X10928396Y-10636484D02*
X10890301Y-10636484D01*
X10890301Y-10636484D02*
X10871253Y-10626960D01*
X11052205Y-10617436D02*
X11061729Y-10626960D01*
X11061729Y-10626960D02*
X11052205Y-10636484D01*
X11052205Y-10636484D02*
X11042682Y-10626960D01*
X11042682Y-10626960D02*
X11052205Y-10617436D01*
X11052205Y-10617436D02*
X11052205Y-10636484D01*
X11052205Y-10512674D02*
X11061729Y-10522198D01*
X11061729Y-10522198D02*
X11052205Y-10531722D01*
X11052205Y-10531722D02*
X11042682Y-10522198D01*
X11042682Y-10522198D02*
X11052205Y-10512674D01*
X11052205Y-10512674D02*
X11052205Y-10531722D01*
D10*
X9385000Y-10947500D02*
X9420000Y-10982500D01*
X9420000Y-10947500D02*
X9385000Y-10982500D01*
D11*
X9718872Y-10856484D02*
X9737920Y-10856484D01*
X9737920Y-10856484D02*
X9756967Y-10866008D01*
X9756967Y-10866008D02*
X9766491Y-10875531D01*
X9766491Y-10875531D02*
X9776015Y-10894579D01*
X9776015Y-10894579D02*
X9785539Y-10932674D01*
X9785539Y-10932674D02*
X9785539Y-10980293D01*
X9785539Y-10980293D02*
X9776015Y-11018389D01*
X9776015Y-11018389D02*
X9766491Y-11037436D01*
X9766491Y-11037436D02*
X9756967Y-11046960D01*
X9756967Y-11046960D02*
X9737920Y-11056484D01*
X9737920Y-11056484D02*
X9718872Y-11056484D01*
X9718872Y-11056484D02*
X9699824Y-11046960D01*
X9699824Y-11046960D02*
X9690301Y-11037436D01*
X9690301Y-11037436D02*
X9680777Y-11018389D01*
X9680777Y-11018389D02*
X9671253Y-10980293D01*
X9671253Y-10980293D02*
X9671253Y-10932674D01*
X9671253Y-10932674D02*
X9680777Y-10894579D01*
X9680777Y-10894579D02*
X9690301Y-10875531D01*
X9690301Y-10875531D02*
X9699824Y-10866008D01*
X9699824Y-10866008D02*
X9718872Y-10856484D01*
X9871253Y-11037436D02*
X9880777Y-11046960D01*
X9880777Y-11046960D02*
X9871253Y-11056484D01*
X9871253Y-11056484D02*
X9861729Y-11046960D01*
X9861729Y-11046960D02*
X9871253Y-11037436D01*
X9871253Y-11037436D02*
X9871253Y-11056484D01*
X9947444Y-10856484D02*
X10071253Y-10856484D01*
X10071253Y-10856484D02*
X10004586Y-10932674D01*
X10004586Y-10932674D02*
X10033158Y-10932674D01*
X10033158Y-10932674D02*
X10052205Y-10942198D01*
X10052205Y-10942198D02*
X10061729Y-10951722D01*
X10061729Y-10951722D02*
X10071253Y-10970770D01*
X10071253Y-10970770D02*
X10071253Y-11018389D01*
X10071253Y-11018389D02*
X10061729Y-11037436D01*
X10061729Y-11037436D02*
X10052205Y-11046960D01*
X10052205Y-11046960D02*
X10033158Y-11056484D01*
X10033158Y-11056484D02*
X9976015Y-11056484D01*
X9976015Y-11056484D02*
X9956967Y-11046960D01*
X9956967Y-11046960D02*
X9947444Y-11037436D01*
X10252205Y-10856484D02*
X10156967Y-10856484D01*
X10156967Y-10856484D02*
X10147444Y-10951722D01*
X10147444Y-10951722D02*
X10156967Y-10942198D01*
X10156967Y-10942198D02*
X10176015Y-10932674D01*
X10176015Y-10932674D02*
X10223634Y-10932674D01*
X10223634Y-10932674D02*
X10242682Y-10942198D01*
X10242682Y-10942198D02*
X10252205Y-10951722D01*
X10252205Y-10951722D02*
X10261729Y-10970770D01*
X10261729Y-10970770D02*
X10261729Y-11018389D01*
X10261729Y-11018389D02*
X10252205Y-11037436D01*
X10252205Y-11037436D02*
X10242682Y-11046960D01*
X10242682Y-11046960D02*
X10223634Y-11056484D01*
X10223634Y-11056484D02*
X10176015Y-11056484D01*
X10176015Y-11056484D02*
X10156967Y-11046960D01*
X10156967Y-11046960D02*
X10147444Y-11037436D01*
X10385539Y-10856484D02*
X10404586Y-10856484D01*
X10404586Y-10856484D02*
X10423634Y-10866008D01*
X10423634Y-10866008D02*
X10433158Y-10875531D01*
X10433158Y-10875531D02*
X10442682Y-10894579D01*
X10442682Y-10894579D02*
X10452205Y-10932674D01*
X10452205Y-10932674D02*
X10452205Y-10980293D01*
X10452205Y-10980293D02*
X10442682Y-11018389D01*
X10442682Y-11018389D02*
X10433158Y-11037436D01*
X10433158Y-11037436D02*
X10423634Y-11046960D01*
X10423634Y-11046960D02*
X10404586Y-11056484D01*
X10404586Y-11056484D02*
X10385539Y-11056484D01*
X10385539Y-11056484D02*
X10366491Y-11046960D01*
X10366491Y-11046960D02*
X10356967Y-11037436D01*
X10356967Y-11037436D02*
X10347444Y-11018389D01*
X10347444Y-11018389D02*
X10337920Y-10980293D01*
X10337920Y-10980293D02*
X10337920Y-10932674D01*
X10337920Y-10932674D02*
X10347444Y-10894579D01*
X10347444Y-10894579D02*
X10356967Y-10875531D01*
X10356967Y-10875531D02*
X10366491Y-10866008D01*
X10366491Y-10866008D02*
X10385539Y-10856484D01*
X10537920Y-11056484D02*
X10537920Y-10923150D01*
X10537920Y-10942198D02*
X10547444Y-10932674D01*
X10547444Y-10932674D02*
X10566491Y-10923150D01*
X10566491Y-10923150D02*
X10595063Y-10923150D01*
X10595063Y-10923150D02*
X10614110Y-10932674D01*
X10614110Y-10932674D02*
X10623634Y-10951722D01*
X10623634Y-10951722D02*
X10623634Y-11056484D01*
X10623634Y-10951722D02*
X10633158Y-10932674D01*
X10633158Y-10932674D02*
X10652205Y-10923150D01*
X10652205Y-10923150D02*
X10680777Y-10923150D01*
X10680777Y-10923150D02*
X10699825Y-10932674D01*
X10699825Y-10932674D02*
X10709348Y-10951722D01*
X10709348Y-10951722D02*
X10709348Y-11056484D01*
X10804586Y-11056484D02*
X10804586Y-10923150D01*
X10804586Y-10942198D02*
X10814110Y-10932674D01*
X10814110Y-10932674D02*
X10833158Y-10923150D01*
X10833158Y-10923150D02*
X10861729Y-10923150D01*
X10861729Y-10923150D02*
X10880777Y-10932674D01*
X10880777Y-10932674D02*
X10890301Y-10951722D01*
X10890301Y-10951722D02*
X10890301Y-11056484D01*
X10890301Y-10951722D02*
X10899825Y-10932674D01*
X10899825Y-10932674D02*
X10918872Y-10923150D01*
X10918872Y-10923150D02*
X10947444Y-10923150D01*
X10947444Y-10923150D02*
X10966491Y-10932674D01*
X10966491Y-10932674D02*
X10976015Y-10951722D01*
X10976015Y-10951722D02*
X10976015Y-11056484D01*
X11366491Y-10846960D02*
X11195063Y-11104103D01*
X11623634Y-10856484D02*
X11642682Y-10856484D01*
X11642682Y-10856484D02*
X11661729Y-10866008D01*
X11661729Y-10866008D02*
X11671253Y-10875531D01*
X11671253Y-10875531D02*
X11680777Y-10894579D01*
X11680777Y-10894579D02*
X11690301Y-10932674D01*
X11690301Y-10932674D02*
X11690301Y-10980293D01*
X11690301Y-10980293D02*
X11680777Y-11018389D01*
X11680777Y-11018389D02*
X11671253Y-11037436D01*
X11671253Y-11037436D02*
X11661729Y-11046960D01*
X11661729Y-11046960D02*
X11642682Y-11056484D01*
X11642682Y-11056484D02*
X11623634Y-11056484D01*
X11623634Y-11056484D02*
X11604586Y-11046960D01*
X11604586Y-11046960D02*
X11595063Y-11037436D01*
X11595063Y-11037436D02*
X11585539Y-11018389D01*
X11585539Y-11018389D02*
X11576015Y-10980293D01*
X11576015Y-10980293D02*
X11576015Y-10932674D01*
X11576015Y-10932674D02*
X11585539Y-10894579D01*
X11585539Y-10894579D02*
X11595063Y-10875531D01*
X11595063Y-10875531D02*
X11604586Y-10866008D01*
X11604586Y-10866008D02*
X11623634Y-10856484D01*
X11776015Y-11037436D02*
X11785539Y-11046960D01*
X11785539Y-11046960D02*
X11776015Y-11056484D01*
X11776015Y-11056484D02*
X11766491Y-11046960D01*
X11766491Y-11046960D02*
X11776015Y-11037436D01*
X11776015Y-11037436D02*
X11776015Y-11056484D01*
X11909348Y-10856484D02*
X11928396Y-10856484D01*
X11928396Y-10856484D02*
X11947444Y-10866008D01*
X11947444Y-10866008D02*
X11956967Y-10875531D01*
X11956967Y-10875531D02*
X11966491Y-10894579D01*
X11966491Y-10894579D02*
X11976015Y-10932674D01*
X11976015Y-10932674D02*
X11976015Y-10980293D01*
X11976015Y-10980293D02*
X11966491Y-11018389D01*
X11966491Y-11018389D02*
X11956967Y-11037436D01*
X11956967Y-11037436D02*
X11947444Y-11046960D01*
X11947444Y-11046960D02*
X11928396Y-11056484D01*
X11928396Y-11056484D02*
X11909348Y-11056484D01*
X11909348Y-11056484D02*
X11890301Y-11046960D01*
X11890301Y-11046960D02*
X11880777Y-11037436D01*
X11880777Y-11037436D02*
X11871253Y-11018389D01*
X11871253Y-11018389D02*
X11861729Y-10980293D01*
X11861729Y-10980293D02*
X11861729Y-10932674D01*
X11861729Y-10932674D02*
X11871253Y-10894579D01*
X11871253Y-10894579D02*
X11880777Y-10875531D01*
X11880777Y-10875531D02*
X11890301Y-10866008D01*
X11890301Y-10866008D02*
X11909348Y-10856484D01*
X12166491Y-11056484D02*
X12052206Y-11056484D01*
X12109348Y-11056484D02*
X12109348Y-10856484D01*
X12109348Y-10856484D02*
X12090301Y-10885055D01*
X12090301Y-10885055D02*
X12071253Y-10904103D01*
X12071253Y-10904103D02*
X12052206Y-10913627D01*
X12233158Y-10856484D02*
X12356967Y-10856484D01*
X12356967Y-10856484D02*
X12290301Y-10932674D01*
X12290301Y-10932674D02*
X12318872Y-10932674D01*
X12318872Y-10932674D02*
X12337920Y-10942198D01*
X12337920Y-10942198D02*
X12347444Y-10951722D01*
X12347444Y-10951722D02*
X12356967Y-10970770D01*
X12356967Y-10970770D02*
X12356967Y-11018389D01*
X12356967Y-11018389D02*
X12347444Y-11037436D01*
X12347444Y-11037436D02*
X12337920Y-11046960D01*
X12337920Y-11046960D02*
X12318872Y-11056484D01*
X12318872Y-11056484D02*
X12261729Y-11056484D01*
X12261729Y-11056484D02*
X12242682Y-11046960D01*
X12242682Y-11046960D02*
X12233158Y-11037436D01*
X12471253Y-10942198D02*
X12452206Y-10932674D01*
X12452206Y-10932674D02*
X12442682Y-10923150D01*
X12442682Y-10923150D02*
X12433158Y-10904103D01*
X12433158Y-10904103D02*
X12433158Y-10894579D01*
X12433158Y-10894579D02*
X12442682Y-10875531D01*
X12442682Y-10875531D02*
X12452206Y-10866008D01*
X12452206Y-10866008D02*
X12471253Y-10856484D01*
X12471253Y-10856484D02*
X12509348Y-10856484D01*
X12509348Y-10856484D02*
X12528396Y-10866008D01*
X12528396Y-10866008D02*
X12537920Y-10875531D01*
X12537920Y-10875531D02*
X12547444Y-10894579D01*
X12547444Y-10894579D02*
X12547444Y-10904103D01*
X12547444Y-10904103D02*
X12537920Y-10923150D01*
X12537920Y-10923150D02*
X12528396Y-10932674D01*
X12528396Y-10932674D02*
X12509348Y-10942198D01*
X12509348Y-10942198D02*
X12471253Y-10942198D01*
X12471253Y-10942198D02*
X12452206Y-10951722D01*
X12452206Y-10951722D02*
X12442682Y-10961246D01*
X12442682Y-10961246D02*
X12433158Y-10980293D01*
X12433158Y-10980293D02*
X12433158Y-11018389D01*
X12433158Y-11018389D02*
X12442682Y-11037436D01*
X12442682Y-11037436D02*
X12452206Y-11046960D01*
X12452206Y-11046960D02*
X12471253Y-11056484D01*
X12471253Y-11056484D02*
X12509348Y-11056484D01*
X12509348Y-11056484D02*
X12528396Y-11046960D01*
X12528396Y-11046960D02*
X12537920Y-11037436D01*
X12537920Y-11037436D02*
X12547444Y-11018389D01*
X12547444Y-11018389D02*
X12547444Y-10980293D01*
X12547444Y-10980293D02*
X12537920Y-10961246D01*
X12537920Y-10961246D02*
X12528396Y-10951722D01*
X12528396Y-10951722D02*
X12509348Y-10942198D01*
X12623634Y-10856484D02*
X12623634Y-10894579D01*
X12699825Y-10856484D02*
X12699825Y-10894579D01*
X12995063Y-11132674D02*
X12985539Y-11123150D01*
X12985539Y-11123150D02*
X12966491Y-11094579D01*
X12966491Y-11094579D02*
X12956968Y-11075531D01*
X12956968Y-11075531D02*
X12947444Y-11046960D01*
X12947444Y-11046960D02*
X12937920Y-10999341D01*
X12937920Y-10999341D02*
X12937920Y-10961246D01*
X12937920Y-10961246D02*
X12947444Y-10913627D01*
X12947444Y-10913627D02*
X12956968Y-10885055D01*
X12956968Y-10885055D02*
X12966491Y-10866008D01*
X12966491Y-10866008D02*
X12985539Y-10837436D01*
X12985539Y-10837436D02*
X12995063Y-10827912D01*
X13052206Y-10856484D02*
X13185539Y-10856484D01*
X13185539Y-10856484D02*
X13099825Y-11056484D01*
X13414110Y-11056484D02*
X13414110Y-10856484D01*
X13499825Y-11056484D02*
X13499825Y-10951722D01*
X13499825Y-10951722D02*
X13490301Y-10932674D01*
X13490301Y-10932674D02*
X13471253Y-10923150D01*
X13471253Y-10923150D02*
X13442682Y-10923150D01*
X13442682Y-10923150D02*
X13423634Y-10932674D01*
X13423634Y-10932674D02*
X13414110Y-10942198D01*
X13623634Y-11056484D02*
X13604587Y-11046960D01*
X13604587Y-11046960D02*
X13595063Y-11037436D01*
X13595063Y-11037436D02*
X13585539Y-11018389D01*
X13585539Y-11018389D02*
X13585539Y-10961246D01*
X13585539Y-10961246D02*
X13595063Y-10942198D01*
X13595063Y-10942198D02*
X13604587Y-10932674D01*
X13604587Y-10932674D02*
X13623634Y-10923150D01*
X13623634Y-10923150D02*
X13652206Y-10923150D01*
X13652206Y-10923150D02*
X13671253Y-10932674D01*
X13671253Y-10932674D02*
X13680777Y-10942198D01*
X13680777Y-10942198D02*
X13690301Y-10961246D01*
X13690301Y-10961246D02*
X13690301Y-11018389D01*
X13690301Y-11018389D02*
X13680777Y-11037436D01*
X13680777Y-11037436D02*
X13671253Y-11046960D01*
X13671253Y-11046960D02*
X13652206Y-11056484D01*
X13652206Y-11056484D02*
X13623634Y-11056484D01*
X13804587Y-11056484D02*
X13785539Y-11046960D01*
X13785539Y-11046960D02*
X13776015Y-11027912D01*
X13776015Y-11027912D02*
X13776015Y-10856484D01*
X13956968Y-11046960D02*
X13937920Y-11056484D01*
X13937920Y-11056484D02*
X13899825Y-11056484D01*
X13899825Y-11056484D02*
X13880777Y-11046960D01*
X13880777Y-11046960D02*
X13871253Y-11027912D01*
X13871253Y-11027912D02*
X13871253Y-10951722D01*
X13871253Y-10951722D02*
X13880777Y-10932674D01*
X13880777Y-10932674D02*
X13899825Y-10923150D01*
X13899825Y-10923150D02*
X13937920Y-10923150D01*
X13937920Y-10923150D02*
X13956968Y-10932674D01*
X13956968Y-10932674D02*
X13966491Y-10951722D01*
X13966491Y-10951722D02*
X13966491Y-10970770D01*
X13966491Y-10970770D02*
X13871253Y-10989817D01*
X14042682Y-11046960D02*
X14061730Y-11056484D01*
X14061730Y-11056484D02*
X14099825Y-11056484D01*
X14099825Y-11056484D02*
X14118872Y-11046960D01*
X14118872Y-11046960D02*
X14128396Y-11027912D01*
X14128396Y-11027912D02*
X14128396Y-11018389D01*
X14128396Y-11018389D02*
X14118872Y-10999341D01*
X14118872Y-10999341D02*
X14099825Y-10989817D01*
X14099825Y-10989817D02*
X14071253Y-10989817D01*
X14071253Y-10989817D02*
X14052206Y-10980293D01*
X14052206Y-10980293D02*
X14042682Y-10961246D01*
X14042682Y-10961246D02*
X14042682Y-10951722D01*
X14042682Y-10951722D02*
X14052206Y-10932674D01*
X14052206Y-10932674D02*
X14071253Y-10923150D01*
X14071253Y-10923150D02*
X14099825Y-10923150D01*
X14099825Y-10923150D02*
X14118872Y-10932674D01*
X14195063Y-11132674D02*
X14204587Y-11123150D01*
X14204587Y-11123150D02*
X14223634Y-11094579D01*
X14223634Y-11094579D02*
X14233158Y-11075531D01*
X14233158Y-11075531D02*
X14242682Y-11046960D01*
X14242682Y-11046960D02*
X14252206Y-10999341D01*
X14252206Y-10999341D02*
X14252206Y-10961246D01*
X14252206Y-10961246D02*
X14242682Y-10913627D01*
X14242682Y-10913627D02*
X14233158Y-10885055D01*
X14233158Y-10885055D02*
X14223634Y-10866008D01*
X14223634Y-10866008D02*
X14204587Y-10837436D01*
X14204587Y-10837436D02*
X14195063Y-10827912D01*
D10*
X9420000Y-11229000D02*
G75*
G02*
X9380000Y-11229000I-20000J0D01*
G01*
X9380000Y-11229000D02*
G75*
G02*
X9420000Y-11229000I20000J0D01*
G01*
D11*
X9718872Y-11120484D02*
X9737920Y-11120484D01*
X9737920Y-11120484D02*
X9756967Y-11130008D01*
X9756967Y-11130008D02*
X9766491Y-11139531D01*
X9766491Y-11139531D02*
X9776015Y-11158579D01*
X9776015Y-11158579D02*
X9785539Y-11196674D01*
X9785539Y-11196674D02*
X9785539Y-11244293D01*
X9785539Y-11244293D02*
X9776015Y-11282388D01*
X9776015Y-11282388D02*
X9766491Y-11301436D01*
X9766491Y-11301436D02*
X9756967Y-11310960D01*
X9756967Y-11310960D02*
X9737920Y-11320484D01*
X9737920Y-11320484D02*
X9718872Y-11320484D01*
X9718872Y-11320484D02*
X9699824Y-11310960D01*
X9699824Y-11310960D02*
X9690301Y-11301436D01*
X9690301Y-11301436D02*
X9680777Y-11282388D01*
X9680777Y-11282388D02*
X9671253Y-11244293D01*
X9671253Y-11244293D02*
X9671253Y-11196674D01*
X9671253Y-11196674D02*
X9680777Y-11158579D01*
X9680777Y-11158579D02*
X9690301Y-11139531D01*
X9690301Y-11139531D02*
X9699824Y-11130008D01*
X9699824Y-11130008D02*
X9718872Y-11120484D01*
X9871253Y-11301436D02*
X9880777Y-11310960D01*
X9880777Y-11310960D02*
X9871253Y-11320484D01*
X9871253Y-11320484D02*
X9861729Y-11310960D01*
X9861729Y-11310960D02*
X9871253Y-11301436D01*
X9871253Y-11301436D02*
X9871253Y-11320484D01*
X10052205Y-11187150D02*
X10052205Y-11320484D01*
X10004586Y-11110960D02*
X9956967Y-11253817D01*
X9956967Y-11253817D02*
X10080777Y-11253817D01*
X10195063Y-11120484D02*
X10214110Y-11120484D01*
X10214110Y-11120484D02*
X10233158Y-11130008D01*
X10233158Y-11130008D02*
X10242682Y-11139531D01*
X10242682Y-11139531D02*
X10252205Y-11158579D01*
X10252205Y-11158579D02*
X10261729Y-11196674D01*
X10261729Y-11196674D02*
X10261729Y-11244293D01*
X10261729Y-11244293D02*
X10252205Y-11282388D01*
X10252205Y-11282388D02*
X10242682Y-11301436D01*
X10242682Y-11301436D02*
X10233158Y-11310960D01*
X10233158Y-11310960D02*
X10214110Y-11320484D01*
X10214110Y-11320484D02*
X10195063Y-11320484D01*
X10195063Y-11320484D02*
X10176015Y-11310960D01*
X10176015Y-11310960D02*
X10166491Y-11301436D01*
X10166491Y-11301436D02*
X10156967Y-11282388D01*
X10156967Y-11282388D02*
X10147444Y-11244293D01*
X10147444Y-11244293D02*
X10147444Y-11196674D01*
X10147444Y-11196674D02*
X10156967Y-11158579D01*
X10156967Y-11158579D02*
X10166491Y-11139531D01*
X10166491Y-11139531D02*
X10176015Y-11130008D01*
X10176015Y-11130008D02*
X10195063Y-11120484D01*
X10385539Y-11120484D02*
X10404586Y-11120484D01*
X10404586Y-11120484D02*
X10423634Y-11130008D01*
X10423634Y-11130008D02*
X10433158Y-11139531D01*
X10433158Y-11139531D02*
X10442682Y-11158579D01*
X10442682Y-11158579D02*
X10452205Y-11196674D01*
X10452205Y-11196674D02*
X10452205Y-11244293D01*
X10452205Y-11244293D02*
X10442682Y-11282388D01*
X10442682Y-11282388D02*
X10433158Y-11301436D01*
X10433158Y-11301436D02*
X10423634Y-11310960D01*
X10423634Y-11310960D02*
X10404586Y-11320484D01*
X10404586Y-11320484D02*
X10385539Y-11320484D01*
X10385539Y-11320484D02*
X10366491Y-11310960D01*
X10366491Y-11310960D02*
X10356967Y-11301436D01*
X10356967Y-11301436D02*
X10347444Y-11282388D01*
X10347444Y-11282388D02*
X10337920Y-11244293D01*
X10337920Y-11244293D02*
X10337920Y-11196674D01*
X10337920Y-11196674D02*
X10347444Y-11158579D01*
X10347444Y-11158579D02*
X10356967Y-11139531D01*
X10356967Y-11139531D02*
X10366491Y-11130008D01*
X10366491Y-11130008D02*
X10385539Y-11120484D01*
X10537920Y-11320484D02*
X10537920Y-11187150D01*
X10537920Y-11206198D02*
X10547444Y-11196674D01*
X10547444Y-11196674D02*
X10566491Y-11187150D01*
X10566491Y-11187150D02*
X10595063Y-11187150D01*
X10595063Y-11187150D02*
X10614110Y-11196674D01*
X10614110Y-11196674D02*
X10623634Y-11215722D01*
X10623634Y-11215722D02*
X10623634Y-11320484D01*
X10623634Y-11215722D02*
X10633158Y-11196674D01*
X10633158Y-11196674D02*
X10652205Y-11187150D01*
X10652205Y-11187150D02*
X10680777Y-11187150D01*
X10680777Y-11187150D02*
X10699825Y-11196674D01*
X10699825Y-11196674D02*
X10709348Y-11215722D01*
X10709348Y-11215722D02*
X10709348Y-11320484D01*
X10804586Y-11320484D02*
X10804586Y-11187150D01*
X10804586Y-11206198D02*
X10814110Y-11196674D01*
X10814110Y-11196674D02*
X10833158Y-11187150D01*
X10833158Y-11187150D02*
X10861729Y-11187150D01*
X10861729Y-11187150D02*
X10880777Y-11196674D01*
X10880777Y-11196674D02*
X10890301Y-11215722D01*
X10890301Y-11215722D02*
X10890301Y-11320484D01*
X10890301Y-11215722D02*
X10899825Y-11196674D01*
X10899825Y-11196674D02*
X10918872Y-11187150D01*
X10918872Y-11187150D02*
X10947444Y-11187150D01*
X10947444Y-11187150D02*
X10966491Y-11196674D01*
X10966491Y-11196674D02*
X10976015Y-11215722D01*
X10976015Y-11215722D02*
X10976015Y-11320484D01*
X11366491Y-11110960D02*
X11195063Y-11368103D01*
X11623634Y-11120484D02*
X11642682Y-11120484D01*
X11642682Y-11120484D02*
X11661729Y-11130008D01*
X11661729Y-11130008D02*
X11671253Y-11139531D01*
X11671253Y-11139531D02*
X11680777Y-11158579D01*
X11680777Y-11158579D02*
X11690301Y-11196674D01*
X11690301Y-11196674D02*
X11690301Y-11244293D01*
X11690301Y-11244293D02*
X11680777Y-11282388D01*
X11680777Y-11282388D02*
X11671253Y-11301436D01*
X11671253Y-11301436D02*
X11661729Y-11310960D01*
X11661729Y-11310960D02*
X11642682Y-11320484D01*
X11642682Y-11320484D02*
X11623634Y-11320484D01*
X11623634Y-11320484D02*
X11604586Y-11310960D01*
X11604586Y-11310960D02*
X11595063Y-11301436D01*
X11595063Y-11301436D02*
X11585539Y-11282388D01*
X11585539Y-11282388D02*
X11576015Y-11244293D01*
X11576015Y-11244293D02*
X11576015Y-11196674D01*
X11576015Y-11196674D02*
X11585539Y-11158579D01*
X11585539Y-11158579D02*
X11595063Y-11139531D01*
X11595063Y-11139531D02*
X11604586Y-11130008D01*
X11604586Y-11130008D02*
X11623634Y-11120484D01*
X11776015Y-11301436D02*
X11785539Y-11310960D01*
X11785539Y-11310960D02*
X11776015Y-11320484D01*
X11776015Y-11320484D02*
X11766491Y-11310960D01*
X11766491Y-11310960D02*
X11776015Y-11301436D01*
X11776015Y-11301436D02*
X11776015Y-11320484D01*
X11909348Y-11120484D02*
X11928396Y-11120484D01*
X11928396Y-11120484D02*
X11947444Y-11130008D01*
X11947444Y-11130008D02*
X11956967Y-11139531D01*
X11956967Y-11139531D02*
X11966491Y-11158579D01*
X11966491Y-11158579D02*
X11976015Y-11196674D01*
X11976015Y-11196674D02*
X11976015Y-11244293D01*
X11976015Y-11244293D02*
X11966491Y-11282388D01*
X11966491Y-11282388D02*
X11956967Y-11301436D01*
X11956967Y-11301436D02*
X11947444Y-11310960D01*
X11947444Y-11310960D02*
X11928396Y-11320484D01*
X11928396Y-11320484D02*
X11909348Y-11320484D01*
X11909348Y-11320484D02*
X11890301Y-11310960D01*
X11890301Y-11310960D02*
X11880777Y-11301436D01*
X11880777Y-11301436D02*
X11871253Y-11282388D01*
X11871253Y-11282388D02*
X11861729Y-11244293D01*
X11861729Y-11244293D02*
X11861729Y-11196674D01*
X11861729Y-11196674D02*
X11871253Y-11158579D01*
X11871253Y-11158579D02*
X11880777Y-11139531D01*
X11880777Y-11139531D02*
X11890301Y-11130008D01*
X11890301Y-11130008D02*
X11909348Y-11120484D01*
X12166491Y-11320484D02*
X12052206Y-11320484D01*
X12109348Y-11320484D02*
X12109348Y-11120484D01*
X12109348Y-11120484D02*
X12090301Y-11149055D01*
X12090301Y-11149055D02*
X12071253Y-11168103D01*
X12071253Y-11168103D02*
X12052206Y-11177627D01*
X12347444Y-11120484D02*
X12252206Y-11120484D01*
X12252206Y-11120484D02*
X12242682Y-11215722D01*
X12242682Y-11215722D02*
X12252206Y-11206198D01*
X12252206Y-11206198D02*
X12271253Y-11196674D01*
X12271253Y-11196674D02*
X12318872Y-11196674D01*
X12318872Y-11196674D02*
X12337920Y-11206198D01*
X12337920Y-11206198D02*
X12347444Y-11215722D01*
X12347444Y-11215722D02*
X12356967Y-11234769D01*
X12356967Y-11234769D02*
X12356967Y-11282388D01*
X12356967Y-11282388D02*
X12347444Y-11301436D01*
X12347444Y-11301436D02*
X12337920Y-11310960D01*
X12337920Y-11310960D02*
X12318872Y-11320484D01*
X12318872Y-11320484D02*
X12271253Y-11320484D01*
X12271253Y-11320484D02*
X12252206Y-11310960D01*
X12252206Y-11310960D02*
X12242682Y-11301436D01*
X12423634Y-11120484D02*
X12556967Y-11120484D01*
X12556967Y-11120484D02*
X12471253Y-11320484D01*
X12623634Y-11120484D02*
X12623634Y-11158579D01*
X12699825Y-11120484D02*
X12699825Y-11158579D01*
X12995063Y-11396674D02*
X12985539Y-11387150D01*
X12985539Y-11387150D02*
X12966491Y-11358579D01*
X12966491Y-11358579D02*
X12956968Y-11339531D01*
X12956968Y-11339531D02*
X12947444Y-11310960D01*
X12947444Y-11310960D02*
X12937920Y-11263341D01*
X12937920Y-11263341D02*
X12937920Y-11225246D01*
X12937920Y-11225246D02*
X12947444Y-11177627D01*
X12947444Y-11177627D02*
X12956968Y-11149055D01*
X12956968Y-11149055D02*
X12966491Y-11130008D01*
X12966491Y-11130008D02*
X12985539Y-11101436D01*
X12985539Y-11101436D02*
X12995063Y-11091912D01*
X13061729Y-11139531D02*
X13071253Y-11130008D01*
X13071253Y-11130008D02*
X13090301Y-11120484D01*
X13090301Y-11120484D02*
X13137920Y-11120484D01*
X13137920Y-11120484D02*
X13156968Y-11130008D01*
X13156968Y-11130008D02*
X13166491Y-11139531D01*
X13166491Y-11139531D02*
X13176015Y-11158579D01*
X13176015Y-11158579D02*
X13176015Y-11177627D01*
X13176015Y-11177627D02*
X13166491Y-11206198D01*
X13166491Y-11206198D02*
X13052206Y-11320484D01*
X13052206Y-11320484D02*
X13176015Y-11320484D01*
X13347444Y-11120484D02*
X13309348Y-11120484D01*
X13309348Y-11120484D02*
X13290301Y-11130008D01*
X13290301Y-11130008D02*
X13280777Y-11139531D01*
X13280777Y-11139531D02*
X13261729Y-11168103D01*
X13261729Y-11168103D02*
X13252206Y-11206198D01*
X13252206Y-11206198D02*
X13252206Y-11282388D01*
X13252206Y-11282388D02*
X13261729Y-11301436D01*
X13261729Y-11301436D02*
X13271253Y-11310960D01*
X13271253Y-11310960D02*
X13290301Y-11320484D01*
X13290301Y-11320484D02*
X13328396Y-11320484D01*
X13328396Y-11320484D02*
X13347444Y-11310960D01*
X13347444Y-11310960D02*
X13356968Y-11301436D01*
X13356968Y-11301436D02*
X13366491Y-11282388D01*
X13366491Y-11282388D02*
X13366491Y-11234769D01*
X13366491Y-11234769D02*
X13356968Y-11215722D01*
X13356968Y-11215722D02*
X13347444Y-11206198D01*
X13347444Y-11206198D02*
X13328396Y-11196674D01*
X13328396Y-11196674D02*
X13290301Y-11196674D01*
X13290301Y-11196674D02*
X13271253Y-11206198D01*
X13271253Y-11206198D02*
X13261729Y-11215722D01*
X13261729Y-11215722D02*
X13252206Y-11234769D01*
X13604587Y-11320484D02*
X13604587Y-11120484D01*
X13690301Y-11320484D02*
X13690301Y-11215722D01*
X13690301Y-11215722D02*
X13680777Y-11196674D01*
X13680777Y-11196674D02*
X13661730Y-11187150D01*
X13661730Y-11187150D02*
X13633158Y-11187150D01*
X13633158Y-11187150D02*
X13614110Y-11196674D01*
X13614110Y-11196674D02*
X13604587Y-11206198D01*
X13814110Y-11320484D02*
X13795063Y-11310960D01*
X13795063Y-11310960D02*
X13785539Y-11301436D01*
X13785539Y-11301436D02*
X13776015Y-11282388D01*
X13776015Y-11282388D02*
X13776015Y-11225246D01*
X13776015Y-11225246D02*
X13785539Y-11206198D01*
X13785539Y-11206198D02*
X13795063Y-11196674D01*
X13795063Y-11196674D02*
X13814110Y-11187150D01*
X13814110Y-11187150D02*
X13842682Y-11187150D01*
X13842682Y-11187150D02*
X13861730Y-11196674D01*
X13861730Y-11196674D02*
X13871253Y-11206198D01*
X13871253Y-11206198D02*
X13880777Y-11225246D01*
X13880777Y-11225246D02*
X13880777Y-11282388D01*
X13880777Y-11282388D02*
X13871253Y-11301436D01*
X13871253Y-11301436D02*
X13861730Y-11310960D01*
X13861730Y-11310960D02*
X13842682Y-11320484D01*
X13842682Y-11320484D02*
X13814110Y-11320484D01*
X13995063Y-11320484D02*
X13976015Y-11310960D01*
X13976015Y-11310960D02*
X13966491Y-11291912D01*
X13966491Y-11291912D02*
X13966491Y-11120484D01*
X14147444Y-11310960D02*
X14128396Y-11320484D01*
X14128396Y-11320484D02*
X14090301Y-11320484D01*
X14090301Y-11320484D02*
X14071253Y-11310960D01*
X14071253Y-11310960D02*
X14061730Y-11291912D01*
X14061730Y-11291912D02*
X14061730Y-11215722D01*
X14061730Y-11215722D02*
X14071253Y-11196674D01*
X14071253Y-11196674D02*
X14090301Y-11187150D01*
X14090301Y-11187150D02*
X14128396Y-11187150D01*
X14128396Y-11187150D02*
X14147444Y-11196674D01*
X14147444Y-11196674D02*
X14156968Y-11215722D01*
X14156968Y-11215722D02*
X14156968Y-11234769D01*
X14156968Y-11234769D02*
X14061730Y-11253817D01*
X14233158Y-11310960D02*
X14252206Y-11320484D01*
X14252206Y-11320484D02*
X14290301Y-11320484D01*
X14290301Y-11320484D02*
X14309349Y-11310960D01*
X14309349Y-11310960D02*
X14318872Y-11291912D01*
X14318872Y-11291912D02*
X14318872Y-11282388D01*
X14318872Y-11282388D02*
X14309349Y-11263341D01*
X14309349Y-11263341D02*
X14290301Y-11253817D01*
X14290301Y-11253817D02*
X14261730Y-11253817D01*
X14261730Y-11253817D02*
X14242682Y-11244293D01*
X14242682Y-11244293D02*
X14233158Y-11225246D01*
X14233158Y-11225246D02*
X14233158Y-11215722D01*
X14233158Y-11215722D02*
X14242682Y-11196674D01*
X14242682Y-11196674D02*
X14261730Y-11187150D01*
X14261730Y-11187150D02*
X14290301Y-11187150D01*
X14290301Y-11187150D02*
X14309349Y-11196674D01*
X14385539Y-11396674D02*
X14395063Y-11387150D01*
X14395063Y-11387150D02*
X14414111Y-11358579D01*
X14414111Y-11358579D02*
X14423634Y-11339531D01*
X14423634Y-11339531D02*
X14433158Y-11310960D01*
X14433158Y-11310960D02*
X14442682Y-11263341D01*
X14442682Y-11263341D02*
X14442682Y-11225246D01*
X14442682Y-11225246D02*
X14433158Y-11177627D01*
X14433158Y-11177627D02*
X14423634Y-11149055D01*
X14423634Y-11149055D02*
X14414111Y-11130008D01*
X14414111Y-11130008D02*
X14395063Y-11101436D01*
X14395063Y-11101436D02*
X14385539Y-11091912D01*
M02*
