%TF.GenerationSoftware,KiCad,Pcbnew,8.0.0~rc1-42d8c85f12~176~ubuntu22.04.1*%
%TF.CreationDate,2024-01-16T22:26:45+10:00*%
%TF.ProjectId,MXBreakout,4d584272-6561-46b6-9f75-742e6b696361,rev?*%
%TF.SameCoordinates,Original*%
%TF.FileFunction,Drillmap*%
%TF.FilePolarity,Positive*%
%FSLAX45Y45*%
G04 Gerber Fmt 4.5, Leading zero omitted, Abs format (unit mm)*
G04 Created by KiCad (PCBNEW 8.0.0~rc1-42d8c85f12~176~ubuntu22.04.1) date 2024-01-16 22:26:45*
%MOMM*%
%LPD*%
G01*
G04 APERTURE LIST*
%ADD10C,0.100000*%
%ADD11C,0.200000*%
G04 APERTURE END LIST*
D10*
X12215000Y-8880000D02*
X12215000Y-9140000D01*
X13225000Y-8600000D02*
X13195000Y-8600000D01*
X11985000Y-7490000D02*
X10785000Y-7490000D01*
X10655000Y-8570000D02*
X10325000Y-8900000D01*
X13195000Y-8755000D02*
X13045000Y-8755000D01*
X12215000Y-8880000D02*
X12305000Y-8790000D01*
X8930000Y-10247500D02*
X8930000Y-9287500D01*
X13045000Y-8505000D02*
X13195000Y-8505000D01*
X10540000Y-10227500D02*
X10450000Y-10317500D01*
X13260000Y-8790000D02*
X12305000Y-8790000D01*
X13195000Y-8710000D02*
X13195000Y-8755000D01*
X13647508Y-8222492D02*
X13587508Y-8162492D01*
X9000000Y-10317500D02*
X8930000Y-10247500D01*
X10785000Y-7490000D02*
X10655000Y-7620000D01*
X13647508Y-8402492D02*
X13647508Y-8222492D01*
X11980000Y-9375000D02*
X12215000Y-9140000D01*
X10540000Y-9535000D02*
X10700000Y-9375000D01*
X13225000Y-8660000D02*
X13225000Y-8600000D01*
X9696250Y-9207500D02*
X9010000Y-9207500D01*
X13195000Y-8660000D02*
X13225000Y-8660000D01*
X8930000Y-9287500D02*
X9010000Y-9207500D01*
X13260000Y-8790000D02*
X13647508Y-8402492D01*
X13045000Y-8755000D02*
X13045000Y-8505000D01*
X10325000Y-8900000D02*
X10003750Y-8900000D01*
X10003750Y-8900000D02*
X9696250Y-9207500D01*
X11985000Y-7490000D02*
X12657500Y-8162500D01*
X13587508Y-8162492D02*
X12657500Y-8162500D01*
X13195000Y-8505000D02*
X13195000Y-8550000D01*
X13195000Y-8600000D02*
X13195000Y-8550000D01*
X10450000Y-10317500D02*
X9000000Y-10317500D01*
X13195000Y-8710000D02*
X13195000Y-8660000D01*
X10540000Y-9535000D02*
X10540000Y-10227500D01*
X11980000Y-9375000D02*
X10700000Y-9375000D01*
X10655000Y-7620000D02*
X10655000Y-8570000D01*
D11*
D10*
X12000000Y-7703500D02*
X12030000Y-7733500D01*
X12030000Y-7703500D02*
X12000000Y-7733500D01*
X12000000Y-7830000D02*
X12030000Y-7860000D01*
X12030000Y-7830000D02*
X12000000Y-7860000D01*
X12000000Y-7957500D02*
X12030000Y-7987500D01*
X12030000Y-7957500D02*
X12000000Y-7987500D01*
X9277500Y-9345000D02*
G75*
G02*
X9237500Y-9345000I-20000J0D01*
G01*
X9237500Y-9345000D02*
G75*
G02*
X9277500Y-9345000I20000J0D01*
G01*
X9770000Y-9250000D02*
G75*
G02*
X9730000Y-9250000I-20000J0D01*
G01*
X9730000Y-9250000D02*
G75*
G02*
X9770000Y-9250000I20000J0D01*
G01*
X10020000Y-9000000D02*
G75*
G02*
X9980000Y-9000000I-20000J0D01*
G01*
X9980000Y-9000000D02*
G75*
G02*
X10020000Y-9000000I20000J0D01*
G01*
X10520000Y-9500000D02*
G75*
G02*
X10480000Y-9500000I-20000J0D01*
G01*
X10480000Y-9500000D02*
G75*
G02*
X10520000Y-9500000I20000J0D01*
G01*
X10745000Y-8988500D02*
G75*
G02*
X10705000Y-8988500I-20000J0D01*
G01*
X10705000Y-8988500D02*
G75*
G02*
X10745000Y-8988500I20000J0D01*
G01*
X10770000Y-9250000D02*
G75*
G02*
X10730000Y-9250000I-20000J0D01*
G01*
X10730000Y-9250000D02*
G75*
G02*
X10770000Y-9250000I20000J0D01*
G01*
X11270000Y-7750000D02*
G75*
G02*
X11230000Y-7750000I-20000J0D01*
G01*
X11230000Y-7750000D02*
G75*
G02*
X11270000Y-7750000I20000J0D01*
G01*
X11270000Y-8000000D02*
G75*
G02*
X11230000Y-8000000I-20000J0D01*
G01*
X11230000Y-8000000D02*
G75*
G02*
X11270000Y-8000000I20000J0D01*
G01*
X11270000Y-8250000D02*
G75*
G02*
X11230000Y-8250000I-20000J0D01*
G01*
X11230000Y-8250000D02*
G75*
G02*
X11270000Y-8250000I20000J0D01*
G01*
X11270000Y-8500000D02*
G75*
G02*
X11230000Y-8500000I-20000J0D01*
G01*
X11230000Y-8500000D02*
G75*
G02*
X11270000Y-8500000I20000J0D01*
G01*
X11270000Y-8750000D02*
G75*
G02*
X11230000Y-8750000I-20000J0D01*
G01*
X11230000Y-8750000D02*
G75*
G02*
X11270000Y-8750000I20000J0D01*
G01*
X11270000Y-9000000D02*
G75*
G02*
X11230000Y-9000000I-20000J0D01*
G01*
X11230000Y-9000000D02*
G75*
G02*
X11270000Y-9000000I20000J0D01*
G01*
X11270000Y-9250000D02*
G75*
G02*
X11230000Y-9250000I-20000J0D01*
G01*
X11230000Y-9250000D02*
G75*
G02*
X11270000Y-9250000I20000J0D01*
G01*
X11519920Y-9249920D02*
G75*
G02*
X11479920Y-9249920I-20000J0D01*
G01*
X11479920Y-9249920D02*
G75*
G02*
X11519920Y-9249920I20000J0D01*
G01*
X11520000Y-7750000D02*
G75*
G02*
X11480000Y-7750000I-20000J0D01*
G01*
X11480000Y-7750000D02*
G75*
G02*
X11520000Y-7750000I20000J0D01*
G01*
X11520000Y-8000000D02*
G75*
G02*
X11480000Y-8000000I-20000J0D01*
G01*
X11480000Y-8000000D02*
G75*
G02*
X11520000Y-8000000I20000J0D01*
G01*
X11520000Y-8250000D02*
G75*
G02*
X11480000Y-8250000I-20000J0D01*
G01*
X11480000Y-8250000D02*
G75*
G02*
X11520000Y-8250000I20000J0D01*
G01*
X11520000Y-8500000D02*
G75*
G02*
X11480000Y-8500000I-20000J0D01*
G01*
X11480000Y-8500000D02*
G75*
G02*
X11520000Y-8500000I20000J0D01*
G01*
X11520000Y-8750000D02*
G75*
G02*
X11480000Y-8750000I-20000J0D01*
G01*
X11480000Y-8750000D02*
G75*
G02*
X11520000Y-8750000I20000J0D01*
G01*
X11520000Y-9000000D02*
G75*
G02*
X11480000Y-9000000I-20000J0D01*
G01*
X11480000Y-9000000D02*
G75*
G02*
X11520000Y-9000000I20000J0D01*
G01*
X12770000Y-8250000D02*
G75*
G02*
X12730000Y-8250000I-20000J0D01*
G01*
X12730000Y-8250000D02*
G75*
G02*
X12770000Y-8250000I20000J0D01*
G01*
X13020000Y-8250000D02*
G75*
G02*
X12980000Y-8250000I-20000J0D01*
G01*
X12980000Y-8250000D02*
G75*
G02*
X13020000Y-8250000I20000J0D01*
G01*
X9000000Y-9480000D02*
X9000000Y-9520000D01*
X8980000Y-9500000D02*
X9020000Y-9500000D01*
X9000000Y-9605000D02*
X9000000Y-9645000D01*
X8980000Y-9625000D02*
X9020000Y-9625000D01*
X9000000Y-9730000D02*
X9000000Y-9770000D01*
X8980000Y-9750000D02*
X9020000Y-9750000D01*
X9000000Y-9855000D02*
X9000000Y-9895000D01*
X8980000Y-9875000D02*
X9020000Y-9875000D01*
X9000000Y-9980000D02*
X9000000Y-10020000D01*
X8980000Y-10000000D02*
X9020000Y-10000000D01*
X9250000Y-10230000D02*
X9250000Y-10270000D01*
X9230000Y-10250000D02*
X9270000Y-10250000D01*
X9375000Y-10230000D02*
X9375000Y-10270000D01*
X9355000Y-10250000D02*
X9395000Y-10250000D01*
X9500000Y-10230000D02*
X9500000Y-10270000D01*
X9480000Y-10250000D02*
X9520000Y-10250000D01*
X10250000Y-10230000D02*
X10250000Y-10270000D01*
X10230000Y-10250000D02*
X10270000Y-10250000D01*
X10375000Y-10230000D02*
X10375000Y-10270000D01*
X10355000Y-10250000D02*
X10395000Y-10250000D01*
X12300000Y-8580000D02*
X12300000Y-8620000D01*
X12280000Y-8600000D02*
X12320000Y-8600000D01*
X12400000Y-8380000D02*
X12400000Y-8420000D01*
X12380000Y-8400000D02*
X12420000Y-8400000D01*
X12400000Y-8477500D02*
X12400000Y-8517500D01*
X12380000Y-8497500D02*
X12420000Y-8497500D01*
X12875000Y-8477500D02*
X12875000Y-8517500D01*
X12855000Y-8497500D02*
X12895000Y-8497500D01*
X12950000Y-8477500D02*
X12950000Y-8517500D01*
X12930000Y-8497500D02*
X12970000Y-8497500D01*
X13410000Y-8340000D02*
X13410000Y-8380000D01*
X13390000Y-8360000D02*
X13430000Y-8360000D01*
X13560000Y-8340000D02*
X13560000Y-8380000D01*
X13540000Y-8360000D02*
X13580000Y-8360000D01*
X9026517Y-9526517D02*
X9026517Y-9473483D01*
X8973483Y-9473483D01*
X8973483Y-9526517D01*
X9026517Y-9526517D01*
X9026517Y-9651517D02*
X9026517Y-9598483D01*
X8973483Y-9598483D01*
X8973483Y-9651517D01*
X9026517Y-9651517D01*
X9026517Y-9776517D02*
X9026517Y-9723483D01*
X8973483Y-9723483D01*
X8973483Y-9776517D01*
X9026517Y-9776517D01*
X9026517Y-9901517D02*
X9026517Y-9848483D01*
X8973483Y-9848483D01*
X8973483Y-9901517D01*
X9026517Y-9901517D01*
X9026517Y-10026517D02*
X9026517Y-9973483D01*
X8973483Y-9973483D01*
X8973483Y-10026517D01*
X9026517Y-10026517D01*
X9276517Y-10276517D02*
X9276517Y-10223483D01*
X9223483Y-10223483D01*
X9223483Y-10276517D01*
X9276517Y-10276517D01*
X9401517Y-10276517D02*
X9401517Y-10223483D01*
X9348483Y-10223483D01*
X9348483Y-10276517D01*
X9401517Y-10276517D01*
X9526517Y-10276517D02*
X9526517Y-10223483D01*
X9473483Y-10223483D01*
X9473483Y-10276517D01*
X9526517Y-10276517D01*
X10276517Y-10276517D02*
X10276517Y-10223483D01*
X10223483Y-10223483D01*
X10223483Y-10276517D01*
X10276517Y-10276517D01*
X10401517Y-10276517D02*
X10401517Y-10223483D01*
X10348483Y-10223483D01*
X10348483Y-10276517D01*
X10401517Y-10276517D01*
D11*
X9185777Y-10633984D02*
X9185777Y-10433984D01*
X9185777Y-10433984D02*
X9233396Y-10433984D01*
X9233396Y-10433984D02*
X9261967Y-10443508D01*
X9261967Y-10443508D02*
X9281015Y-10462555D01*
X9281015Y-10462555D02*
X9290539Y-10481603D01*
X9290539Y-10481603D02*
X9300063Y-10519698D01*
X9300063Y-10519698D02*
X9300063Y-10548270D01*
X9300063Y-10548270D02*
X9290539Y-10586365D01*
X9290539Y-10586365D02*
X9281015Y-10605412D01*
X9281015Y-10605412D02*
X9261967Y-10624460D01*
X9261967Y-10624460D02*
X9233396Y-10633984D01*
X9233396Y-10633984D02*
X9185777Y-10633984D01*
X9385777Y-10633984D02*
X9385777Y-10500650D01*
X9385777Y-10538746D02*
X9395301Y-10519698D01*
X9395301Y-10519698D02*
X9404824Y-10510174D01*
X9404824Y-10510174D02*
X9423872Y-10500650D01*
X9423872Y-10500650D02*
X9442920Y-10500650D01*
X9509586Y-10633984D02*
X9509586Y-10500650D01*
X9509586Y-10433984D02*
X9500063Y-10443508D01*
X9500063Y-10443508D02*
X9509586Y-10453031D01*
X9509586Y-10453031D02*
X9519110Y-10443508D01*
X9519110Y-10443508D02*
X9509586Y-10433984D01*
X9509586Y-10433984D02*
X9509586Y-10453031D01*
X9633396Y-10633984D02*
X9614348Y-10624460D01*
X9614348Y-10624460D02*
X9604824Y-10605412D01*
X9604824Y-10605412D02*
X9604824Y-10433984D01*
X9738158Y-10633984D02*
X9719110Y-10624460D01*
X9719110Y-10624460D02*
X9709586Y-10605412D01*
X9709586Y-10605412D02*
X9709586Y-10433984D01*
X9966729Y-10633984D02*
X9966729Y-10433984D01*
X9966729Y-10433984D02*
X10033396Y-10576841D01*
X10033396Y-10576841D02*
X10100063Y-10433984D01*
X10100063Y-10433984D02*
X10100063Y-10633984D01*
X10281015Y-10633984D02*
X10281015Y-10529222D01*
X10281015Y-10529222D02*
X10271491Y-10510174D01*
X10271491Y-10510174D02*
X10252444Y-10500650D01*
X10252444Y-10500650D02*
X10214348Y-10500650D01*
X10214348Y-10500650D02*
X10195301Y-10510174D01*
X10281015Y-10624460D02*
X10261967Y-10633984D01*
X10261967Y-10633984D02*
X10214348Y-10633984D01*
X10214348Y-10633984D02*
X10195301Y-10624460D01*
X10195301Y-10624460D02*
X10185777Y-10605412D01*
X10185777Y-10605412D02*
X10185777Y-10586365D01*
X10185777Y-10586365D02*
X10195301Y-10567317D01*
X10195301Y-10567317D02*
X10214348Y-10557793D01*
X10214348Y-10557793D02*
X10261967Y-10557793D01*
X10261967Y-10557793D02*
X10281015Y-10548270D01*
X10376253Y-10500650D02*
X10376253Y-10700650D01*
X10376253Y-10510174D02*
X10395301Y-10500650D01*
X10395301Y-10500650D02*
X10433396Y-10500650D01*
X10433396Y-10500650D02*
X10452444Y-10510174D01*
X10452444Y-10510174D02*
X10461967Y-10519698D01*
X10461967Y-10519698D02*
X10471491Y-10538746D01*
X10471491Y-10538746D02*
X10471491Y-10595889D01*
X10471491Y-10595889D02*
X10461967Y-10614936D01*
X10461967Y-10614936D02*
X10452444Y-10624460D01*
X10452444Y-10624460D02*
X10433396Y-10633984D01*
X10433396Y-10633984D02*
X10395301Y-10633984D01*
X10395301Y-10633984D02*
X10376253Y-10624460D01*
X10557205Y-10614936D02*
X10566729Y-10624460D01*
X10566729Y-10624460D02*
X10557205Y-10633984D01*
X10557205Y-10633984D02*
X10547682Y-10624460D01*
X10547682Y-10624460D02*
X10557205Y-10614936D01*
X10557205Y-10614936D02*
X10557205Y-10633984D01*
X10557205Y-10510174D02*
X10566729Y-10519698D01*
X10566729Y-10519698D02*
X10557205Y-10529222D01*
X10557205Y-10529222D02*
X10547682Y-10519698D01*
X10547682Y-10519698D02*
X10557205Y-10510174D01*
X10557205Y-10510174D02*
X10557205Y-10529222D01*
D10*
X8895000Y-10947500D02*
X8925000Y-10977500D01*
X8925000Y-10947500D02*
X8895000Y-10977500D01*
D11*
X9223872Y-10853984D02*
X9242920Y-10853984D01*
X9242920Y-10853984D02*
X9261967Y-10863508D01*
X9261967Y-10863508D02*
X9271491Y-10873031D01*
X9271491Y-10873031D02*
X9281015Y-10892079D01*
X9281015Y-10892079D02*
X9290539Y-10930174D01*
X9290539Y-10930174D02*
X9290539Y-10977793D01*
X9290539Y-10977793D02*
X9281015Y-11015889D01*
X9281015Y-11015889D02*
X9271491Y-11034936D01*
X9271491Y-11034936D02*
X9261967Y-11044460D01*
X9261967Y-11044460D02*
X9242920Y-11053984D01*
X9242920Y-11053984D02*
X9223872Y-11053984D01*
X9223872Y-11053984D02*
X9204824Y-11044460D01*
X9204824Y-11044460D02*
X9195301Y-11034936D01*
X9195301Y-11034936D02*
X9185777Y-11015889D01*
X9185777Y-11015889D02*
X9176253Y-10977793D01*
X9176253Y-10977793D02*
X9176253Y-10930174D01*
X9176253Y-10930174D02*
X9185777Y-10892079D01*
X9185777Y-10892079D02*
X9195301Y-10873031D01*
X9195301Y-10873031D02*
X9204824Y-10863508D01*
X9204824Y-10863508D02*
X9223872Y-10853984D01*
X9376253Y-11034936D02*
X9385777Y-11044460D01*
X9385777Y-11044460D02*
X9376253Y-11053984D01*
X9376253Y-11053984D02*
X9366729Y-11044460D01*
X9366729Y-11044460D02*
X9376253Y-11034936D01*
X9376253Y-11034936D02*
X9376253Y-11053984D01*
X9452444Y-10853984D02*
X9576253Y-10853984D01*
X9576253Y-10853984D02*
X9509586Y-10930174D01*
X9509586Y-10930174D02*
X9538158Y-10930174D01*
X9538158Y-10930174D02*
X9557205Y-10939698D01*
X9557205Y-10939698D02*
X9566729Y-10949222D01*
X9566729Y-10949222D02*
X9576253Y-10968270D01*
X9576253Y-10968270D02*
X9576253Y-11015889D01*
X9576253Y-11015889D02*
X9566729Y-11034936D01*
X9566729Y-11034936D02*
X9557205Y-11044460D01*
X9557205Y-11044460D02*
X9538158Y-11053984D01*
X9538158Y-11053984D02*
X9481015Y-11053984D01*
X9481015Y-11053984D02*
X9461967Y-11044460D01*
X9461967Y-11044460D02*
X9452444Y-11034936D01*
X9700063Y-10853984D02*
X9719110Y-10853984D01*
X9719110Y-10853984D02*
X9738158Y-10863508D01*
X9738158Y-10863508D02*
X9747682Y-10873031D01*
X9747682Y-10873031D02*
X9757205Y-10892079D01*
X9757205Y-10892079D02*
X9766729Y-10930174D01*
X9766729Y-10930174D02*
X9766729Y-10977793D01*
X9766729Y-10977793D02*
X9757205Y-11015889D01*
X9757205Y-11015889D02*
X9747682Y-11034936D01*
X9747682Y-11034936D02*
X9738158Y-11044460D01*
X9738158Y-11044460D02*
X9719110Y-11053984D01*
X9719110Y-11053984D02*
X9700063Y-11053984D01*
X9700063Y-11053984D02*
X9681015Y-11044460D01*
X9681015Y-11044460D02*
X9671491Y-11034936D01*
X9671491Y-11034936D02*
X9661967Y-11015889D01*
X9661967Y-11015889D02*
X9652444Y-10977793D01*
X9652444Y-10977793D02*
X9652444Y-10930174D01*
X9652444Y-10930174D02*
X9661967Y-10892079D01*
X9661967Y-10892079D02*
X9671491Y-10873031D01*
X9671491Y-10873031D02*
X9681015Y-10863508D01*
X9681015Y-10863508D02*
X9700063Y-10853984D01*
X9890539Y-10853984D02*
X9909586Y-10853984D01*
X9909586Y-10853984D02*
X9928634Y-10863508D01*
X9928634Y-10863508D02*
X9938158Y-10873031D01*
X9938158Y-10873031D02*
X9947682Y-10892079D01*
X9947682Y-10892079D02*
X9957205Y-10930174D01*
X9957205Y-10930174D02*
X9957205Y-10977793D01*
X9957205Y-10977793D02*
X9947682Y-11015889D01*
X9947682Y-11015889D02*
X9938158Y-11034936D01*
X9938158Y-11034936D02*
X9928634Y-11044460D01*
X9928634Y-11044460D02*
X9909586Y-11053984D01*
X9909586Y-11053984D02*
X9890539Y-11053984D01*
X9890539Y-11053984D02*
X9871491Y-11044460D01*
X9871491Y-11044460D02*
X9861967Y-11034936D01*
X9861967Y-11034936D02*
X9852444Y-11015889D01*
X9852444Y-11015889D02*
X9842920Y-10977793D01*
X9842920Y-10977793D02*
X9842920Y-10930174D01*
X9842920Y-10930174D02*
X9852444Y-10892079D01*
X9852444Y-10892079D02*
X9861967Y-10873031D01*
X9861967Y-10873031D02*
X9871491Y-10863508D01*
X9871491Y-10863508D02*
X9890539Y-10853984D01*
X10042920Y-11053984D02*
X10042920Y-10920650D01*
X10042920Y-10939698D02*
X10052444Y-10930174D01*
X10052444Y-10930174D02*
X10071491Y-10920650D01*
X10071491Y-10920650D02*
X10100063Y-10920650D01*
X10100063Y-10920650D02*
X10119110Y-10930174D01*
X10119110Y-10930174D02*
X10128634Y-10949222D01*
X10128634Y-10949222D02*
X10128634Y-11053984D01*
X10128634Y-10949222D02*
X10138158Y-10930174D01*
X10138158Y-10930174D02*
X10157205Y-10920650D01*
X10157205Y-10920650D02*
X10185777Y-10920650D01*
X10185777Y-10920650D02*
X10204825Y-10930174D01*
X10204825Y-10930174D02*
X10214348Y-10949222D01*
X10214348Y-10949222D02*
X10214348Y-11053984D01*
X10309586Y-11053984D02*
X10309586Y-10920650D01*
X10309586Y-10939698D02*
X10319110Y-10930174D01*
X10319110Y-10930174D02*
X10338158Y-10920650D01*
X10338158Y-10920650D02*
X10366729Y-10920650D01*
X10366729Y-10920650D02*
X10385777Y-10930174D01*
X10385777Y-10930174D02*
X10395301Y-10949222D01*
X10395301Y-10949222D02*
X10395301Y-11053984D01*
X10395301Y-10949222D02*
X10404825Y-10930174D01*
X10404825Y-10930174D02*
X10423872Y-10920650D01*
X10423872Y-10920650D02*
X10452444Y-10920650D01*
X10452444Y-10920650D02*
X10471491Y-10930174D01*
X10471491Y-10930174D02*
X10481015Y-10949222D01*
X10481015Y-10949222D02*
X10481015Y-11053984D01*
X10871491Y-10844460D02*
X10700063Y-11101603D01*
X11128634Y-10853984D02*
X11147682Y-10853984D01*
X11147682Y-10853984D02*
X11166729Y-10863508D01*
X11166729Y-10863508D02*
X11176253Y-10873031D01*
X11176253Y-10873031D02*
X11185777Y-10892079D01*
X11185777Y-10892079D02*
X11195301Y-10930174D01*
X11195301Y-10930174D02*
X11195301Y-10977793D01*
X11195301Y-10977793D02*
X11185777Y-11015889D01*
X11185777Y-11015889D02*
X11176253Y-11034936D01*
X11176253Y-11034936D02*
X11166729Y-11044460D01*
X11166729Y-11044460D02*
X11147682Y-11053984D01*
X11147682Y-11053984D02*
X11128634Y-11053984D01*
X11128634Y-11053984D02*
X11109587Y-11044460D01*
X11109587Y-11044460D02*
X11100063Y-11034936D01*
X11100063Y-11034936D02*
X11090539Y-11015889D01*
X11090539Y-11015889D02*
X11081015Y-10977793D01*
X11081015Y-10977793D02*
X11081015Y-10930174D01*
X11081015Y-10930174D02*
X11090539Y-10892079D01*
X11090539Y-10892079D02*
X11100063Y-10873031D01*
X11100063Y-10873031D02*
X11109587Y-10863508D01*
X11109587Y-10863508D02*
X11128634Y-10853984D01*
X11281015Y-11034936D02*
X11290539Y-11044460D01*
X11290539Y-11044460D02*
X11281015Y-11053984D01*
X11281015Y-11053984D02*
X11271491Y-11044460D01*
X11271491Y-11044460D02*
X11281015Y-11034936D01*
X11281015Y-11034936D02*
X11281015Y-11053984D01*
X11414348Y-10853984D02*
X11433396Y-10853984D01*
X11433396Y-10853984D02*
X11452444Y-10863508D01*
X11452444Y-10863508D02*
X11461967Y-10873031D01*
X11461967Y-10873031D02*
X11471491Y-10892079D01*
X11471491Y-10892079D02*
X11481015Y-10930174D01*
X11481015Y-10930174D02*
X11481015Y-10977793D01*
X11481015Y-10977793D02*
X11471491Y-11015889D01*
X11471491Y-11015889D02*
X11461967Y-11034936D01*
X11461967Y-11034936D02*
X11452444Y-11044460D01*
X11452444Y-11044460D02*
X11433396Y-11053984D01*
X11433396Y-11053984D02*
X11414348Y-11053984D01*
X11414348Y-11053984D02*
X11395301Y-11044460D01*
X11395301Y-11044460D02*
X11385777Y-11034936D01*
X11385777Y-11034936D02*
X11376253Y-11015889D01*
X11376253Y-11015889D02*
X11366729Y-10977793D01*
X11366729Y-10977793D02*
X11366729Y-10930174D01*
X11366729Y-10930174D02*
X11376253Y-10892079D01*
X11376253Y-10892079D02*
X11385777Y-10873031D01*
X11385777Y-10873031D02*
X11395301Y-10863508D01*
X11395301Y-10863508D02*
X11414348Y-10853984D01*
X11671491Y-11053984D02*
X11557206Y-11053984D01*
X11614348Y-11053984D02*
X11614348Y-10853984D01*
X11614348Y-10853984D02*
X11595301Y-10882555D01*
X11595301Y-10882555D02*
X11576253Y-10901603D01*
X11576253Y-10901603D02*
X11557206Y-10911127D01*
X11861967Y-11053984D02*
X11747682Y-11053984D01*
X11804825Y-11053984D02*
X11804825Y-10853984D01*
X11804825Y-10853984D02*
X11785777Y-10882555D01*
X11785777Y-10882555D02*
X11766729Y-10901603D01*
X11766729Y-10901603D02*
X11747682Y-10911127D01*
X11976253Y-10939698D02*
X11957206Y-10930174D01*
X11957206Y-10930174D02*
X11947682Y-10920650D01*
X11947682Y-10920650D02*
X11938158Y-10901603D01*
X11938158Y-10901603D02*
X11938158Y-10892079D01*
X11938158Y-10892079D02*
X11947682Y-10873031D01*
X11947682Y-10873031D02*
X11957206Y-10863508D01*
X11957206Y-10863508D02*
X11976253Y-10853984D01*
X11976253Y-10853984D02*
X12014348Y-10853984D01*
X12014348Y-10853984D02*
X12033396Y-10863508D01*
X12033396Y-10863508D02*
X12042920Y-10873031D01*
X12042920Y-10873031D02*
X12052444Y-10892079D01*
X12052444Y-10892079D02*
X12052444Y-10901603D01*
X12052444Y-10901603D02*
X12042920Y-10920650D01*
X12042920Y-10920650D02*
X12033396Y-10930174D01*
X12033396Y-10930174D02*
X12014348Y-10939698D01*
X12014348Y-10939698D02*
X11976253Y-10939698D01*
X11976253Y-10939698D02*
X11957206Y-10949222D01*
X11957206Y-10949222D02*
X11947682Y-10958746D01*
X11947682Y-10958746D02*
X11938158Y-10977793D01*
X11938158Y-10977793D02*
X11938158Y-11015889D01*
X11938158Y-11015889D02*
X11947682Y-11034936D01*
X11947682Y-11034936D02*
X11957206Y-11044460D01*
X11957206Y-11044460D02*
X11976253Y-11053984D01*
X11976253Y-11053984D02*
X12014348Y-11053984D01*
X12014348Y-11053984D02*
X12033396Y-11044460D01*
X12033396Y-11044460D02*
X12042920Y-11034936D01*
X12042920Y-11034936D02*
X12052444Y-11015889D01*
X12052444Y-11015889D02*
X12052444Y-10977793D01*
X12052444Y-10977793D02*
X12042920Y-10958746D01*
X12042920Y-10958746D02*
X12033396Y-10949222D01*
X12033396Y-10949222D02*
X12014348Y-10939698D01*
X12128634Y-10853984D02*
X12128634Y-10892079D01*
X12204825Y-10853984D02*
X12204825Y-10892079D01*
X12500063Y-11130174D02*
X12490539Y-11120650D01*
X12490539Y-11120650D02*
X12471491Y-11092079D01*
X12471491Y-11092079D02*
X12461968Y-11073031D01*
X12461968Y-11073031D02*
X12452444Y-11044460D01*
X12452444Y-11044460D02*
X12442920Y-10996841D01*
X12442920Y-10996841D02*
X12442920Y-10958746D01*
X12442920Y-10958746D02*
X12452444Y-10911127D01*
X12452444Y-10911127D02*
X12461968Y-10882555D01*
X12461968Y-10882555D02*
X12471491Y-10863508D01*
X12471491Y-10863508D02*
X12490539Y-10834936D01*
X12490539Y-10834936D02*
X12500063Y-10825412D01*
X12557206Y-10853984D02*
X12681015Y-10853984D01*
X12681015Y-10853984D02*
X12614348Y-10930174D01*
X12614348Y-10930174D02*
X12642920Y-10930174D01*
X12642920Y-10930174D02*
X12661968Y-10939698D01*
X12661968Y-10939698D02*
X12671491Y-10949222D01*
X12671491Y-10949222D02*
X12681015Y-10968270D01*
X12681015Y-10968270D02*
X12681015Y-11015889D01*
X12681015Y-11015889D02*
X12671491Y-11034936D01*
X12671491Y-11034936D02*
X12661968Y-11044460D01*
X12661968Y-11044460D02*
X12642920Y-11053984D01*
X12642920Y-11053984D02*
X12585777Y-11053984D01*
X12585777Y-11053984D02*
X12566729Y-11044460D01*
X12566729Y-11044460D02*
X12557206Y-11034936D01*
X12919110Y-11053984D02*
X12919110Y-10853984D01*
X13004825Y-11053984D02*
X13004825Y-10949222D01*
X13004825Y-10949222D02*
X12995301Y-10930174D01*
X12995301Y-10930174D02*
X12976253Y-10920650D01*
X12976253Y-10920650D02*
X12947682Y-10920650D01*
X12947682Y-10920650D02*
X12928634Y-10930174D01*
X12928634Y-10930174D02*
X12919110Y-10939698D01*
X13128634Y-11053984D02*
X13109587Y-11044460D01*
X13109587Y-11044460D02*
X13100063Y-11034936D01*
X13100063Y-11034936D02*
X13090539Y-11015889D01*
X13090539Y-11015889D02*
X13090539Y-10958746D01*
X13090539Y-10958746D02*
X13100063Y-10939698D01*
X13100063Y-10939698D02*
X13109587Y-10930174D01*
X13109587Y-10930174D02*
X13128634Y-10920650D01*
X13128634Y-10920650D02*
X13157206Y-10920650D01*
X13157206Y-10920650D02*
X13176253Y-10930174D01*
X13176253Y-10930174D02*
X13185777Y-10939698D01*
X13185777Y-10939698D02*
X13195301Y-10958746D01*
X13195301Y-10958746D02*
X13195301Y-11015889D01*
X13195301Y-11015889D02*
X13185777Y-11034936D01*
X13185777Y-11034936D02*
X13176253Y-11044460D01*
X13176253Y-11044460D02*
X13157206Y-11053984D01*
X13157206Y-11053984D02*
X13128634Y-11053984D01*
X13309587Y-11053984D02*
X13290539Y-11044460D01*
X13290539Y-11044460D02*
X13281015Y-11025412D01*
X13281015Y-11025412D02*
X13281015Y-10853984D01*
X13461968Y-11044460D02*
X13442920Y-11053984D01*
X13442920Y-11053984D02*
X13404825Y-11053984D01*
X13404825Y-11053984D02*
X13385777Y-11044460D01*
X13385777Y-11044460D02*
X13376253Y-11025412D01*
X13376253Y-11025412D02*
X13376253Y-10949222D01*
X13376253Y-10949222D02*
X13385777Y-10930174D01*
X13385777Y-10930174D02*
X13404825Y-10920650D01*
X13404825Y-10920650D02*
X13442920Y-10920650D01*
X13442920Y-10920650D02*
X13461968Y-10930174D01*
X13461968Y-10930174D02*
X13471491Y-10949222D01*
X13471491Y-10949222D02*
X13471491Y-10968270D01*
X13471491Y-10968270D02*
X13376253Y-10987317D01*
X13547682Y-11044460D02*
X13566730Y-11053984D01*
X13566730Y-11053984D02*
X13604825Y-11053984D01*
X13604825Y-11053984D02*
X13623872Y-11044460D01*
X13623872Y-11044460D02*
X13633396Y-11025412D01*
X13633396Y-11025412D02*
X13633396Y-11015889D01*
X13633396Y-11015889D02*
X13623872Y-10996841D01*
X13623872Y-10996841D02*
X13604825Y-10987317D01*
X13604825Y-10987317D02*
X13576253Y-10987317D01*
X13576253Y-10987317D02*
X13557206Y-10977793D01*
X13557206Y-10977793D02*
X13547682Y-10958746D01*
X13547682Y-10958746D02*
X13547682Y-10949222D01*
X13547682Y-10949222D02*
X13557206Y-10930174D01*
X13557206Y-10930174D02*
X13576253Y-10920650D01*
X13576253Y-10920650D02*
X13604825Y-10920650D01*
X13604825Y-10920650D02*
X13623872Y-10930174D01*
X13700063Y-11130174D02*
X13709587Y-11120650D01*
X13709587Y-11120650D02*
X13728634Y-11092079D01*
X13728634Y-11092079D02*
X13738158Y-11073031D01*
X13738158Y-11073031D02*
X13747682Y-11044460D01*
X13747682Y-11044460D02*
X13757206Y-10996841D01*
X13757206Y-10996841D02*
X13757206Y-10958746D01*
X13757206Y-10958746D02*
X13747682Y-10911127D01*
X13747682Y-10911127D02*
X13738158Y-10882555D01*
X13738158Y-10882555D02*
X13728634Y-10863508D01*
X13728634Y-10863508D02*
X13709587Y-10834936D01*
X13709587Y-10834936D02*
X13700063Y-10825412D01*
D10*
X8925000Y-11226500D02*
G75*
G02*
X8885000Y-11226500I-20000J0D01*
G01*
X8885000Y-11226500D02*
G75*
G02*
X8925000Y-11226500I20000J0D01*
G01*
D11*
X9223872Y-11117984D02*
X9242920Y-11117984D01*
X9242920Y-11117984D02*
X9261967Y-11127508D01*
X9261967Y-11127508D02*
X9271491Y-11137031D01*
X9271491Y-11137031D02*
X9281015Y-11156079D01*
X9281015Y-11156079D02*
X9290539Y-11194174D01*
X9290539Y-11194174D02*
X9290539Y-11241793D01*
X9290539Y-11241793D02*
X9281015Y-11279888D01*
X9281015Y-11279888D02*
X9271491Y-11298936D01*
X9271491Y-11298936D02*
X9261967Y-11308460D01*
X9261967Y-11308460D02*
X9242920Y-11317984D01*
X9242920Y-11317984D02*
X9223872Y-11317984D01*
X9223872Y-11317984D02*
X9204824Y-11308460D01*
X9204824Y-11308460D02*
X9195301Y-11298936D01*
X9195301Y-11298936D02*
X9185777Y-11279888D01*
X9185777Y-11279888D02*
X9176253Y-11241793D01*
X9176253Y-11241793D02*
X9176253Y-11194174D01*
X9176253Y-11194174D02*
X9185777Y-11156079D01*
X9185777Y-11156079D02*
X9195301Y-11137031D01*
X9195301Y-11137031D02*
X9204824Y-11127508D01*
X9204824Y-11127508D02*
X9223872Y-11117984D01*
X9376253Y-11298936D02*
X9385777Y-11308460D01*
X9385777Y-11308460D02*
X9376253Y-11317984D01*
X9376253Y-11317984D02*
X9366729Y-11308460D01*
X9366729Y-11308460D02*
X9376253Y-11298936D01*
X9376253Y-11298936D02*
X9376253Y-11317984D01*
X9557205Y-11184650D02*
X9557205Y-11317984D01*
X9509586Y-11108460D02*
X9461967Y-11251317D01*
X9461967Y-11251317D02*
X9585777Y-11251317D01*
X9700063Y-11117984D02*
X9719110Y-11117984D01*
X9719110Y-11117984D02*
X9738158Y-11127508D01*
X9738158Y-11127508D02*
X9747682Y-11137031D01*
X9747682Y-11137031D02*
X9757205Y-11156079D01*
X9757205Y-11156079D02*
X9766729Y-11194174D01*
X9766729Y-11194174D02*
X9766729Y-11241793D01*
X9766729Y-11241793D02*
X9757205Y-11279888D01*
X9757205Y-11279888D02*
X9747682Y-11298936D01*
X9747682Y-11298936D02*
X9738158Y-11308460D01*
X9738158Y-11308460D02*
X9719110Y-11317984D01*
X9719110Y-11317984D02*
X9700063Y-11317984D01*
X9700063Y-11317984D02*
X9681015Y-11308460D01*
X9681015Y-11308460D02*
X9671491Y-11298936D01*
X9671491Y-11298936D02*
X9661967Y-11279888D01*
X9661967Y-11279888D02*
X9652444Y-11241793D01*
X9652444Y-11241793D02*
X9652444Y-11194174D01*
X9652444Y-11194174D02*
X9661967Y-11156079D01*
X9661967Y-11156079D02*
X9671491Y-11137031D01*
X9671491Y-11137031D02*
X9681015Y-11127508D01*
X9681015Y-11127508D02*
X9700063Y-11117984D01*
X9890539Y-11117984D02*
X9909586Y-11117984D01*
X9909586Y-11117984D02*
X9928634Y-11127508D01*
X9928634Y-11127508D02*
X9938158Y-11137031D01*
X9938158Y-11137031D02*
X9947682Y-11156079D01*
X9947682Y-11156079D02*
X9957205Y-11194174D01*
X9957205Y-11194174D02*
X9957205Y-11241793D01*
X9957205Y-11241793D02*
X9947682Y-11279888D01*
X9947682Y-11279888D02*
X9938158Y-11298936D01*
X9938158Y-11298936D02*
X9928634Y-11308460D01*
X9928634Y-11308460D02*
X9909586Y-11317984D01*
X9909586Y-11317984D02*
X9890539Y-11317984D01*
X9890539Y-11317984D02*
X9871491Y-11308460D01*
X9871491Y-11308460D02*
X9861967Y-11298936D01*
X9861967Y-11298936D02*
X9852444Y-11279888D01*
X9852444Y-11279888D02*
X9842920Y-11241793D01*
X9842920Y-11241793D02*
X9842920Y-11194174D01*
X9842920Y-11194174D02*
X9852444Y-11156079D01*
X9852444Y-11156079D02*
X9861967Y-11137031D01*
X9861967Y-11137031D02*
X9871491Y-11127508D01*
X9871491Y-11127508D02*
X9890539Y-11117984D01*
X10042920Y-11317984D02*
X10042920Y-11184650D01*
X10042920Y-11203698D02*
X10052444Y-11194174D01*
X10052444Y-11194174D02*
X10071491Y-11184650D01*
X10071491Y-11184650D02*
X10100063Y-11184650D01*
X10100063Y-11184650D02*
X10119110Y-11194174D01*
X10119110Y-11194174D02*
X10128634Y-11213222D01*
X10128634Y-11213222D02*
X10128634Y-11317984D01*
X10128634Y-11213222D02*
X10138158Y-11194174D01*
X10138158Y-11194174D02*
X10157205Y-11184650D01*
X10157205Y-11184650D02*
X10185777Y-11184650D01*
X10185777Y-11184650D02*
X10204825Y-11194174D01*
X10204825Y-11194174D02*
X10214348Y-11213222D01*
X10214348Y-11213222D02*
X10214348Y-11317984D01*
X10309586Y-11317984D02*
X10309586Y-11184650D01*
X10309586Y-11203698D02*
X10319110Y-11194174D01*
X10319110Y-11194174D02*
X10338158Y-11184650D01*
X10338158Y-11184650D02*
X10366729Y-11184650D01*
X10366729Y-11184650D02*
X10385777Y-11194174D01*
X10385777Y-11194174D02*
X10395301Y-11213222D01*
X10395301Y-11213222D02*
X10395301Y-11317984D01*
X10395301Y-11213222D02*
X10404825Y-11194174D01*
X10404825Y-11194174D02*
X10423872Y-11184650D01*
X10423872Y-11184650D02*
X10452444Y-11184650D01*
X10452444Y-11184650D02*
X10471491Y-11194174D01*
X10471491Y-11194174D02*
X10481015Y-11213222D01*
X10481015Y-11213222D02*
X10481015Y-11317984D01*
X10871491Y-11108460D02*
X10700063Y-11365603D01*
X11128634Y-11117984D02*
X11147682Y-11117984D01*
X11147682Y-11117984D02*
X11166729Y-11127508D01*
X11166729Y-11127508D02*
X11176253Y-11137031D01*
X11176253Y-11137031D02*
X11185777Y-11156079D01*
X11185777Y-11156079D02*
X11195301Y-11194174D01*
X11195301Y-11194174D02*
X11195301Y-11241793D01*
X11195301Y-11241793D02*
X11185777Y-11279888D01*
X11185777Y-11279888D02*
X11176253Y-11298936D01*
X11176253Y-11298936D02*
X11166729Y-11308460D01*
X11166729Y-11308460D02*
X11147682Y-11317984D01*
X11147682Y-11317984D02*
X11128634Y-11317984D01*
X11128634Y-11317984D02*
X11109587Y-11308460D01*
X11109587Y-11308460D02*
X11100063Y-11298936D01*
X11100063Y-11298936D02*
X11090539Y-11279888D01*
X11090539Y-11279888D02*
X11081015Y-11241793D01*
X11081015Y-11241793D02*
X11081015Y-11194174D01*
X11081015Y-11194174D02*
X11090539Y-11156079D01*
X11090539Y-11156079D02*
X11100063Y-11137031D01*
X11100063Y-11137031D02*
X11109587Y-11127508D01*
X11109587Y-11127508D02*
X11128634Y-11117984D01*
X11281015Y-11298936D02*
X11290539Y-11308460D01*
X11290539Y-11308460D02*
X11281015Y-11317984D01*
X11281015Y-11317984D02*
X11271491Y-11308460D01*
X11271491Y-11308460D02*
X11281015Y-11298936D01*
X11281015Y-11298936D02*
X11281015Y-11317984D01*
X11414348Y-11117984D02*
X11433396Y-11117984D01*
X11433396Y-11117984D02*
X11452444Y-11127508D01*
X11452444Y-11127508D02*
X11461967Y-11137031D01*
X11461967Y-11137031D02*
X11471491Y-11156079D01*
X11471491Y-11156079D02*
X11481015Y-11194174D01*
X11481015Y-11194174D02*
X11481015Y-11241793D01*
X11481015Y-11241793D02*
X11471491Y-11279888D01*
X11471491Y-11279888D02*
X11461967Y-11298936D01*
X11461967Y-11298936D02*
X11452444Y-11308460D01*
X11452444Y-11308460D02*
X11433396Y-11317984D01*
X11433396Y-11317984D02*
X11414348Y-11317984D01*
X11414348Y-11317984D02*
X11395301Y-11308460D01*
X11395301Y-11308460D02*
X11385777Y-11298936D01*
X11385777Y-11298936D02*
X11376253Y-11279888D01*
X11376253Y-11279888D02*
X11366729Y-11241793D01*
X11366729Y-11241793D02*
X11366729Y-11194174D01*
X11366729Y-11194174D02*
X11376253Y-11156079D01*
X11376253Y-11156079D02*
X11385777Y-11137031D01*
X11385777Y-11137031D02*
X11395301Y-11127508D01*
X11395301Y-11127508D02*
X11414348Y-11117984D01*
X11671491Y-11317984D02*
X11557206Y-11317984D01*
X11614348Y-11317984D02*
X11614348Y-11117984D01*
X11614348Y-11117984D02*
X11595301Y-11146555D01*
X11595301Y-11146555D02*
X11576253Y-11165603D01*
X11576253Y-11165603D02*
X11557206Y-11175127D01*
X11852444Y-11117984D02*
X11757206Y-11117984D01*
X11757206Y-11117984D02*
X11747682Y-11213222D01*
X11747682Y-11213222D02*
X11757206Y-11203698D01*
X11757206Y-11203698D02*
X11776253Y-11194174D01*
X11776253Y-11194174D02*
X11823872Y-11194174D01*
X11823872Y-11194174D02*
X11842920Y-11203698D01*
X11842920Y-11203698D02*
X11852444Y-11213222D01*
X11852444Y-11213222D02*
X11861967Y-11232269D01*
X11861967Y-11232269D02*
X11861967Y-11279888D01*
X11861967Y-11279888D02*
X11852444Y-11298936D01*
X11852444Y-11298936D02*
X11842920Y-11308460D01*
X11842920Y-11308460D02*
X11823872Y-11317984D01*
X11823872Y-11317984D02*
X11776253Y-11317984D01*
X11776253Y-11317984D02*
X11757206Y-11308460D01*
X11757206Y-11308460D02*
X11747682Y-11298936D01*
X11928634Y-11117984D02*
X12061967Y-11117984D01*
X12061967Y-11117984D02*
X11976253Y-11317984D01*
X12128634Y-11117984D02*
X12128634Y-11156079D01*
X12204825Y-11117984D02*
X12204825Y-11156079D01*
X12500063Y-11394174D02*
X12490539Y-11384650D01*
X12490539Y-11384650D02*
X12471491Y-11356079D01*
X12471491Y-11356079D02*
X12461968Y-11337031D01*
X12461968Y-11337031D02*
X12452444Y-11308460D01*
X12452444Y-11308460D02*
X12442920Y-11260841D01*
X12442920Y-11260841D02*
X12442920Y-11222746D01*
X12442920Y-11222746D02*
X12452444Y-11175127D01*
X12452444Y-11175127D02*
X12461968Y-11146555D01*
X12461968Y-11146555D02*
X12471491Y-11127508D01*
X12471491Y-11127508D02*
X12490539Y-11098936D01*
X12490539Y-11098936D02*
X12500063Y-11089412D01*
X12566729Y-11137031D02*
X12576253Y-11127508D01*
X12576253Y-11127508D02*
X12595301Y-11117984D01*
X12595301Y-11117984D02*
X12642920Y-11117984D01*
X12642920Y-11117984D02*
X12661968Y-11127508D01*
X12661968Y-11127508D02*
X12671491Y-11137031D01*
X12671491Y-11137031D02*
X12681015Y-11156079D01*
X12681015Y-11156079D02*
X12681015Y-11175127D01*
X12681015Y-11175127D02*
X12671491Y-11203698D01*
X12671491Y-11203698D02*
X12557206Y-11317984D01*
X12557206Y-11317984D02*
X12681015Y-11317984D01*
X12757206Y-11137031D02*
X12766729Y-11127508D01*
X12766729Y-11127508D02*
X12785777Y-11117984D01*
X12785777Y-11117984D02*
X12833396Y-11117984D01*
X12833396Y-11117984D02*
X12852444Y-11127508D01*
X12852444Y-11127508D02*
X12861968Y-11137031D01*
X12861968Y-11137031D02*
X12871491Y-11156079D01*
X12871491Y-11156079D02*
X12871491Y-11175127D01*
X12871491Y-11175127D02*
X12861968Y-11203698D01*
X12861968Y-11203698D02*
X12747682Y-11317984D01*
X12747682Y-11317984D02*
X12871491Y-11317984D01*
X13109587Y-11317984D02*
X13109587Y-11117984D01*
X13195301Y-11317984D02*
X13195301Y-11213222D01*
X13195301Y-11213222D02*
X13185777Y-11194174D01*
X13185777Y-11194174D02*
X13166730Y-11184650D01*
X13166730Y-11184650D02*
X13138158Y-11184650D01*
X13138158Y-11184650D02*
X13119110Y-11194174D01*
X13119110Y-11194174D02*
X13109587Y-11203698D01*
X13319110Y-11317984D02*
X13300063Y-11308460D01*
X13300063Y-11308460D02*
X13290539Y-11298936D01*
X13290539Y-11298936D02*
X13281015Y-11279888D01*
X13281015Y-11279888D02*
X13281015Y-11222746D01*
X13281015Y-11222746D02*
X13290539Y-11203698D01*
X13290539Y-11203698D02*
X13300063Y-11194174D01*
X13300063Y-11194174D02*
X13319110Y-11184650D01*
X13319110Y-11184650D02*
X13347682Y-11184650D01*
X13347682Y-11184650D02*
X13366730Y-11194174D01*
X13366730Y-11194174D02*
X13376253Y-11203698D01*
X13376253Y-11203698D02*
X13385777Y-11222746D01*
X13385777Y-11222746D02*
X13385777Y-11279888D01*
X13385777Y-11279888D02*
X13376253Y-11298936D01*
X13376253Y-11298936D02*
X13366730Y-11308460D01*
X13366730Y-11308460D02*
X13347682Y-11317984D01*
X13347682Y-11317984D02*
X13319110Y-11317984D01*
X13500063Y-11317984D02*
X13481015Y-11308460D01*
X13481015Y-11308460D02*
X13471491Y-11289412D01*
X13471491Y-11289412D02*
X13471491Y-11117984D01*
X13652444Y-11308460D02*
X13633396Y-11317984D01*
X13633396Y-11317984D02*
X13595301Y-11317984D01*
X13595301Y-11317984D02*
X13576253Y-11308460D01*
X13576253Y-11308460D02*
X13566730Y-11289412D01*
X13566730Y-11289412D02*
X13566730Y-11213222D01*
X13566730Y-11213222D02*
X13576253Y-11194174D01*
X13576253Y-11194174D02*
X13595301Y-11184650D01*
X13595301Y-11184650D02*
X13633396Y-11184650D01*
X13633396Y-11184650D02*
X13652444Y-11194174D01*
X13652444Y-11194174D02*
X13661968Y-11213222D01*
X13661968Y-11213222D02*
X13661968Y-11232269D01*
X13661968Y-11232269D02*
X13566730Y-11251317D01*
X13738158Y-11308460D02*
X13757206Y-11317984D01*
X13757206Y-11317984D02*
X13795301Y-11317984D01*
X13795301Y-11317984D02*
X13814349Y-11308460D01*
X13814349Y-11308460D02*
X13823872Y-11289412D01*
X13823872Y-11289412D02*
X13823872Y-11279888D01*
X13823872Y-11279888D02*
X13814349Y-11260841D01*
X13814349Y-11260841D02*
X13795301Y-11251317D01*
X13795301Y-11251317D02*
X13766730Y-11251317D01*
X13766730Y-11251317D02*
X13747682Y-11241793D01*
X13747682Y-11241793D02*
X13738158Y-11222746D01*
X13738158Y-11222746D02*
X13738158Y-11213222D01*
X13738158Y-11213222D02*
X13747682Y-11194174D01*
X13747682Y-11194174D02*
X13766730Y-11184650D01*
X13766730Y-11184650D02*
X13795301Y-11184650D01*
X13795301Y-11184650D02*
X13814349Y-11194174D01*
X13890539Y-11394174D02*
X13900063Y-11384650D01*
X13900063Y-11384650D02*
X13919111Y-11356079D01*
X13919111Y-11356079D02*
X13928634Y-11337031D01*
X13928634Y-11337031D02*
X13938158Y-11308460D01*
X13938158Y-11308460D02*
X13947682Y-11260841D01*
X13947682Y-11260841D02*
X13947682Y-11222746D01*
X13947682Y-11222746D02*
X13938158Y-11175127D01*
X13938158Y-11175127D02*
X13928634Y-11146555D01*
X13928634Y-11146555D02*
X13919111Y-11127508D01*
X13919111Y-11127508D02*
X13900063Y-11098936D01*
X13900063Y-11098936D02*
X13890539Y-11089412D01*
D10*
X8905000Y-11470500D02*
X8905000Y-11510500D01*
X8885000Y-11490500D02*
X8925000Y-11490500D01*
D11*
X9223872Y-11381984D02*
X9242920Y-11381984D01*
X9242920Y-11381984D02*
X9261967Y-11391508D01*
X9261967Y-11391508D02*
X9271491Y-11401031D01*
X9271491Y-11401031D02*
X9281015Y-11420079D01*
X9281015Y-11420079D02*
X9290539Y-11458174D01*
X9290539Y-11458174D02*
X9290539Y-11505793D01*
X9290539Y-11505793D02*
X9281015Y-11543888D01*
X9281015Y-11543888D02*
X9271491Y-11562936D01*
X9271491Y-11562936D02*
X9261967Y-11572460D01*
X9261967Y-11572460D02*
X9242920Y-11581984D01*
X9242920Y-11581984D02*
X9223872Y-11581984D01*
X9223872Y-11581984D02*
X9204824Y-11572460D01*
X9204824Y-11572460D02*
X9195301Y-11562936D01*
X9195301Y-11562936D02*
X9185777Y-11543888D01*
X9185777Y-11543888D02*
X9176253Y-11505793D01*
X9176253Y-11505793D02*
X9176253Y-11458174D01*
X9176253Y-11458174D02*
X9185777Y-11420079D01*
X9185777Y-11420079D02*
X9195301Y-11401031D01*
X9195301Y-11401031D02*
X9204824Y-11391508D01*
X9204824Y-11391508D02*
X9223872Y-11381984D01*
X9376253Y-11562936D02*
X9385777Y-11572460D01*
X9385777Y-11572460D02*
X9376253Y-11581984D01*
X9376253Y-11581984D02*
X9366729Y-11572460D01*
X9366729Y-11572460D02*
X9376253Y-11562936D01*
X9376253Y-11562936D02*
X9376253Y-11581984D01*
X9557205Y-11448650D02*
X9557205Y-11581984D01*
X9509586Y-11372460D02*
X9461967Y-11515317D01*
X9461967Y-11515317D02*
X9585777Y-11515317D01*
X9700063Y-11381984D02*
X9719110Y-11381984D01*
X9719110Y-11381984D02*
X9738158Y-11391508D01*
X9738158Y-11391508D02*
X9747682Y-11401031D01*
X9747682Y-11401031D02*
X9757205Y-11420079D01*
X9757205Y-11420079D02*
X9766729Y-11458174D01*
X9766729Y-11458174D02*
X9766729Y-11505793D01*
X9766729Y-11505793D02*
X9757205Y-11543888D01*
X9757205Y-11543888D02*
X9747682Y-11562936D01*
X9747682Y-11562936D02*
X9738158Y-11572460D01*
X9738158Y-11572460D02*
X9719110Y-11581984D01*
X9719110Y-11581984D02*
X9700063Y-11581984D01*
X9700063Y-11581984D02*
X9681015Y-11572460D01*
X9681015Y-11572460D02*
X9671491Y-11562936D01*
X9671491Y-11562936D02*
X9661967Y-11543888D01*
X9661967Y-11543888D02*
X9652444Y-11505793D01*
X9652444Y-11505793D02*
X9652444Y-11458174D01*
X9652444Y-11458174D02*
X9661967Y-11420079D01*
X9661967Y-11420079D02*
X9671491Y-11401031D01*
X9671491Y-11401031D02*
X9681015Y-11391508D01*
X9681015Y-11391508D02*
X9700063Y-11381984D01*
X9890539Y-11381984D02*
X9909586Y-11381984D01*
X9909586Y-11381984D02*
X9928634Y-11391508D01*
X9928634Y-11391508D02*
X9938158Y-11401031D01*
X9938158Y-11401031D02*
X9947682Y-11420079D01*
X9947682Y-11420079D02*
X9957205Y-11458174D01*
X9957205Y-11458174D02*
X9957205Y-11505793D01*
X9957205Y-11505793D02*
X9947682Y-11543888D01*
X9947682Y-11543888D02*
X9938158Y-11562936D01*
X9938158Y-11562936D02*
X9928634Y-11572460D01*
X9928634Y-11572460D02*
X9909586Y-11581984D01*
X9909586Y-11581984D02*
X9890539Y-11581984D01*
X9890539Y-11581984D02*
X9871491Y-11572460D01*
X9871491Y-11572460D02*
X9861967Y-11562936D01*
X9861967Y-11562936D02*
X9852444Y-11543888D01*
X9852444Y-11543888D02*
X9842920Y-11505793D01*
X9842920Y-11505793D02*
X9842920Y-11458174D01*
X9842920Y-11458174D02*
X9852444Y-11420079D01*
X9852444Y-11420079D02*
X9861967Y-11401031D01*
X9861967Y-11401031D02*
X9871491Y-11391508D01*
X9871491Y-11391508D02*
X9890539Y-11381984D01*
X10042920Y-11581984D02*
X10042920Y-11448650D01*
X10042920Y-11467698D02*
X10052444Y-11458174D01*
X10052444Y-11458174D02*
X10071491Y-11448650D01*
X10071491Y-11448650D02*
X10100063Y-11448650D01*
X10100063Y-11448650D02*
X10119110Y-11458174D01*
X10119110Y-11458174D02*
X10128634Y-11477222D01*
X10128634Y-11477222D02*
X10128634Y-11581984D01*
X10128634Y-11477222D02*
X10138158Y-11458174D01*
X10138158Y-11458174D02*
X10157205Y-11448650D01*
X10157205Y-11448650D02*
X10185777Y-11448650D01*
X10185777Y-11448650D02*
X10204825Y-11458174D01*
X10204825Y-11458174D02*
X10214348Y-11477222D01*
X10214348Y-11477222D02*
X10214348Y-11581984D01*
X10309586Y-11581984D02*
X10309586Y-11448650D01*
X10309586Y-11467698D02*
X10319110Y-11458174D01*
X10319110Y-11458174D02*
X10338158Y-11448650D01*
X10338158Y-11448650D02*
X10366729Y-11448650D01*
X10366729Y-11448650D02*
X10385777Y-11458174D01*
X10385777Y-11458174D02*
X10395301Y-11477222D01*
X10395301Y-11477222D02*
X10395301Y-11581984D01*
X10395301Y-11477222D02*
X10404825Y-11458174D01*
X10404825Y-11458174D02*
X10423872Y-11448650D01*
X10423872Y-11448650D02*
X10452444Y-11448650D01*
X10452444Y-11448650D02*
X10471491Y-11458174D01*
X10471491Y-11458174D02*
X10481015Y-11477222D01*
X10481015Y-11477222D02*
X10481015Y-11581984D01*
X10871491Y-11372460D02*
X10700063Y-11629603D01*
X11128634Y-11381984D02*
X11147682Y-11381984D01*
X11147682Y-11381984D02*
X11166729Y-11391508D01*
X11166729Y-11391508D02*
X11176253Y-11401031D01*
X11176253Y-11401031D02*
X11185777Y-11420079D01*
X11185777Y-11420079D02*
X11195301Y-11458174D01*
X11195301Y-11458174D02*
X11195301Y-11505793D01*
X11195301Y-11505793D02*
X11185777Y-11543888D01*
X11185777Y-11543888D02*
X11176253Y-11562936D01*
X11176253Y-11562936D02*
X11166729Y-11572460D01*
X11166729Y-11572460D02*
X11147682Y-11581984D01*
X11147682Y-11581984D02*
X11128634Y-11581984D01*
X11128634Y-11581984D02*
X11109587Y-11572460D01*
X11109587Y-11572460D02*
X11100063Y-11562936D01*
X11100063Y-11562936D02*
X11090539Y-11543888D01*
X11090539Y-11543888D02*
X11081015Y-11505793D01*
X11081015Y-11505793D02*
X11081015Y-11458174D01*
X11081015Y-11458174D02*
X11090539Y-11420079D01*
X11090539Y-11420079D02*
X11100063Y-11401031D01*
X11100063Y-11401031D02*
X11109587Y-11391508D01*
X11109587Y-11391508D02*
X11128634Y-11381984D01*
X11281015Y-11562936D02*
X11290539Y-11572460D01*
X11290539Y-11572460D02*
X11281015Y-11581984D01*
X11281015Y-11581984D02*
X11271491Y-11572460D01*
X11271491Y-11572460D02*
X11281015Y-11562936D01*
X11281015Y-11562936D02*
X11281015Y-11581984D01*
X11414348Y-11381984D02*
X11433396Y-11381984D01*
X11433396Y-11381984D02*
X11452444Y-11391508D01*
X11452444Y-11391508D02*
X11461967Y-11401031D01*
X11461967Y-11401031D02*
X11471491Y-11420079D01*
X11471491Y-11420079D02*
X11481015Y-11458174D01*
X11481015Y-11458174D02*
X11481015Y-11505793D01*
X11481015Y-11505793D02*
X11471491Y-11543888D01*
X11471491Y-11543888D02*
X11461967Y-11562936D01*
X11461967Y-11562936D02*
X11452444Y-11572460D01*
X11452444Y-11572460D02*
X11433396Y-11581984D01*
X11433396Y-11581984D02*
X11414348Y-11581984D01*
X11414348Y-11581984D02*
X11395301Y-11572460D01*
X11395301Y-11572460D02*
X11385777Y-11562936D01*
X11385777Y-11562936D02*
X11376253Y-11543888D01*
X11376253Y-11543888D02*
X11366729Y-11505793D01*
X11366729Y-11505793D02*
X11366729Y-11458174D01*
X11366729Y-11458174D02*
X11376253Y-11420079D01*
X11376253Y-11420079D02*
X11385777Y-11401031D01*
X11385777Y-11401031D02*
X11395301Y-11391508D01*
X11395301Y-11391508D02*
X11414348Y-11381984D01*
X11671491Y-11581984D02*
X11557206Y-11581984D01*
X11614348Y-11581984D02*
X11614348Y-11381984D01*
X11614348Y-11381984D02*
X11595301Y-11410555D01*
X11595301Y-11410555D02*
X11576253Y-11429603D01*
X11576253Y-11429603D02*
X11557206Y-11439127D01*
X11852444Y-11381984D02*
X11757206Y-11381984D01*
X11757206Y-11381984D02*
X11747682Y-11477222D01*
X11747682Y-11477222D02*
X11757206Y-11467698D01*
X11757206Y-11467698D02*
X11776253Y-11458174D01*
X11776253Y-11458174D02*
X11823872Y-11458174D01*
X11823872Y-11458174D02*
X11842920Y-11467698D01*
X11842920Y-11467698D02*
X11852444Y-11477222D01*
X11852444Y-11477222D02*
X11861967Y-11496269D01*
X11861967Y-11496269D02*
X11861967Y-11543888D01*
X11861967Y-11543888D02*
X11852444Y-11562936D01*
X11852444Y-11562936D02*
X11842920Y-11572460D01*
X11842920Y-11572460D02*
X11823872Y-11581984D01*
X11823872Y-11581984D02*
X11776253Y-11581984D01*
X11776253Y-11581984D02*
X11757206Y-11572460D01*
X11757206Y-11572460D02*
X11747682Y-11562936D01*
X11928634Y-11381984D02*
X12061967Y-11381984D01*
X12061967Y-11381984D02*
X11976253Y-11581984D01*
X12128634Y-11381984D02*
X12128634Y-11420079D01*
X12204825Y-11381984D02*
X12204825Y-11420079D01*
X12500063Y-11658174D02*
X12490539Y-11648650D01*
X12490539Y-11648650D02*
X12471491Y-11620079D01*
X12471491Y-11620079D02*
X12461968Y-11601031D01*
X12461968Y-11601031D02*
X12452444Y-11572460D01*
X12452444Y-11572460D02*
X12442920Y-11524841D01*
X12442920Y-11524841D02*
X12442920Y-11486746D01*
X12442920Y-11486746D02*
X12452444Y-11439127D01*
X12452444Y-11439127D02*
X12461968Y-11410555D01*
X12461968Y-11410555D02*
X12471491Y-11391508D01*
X12471491Y-11391508D02*
X12490539Y-11362936D01*
X12490539Y-11362936D02*
X12500063Y-11353412D01*
X12681015Y-11581984D02*
X12566729Y-11581984D01*
X12623872Y-11581984D02*
X12623872Y-11381984D01*
X12623872Y-11381984D02*
X12604825Y-11410555D01*
X12604825Y-11410555D02*
X12585777Y-11429603D01*
X12585777Y-11429603D02*
X12566729Y-11439127D01*
X12747682Y-11381984D02*
X12881015Y-11381984D01*
X12881015Y-11381984D02*
X12795301Y-11581984D01*
X13109587Y-11581984D02*
X13109587Y-11381984D01*
X13195301Y-11581984D02*
X13195301Y-11477222D01*
X13195301Y-11477222D02*
X13185777Y-11458174D01*
X13185777Y-11458174D02*
X13166730Y-11448650D01*
X13166730Y-11448650D02*
X13138158Y-11448650D01*
X13138158Y-11448650D02*
X13119110Y-11458174D01*
X13119110Y-11458174D02*
X13109587Y-11467698D01*
X13319110Y-11581984D02*
X13300063Y-11572460D01*
X13300063Y-11572460D02*
X13290539Y-11562936D01*
X13290539Y-11562936D02*
X13281015Y-11543888D01*
X13281015Y-11543888D02*
X13281015Y-11486746D01*
X13281015Y-11486746D02*
X13290539Y-11467698D01*
X13290539Y-11467698D02*
X13300063Y-11458174D01*
X13300063Y-11458174D02*
X13319110Y-11448650D01*
X13319110Y-11448650D02*
X13347682Y-11448650D01*
X13347682Y-11448650D02*
X13366730Y-11458174D01*
X13366730Y-11458174D02*
X13376253Y-11467698D01*
X13376253Y-11467698D02*
X13385777Y-11486746D01*
X13385777Y-11486746D02*
X13385777Y-11543888D01*
X13385777Y-11543888D02*
X13376253Y-11562936D01*
X13376253Y-11562936D02*
X13366730Y-11572460D01*
X13366730Y-11572460D02*
X13347682Y-11581984D01*
X13347682Y-11581984D02*
X13319110Y-11581984D01*
X13500063Y-11581984D02*
X13481015Y-11572460D01*
X13481015Y-11572460D02*
X13471491Y-11553412D01*
X13471491Y-11553412D02*
X13471491Y-11381984D01*
X13652444Y-11572460D02*
X13633396Y-11581984D01*
X13633396Y-11581984D02*
X13595301Y-11581984D01*
X13595301Y-11581984D02*
X13576253Y-11572460D01*
X13576253Y-11572460D02*
X13566730Y-11553412D01*
X13566730Y-11553412D02*
X13566730Y-11477222D01*
X13566730Y-11477222D02*
X13576253Y-11458174D01*
X13576253Y-11458174D02*
X13595301Y-11448650D01*
X13595301Y-11448650D02*
X13633396Y-11448650D01*
X13633396Y-11448650D02*
X13652444Y-11458174D01*
X13652444Y-11458174D02*
X13661968Y-11477222D01*
X13661968Y-11477222D02*
X13661968Y-11496269D01*
X13661968Y-11496269D02*
X13566730Y-11515317D01*
X13738158Y-11572460D02*
X13757206Y-11581984D01*
X13757206Y-11581984D02*
X13795301Y-11581984D01*
X13795301Y-11581984D02*
X13814349Y-11572460D01*
X13814349Y-11572460D02*
X13823872Y-11553412D01*
X13823872Y-11553412D02*
X13823872Y-11543888D01*
X13823872Y-11543888D02*
X13814349Y-11524841D01*
X13814349Y-11524841D02*
X13795301Y-11515317D01*
X13795301Y-11515317D02*
X13766730Y-11515317D01*
X13766730Y-11515317D02*
X13747682Y-11505793D01*
X13747682Y-11505793D02*
X13738158Y-11486746D01*
X13738158Y-11486746D02*
X13738158Y-11477222D01*
X13738158Y-11477222D02*
X13747682Y-11458174D01*
X13747682Y-11458174D02*
X13766730Y-11448650D01*
X13766730Y-11448650D02*
X13795301Y-11448650D01*
X13795301Y-11448650D02*
X13814349Y-11458174D01*
X13890539Y-11658174D02*
X13900063Y-11648650D01*
X13900063Y-11648650D02*
X13919111Y-11620079D01*
X13919111Y-11620079D02*
X13928634Y-11601031D01*
X13928634Y-11601031D02*
X13938158Y-11572460D01*
X13938158Y-11572460D02*
X13947682Y-11524841D01*
X13947682Y-11524841D02*
X13947682Y-11486746D01*
X13947682Y-11486746D02*
X13938158Y-11439127D01*
X13938158Y-11439127D02*
X13928634Y-11410555D01*
X13928634Y-11410555D02*
X13919111Y-11391508D01*
X13919111Y-11391508D02*
X13900063Y-11362936D01*
X13900063Y-11362936D02*
X13890539Y-11353412D01*
D10*
X8914017Y-11781017D02*
X8914017Y-11727983D01*
X8860983Y-11727983D01*
X8860983Y-11781017D01*
X8914017Y-11781017D01*
D11*
X9223872Y-11645984D02*
X9242920Y-11645984D01*
X9242920Y-11645984D02*
X9261967Y-11655508D01*
X9261967Y-11655508D02*
X9271491Y-11665031D01*
X9271491Y-11665031D02*
X9281015Y-11684079D01*
X9281015Y-11684079D02*
X9290539Y-11722174D01*
X9290539Y-11722174D02*
X9290539Y-11769793D01*
X9290539Y-11769793D02*
X9281015Y-11807888D01*
X9281015Y-11807888D02*
X9271491Y-11826936D01*
X9271491Y-11826936D02*
X9261967Y-11836460D01*
X9261967Y-11836460D02*
X9242920Y-11845984D01*
X9242920Y-11845984D02*
X9223872Y-11845984D01*
X9223872Y-11845984D02*
X9204824Y-11836460D01*
X9204824Y-11836460D02*
X9195301Y-11826936D01*
X9195301Y-11826936D02*
X9185777Y-11807888D01*
X9185777Y-11807888D02*
X9176253Y-11769793D01*
X9176253Y-11769793D02*
X9176253Y-11722174D01*
X9176253Y-11722174D02*
X9185777Y-11684079D01*
X9185777Y-11684079D02*
X9195301Y-11665031D01*
X9195301Y-11665031D02*
X9204824Y-11655508D01*
X9204824Y-11655508D02*
X9223872Y-11645984D01*
X9376253Y-11826936D02*
X9385777Y-11836460D01*
X9385777Y-11836460D02*
X9376253Y-11845984D01*
X9376253Y-11845984D02*
X9366729Y-11836460D01*
X9366729Y-11836460D02*
X9376253Y-11826936D01*
X9376253Y-11826936D02*
X9376253Y-11845984D01*
X9452444Y-11645984D02*
X9585777Y-11645984D01*
X9585777Y-11645984D02*
X9500063Y-11845984D01*
X9757205Y-11645984D02*
X9661967Y-11645984D01*
X9661967Y-11645984D02*
X9652444Y-11741222D01*
X9652444Y-11741222D02*
X9661967Y-11731698D01*
X9661967Y-11731698D02*
X9681015Y-11722174D01*
X9681015Y-11722174D02*
X9728634Y-11722174D01*
X9728634Y-11722174D02*
X9747682Y-11731698D01*
X9747682Y-11731698D02*
X9757205Y-11741222D01*
X9757205Y-11741222D02*
X9766729Y-11760269D01*
X9766729Y-11760269D02*
X9766729Y-11807888D01*
X9766729Y-11807888D02*
X9757205Y-11826936D01*
X9757205Y-11826936D02*
X9747682Y-11836460D01*
X9747682Y-11836460D02*
X9728634Y-11845984D01*
X9728634Y-11845984D02*
X9681015Y-11845984D01*
X9681015Y-11845984D02*
X9661967Y-11836460D01*
X9661967Y-11836460D02*
X9652444Y-11826936D01*
X9890539Y-11645984D02*
X9909586Y-11645984D01*
X9909586Y-11645984D02*
X9928634Y-11655508D01*
X9928634Y-11655508D02*
X9938158Y-11665031D01*
X9938158Y-11665031D02*
X9947682Y-11684079D01*
X9947682Y-11684079D02*
X9957205Y-11722174D01*
X9957205Y-11722174D02*
X9957205Y-11769793D01*
X9957205Y-11769793D02*
X9947682Y-11807888D01*
X9947682Y-11807888D02*
X9938158Y-11826936D01*
X9938158Y-11826936D02*
X9928634Y-11836460D01*
X9928634Y-11836460D02*
X9909586Y-11845984D01*
X9909586Y-11845984D02*
X9890539Y-11845984D01*
X9890539Y-11845984D02*
X9871491Y-11836460D01*
X9871491Y-11836460D02*
X9861967Y-11826936D01*
X9861967Y-11826936D02*
X9852444Y-11807888D01*
X9852444Y-11807888D02*
X9842920Y-11769793D01*
X9842920Y-11769793D02*
X9842920Y-11722174D01*
X9842920Y-11722174D02*
X9852444Y-11684079D01*
X9852444Y-11684079D02*
X9861967Y-11665031D01*
X9861967Y-11665031D02*
X9871491Y-11655508D01*
X9871491Y-11655508D02*
X9890539Y-11645984D01*
X10042920Y-11845984D02*
X10042920Y-11712650D01*
X10042920Y-11731698D02*
X10052444Y-11722174D01*
X10052444Y-11722174D02*
X10071491Y-11712650D01*
X10071491Y-11712650D02*
X10100063Y-11712650D01*
X10100063Y-11712650D02*
X10119110Y-11722174D01*
X10119110Y-11722174D02*
X10128634Y-11741222D01*
X10128634Y-11741222D02*
X10128634Y-11845984D01*
X10128634Y-11741222D02*
X10138158Y-11722174D01*
X10138158Y-11722174D02*
X10157205Y-11712650D01*
X10157205Y-11712650D02*
X10185777Y-11712650D01*
X10185777Y-11712650D02*
X10204825Y-11722174D01*
X10204825Y-11722174D02*
X10214348Y-11741222D01*
X10214348Y-11741222D02*
X10214348Y-11845984D01*
X10309586Y-11845984D02*
X10309586Y-11712650D01*
X10309586Y-11731698D02*
X10319110Y-11722174D01*
X10319110Y-11722174D02*
X10338158Y-11712650D01*
X10338158Y-11712650D02*
X10366729Y-11712650D01*
X10366729Y-11712650D02*
X10385777Y-11722174D01*
X10385777Y-11722174D02*
X10395301Y-11741222D01*
X10395301Y-11741222D02*
X10395301Y-11845984D01*
X10395301Y-11741222D02*
X10404825Y-11722174D01*
X10404825Y-11722174D02*
X10423872Y-11712650D01*
X10423872Y-11712650D02*
X10452444Y-11712650D01*
X10452444Y-11712650D02*
X10471491Y-11722174D01*
X10471491Y-11722174D02*
X10481015Y-11741222D01*
X10481015Y-11741222D02*
X10481015Y-11845984D01*
X10871491Y-11636460D02*
X10700063Y-11893603D01*
X11128634Y-11645984D02*
X11147682Y-11645984D01*
X11147682Y-11645984D02*
X11166729Y-11655508D01*
X11166729Y-11655508D02*
X11176253Y-11665031D01*
X11176253Y-11665031D02*
X11185777Y-11684079D01*
X11185777Y-11684079D02*
X11195301Y-11722174D01*
X11195301Y-11722174D02*
X11195301Y-11769793D01*
X11195301Y-11769793D02*
X11185777Y-11807888D01*
X11185777Y-11807888D02*
X11176253Y-11826936D01*
X11176253Y-11826936D02*
X11166729Y-11836460D01*
X11166729Y-11836460D02*
X11147682Y-11845984D01*
X11147682Y-11845984D02*
X11128634Y-11845984D01*
X11128634Y-11845984D02*
X11109587Y-11836460D01*
X11109587Y-11836460D02*
X11100063Y-11826936D01*
X11100063Y-11826936D02*
X11090539Y-11807888D01*
X11090539Y-11807888D02*
X11081015Y-11769793D01*
X11081015Y-11769793D02*
X11081015Y-11722174D01*
X11081015Y-11722174D02*
X11090539Y-11684079D01*
X11090539Y-11684079D02*
X11100063Y-11665031D01*
X11100063Y-11665031D02*
X11109587Y-11655508D01*
X11109587Y-11655508D02*
X11128634Y-11645984D01*
X11281015Y-11826936D02*
X11290539Y-11836460D01*
X11290539Y-11836460D02*
X11281015Y-11845984D01*
X11281015Y-11845984D02*
X11271491Y-11836460D01*
X11271491Y-11836460D02*
X11281015Y-11826936D01*
X11281015Y-11826936D02*
X11281015Y-11845984D01*
X11414348Y-11645984D02*
X11433396Y-11645984D01*
X11433396Y-11645984D02*
X11452444Y-11655508D01*
X11452444Y-11655508D02*
X11461967Y-11665031D01*
X11461967Y-11665031D02*
X11471491Y-11684079D01*
X11471491Y-11684079D02*
X11481015Y-11722174D01*
X11481015Y-11722174D02*
X11481015Y-11769793D01*
X11481015Y-11769793D02*
X11471491Y-11807888D01*
X11471491Y-11807888D02*
X11461967Y-11826936D01*
X11461967Y-11826936D02*
X11452444Y-11836460D01*
X11452444Y-11836460D02*
X11433396Y-11845984D01*
X11433396Y-11845984D02*
X11414348Y-11845984D01*
X11414348Y-11845984D02*
X11395301Y-11836460D01*
X11395301Y-11836460D02*
X11385777Y-11826936D01*
X11385777Y-11826936D02*
X11376253Y-11807888D01*
X11376253Y-11807888D02*
X11366729Y-11769793D01*
X11366729Y-11769793D02*
X11366729Y-11722174D01*
X11366729Y-11722174D02*
X11376253Y-11684079D01*
X11376253Y-11684079D02*
X11385777Y-11665031D01*
X11385777Y-11665031D02*
X11395301Y-11655508D01*
X11395301Y-11655508D02*
X11414348Y-11645984D01*
X11557206Y-11665031D02*
X11566729Y-11655508D01*
X11566729Y-11655508D02*
X11585777Y-11645984D01*
X11585777Y-11645984D02*
X11633396Y-11645984D01*
X11633396Y-11645984D02*
X11652444Y-11655508D01*
X11652444Y-11655508D02*
X11661967Y-11665031D01*
X11661967Y-11665031D02*
X11671491Y-11684079D01*
X11671491Y-11684079D02*
X11671491Y-11703127D01*
X11671491Y-11703127D02*
X11661967Y-11731698D01*
X11661967Y-11731698D02*
X11547682Y-11845984D01*
X11547682Y-11845984D02*
X11671491Y-11845984D01*
X11766729Y-11845984D02*
X11804825Y-11845984D01*
X11804825Y-11845984D02*
X11823872Y-11836460D01*
X11823872Y-11836460D02*
X11833396Y-11826936D01*
X11833396Y-11826936D02*
X11852444Y-11798365D01*
X11852444Y-11798365D02*
X11861967Y-11760269D01*
X11861967Y-11760269D02*
X11861967Y-11684079D01*
X11861967Y-11684079D02*
X11852444Y-11665031D01*
X11852444Y-11665031D02*
X11842920Y-11655508D01*
X11842920Y-11655508D02*
X11823872Y-11645984D01*
X11823872Y-11645984D02*
X11785777Y-11645984D01*
X11785777Y-11645984D02*
X11766729Y-11655508D01*
X11766729Y-11655508D02*
X11757206Y-11665031D01*
X11757206Y-11665031D02*
X11747682Y-11684079D01*
X11747682Y-11684079D02*
X11747682Y-11731698D01*
X11747682Y-11731698D02*
X11757206Y-11750746D01*
X11757206Y-11750746D02*
X11766729Y-11760269D01*
X11766729Y-11760269D02*
X11785777Y-11769793D01*
X11785777Y-11769793D02*
X11823872Y-11769793D01*
X11823872Y-11769793D02*
X11842920Y-11760269D01*
X11842920Y-11760269D02*
X11852444Y-11750746D01*
X11852444Y-11750746D02*
X11861967Y-11731698D01*
X12042920Y-11645984D02*
X11947682Y-11645984D01*
X11947682Y-11645984D02*
X11938158Y-11741222D01*
X11938158Y-11741222D02*
X11947682Y-11731698D01*
X11947682Y-11731698D02*
X11966729Y-11722174D01*
X11966729Y-11722174D02*
X12014348Y-11722174D01*
X12014348Y-11722174D02*
X12033396Y-11731698D01*
X12033396Y-11731698D02*
X12042920Y-11741222D01*
X12042920Y-11741222D02*
X12052444Y-11760269D01*
X12052444Y-11760269D02*
X12052444Y-11807888D01*
X12052444Y-11807888D02*
X12042920Y-11826936D01*
X12042920Y-11826936D02*
X12033396Y-11836460D01*
X12033396Y-11836460D02*
X12014348Y-11845984D01*
X12014348Y-11845984D02*
X11966729Y-11845984D01*
X11966729Y-11845984D02*
X11947682Y-11836460D01*
X11947682Y-11836460D02*
X11938158Y-11826936D01*
X12128634Y-11645984D02*
X12128634Y-11684079D01*
X12204825Y-11645984D02*
X12204825Y-11684079D01*
X12500063Y-11922174D02*
X12490539Y-11912650D01*
X12490539Y-11912650D02*
X12471491Y-11884079D01*
X12471491Y-11884079D02*
X12461968Y-11865031D01*
X12461968Y-11865031D02*
X12452444Y-11836460D01*
X12452444Y-11836460D02*
X12442920Y-11788841D01*
X12442920Y-11788841D02*
X12442920Y-11750746D01*
X12442920Y-11750746D02*
X12452444Y-11703127D01*
X12452444Y-11703127D02*
X12461968Y-11674555D01*
X12461968Y-11674555D02*
X12471491Y-11655508D01*
X12471491Y-11655508D02*
X12490539Y-11626936D01*
X12490539Y-11626936D02*
X12500063Y-11617412D01*
X12681015Y-11845984D02*
X12566729Y-11845984D01*
X12623872Y-11845984D02*
X12623872Y-11645984D01*
X12623872Y-11645984D02*
X12604825Y-11674555D01*
X12604825Y-11674555D02*
X12585777Y-11693603D01*
X12585777Y-11693603D02*
X12566729Y-11703127D01*
X12804825Y-11645984D02*
X12823872Y-11645984D01*
X12823872Y-11645984D02*
X12842920Y-11655508D01*
X12842920Y-11655508D02*
X12852444Y-11665031D01*
X12852444Y-11665031D02*
X12861968Y-11684079D01*
X12861968Y-11684079D02*
X12871491Y-11722174D01*
X12871491Y-11722174D02*
X12871491Y-11769793D01*
X12871491Y-11769793D02*
X12861968Y-11807888D01*
X12861968Y-11807888D02*
X12852444Y-11826936D01*
X12852444Y-11826936D02*
X12842920Y-11836460D01*
X12842920Y-11836460D02*
X12823872Y-11845984D01*
X12823872Y-11845984D02*
X12804825Y-11845984D01*
X12804825Y-11845984D02*
X12785777Y-11836460D01*
X12785777Y-11836460D02*
X12776253Y-11826936D01*
X12776253Y-11826936D02*
X12766729Y-11807888D01*
X12766729Y-11807888D02*
X12757206Y-11769793D01*
X12757206Y-11769793D02*
X12757206Y-11722174D01*
X12757206Y-11722174D02*
X12766729Y-11684079D01*
X12766729Y-11684079D02*
X12776253Y-11665031D01*
X12776253Y-11665031D02*
X12785777Y-11655508D01*
X12785777Y-11655508D02*
X12804825Y-11645984D01*
X13109587Y-11845984D02*
X13109587Y-11645984D01*
X13195301Y-11845984D02*
X13195301Y-11741222D01*
X13195301Y-11741222D02*
X13185777Y-11722174D01*
X13185777Y-11722174D02*
X13166730Y-11712650D01*
X13166730Y-11712650D02*
X13138158Y-11712650D01*
X13138158Y-11712650D02*
X13119110Y-11722174D01*
X13119110Y-11722174D02*
X13109587Y-11731698D01*
X13319110Y-11845984D02*
X13300063Y-11836460D01*
X13300063Y-11836460D02*
X13290539Y-11826936D01*
X13290539Y-11826936D02*
X13281015Y-11807888D01*
X13281015Y-11807888D02*
X13281015Y-11750746D01*
X13281015Y-11750746D02*
X13290539Y-11731698D01*
X13290539Y-11731698D02*
X13300063Y-11722174D01*
X13300063Y-11722174D02*
X13319110Y-11712650D01*
X13319110Y-11712650D02*
X13347682Y-11712650D01*
X13347682Y-11712650D02*
X13366730Y-11722174D01*
X13366730Y-11722174D02*
X13376253Y-11731698D01*
X13376253Y-11731698D02*
X13385777Y-11750746D01*
X13385777Y-11750746D02*
X13385777Y-11807888D01*
X13385777Y-11807888D02*
X13376253Y-11826936D01*
X13376253Y-11826936D02*
X13366730Y-11836460D01*
X13366730Y-11836460D02*
X13347682Y-11845984D01*
X13347682Y-11845984D02*
X13319110Y-11845984D01*
X13500063Y-11845984D02*
X13481015Y-11836460D01*
X13481015Y-11836460D02*
X13471491Y-11817412D01*
X13471491Y-11817412D02*
X13471491Y-11645984D01*
X13652444Y-11836460D02*
X13633396Y-11845984D01*
X13633396Y-11845984D02*
X13595301Y-11845984D01*
X13595301Y-11845984D02*
X13576253Y-11836460D01*
X13576253Y-11836460D02*
X13566730Y-11817412D01*
X13566730Y-11817412D02*
X13566730Y-11741222D01*
X13566730Y-11741222D02*
X13576253Y-11722174D01*
X13576253Y-11722174D02*
X13595301Y-11712650D01*
X13595301Y-11712650D02*
X13633396Y-11712650D01*
X13633396Y-11712650D02*
X13652444Y-11722174D01*
X13652444Y-11722174D02*
X13661968Y-11741222D01*
X13661968Y-11741222D02*
X13661968Y-11760269D01*
X13661968Y-11760269D02*
X13566730Y-11779317D01*
X13738158Y-11836460D02*
X13757206Y-11845984D01*
X13757206Y-11845984D02*
X13795301Y-11845984D01*
X13795301Y-11845984D02*
X13814349Y-11836460D01*
X13814349Y-11836460D02*
X13823872Y-11817412D01*
X13823872Y-11817412D02*
X13823872Y-11807888D01*
X13823872Y-11807888D02*
X13814349Y-11788841D01*
X13814349Y-11788841D02*
X13795301Y-11779317D01*
X13795301Y-11779317D02*
X13766730Y-11779317D01*
X13766730Y-11779317D02*
X13747682Y-11769793D01*
X13747682Y-11769793D02*
X13738158Y-11750746D01*
X13738158Y-11750746D02*
X13738158Y-11741222D01*
X13738158Y-11741222D02*
X13747682Y-11722174D01*
X13747682Y-11722174D02*
X13766730Y-11712650D01*
X13766730Y-11712650D02*
X13795301Y-11712650D01*
X13795301Y-11712650D02*
X13814349Y-11722174D01*
X13890539Y-11922174D02*
X13900063Y-11912650D01*
X13900063Y-11912650D02*
X13919111Y-11884079D01*
X13919111Y-11884079D02*
X13928634Y-11865031D01*
X13928634Y-11865031D02*
X13938158Y-11836460D01*
X13938158Y-11836460D02*
X13947682Y-11788841D01*
X13947682Y-11788841D02*
X13947682Y-11750746D01*
X13947682Y-11750746D02*
X13938158Y-11703127D01*
X13938158Y-11703127D02*
X13928634Y-11674555D01*
X13928634Y-11674555D02*
X13919111Y-11655508D01*
X13919111Y-11655508D02*
X13900063Y-11626936D01*
X13900063Y-11626936D02*
X13890539Y-11617412D01*
M02*
