%TF.GenerationSoftware,KiCad,Pcbnew,7.0.10-7.0.10~ubuntu22.04.1*%
%TF.CreationDate,2024-01-14T22:11:42+10:00*%
%TF.ProjectId,MXBreakout,4d584272-6561-46b6-9f75-742e6b696361,rev?*%
%TF.SameCoordinates,Original*%
%TF.FileFunction,Soldermask,Top*%
%TF.FilePolarity,Negative*%
%FSLAX46Y46*%
G04 Gerber Fmt 4.6, Leading zero omitted, Abs format (unit mm)*
G04 Created by KiCad (PCBNEW 7.0.10-7.0.10~ubuntu22.04.1) date 2024-01-14 22:11:42*
%MOMM*%
%LPD*%
G01*
G04 APERTURE LIST*
G04 Aperture macros list*
%AMRoundRect*
0 Rectangle with rounded corners*
0 $1 Rounding radius*
0 $2 $3 $4 $5 $6 $7 $8 $9 X,Y pos of 4 corners*
0 Add a 4 corners polygon primitive as box body*
4,1,4,$2,$3,$4,$5,$6,$7,$8,$9,$2,$3,0*
0 Add four circle primitives for the rounded corners*
1,1,$1+$1,$2,$3*
1,1,$1+$1,$4,$5*
1,1,$1+$1,$6,$7*
1,1,$1+$1,$8,$9*
0 Add four rect primitives between the rounded corners*
20,1,$1+$1,$2,$3,$4,$5,0*
20,1,$1+$1,$4,$5,$6,$7,0*
20,1,$1+$1,$6,$7,$8,$9,0*
20,1,$1+$1,$8,$9,$2,$3,0*%
G04 Aperture macros list end*
%ADD10C,0.750000*%
%ADD11RoundRect,0.150000X-0.875000X-0.150000X0.875000X-0.150000X0.875000X0.150000X-0.875000X0.150000X0*%
%ADD12R,1.300000X1.900000*%
%ADD13C,1.000000*%
%ADD14RoundRect,0.140000X-0.170000X0.140000X-0.170000X-0.140000X0.170000X-0.140000X0.170000X0.140000X0*%
%ADD15RoundRect,0.135000X-0.185000X0.135000X-0.185000X-0.135000X0.185000X-0.135000X0.185000X0.135000X0*%
%ADD16RoundRect,0.218750X-0.256250X0.218750X-0.256250X-0.218750X0.256250X-0.218750X0.256250X0.218750X0*%
%ADD17RoundRect,0.140000X0.140000X0.170000X-0.140000X0.170000X-0.140000X-0.170000X0.140000X-0.170000X0*%
G04 APERTURE END LIST*
D10*
%TO.C,TP6*%
X116200000Y-96050000D03*
%TD*%
%TO.C,TP7*%
X116200000Y-97325000D03*
%TD*%
%TO.C,TP5*%
X116200000Y-94775000D03*
%TD*%
%TO.C,TP4*%
X116200000Y-93500000D03*
%TD*%
D11*
%TO.C,U1*%
X118550000Y-80795000D03*
X118550000Y-82065000D03*
X118550000Y-83335000D03*
X118550000Y-84605000D03*
X118550000Y-85875000D03*
X118550000Y-87145000D03*
X118550000Y-88415000D03*
X118550000Y-89685000D03*
X118550000Y-90955000D03*
X118550000Y-92225000D03*
X118550000Y-93495000D03*
X118550000Y-94765000D03*
X118550000Y-96035000D03*
X118550000Y-97305000D03*
X127850000Y-97305000D03*
X127850000Y-96035000D03*
X127850000Y-94765000D03*
X127850000Y-93495000D03*
X127850000Y-92225000D03*
X127850000Y-90955000D03*
X127850000Y-89685000D03*
X127850000Y-88415000D03*
X127850000Y-87145000D03*
X127850000Y-85875000D03*
X127850000Y-84605000D03*
X127850000Y-83335000D03*
X127850000Y-82065000D03*
X127850000Y-80795000D03*
%TD*%
D12*
%TO.C,X1*%
X131050000Y-89400000D03*
X136550000Y-89400000D03*
X136550000Y-86200000D03*
X131050000Y-86200000D03*
%TD*%
D13*
%TO.C,TP9*%
X135525000Y-95175000D03*
%TD*%
D14*
%TO.C,C3*%
X129800000Y-81120000D03*
X129800000Y-82080000D03*
%TD*%
D13*
%TO.C,TP8*%
X140300000Y-93700000D03*
%TD*%
%TO.C,TP3*%
X131950000Y-95175000D03*
%TD*%
D15*
%TO.C,R1*%
X140300000Y-86130000D03*
X140300000Y-87150000D03*
%TD*%
D16*
%TO.C,D1*%
X140300000Y-84925000D03*
X140300000Y-83350000D03*
%TD*%
D17*
%TO.C,C2*%
X133320000Y-91400000D03*
X134280000Y-91400000D03*
%TD*%
%TO.C,C1*%
X134280000Y-84200000D03*
X133320000Y-84200000D03*
%TD*%
M02*
