%TF.GenerationSoftware,KiCad,Pcbnew,8.0.0~rc1-42d8c85f12~176~ubuntu22.04.1*%
%TF.CreationDate,2024-01-15T17:13:56+10:00*%
%TF.ProjectId,MXBreakout,4d584272-6561-46b6-9f75-742e6b696361,rev?*%
%TF.SameCoordinates,Original*%
%TF.FileFunction,Copper,L2,Bot*%
%TF.FilePolarity,Positive*%
%FSLAX46Y46*%
G04 Gerber Fmt 4.6, Leading zero omitted, Abs format (unit mm)*
G04 Created by KiCad (PCBNEW 8.0.0~rc1-42d8c85f12~176~ubuntu22.04.1) date 2024-01-15 17:13:56*
%MOMM*%
%LPD*%
G01*
G04 APERTURE LIST*
%TA.AperFunction,ComponentPad*%
%ADD10C,0.500000*%
%TD*%
%TA.AperFunction,ViaPad*%
%ADD11C,0.800000*%
%TD*%
%TA.AperFunction,Conductor*%
%ADD12C,0.250000*%
%TD*%
G04 APERTURE END LIST*
D10*
%TO.P,TP3,1,1*%
%TO.N,GND*%
X135600000Y-83600000D03*
%TD*%
%TO.P,TP11,1,1*%
%TO.N,Net-(U10-RST)*%
X124000000Y-84000000D03*
%TD*%
%TO.P,TP7,1,1*%
%TO.N,/DATA3*%
X123000000Y-86000000D03*
%TD*%
%TO.P,TP6,1,1*%
%TO.N,/DATA2*%
X128750000Y-84975000D03*
%TD*%
%TO.P,TP5,1,1*%
%TO.N,/DATA1*%
X129500000Y-84975000D03*
%TD*%
%TO.P,TP4,1,1*%
%TO.N,/DATA0*%
X124000000Y-84975000D03*
%TD*%
%TO.P,TP3,1,1*%
%TO.N,GND*%
X134100000Y-83600000D03*
%TD*%
D11*
%TO.N,GND*%
X130000000Y-82500000D03*
X127500000Y-90000000D03*
X127500000Y-87500000D03*
X100000000Y-97500000D03*
X95000000Y-100000000D03*
X95000000Y-95000000D03*
X95000000Y-97500000D03*
X105000000Y-97500000D03*
X105000000Y-92500000D03*
X100000000Y-92500000D03*
X100000000Y-95000000D03*
X110000000Y-95000000D03*
X112500000Y-92500000D03*
X115000000Y-92500000D03*
X115000000Y-90000000D03*
X112500000Y-90000000D03*
X112500000Y-85000000D03*
X115000000Y-85000000D03*
X115000000Y-82500000D03*
X112500000Y-82500000D03*
X112500000Y-80000000D03*
X115000000Y-80000000D03*
X115000000Y-77500000D03*
X112500000Y-77500000D03*
%TO.N,Net-(D1-K)*%
X107250000Y-89885000D03*
X97500000Y-93250000D03*
%TD*%
D12*
%TO.N,Net-(D1-K)*%
X107250000Y-89885000D02*
X100865000Y-89885000D01*
X100865000Y-89885000D02*
X97500000Y-93250000D01*
%TD*%
%TA.AperFunction,Conductor*%
%TO.N,GND*%
G36*
X119865677Y-74919685D02*
G01*
X119886319Y-74936319D01*
X126550000Y-81600000D01*
X135898638Y-81600000D01*
X135965677Y-81619685D01*
X135986319Y-81636319D01*
X136513681Y-82163681D01*
X136547166Y-82225004D01*
X136550000Y-82251362D01*
X136550000Y-83314326D01*
X136530315Y-83381365D01*
X136477511Y-83427120D01*
X136408353Y-83437064D01*
X136344797Y-83408039D01*
X136308959Y-83355281D01*
X136280267Y-83273285D01*
X136280266Y-83273285D01*
X135600000Y-83953553D01*
X135273285Y-84280266D01*
X135432056Y-84335824D01*
X135599996Y-84354746D01*
X135600004Y-84354746D01*
X135767941Y-84335824D01*
X135767949Y-84335822D01*
X135927470Y-84280003D01*
X135930628Y-84278483D01*
X135932874Y-84278112D01*
X135934046Y-84277703D01*
X135934117Y-84277908D01*
X135999568Y-84267126D01*
X136063705Y-84294843D01*
X136102675Y-84352835D01*
X136104106Y-84422690D01*
X136072119Y-84477880D01*
X129186319Y-91363681D01*
X129124996Y-91397166D01*
X129098638Y-91400000D01*
X122149999Y-91400000D01*
X118886319Y-94663681D01*
X118824996Y-94697166D01*
X118798638Y-94700000D01*
X112549999Y-94700000D01*
X110350000Y-96899999D01*
X110350000Y-102248638D01*
X110330315Y-102315677D01*
X110313681Y-102336319D01*
X109486319Y-103163681D01*
X109424996Y-103197166D01*
X109398638Y-103200000D01*
X95001362Y-103200000D01*
X94934323Y-103180315D01*
X94913681Y-103163681D01*
X94286319Y-102536319D01*
X94252834Y-102474996D01*
X94250000Y-102448638D01*
X94250000Y-93250001D01*
X96894318Y-93250001D01*
X96914955Y-93406760D01*
X96914956Y-93406762D01*
X96975464Y-93552841D01*
X97071718Y-93678282D01*
X97197159Y-93774536D01*
X97343238Y-93835044D01*
X97421619Y-93845363D01*
X97499999Y-93855682D01*
X97500000Y-93855682D01*
X97500001Y-93855682D01*
X97552254Y-93848802D01*
X97656762Y-93835044D01*
X97802841Y-93774536D01*
X97928282Y-93678282D01*
X98024536Y-93552841D01*
X98085044Y-93406762D01*
X98105682Y-93250000D01*
X98096753Y-93182180D01*
X98107518Y-93113145D01*
X98132008Y-93078316D01*
X100963507Y-90246819D01*
X101024830Y-90213334D01*
X101051188Y-90210500D01*
X106681701Y-90210500D01*
X106748740Y-90230185D01*
X106780076Y-90259013D01*
X106821718Y-90313282D01*
X106947159Y-90409536D01*
X107093238Y-90470044D01*
X107171619Y-90480363D01*
X107249999Y-90490682D01*
X107250000Y-90490682D01*
X107250001Y-90490682D01*
X107302254Y-90483802D01*
X107406762Y-90470044D01*
X107552841Y-90409536D01*
X107678282Y-90313282D01*
X107774536Y-90187841D01*
X107835044Y-90041762D01*
X107855682Y-89885000D01*
X107835044Y-89728238D01*
X107774536Y-89582159D01*
X107678282Y-89456718D01*
X107552841Y-89360464D01*
X107406762Y-89299956D01*
X107406760Y-89299955D01*
X107250001Y-89279318D01*
X107249999Y-89279318D01*
X107093239Y-89299955D01*
X107093237Y-89299956D01*
X106947160Y-89360463D01*
X106821716Y-89456719D01*
X106780077Y-89510986D01*
X106723649Y-89552189D01*
X106681701Y-89559500D01*
X100915465Y-89559500D01*
X100915449Y-89559499D01*
X100907853Y-89559499D01*
X100822147Y-89559499D01*
X100789033Y-89568372D01*
X100739359Y-89581682D01*
X100739358Y-89581683D01*
X100665141Y-89624532D01*
X100665136Y-89624536D01*
X100604533Y-89685140D01*
X97671684Y-92617988D01*
X97610361Y-92651473D01*
X97567818Y-92653246D01*
X97500001Y-92644318D01*
X97499999Y-92644318D01*
X97343239Y-92664955D01*
X97343237Y-92664956D01*
X97197160Y-92725463D01*
X97071718Y-92821718D01*
X96975463Y-92947160D01*
X96914956Y-93093237D01*
X96914955Y-93093239D01*
X96894318Y-93249998D01*
X96894318Y-93250001D01*
X94250000Y-93250001D01*
X94250000Y-92951362D01*
X94269685Y-92884323D01*
X94286319Y-92863681D01*
X95013681Y-92136319D01*
X95075004Y-92102834D01*
X95101362Y-92100000D01*
X96650000Y-92100000D01*
X99713681Y-89036319D01*
X99775004Y-89002834D01*
X99801362Y-89000000D01*
X103250000Y-89000000D01*
X106250000Y-86000000D01*
X122544867Y-86000000D01*
X122563302Y-86128225D01*
X122617117Y-86246061D01*
X122617118Y-86246063D01*
X122701951Y-86343967D01*
X122810931Y-86414004D01*
X122935225Y-86450499D01*
X122935227Y-86450500D01*
X122935228Y-86450500D01*
X123064773Y-86450500D01*
X123064773Y-86450499D01*
X123189069Y-86414004D01*
X123298049Y-86343967D01*
X123382882Y-86246063D01*
X123436697Y-86128226D01*
X123455133Y-86000000D01*
X123436697Y-85871774D01*
X123382882Y-85753937D01*
X123298049Y-85656033D01*
X123189069Y-85585996D01*
X123189065Y-85585994D01*
X123189064Y-85585994D01*
X123064774Y-85549500D01*
X123064772Y-85549500D01*
X122935228Y-85549500D01*
X122935226Y-85549500D01*
X122810935Y-85585994D01*
X122810932Y-85585995D01*
X122810931Y-85585996D01*
X122759677Y-85618934D01*
X122701950Y-85656033D01*
X122617118Y-85753937D01*
X122617117Y-85753938D01*
X122563302Y-85871774D01*
X122544867Y-86000000D01*
X106250000Y-86000000D01*
X106550000Y-85700000D01*
X106550000Y-84975000D01*
X123544867Y-84975000D01*
X123563302Y-85103225D01*
X123617117Y-85221061D01*
X123617118Y-85221063D01*
X123701951Y-85318967D01*
X123810931Y-85389004D01*
X123935225Y-85425499D01*
X123935227Y-85425500D01*
X123935228Y-85425500D01*
X124064773Y-85425500D01*
X124064773Y-85425499D01*
X124189069Y-85389004D01*
X124298049Y-85318967D01*
X124382882Y-85221063D01*
X124436697Y-85103226D01*
X124455133Y-84975000D01*
X128294867Y-84975000D01*
X128313302Y-85103225D01*
X128367117Y-85221061D01*
X128367118Y-85221063D01*
X128451951Y-85318967D01*
X128560931Y-85389004D01*
X128685225Y-85425499D01*
X128685227Y-85425500D01*
X128685228Y-85425500D01*
X128814773Y-85425500D01*
X128814773Y-85425499D01*
X128939069Y-85389004D01*
X129048049Y-85318967D01*
X129048049Y-85318966D01*
X129055510Y-85314172D01*
X129057065Y-85316592D01*
X129107347Y-85293627D01*
X129176506Y-85303567D01*
X129194056Y-85314846D01*
X129194490Y-85314172D01*
X129201950Y-85318966D01*
X129201951Y-85318967D01*
X129310931Y-85389004D01*
X129435225Y-85425499D01*
X129435227Y-85425500D01*
X129435228Y-85425500D01*
X129564773Y-85425500D01*
X129564773Y-85425499D01*
X129689069Y-85389004D01*
X129798049Y-85318967D01*
X129882882Y-85221063D01*
X129936697Y-85103226D01*
X129944350Y-85050000D01*
X130450000Y-85050000D01*
X130450000Y-87550000D01*
X131950000Y-87550000D01*
X131950000Y-87100000D01*
X131950000Y-86724000D01*
X131969685Y-86656961D01*
X132022489Y-86611206D01*
X132074000Y-86600000D01*
X132250000Y-86600000D01*
X132250000Y-86000000D01*
X132074000Y-86000000D01*
X132006961Y-85980315D01*
X131961206Y-85927511D01*
X131950000Y-85876000D01*
X131950000Y-85050000D01*
X130450000Y-85050000D01*
X129944350Y-85050000D01*
X129955133Y-84975000D01*
X129936697Y-84846774D01*
X129882882Y-84728937D01*
X129798049Y-84631033D01*
X129689069Y-84560996D01*
X129689065Y-84560994D01*
X129689064Y-84560994D01*
X129564774Y-84524500D01*
X129564772Y-84524500D01*
X129435228Y-84524500D01*
X129435226Y-84524500D01*
X129310935Y-84560994D01*
X129310932Y-84560995D01*
X129310931Y-84560996D01*
X129201954Y-84631031D01*
X129194490Y-84635828D01*
X129192936Y-84633410D01*
X129142624Y-84656376D01*
X129073467Y-84646420D01*
X129055941Y-84635156D01*
X129055510Y-84635828D01*
X129048046Y-84631031D01*
X128939069Y-84560996D01*
X128939065Y-84560994D01*
X128939064Y-84560994D01*
X128814774Y-84524500D01*
X128814772Y-84524500D01*
X128685228Y-84524500D01*
X128685226Y-84524500D01*
X128560935Y-84560994D01*
X128560932Y-84560995D01*
X128560931Y-84560996D01*
X128548939Y-84568703D01*
X128451950Y-84631033D01*
X128367118Y-84728937D01*
X128367117Y-84728938D01*
X128313302Y-84846774D01*
X128294867Y-84975000D01*
X124455133Y-84975000D01*
X124436697Y-84846774D01*
X124382882Y-84728937D01*
X124298049Y-84631033D01*
X124237023Y-84591814D01*
X124191270Y-84539012D01*
X124181326Y-84469854D01*
X124210351Y-84406298D01*
X124237024Y-84383185D01*
X124298049Y-84343967D01*
X124353245Y-84280266D01*
X133773285Y-84280266D01*
X133932056Y-84335824D01*
X134099996Y-84354746D01*
X134100004Y-84354746D01*
X134267943Y-84335824D01*
X134426713Y-84280267D01*
X134426714Y-84280266D01*
X134100001Y-83953553D01*
X134100000Y-83953553D01*
X133773285Y-84280266D01*
X124353245Y-84280266D01*
X124382882Y-84246063D01*
X124436697Y-84128226D01*
X124455133Y-84000000D01*
X124436697Y-83871774D01*
X124382882Y-83753937D01*
X124298049Y-83656033D01*
X124210864Y-83600003D01*
X133345254Y-83600003D01*
X133364175Y-83767938D01*
X133364176Y-83767943D01*
X133419732Y-83926714D01*
X133711637Y-83634810D01*
X133925000Y-83634810D01*
X133951643Y-83699129D01*
X134000871Y-83748357D01*
X134065190Y-83775000D01*
X134134810Y-83775000D01*
X134199129Y-83748357D01*
X134248357Y-83699129D01*
X134275000Y-83634810D01*
X134275000Y-83600001D01*
X134453553Y-83600001D01*
X134780265Y-83926713D01*
X134822405Y-83917095D01*
X134877593Y-83917095D01*
X134919732Y-83926713D01*
X135211637Y-83634810D01*
X135425000Y-83634810D01*
X135451643Y-83699129D01*
X135500871Y-83748357D01*
X135565190Y-83775000D01*
X135634810Y-83775000D01*
X135699129Y-83748357D01*
X135748357Y-83699129D01*
X135775000Y-83634810D01*
X135775000Y-83565190D01*
X135748357Y-83500871D01*
X135699129Y-83451643D01*
X135634810Y-83425000D01*
X135565190Y-83425000D01*
X135500871Y-83451643D01*
X135451643Y-83500871D01*
X135425000Y-83565190D01*
X135425000Y-83634810D01*
X135211637Y-83634810D01*
X135246447Y-83600000D01*
X134919731Y-83273284D01*
X134877592Y-83282903D01*
X134822406Y-83282903D01*
X134780266Y-83273284D01*
X134453553Y-83599999D01*
X134453553Y-83600001D01*
X134275000Y-83600001D01*
X134275000Y-83565190D01*
X134248357Y-83500871D01*
X134199129Y-83451643D01*
X134134810Y-83425000D01*
X134065190Y-83425000D01*
X134000871Y-83451643D01*
X133951643Y-83500871D01*
X133925000Y-83565190D01*
X133925000Y-83634810D01*
X133711637Y-83634810D01*
X133746447Y-83600000D01*
X133419732Y-83273285D01*
X133364176Y-83432053D01*
X133364175Y-83432058D01*
X133345254Y-83599996D01*
X133345254Y-83600003D01*
X124210864Y-83600003D01*
X124189069Y-83585996D01*
X124189065Y-83585994D01*
X124189064Y-83585994D01*
X124064774Y-83549500D01*
X124064772Y-83549500D01*
X123935228Y-83549500D01*
X123935226Y-83549500D01*
X123810935Y-83585994D01*
X123810932Y-83585995D01*
X123810931Y-83585996D01*
X123789139Y-83600001D01*
X123701950Y-83656033D01*
X123617118Y-83753937D01*
X123617117Y-83753938D01*
X123563302Y-83871774D01*
X123544867Y-84000000D01*
X123563302Y-84128225D01*
X123617117Y-84246061D01*
X123617118Y-84246063D01*
X123694895Y-84335824D01*
X123701952Y-84343968D01*
X123762974Y-84383185D01*
X123808729Y-84435989D01*
X123818673Y-84505147D01*
X123789648Y-84568703D01*
X123762974Y-84591815D01*
X123701952Y-84631031D01*
X123617118Y-84728937D01*
X123617117Y-84728938D01*
X123563302Y-84846774D01*
X123544867Y-84975000D01*
X106550000Y-84975000D01*
X106550000Y-82919732D01*
X133773285Y-82919732D01*
X134100000Y-83246447D01*
X134100001Y-83246447D01*
X134426714Y-82919732D01*
X135273285Y-82919732D01*
X135600000Y-83246447D01*
X135600001Y-83246447D01*
X135926714Y-82919732D01*
X135767943Y-82864176D01*
X135767938Y-82864175D01*
X135600004Y-82845254D01*
X135599996Y-82845254D01*
X135432058Y-82864175D01*
X135432053Y-82864176D01*
X135273285Y-82919732D01*
X134426714Y-82919732D01*
X134267943Y-82864176D01*
X134267938Y-82864175D01*
X134100004Y-82845254D01*
X134099996Y-82845254D01*
X133932058Y-82864175D01*
X133932053Y-82864176D01*
X133773285Y-82919732D01*
X106550000Y-82919732D01*
X106550000Y-76251362D01*
X106569685Y-76184323D01*
X106586319Y-76163681D01*
X107813681Y-74936319D01*
X107875004Y-74902834D01*
X107901362Y-74900000D01*
X119798638Y-74900000D01*
X119865677Y-74919685D01*
G37*
%TD.AperFunction*%
%TD*%
M02*
