%TF.GenerationSoftware,KiCad,Pcbnew,8.0.0~rc1-42d8c85f12~176~ubuntu22.04.1*%
%TF.CreationDate,2024-01-16T22:26:43+10:00*%
%TF.ProjectId,MXBreakout,4d584272-6561-46b6-9f75-742e6b696361,rev?*%
%TF.SameCoordinates,Original*%
%TF.FileFunction,Legend,Top*%
%TF.FilePolarity,Positive*%
%FSLAX46Y46*%
G04 Gerber Fmt 4.6, Leading zero omitted, Abs format (unit mm)*
G04 Created by KiCad (PCBNEW 8.0.0~rc1-42d8c85f12~176~ubuntu22.04.1) date 2024-01-16 22:26:43*
%MOMM*%
%LPD*%
G01*
G04 APERTURE LIST*
%ADD10C,0.150000*%
%ADD11C,0.080000*%
%ADD12C,0.025000*%
%ADD13C,0.120000*%
G04 APERTURE END LIST*
D10*
X116800000Y-92200000D02*
G75*
G02*
X116400000Y-92200000I-200000J0D01*
G01*
X116400000Y-92200000D02*
G75*
G02*
X116800000Y-92200000I200000J0D01*
G01*
X94588095Y-101927438D02*
X94492857Y-101879819D01*
X94492857Y-101879819D02*
X94350000Y-101879819D01*
X94350000Y-101879819D02*
X94207143Y-101927438D01*
X94207143Y-101927438D02*
X94111905Y-102022676D01*
X94111905Y-102022676D02*
X94064286Y-102117914D01*
X94064286Y-102117914D02*
X94016667Y-102308390D01*
X94016667Y-102308390D02*
X94016667Y-102451247D01*
X94016667Y-102451247D02*
X94064286Y-102641723D01*
X94064286Y-102641723D02*
X94111905Y-102736961D01*
X94111905Y-102736961D02*
X94207143Y-102832200D01*
X94207143Y-102832200D02*
X94350000Y-102879819D01*
X94350000Y-102879819D02*
X94445238Y-102879819D01*
X94445238Y-102879819D02*
X94588095Y-102832200D01*
X94588095Y-102832200D02*
X94635714Y-102784580D01*
X94635714Y-102784580D02*
X94635714Y-102451247D01*
X94635714Y-102451247D02*
X94445238Y-102451247D01*
X95064286Y-102879819D02*
X95064286Y-101879819D01*
X95064286Y-101879819D02*
X95635714Y-102879819D01*
X95635714Y-102879819D02*
X95635714Y-101879819D01*
X96111905Y-102879819D02*
X96111905Y-101879819D01*
X96111905Y-101879819D02*
X96350000Y-101879819D01*
X96350000Y-101879819D02*
X96492857Y-101927438D01*
X96492857Y-101927438D02*
X96588095Y-102022676D01*
X96588095Y-102022676D02*
X96635714Y-102117914D01*
X96635714Y-102117914D02*
X96683333Y-102308390D01*
X96683333Y-102308390D02*
X96683333Y-102451247D01*
X96683333Y-102451247D02*
X96635714Y-102641723D01*
X96635714Y-102641723D02*
X96588095Y-102736961D01*
X96588095Y-102736961D02*
X96492857Y-102832200D01*
X96492857Y-102832200D02*
X96350000Y-102879819D01*
X96350000Y-102879819D02*
X96111905Y-102879819D01*
X119904819Y-92111904D02*
X120714342Y-92111904D01*
X120714342Y-92111904D02*
X120809580Y-92064285D01*
X120809580Y-92064285D02*
X120857200Y-92016666D01*
X120857200Y-92016666D02*
X120904819Y-91921428D01*
X120904819Y-91921428D02*
X120904819Y-91730952D01*
X120904819Y-91730952D02*
X120857200Y-91635714D01*
X120857200Y-91635714D02*
X120809580Y-91588095D01*
X120809580Y-91588095D02*
X120714342Y-91540476D01*
X120714342Y-91540476D02*
X119904819Y-91540476D01*
X120904819Y-90540476D02*
X120904819Y-91111904D01*
X120904819Y-90826190D02*
X119904819Y-90826190D01*
X119904819Y-90826190D02*
X120047676Y-90921428D01*
X120047676Y-90921428D02*
X120142914Y-91016666D01*
X120142914Y-91016666D02*
X120190533Y-91111904D01*
X94459819Y-96213094D02*
X93459819Y-96213094D01*
X93459819Y-96213094D02*
X93459819Y-95974999D01*
X93459819Y-95974999D02*
X93507438Y-95832142D01*
X93507438Y-95832142D02*
X93602676Y-95736904D01*
X93602676Y-95736904D02*
X93697914Y-95689285D01*
X93697914Y-95689285D02*
X93888390Y-95641666D01*
X93888390Y-95641666D02*
X94031247Y-95641666D01*
X94031247Y-95641666D02*
X94221723Y-95689285D01*
X94221723Y-95689285D02*
X94316961Y-95736904D01*
X94316961Y-95736904D02*
X94412200Y-95832142D01*
X94412200Y-95832142D02*
X94459819Y-95974999D01*
X94459819Y-95974999D02*
X94459819Y-96213094D01*
X94459819Y-94689285D02*
X94459819Y-95260713D01*
X94459819Y-94974999D02*
X93459819Y-94974999D01*
X93459819Y-94974999D02*
X93602676Y-95070237D01*
X93602676Y-95070237D02*
X93697914Y-95165475D01*
X93697914Y-95165475D02*
X93745533Y-95260713D01*
D11*
X120705469Y-78793668D02*
X121134784Y-79222983D01*
X121134784Y-79222983D02*
X121210546Y-79248237D01*
X121210546Y-79248237D02*
X121261053Y-79248237D01*
X121261053Y-79248237D02*
X121336815Y-79222983D01*
X121336815Y-79222983D02*
X121437830Y-79121967D01*
X121437830Y-79121967D02*
X121463084Y-79046206D01*
X121463084Y-79046206D02*
X121463084Y-78995698D01*
X121463084Y-78995698D02*
X121437830Y-78919937D01*
X121437830Y-78919937D02*
X121008515Y-78490622D01*
X122069175Y-78490622D02*
X121766129Y-78793668D01*
X121917652Y-78642145D02*
X121387322Y-78111815D01*
X121387322Y-78111815D02*
X121412576Y-78238084D01*
X121412576Y-78238084D02*
X121412576Y-78339099D01*
X121412576Y-78339099D02*
X121387322Y-78414861D01*
X121867145Y-77631992D02*
X121917652Y-77581485D01*
X121917652Y-77581485D02*
X121993414Y-77556231D01*
X121993414Y-77556231D02*
X122043922Y-77556231D01*
X122043922Y-77556231D02*
X122119683Y-77581485D01*
X122119683Y-77581485D02*
X122245952Y-77657246D01*
X122245952Y-77657246D02*
X122372221Y-77783515D01*
X122372221Y-77783515D02*
X122447983Y-77909784D01*
X122447983Y-77909784D02*
X122473236Y-77985546D01*
X122473236Y-77985546D02*
X122473236Y-78036053D01*
X122473236Y-78036053D02*
X122447983Y-78111815D01*
X122447983Y-78111815D02*
X122397475Y-78162323D01*
X122397475Y-78162323D02*
X122321713Y-78187576D01*
X122321713Y-78187576D02*
X122271206Y-78187576D01*
X122271206Y-78187576D02*
X122195444Y-78162323D01*
X122195444Y-78162323D02*
X122069175Y-78086561D01*
X122069175Y-78086561D02*
X121942906Y-77960292D01*
X121942906Y-77960292D02*
X121867145Y-77834023D01*
X121867145Y-77834023D02*
X121841891Y-77758262D01*
X121841891Y-77758262D02*
X121841891Y-77707754D01*
X121841891Y-77707754D02*
X121867145Y-77631992D01*
D10*
X95499580Y-98066666D02*
X95547200Y-98114285D01*
X95547200Y-98114285D02*
X95594819Y-98257142D01*
X95594819Y-98257142D02*
X95594819Y-98352380D01*
X95594819Y-98352380D02*
X95547200Y-98495237D01*
X95547200Y-98495237D02*
X95451961Y-98590475D01*
X95451961Y-98590475D02*
X95356723Y-98638094D01*
X95356723Y-98638094D02*
X95166247Y-98685713D01*
X95166247Y-98685713D02*
X95023390Y-98685713D01*
X95023390Y-98685713D02*
X94832914Y-98638094D01*
X94832914Y-98638094D02*
X94737676Y-98590475D01*
X94737676Y-98590475D02*
X94642438Y-98495237D01*
X94642438Y-98495237D02*
X94594819Y-98352380D01*
X94594819Y-98352380D02*
X94594819Y-98257142D01*
X94594819Y-98257142D02*
X94642438Y-98114285D01*
X94642438Y-98114285D02*
X94690057Y-98066666D01*
X94690057Y-97685713D02*
X94642438Y-97638094D01*
X94642438Y-97638094D02*
X94594819Y-97542856D01*
X94594819Y-97542856D02*
X94594819Y-97304761D01*
X94594819Y-97304761D02*
X94642438Y-97209523D01*
X94642438Y-97209523D02*
X94690057Y-97161904D01*
X94690057Y-97161904D02*
X94785295Y-97114285D01*
X94785295Y-97114285D02*
X94880533Y-97114285D01*
X94880533Y-97114285D02*
X95023390Y-97161904D01*
X95023390Y-97161904D02*
X95594819Y-97733332D01*
X95594819Y-97733332D02*
X95594819Y-97114285D01*
X94199819Y-98126666D02*
X93723628Y-98459999D01*
X94199819Y-98698094D02*
X93199819Y-98698094D01*
X93199819Y-98698094D02*
X93199819Y-98317142D01*
X93199819Y-98317142D02*
X93247438Y-98221904D01*
X93247438Y-98221904D02*
X93295057Y-98174285D01*
X93295057Y-98174285D02*
X93390295Y-98126666D01*
X93390295Y-98126666D02*
X93533152Y-98126666D01*
X93533152Y-98126666D02*
X93628390Y-98174285D01*
X93628390Y-98174285D02*
X93676009Y-98221904D01*
X93676009Y-98221904D02*
X93723628Y-98317142D01*
X93723628Y-98317142D02*
X93723628Y-98698094D01*
X94199819Y-97174285D02*
X94199819Y-97745713D01*
X94199819Y-97459999D02*
X93199819Y-97459999D01*
X93199819Y-97459999D02*
X93342676Y-97555237D01*
X93342676Y-97555237D02*
X93437914Y-97650475D01*
X93437914Y-97650475D02*
X93485533Y-97745713D01*
X90205952Y-102356009D02*
X90348809Y-102403628D01*
X90348809Y-102403628D02*
X90396428Y-102451247D01*
X90396428Y-102451247D02*
X90444047Y-102546485D01*
X90444047Y-102546485D02*
X90444047Y-102689342D01*
X90444047Y-102689342D02*
X90396428Y-102784580D01*
X90396428Y-102784580D02*
X90348809Y-102832200D01*
X90348809Y-102832200D02*
X90253571Y-102879819D01*
X90253571Y-102879819D02*
X89872619Y-102879819D01*
X89872619Y-102879819D02*
X89872619Y-101879819D01*
X89872619Y-101879819D02*
X90205952Y-101879819D01*
X90205952Y-101879819D02*
X90301190Y-101927438D01*
X90301190Y-101927438D02*
X90348809Y-101975057D01*
X90348809Y-101975057D02*
X90396428Y-102070295D01*
X90396428Y-102070295D02*
X90396428Y-102165533D01*
X90396428Y-102165533D02*
X90348809Y-102260771D01*
X90348809Y-102260771D02*
X90301190Y-102308390D01*
X90301190Y-102308390D02*
X90205952Y-102356009D01*
X90205952Y-102356009D02*
X89872619Y-102356009D01*
X90825000Y-102594104D02*
X91301190Y-102594104D01*
X90729762Y-102879819D02*
X91063095Y-101879819D01*
X91063095Y-101879819D02*
X91396428Y-102879819D01*
X91586905Y-101879819D02*
X92158333Y-101879819D01*
X91872619Y-102879819D02*
X91872619Y-101879819D01*
X92348810Y-101879819D02*
X92920238Y-101879819D01*
X92634524Y-102879819D02*
X92634524Y-101879819D01*
X131353333Y-82899580D02*
X131305714Y-82947200D01*
X131305714Y-82947200D02*
X131162857Y-82994819D01*
X131162857Y-82994819D02*
X131067619Y-82994819D01*
X131067619Y-82994819D02*
X130924762Y-82947200D01*
X130924762Y-82947200D02*
X130829524Y-82851961D01*
X130829524Y-82851961D02*
X130781905Y-82756723D01*
X130781905Y-82756723D02*
X130734286Y-82566247D01*
X130734286Y-82566247D02*
X130734286Y-82423390D01*
X130734286Y-82423390D02*
X130781905Y-82232914D01*
X130781905Y-82232914D02*
X130829524Y-82137676D01*
X130829524Y-82137676D02*
X130924762Y-82042438D01*
X130924762Y-82042438D02*
X131067619Y-81994819D01*
X131067619Y-81994819D02*
X131162857Y-81994819D01*
X131162857Y-81994819D02*
X131305714Y-82042438D01*
X131305714Y-82042438D02*
X131353333Y-82090057D01*
X131686667Y-81994819D02*
X132305714Y-81994819D01*
X132305714Y-81994819D02*
X131972381Y-82375771D01*
X131972381Y-82375771D02*
X132115238Y-82375771D01*
X132115238Y-82375771D02*
X132210476Y-82423390D01*
X132210476Y-82423390D02*
X132258095Y-82471009D01*
X132258095Y-82471009D02*
X132305714Y-82566247D01*
X132305714Y-82566247D02*
X132305714Y-82804342D01*
X132305714Y-82804342D02*
X132258095Y-82899580D01*
X132258095Y-82899580D02*
X132210476Y-82947200D01*
X132210476Y-82947200D02*
X132115238Y-82994819D01*
X132115238Y-82994819D02*
X131829524Y-82994819D01*
X131829524Y-82994819D02*
X131734286Y-82947200D01*
X131734286Y-82947200D02*
X131686667Y-82899580D01*
X105009580Y-98066666D02*
X105057200Y-98114285D01*
X105057200Y-98114285D02*
X105104819Y-98257142D01*
X105104819Y-98257142D02*
X105104819Y-98352380D01*
X105104819Y-98352380D02*
X105057200Y-98495237D01*
X105057200Y-98495237D02*
X104961961Y-98590475D01*
X104961961Y-98590475D02*
X104866723Y-98638094D01*
X104866723Y-98638094D02*
X104676247Y-98685713D01*
X104676247Y-98685713D02*
X104533390Y-98685713D01*
X104533390Y-98685713D02*
X104342914Y-98638094D01*
X104342914Y-98638094D02*
X104247676Y-98590475D01*
X104247676Y-98590475D02*
X104152438Y-98495237D01*
X104152438Y-98495237D02*
X104104819Y-98352380D01*
X104104819Y-98352380D02*
X104104819Y-98257142D01*
X104104819Y-98257142D02*
X104152438Y-98114285D01*
X104152438Y-98114285D02*
X104200057Y-98066666D01*
X105104819Y-97114285D02*
X105104819Y-97685713D01*
X105104819Y-97399999D02*
X104104819Y-97399999D01*
X104104819Y-97399999D02*
X104247676Y-97495237D01*
X104247676Y-97495237D02*
X104342914Y-97590475D01*
X104342914Y-97590475D02*
X104390533Y-97685713D01*
X95504819Y-95359523D02*
X96504819Y-94692857D01*
X95504819Y-94692857D02*
X96504819Y-95359523D01*
X96504819Y-93788095D02*
X96504819Y-94359523D01*
X96504819Y-94073809D02*
X95504819Y-94073809D01*
X95504819Y-94073809D02*
X95647676Y-94169047D01*
X95647676Y-94169047D02*
X95742914Y-94264285D01*
X95742914Y-94264285D02*
X95790533Y-94359523D01*
D12*
%TO.C,REF\u002A\u002A*%
X95275000Y-102500000D02*
G75*
G02*
X94725000Y-102500000I-275000J0D01*
G01*
X94725000Y-102500000D02*
G75*
G02*
X95275000Y-102500000I275000J0D01*
G01*
D13*
%TO.C,TP2*%
X96050000Y-100875000D02*
G75*
G02*
X94650000Y-100875000I-700000J0D01*
G01*
X94650000Y-100875000D02*
G75*
G02*
X96050000Y-100875000I700000J0D01*
G01*
%TO.C,U1*%
X109990000Y-75110000D02*
X109990000Y-75355000D01*
X109990000Y-93230000D02*
X109990000Y-92985000D01*
X113850000Y-75110000D02*
X109990000Y-75110000D01*
X113850000Y-75110000D02*
X117710000Y-75110000D01*
X113850000Y-93230000D02*
X109990000Y-93230000D01*
X113850000Y-93230000D02*
X117710000Y-93230000D01*
X117710000Y-75110000D02*
X117710000Y-75355000D01*
X117710000Y-92985000D02*
X119525000Y-92985000D01*
X117710000Y-93230000D02*
X117710000Y-92985000D01*
D12*
%TO.C,TP4*%
X124275000Y-84975000D02*
G75*
G02*
X123725000Y-84975000I-275000J0D01*
G01*
X123725000Y-84975000D02*
G75*
G02*
X124275000Y-84975000I275000J0D01*
G01*
%TO.C,REF\u002A\u002A*%
X90275000Y-98750000D02*
G75*
G02*
X89725000Y-98750000I-275000J0D01*
G01*
X89725000Y-98750000D02*
G75*
G02*
X90275000Y-98750000I275000J0D01*
G01*
%TO.C,TP3*%
X134375000Y-83600000D02*
G75*
G02*
X133825000Y-83600000I-275000J0D01*
G01*
X133825000Y-83600000D02*
G75*
G02*
X134375000Y-83600000I275000J0D01*
G01*
%TO.C,TP11*%
X124275000Y-84000000D02*
G75*
G02*
X123725000Y-84000000I-275000J0D01*
G01*
X123725000Y-84000000D02*
G75*
G02*
X124275000Y-84000000I275000J0D01*
G01*
%TO.C,TP3*%
X135875000Y-83600000D02*
G75*
G02*
X135325000Y-83600000I-275000J0D01*
G01*
X135325000Y-83600000D02*
G75*
G02*
X135875000Y-83600000I275000J0D01*
G01*
%TO.C,REF\u002A\u002A*%
X90275000Y-97500000D02*
G75*
G02*
X89725000Y-97500000I-275000J0D01*
G01*
X89725000Y-97500000D02*
G75*
G02*
X90275000Y-97500000I275000J0D01*
G01*
X90275000Y-96250000D02*
G75*
G02*
X89725000Y-96250000I-275000J0D01*
G01*
X89725000Y-96250000D02*
G75*
G02*
X90275000Y-96250000I275000J0D01*
G01*
D13*
%TO.C,D1*%
X91840000Y-93990000D02*
X91840000Y-96275000D01*
X93310000Y-93990000D02*
X91840000Y-93990000D01*
X93310000Y-96275000D02*
X93310000Y-93990000D01*
%TO.C,U10*%
X121826247Y-81857421D02*
X121260562Y-81291735D01*
X121826247Y-81857421D02*
X122391933Y-82423106D01*
X124032421Y-79651247D02*
X122759628Y-78378455D01*
X124032421Y-79651247D02*
X124598106Y-80216933D01*
D12*
%TO.C,REF\u002A\u002A*%
X92775000Y-102500000D02*
G75*
G02*
X92225000Y-102500000I-275000J0D01*
G01*
X92225000Y-102500000D02*
G75*
G02*
X92775000Y-102500000I275000J0D01*
G01*
D13*
%TO.C,C2*%
X95940000Y-98007836D02*
X95940000Y-97792164D01*
X96660000Y-98007836D02*
X96660000Y-97792164D01*
D12*
%TO.C,REF\u002A\u002A*%
X94025000Y-102500000D02*
G75*
G02*
X93475000Y-102500000I-275000J0D01*
G01*
X93475000Y-102500000D02*
G75*
G02*
X94025000Y-102500000I275000J0D01*
G01*
D13*
%TO.C,R1*%
X92195000Y-97806359D02*
X92195000Y-98113641D01*
X92955000Y-97806359D02*
X92955000Y-98113641D01*
D12*
%TO.C,REF\u002A\u002A*%
X104025000Y-102500000D02*
G75*
G02*
X103475000Y-102500000I-275000J0D01*
G01*
X103475000Y-102500000D02*
G75*
G02*
X104025000Y-102500000I275000J0D01*
G01*
D13*
%TO.C,TP8*%
X92025000Y-100875000D02*
G75*
G02*
X90625000Y-100875000I-700000J0D01*
G01*
X90625000Y-100875000D02*
G75*
G02*
X92025000Y-100875000I700000J0D01*
G01*
D12*
%TO.C,TP6*%
X129025000Y-84975000D02*
G75*
G02*
X128475000Y-84975000I-275000J0D01*
G01*
X128475000Y-84975000D02*
G75*
G02*
X129025000Y-84975000I275000J0D01*
G01*
%TO.C,REF\u002A\u002A*%
X90275000Y-100000000D02*
G75*
G02*
X89725000Y-100000000I-275000J0D01*
G01*
X89725000Y-100000000D02*
G75*
G02*
X90275000Y-100000000I275000J0D01*
G01*
D13*
%TO.C,TP10*%
X132380000Y-86413641D02*
X132380000Y-86106359D01*
D12*
%TO.C,TP7*%
X123275000Y-86000000D02*
G75*
G02*
X122725000Y-86000000I-275000J0D01*
G01*
X122725000Y-86000000D02*
G75*
G02*
X123275000Y-86000000I275000J0D01*
G01*
D13*
%TO.C,C3*%
X131412164Y-83340000D02*
X131627836Y-83340000D01*
X131412164Y-84060000D02*
X131627836Y-84060000D01*
D12*
%TO.C,TP5*%
X129775000Y-84975000D02*
G75*
G02*
X129225000Y-84975000I-275000J0D01*
G01*
X129225000Y-84975000D02*
G75*
G02*
X129775000Y-84975000I275000J0D01*
G01*
D13*
%TO.C,C1*%
X103140000Y-98007836D02*
X103140000Y-97792164D01*
X103860000Y-98007836D02*
X103860000Y-97792164D01*
%TO.C,X1*%
X97300000Y-94200000D02*
X97890000Y-94200000D01*
X97890000Y-93800000D02*
X97890000Y-94200000D01*
X97890000Y-96100000D02*
X97300000Y-96100000D01*
X97890000Y-96100000D02*
X97890000Y-99700000D01*
X97890000Y-102000000D02*
X97890000Y-101600000D01*
X101910000Y-93800000D02*
X97890000Y-93800000D01*
X101910000Y-93800000D02*
X101910000Y-94200000D01*
X101910000Y-96100000D02*
X101910000Y-99700000D01*
X101910000Y-102000000D02*
X97890000Y-102000000D01*
X101910000Y-102000000D02*
X101910000Y-101600000D01*
D12*
%TO.C,REF\u002A\u002A*%
X102775000Y-102500000D02*
G75*
G02*
X102225000Y-102500000I-275000J0D01*
G01*
X102225000Y-102500000D02*
G75*
G02*
X102775000Y-102500000I275000J0D01*
G01*
X90275000Y-95000000D02*
G75*
G02*
X89725000Y-95000000I-275000J0D01*
G01*
X89725000Y-95000000D02*
G75*
G02*
X90275000Y-95000000I275000J0D01*
G01*
%TD*%
M02*
