%TF.GenerationSoftware,KiCad,Pcbnew,9.0.1-unknown-202504212220~56345a4158~ubuntu24.04.1*%
%TF.CreationDate,2025-05-10T20:44:28+10:00*%
%TF.ProjectId,MXBreakout,4d584272-6561-46b6-9f75-742e6b696361,rev?*%
%TF.SameCoordinates,Original*%
%TF.FileFunction,Copper,L1,Top*%
%TF.FilePolarity,Positive*%
%FSLAX46Y46*%
G04 Gerber Fmt 4.6, Leading zero omitted, Abs format (unit mm)*
G04 Created by KiCad (PCBNEW 9.0.1-unknown-202504212220~56345a4158~ubuntu24.04.1) date 2025-05-10 20:44:28*
%MOMM*%
%LPD*%
G01*
G04 APERTURE LIST*
G04 Aperture macros list*
%AMRoundRect*
0 Rectangle with rounded corners*
0 $1 Rounding radius*
0 $2 $3 $4 $5 $6 $7 $8 $9 X,Y pos of 4 corners*
0 Add a 4 corners polygon primitive as box body*
4,1,4,$2,$3,$4,$5,$6,$7,$8,$9,$2,$3,0*
0 Add four circle primitives for the rounded corners*
1,1,$1+$1,$2,$3*
1,1,$1+$1,$4,$5*
1,1,$1+$1,$6,$7*
1,1,$1+$1,$8,$9*
0 Add four rect primitives between the rounded corners*
20,1,$1+$1,$2,$3,$4,$5,0*
20,1,$1+$1,$4,$5,$6,$7,0*
20,1,$1+$1,$6,$7,$8,$9,0*
20,1,$1+$1,$8,$9,$2,$3,0*%
G04 Aperture macros list end*
%TA.AperFunction,SMDPad,CuDef*%
%ADD10R,0.600000X1.100000*%
%TD*%
%TA.AperFunction,ComponentPad*%
%ADD11C,0.600000*%
%TD*%
%TA.AperFunction,SMDPad,CuDef*%
%ADD12RoundRect,0.135000X0.135000X0.185000X-0.135000X0.185000X-0.135000X-0.185000X0.135000X-0.185000X0*%
%TD*%
%TA.AperFunction,SMDPad,CuDef*%
%ADD13RoundRect,0.140000X0.170000X-0.140000X0.170000X0.140000X-0.170000X0.140000X-0.170000X-0.140000X0*%
%TD*%
%TA.AperFunction,SMDPad,CuDef*%
%ADD14C,1.000000*%
%TD*%
%TA.AperFunction,SMDPad,CuDef*%
%ADD15C,0.500000*%
%TD*%
%TA.AperFunction,SMDPad,CuDef*%
%ADD16RoundRect,0.150000X-0.468458X0.256326X0.256326X-0.468458X0.468458X-0.256326X-0.256326X0.468458X0*%
%TD*%
%TA.AperFunction,SMDPad,CuDef*%
%ADD17RoundRect,0.218750X0.218750X0.256250X-0.218750X0.256250X-0.218750X-0.256250X0.218750X-0.256250X0*%
%TD*%
%TA.AperFunction,SMDPad,CuDef*%
%ADD18RoundRect,0.150000X0.875000X0.150000X-0.875000X0.150000X-0.875000X-0.150000X0.875000X-0.150000X0*%
%TD*%
%TA.AperFunction,SMDPad,CuDef*%
%ADD19RoundRect,0.140000X-0.170000X0.140000X-0.170000X-0.140000X0.170000X-0.140000X0.170000X0.140000X0*%
%TD*%
%TA.AperFunction,ViaPad*%
%ADD20C,0.600000*%
%TD*%
%TA.AperFunction,ViaPad*%
%ADD21C,0.800000*%
%TD*%
%TA.AperFunction,ViaPad*%
%ADD22C,0.500000*%
%TD*%
%TA.AperFunction,Conductor*%
%ADD23C,0.250000*%
%TD*%
%TA.AperFunction,Conductor*%
%ADD24C,0.400000*%
%TD*%
%TA.AperFunction,Conductor*%
%ADD25C,0.300000*%
%TD*%
%TA.AperFunction,Conductor*%
%ADD26C,0.200000*%
%TD*%
%TA.AperFunction,Conductor*%
%ADD27C,0.500000*%
%TD*%
G04 APERTURE END LIST*
D10*
%TO.P,Y1,1,1*%
%TO.N,Net-(U1-X_2)*%
X54300000Y-59025000D03*
%TO.P,Y1,2,2*%
%TO.N,Net-(U1-X_1)*%
X55700000Y-59025000D03*
%TD*%
D11*
%TO.P,TP3,1,1*%
%TO.N,GND*%
X84250000Y-52625000D03*
%TD*%
D12*
%TO.P,R60,1*%
%TO.N,Net-(D31-A)*%
X52487500Y-63025000D03*
%TO.P,R60,2*%
%TO.N,/BATT*%
X51467500Y-63025000D03*
%TD*%
D11*
%TO.P,TP3,1,1*%
%TO.N,GND*%
X85750000Y-52625000D03*
%TD*%
D13*
%TO.P,C102,1*%
%TO.N,GND*%
X54250000Y-61480000D03*
%TO.P,C102,2*%
%TO.N,Net-(U1-X_2)*%
X54250000Y-60520000D03*
%TD*%
D14*
%TO.P,TP1,1,1*%
%TO.N,/BATT*%
X49250000Y-63000000D03*
%TD*%
D15*
%TO.P,TP6,1,1*%
%TO.N,Net-(U10-RST)*%
X76000000Y-54000000D03*
%TD*%
%TO.P,TP15,1,1*%
%TO.N,/SOFT*%
X72000000Y-53200000D03*
%TD*%
D16*
%TO.P,U10,1,GND*%
%TO.N,GND*%
X72796751Y-48303249D03*
%TO.P,U10,2,GND*%
X72125000Y-48975000D03*
%TO.P,U10,3,GND*%
X71453249Y-49646751D03*
%TO.P,U10,4,RST*%
%TO.N,Net-(U10-RST)*%
X73061917Y-51255419D03*
%TO.P,U10,5,3.3V*%
%TO.N,+3.3V*%
X74405419Y-49911917D03*
%TD*%
D13*
%TO.P,C101,1*%
%TO.N,GND*%
X55700000Y-61480000D03*
%TO.P,C101,2*%
%TO.N,Net-(U1-X_1)*%
X55700000Y-60520000D03*
%TD*%
D17*
%TO.P,D31,1,K*%
%TO.N,Net-(D31-K)*%
X55287500Y-63000000D03*
%TO.P,D31,2,A*%
%TO.N,Net-(D31-A)*%
X53712500Y-63000000D03*
%TD*%
D15*
%TO.P,TP13,1,1*%
%TO.N,/POWER*%
X81600000Y-51600000D03*
%TD*%
D11*
%TO.P,TP7,1,1*%
%TO.N,Net-(U10-RST)*%
X74000000Y-53000000D03*
%TD*%
%TO.P,TP3,1,1*%
%TO.N,GND*%
X57000000Y-58000000D03*
%TD*%
D15*
%TO.P,TP11,1,1*%
%TO.N,/RESET*%
X76750000Y-53500000D03*
%TD*%
D11*
%TO.P,TP5,1,1*%
%TO.N,/DATA3*%
X73000000Y-55000000D03*
%TD*%
D18*
%TO.P,U1,1*%
%TO.N,N/C*%
X69000000Y-61450000D03*
%TO.P,U1,2*%
X69000000Y-60180000D03*
%TO.P,U1,3*%
X69000000Y-58910000D03*
%TO.P,U1,4,GND*%
%TO.N,GND*%
X69000000Y-57640000D03*
%TO.P,U1,5*%
%TO.N,N/C*%
X69000000Y-56370000D03*
%TO.P,U1,6*%
X69000000Y-55100000D03*
%TO.P,U1,7*%
X69000000Y-53830000D03*
%TO.P,U1,8*%
X69000000Y-52560000D03*
%TO.P,U1,9*%
X69000000Y-51290000D03*
%TO.P,U1,10*%
X69000000Y-50020000D03*
%TO.P,U1,11,DATA0*%
%TO.N,/DATA0*%
X69000000Y-48750000D03*
%TO.P,U1,12,DATA1*%
%TO.N,/DATA1*%
X69000000Y-47480000D03*
%TO.P,U1,13,DATA2*%
%TO.N,/DATA2*%
X69000000Y-46210000D03*
%TO.P,U1,14,DATA3*%
%TO.N,/DATA3*%
X69000000Y-44940000D03*
%TO.P,U1,15*%
%TO.N,N/C*%
X58700000Y-44945000D03*
%TO.P,U1,16,GND*%
%TO.N,GND*%
X58700000Y-46215000D03*
%TO.P,U1,17,VDD*%
%TO.N,+3.3V*%
X58700000Y-47485000D03*
%TO.P,U1,18*%
%TO.N,N/C*%
X58700000Y-48755000D03*
%TO.P,U1,19*%
X58700000Y-50025000D03*
%TO.P,U1,20,U22*%
%TO.N,unconnected-(U1-U22-Pad20)*%
X58700000Y-51295000D03*
%TO.P,U1,21*%
%TO.N,N/C*%
X58700000Y-52565000D03*
%TO.P,U1,22,X_2*%
%TO.N,Net-(U1-X_2)*%
X58700000Y-53835000D03*
%TO.P,U1,23,X_1*%
%TO.N,Net-(U1-X_1)*%
X58700000Y-55105000D03*
%TO.P,U1,24,VDD*%
%TO.N,+3.3V*%
X58700000Y-56375000D03*
%TO.P,U1,25,VDD*%
X58700000Y-57645000D03*
%TO.P,U1,26,BATT*%
%TO.N,Net-(D31-K)*%
X58700000Y-58915000D03*
%TO.P,U1,27,VDD*%
%TO.N,+3.3V*%
X58700000Y-60185000D03*
%TO.P,U1,28*%
%TO.N,N/C*%
X58700000Y-61455000D03*
%TD*%
D15*
%TO.P,TP16,1,1*%
%TO.N,/DATA3*%
X72000000Y-55750000D03*
%TD*%
D11*
%TO.P,TP12,1,1*%
%TO.N,/POWER*%
X81600000Y-53000000D03*
%TD*%
D19*
%TO.P,C98,1*%
%TO.N,GND*%
X82800000Y-53040000D03*
%TO.P,C98,2*%
%TO.N,+3.3V*%
X82800000Y-54000000D03*
%TD*%
D11*
%TO.P,TP3,1,1*%
%TO.N,/DATA1*%
X79600000Y-54000000D03*
%TD*%
D15*
%TO.P,TP17,1,1*%
%TO.N,/DATA0*%
X74500000Y-55000000D03*
%TD*%
D11*
%TO.P,TP2,1,1*%
%TO.N,/DATA0*%
X74000000Y-54000000D03*
%TD*%
%TO.P,TP10,1,1*%
%TO.N,/RESET*%
X75000000Y-53000000D03*
%TD*%
%TO.P,TP4,1,1*%
%TO.N,/DATA2*%
X78800000Y-54000000D03*
%TD*%
%TO.P,TP14,1,1*%
%TO.N,/SOFT*%
X73000000Y-54000000D03*
%TD*%
D20*
%TO.N,GND*%
X71800000Y-49300000D03*
D21*
X73500000Y-56000000D03*
X52500000Y-61500000D03*
X65000000Y-52500000D03*
X83000000Y-51500000D03*
X79500000Y-55500000D03*
X62500000Y-50000000D03*
X65000000Y-50000000D03*
X50000000Y-60000000D03*
X62500000Y-52500000D03*
X80000000Y-52500000D03*
X85000000Y-51500000D03*
X72000000Y-59000000D03*
D22*
X58700000Y-46215000D03*
D21*
X50000000Y-61500000D03*
X52500000Y-60000000D03*
D22*
%TO.N,/DATA0*%
X70500000Y-48750000D03*
%TO.N,/DATA1*%
X70500000Y-47475000D03*
%TO.N,/DATA2*%
X70500000Y-46210000D03*
D20*
%TO.N,+3.3V*%
X81800000Y-55800000D03*
X81800000Y-54800000D03*
%TD*%
D23*
%TO.N,Net-(U1-X_1)*%
X55700000Y-59025000D02*
X55700000Y-60475000D01*
X55700000Y-59025000D02*
X55700000Y-57400000D01*
X55700000Y-57400000D02*
X58000000Y-55100000D01*
X58000000Y-55100000D02*
X59200000Y-55100000D01*
%TO.N,Net-(U1-X_2)*%
X54300000Y-59025000D02*
X54300000Y-57700000D01*
X54300000Y-57700000D02*
X58170000Y-53830000D01*
X54300000Y-59025000D02*
X54300000Y-60495000D01*
X58170000Y-53830000D02*
X59200000Y-53830000D01*
D24*
%TO.N,Net-(D31-A)*%
X53675000Y-63025000D02*
X52487500Y-63025000D01*
D25*
%TO.N,Net-(D31-K)*%
X56800000Y-62400000D02*
X56175000Y-63025000D01*
X59200000Y-58910000D02*
X57590000Y-58910000D01*
X56800000Y-59700000D02*
X56800000Y-62400000D01*
X56175000Y-63025000D02*
X55250000Y-63025000D01*
X57590000Y-58910000D02*
X56800000Y-59700000D01*
D24*
%TO.N,/BATT*%
X51467500Y-63025000D02*
X49250000Y-63025000D01*
D23*
%TO.N,/DATA0*%
X70500000Y-48750000D02*
X68500000Y-48750000D01*
X74000000Y-54000000D02*
X74000000Y-54500000D01*
X74000000Y-54500000D02*
X74500000Y-55000000D01*
D26*
%TO.N,/DATA1*%
X68505000Y-47475000D02*
X68500000Y-47480000D01*
D23*
X70500000Y-47475000D02*
X68505000Y-47475000D01*
%TO.N,/DATA2*%
X70500000Y-46210000D02*
X68500000Y-46210000D01*
D26*
%TO.N,/DATA3*%
X70200000Y-49400000D02*
X71000000Y-50200000D01*
X67175000Y-45525000D02*
X67175000Y-49090552D01*
X67175000Y-49090552D02*
X67484448Y-49400000D01*
X67760000Y-44940000D02*
X67175000Y-45525000D01*
X67484448Y-49400000D02*
X70200000Y-49400000D01*
X71000000Y-54000000D02*
X72000000Y-55000000D01*
X71000000Y-50200000D02*
X71000000Y-54000000D01*
D23*
X72000000Y-55000000D02*
X73000000Y-55000000D01*
D26*
X68500000Y-44940000D02*
X67760000Y-44940000D01*
D23*
X72000000Y-55750000D02*
X72000000Y-55000000D01*
%TO.N,+3.3V*%
X71550000Y-56800000D02*
X70750000Y-56000000D01*
X60550000Y-57025000D02*
X60550000Y-59260908D01*
X80245000Y-53345000D02*
X80555000Y-53655000D01*
X59200000Y-47480000D02*
X60224999Y-47480000D01*
X60550000Y-59260908D02*
X59630908Y-60180000D01*
X82455000Y-53655000D02*
X82800000Y-54000000D01*
X78500000Y-53345000D02*
X77845000Y-54000000D01*
X70475000Y-54475000D02*
X60575000Y-54475000D01*
X74700000Y-56800000D02*
X71550000Y-56800000D01*
X74405419Y-49911917D02*
X77838502Y-53345000D01*
X74405419Y-49911917D02*
X74411917Y-49911917D01*
X76582862Y-56000000D02*
X75500000Y-56000000D01*
X80555000Y-53655000D02*
X82455000Y-53655000D01*
X70750000Y-56000000D02*
X70750000Y-54750000D01*
D27*
X82800000Y-54000000D02*
X82800000Y-54900000D01*
D23*
X60550000Y-47805001D02*
X60550000Y-57025000D01*
X78500000Y-53345000D02*
X80245000Y-53345000D01*
X75500000Y-56000000D02*
X74700000Y-56800000D01*
X77845000Y-54000000D02*
X77845000Y-54737862D01*
X58700000Y-57025000D02*
X60550000Y-57025000D01*
X77838502Y-53345000D02*
X78500000Y-53345000D01*
X70750000Y-54750000D02*
X70475000Y-54475000D01*
X77845000Y-54737862D02*
X76582862Y-56000000D01*
X59630908Y-60180000D02*
X59200000Y-60180000D01*
X60224999Y-47480000D02*
X60550000Y-47805001D01*
%TO.N,Net-(U10-RST)*%
X74000000Y-52193502D02*
X74000000Y-53000000D01*
X74000000Y-53000000D02*
X75000000Y-54000000D01*
X74000000Y-52193502D02*
X73061917Y-51255419D01*
X75000000Y-54000000D02*
X76000000Y-54000000D01*
%TO.N,/RESET*%
X76250000Y-53000000D02*
X76750000Y-53500000D01*
X75000000Y-53000000D02*
X76250000Y-53000000D01*
D24*
%TO.N,/POWER*%
X81600000Y-51600000D02*
X81600000Y-53000000D01*
D23*
%TO.N,/SOFT*%
X72700000Y-53200000D02*
X73000000Y-53500000D01*
X73000000Y-53500000D02*
X73000000Y-54000000D01*
X72000000Y-53200000D02*
X72700000Y-53200000D01*
%TD*%
%TA.AperFunction,Conductor*%
%TO.N,+3.3V*%
G36*
X59843039Y-55919685D02*
G01*
X59888794Y-55972489D01*
X59900000Y-56024000D01*
X59900000Y-57976000D01*
X59880315Y-58043039D01*
X59827511Y-58088794D01*
X59776000Y-58100000D01*
X57624500Y-58100000D01*
X57616370Y-58097612D01*
X57607994Y-58098897D01*
X57583344Y-58087915D01*
X57557461Y-58080315D01*
X57551912Y-58073912D01*
X57544171Y-58070463D01*
X57529371Y-58047898D01*
X57511706Y-58027511D01*
X57509502Y-58017603D01*
X57505853Y-58012039D01*
X57501005Y-57979400D01*
X57500505Y-57977152D01*
X57500500Y-57976613D01*
X57500500Y-57934108D01*
X57500090Y-57932581D01*
X57500005Y-57923337D01*
X57500062Y-57923135D01*
X57500000Y-57922185D01*
X57500000Y-56111689D01*
X57519685Y-56044650D01*
X57536319Y-56024008D01*
X57624008Y-55936319D01*
X57685331Y-55902834D01*
X57711689Y-55900000D01*
X59776000Y-55900000D01*
X59843039Y-55919685D01*
G37*
%TD.AperFunction*%
%TD*%
%TA.AperFunction,Conductor*%
%TO.N,GND*%
G36*
X55293834Y-57269007D02*
G01*
X55349767Y-57310879D01*
X55374184Y-57376343D01*
X55374500Y-57385189D01*
X55374500Y-58184619D01*
X55354815Y-58251658D01*
X55319392Y-58287720D01*
X55255448Y-58330446D01*
X55211132Y-58396769D01*
X55211131Y-58396770D01*
X55199500Y-58455247D01*
X55199500Y-59594752D01*
X55211131Y-59653229D01*
X55211132Y-59653230D01*
X55254887Y-59718712D01*
X55255448Y-59719552D01*
X55319392Y-59762279D01*
X55324481Y-59768367D01*
X55331703Y-59771666D01*
X55346564Y-59794791D01*
X55364196Y-59815888D01*
X55366148Y-59825264D01*
X55369477Y-59830444D01*
X55374500Y-59865379D01*
X55374500Y-60002598D01*
X55354815Y-60069637D01*
X55338181Y-60090279D01*
X55246776Y-60181683D01*
X55196027Y-60290514D01*
X55189500Y-60340097D01*
X55189500Y-60699894D01*
X55189501Y-60699900D01*
X55196028Y-60749487D01*
X55246776Y-60858316D01*
X55331684Y-60943224D01*
X55440513Y-60993972D01*
X55490099Y-61000500D01*
X55909900Y-61000499D01*
X55959487Y-60993972D01*
X56068316Y-60943224D01*
X56153224Y-60858316D01*
X56203972Y-60749487D01*
X56203973Y-60749476D01*
X56206454Y-60740970D01*
X56244113Y-60682118D01*
X56307612Y-60652968D01*
X56376790Y-60662776D01*
X56429684Y-60708427D01*
X56449500Y-60775427D01*
X56449500Y-62203456D01*
X56429815Y-62270495D01*
X56413181Y-62291137D01*
X56091994Y-62612323D01*
X56030671Y-62645808D01*
X55960979Y-62640824D01*
X55905046Y-62598952D01*
X55893829Y-62580938D01*
X55868025Y-62530296D01*
X55849658Y-62494249D01*
X55849655Y-62494246D01*
X55849653Y-62494243D01*
X55755756Y-62400346D01*
X55755753Y-62400344D01*
X55755751Y-62400342D01*
X55637420Y-62340049D01*
X55637419Y-62340048D01*
X55637416Y-62340047D01*
X55637417Y-62340047D01*
X55539251Y-62324500D01*
X55539246Y-62324500D01*
X55035754Y-62324500D01*
X55035749Y-62324500D01*
X54937582Y-62340047D01*
X54861290Y-62378921D01*
X54819249Y-62400342D01*
X54819248Y-62400343D01*
X54819243Y-62400346D01*
X54725346Y-62494243D01*
X54725344Y-62494247D01*
X54725342Y-62494249D01*
X54706975Y-62530296D01*
X54665047Y-62612582D01*
X54649500Y-62710748D01*
X54649500Y-63289251D01*
X54665047Y-63387417D01*
X54674212Y-63405404D01*
X54725342Y-63505751D01*
X54725344Y-63505753D01*
X54725346Y-63505756D01*
X54819243Y-63599653D01*
X54819245Y-63599654D01*
X54819249Y-63599658D01*
X54937580Y-63659951D01*
X54937581Y-63659951D01*
X54937583Y-63659952D01*
X54937582Y-63659952D01*
X55035749Y-63675500D01*
X55035754Y-63675500D01*
X55539251Y-63675500D01*
X55637417Y-63659952D01*
X55637418Y-63659951D01*
X55637420Y-63659951D01*
X55650111Y-63653484D01*
X55718777Y-63640585D01*
X55783518Y-63666859D01*
X55823778Y-63723963D01*
X55826774Y-63793769D01*
X55794089Y-63851648D01*
X55120090Y-64525648D01*
X55111067Y-64533826D01*
X55011631Y-64615419D01*
X54991420Y-64628921D01*
X54883384Y-64686660D01*
X54860927Y-64695961D01*
X54743694Y-64731518D01*
X54719856Y-64736259D01*
X54591455Y-64748903D01*
X54579303Y-64749500D01*
X48170301Y-64749500D01*
X48158148Y-64748903D01*
X48144202Y-64747529D01*
X48030141Y-64736296D01*
X48006302Y-64731554D01*
X47889075Y-64695996D01*
X47866616Y-64686694D01*
X47758577Y-64628947D01*
X47738365Y-64615442D01*
X47639013Y-64533908D01*
X47629995Y-64525735D01*
X47474330Y-64370069D01*
X47466158Y-64361052D01*
X47384565Y-64261629D01*
X47371060Y-64241417D01*
X47313314Y-64133379D01*
X47304014Y-64110926D01*
X47268451Y-63993687D01*
X47263712Y-63969860D01*
X47251096Y-63841750D01*
X47250500Y-63829600D01*
X47250500Y-63068995D01*
X48549499Y-63068995D01*
X48576418Y-63204322D01*
X48576421Y-63204332D01*
X48629221Y-63331804D01*
X48629228Y-63331817D01*
X48705885Y-63446541D01*
X48705888Y-63446545D01*
X48803454Y-63544111D01*
X48803458Y-63544114D01*
X48918182Y-63620771D01*
X48918195Y-63620778D01*
X49012771Y-63659952D01*
X49045672Y-63673580D01*
X49045676Y-63673580D01*
X49045677Y-63673581D01*
X49181004Y-63700500D01*
X49181007Y-63700500D01*
X49318995Y-63700500D01*
X49410041Y-63682389D01*
X49454328Y-63673580D01*
X49581811Y-63620775D01*
X49696542Y-63544114D01*
X49734907Y-63505749D01*
X49778838Y-63461819D01*
X49840161Y-63428334D01*
X49866519Y-63425500D01*
X51022169Y-63425500D01*
X51089208Y-63445185D01*
X51109850Y-63461819D01*
X51137096Y-63489065D01*
X51244327Y-63539068D01*
X51293183Y-63545500D01*
X51293184Y-63545500D01*
X51641817Y-63545500D01*
X51658101Y-63543356D01*
X51690673Y-63539068D01*
X51797904Y-63489065D01*
X51881565Y-63405404D01*
X51881565Y-63405403D01*
X51889236Y-63397733D01*
X51892064Y-63400561D01*
X51930477Y-63369843D01*
X51999974Y-63362635D01*
X52062335Y-63394143D01*
X52065593Y-63397903D01*
X52065764Y-63397733D01*
X52073435Y-63405404D01*
X52157096Y-63489065D01*
X52264327Y-63539068D01*
X52313183Y-63545500D01*
X52313184Y-63545500D01*
X52661817Y-63545500D01*
X52678101Y-63543356D01*
X52710673Y-63539068D01*
X52817904Y-63489065D01*
X52845150Y-63461819D01*
X52872077Y-63447115D01*
X52897896Y-63430523D01*
X52904096Y-63429631D01*
X52906473Y-63428334D01*
X52932831Y-63425500D01*
X53033465Y-63425500D01*
X53100504Y-63445185D01*
X53143949Y-63493204D01*
X53150341Y-63505749D01*
X53150346Y-63505756D01*
X53244243Y-63599653D01*
X53244245Y-63599654D01*
X53244249Y-63599658D01*
X53362580Y-63659951D01*
X53362581Y-63659951D01*
X53362583Y-63659952D01*
X53362582Y-63659952D01*
X53460749Y-63675500D01*
X53460754Y-63675500D01*
X53964251Y-63675500D01*
X54062417Y-63659952D01*
X54062418Y-63659951D01*
X54062420Y-63659951D01*
X54180751Y-63599658D01*
X54274658Y-63505751D01*
X54334951Y-63387420D01*
X54334951Y-63387418D01*
X54334952Y-63387417D01*
X54350500Y-63289251D01*
X54350500Y-62710748D01*
X54334952Y-62612582D01*
X54332409Y-62607591D01*
X54274658Y-62494249D01*
X54274654Y-62494245D01*
X54274653Y-62494243D01*
X54180756Y-62400346D01*
X54180753Y-62400344D01*
X54180751Y-62400342D01*
X54062420Y-62340049D01*
X54062419Y-62340048D01*
X54062416Y-62340047D01*
X54062417Y-62340047D01*
X53964251Y-62324500D01*
X53964246Y-62324500D01*
X53460754Y-62324500D01*
X53460749Y-62324500D01*
X53362582Y-62340047D01*
X53286290Y-62378921D01*
X53244249Y-62400342D01*
X53244248Y-62400343D01*
X53244243Y-62400346D01*
X53150346Y-62494243D01*
X53150343Y-62494247D01*
X53150342Y-62494249D01*
X53118471Y-62556797D01*
X53108024Y-62567859D01*
X53101702Y-62581703D01*
X53084522Y-62592743D01*
X53070500Y-62607591D01*
X53054818Y-62611832D01*
X53042924Y-62619477D01*
X53007989Y-62624500D01*
X52932831Y-62624500D01*
X52865792Y-62604815D01*
X52845150Y-62588181D01*
X52817904Y-62560935D01*
X52752201Y-62530297D01*
X52710673Y-62510932D01*
X52710671Y-62510931D01*
X52710672Y-62510931D01*
X52661817Y-62504500D01*
X52661816Y-62504500D01*
X52313184Y-62504500D01*
X52313183Y-62504500D01*
X52264328Y-62510931D01*
X52157095Y-62560935D01*
X52065764Y-62652267D01*
X52062940Y-62649443D01*
X52024458Y-62680183D01*
X51954958Y-62687352D01*
X51892614Y-62655808D01*
X51889401Y-62652101D01*
X51889236Y-62652267D01*
X51797904Y-62560935D01*
X51732201Y-62530297D01*
X51690673Y-62510932D01*
X51690671Y-62510931D01*
X51690672Y-62510931D01*
X51641817Y-62504500D01*
X51641816Y-62504500D01*
X51293184Y-62504500D01*
X51293183Y-62504500D01*
X51244328Y-62510931D01*
X51137095Y-62560935D01*
X51109850Y-62588181D01*
X51048527Y-62621666D01*
X51022169Y-62624500D01*
X49907862Y-62624500D01*
X49840823Y-62604815D01*
X49804759Y-62569389D01*
X49794115Y-62553459D01*
X49794111Y-62553454D01*
X49696545Y-62455888D01*
X49696541Y-62455885D01*
X49581817Y-62379228D01*
X49581804Y-62379221D01*
X49454332Y-62326421D01*
X49454322Y-62326418D01*
X49318995Y-62299500D01*
X49318993Y-62299500D01*
X49181007Y-62299500D01*
X49181005Y-62299500D01*
X49045677Y-62326418D01*
X49045667Y-62326421D01*
X48918195Y-62379221D01*
X48918182Y-62379228D01*
X48803458Y-62455885D01*
X48803454Y-62455888D01*
X48705888Y-62553454D01*
X48705885Y-62553458D01*
X48629228Y-62668182D01*
X48629221Y-62668195D01*
X48576421Y-62795667D01*
X48576418Y-62795677D01*
X48549500Y-62931004D01*
X48549500Y-62931007D01*
X48549500Y-63068993D01*
X48549500Y-63068995D01*
X48549499Y-63068995D01*
X47250500Y-63068995D01*
X47250500Y-61420301D01*
X47251097Y-61408148D01*
X47255407Y-61364386D01*
X47263703Y-61280141D01*
X47268443Y-61256316D01*
X47304007Y-61139082D01*
X47313306Y-61116634D01*
X47371059Y-61008594D01*
X47384558Y-60988393D01*
X47466302Y-60888798D01*
X47474452Y-60879807D01*
X47477814Y-60876445D01*
X47477822Y-60876441D01*
X47477821Y-60876440D01*
X47511436Y-60842830D01*
X47511459Y-60842800D01*
X49879919Y-58474341D01*
X49888920Y-58466183D01*
X49988371Y-58384577D01*
X50008575Y-58371080D01*
X50116619Y-58313337D01*
X50139070Y-58304038D01*
X50256305Y-58268480D01*
X50280141Y-58263740D01*
X50336874Y-58258154D01*
X50408546Y-58251097D01*
X50420697Y-58250500D01*
X52897728Y-58250500D01*
X52898105Y-58250462D01*
X52934195Y-58250463D01*
X53128599Y-58219678D01*
X53128601Y-58219677D01*
X53128603Y-58219677D01*
X53179021Y-58203297D01*
X53315794Y-58158863D01*
X53491172Y-58069515D01*
X53650415Y-57953835D01*
X53684779Y-57919475D01*
X53684790Y-57919471D01*
X53720009Y-57884252D01*
X53751244Y-57853021D01*
X53751244Y-57853019D01*
X53760615Y-57843650D01*
X53760636Y-57843623D01*
X53762821Y-57841438D01*
X53824142Y-57807955D01*
X53893834Y-57812939D01*
X53949767Y-57854811D01*
X53974184Y-57920275D01*
X53974500Y-57929121D01*
X53974500Y-58184619D01*
X53954815Y-58251658D01*
X53919392Y-58287720D01*
X53855448Y-58330446D01*
X53811132Y-58396769D01*
X53811131Y-58396770D01*
X53799500Y-58455247D01*
X53799500Y-59594752D01*
X53811131Y-59653229D01*
X53811132Y-59653230D01*
X53854887Y-59718712D01*
X53855448Y-59719552D01*
X53919392Y-59762279D01*
X53924481Y-59768367D01*
X53931703Y-59771666D01*
X53946564Y-59794791D01*
X53964196Y-59815888D01*
X53966148Y-59825264D01*
X53969477Y-59830444D01*
X53974500Y-59865379D01*
X53974500Y-59974498D01*
X53954815Y-60041537D01*
X53902907Y-60086879D01*
X53881684Y-60096775D01*
X53796776Y-60181683D01*
X53746027Y-60290514D01*
X53739500Y-60340097D01*
X53739500Y-60699894D01*
X53739501Y-60699900D01*
X53746028Y-60749487D01*
X53796776Y-60858316D01*
X53881684Y-60943224D01*
X53990513Y-60993972D01*
X54040099Y-61000500D01*
X54459900Y-61000499D01*
X54509487Y-60993972D01*
X54618316Y-60943224D01*
X54703224Y-60858316D01*
X54753972Y-60749487D01*
X54760500Y-60699901D01*
X54760499Y-60340100D01*
X54753972Y-60290513D01*
X54703224Y-60181684D01*
X54661819Y-60140279D01*
X54647115Y-60113351D01*
X54630523Y-60087533D01*
X54629631Y-60081332D01*
X54628334Y-60078956D01*
X54625500Y-60052598D01*
X54625500Y-59865379D01*
X54645185Y-59798340D01*
X54680606Y-59762280D01*
X54744552Y-59719552D01*
X54788867Y-59653231D01*
X54788867Y-59653229D01*
X54788868Y-59653229D01*
X54799326Y-59600649D01*
X54800500Y-59594748D01*
X54800500Y-58455252D01*
X54800500Y-58455249D01*
X54800499Y-58455247D01*
X54788868Y-58396770D01*
X54788867Y-58396769D01*
X54744551Y-58330446D01*
X54680608Y-58287720D01*
X54635804Y-58234108D01*
X54625500Y-58184619D01*
X54625500Y-57886189D01*
X54645185Y-57819150D01*
X54661819Y-57798508D01*
X55162819Y-57297508D01*
X55224142Y-57264023D01*
X55293834Y-57269007D01*
G37*
%TD.AperFunction*%
%TA.AperFunction,Conductor*%
G36*
X67717539Y-54820185D02*
G01*
X67763294Y-54872989D01*
X67774500Y-54924500D01*
X67774500Y-55283260D01*
X67784426Y-55351391D01*
X67784427Y-55351393D01*
X67835802Y-55456483D01*
X67841578Y-55462259D01*
X67841581Y-55462263D01*
X67918514Y-55539196D01*
X67918515Y-55539196D01*
X67918517Y-55539198D01*
X68023607Y-55590573D01*
X68057673Y-55595536D01*
X68091739Y-55600500D01*
X68091740Y-55600500D01*
X69908261Y-55600500D01*
X69930971Y-55597191D01*
X69976393Y-55590573D01*
X70081483Y-55539198D01*
X70164198Y-55456483D01*
X70189099Y-55405545D01*
X70236227Y-55353964D01*
X70303761Y-55336049D01*
X70370260Y-55357490D01*
X70414610Y-55411479D01*
X70424500Y-55460006D01*
X70424500Y-56009993D01*
X70404815Y-56077032D01*
X70388214Y-56091416D01*
X70401496Y-56098263D01*
X70430703Y-56111602D01*
X70433173Y-56114593D01*
X70435069Y-56115571D01*
X70456886Y-56143312D01*
X70489535Y-56199862D01*
X71350138Y-57060465D01*
X71424361Y-57103318D01*
X71507147Y-57125500D01*
X71507149Y-57125500D01*
X74720878Y-57125500D01*
X74787917Y-57145185D01*
X74833672Y-57197989D01*
X74843616Y-57267147D01*
X74814591Y-57330703D01*
X74808559Y-57337181D01*
X70437181Y-61708556D01*
X70375858Y-61742041D01*
X70306166Y-61737057D01*
X70250233Y-61695185D01*
X70225816Y-61629721D01*
X70225500Y-61620875D01*
X70225500Y-61266739D01*
X70216302Y-61203608D01*
X70215573Y-61198607D01*
X70164198Y-61093517D01*
X70164196Y-61093515D01*
X70164196Y-61093514D01*
X70081485Y-61010803D01*
X69976391Y-60959426D01*
X69908261Y-60949500D01*
X69908260Y-60949500D01*
X68091740Y-60949500D01*
X68091739Y-60949500D01*
X68023608Y-60959426D01*
X67918514Y-61010803D01*
X67835803Y-61093514D01*
X67784426Y-61198608D01*
X67774500Y-61266739D01*
X67774500Y-61633260D01*
X67784426Y-61701391D01*
X67835803Y-61806485D01*
X67918514Y-61889196D01*
X67918515Y-61889196D01*
X67918517Y-61889198D01*
X68023607Y-61940573D01*
X68057673Y-61945536D01*
X68091739Y-61950500D01*
X69895875Y-61950500D01*
X69917120Y-61956738D01*
X69939209Y-61958318D01*
X69949992Y-61966390D01*
X69962914Y-61970185D01*
X69977413Y-61986918D01*
X69995142Y-62000190D01*
X69999849Y-62012810D01*
X70008669Y-62022989D01*
X70011820Y-62044906D01*
X70019559Y-62065654D01*
X70016696Y-62078814D01*
X70018613Y-62092147D01*
X70009413Y-62112290D01*
X70004707Y-62133927D01*
X69991437Y-62151653D01*
X69989588Y-62155703D01*
X69983556Y-62162182D01*
X69870079Y-62275658D01*
X69861056Y-62283835D01*
X69761631Y-62365419D01*
X69741420Y-62378921D01*
X69633384Y-62436660D01*
X69610927Y-62445961D01*
X69493694Y-62481518D01*
X69469856Y-62486259D01*
X69341455Y-62498903D01*
X69329303Y-62499500D01*
X57603593Y-62499500D01*
X57603502Y-62499508D01*
X57565795Y-62499508D01*
X57371393Y-62530296D01*
X57371385Y-62530298D01*
X57312817Y-62549328D01*
X57242975Y-62551323D01*
X57183143Y-62515242D01*
X57152316Y-62452540D01*
X57150500Y-62431397D01*
X57150500Y-61271739D01*
X57474500Y-61271739D01*
X57474500Y-61638260D01*
X57484426Y-61706391D01*
X57535803Y-61811485D01*
X57618514Y-61894196D01*
X57618515Y-61894196D01*
X57618517Y-61894198D01*
X57723607Y-61945573D01*
X57757423Y-61950500D01*
X57791739Y-61955500D01*
X57791740Y-61955500D01*
X59608261Y-61955500D01*
X59642577Y-61950500D01*
X59676393Y-61945573D01*
X59781483Y-61894198D01*
X59864198Y-61811483D01*
X59915573Y-61706393D01*
X59925500Y-61638260D01*
X59925500Y-61271740D01*
X59924954Y-61267996D01*
X59915573Y-61203608D01*
X59913129Y-61198608D01*
X59864198Y-61098517D01*
X59864196Y-61098515D01*
X59864196Y-61098514D01*
X59781485Y-61015803D01*
X59676391Y-60964426D01*
X59608261Y-60954500D01*
X59608260Y-60954500D01*
X57791740Y-60954500D01*
X57791739Y-60954500D01*
X57723608Y-60964426D01*
X57618514Y-61015803D01*
X57535803Y-61098514D01*
X57484426Y-61203608D01*
X57474500Y-61271739D01*
X57150500Y-61271739D01*
X57150500Y-59896543D01*
X57170185Y-59829504D01*
X57186815Y-59808866D01*
X57571341Y-59424339D01*
X57632662Y-59390856D01*
X57702353Y-59395840D01*
X57713470Y-59400617D01*
X57723607Y-59405573D01*
X57723609Y-59405573D01*
X57723611Y-59405574D01*
X57791739Y-59415500D01*
X57791740Y-59415500D01*
X59608258Y-59415500D01*
X59608260Y-59415500D01*
X59620989Y-59413645D01*
X59651479Y-59417969D01*
X59682202Y-59420167D01*
X59685762Y-59422832D01*
X59690165Y-59423457D01*
X59713481Y-59443583D01*
X59738135Y-59462039D01*
X59739688Y-59466204D01*
X59743056Y-59469111D01*
X59751791Y-59498652D01*
X59762552Y-59527503D01*
X59761606Y-59531847D01*
X59762868Y-59536113D01*
X59754245Y-59565685D01*
X59747700Y-59595776D01*
X59744051Y-59600649D01*
X59743311Y-59603190D01*
X59726549Y-59624030D01*
X59702265Y-59648314D01*
X59640942Y-59681799D01*
X59612747Y-59683803D01*
X59612747Y-59684500D01*
X57791739Y-59684500D01*
X57723608Y-59694426D01*
X57618514Y-59745803D01*
X57535803Y-59828514D01*
X57484426Y-59933608D01*
X57474500Y-60001739D01*
X57474500Y-60368260D01*
X57484426Y-60436391D01*
X57535803Y-60541485D01*
X57618514Y-60624196D01*
X57618515Y-60624196D01*
X57618517Y-60624198D01*
X57723607Y-60675573D01*
X57757423Y-60680500D01*
X57791739Y-60685500D01*
X57791740Y-60685500D01*
X59608261Y-60685500D01*
X59642577Y-60680500D01*
X59676393Y-60675573D01*
X59781483Y-60624198D01*
X59864198Y-60541483D01*
X59915573Y-60436393D01*
X59923410Y-60382602D01*
X59932599Y-60362581D01*
X59937282Y-60341055D01*
X59950714Y-60323111D01*
X59952554Y-60319104D01*
X59958420Y-60312814D01*
X60037820Y-60233414D01*
X60099142Y-60199930D01*
X60168834Y-60204914D01*
X60224767Y-60246786D01*
X60249184Y-60312250D01*
X60249500Y-60321096D01*
X60249500Y-61455830D01*
X60249500Y-61500000D01*
X60249500Y-61573918D01*
X60249500Y-61573920D01*
X60249499Y-61573920D01*
X60278340Y-61718907D01*
X60278343Y-61718917D01*
X60334912Y-61855488D01*
X60334919Y-61855501D01*
X60417048Y-61978415D01*
X60417051Y-61978419D01*
X60521580Y-62082948D01*
X60521584Y-62082951D01*
X60644498Y-62165080D01*
X60644511Y-62165087D01*
X60737143Y-62203456D01*
X60781087Y-62221658D01*
X60781091Y-62221658D01*
X60781092Y-62221659D01*
X60926079Y-62250500D01*
X60926082Y-62250500D01*
X65573920Y-62250500D01*
X65671462Y-62231096D01*
X65718913Y-62221658D01*
X65855495Y-62165084D01*
X65978416Y-62082951D01*
X66082951Y-61978416D01*
X66165084Y-61855495D01*
X66221658Y-61718913D01*
X66239400Y-61629721D01*
X66250500Y-61573920D01*
X66250500Y-61009755D01*
X66252025Y-60990369D01*
X66259639Y-60942291D01*
X66271624Y-60905406D01*
X66289237Y-60870840D01*
X66312033Y-60839464D01*
X66339464Y-60812033D01*
X66370840Y-60789237D01*
X66405406Y-60771624D01*
X66442291Y-60759639D01*
X66490368Y-60752025D01*
X66509756Y-60750500D01*
X67073920Y-60750500D01*
X67171462Y-60731096D01*
X67218913Y-60721658D01*
X67355495Y-60665084D01*
X67478416Y-60582951D01*
X67582951Y-60478416D01*
X67592775Y-60463712D01*
X67646384Y-60418906D01*
X67715709Y-60410196D01*
X67778738Y-60440348D01*
X67807279Y-60478140D01*
X67835800Y-60536482D01*
X67918514Y-60619196D01*
X67918515Y-60619196D01*
X67918517Y-60619198D01*
X68023607Y-60670573D01*
X68057673Y-60675536D01*
X68091739Y-60680500D01*
X68091740Y-60680500D01*
X69908261Y-60680500D01*
X69930971Y-60677191D01*
X69976393Y-60670573D01*
X70081483Y-60619198D01*
X70164198Y-60536483D01*
X70215573Y-60431393D01*
X70225500Y-60363260D01*
X70225500Y-59996740D01*
X70215573Y-59928607D01*
X70164198Y-59823517D01*
X70164196Y-59823515D01*
X70164196Y-59823514D01*
X70081485Y-59740803D01*
X69976391Y-59689426D01*
X69908261Y-59679500D01*
X69908260Y-59679500D01*
X68091740Y-59679500D01*
X68091739Y-59679500D01*
X68023608Y-59689426D01*
X67928960Y-59735697D01*
X67927289Y-59735982D01*
X67926011Y-59737090D01*
X67893002Y-59741836D01*
X67860087Y-59747456D01*
X67858528Y-59746793D01*
X67856853Y-59747034D01*
X67826498Y-59733171D01*
X67795790Y-59720112D01*
X67794837Y-59718712D01*
X67793297Y-59718009D01*
X67775251Y-59689929D01*
X67756483Y-59662348D01*
X67756145Y-59660199D01*
X67755523Y-59659231D01*
X67750500Y-59624296D01*
X67750500Y-59465703D01*
X67770185Y-59398664D01*
X67822989Y-59352909D01*
X67892147Y-59342965D01*
X67928956Y-59354301D01*
X68019702Y-59398664D01*
X68023607Y-59400573D01*
X68091739Y-59410500D01*
X68091740Y-59410500D01*
X69908261Y-59410500D01*
X69942069Y-59405574D01*
X69976393Y-59400573D01*
X70081483Y-59349198D01*
X70164198Y-59266483D01*
X70215573Y-59161393D01*
X70225500Y-59093260D01*
X70225500Y-58726740D01*
X70215573Y-58658607D01*
X70164198Y-58553517D01*
X70164196Y-58553515D01*
X70164196Y-58553514D01*
X70081485Y-58470803D01*
X70049664Y-58455247D01*
X69976393Y-58419427D01*
X69976391Y-58419426D01*
X69908261Y-58409500D01*
X69908260Y-58409500D01*
X68091740Y-58409500D01*
X68091739Y-58409500D01*
X68023608Y-58419426D01*
X67985312Y-58438148D01*
X67950332Y-58455249D01*
X67928960Y-58465697D01*
X67860087Y-58477456D01*
X67795790Y-58450112D01*
X67756483Y-58392348D01*
X67750500Y-58354296D01*
X67750500Y-56925703D01*
X67770185Y-56858664D01*
X67822989Y-56812909D01*
X67892147Y-56802965D01*
X67928956Y-56814301D01*
X68019702Y-56858664D01*
X68023607Y-56860573D01*
X68091739Y-56870500D01*
X68091740Y-56870500D01*
X69908261Y-56870500D01*
X69930971Y-56867191D01*
X69976393Y-56860573D01*
X70081483Y-56809198D01*
X70164198Y-56726483D01*
X70215573Y-56621393D01*
X70225500Y-56553260D01*
X70225500Y-56205315D01*
X70226360Y-56202385D01*
X70225640Y-56199416D01*
X70236142Y-56169069D01*
X70245185Y-56138276D01*
X70247492Y-56136276D01*
X70248492Y-56133389D01*
X70261644Y-56123045D01*
X70219297Y-56103706D01*
X70189100Y-56064454D01*
X70164197Y-56013515D01*
X70081485Y-55930803D01*
X69976391Y-55879426D01*
X69908261Y-55869500D01*
X69908260Y-55869500D01*
X68091740Y-55869500D01*
X68091739Y-55869500D01*
X68023607Y-55879426D01*
X68023606Y-55879426D01*
X67910907Y-55934521D01*
X67842034Y-55946279D01*
X67777737Y-55918936D01*
X67738431Y-55861171D01*
X67734831Y-55847311D01*
X67727271Y-55809306D01*
X67721658Y-55781087D01*
X67715887Y-55767154D01*
X67665087Y-55644511D01*
X67665080Y-55644498D01*
X67642162Y-55610199D01*
X67619735Y-55576635D01*
X67619734Y-55576633D01*
X67582954Y-55521588D01*
X67582948Y-55521580D01*
X67478419Y-55417051D01*
X67478415Y-55417048D01*
X67355501Y-55334919D01*
X67355488Y-55334912D01*
X67218917Y-55278343D01*
X67218907Y-55278340D01*
X67073920Y-55249500D01*
X67073918Y-55249500D01*
X67049828Y-55249500D01*
X61544170Y-55249500D01*
X61500000Y-55249500D01*
X61426082Y-55249500D01*
X61426080Y-55249500D01*
X61281092Y-55278340D01*
X61281082Y-55278343D01*
X61144511Y-55334912D01*
X61144498Y-55334919D01*
X61068391Y-55385773D01*
X61001713Y-55406651D01*
X60934333Y-55388166D01*
X60887643Y-55336187D01*
X60875500Y-55282671D01*
X60875500Y-54924500D01*
X60895185Y-54857461D01*
X60947989Y-54811706D01*
X60999500Y-54800500D01*
X67650500Y-54800500D01*
X67717539Y-54820185D01*
G37*
%TD.AperFunction*%
%TA.AperFunction,Conductor*%
G36*
X57213834Y-56449007D02*
G01*
X57269767Y-56490879D01*
X57294184Y-56556343D01*
X57294500Y-56565189D01*
X57294500Y-57921645D01*
X57294485Y-57922114D01*
X57294598Y-57934468D01*
X57294674Y-57935501D01*
X57295000Y-57944490D01*
X57295000Y-57972363D01*
X57293143Y-57978684D01*
X57299395Y-58020771D01*
X57299412Y-58020882D01*
X57299466Y-58021248D01*
X57302583Y-58042232D01*
X57303880Y-58045636D01*
X57309044Y-58062851D01*
X57311105Y-58072118D01*
X57311109Y-58072133D01*
X57313390Y-58081370D01*
X57327778Y-58108372D01*
X57334012Y-58124737D01*
X57337661Y-58130301D01*
X57338996Y-58129425D01*
X57356398Y-58162083D01*
X57356400Y-58162086D01*
X57356401Y-58162087D01*
X57359641Y-58165827D01*
X57369604Y-58179007D01*
X57372330Y-58183162D01*
X57372330Y-58183163D01*
X57387372Y-58203295D01*
X57387374Y-58203297D01*
X57400902Y-58213444D01*
X57402164Y-58214900D01*
X57419747Y-58232844D01*
X57447352Y-58248285D01*
X57460536Y-58258174D01*
X57468277Y-58261623D01*
X57468277Y-58261622D01*
X57477474Y-58265720D01*
X57482619Y-58268012D01*
X57499565Y-58277491D01*
X57512267Y-58281220D01*
X57524364Y-58286610D01*
X57547938Y-58295426D01*
X57547940Y-58295426D01*
X57550036Y-58296210D01*
X57605933Y-58338130D01*
X57630293Y-58403616D01*
X57615381Y-58471876D01*
X57594282Y-58500035D01*
X57555005Y-58539312D01*
X57499421Y-58571405D01*
X57454712Y-58583385D01*
X57454708Y-58583387D01*
X57374791Y-58629527D01*
X57374786Y-58629531D01*
X56519531Y-59484786D01*
X56519529Y-59484789D01*
X56473707Y-59564157D01*
X56473667Y-59564226D01*
X56473386Y-59564710D01*
X56473386Y-59564711D01*
X56449500Y-59653856D01*
X56449500Y-60264330D01*
X56429815Y-60331369D01*
X56377011Y-60377124D01*
X56307853Y-60387068D01*
X56244297Y-60358043D01*
X56206523Y-60299265D01*
X56206453Y-60299025D01*
X56203972Y-60290513D01*
X56203970Y-60290509D01*
X56153224Y-60181684D01*
X56068316Y-60096776D01*
X56061819Y-60090279D01*
X56047115Y-60063351D01*
X56030523Y-60037533D01*
X56029631Y-60031332D01*
X56028334Y-60028956D01*
X56025500Y-60002598D01*
X56025500Y-59865379D01*
X56045185Y-59798340D01*
X56080606Y-59762280D01*
X56144552Y-59719552D01*
X56188867Y-59653231D01*
X56188867Y-59653229D01*
X56188868Y-59653229D01*
X56199326Y-59600649D01*
X56200500Y-59594748D01*
X56200500Y-58455252D01*
X56200500Y-58455249D01*
X56200499Y-58455247D01*
X56188868Y-58396770D01*
X56188867Y-58396769D01*
X56144551Y-58330446D01*
X56080608Y-58287720D01*
X56035804Y-58234108D01*
X56025500Y-58184619D01*
X56025500Y-57586189D01*
X56045185Y-57519150D01*
X56061819Y-57498508D01*
X57082819Y-56477508D01*
X57144142Y-56444023D01*
X57213834Y-56449007D01*
G37*
%TD.AperFunction*%
%TA.AperFunction,Conductor*%
G36*
X78375703Y-54279735D02*
G01*
X78393692Y-54301524D01*
X78394552Y-54300865D01*
X78399498Y-54307311D01*
X78399500Y-54307314D01*
X78492686Y-54400500D01*
X78606814Y-54466392D01*
X78734108Y-54500500D01*
X78734110Y-54500500D01*
X78865890Y-54500500D01*
X78865892Y-54500500D01*
X78993186Y-54466392D01*
X79107314Y-54400500D01*
X79112319Y-54395495D01*
X79173642Y-54362010D01*
X79243334Y-54366994D01*
X79287681Y-54395495D01*
X79292686Y-54400500D01*
X79406814Y-54466392D01*
X79534108Y-54500500D01*
X79534110Y-54500500D01*
X79665890Y-54500500D01*
X79665892Y-54500500D01*
X79793186Y-54466392D01*
X79907314Y-54400500D01*
X79987819Y-54319995D01*
X80049142Y-54286510D01*
X80118834Y-54291494D01*
X80174767Y-54333366D01*
X80199184Y-54398830D01*
X80199500Y-54407676D01*
X80199500Y-56356389D01*
X80200089Y-56361618D01*
X80188033Y-56430440D01*
X80140683Y-56481819D01*
X80076868Y-56499500D01*
X76831478Y-56499500D01*
X76764439Y-56479815D01*
X76718684Y-56427011D01*
X76708740Y-56357853D01*
X76737765Y-56294297D01*
X76769476Y-56268114D01*
X76771265Y-56267080D01*
X76782724Y-56260465D01*
X78044859Y-54998328D01*
X78044862Y-54998327D01*
X78105465Y-54937724D01*
X78128987Y-54896983D01*
X78148318Y-54863501D01*
X78170501Y-54780715D01*
X78170501Y-54695009D01*
X78170501Y-54687414D01*
X78170500Y-54687396D01*
X78170500Y-54373448D01*
X78190185Y-54306409D01*
X78242989Y-54260654D01*
X78312147Y-54250710D01*
X78375703Y-54279735D01*
G37*
%TD.AperFunction*%
%TA.AperFunction,Conductor*%
G36*
X77405703Y-53372973D02*
G01*
X77412181Y-53379005D01*
X77578035Y-53544859D01*
X77578037Y-53544862D01*
X77599499Y-53566324D01*
X77621243Y-53588068D01*
X77633629Y-53610752D01*
X77654727Y-53649389D01*
X77654726Y-53649390D01*
X77654727Y-53649391D01*
X77653959Y-53660126D01*
X77649743Y-53719080D01*
X77649742Y-53719081D01*
X77649742Y-53719083D01*
X77621244Y-53763427D01*
X77584538Y-53800134D01*
X77584535Y-53800138D01*
X77541682Y-53874361D01*
X77529507Y-53919799D01*
X77529507Y-53919800D01*
X77529506Y-53919799D01*
X77519500Y-53957143D01*
X77519500Y-54551673D01*
X77499815Y-54618712D01*
X77483181Y-54639354D01*
X76484354Y-55638181D01*
X76423031Y-55671666D01*
X76396673Y-55674500D01*
X75457147Y-55674500D01*
X75374359Y-55696682D01*
X75300138Y-55739535D01*
X75300135Y-55739537D01*
X74601492Y-56438181D01*
X74540169Y-56471666D01*
X74513811Y-56474500D01*
X71736189Y-56474500D01*
X71669150Y-56454815D01*
X71648508Y-56438181D01*
X71111819Y-55901492D01*
X71078334Y-55840169D01*
X71075500Y-55813811D01*
X71075500Y-54802814D01*
X71075501Y-54799793D01*
X71080434Y-54783011D01*
X71077187Y-54782470D01*
X71077188Y-54782464D01*
X71080436Y-54783005D01*
X71085485Y-54765830D01*
X71095186Y-54732795D01*
X71095201Y-54732781D01*
X71095208Y-54732760D01*
X71122363Y-54709245D01*
X71147990Y-54687040D01*
X71148010Y-54687037D01*
X71148027Y-54687023D01*
X71182292Y-54682107D01*
X71217148Y-54677096D01*
X71217167Y-54677105D01*
X71217189Y-54677102D01*
X71248814Y-54691557D01*
X71280704Y-54706121D01*
X71280731Y-54706146D01*
X71280735Y-54706148D01*
X71280737Y-54706152D01*
X71287182Y-54712153D01*
X71638181Y-55063152D01*
X71671666Y-55124475D01*
X71674500Y-55150833D01*
X71674500Y-55387036D01*
X71654815Y-55454075D01*
X71644451Y-55466935D01*
X71644458Y-55466941D01*
X71639511Y-55473387D01*
X71611687Y-55521580D01*
X71580201Y-55576114D01*
X71549500Y-55690691D01*
X71549500Y-55809309D01*
X71580201Y-55923886D01*
X71639511Y-56026613D01*
X71723387Y-56110489D01*
X71826114Y-56169799D01*
X71940691Y-56200500D01*
X71940694Y-56200500D01*
X72059306Y-56200500D01*
X72059309Y-56200500D01*
X72173886Y-56169799D01*
X72276613Y-56110489D01*
X72360489Y-56026613D01*
X72419799Y-55923886D01*
X72450500Y-55809309D01*
X72450500Y-55690691D01*
X72419799Y-55576114D01*
X72382493Y-55511500D01*
X72381061Y-55505598D01*
X72377087Y-55501011D01*
X72372922Y-55472048D01*
X72366021Y-55443601D01*
X72368007Y-55437862D01*
X72367143Y-55431853D01*
X72379301Y-55405230D01*
X72388873Y-55377574D01*
X72393645Y-55373820D01*
X72396168Y-55368297D01*
X72420791Y-55352472D01*
X72443794Y-55334383D01*
X72451144Y-55332966D01*
X72454946Y-55330523D01*
X72489881Y-55325500D01*
X72566324Y-55325500D01*
X72633363Y-55345185D01*
X72654005Y-55361819D01*
X72692686Y-55400500D01*
X72806814Y-55466392D01*
X72934108Y-55500500D01*
X72934110Y-55500500D01*
X73065890Y-55500500D01*
X73065892Y-55500500D01*
X73193186Y-55466392D01*
X73307314Y-55400500D01*
X73400500Y-55307314D01*
X73466392Y-55193186D01*
X73500500Y-55065892D01*
X73500500Y-54934108D01*
X73466392Y-54806814D01*
X73400500Y-54692686D01*
X73307314Y-54599500D01*
X73307311Y-54599498D01*
X73305847Y-54598375D01*
X73304921Y-54597107D01*
X73301567Y-54593753D01*
X73302090Y-54593229D01*
X73295759Y-54584559D01*
X73282068Y-54574310D01*
X73275585Y-54556931D01*
X73264645Y-54541947D01*
X73263627Y-54524870D01*
X73257651Y-54508846D01*
X73261594Y-54490720D01*
X73260491Y-54472201D01*
X73268942Y-54456940D01*
X73272503Y-54440573D01*
X73288089Y-54422367D01*
X73293654Y-54412319D01*
X73302958Y-54403014D01*
X73307314Y-54400500D01*
X73400500Y-54307314D01*
X73403014Y-54302958D01*
X73412319Y-54293654D01*
X73436131Y-54280651D01*
X73458053Y-54264645D01*
X73466349Y-54264150D01*
X73473642Y-54260169D01*
X73500707Y-54262104D01*
X73527799Y-54260491D01*
X73535044Y-54264560D01*
X73543334Y-54265153D01*
X73565058Y-54281416D01*
X73588719Y-54294704D01*
X73598375Y-54305847D01*
X73599498Y-54307311D01*
X73599499Y-54307313D01*
X73599502Y-54307316D01*
X73638181Y-54345995D01*
X73671666Y-54407318D01*
X73674500Y-54433676D01*
X73674500Y-54457147D01*
X73674500Y-54542853D01*
X73682929Y-54574310D01*
X73696682Y-54625640D01*
X73698399Y-54628613D01*
X73739535Y-54699862D01*
X73893281Y-54853608D01*
X74013181Y-54973507D01*
X74046666Y-55034830D01*
X74048431Y-55051249D01*
X74048439Y-55051249D01*
X74049499Y-55059305D01*
X74049500Y-55059308D01*
X74049500Y-55059309D01*
X74080201Y-55173886D01*
X74139511Y-55276613D01*
X74223387Y-55360489D01*
X74326114Y-55419799D01*
X74440691Y-55450500D01*
X74440694Y-55450500D01*
X74559306Y-55450500D01*
X74559309Y-55450500D01*
X74673886Y-55419799D01*
X74776613Y-55360489D01*
X74860489Y-55276613D01*
X74919799Y-55173886D01*
X74950500Y-55059309D01*
X74950500Y-54940691D01*
X74919799Y-54826114D01*
X74860489Y-54723387D01*
X74776613Y-54639511D01*
X74673886Y-54580201D01*
X74559309Y-54549500D01*
X74559305Y-54549499D01*
X74551249Y-54548439D01*
X74551484Y-54546650D01*
X74531750Y-54540855D01*
X74501760Y-54534332D01*
X74496744Y-54530577D01*
X74494149Y-54529815D01*
X74473506Y-54513180D01*
X74419149Y-54458822D01*
X74385665Y-54397499D01*
X74390650Y-54327807D01*
X74399444Y-54309141D01*
X74400497Y-54307316D01*
X74400500Y-54307314D01*
X74466392Y-54193186D01*
X74467115Y-54190487D01*
X74468346Y-54188466D01*
X74469500Y-54185682D01*
X74469934Y-54185861D01*
X74470274Y-54185303D01*
X74470708Y-54179244D01*
X74488247Y-54155814D01*
X74503477Y-54130827D01*
X74508940Y-54128172D01*
X74512580Y-54123311D01*
X74540000Y-54113083D01*
X74566323Y-54100296D01*
X74572352Y-54101016D01*
X74578044Y-54098894D01*
X74606640Y-54105114D01*
X74635699Y-54108588D01*
X74641900Y-54112785D01*
X74646317Y-54113746D01*
X74674571Y-54134897D01*
X74735194Y-54195520D01*
X74735204Y-54195531D01*
X74800139Y-54260466D01*
X74823921Y-54274196D01*
X74857542Y-54293607D01*
X74859089Y-54294500D01*
X74874360Y-54303317D01*
X74874361Y-54303317D01*
X74874362Y-54303318D01*
X74957148Y-54325501D01*
X74957150Y-54325501D01*
X75050449Y-54325501D01*
X75050465Y-54325500D01*
X75637036Y-54325500D01*
X75704075Y-54345185D01*
X75716935Y-54355548D01*
X75716941Y-54355542D01*
X75723382Y-54360484D01*
X75723387Y-54360489D01*
X75826114Y-54419799D01*
X75940691Y-54450500D01*
X75940694Y-54450500D01*
X76059306Y-54450500D01*
X76059309Y-54450500D01*
X76173886Y-54419799D01*
X76276613Y-54360489D01*
X76360489Y-54276613D01*
X76419799Y-54173886D01*
X76450500Y-54059309D01*
X76450500Y-54047740D01*
X76470185Y-53980701D01*
X76522989Y-53934946D01*
X76592147Y-53925002D01*
X76606575Y-53927961D01*
X76690691Y-53950500D01*
X76690694Y-53950500D01*
X76809306Y-53950500D01*
X76809309Y-53950500D01*
X76923886Y-53919799D01*
X77026613Y-53860489D01*
X77110489Y-53776613D01*
X77169799Y-53673886D01*
X77200500Y-53559309D01*
X77200500Y-53466686D01*
X77220185Y-53399647D01*
X77272989Y-53353892D01*
X77342147Y-53343948D01*
X77405703Y-53372973D01*
G37*
%TD.AperFunction*%
%TA.AperFunction,Conductor*%
G36*
X67961577Y-44270185D02*
G01*
X68007332Y-44322989D01*
X68017276Y-44392147D01*
X67988251Y-44455703D01*
X67948998Y-44485900D01*
X67918517Y-44500800D01*
X67835805Y-44583512D01*
X67832923Y-44587550D01*
X67777949Y-44630674D01*
X67770787Y-44633279D01*
X67751895Y-44639500D01*
X67720438Y-44639500D01*
X67644011Y-44659979D01*
X67594426Y-44688607D01*
X67583356Y-44694997D01*
X67583353Y-44694999D01*
X67575490Y-44699539D01*
X67575487Y-44699541D01*
X67089770Y-45185258D01*
X67028447Y-45218743D01*
X66958755Y-45213759D01*
X66902822Y-45171887D01*
X66882315Y-45129670D01*
X66862797Y-45056826D01*
X66796919Y-44942711D01*
X66703754Y-44849530D01*
X66589648Y-44783634D01*
X66589647Y-44783633D01*
X66589646Y-44783633D01*
X66589645Y-44783632D01*
X66462381Y-44749512D01*
X66462380Y-44749511D01*
X66462377Y-44749511D01*
X66462348Y-44749510D01*
X66458130Y-44749510D01*
X66458130Y-44749509D01*
X66446293Y-44749507D01*
X66446275Y-44749500D01*
X66396496Y-44749500D01*
X66396494Y-44749500D01*
X66396295Y-44749499D01*
X66341558Y-44749490D01*
X66341444Y-44749500D01*
X60693600Y-44749500D01*
X60583649Y-44774596D01*
X60482033Y-44823532D01*
X60482030Y-44823533D01*
X60393854Y-44893854D01*
X60323533Y-44982030D01*
X60323532Y-44982033D01*
X60274596Y-45083649D01*
X60249500Y-45193600D01*
X60249500Y-46841782D01*
X60249490Y-46845454D01*
X60249459Y-46845558D01*
X60249473Y-46927312D01*
X60249477Y-46945789D01*
X60249500Y-46945904D01*
X60249500Y-46946275D01*
X60249642Y-46946617D01*
X60252484Y-46960895D01*
X60252489Y-46960922D01*
X60261522Y-47006286D01*
X60255307Y-47075879D01*
X60212455Y-47131064D01*
X60146569Y-47154321D01*
X60139909Y-47154500D01*
X59941544Y-47154500D01*
X59874505Y-47134815D01*
X59853863Y-47118181D01*
X59781485Y-47045803D01*
X59676391Y-46994426D01*
X59608261Y-46984500D01*
X59608260Y-46984500D01*
X57791740Y-46984500D01*
X57791739Y-46984500D01*
X57723608Y-46994426D01*
X57618514Y-47045803D01*
X57535803Y-47128514D01*
X57484426Y-47233608D01*
X57474500Y-47301739D01*
X57474500Y-47668260D01*
X57484426Y-47736391D01*
X57535803Y-47841485D01*
X57618514Y-47924196D01*
X57618515Y-47924196D01*
X57618517Y-47924198D01*
X57723607Y-47975573D01*
X57757423Y-47980500D01*
X57791739Y-47985500D01*
X57791740Y-47985500D01*
X59608261Y-47985500D01*
X59642577Y-47980500D01*
X59676393Y-47975573D01*
X59781483Y-47924198D01*
X59810884Y-47894797D01*
X59863863Y-47841819D01*
X59890790Y-47827115D01*
X59916609Y-47810523D01*
X59922809Y-47809631D01*
X59925186Y-47808334D01*
X59951544Y-47805500D01*
X60038809Y-47805500D01*
X60105848Y-47825185D01*
X60126490Y-47841818D01*
X60188181Y-47903508D01*
X60221666Y-47964831D01*
X60224500Y-47991190D01*
X60224500Y-55713650D01*
X60204815Y-55780689D01*
X60152011Y-55826444D01*
X60082853Y-55836388D01*
X60019297Y-55807363D01*
X60006790Y-55794857D01*
X59998336Y-55785101D01*
X59980757Y-55767160D01*
X59980756Y-55767159D01*
X59980754Y-55767157D01*
X59980752Y-55767156D01*
X59980750Y-55767154D01*
X59900940Y-55722511D01*
X59900927Y-55722506D01*
X59871281Y-55713801D01*
X59812503Y-55676026D01*
X59783480Y-55612470D01*
X59793425Y-55543311D01*
X59818538Y-55507143D01*
X59864196Y-55461485D01*
X59864198Y-55461483D01*
X59915573Y-55356393D01*
X59925500Y-55288260D01*
X59925500Y-54921740D01*
X59924771Y-54916740D01*
X59917363Y-54865892D01*
X59915573Y-54853607D01*
X59864198Y-54748517D01*
X59864196Y-54748515D01*
X59864196Y-54748514D01*
X59781485Y-54665803D01*
X59676391Y-54614426D01*
X59608261Y-54604500D01*
X59608260Y-54604500D01*
X58155189Y-54604500D01*
X58133943Y-54598261D01*
X58111855Y-54596682D01*
X58101071Y-54588609D01*
X58088150Y-54584815D01*
X58073650Y-54568081D01*
X58055922Y-54554810D01*
X58051214Y-54542189D01*
X58042395Y-54532011D01*
X58039243Y-54510093D01*
X58031505Y-54489346D01*
X58034367Y-54476185D01*
X58032451Y-54462853D01*
X58041650Y-54442709D01*
X58046357Y-54421073D01*
X58059625Y-54403347D01*
X58061476Y-54399297D01*
X58067508Y-54392819D01*
X58088508Y-54371819D01*
X58149831Y-54338334D01*
X58176189Y-54335500D01*
X59608261Y-54335500D01*
X59630971Y-54332191D01*
X59676393Y-54325573D01*
X59781483Y-54274198D01*
X59864198Y-54191483D01*
X59915573Y-54086393D01*
X59925500Y-54018260D01*
X59925500Y-53651740D01*
X59925157Y-53649389D01*
X59916223Y-53588068D01*
X59915573Y-53583607D01*
X59864198Y-53478517D01*
X59864196Y-53478515D01*
X59864196Y-53478514D01*
X59781485Y-53395803D01*
X59676391Y-53344426D01*
X59608261Y-53334500D01*
X59608260Y-53334500D01*
X57791740Y-53334500D01*
X57791739Y-53334500D01*
X57723608Y-53344426D01*
X57618514Y-53395803D01*
X57535803Y-53478514D01*
X57484426Y-53583608D01*
X57474500Y-53651739D01*
X57474500Y-54013810D01*
X57454815Y-54080849D01*
X57438181Y-54101491D01*
X56953551Y-54586120D01*
X56892228Y-54619605D01*
X56822536Y-54614621D01*
X56766603Y-54572749D01*
X56742186Y-54507285D01*
X56743396Y-54479049D01*
X56750500Y-54434200D01*
X56750500Y-54335782D01*
X56750500Y-54320286D01*
X56750500Y-52381739D01*
X57474500Y-52381739D01*
X57474500Y-52748260D01*
X57484426Y-52816391D01*
X57535803Y-52921485D01*
X57618514Y-53004196D01*
X57618515Y-53004196D01*
X57618517Y-53004198D01*
X57723607Y-53055573D01*
X57757423Y-53060500D01*
X57791739Y-53065500D01*
X57791740Y-53065500D01*
X59608261Y-53065500D01*
X59642577Y-53060500D01*
X59676393Y-53055573D01*
X59781483Y-53004198D01*
X59864198Y-52921483D01*
X59915573Y-52816393D01*
X59925500Y-52748260D01*
X59925500Y-52381740D01*
X59924771Y-52376740D01*
X59915573Y-52313608D01*
X59913129Y-52308608D01*
X59864198Y-52208517D01*
X59864196Y-52208515D01*
X59864196Y-52208514D01*
X59781485Y-52125803D01*
X59676391Y-52074426D01*
X59608261Y-52064500D01*
X59608260Y-52064500D01*
X57791740Y-52064500D01*
X57791739Y-52064500D01*
X57723608Y-52074426D01*
X57618514Y-52125803D01*
X57535803Y-52208514D01*
X57484426Y-52313608D01*
X57474500Y-52381739D01*
X56750500Y-52381739D01*
X56750500Y-51111739D01*
X57474500Y-51111739D01*
X57474500Y-51478260D01*
X57484426Y-51546391D01*
X57535803Y-51651485D01*
X57618514Y-51734196D01*
X57618515Y-51734196D01*
X57618517Y-51734198D01*
X57723607Y-51785573D01*
X57757423Y-51790500D01*
X57791739Y-51795500D01*
X57791740Y-51795500D01*
X59608261Y-51795500D01*
X59642577Y-51790500D01*
X59676393Y-51785573D01*
X59781483Y-51734198D01*
X59864198Y-51651483D01*
X59915573Y-51546393D01*
X59925500Y-51478260D01*
X59925500Y-51111740D01*
X59924771Y-51106740D01*
X59915573Y-51043608D01*
X59913129Y-51038608D01*
X59864198Y-50938517D01*
X59864196Y-50938515D01*
X59864196Y-50938514D01*
X59781485Y-50855803D01*
X59676391Y-50804426D01*
X59608261Y-50794500D01*
X59608260Y-50794500D01*
X57791740Y-50794500D01*
X57791739Y-50794500D01*
X57723608Y-50804426D01*
X57618514Y-50855803D01*
X57535803Y-50938514D01*
X57484426Y-51043608D01*
X57474500Y-51111739D01*
X56750500Y-51111739D01*
X56750500Y-49841739D01*
X57474500Y-49841739D01*
X57474500Y-50208260D01*
X57484426Y-50276391D01*
X57535803Y-50381485D01*
X57618514Y-50464196D01*
X57618515Y-50464196D01*
X57618517Y-50464198D01*
X57723607Y-50515573D01*
X57757423Y-50520500D01*
X57791739Y-50525500D01*
X57791740Y-50525500D01*
X59608261Y-50525500D01*
X59642577Y-50520500D01*
X59676393Y-50515573D01*
X59781483Y-50464198D01*
X59864198Y-50381483D01*
X59915573Y-50276393D01*
X59925500Y-50208260D01*
X59925500Y-49841740D01*
X59924771Y-49836740D01*
X59915573Y-49773608D01*
X59915573Y-49773607D01*
X59864198Y-49668517D01*
X59864196Y-49668515D01*
X59864196Y-49668514D01*
X59781485Y-49585803D01*
X59676391Y-49534426D01*
X59608261Y-49524500D01*
X59608260Y-49524500D01*
X57791740Y-49524500D01*
X57791739Y-49524500D01*
X57723608Y-49534426D01*
X57618514Y-49585803D01*
X57535803Y-49668514D01*
X57484426Y-49773608D01*
X57474500Y-49841739D01*
X56750500Y-49841739D01*
X56750500Y-48571739D01*
X57474500Y-48571739D01*
X57474500Y-48938260D01*
X57484426Y-49006391D01*
X57535803Y-49111485D01*
X57618514Y-49194196D01*
X57618515Y-49194196D01*
X57618517Y-49194198D01*
X57723607Y-49245573D01*
X57751493Y-49249636D01*
X57791739Y-49255500D01*
X57791740Y-49255500D01*
X59608261Y-49255500D01*
X59630971Y-49252191D01*
X59676393Y-49245573D01*
X59781483Y-49194198D01*
X59864198Y-49111483D01*
X59915573Y-49006393D01*
X59925500Y-48938260D01*
X59925500Y-48571740D01*
X59924771Y-48566740D01*
X59915573Y-48503608D01*
X59913129Y-48498608D01*
X59864198Y-48398517D01*
X59864196Y-48398515D01*
X59864196Y-48398514D01*
X59781485Y-48315803D01*
X59676391Y-48264426D01*
X59608261Y-48254500D01*
X59608260Y-48254500D01*
X57791740Y-48254500D01*
X57791739Y-48254500D01*
X57723608Y-48264426D01*
X57618514Y-48315803D01*
X57535803Y-48398514D01*
X57484426Y-48503608D01*
X57474500Y-48571739D01*
X56750500Y-48571739D01*
X56750500Y-45670300D01*
X56751097Y-45658147D01*
X56763703Y-45530140D01*
X56768445Y-45506302D01*
X56774774Y-45485438D01*
X56804005Y-45389069D01*
X56813301Y-45366624D01*
X56871055Y-45258570D01*
X56884556Y-45238367D01*
X56966092Y-45139012D01*
X56974255Y-45130004D01*
X57262819Y-44841440D01*
X57324142Y-44807956D01*
X57393834Y-44812940D01*
X57449767Y-44854812D01*
X57474184Y-44920276D01*
X57474500Y-44929122D01*
X57474500Y-45128260D01*
X57484426Y-45196391D01*
X57535803Y-45301485D01*
X57618514Y-45384196D01*
X57618515Y-45384196D01*
X57618517Y-45384198D01*
X57723607Y-45435573D01*
X57757423Y-45440500D01*
X57791739Y-45445500D01*
X57791740Y-45445500D01*
X59608261Y-45445500D01*
X59642577Y-45440500D01*
X59676393Y-45435573D01*
X59781483Y-45384198D01*
X59864198Y-45301483D01*
X59915573Y-45196393D01*
X59925500Y-45128260D01*
X59925500Y-44761740D01*
X59923715Y-44749492D01*
X59920536Y-44727673D01*
X59915573Y-44693607D01*
X59864198Y-44588517D01*
X59864196Y-44588515D01*
X59864196Y-44588514D01*
X59781485Y-44505803D01*
X59771251Y-44500800D01*
X59740773Y-44485900D01*
X59689192Y-44438773D01*
X59671277Y-44371239D01*
X59692718Y-44304740D01*
X59746707Y-44260390D01*
X59795234Y-44250500D01*
X67894538Y-44250500D01*
X67961577Y-44270185D01*
G37*
%TD.AperFunction*%
%TA.AperFunction,Conductor*%
G36*
X70437087Y-45041348D02*
G01*
X74277017Y-48881278D01*
X74310502Y-48942601D01*
X74305518Y-49012293D01*
X74263646Y-49068226D01*
X74198182Y-49092643D01*
X74189336Y-49092959D01*
X74090604Y-49092959D01*
X73984586Y-49129356D01*
X73979964Y-49130943D01*
X73924771Y-49172097D01*
X73665599Y-49431269D01*
X73624445Y-49486462D01*
X73624444Y-49486465D01*
X73586461Y-49597102D01*
X73586461Y-49714079D01*
X73606898Y-49773608D01*
X73624443Y-49824714D01*
X73624446Y-49824720D01*
X73665599Y-49879911D01*
X73665601Y-49879913D01*
X74437423Y-50651735D01*
X74492619Y-50692892D01*
X74603257Y-50730875D01*
X74603259Y-50730875D01*
X74712689Y-50730875D01*
X74779728Y-50750560D01*
X74800370Y-50767194D01*
X76547725Y-52514549D01*
X76581210Y-52575872D01*
X76576226Y-52645564D01*
X76534354Y-52701497D01*
X76468890Y-52725914D01*
X76400617Y-52711062D01*
X76398044Y-52709617D01*
X76375642Y-52696683D01*
X76375639Y-52696682D01*
X76292853Y-52674500D01*
X76292852Y-52674500D01*
X75433676Y-52674500D01*
X75366637Y-52654815D01*
X75345995Y-52638181D01*
X75307316Y-52599502D01*
X75307314Y-52599500D01*
X75249852Y-52566324D01*
X75193187Y-52533608D01*
X75122056Y-52514549D01*
X75065892Y-52499500D01*
X74934108Y-52499500D01*
X74806812Y-52533608D01*
X74692686Y-52599500D01*
X74692683Y-52599502D01*
X74599498Y-52692687D01*
X74598370Y-52694158D01*
X74597102Y-52695083D01*
X74593753Y-52698433D01*
X74593230Y-52697910D01*
X74583681Y-52704881D01*
X74572523Y-52719245D01*
X74556047Y-52725056D01*
X74541940Y-52735356D01*
X74523786Y-52736436D01*
X74506632Y-52742487D01*
X74489629Y-52738468D01*
X74472193Y-52739506D01*
X74456336Y-52730599D01*
X74438636Y-52726416D01*
X74420060Y-52710223D01*
X74411275Y-52705289D01*
X74410764Y-52704763D01*
X74402568Y-52696269D01*
X74400500Y-52692686D01*
X74361005Y-52653191D01*
X74360264Y-52652423D01*
X74344559Y-52622397D01*
X74328334Y-52592682D01*
X74328157Y-52591035D01*
X74327882Y-52590510D01*
X74327981Y-52589401D01*
X74325500Y-52566324D01*
X74325500Y-52246357D01*
X74325501Y-52246344D01*
X74325501Y-52150650D01*
X74318843Y-52125802D01*
X74303318Y-52067863D01*
X74266007Y-52003239D01*
X74260465Y-51993640D01*
X74199862Y-51933037D01*
X74199859Y-51933035D01*
X73917194Y-51650370D01*
X73883709Y-51589047D01*
X73880875Y-51562689D01*
X73880875Y-51453258D01*
X73880875Y-51453257D01*
X73842892Y-51342619D01*
X73801735Y-51287423D01*
X73029913Y-50515601D01*
X73029911Y-50515599D01*
X72974720Y-50474446D01*
X72974719Y-50474445D01*
X72974717Y-50474444D01*
X72864079Y-50436461D01*
X72747102Y-50436461D01*
X72666310Y-50464198D01*
X72636462Y-50474445D01*
X72581269Y-50515599D01*
X72322097Y-50774771D01*
X72280943Y-50829964D01*
X72280942Y-50829967D01*
X72242959Y-50940604D01*
X72242959Y-51057581D01*
X72269387Y-51134562D01*
X72280941Y-51168216D01*
X72280944Y-51168222D01*
X72322097Y-51223413D01*
X73093922Y-51995238D01*
X73145580Y-52033757D01*
X73149117Y-52036394D01*
X73259755Y-52074377D01*
X73259757Y-52074377D01*
X73369187Y-52074377D01*
X73436226Y-52094062D01*
X73456868Y-52110696D01*
X73638181Y-52292009D01*
X73652884Y-52318936D01*
X73669477Y-52344755D01*
X73670368Y-52350955D01*
X73671666Y-52353332D01*
X73674500Y-52379690D01*
X73674500Y-52566324D01*
X73654815Y-52633363D01*
X73638181Y-52654005D01*
X73599502Y-52692683D01*
X73599500Y-52692686D01*
X73533608Y-52806812D01*
X73504222Y-52916485D01*
X73499500Y-52934108D01*
X73499500Y-53065892D01*
X73504496Y-53084537D01*
X73533608Y-53193187D01*
X73562516Y-53243256D01*
X73599500Y-53307314D01*
X73599502Y-53307316D01*
X73692687Y-53400501D01*
X73694158Y-53401630D01*
X73695083Y-53402897D01*
X73698433Y-53406247D01*
X73697910Y-53406769D01*
X73704241Y-53415442D01*
X73717931Y-53425690D01*
X73724414Y-53443073D01*
X73735356Y-53458060D01*
X73736371Y-53475131D01*
X73742348Y-53491154D01*
X73738403Y-53509284D01*
X73739506Y-53527807D01*
X73731055Y-53543065D01*
X73727496Y-53559427D01*
X73711909Y-53577634D01*
X73706345Y-53587681D01*
X73697039Y-53596986D01*
X73692686Y-53599500D01*
X73599500Y-53692686D01*
X73596986Y-53697039D01*
X73587681Y-53706345D01*
X73563862Y-53719350D01*
X73541940Y-53735356D01*
X73533647Y-53735849D01*
X73526358Y-53739830D01*
X73499285Y-53737893D01*
X73472193Y-53739506D01*
X73464951Y-53735438D01*
X73456666Y-53734846D01*
X73434938Y-53718580D01*
X73411275Y-53705289D01*
X73401630Y-53694158D01*
X73400501Y-53692687D01*
X73361819Y-53654005D01*
X73328334Y-53592682D01*
X73325500Y-53566324D01*
X73325500Y-53457149D01*
X73325500Y-53457147D01*
X73303318Y-53374362D01*
X73303318Y-53374361D01*
X73260465Y-53300138D01*
X72899862Y-52939535D01*
X72859935Y-52916483D01*
X72825640Y-52896682D01*
X72783335Y-52885347D01*
X72742853Y-52874500D01*
X72742852Y-52874500D01*
X72362964Y-52874500D01*
X72295925Y-52854815D01*
X72283064Y-52844451D01*
X72283059Y-52844458D01*
X72276615Y-52839513D01*
X72276613Y-52839511D01*
X72173886Y-52780201D01*
X72059309Y-52749500D01*
X71940691Y-52749500D01*
X71826114Y-52780201D01*
X71826112Y-52780201D01*
X71826112Y-52780202D01*
X71723387Y-52839511D01*
X71723384Y-52839513D01*
X71639513Y-52923384D01*
X71639511Y-52923387D01*
X71584020Y-53019500D01*
X71580201Y-53026114D01*
X71549500Y-53140691D01*
X71549500Y-53259309D01*
X71580201Y-53373886D01*
X71639511Y-53476613D01*
X71723387Y-53560489D01*
X71826114Y-53619799D01*
X71940691Y-53650500D01*
X71940694Y-53650500D01*
X72059306Y-53650500D01*
X72059309Y-53650500D01*
X72173886Y-53619799D01*
X72276613Y-53560489D01*
X72276620Y-53560481D01*
X72283059Y-53555542D01*
X72284157Y-53556973D01*
X72302210Y-53547115D01*
X72328029Y-53530523D01*
X72334229Y-53529631D01*
X72336606Y-53528334D01*
X72362964Y-53525500D01*
X72481250Y-53525500D01*
X72548289Y-53545185D01*
X72594044Y-53597989D01*
X72603988Y-53667147D01*
X72588637Y-53711500D01*
X72533609Y-53806810D01*
X72533609Y-53806811D01*
X72533608Y-53806813D01*
X72533608Y-53806814D01*
X72499500Y-53934108D01*
X72499500Y-54065892D01*
X72510940Y-54108588D01*
X72533608Y-54193187D01*
X72537462Y-54199862D01*
X72599500Y-54307314D01*
X72599502Y-54307316D01*
X72692687Y-54400501D01*
X72694158Y-54401630D01*
X72695083Y-54402897D01*
X72698433Y-54406247D01*
X72697910Y-54406769D01*
X72704881Y-54416318D01*
X72719245Y-54427477D01*
X72725056Y-54443952D01*
X72735356Y-54458060D01*
X72736436Y-54476213D01*
X72742487Y-54493368D01*
X72738468Y-54510370D01*
X72739506Y-54527807D01*
X72730599Y-54543663D01*
X72726416Y-54561364D01*
X72710223Y-54579939D01*
X72705289Y-54588725D01*
X72704763Y-54589236D01*
X72696269Y-54597431D01*
X72692686Y-54599500D01*
X72653191Y-54638994D01*
X72652423Y-54639736D01*
X72622397Y-54655440D01*
X72592682Y-54671666D01*
X72591035Y-54671842D01*
X72590510Y-54672118D01*
X72589401Y-54672018D01*
X72566324Y-54674500D01*
X72150833Y-54674500D01*
X72083794Y-54654815D01*
X72063152Y-54638181D01*
X71336819Y-53911848D01*
X71303334Y-53850525D01*
X71300500Y-53824167D01*
X71300500Y-50160439D01*
X71280020Y-50084009D01*
X71280017Y-50084004D01*
X71240464Y-50015495D01*
X71240458Y-50015487D01*
X70605622Y-49380651D01*
X70572137Y-49319328D01*
X70577121Y-49249636D01*
X70618993Y-49193703D01*
X70661207Y-49173196D01*
X70673886Y-49169799D01*
X70776613Y-49110489D01*
X70860489Y-49026613D01*
X70919799Y-48923886D01*
X70950500Y-48809309D01*
X70950500Y-48690691D01*
X70919799Y-48576114D01*
X70860489Y-48473387D01*
X70776613Y-48389511D01*
X70673886Y-48330201D01*
X70559309Y-48299500D01*
X70440691Y-48299500D01*
X70326114Y-48330201D01*
X70326112Y-48330201D01*
X70326112Y-48330202D01*
X70265725Y-48365067D01*
X70197824Y-48381540D01*
X70131797Y-48358688D01*
X70116043Y-48345361D01*
X70081485Y-48310803D01*
X69976391Y-48259426D01*
X69908261Y-48249500D01*
X69908260Y-48249500D01*
X68091740Y-48249500D01*
X68091739Y-48249500D01*
X68023608Y-48259426D01*
X67918514Y-48310803D01*
X67835803Y-48393514D01*
X67784426Y-48498608D01*
X67774500Y-48566739D01*
X67774500Y-48933257D01*
X67777208Y-48951847D01*
X67767393Y-49021024D01*
X67721736Y-49073913D01*
X67654733Y-49093722D01*
X67587657Y-49074162D01*
X67566822Y-49057403D01*
X67511819Y-49002400D01*
X67478334Y-48941077D01*
X67475500Y-48914719D01*
X67475500Y-47296739D01*
X67774500Y-47296739D01*
X67774500Y-47663260D01*
X67784426Y-47731391D01*
X67835803Y-47836485D01*
X67918514Y-47919196D01*
X67918515Y-47919196D01*
X67918517Y-47919198D01*
X68023607Y-47970573D01*
X68057673Y-47975536D01*
X68091739Y-47980500D01*
X68091740Y-47980500D01*
X69908261Y-47980500D01*
X69930971Y-47977191D01*
X69976393Y-47970573D01*
X70081483Y-47919198D01*
X70119212Y-47881469D01*
X70180535Y-47847983D01*
X70250226Y-47852967D01*
X70268887Y-47861759D01*
X70326114Y-47894799D01*
X70440691Y-47925500D01*
X70440694Y-47925500D01*
X70559306Y-47925500D01*
X70559309Y-47925500D01*
X70673886Y-47894799D01*
X70776613Y-47835489D01*
X70860489Y-47751613D01*
X70919799Y-47648886D01*
X70950500Y-47534309D01*
X70950500Y-47415691D01*
X70919799Y-47301114D01*
X70860489Y-47198387D01*
X70776613Y-47114511D01*
X70673886Y-47055201D01*
X70559309Y-47024500D01*
X70440691Y-47024500D01*
X70361188Y-47045803D01*
X70326110Y-47055202D01*
X70262554Y-47091897D01*
X70194654Y-47108370D01*
X70128627Y-47085518D01*
X70112873Y-47072191D01*
X70081485Y-47040803D01*
X69976391Y-46989426D01*
X69908261Y-46979500D01*
X69908260Y-46979500D01*
X68091740Y-46979500D01*
X68091739Y-46979500D01*
X68023608Y-46989426D01*
X67918514Y-47040803D01*
X67835803Y-47123514D01*
X67784426Y-47228608D01*
X67774500Y-47296739D01*
X67475500Y-47296739D01*
X67475500Y-46026739D01*
X67774500Y-46026739D01*
X67774500Y-46393260D01*
X67784426Y-46461391D01*
X67835803Y-46566485D01*
X67918514Y-46649196D01*
X67918515Y-46649196D01*
X67918517Y-46649198D01*
X68023607Y-46700573D01*
X68057673Y-46705536D01*
X68091739Y-46710500D01*
X68091740Y-46710500D01*
X69908261Y-46710500D01*
X69930971Y-46707191D01*
X69976393Y-46700573D01*
X70081483Y-46649198D01*
X70116042Y-46614639D01*
X70177364Y-46581153D01*
X70247056Y-46586137D01*
X70265719Y-46594930D01*
X70326114Y-46629799D01*
X70440691Y-46660500D01*
X70440694Y-46660500D01*
X70559306Y-46660500D01*
X70559309Y-46660500D01*
X70673886Y-46629799D01*
X70776613Y-46570489D01*
X70860489Y-46486613D01*
X70919799Y-46383886D01*
X70950500Y-46269309D01*
X70950500Y-46150691D01*
X70919799Y-46036114D01*
X70860489Y-45933387D01*
X70776613Y-45849511D01*
X70673886Y-45790201D01*
X70559309Y-45759500D01*
X70440691Y-45759500D01*
X70326114Y-45790201D01*
X70326112Y-45790201D01*
X70326112Y-45790202D01*
X70265725Y-45825067D01*
X70197824Y-45841540D01*
X70131797Y-45818688D01*
X70116043Y-45805361D01*
X70081485Y-45770803D01*
X69976391Y-45719426D01*
X69908261Y-45709500D01*
X69908260Y-45709500D01*
X68091740Y-45709500D01*
X68091739Y-45709500D01*
X68023608Y-45719426D01*
X67918514Y-45770803D01*
X67835803Y-45853514D01*
X67784426Y-45958608D01*
X67774500Y-46026739D01*
X67475500Y-46026739D01*
X67475500Y-45700832D01*
X67495185Y-45633793D01*
X67511815Y-45613155D01*
X67744463Y-45380506D01*
X67805786Y-45347022D01*
X67875478Y-45352006D01*
X67909632Y-45373956D01*
X67910153Y-45373227D01*
X67918513Y-45379195D01*
X67918514Y-45379195D01*
X67918517Y-45379198D01*
X68023607Y-45430573D01*
X68057673Y-45435536D01*
X68091739Y-45440500D01*
X68091740Y-45440500D01*
X69908261Y-45440500D01*
X69930971Y-45437191D01*
X69976393Y-45430573D01*
X70081483Y-45379198D01*
X70164198Y-45296483D01*
X70215573Y-45191393D01*
X70225500Y-45123260D01*
X70225500Y-45123235D01*
X70225729Y-45120079D01*
X70226113Y-45119051D01*
X70226147Y-45118820D01*
X70226197Y-45118827D01*
X70250202Y-45054635D01*
X70306170Y-45012811D01*
X70375866Y-45007885D01*
X70437087Y-45041348D01*
G37*
%TD.AperFunction*%
%TA.AperFunction,Conductor*%
G36*
X85341851Y-51001096D02*
G01*
X85469856Y-51013703D01*
X85493685Y-51018443D01*
X85610913Y-51054006D01*
X85633369Y-51063308D01*
X85741400Y-51121056D01*
X85761610Y-51134561D01*
X85848287Y-51205703D01*
X85861183Y-51216287D01*
X85870210Y-51224471D01*
X85875667Y-51229930D01*
X85883828Y-51238937D01*
X85965418Y-51338368D01*
X85978921Y-51358579D01*
X86036660Y-51466615D01*
X86045961Y-51489072D01*
X86081518Y-51606305D01*
X86086259Y-51630143D01*
X86098903Y-51758544D01*
X86099500Y-51770696D01*
X86099500Y-52450389D01*
X86099498Y-52450395D01*
X86099499Y-52465743D01*
X86099499Y-52488730D01*
X86098951Y-52500381D01*
X86087359Y-52623207D01*
X86082997Y-52646102D01*
X86050256Y-52758944D01*
X86041684Y-52780624D01*
X85988399Y-52885347D01*
X85975920Y-52905040D01*
X85900593Y-53002304D01*
X85893275Y-53010912D01*
X85893234Y-53010956D01*
X85893156Y-53011038D01*
X85892972Y-53011236D01*
X85134662Y-53820100D01*
X84491098Y-54506567D01*
X84430886Y-54542011D01*
X84361070Y-54539276D01*
X84303815Y-54499230D01*
X84291203Y-54480073D01*
X84271955Y-54443952D01*
X84268738Y-54437915D01*
X84222983Y-54385111D01*
X84222977Y-54385104D01*
X84205395Y-54367160D01*
X84205394Y-54367159D01*
X84205392Y-54367157D01*
X84205390Y-54367156D01*
X84205388Y-54367154D01*
X84125578Y-54322511D01*
X84125573Y-54322509D01*
X84058541Y-54302826D01*
X84058537Y-54302825D01*
X84058536Y-54302825D01*
X84000638Y-54294500D01*
X84000634Y-54294500D01*
X83434500Y-54294500D01*
X83367461Y-54274815D01*
X83321706Y-54222011D01*
X83310500Y-54170500D01*
X83310499Y-53820105D01*
X83310499Y-53820100D01*
X83303972Y-53770513D01*
X83253224Y-53661684D01*
X83168316Y-53576776D01*
X83059487Y-53526028D01*
X83059485Y-53526027D01*
X83059486Y-53526027D01*
X83009902Y-53519500D01*
X83009901Y-53519500D01*
X82831189Y-53519500D01*
X82764150Y-53499815D01*
X82743508Y-53483181D01*
X82654864Y-53394537D01*
X82654862Y-53394535D01*
X82598197Y-53361819D01*
X82580640Y-53351682D01*
X82534898Y-53339426D01*
X82497853Y-53329500D01*
X82497852Y-53329500D01*
X82191466Y-53329500D01*
X82124427Y-53309815D01*
X82078672Y-53257011D01*
X82068728Y-53187853D01*
X82071687Y-53173421D01*
X82100500Y-53065892D01*
X82100500Y-52934108D01*
X82066392Y-52806814D01*
X82027548Y-52739535D01*
X82017113Y-52721460D01*
X82000500Y-52659460D01*
X82000500Y-51840537D01*
X82017113Y-51778537D01*
X82019799Y-51773886D01*
X82050500Y-51659309D01*
X82050500Y-51540691D01*
X82019799Y-51426114D01*
X81960489Y-51323387D01*
X81876613Y-51239511D01*
X81876611Y-51239510D01*
X81876609Y-51239508D01*
X81863408Y-51231887D01*
X81815192Y-51181320D01*
X81801970Y-51112712D01*
X81827938Y-51047848D01*
X81884852Y-51007320D01*
X81925408Y-51000500D01*
X85291620Y-51000500D01*
X85329699Y-51000500D01*
X85341851Y-51001096D01*
G37*
%TD.AperFunction*%
%TA.AperFunction,Conductor*%
G36*
X66840824Y-48539056D02*
G01*
X66872416Y-48601375D01*
X66874500Y-48624013D01*
X66874500Y-49130114D01*
X66885134Y-49169798D01*
X66894979Y-49206542D01*
X66894982Y-49206547D01*
X66934535Y-49275056D01*
X66934539Y-49275061D01*
X66934540Y-49275063D01*
X67299937Y-49640460D01*
X67368460Y-49680022D01*
X67444886Y-49700500D01*
X67651062Y-49700500D01*
X67718101Y-49720185D01*
X67763856Y-49772989D01*
X67774737Y-49833465D01*
X67774500Y-49836734D01*
X67774500Y-50203260D01*
X67784426Y-50271391D01*
X67835803Y-50376485D01*
X67918514Y-50459196D01*
X67918515Y-50459196D01*
X67918517Y-50459198D01*
X68023607Y-50510573D01*
X68057673Y-50515536D01*
X68091739Y-50520500D01*
X68091740Y-50520500D01*
X69908261Y-50520500D01*
X69930971Y-50517191D01*
X69976393Y-50510573D01*
X70081483Y-50459198D01*
X70164198Y-50376483D01*
X70215573Y-50271393D01*
X70225500Y-50203260D01*
X70225500Y-50149833D01*
X70245185Y-50082794D01*
X70297989Y-50037039D01*
X70367147Y-50027095D01*
X70430703Y-50056120D01*
X70437181Y-50062152D01*
X70663181Y-50288152D01*
X70696666Y-50349475D01*
X70699500Y-50375833D01*
X70699500Y-54036572D01*
X70679815Y-54103611D01*
X70627011Y-54149366D01*
X70569447Y-54160424D01*
X70556208Y-54159777D01*
X70517853Y-54149500D01*
X70345913Y-54149500D01*
X70342885Y-54149352D01*
X70312624Y-54138837D01*
X70281899Y-54129815D01*
X70279847Y-54127447D01*
X70276887Y-54126419D01*
X70257114Y-54101212D01*
X70236144Y-54077011D01*
X70235552Y-54073724D01*
X70233764Y-54071444D01*
X70232247Y-54055355D01*
X70225263Y-54016535D01*
X70225500Y-54013265D01*
X70225500Y-53646739D01*
X70216302Y-53583608D01*
X70215573Y-53578607D01*
X70164198Y-53473517D01*
X70164196Y-53473515D01*
X70164196Y-53473514D01*
X70081485Y-53390803D01*
X69976391Y-53339426D01*
X69908261Y-53329500D01*
X69908260Y-53329500D01*
X68091740Y-53329500D01*
X68091739Y-53329500D01*
X68023608Y-53339426D01*
X67918514Y-53390803D01*
X67835803Y-53473514D01*
X67784426Y-53578608D01*
X67774500Y-53646739D01*
X67774500Y-54013265D01*
X67774737Y-54016535D01*
X67774500Y-54017629D01*
X67774500Y-54017747D01*
X67774475Y-54017747D01*
X67759951Y-54084822D01*
X67710594Y-54134275D01*
X67651062Y-54149500D01*
X60999500Y-54149500D01*
X60932461Y-54129815D01*
X60886706Y-54077011D01*
X60875500Y-54025500D01*
X60875500Y-52376739D01*
X67774500Y-52376739D01*
X67774500Y-52743260D01*
X67784426Y-52811391D01*
X67835803Y-52916485D01*
X67918514Y-52999196D01*
X67918515Y-52999196D01*
X67918517Y-52999198D01*
X68023607Y-53050573D01*
X68057673Y-53055536D01*
X68091739Y-53060500D01*
X68091740Y-53060500D01*
X69908261Y-53060500D01*
X69930971Y-53057191D01*
X69976393Y-53050573D01*
X70081483Y-52999198D01*
X70164198Y-52916483D01*
X70215573Y-52811393D01*
X70225500Y-52743260D01*
X70225500Y-52376740D01*
X70215573Y-52308607D01*
X70164198Y-52203517D01*
X70164196Y-52203515D01*
X70164196Y-52203514D01*
X70081485Y-52120803D01*
X69976391Y-52069426D01*
X69908261Y-52059500D01*
X69908260Y-52059500D01*
X68091740Y-52059500D01*
X68091739Y-52059500D01*
X68023608Y-52069426D01*
X67918514Y-52120803D01*
X67835803Y-52203514D01*
X67784426Y-52308608D01*
X67774500Y-52376739D01*
X60875500Y-52376739D01*
X60875500Y-51106739D01*
X67774500Y-51106739D01*
X67774500Y-51473260D01*
X67784426Y-51541391D01*
X67835803Y-51646485D01*
X67918514Y-51729196D01*
X67918515Y-51729196D01*
X67918517Y-51729198D01*
X68023607Y-51780573D01*
X68057673Y-51785536D01*
X68091739Y-51790500D01*
X68091740Y-51790500D01*
X69908261Y-51790500D01*
X69930971Y-51787191D01*
X69976393Y-51780573D01*
X70081483Y-51729198D01*
X70164198Y-51646483D01*
X70215573Y-51541393D01*
X70225500Y-51473260D01*
X70225500Y-51106740D01*
X70215573Y-51038607D01*
X70164198Y-50933517D01*
X70164196Y-50933515D01*
X70164196Y-50933514D01*
X70081485Y-50850803D01*
X69976391Y-50799426D01*
X69908261Y-50789500D01*
X69908260Y-50789500D01*
X68091740Y-50789500D01*
X68091739Y-50789500D01*
X68023608Y-50799426D01*
X67918514Y-50850803D01*
X67835803Y-50933514D01*
X67784426Y-51038608D01*
X67774500Y-51106739D01*
X60875500Y-51106739D01*
X60875500Y-48822509D01*
X60895185Y-48755470D01*
X60947989Y-48709715D01*
X61017147Y-48699771D01*
X61053302Y-48710789D01*
X61083649Y-48725403D01*
X61193600Y-48750499D01*
X61193605Y-48750499D01*
X61193607Y-48750500D01*
X61193609Y-48750500D01*
X66306391Y-48750500D01*
X66306393Y-48750500D01*
X66306395Y-48750499D01*
X66306399Y-48750499D01*
X66374362Y-48734986D01*
X66416351Y-48725403D01*
X66517967Y-48676467D01*
X66517967Y-48676466D01*
X66517969Y-48676466D01*
X66539896Y-48658978D01*
X66606146Y-48606146D01*
X66653554Y-48546699D01*
X66710742Y-48506559D01*
X66780554Y-48503710D01*
X66840824Y-48539056D01*
G37*
%TD.AperFunction*%
%TA.AperFunction,Conductor*%
G36*
X75429580Y-50034287D02*
G01*
X75436058Y-50040319D01*
X76073964Y-50678225D01*
X76074096Y-50678333D01*
X76099569Y-50703808D01*
X76258807Y-50819512D01*
X76258812Y-50819514D01*
X76258816Y-50819517D01*
X76280427Y-50830529D01*
X76434186Y-50908879D01*
X76434188Y-50908879D01*
X76434189Y-50908880D01*
X76434191Y-50908881D01*
X76599233Y-50962509D01*
X76621387Y-50969708D01*
X76815800Y-51000500D01*
X76864386Y-51000500D01*
X81274592Y-51000500D01*
X81341631Y-51020185D01*
X81387386Y-51072989D01*
X81397330Y-51142147D01*
X81368305Y-51205703D01*
X81336592Y-51231887D01*
X81323390Y-51239508D01*
X81323384Y-51239513D01*
X81239513Y-51323384D01*
X81239511Y-51323387D01*
X81180201Y-51426114D01*
X81149500Y-51540691D01*
X81149500Y-51659309D01*
X81180201Y-51773886D01*
X81182886Y-51778537D01*
X81199500Y-51840537D01*
X81199500Y-52659460D01*
X81182887Y-52721460D01*
X81133609Y-52806810D01*
X81133609Y-52806811D01*
X81133609Y-52806812D01*
X81133608Y-52806814D01*
X81099500Y-52934108D01*
X81099500Y-53065892D01*
X81128308Y-53173409D01*
X81126646Y-53243256D01*
X81087484Y-53301119D01*
X81023255Y-53328623D01*
X81008534Y-53329500D01*
X80741189Y-53329500D01*
X80674150Y-53309815D01*
X80653508Y-53293181D01*
X80444864Y-53084537D01*
X80444862Y-53084535D01*
X80407750Y-53063108D01*
X80370640Y-53041682D01*
X80312537Y-53026114D01*
X80287853Y-53019500D01*
X80287852Y-53019500D01*
X78024690Y-53019500D01*
X77957651Y-52999815D01*
X77937009Y-52983181D01*
X75260696Y-50306868D01*
X75245992Y-50279940D01*
X75229400Y-50254122D01*
X75228508Y-50247921D01*
X75227211Y-50245545D01*
X75224377Y-50219187D01*
X75224377Y-50128000D01*
X75244062Y-50060961D01*
X75296866Y-50015206D01*
X75366024Y-50005262D01*
X75429580Y-50034287D01*
G37*
%TD.AperFunction*%
%TD*%
%TA.AperFunction,Conductor*%
%TO.N,+3.3V*%
G36*
X84067677Y-54519685D02*
G01*
X84113432Y-54572489D01*
X84123376Y-54641647D01*
X84094351Y-54705203D01*
X84088319Y-54711681D01*
X82736319Y-56063681D01*
X82674996Y-56097166D01*
X82648638Y-56100000D01*
X81924500Y-56100000D01*
X81857461Y-56080315D01*
X81811706Y-56027511D01*
X81800500Y-55976000D01*
X81800500Y-54624000D01*
X81820185Y-54556961D01*
X81872989Y-54511206D01*
X81924500Y-54500000D01*
X84000638Y-54500000D01*
X84067677Y-54519685D01*
G37*
%TD.AperFunction*%
%TD*%
M02*
