M48
; DRILL file {KiCad 9.0.1-unknown-202504212220~56345a4158~ubuntu24.04.1} date 2025-05-22T21:20:15+1000
; FORMAT={-:-/ absolute / metric / decimal}
; #@! TF.CreationDate,2025-05-22T21:20:15+10:00
; #@! TF.GenerationSoftware,Kicad,Pcbnew,9.0.1-unknown-202504212220~56345a4158~ubuntu24.04.1
; #@! TF.FileFunction,Plated,1,2,PTH
FMAT,2
METRIC
; #@! TA.AperFunction,Plated,PTH,ViaDrill
T1C0.250
; #@! TA.AperFunction,Plated,PTH,ViaDrill
T2C0.300
; #@! TA.AperFunction,Plated,PTH,ViaDrill
T3C0.400
; #@! TA.AperFunction,Plated,PTH,ComponentDrill
T4C0.400
%
G90
G05
T1
X58.7Y-46.215
T2
X70.5Y-46.21
X70.5Y-47.475
X70.5Y-48.75
X71.8Y-49.3
X81.8Y-54.8
X81.8Y-55.8
T3
X50.0Y-60.0
X50.0Y-61.5
X52.5Y-60.0
X52.5Y-61.5
X62.5Y-50.0
X62.5Y-52.5
X65.0Y-50.0
X65.0Y-52.5
X72.0Y-59.0
X73.5Y-56.0
X79.5Y-55.5
X80.0Y-52.5
X83.0Y-51.5
X85.0Y-51.5
T4
X57.0Y-58.0
X73.0Y-54.0
X73.0Y-55.0
X74.0Y-53.0
X74.0Y-54.0
X75.0Y-53.0
X78.8Y-54.0
X79.6Y-54.0
X81.6Y-53.0
X84.25Y-52.625
X85.75Y-52.625
M30
