%TF.GenerationSoftware,KiCad,Pcbnew,8.99.0-unknown-90566eb735~177~ubuntu22.04.1*%
%TF.CreationDate,2024-03-27T22:21:10+10:00*%
%TF.ProjectId,MXBreakout,4d584272-6561-46b6-9f75-742e6b696361,rev?*%
%TF.SameCoordinates,Original*%
%TF.FileFunction,Copper,L2,Bot*%
%TF.FilePolarity,Positive*%
%FSLAX46Y46*%
G04 Gerber Fmt 4.6, Leading zero omitted, Abs format (unit mm)*
G04 Created by KiCad (PCBNEW 8.99.0-unknown-90566eb735~177~ubuntu22.04.1) date 2024-03-27 22:21:10*
%MOMM*%
%LPD*%
G01*
G04 APERTURE LIST*
%TA.AperFunction,ComponentPad*%
%ADD10C,0.500000*%
%TD*%
%TA.AperFunction,ComponentPad*%
%ADD11C,0.600000*%
%TD*%
%TA.AperFunction,ViaPad*%
%ADD12C,0.800000*%
%TD*%
%TA.AperFunction,ViaPad*%
%ADD13C,0.500000*%
%TD*%
%TA.AperFunction,ViaPad*%
%ADD14C,0.600000*%
%TD*%
%TA.AperFunction,Conductor*%
%ADD15C,0.200000*%
%TD*%
G04 APERTURE END LIST*
D10*
%TO.P,TP4,1,1*%
%TO.N,/DATA0*%
X74000000Y-54000000D03*
%TD*%
%TO.P,TP3,1,1*%
%TO.N,GND*%
X84100000Y-52625000D03*
%TD*%
%TO.P,TP11,1,1*%
%TO.N,Net-(U10-RST)*%
X74000000Y-53025000D03*
%TD*%
%TO.P,TP3,1,1*%
%TO.N,GND*%
X85600000Y-52625000D03*
%TD*%
%TO.P,TP6,1,1*%
%TO.N,/DATA2*%
X78750000Y-54000000D03*
%TD*%
%TO.P,TP7,1,1*%
%TO.N,/DATA3*%
X73000000Y-55025000D03*
%TD*%
D11*
%TO.P,REF\u002A\u002A,1*%
%TO.N,GND*%
X46500000Y-64300000D03*
%TD*%
D10*
%TO.P,TP5,1,1*%
%TO.N,/DATA1*%
X79500000Y-54000000D03*
%TD*%
D12*
%TO.N,GND*%
X65000000Y-56525000D03*
X72500000Y-56525000D03*
X50000000Y-61525000D03*
X62500000Y-56525000D03*
X75000000Y-56525000D03*
X52500000Y-61525000D03*
X62500000Y-51525000D03*
X80000000Y-51525000D03*
X62500000Y-61525000D03*
X65000000Y-51525000D03*
X52500000Y-59025000D03*
X64999203Y-61524203D03*
X50000000Y-59025000D03*
X62500000Y-59025000D03*
X62500000Y-46525000D03*
X65000000Y-46525000D03*
X62500000Y-49025000D03*
X65000000Y-49025000D03*
X65000000Y-54025000D03*
X47500000Y-64025000D03*
X65000000Y-59025000D03*
X82500000Y-51525000D03*
X72500000Y-59025000D03*
X62500000Y-54025000D03*
X47500000Y-61525000D03*
X77500000Y-51525000D03*
D13*
%TO.N,/DATA0*%
X70500000Y-48750000D03*
%TO.N,/DATA1*%
X70500000Y-47475000D03*
%TO.N,/DATA2*%
X70500000Y-46210000D03*
D14*
%TO.N,+3.3V*%
X81800000Y-55800000D03*
X81800000Y-54800000D03*
%TD*%
D15*
%TO.N,/DATA0*%
X74000000Y-54000000D02*
X70800000Y-50800000D01*
X70800000Y-49050000D02*
X70500000Y-48750000D01*
X70800000Y-50800000D02*
X70800000Y-49050000D01*
%TO.N,/DATA1*%
X79500000Y-54000000D02*
X79500000Y-53646447D01*
X70650000Y-47475000D02*
X70500000Y-47475000D01*
X79500000Y-53646447D02*
X78128553Y-52275000D01*
X78128553Y-52275000D02*
X75450000Y-52275000D01*
X75450000Y-52275000D02*
X70650000Y-47475000D01*
%TO.N,/DATA2*%
X70500000Y-46210000D02*
X70145000Y-46210000D01*
X70145000Y-46210000D02*
X69450000Y-46905000D01*
X70625244Y-48055000D02*
X76570244Y-54000000D01*
X69450000Y-46905000D02*
X69450000Y-47726409D01*
X69778591Y-48055000D02*
X70625244Y-48055000D01*
X76570244Y-54000000D02*
X78750000Y-54000000D01*
X69450000Y-47726409D02*
X69778591Y-48055000D01*
%TD*%
%TA.AperFunction,Conductor*%
%TO.N,GND*%
G36*
X69761916Y-44195185D02*
G01*
X69782558Y-44211819D01*
X76355563Y-50784824D01*
X76355576Y-50784839D01*
X76397868Y-50827129D01*
X76397871Y-50827132D01*
X76433103Y-50862364D01*
X76525172Y-50900500D01*
X76525174Y-50900500D01*
X76639261Y-50900500D01*
X76639265Y-50900498D01*
X85719959Y-50900420D01*
X85786998Y-50920104D01*
X85807640Y-50936739D01*
X86188262Y-51317361D01*
X86221747Y-51378684D01*
X86224581Y-51405042D01*
X86224581Y-52894796D01*
X86204896Y-52961835D01*
X86188262Y-52982477D01*
X82532558Y-56638181D01*
X82471235Y-56671666D01*
X82444877Y-56674500D01*
X82174500Y-56674500D01*
X82107461Y-56654815D01*
X82061706Y-56602011D01*
X82050500Y-56550500D01*
X82050500Y-56301668D01*
X82070185Y-56234629D01*
X82107458Y-56197354D01*
X82131128Y-56182143D01*
X82225377Y-56073373D01*
X82285165Y-55942457D01*
X82305647Y-55800000D01*
X82285165Y-55657543D01*
X82225377Y-55526627D01*
X82225375Y-55526625D01*
X82225374Y-55526622D01*
X82131133Y-55417862D01*
X82131128Y-55417857D01*
X82121020Y-55411361D01*
X82110055Y-55404314D01*
X82064302Y-55351512D01*
X82054358Y-55282353D01*
X82083383Y-55218797D01*
X82110058Y-55195684D01*
X82131125Y-55182145D01*
X82131125Y-55182144D01*
X82131128Y-55182143D01*
X82225377Y-55073373D01*
X82285165Y-54942457D01*
X82305647Y-54800000D01*
X82285165Y-54657543D01*
X82225377Y-54526627D01*
X82225375Y-54526625D01*
X82225374Y-54526622D01*
X82131133Y-54417862D01*
X82131129Y-54417858D01*
X82131128Y-54417857D01*
X82107458Y-54402645D01*
X82061705Y-54349841D01*
X82050500Y-54298331D01*
X82050500Y-54050173D01*
X82050499Y-54050170D01*
X82039429Y-54023445D01*
X82012364Y-53958103D01*
X81941897Y-53887636D01*
X81849829Y-53849500D01*
X81849828Y-53849500D01*
X80499828Y-53849500D01*
X80400172Y-53849500D01*
X80400170Y-53849500D01*
X80308102Y-53887636D01*
X80237636Y-53958102D01*
X80199500Y-54050170D01*
X80199500Y-56550500D01*
X80179815Y-56617539D01*
X80127011Y-56663294D01*
X80075500Y-56674500D01*
X75600170Y-56674500D01*
X75508102Y-56712636D01*
X75508101Y-56712637D01*
X69732558Y-62488181D01*
X69671235Y-62521666D01*
X69644877Y-62524500D01*
X57064270Y-62524500D01*
X57064262Y-62524499D01*
X57049828Y-62524499D01*
X56950173Y-62524499D01*
X56950172Y-62524499D01*
X56923206Y-62535669D01*
X56896240Y-62546839D01*
X56858103Y-62562636D01*
X56858101Y-62562637D01*
X56787635Y-62633104D01*
X55240662Y-64180076D01*
X55240661Y-64180076D01*
X55240662Y-64180077D01*
X55187636Y-64233103D01*
X55149500Y-64325170D01*
X55149500Y-64725500D01*
X55129815Y-64792539D01*
X55077011Y-64838294D01*
X55025500Y-64849500D01*
X45624500Y-64849500D01*
X45557461Y-64829815D01*
X45511706Y-64777011D01*
X45500500Y-64725500D01*
X45500500Y-62930123D01*
X45520185Y-62863084D01*
X45536819Y-62842442D01*
X50067442Y-58311819D01*
X50128765Y-58278334D01*
X50155123Y-58275500D01*
X53299826Y-58275500D01*
X53299828Y-58275500D01*
X53391897Y-58237364D01*
X56604259Y-55024999D01*
X72544867Y-55024999D01*
X72548238Y-55048445D01*
X72549500Y-55066092D01*
X72549500Y-55084310D01*
X72555991Y-55108537D01*
X72558952Y-55122976D01*
X72563301Y-55153222D01*
X72563302Y-55153225D01*
X72570286Y-55168518D01*
X72577264Y-55187927D01*
X72577267Y-55187940D01*
X72580201Y-55198886D01*
X72596170Y-55226545D01*
X72601574Y-55237027D01*
X72617118Y-55271063D01*
X72623612Y-55278558D01*
X72637291Y-55297767D01*
X72639510Y-55301612D01*
X72666920Y-55329022D01*
X72672952Y-55335500D01*
X72701951Y-55368967D01*
X72704485Y-55370595D01*
X72716897Y-55380598D01*
X72716941Y-55380542D01*
X72723381Y-55385483D01*
X72723387Y-55385489D01*
X72762871Y-55408285D01*
X72762878Y-55408289D01*
X72767918Y-55411361D01*
X72810930Y-55439004D01*
X72812226Y-55439595D01*
X72821171Y-55442751D01*
X72826107Y-55444795D01*
X72826114Y-55444799D01*
X72874940Y-55457881D01*
X72876778Y-55458374D01*
X72879580Y-55459160D01*
X72935228Y-55475500D01*
X73064772Y-55475500D01*
X73120426Y-55459157D01*
X73123243Y-55458368D01*
X73173886Y-55444799D01*
X73173892Y-55444795D01*
X73178821Y-55442754D01*
X73187768Y-55439597D01*
X73189062Y-55439005D01*
X73189069Y-55439004D01*
X73232114Y-55411339D01*
X73237086Y-55408309D01*
X73276613Y-55385489D01*
X73276618Y-55385483D01*
X73283068Y-55380536D01*
X73283111Y-55380593D01*
X73295525Y-55370588D01*
X73298049Y-55368967D01*
X73327054Y-55335491D01*
X73333060Y-55329040D01*
X73360489Y-55301613D01*
X73362708Y-55297767D01*
X73376391Y-55278553D01*
X73382882Y-55271063D01*
X73398428Y-55237018D01*
X73403822Y-55226555D01*
X73419799Y-55198886D01*
X73422734Y-55187931D01*
X73429715Y-55168513D01*
X73436697Y-55153226D01*
X73441046Y-55122976D01*
X73444007Y-55108537D01*
X73450500Y-55084309D01*
X73450500Y-55066092D01*
X73451762Y-55048445D01*
X73455133Y-55024999D01*
X73451762Y-55001552D01*
X73450500Y-54983906D01*
X73450500Y-54965692D01*
X73447583Y-54954806D01*
X73444004Y-54941451D01*
X73441044Y-54927013D01*
X73436697Y-54896776D01*
X73436696Y-54896771D01*
X73433780Y-54890387D01*
X73429713Y-54881481D01*
X73422734Y-54862069D01*
X73419799Y-54851114D01*
X73403826Y-54823450D01*
X73398427Y-54812975D01*
X73382884Y-54778941D01*
X73382883Y-54778940D01*
X73382882Y-54778937D01*
X73376385Y-54771439D01*
X73362709Y-54752233D01*
X73360488Y-54748386D01*
X73333062Y-54720960D01*
X73327046Y-54714498D01*
X73327034Y-54714484D01*
X73298049Y-54681033D01*
X73298047Y-54681032D01*
X73298048Y-54681032D01*
X73295508Y-54679400D01*
X73283101Y-54669401D01*
X73283059Y-54669458D01*
X73276617Y-54664515D01*
X73276613Y-54664511D01*
X73259933Y-54654881D01*
X73237115Y-54641706D01*
X73232078Y-54638636D01*
X73189068Y-54610995D01*
X73187773Y-54610404D01*
X73178845Y-54607254D01*
X73173887Y-54605200D01*
X73123195Y-54591617D01*
X73120358Y-54590821D01*
X73064772Y-54574500D01*
X72935228Y-54574500D01*
X72879584Y-54590837D01*
X72876747Y-54591633D01*
X72826112Y-54605201D01*
X72821148Y-54607257D01*
X72812223Y-54610405D01*
X72810932Y-54610995D01*
X72767923Y-54638635D01*
X72762887Y-54641704D01*
X72723388Y-54664509D01*
X72716942Y-54669456D01*
X72716900Y-54669401D01*
X72704501Y-54679392D01*
X72701956Y-54681027D01*
X72701951Y-54681032D01*
X72672965Y-54714484D01*
X72666936Y-54720960D01*
X72639511Y-54748386D01*
X72637283Y-54752245D01*
X72623618Y-54771435D01*
X72617117Y-54778937D01*
X72601574Y-54812971D01*
X72596169Y-54823454D01*
X72580202Y-54851110D01*
X72577265Y-54862069D01*
X72570290Y-54881472D01*
X72563302Y-54896774D01*
X72563301Y-54896780D01*
X72558952Y-54927023D01*
X72555990Y-54941464D01*
X72549501Y-54965683D01*
X72549500Y-54965691D01*
X72549500Y-54983906D01*
X72548238Y-55001552D01*
X72544867Y-55024999D01*
X56604259Y-55024999D01*
X56674455Y-54954803D01*
X56674458Y-54954802D01*
X56691896Y-54937364D01*
X56691897Y-54937364D01*
X56762364Y-54866897D01*
X56773534Y-54839930D01*
X56800501Y-54774828D01*
X56800501Y-54675172D01*
X56800501Y-54665183D01*
X56800500Y-54665169D01*
X56800500Y-47765971D01*
X69149500Y-47765971D01*
X69159739Y-47804184D01*
X69169979Y-47842400D01*
X69169981Y-47842403D01*
X69196885Y-47889001D01*
X69196886Y-47889003D01*
X69209537Y-47910916D01*
X69209539Y-47910919D01*
X69209540Y-47910920D01*
X69538131Y-48239511D01*
X69594080Y-48295460D01*
X69594082Y-48295461D01*
X69594086Y-48295464D01*
X69662595Y-48335017D01*
X69662602Y-48335021D01*
X69739029Y-48355500D01*
X69818153Y-48355500D01*
X69991959Y-48355500D01*
X70058998Y-48375185D01*
X70104753Y-48427989D01*
X70114697Y-48497147D01*
X70104753Y-48531012D01*
X70063302Y-48621774D01*
X70044867Y-48750000D01*
X70063302Y-48878225D01*
X70089239Y-48935017D01*
X70117118Y-48996063D01*
X70201951Y-49093967D01*
X70310931Y-49164004D01*
X70410435Y-49193220D01*
X70469212Y-49230993D01*
X70498238Y-49294548D01*
X70499500Y-49312197D01*
X70499500Y-50839562D01*
X70505610Y-50862363D01*
X70519979Y-50915990D01*
X70519982Y-50915995D01*
X70559535Y-50984504D01*
X70559541Y-50984512D01*
X73510618Y-53935589D01*
X73544103Y-53996912D01*
X73545674Y-54005619D01*
X73548237Y-54023441D01*
X73549500Y-54041092D01*
X73549500Y-54059310D01*
X73555991Y-54083537D01*
X73558952Y-54097976D01*
X73563301Y-54128222D01*
X73563302Y-54128225D01*
X73570286Y-54143518D01*
X73577264Y-54162927D01*
X73577267Y-54162940D01*
X73580201Y-54173886D01*
X73596170Y-54201545D01*
X73601574Y-54212027D01*
X73617118Y-54246063D01*
X73623612Y-54253558D01*
X73637291Y-54272767D01*
X73639510Y-54276612D01*
X73666920Y-54304022D01*
X73672952Y-54310500D01*
X73701951Y-54343967D01*
X73704485Y-54345595D01*
X73716897Y-54355598D01*
X73716941Y-54355542D01*
X73723381Y-54360483D01*
X73723387Y-54360489D01*
X73762871Y-54383285D01*
X73762878Y-54383289D01*
X73767918Y-54386361D01*
X73810930Y-54414004D01*
X73812226Y-54414595D01*
X73821171Y-54417751D01*
X73826107Y-54419795D01*
X73826114Y-54419799D01*
X73874940Y-54432881D01*
X73876778Y-54433374D01*
X73879580Y-54434160D01*
X73935228Y-54450500D01*
X74064772Y-54450500D01*
X74120426Y-54434157D01*
X74123243Y-54433368D01*
X74173886Y-54419799D01*
X74173892Y-54419795D01*
X74178821Y-54417754D01*
X74187768Y-54414597D01*
X74189062Y-54414005D01*
X74189069Y-54414004D01*
X74232114Y-54386339D01*
X74237086Y-54383309D01*
X74276613Y-54360489D01*
X74276618Y-54360483D01*
X74283068Y-54355536D01*
X74283111Y-54355593D01*
X74295525Y-54345588D01*
X74298049Y-54343967D01*
X74327054Y-54310491D01*
X74333060Y-54304040D01*
X74360489Y-54276613D01*
X74362708Y-54272767D01*
X74376391Y-54253553D01*
X74382882Y-54246063D01*
X74398428Y-54212018D01*
X74403822Y-54201555D01*
X74419799Y-54173886D01*
X74422734Y-54162931D01*
X74429715Y-54143513D01*
X74436697Y-54128226D01*
X74441046Y-54097976D01*
X74444007Y-54083537D01*
X74450500Y-54059309D01*
X74450500Y-54041092D01*
X74451762Y-54023445D01*
X74455133Y-53999999D01*
X74451762Y-53976552D01*
X74450500Y-53958906D01*
X74450500Y-53940692D01*
X74450500Y-53940691D01*
X74444004Y-53916451D01*
X74441044Y-53902013D01*
X74436697Y-53871776D01*
X74436696Y-53871771D01*
X74433780Y-53865387D01*
X74429713Y-53856481D01*
X74422735Y-53837074D01*
X74419799Y-53826114D01*
X74403826Y-53798450D01*
X74398427Y-53787975D01*
X74382884Y-53753941D01*
X74382882Y-53753938D01*
X74382882Y-53753937D01*
X74376385Y-53746439D01*
X74362709Y-53727233D01*
X74360488Y-53723386D01*
X74355999Y-53718897D01*
X74333065Y-53695963D01*
X74327046Y-53689498D01*
X74298049Y-53656033D01*
X74298047Y-53656032D01*
X74298048Y-53656032D01*
X74295508Y-53654400D01*
X74283101Y-53644401D01*
X74283059Y-53644458D01*
X74276617Y-53639515D01*
X74276613Y-53639511D01*
X74260583Y-53630256D01*
X74242621Y-53619885D01*
X74194406Y-53569317D01*
X74181185Y-53500710D01*
X74207154Y-53435846D01*
X74242623Y-53405112D01*
X74276613Y-53385489D01*
X74276616Y-53385485D01*
X74283068Y-53380536D01*
X74283111Y-53380593D01*
X74295525Y-53370588D01*
X74298049Y-53368967D01*
X74327054Y-53335491D01*
X74333060Y-53329040D01*
X74360489Y-53301613D01*
X74362708Y-53297767D01*
X74376387Y-53278557D01*
X74382882Y-53271063D01*
X74398428Y-53237018D01*
X74403822Y-53226555D01*
X74419799Y-53198886D01*
X74422734Y-53187931D01*
X74429715Y-53168513D01*
X74436697Y-53153226D01*
X74441044Y-53122985D01*
X74444005Y-53108544D01*
X74450500Y-53084309D01*
X74450500Y-53066092D01*
X74451762Y-53048445D01*
X74455133Y-53024999D01*
X74451762Y-53001552D01*
X74450500Y-52983906D01*
X74450500Y-52965692D01*
X74450500Y-52965691D01*
X74444004Y-52941451D01*
X74441044Y-52927013D01*
X74436697Y-52896776D01*
X74436696Y-52896771D01*
X74433780Y-52890387D01*
X74429713Y-52881481D01*
X74422734Y-52862069D01*
X74419799Y-52851114D01*
X74403826Y-52823450D01*
X74398427Y-52812975D01*
X74382884Y-52778941D01*
X74382883Y-52778940D01*
X74382882Y-52778937D01*
X74376385Y-52771439D01*
X74362709Y-52752233D01*
X74360488Y-52748386D01*
X74333062Y-52720960D01*
X74327046Y-52714498D01*
X74327034Y-52714484D01*
X74298049Y-52681033D01*
X74298047Y-52681032D01*
X74298048Y-52681032D01*
X74295508Y-52679400D01*
X74283101Y-52669401D01*
X74283059Y-52669458D01*
X74276617Y-52664515D01*
X74276613Y-52664511D01*
X74259933Y-52654881D01*
X74237115Y-52641706D01*
X74232078Y-52638636D01*
X74189068Y-52610995D01*
X74187773Y-52610404D01*
X74178845Y-52607254D01*
X74173887Y-52605200D01*
X74123195Y-52591617D01*
X74120358Y-52590821D01*
X74064772Y-52574500D01*
X73935228Y-52574500D01*
X73879584Y-52590837D01*
X73876747Y-52591633D01*
X73826112Y-52605201D01*
X73821148Y-52607257D01*
X73812223Y-52610405D01*
X73810932Y-52610995D01*
X73767923Y-52638635D01*
X73762887Y-52641704D01*
X73723388Y-52664509D01*
X73716942Y-52669456D01*
X73716900Y-52669401D01*
X73704501Y-52679392D01*
X73701956Y-52681027D01*
X73701951Y-52681032D01*
X73672965Y-52714484D01*
X73666936Y-52720960D01*
X73639511Y-52748386D01*
X73637283Y-52752245D01*
X73623618Y-52771435D01*
X73617117Y-52778937D01*
X73601574Y-52812971D01*
X73596169Y-52823454D01*
X73580202Y-52851110D01*
X73577265Y-52862069D01*
X73570288Y-52881475D01*
X73561764Y-52900142D01*
X73516012Y-52952948D01*
X73448973Y-52972635D01*
X73381933Y-52952953D01*
X73361287Y-52936316D01*
X71136819Y-50711848D01*
X71103334Y-50650525D01*
X71100500Y-50624167D01*
X71100500Y-49254589D01*
X71120185Y-49187550D01*
X71172989Y-49141795D01*
X71242147Y-49131851D01*
X71305703Y-49160876D01*
X71312181Y-49166908D01*
X76385733Y-54240460D01*
X76454256Y-54280022D01*
X76530682Y-54300500D01*
X78357657Y-54300500D01*
X78424696Y-54320185D01*
X78451369Y-54343296D01*
X78451949Y-54343965D01*
X78451951Y-54343967D01*
X78560931Y-54414004D01*
X78629619Y-54434172D01*
X78685225Y-54450499D01*
X78685227Y-54450500D01*
X78685228Y-54450500D01*
X78814773Y-54450500D01*
X78814773Y-54450499D01*
X78939069Y-54414004D01*
X79048049Y-54343967D01*
X79048049Y-54343966D01*
X79055510Y-54339172D01*
X79057065Y-54341592D01*
X79107347Y-54318627D01*
X79176506Y-54328567D01*
X79194056Y-54339846D01*
X79194490Y-54339172D01*
X79201950Y-54343966D01*
X79201951Y-54343967D01*
X79310931Y-54414004D01*
X79379619Y-54434172D01*
X79435225Y-54450499D01*
X79435227Y-54450500D01*
X79435228Y-54450500D01*
X79564773Y-54450500D01*
X79564773Y-54450499D01*
X79689069Y-54414004D01*
X79798049Y-54343967D01*
X79882882Y-54246063D01*
X79936697Y-54128226D01*
X79955133Y-54000000D01*
X79936697Y-53871774D01*
X79882882Y-53753937D01*
X79882880Y-53753935D01*
X79882879Y-53753932D01*
X79830786Y-53693812D01*
X79801762Y-53630256D01*
X79800500Y-53612611D01*
X79800500Y-53606886D01*
X79800500Y-53606885D01*
X79780021Y-53530458D01*
X79762846Y-53500710D01*
X79740464Y-53461942D01*
X79740458Y-53461934D01*
X78313065Y-52034541D01*
X78313057Y-52034535D01*
X78244548Y-51994982D01*
X78244543Y-51994979D01*
X78219066Y-51988152D01*
X78168115Y-51974500D01*
X78168113Y-51974500D01*
X75625833Y-51974500D01*
X75558794Y-51954815D01*
X75538152Y-51938181D01*
X70944069Y-47344098D01*
X70918956Y-47307928D01*
X70882883Y-47228940D01*
X70882882Y-47228938D01*
X70882882Y-47228937D01*
X70798049Y-47131033D01*
X70689069Y-47060996D01*
X70689065Y-47060994D01*
X70689064Y-47060994D01*
X70564774Y-47024500D01*
X70564772Y-47024500D01*
X70435228Y-47024500D01*
X70435226Y-47024500D01*
X70310935Y-47060994D01*
X70310932Y-47060995D01*
X70310931Y-47060996D01*
X70259677Y-47093934D01*
X70201950Y-47131033D01*
X70117118Y-47228937D01*
X70117117Y-47228938D01*
X70063302Y-47346774D01*
X70044867Y-47475000D01*
X70062592Y-47598283D01*
X70052648Y-47667442D01*
X70006893Y-47720246D01*
X69939854Y-47739930D01*
X69872814Y-47720245D01*
X69852173Y-47703611D01*
X69786819Y-47638257D01*
X69753334Y-47576934D01*
X69750500Y-47550576D01*
X69750500Y-47080832D01*
X69770185Y-47013793D01*
X69786815Y-46993155D01*
X70145937Y-46634032D01*
X70207258Y-46600549D01*
X70276949Y-46605533D01*
X70300651Y-46617397D01*
X70310931Y-46624004D01*
X70310933Y-46624004D01*
X70310934Y-46624005D01*
X70435225Y-46660499D01*
X70435227Y-46660500D01*
X70435228Y-46660500D01*
X70564773Y-46660500D01*
X70564773Y-46660499D01*
X70689069Y-46624004D01*
X70798049Y-46553967D01*
X70882882Y-46456063D01*
X70936697Y-46338226D01*
X70955133Y-46210000D01*
X70936697Y-46081774D01*
X70882882Y-45963937D01*
X70798049Y-45866033D01*
X70689069Y-45795996D01*
X70689065Y-45795994D01*
X70689064Y-45795994D01*
X70564774Y-45759500D01*
X70564772Y-45759500D01*
X70435228Y-45759500D01*
X70435226Y-45759500D01*
X70310935Y-45795994D01*
X70310932Y-45795995D01*
X70310931Y-45795996D01*
X70238277Y-45842687D01*
X70201949Y-45866034D01*
X70201369Y-45866704D01*
X70200620Y-45867184D01*
X70195246Y-45871842D01*
X70194576Y-45871069D01*
X70142591Y-45904477D01*
X70107657Y-45909500D01*
X70105438Y-45909500D01*
X70067224Y-45919739D01*
X70029009Y-45929979D01*
X69993015Y-45950760D01*
X69970194Y-45963937D01*
X69965341Y-45966738D01*
X69960488Y-45969540D01*
X69209541Y-46720487D01*
X69209535Y-46720495D01*
X69169982Y-46789004D01*
X69169979Y-46789009D01*
X69156326Y-46839962D01*
X69149500Y-46865438D01*
X69149500Y-47765971D01*
X56800500Y-47765971D01*
X56800500Y-45380122D01*
X56820185Y-45313083D01*
X56836819Y-45292441D01*
X57917441Y-44211819D01*
X57978764Y-44178334D01*
X58005122Y-44175500D01*
X69694877Y-44175500D01*
X69761916Y-44195185D01*
G37*
%TD.AperFunction*%
%TD*%
%TA.AperFunction,NonConductor*%
G36*
X78019759Y-52595185D02*
G01*
X78040401Y-52611819D01*
X78766401Y-53337819D01*
X78799886Y-53399142D01*
X78794902Y-53468834D01*
X78753030Y-53524767D01*
X78693806Y-53546856D01*
X78694005Y-53548238D01*
X78687654Y-53549150D01*
X78687566Y-53549184D01*
X78687377Y-53549190D01*
X78685225Y-53549500D01*
X78560935Y-53585994D01*
X78560932Y-53585995D01*
X78560931Y-53585996D01*
X78508199Y-53619885D01*
X78451949Y-53656034D01*
X78451369Y-53656704D01*
X78450620Y-53657184D01*
X78445246Y-53661842D01*
X78444576Y-53661069D01*
X78392591Y-53694477D01*
X78357657Y-53699500D01*
X76746077Y-53699500D01*
X76679038Y-53679815D01*
X76658396Y-53663181D01*
X75782396Y-52787181D01*
X75748911Y-52725858D01*
X75753895Y-52656166D01*
X75795767Y-52600233D01*
X75861231Y-52575816D01*
X75870077Y-52575500D01*
X77952720Y-52575500D01*
X78019759Y-52595185D01*
G37*
%TD.AperFunction*%
M02*
