%TF.GenerationSoftware,KiCad,Pcbnew,8.99.0-unknown-0a89236f19~177~ubuntu22.04.1*%
%TF.CreationDate,2024-04-02T18:15:29+10:00*%
%TF.ProjectId,MXBreakout,4d584272-6561-46b6-9f75-742e6b696361,rev?*%
%TF.SameCoordinates,Original*%
%TF.FileFunction,Paste,Top*%
%TF.FilePolarity,Positive*%
%FSLAX46Y46*%
G04 Gerber Fmt 4.6, Leading zero omitted, Abs format (unit mm)*
G04 Created by KiCad (PCBNEW 8.99.0-unknown-0a89236f19~177~ubuntu22.04.1) date 2024-04-02 18:15:29*
%MOMM*%
%LPD*%
G01*
G04 APERTURE LIST*
G04 Aperture macros list*
%AMRoundRect*
0 Rectangle with rounded corners*
0 $1 Rounding radius*
0 $2 $3 $4 $5 $6 $7 $8 $9 X,Y pos of 4 corners*
0 Add a 4 corners polygon primitive as box body*
4,1,4,$2,$3,$4,$5,$6,$7,$8,$9,$2,$3,0*
0 Add four circle primitives for the rounded corners*
1,1,$1+$1,$2,$3*
1,1,$1+$1,$4,$5*
1,1,$1+$1,$6,$7*
1,1,$1+$1,$8,$9*
0 Add four rect primitives between the rounded corners*
20,1,$1+$1,$2,$3,$4,$5,0*
20,1,$1+$1,$4,$5,$6,$7,0*
20,1,$1+$1,$6,$7,$8,$9,0*
20,1,$1+$1,$8,$9,$2,$3,0*%
G04 Aperture macros list end*
%ADD10R,0.600000X1.100000*%
%ADD11RoundRect,0.135000X0.135000X0.185000X-0.135000X0.185000X-0.135000X-0.185000X0.135000X-0.185000X0*%
%ADD12RoundRect,0.140000X0.170000X-0.140000X0.170000X0.140000X-0.170000X0.140000X-0.170000X-0.140000X0*%
%ADD13RoundRect,0.150000X-0.468458X0.256326X0.256326X-0.468458X0.468458X-0.256326X-0.256326X0.468458X0*%
%ADD14RoundRect,0.218750X0.218750X0.256250X-0.218750X0.256250X-0.218750X-0.256250X0.218750X-0.256250X0*%
%ADD15RoundRect,0.150000X0.875000X0.150000X-0.875000X0.150000X-0.875000X-0.150000X0.875000X-0.150000X0*%
%ADD16RoundRect,0.140000X-0.170000X0.140000X-0.170000X-0.140000X0.170000X-0.140000X0.170000X0.140000X0*%
G04 APERTURE END LIST*
D10*
%TO.C,Y1*%
X54300000Y-59025000D03*
X55700000Y-59025000D03*
%TD*%
D11*
%TO.C,R1*%
X52487500Y-63025000D03*
X51467500Y-63025000D03*
%TD*%
D12*
%TO.C,C2*%
X54250000Y-61480000D03*
X54250000Y-60520000D03*
%TD*%
D13*
%TO.C,U10*%
X72796751Y-48303249D03*
X72125000Y-48975000D03*
X71453249Y-49646751D03*
X73061917Y-51255419D03*
X74405419Y-49911917D03*
%TD*%
D12*
%TO.C,C1*%
X55700000Y-61480000D03*
X55700000Y-60520000D03*
%TD*%
D14*
%TO.C,D1*%
X55287500Y-63000000D03*
X53712500Y-63000000D03*
%TD*%
D15*
%TO.C,U1*%
X69000000Y-61450000D03*
X69000000Y-60180000D03*
X69000000Y-58910000D03*
X69000000Y-57640000D03*
X69000000Y-56370000D03*
X69000000Y-55100000D03*
X69000000Y-53830000D03*
X69000000Y-52560000D03*
X69000000Y-51290000D03*
X69000000Y-50020000D03*
X69000000Y-48750000D03*
X69000000Y-47480000D03*
X69000000Y-46210000D03*
X69000000Y-44940000D03*
X58700000Y-44945000D03*
X58700000Y-46215000D03*
X58700000Y-47485000D03*
X58700000Y-48755000D03*
X58700000Y-50025000D03*
X58700000Y-51295000D03*
X58700000Y-52565000D03*
X58700000Y-53835000D03*
X58700000Y-55105000D03*
X58700000Y-56375000D03*
X58700000Y-57645000D03*
X58700000Y-58915000D03*
X58700000Y-60185000D03*
X58700000Y-61455000D03*
%TD*%
D16*
%TO.C,C3*%
X82800000Y-53040000D03*
X82800000Y-54000000D03*
%TD*%
M02*
