%TF.GenerationSoftware,KiCad,Pcbnew,8.99.0-unknown-0a89236f19~177~ubuntu22.04.1*%
%TF.CreationDate,2024-04-02T18:15:29+10:00*%
%TF.ProjectId,MXBreakout,4d584272-6561-46b6-9f75-742e6b696361,rev?*%
%TF.SameCoordinates,Original*%
%TF.FileFunction,Profile,NP*%
%FSLAX46Y46*%
G04 Gerber Fmt 4.6, Leading zero omitted, Abs format (unit mm)*
G04 Created by KiCad (PCBNEW 8.99.0-unknown-0a89236f19~177~ubuntu22.04.1) date 2024-04-02 18:15:29*
%MOMM*%
%LPD*%
G01*
G04 APERTURE LIST*
%TA.AperFunction,Profile*%
%ADD10C,0.100000*%
%TD*%
G04 APERTURE END LIST*
D10*
X54900000Y-65100000D02*
X45750000Y-65100000D01*
X82392893Y-56925000D02*
X75857107Y-56925000D01*
X55400000Y-64582107D02*
X55400000Y-64600000D01*
X69592893Y-62775000D02*
X57207107Y-62775000D01*
X76782109Y-50649998D02*
X85667972Y-50649921D01*
X56696447Y-45078553D02*
X57703554Y-44071446D01*
X69996447Y-44071447D02*
X76428552Y-50503552D01*
X50207107Y-58025000D02*
X53042893Y-58025000D01*
X53396447Y-57878553D02*
X56403554Y-54871446D01*
X86021530Y-50796368D02*
X86328635Y-51103473D01*
X45250000Y-64600000D02*
X45250000Y-62982107D01*
X56550000Y-54517893D02*
X56550000Y-45432107D01*
X56853553Y-62921447D02*
X55546446Y-64228554D01*
X58057107Y-43925000D02*
X69642893Y-43925000D01*
X45396447Y-62628553D02*
X49853554Y-58171446D01*
X86475081Y-51457026D02*
X86475081Y-52842812D01*
X86328634Y-53196366D02*
X82746446Y-56778554D01*
X75503553Y-57071447D02*
X69946446Y-62628554D01*
X55400000Y-64600000D02*
G75*
G02*
X54900000Y-65100000I-500000J0D01*
G01*
X76782109Y-50649998D02*
G75*
G02*
X76428550Y-50503554I-9J499998D01*
G01*
X53396447Y-57878553D02*
G75*
G02*
X53042893Y-58024995I-353547J353553D01*
G01*
X85667972Y-50649921D02*
G75*
G02*
X86021538Y-50796360I28J-499979D01*
G01*
X45750000Y-65100000D02*
G75*
G02*
X45250000Y-64600000I0J500000D01*
G01*
X56550000Y-45432107D02*
G75*
G02*
X56696444Y-45078550I500000J7D01*
G01*
X56550000Y-54517893D02*
G75*
G02*
X56403557Y-54871449I-500000J-7D01*
G01*
X55400000Y-64582107D02*
G75*
G02*
X55546443Y-64228551I500000J7D01*
G01*
X56853553Y-62921447D02*
G75*
G02*
X57207107Y-62775005I353547J-353553D01*
G01*
X57703554Y-44071446D02*
G75*
G02*
X58057107Y-43925005I353546J-353554D01*
G01*
X69642893Y-43925000D02*
G75*
G02*
X69996450Y-44071444I7J-500000D01*
G01*
X49853554Y-58171446D02*
G75*
G02*
X50207107Y-58025005I353546J-353554D01*
G01*
X45250000Y-62982107D02*
G75*
G02*
X45396444Y-62628550I500000J7D01*
G01*
X86328635Y-51103473D02*
G75*
G02*
X86475068Y-51457026I-353535J-353527D01*
G01*
X82746446Y-56778554D02*
G75*
G02*
X82392893Y-56924995I-353546J353554D01*
G01*
X86475081Y-52842812D02*
G75*
G02*
X86328624Y-53196356I-499981J12D01*
G01*
X75503553Y-57071447D02*
G75*
G02*
X75857107Y-56925005I353547J-353553D01*
G01*
X69946446Y-62628554D02*
G75*
G02*
X69592893Y-62774995I-353546J353554D01*
G01*
X61250000Y-48500000D02*
X66250000Y-48500000D01*
X61000000Y-47603553D02*
X61000000Y-48250000D01*
X66500000Y-48250000D02*
X66500000Y-45603553D01*
X66396447Y-45000000D02*
X60750000Y-45000000D01*
X60500000Y-45250000D02*
X60500000Y-46896447D01*
X60573224Y-47073224D02*
X60926777Y-47426777D01*
X61250000Y-48500000D02*
G75*
G02*
X61000000Y-48250000I0J250000D01*
G01*
X66500000Y-48250000D02*
G75*
G02*
X66250000Y-48500000I-250000J0D01*
G01*
X66500000Y-45603553D02*
G75*
G02*
X66573247Y-45426799I250000J-47D01*
G01*
X66396447Y-45000000D02*
G75*
G02*
X66573201Y-45426753I-47J-250000D01*
G01*
X60500000Y-45250000D02*
G75*
G02*
X60750000Y-45000000I250000J0D01*
G01*
X60926777Y-47426777D02*
G75*
G02*
X61000033Y-47603553I-176777J-176823D01*
G01*
X60573224Y-47073224D02*
G75*
G02*
X60499967Y-46896447I176776J176824D01*
G01*
X66500000Y-60500000D02*
X67000000Y-60500000D01*
X61000000Y-62000000D02*
X65500000Y-62000000D01*
X60853553Y-59646447D02*
X60646446Y-59853554D01*
X61000000Y-56000000D02*
X61000000Y-59292893D01*
X66000000Y-61500000D02*
X66000000Y-61000000D01*
X60500000Y-60207107D02*
X60500000Y-61500000D01*
X67000000Y-55500000D02*
X61500000Y-55500000D01*
X67500000Y-60000000D02*
X67500000Y-56000000D01*
X61000000Y-59292893D02*
G75*
G02*
X60853556Y-59646450I-500000J-7D01*
G01*
X66000000Y-61000000D02*
G75*
G02*
X66500000Y-60500000I500000J0D01*
G01*
X66000000Y-61500000D02*
G75*
G02*
X65500000Y-62000000I-500000J0D01*
G01*
X61000000Y-62000000D02*
G75*
G02*
X60500000Y-61500000I0J500000D01*
G01*
X60500000Y-60207107D02*
G75*
G02*
X60646443Y-59853551I500000J7D01*
G01*
X61000000Y-56000000D02*
G75*
G02*
X61500000Y-55500000I500000J0D01*
G01*
X67500000Y-60000000D02*
G75*
G02*
X67000000Y-60500000I-500000J0D01*
G01*
X67000000Y-55500000D02*
G75*
G02*
X67500000Y-56000000I0J-500000D01*
G01*
X80450000Y-54350000D02*
G75*
G02*
X80700000Y-54100000I250000J0D01*
G01*
X80700000Y-56550000D02*
G75*
G02*
X80450000Y-56300000I0J250000D01*
G01*
X80450000Y-56300000D02*
X80450000Y-54350000D01*
X81550000Y-54100000D02*
G75*
G02*
X81800000Y-54350000I0J-250000D01*
G01*
X81800000Y-56300000D02*
G75*
G02*
X81550000Y-56550000I-250000J0D01*
G01*
X81550000Y-56550000D02*
X80700000Y-56550000D01*
X81800000Y-54350000D02*
X81800000Y-56300000D01*
X80700000Y-54100000D02*
X81550000Y-54100000D01*
M02*
