%TF.GenerationSoftware,KiCad,Pcbnew,9.0.1-unknown-202504212220~56345a4158~ubuntu24.04.1*%
%TF.CreationDate,2025-05-10T20:44:28+10:00*%
%TF.ProjectId,MXBreakout,4d584272-6561-46b6-9f75-742e6b696361,rev?*%
%TF.SameCoordinates,Original*%
%TF.FileFunction,Legend,Top*%
%TF.FilePolarity,Positive*%
%FSLAX46Y46*%
G04 Gerber Fmt 4.6, Leading zero omitted, Abs format (unit mm)*
G04 Created by KiCad (PCBNEW 9.0.1-unknown-202504212220~56345a4158~ubuntu24.04.1) date 2025-05-10 20:44:28*
%MOMM*%
%LPD*%
G01*
G04 APERTURE LIST*
%ADD10C,0.150000*%
%ADD11C,0.100000*%
%ADD12C,0.050000*%
%ADD13C,0.075000*%
%ADD14C,0.062500*%
%ADD15C,0.120000*%
%ADD16C,0.025000*%
G04 APERTURE END LIST*
D10*
X66800000Y-61225000D02*
G75*
G02*
X66400000Y-61225000I-200000J0D01*
G01*
X66400000Y-61225000D02*
G75*
G02*
X66800000Y-61225000I200000J0D01*
G01*
D11*
X54642857Y-57484621D02*
X54642857Y-57841764D01*
X54392857Y-57091764D02*
X54642857Y-57484621D01*
X54642857Y-57484621D02*
X54892857Y-57091764D01*
X55535714Y-57841764D02*
X55107143Y-57841764D01*
X55321428Y-57841764D02*
X55321428Y-57091764D01*
X55321428Y-57091764D02*
X55250000Y-57198907D01*
X55250000Y-57198907D02*
X55178571Y-57270335D01*
X55178571Y-57270335D02*
X55107143Y-57306050D01*
X51495356Y-64536764D02*
X51245356Y-64179621D01*
X51066785Y-64536764D02*
X51066785Y-63786764D01*
X51066785Y-63786764D02*
X51352499Y-63786764D01*
X51352499Y-63786764D02*
X51423928Y-63822478D01*
X51423928Y-63822478D02*
X51459642Y-63858192D01*
X51459642Y-63858192D02*
X51495356Y-63929621D01*
X51495356Y-63929621D02*
X51495356Y-64036764D01*
X51495356Y-64036764D02*
X51459642Y-64108192D01*
X51459642Y-64108192D02*
X51423928Y-64143907D01*
X51423928Y-64143907D02*
X51352499Y-64179621D01*
X51352499Y-64179621D02*
X51066785Y-64179621D01*
X52138214Y-63786764D02*
X51995356Y-63786764D01*
X51995356Y-63786764D02*
X51923928Y-63822478D01*
X51923928Y-63822478D02*
X51888214Y-63858192D01*
X51888214Y-63858192D02*
X51816785Y-63965335D01*
X51816785Y-63965335D02*
X51781071Y-64108192D01*
X51781071Y-64108192D02*
X51781071Y-64393907D01*
X51781071Y-64393907D02*
X51816785Y-64465335D01*
X51816785Y-64465335D02*
X51852499Y-64501050D01*
X51852499Y-64501050D02*
X51923928Y-64536764D01*
X51923928Y-64536764D02*
X52066785Y-64536764D01*
X52066785Y-64536764D02*
X52138214Y-64501050D01*
X52138214Y-64501050D02*
X52173928Y-64465335D01*
X52173928Y-64465335D02*
X52209642Y-64393907D01*
X52209642Y-64393907D02*
X52209642Y-64215335D01*
X52209642Y-64215335D02*
X52173928Y-64143907D01*
X52173928Y-64143907D02*
X52138214Y-64108192D01*
X52138214Y-64108192D02*
X52066785Y-64072478D01*
X52066785Y-64072478D02*
X51923928Y-64072478D01*
X51923928Y-64072478D02*
X51852499Y-64108192D01*
X51852499Y-64108192D02*
X51816785Y-64143907D01*
X51816785Y-64143907D02*
X51781071Y-64215335D01*
X52673928Y-63786764D02*
X52745357Y-63786764D01*
X52745357Y-63786764D02*
X52816785Y-63822478D01*
X52816785Y-63822478D02*
X52852500Y-63858192D01*
X52852500Y-63858192D02*
X52888214Y-63929621D01*
X52888214Y-63929621D02*
X52923928Y-64072478D01*
X52923928Y-64072478D02*
X52923928Y-64251050D01*
X52923928Y-64251050D02*
X52888214Y-64393907D01*
X52888214Y-64393907D02*
X52852500Y-64465335D01*
X52852500Y-64465335D02*
X52816785Y-64501050D01*
X52816785Y-64501050D02*
X52745357Y-64536764D01*
X52745357Y-64536764D02*
X52673928Y-64536764D01*
X52673928Y-64536764D02*
X52602500Y-64501050D01*
X52602500Y-64501050D02*
X52566785Y-64465335D01*
X52566785Y-64465335D02*
X52531071Y-64393907D01*
X52531071Y-64393907D02*
X52495357Y-64251050D01*
X52495357Y-64251050D02*
X52495357Y-64072478D01*
X52495357Y-64072478D02*
X52531071Y-63929621D01*
X52531071Y-63929621D02*
X52566785Y-63858192D01*
X52566785Y-63858192D02*
X52602500Y-63822478D01*
X52602500Y-63822478D02*
X52673928Y-63786764D01*
D12*
X53681090Y-61559523D02*
X53704900Y-61583332D01*
X53704900Y-61583332D02*
X53728709Y-61654761D01*
X53728709Y-61654761D02*
X53728709Y-61702380D01*
X53728709Y-61702380D02*
X53704900Y-61773808D01*
X53704900Y-61773808D02*
X53657280Y-61821427D01*
X53657280Y-61821427D02*
X53609661Y-61845237D01*
X53609661Y-61845237D02*
X53514423Y-61869046D01*
X53514423Y-61869046D02*
X53442995Y-61869046D01*
X53442995Y-61869046D02*
X53347757Y-61845237D01*
X53347757Y-61845237D02*
X53300138Y-61821427D01*
X53300138Y-61821427D02*
X53252519Y-61773808D01*
X53252519Y-61773808D02*
X53228709Y-61702380D01*
X53228709Y-61702380D02*
X53228709Y-61654761D01*
X53228709Y-61654761D02*
X53252519Y-61583332D01*
X53252519Y-61583332D02*
X53276328Y-61559523D01*
X53728709Y-61083332D02*
X53728709Y-61369046D01*
X53728709Y-61226189D02*
X53228709Y-61226189D01*
X53228709Y-61226189D02*
X53300138Y-61273808D01*
X53300138Y-61273808D02*
X53347757Y-61321427D01*
X53347757Y-61321427D02*
X53371566Y-61369046D01*
X53228709Y-60773809D02*
X53228709Y-60726190D01*
X53228709Y-60726190D02*
X53252519Y-60678571D01*
X53252519Y-60678571D02*
X53276328Y-60654761D01*
X53276328Y-60654761D02*
X53323947Y-60630952D01*
X53323947Y-60630952D02*
X53419185Y-60607142D01*
X53419185Y-60607142D02*
X53538233Y-60607142D01*
X53538233Y-60607142D02*
X53633471Y-60630952D01*
X53633471Y-60630952D02*
X53681090Y-60654761D01*
X53681090Y-60654761D02*
X53704900Y-60678571D01*
X53704900Y-60678571D02*
X53728709Y-60726190D01*
X53728709Y-60726190D02*
X53728709Y-60773809D01*
X53728709Y-60773809D02*
X53704900Y-60821428D01*
X53704900Y-60821428D02*
X53681090Y-60845237D01*
X53681090Y-60845237D02*
X53633471Y-60869047D01*
X53633471Y-60869047D02*
X53538233Y-60892856D01*
X53538233Y-60892856D02*
X53419185Y-60892856D01*
X53419185Y-60892856D02*
X53323947Y-60869047D01*
X53323947Y-60869047D02*
X53276328Y-60845237D01*
X53276328Y-60845237D02*
X53252519Y-60821428D01*
X53252519Y-60821428D02*
X53228709Y-60773809D01*
X53276328Y-60416666D02*
X53252519Y-60392857D01*
X53252519Y-60392857D02*
X53228709Y-60345238D01*
X53228709Y-60345238D02*
X53228709Y-60226190D01*
X53228709Y-60226190D02*
X53252519Y-60178571D01*
X53252519Y-60178571D02*
X53276328Y-60154762D01*
X53276328Y-60154762D02*
X53323947Y-60130952D01*
X53323947Y-60130952D02*
X53371566Y-60130952D01*
X53371566Y-60130952D02*
X53442995Y-60154762D01*
X53442995Y-60154762D02*
X53728709Y-60440476D01*
X53728709Y-60440476D02*
X53728709Y-60130952D01*
D11*
X47698907Y-63839285D02*
X47734621Y-63732142D01*
X47734621Y-63732142D02*
X47770335Y-63696428D01*
X47770335Y-63696428D02*
X47841764Y-63660714D01*
X47841764Y-63660714D02*
X47948907Y-63660714D01*
X47948907Y-63660714D02*
X48020335Y-63696428D01*
X48020335Y-63696428D02*
X48056050Y-63732142D01*
X48056050Y-63732142D02*
X48091764Y-63803571D01*
X48091764Y-63803571D02*
X48091764Y-64089285D01*
X48091764Y-64089285D02*
X47341764Y-64089285D01*
X47341764Y-64089285D02*
X47341764Y-63839285D01*
X47341764Y-63839285D02*
X47377478Y-63767857D01*
X47377478Y-63767857D02*
X47413192Y-63732142D01*
X47413192Y-63732142D02*
X47484621Y-63696428D01*
X47484621Y-63696428D02*
X47556050Y-63696428D01*
X47556050Y-63696428D02*
X47627478Y-63732142D01*
X47627478Y-63732142D02*
X47663192Y-63767857D01*
X47663192Y-63767857D02*
X47698907Y-63839285D01*
X47698907Y-63839285D02*
X47698907Y-64089285D01*
X47877478Y-63374999D02*
X47877478Y-63017857D01*
X48091764Y-63446428D02*
X47341764Y-63196428D01*
X47341764Y-63196428D02*
X48091764Y-62946428D01*
X47341764Y-62803571D02*
X47341764Y-62375000D01*
X48091764Y-62589285D02*
X47341764Y-62589285D01*
X47341764Y-62232142D02*
X47341764Y-61803571D01*
X48091764Y-62017856D02*
X47341764Y-62017856D01*
D13*
X75380952Y-54527409D02*
X75380952Y-54932171D01*
X75380952Y-54932171D02*
X75404762Y-54979790D01*
X75404762Y-54979790D02*
X75428571Y-55003600D01*
X75428571Y-55003600D02*
X75476190Y-55027409D01*
X75476190Y-55027409D02*
X75571428Y-55027409D01*
X75571428Y-55027409D02*
X75619047Y-55003600D01*
X75619047Y-55003600D02*
X75642857Y-54979790D01*
X75642857Y-54979790D02*
X75666666Y-54932171D01*
X75666666Y-54932171D02*
X75666666Y-54527409D01*
X76166667Y-55027409D02*
X75880953Y-55027409D01*
X76023810Y-55027409D02*
X76023810Y-54527409D01*
X76023810Y-54527409D02*
X75976191Y-54598838D01*
X75976191Y-54598838D02*
X75928572Y-54646457D01*
X75928572Y-54646457D02*
X75880953Y-54670266D01*
X76476190Y-54527409D02*
X76523809Y-54527409D01*
X76523809Y-54527409D02*
X76571428Y-54551219D01*
X76571428Y-54551219D02*
X76595238Y-54575028D01*
X76595238Y-54575028D02*
X76619047Y-54622647D01*
X76619047Y-54622647D02*
X76642857Y-54717885D01*
X76642857Y-54717885D02*
X76642857Y-54836933D01*
X76642857Y-54836933D02*
X76619047Y-54932171D01*
X76619047Y-54932171D02*
X76595238Y-54979790D01*
X76595238Y-54979790D02*
X76571428Y-55003600D01*
X76571428Y-55003600D02*
X76523809Y-55027409D01*
X76523809Y-55027409D02*
X76476190Y-55027409D01*
X76476190Y-55027409D02*
X76428571Y-55003600D01*
X76428571Y-55003600D02*
X76404762Y-54979790D01*
X76404762Y-54979790D02*
X76380952Y-54932171D01*
X76380952Y-54932171D02*
X76357143Y-54836933D01*
X76357143Y-54836933D02*
X76357143Y-54717885D01*
X76357143Y-54717885D02*
X76380952Y-54622647D01*
X76380952Y-54622647D02*
X76404762Y-54575028D01*
X76404762Y-54575028D02*
X76428571Y-54551219D01*
X76428571Y-54551219D02*
X76476190Y-54527409D01*
X70083333Y-52603600D02*
X70154761Y-52627409D01*
X70154761Y-52627409D02*
X70273809Y-52627409D01*
X70273809Y-52627409D02*
X70321428Y-52603600D01*
X70321428Y-52603600D02*
X70345237Y-52579790D01*
X70345237Y-52579790D02*
X70369047Y-52532171D01*
X70369047Y-52532171D02*
X70369047Y-52484552D01*
X70369047Y-52484552D02*
X70345237Y-52436933D01*
X70345237Y-52436933D02*
X70321428Y-52413123D01*
X70321428Y-52413123D02*
X70273809Y-52389314D01*
X70273809Y-52389314D02*
X70178571Y-52365504D01*
X70178571Y-52365504D02*
X70130952Y-52341695D01*
X70130952Y-52341695D02*
X70107142Y-52317885D01*
X70107142Y-52317885D02*
X70083333Y-52270266D01*
X70083333Y-52270266D02*
X70083333Y-52222647D01*
X70083333Y-52222647D02*
X70107142Y-52175028D01*
X70107142Y-52175028D02*
X70130952Y-52151219D01*
X70130952Y-52151219D02*
X70178571Y-52127409D01*
X70178571Y-52127409D02*
X70297618Y-52127409D01*
X70297618Y-52127409D02*
X70369047Y-52151219D01*
X70583332Y-52627409D02*
X70583332Y-52127409D01*
X70583332Y-52365504D02*
X70869046Y-52365504D01*
X70869046Y-52627409D02*
X70869046Y-52127409D01*
X71107142Y-52127409D02*
X71107142Y-52532171D01*
X71107142Y-52532171D02*
X71130952Y-52579790D01*
X71130952Y-52579790D02*
X71154761Y-52603600D01*
X71154761Y-52603600D02*
X71202380Y-52627409D01*
X71202380Y-52627409D02*
X71297618Y-52627409D01*
X71297618Y-52627409D02*
X71345237Y-52603600D01*
X71345237Y-52603600D02*
X71369047Y-52579790D01*
X71369047Y-52579790D02*
X71392856Y-52532171D01*
X71392856Y-52532171D02*
X71392856Y-52127409D01*
X71559524Y-52127409D02*
X71845238Y-52127409D01*
X71702381Y-52627409D02*
X71702381Y-52127409D01*
X72011904Y-52627409D02*
X72011904Y-52127409D01*
X72011904Y-52127409D02*
X72130952Y-52127409D01*
X72130952Y-52127409D02*
X72202380Y-52151219D01*
X72202380Y-52151219D02*
X72249999Y-52198838D01*
X72249999Y-52198838D02*
X72273809Y-52246457D01*
X72273809Y-52246457D02*
X72297618Y-52341695D01*
X72297618Y-52341695D02*
X72297618Y-52413123D01*
X72297618Y-52413123D02*
X72273809Y-52508361D01*
X72273809Y-52508361D02*
X72249999Y-52555980D01*
X72249999Y-52555980D02*
X72202380Y-52603600D01*
X72202380Y-52603600D02*
X72130952Y-52627409D01*
X72130952Y-52627409D02*
X72011904Y-52627409D01*
X72607142Y-52127409D02*
X72702380Y-52127409D01*
X72702380Y-52127409D02*
X72749999Y-52151219D01*
X72749999Y-52151219D02*
X72797618Y-52198838D01*
X72797618Y-52198838D02*
X72821428Y-52294076D01*
X72821428Y-52294076D02*
X72821428Y-52460742D01*
X72821428Y-52460742D02*
X72797618Y-52555980D01*
X72797618Y-52555980D02*
X72749999Y-52603600D01*
X72749999Y-52603600D02*
X72702380Y-52627409D01*
X72702380Y-52627409D02*
X72607142Y-52627409D01*
X72607142Y-52627409D02*
X72559523Y-52603600D01*
X72559523Y-52603600D02*
X72511904Y-52555980D01*
X72511904Y-52555980D02*
X72488095Y-52460742D01*
X72488095Y-52460742D02*
X72488095Y-52294076D01*
X72488095Y-52294076D02*
X72511904Y-52198838D01*
X72511904Y-52198838D02*
X72559523Y-52151219D01*
X72559523Y-52151219D02*
X72607142Y-52127409D01*
X72988095Y-52127409D02*
X73107143Y-52627409D01*
X73107143Y-52627409D02*
X73202381Y-52270266D01*
X73202381Y-52270266D02*
X73297619Y-52627409D01*
X73297619Y-52627409D02*
X73416667Y-52127409D01*
X73607143Y-52627409D02*
X73607143Y-52127409D01*
X73607143Y-52127409D02*
X73892857Y-52627409D01*
X73892857Y-52627409D02*
X73892857Y-52127409D01*
D11*
X71168597Y-47644062D02*
X71454807Y-47930272D01*
X71454807Y-47930272D02*
X71505315Y-47947108D01*
X71505315Y-47947108D02*
X71538986Y-47947108D01*
X71538986Y-47947108D02*
X71589494Y-47930272D01*
X71589494Y-47930272D02*
X71656837Y-47862929D01*
X71656837Y-47862929D02*
X71673673Y-47812421D01*
X71673673Y-47812421D02*
X71673673Y-47778749D01*
X71673673Y-47778749D02*
X71656837Y-47728242D01*
X71656837Y-47728242D02*
X71370628Y-47442032D01*
X72077735Y-47442031D02*
X71875704Y-47644062D01*
X71976719Y-47543047D02*
X71623166Y-47189493D01*
X71623166Y-47189493D02*
X71640002Y-47273673D01*
X71640002Y-47273673D02*
X71640002Y-47341016D01*
X71640002Y-47341016D02*
X71623166Y-47391524D01*
X71943047Y-46869612D02*
X71976719Y-46835940D01*
X71976719Y-46835940D02*
X72027227Y-46819104D01*
X72027227Y-46819104D02*
X72060899Y-46819104D01*
X72060899Y-46819104D02*
X72111406Y-46835940D01*
X72111406Y-46835940D02*
X72195586Y-46886448D01*
X72195586Y-46886448D02*
X72279765Y-46970627D01*
X72279765Y-46970627D02*
X72330273Y-47054807D01*
X72330273Y-47054807D02*
X72347108Y-47105314D01*
X72347108Y-47105314D02*
X72347108Y-47138986D01*
X72347108Y-47138986D02*
X72330273Y-47189494D01*
X72330273Y-47189494D02*
X72296601Y-47223165D01*
X72296601Y-47223165D02*
X72246093Y-47240001D01*
X72246093Y-47240001D02*
X72212421Y-47240001D01*
X72212421Y-47240001D02*
X72161914Y-47223165D01*
X72161914Y-47223165D02*
X72077734Y-47172658D01*
X72077734Y-47172658D02*
X71993555Y-47088478D01*
X71993555Y-47088478D02*
X71943047Y-47004299D01*
X71943047Y-47004299D02*
X71926211Y-46953791D01*
X71926211Y-46953791D02*
X71926211Y-46920120D01*
X71926211Y-46920120D02*
X71943047Y-46869612D01*
D12*
X56681090Y-61559523D02*
X56704900Y-61583332D01*
X56704900Y-61583332D02*
X56728709Y-61654761D01*
X56728709Y-61654761D02*
X56728709Y-61702380D01*
X56728709Y-61702380D02*
X56704900Y-61773808D01*
X56704900Y-61773808D02*
X56657280Y-61821427D01*
X56657280Y-61821427D02*
X56609661Y-61845237D01*
X56609661Y-61845237D02*
X56514423Y-61869046D01*
X56514423Y-61869046D02*
X56442995Y-61869046D01*
X56442995Y-61869046D02*
X56347757Y-61845237D01*
X56347757Y-61845237D02*
X56300138Y-61821427D01*
X56300138Y-61821427D02*
X56252519Y-61773808D01*
X56252519Y-61773808D02*
X56228709Y-61702380D01*
X56228709Y-61702380D02*
X56228709Y-61654761D01*
X56228709Y-61654761D02*
X56252519Y-61583332D01*
X56252519Y-61583332D02*
X56276328Y-61559523D01*
X56728709Y-61083332D02*
X56728709Y-61369046D01*
X56728709Y-61226189D02*
X56228709Y-61226189D01*
X56228709Y-61226189D02*
X56300138Y-61273808D01*
X56300138Y-61273808D02*
X56347757Y-61321427D01*
X56347757Y-61321427D02*
X56371566Y-61369046D01*
X56228709Y-60773809D02*
X56228709Y-60726190D01*
X56228709Y-60726190D02*
X56252519Y-60678571D01*
X56252519Y-60678571D02*
X56276328Y-60654761D01*
X56276328Y-60654761D02*
X56323947Y-60630952D01*
X56323947Y-60630952D02*
X56419185Y-60607142D01*
X56419185Y-60607142D02*
X56538233Y-60607142D01*
X56538233Y-60607142D02*
X56633471Y-60630952D01*
X56633471Y-60630952D02*
X56681090Y-60654761D01*
X56681090Y-60654761D02*
X56704900Y-60678571D01*
X56704900Y-60678571D02*
X56728709Y-60726190D01*
X56728709Y-60726190D02*
X56728709Y-60773809D01*
X56728709Y-60773809D02*
X56704900Y-60821428D01*
X56704900Y-60821428D02*
X56681090Y-60845237D01*
X56681090Y-60845237D02*
X56633471Y-60869047D01*
X56633471Y-60869047D02*
X56538233Y-60892856D01*
X56538233Y-60892856D02*
X56419185Y-60892856D01*
X56419185Y-60892856D02*
X56323947Y-60869047D01*
X56323947Y-60869047D02*
X56276328Y-60845237D01*
X56276328Y-60845237D02*
X56252519Y-60821428D01*
X56252519Y-60821428D02*
X56228709Y-60773809D01*
X56728709Y-60130952D02*
X56728709Y-60416666D01*
X56728709Y-60273809D02*
X56228709Y-60273809D01*
X56228709Y-60273809D02*
X56300138Y-60321428D01*
X56300138Y-60321428D02*
X56347757Y-60369047D01*
X56347757Y-60369047D02*
X56371566Y-60416666D01*
D14*
X53892857Y-64478059D02*
X53892857Y-63978059D01*
X53892857Y-63978059D02*
X54011905Y-63978059D01*
X54011905Y-63978059D02*
X54083333Y-64001869D01*
X54083333Y-64001869D02*
X54130952Y-64049488D01*
X54130952Y-64049488D02*
X54154762Y-64097107D01*
X54154762Y-64097107D02*
X54178571Y-64192345D01*
X54178571Y-64192345D02*
X54178571Y-64263773D01*
X54178571Y-64263773D02*
X54154762Y-64359011D01*
X54154762Y-64359011D02*
X54130952Y-64406630D01*
X54130952Y-64406630D02*
X54083333Y-64454250D01*
X54083333Y-64454250D02*
X54011905Y-64478059D01*
X54011905Y-64478059D02*
X53892857Y-64478059D01*
X54345238Y-63978059D02*
X54654762Y-63978059D01*
X54654762Y-63978059D02*
X54488095Y-64168535D01*
X54488095Y-64168535D02*
X54559524Y-64168535D01*
X54559524Y-64168535D02*
X54607143Y-64192345D01*
X54607143Y-64192345D02*
X54630952Y-64216154D01*
X54630952Y-64216154D02*
X54654762Y-64263773D01*
X54654762Y-64263773D02*
X54654762Y-64382821D01*
X54654762Y-64382821D02*
X54630952Y-64430440D01*
X54630952Y-64430440D02*
X54607143Y-64454250D01*
X54607143Y-64454250D02*
X54559524Y-64478059D01*
X54559524Y-64478059D02*
X54416667Y-64478059D01*
X54416667Y-64478059D02*
X54369048Y-64454250D01*
X54369048Y-64454250D02*
X54345238Y-64430440D01*
X55130952Y-64478059D02*
X54845238Y-64478059D01*
X54988095Y-64478059D02*
X54988095Y-63978059D01*
X54988095Y-63978059D02*
X54940476Y-64049488D01*
X54940476Y-64049488D02*
X54892857Y-64097107D01*
X54892857Y-64097107D02*
X54845238Y-64120916D01*
D13*
X80445237Y-52627409D02*
X80445237Y-52127409D01*
X80445237Y-52127409D02*
X80635713Y-52127409D01*
X80635713Y-52127409D02*
X80683332Y-52151219D01*
X80683332Y-52151219D02*
X80707142Y-52175028D01*
X80707142Y-52175028D02*
X80730951Y-52222647D01*
X80730951Y-52222647D02*
X80730951Y-52294076D01*
X80730951Y-52294076D02*
X80707142Y-52341695D01*
X80707142Y-52341695D02*
X80683332Y-52365504D01*
X80683332Y-52365504D02*
X80635713Y-52389314D01*
X80635713Y-52389314D02*
X80445237Y-52389314D01*
X81040475Y-52127409D02*
X81135713Y-52127409D01*
X81135713Y-52127409D02*
X81183332Y-52151219D01*
X81183332Y-52151219D02*
X81230951Y-52198838D01*
X81230951Y-52198838D02*
X81254761Y-52294076D01*
X81254761Y-52294076D02*
X81254761Y-52460742D01*
X81254761Y-52460742D02*
X81230951Y-52555980D01*
X81230951Y-52555980D02*
X81183332Y-52603600D01*
X81183332Y-52603600D02*
X81135713Y-52627409D01*
X81135713Y-52627409D02*
X81040475Y-52627409D01*
X81040475Y-52627409D02*
X80992856Y-52603600D01*
X80992856Y-52603600D02*
X80945237Y-52555980D01*
X80945237Y-52555980D02*
X80921428Y-52460742D01*
X80921428Y-52460742D02*
X80921428Y-52294076D01*
X80921428Y-52294076D02*
X80945237Y-52198838D01*
X80945237Y-52198838D02*
X80992856Y-52151219D01*
X80992856Y-52151219D02*
X81040475Y-52127409D01*
X81421428Y-52127409D02*
X81540476Y-52627409D01*
X81540476Y-52627409D02*
X81635714Y-52270266D01*
X81635714Y-52270266D02*
X81730952Y-52627409D01*
X81730952Y-52627409D02*
X81850000Y-52127409D01*
X82040476Y-52365504D02*
X82207143Y-52365504D01*
X82278571Y-52627409D02*
X82040476Y-52627409D01*
X82040476Y-52627409D02*
X82040476Y-52127409D01*
X82040476Y-52127409D02*
X82278571Y-52127409D01*
X82778571Y-52627409D02*
X82611905Y-52389314D01*
X82492857Y-52627409D02*
X82492857Y-52127409D01*
X82492857Y-52127409D02*
X82683333Y-52127409D01*
X82683333Y-52127409D02*
X82730952Y-52151219D01*
X82730952Y-52151219D02*
X82754762Y-52175028D01*
X82754762Y-52175028D02*
X82778571Y-52222647D01*
X82778571Y-52222647D02*
X82778571Y-52294076D01*
X82778571Y-52294076D02*
X82754762Y-52341695D01*
X82754762Y-52341695D02*
X82730952Y-52365504D01*
X82730952Y-52365504D02*
X82683333Y-52389314D01*
X82683333Y-52389314D02*
X82492857Y-52389314D01*
X76641388Y-52581623D02*
X76691895Y-52295413D01*
X76439357Y-52379593D02*
X76792911Y-52026039D01*
X76792911Y-52026039D02*
X76927598Y-52160726D01*
X76927598Y-52160726D02*
X76944434Y-52211234D01*
X76944434Y-52211234D02*
X76944434Y-52244906D01*
X76944434Y-52244906D02*
X76927598Y-52295413D01*
X76927598Y-52295413D02*
X76877090Y-52345921D01*
X76877090Y-52345921D02*
X76826582Y-52362757D01*
X76826582Y-52362757D02*
X76792911Y-52362757D01*
X76792911Y-52362757D02*
X76742403Y-52345921D01*
X76742403Y-52345921D02*
X76607716Y-52211234D01*
X76978105Y-52547952D02*
X77095956Y-52665803D01*
X76961269Y-52901505D02*
X76792911Y-52733146D01*
X76792911Y-52733146D02*
X77146464Y-52379593D01*
X77146464Y-52379593D02*
X77314823Y-52547952D01*
X77112792Y-53019356D02*
X77146464Y-53086700D01*
X77146464Y-53086700D02*
X77230643Y-53170879D01*
X77230643Y-53170879D02*
X77281151Y-53187715D01*
X77281151Y-53187715D02*
X77314823Y-53187715D01*
X77314823Y-53187715D02*
X77365330Y-53170879D01*
X77365330Y-53170879D02*
X77399002Y-53137207D01*
X77399002Y-53137207D02*
X77415838Y-53086700D01*
X77415838Y-53086700D02*
X77415838Y-53053028D01*
X77415838Y-53053028D02*
X77399002Y-53002520D01*
X77399002Y-53002520D02*
X77348495Y-52918341D01*
X77348495Y-52918341D02*
X77331659Y-52867833D01*
X77331659Y-52867833D02*
X77331659Y-52834162D01*
X77331659Y-52834162D02*
X77348495Y-52783654D01*
X77348495Y-52783654D02*
X77382166Y-52749982D01*
X77382166Y-52749982D02*
X77432674Y-52733146D01*
X77432674Y-52733146D02*
X77466346Y-52733146D01*
X77466346Y-52733146D02*
X77516853Y-52749982D01*
X77516853Y-52749982D02*
X77601033Y-52834162D01*
X77601033Y-52834162D02*
X77634704Y-52901505D01*
X77634704Y-53204550D02*
X77752555Y-53322402D01*
X77617868Y-53558104D02*
X77449509Y-53389745D01*
X77449509Y-53389745D02*
X77803063Y-53036192D01*
X77803063Y-53036192D02*
X77971422Y-53204550D01*
X78072437Y-53305566D02*
X78274467Y-53507596D01*
X77819899Y-53760134D02*
X78173452Y-53406581D01*
D10*
X70389164Y-60946428D02*
X70996307Y-60946428D01*
X70996307Y-60946428D02*
X71067735Y-60910714D01*
X71067735Y-60910714D02*
X71103450Y-60875000D01*
X71103450Y-60875000D02*
X71139164Y-60803571D01*
X71139164Y-60803571D02*
X71139164Y-60660714D01*
X71139164Y-60660714D02*
X71103450Y-60589285D01*
X71103450Y-60589285D02*
X71067735Y-60553571D01*
X71067735Y-60553571D02*
X70996307Y-60517857D01*
X70996307Y-60517857D02*
X70389164Y-60517857D01*
X71139164Y-59767857D02*
X71139164Y-60196428D01*
X71139164Y-59982143D02*
X70389164Y-59982143D01*
X70389164Y-59982143D02*
X70496307Y-60053571D01*
X70496307Y-60053571D02*
X70567735Y-60125000D01*
X70567735Y-60125000D02*
X70603450Y-60196428D01*
D13*
X70642857Y-56515504D02*
X70809524Y-56515504D01*
X70880952Y-56777409D02*
X70642857Y-56777409D01*
X70642857Y-56777409D02*
X70642857Y-56277409D01*
X70642857Y-56277409D02*
X70880952Y-56277409D01*
X71047619Y-56277409D02*
X71380952Y-56777409D01*
X71380952Y-56277409D02*
X71047619Y-56777409D01*
X71571428Y-56777409D02*
X71571428Y-56277409D01*
X71690476Y-56825028D02*
X72071428Y-56825028D01*
X72476189Y-56729790D02*
X72452380Y-56753600D01*
X72452380Y-56753600D02*
X72380951Y-56777409D01*
X72380951Y-56777409D02*
X72333332Y-56777409D01*
X72333332Y-56777409D02*
X72261904Y-56753600D01*
X72261904Y-56753600D02*
X72214285Y-56705980D01*
X72214285Y-56705980D02*
X72190475Y-56658361D01*
X72190475Y-56658361D02*
X72166666Y-56563123D01*
X72166666Y-56563123D02*
X72166666Y-56491695D01*
X72166666Y-56491695D02*
X72190475Y-56396457D01*
X72190475Y-56396457D02*
X72214285Y-56348838D01*
X72214285Y-56348838D02*
X72261904Y-56301219D01*
X72261904Y-56301219D02*
X72333332Y-56277409D01*
X72333332Y-56277409D02*
X72380951Y-56277409D01*
X72380951Y-56277409D02*
X72452380Y-56301219D01*
X72452380Y-56301219D02*
X72476189Y-56325028D01*
X72928570Y-56777409D02*
X72690475Y-56777409D01*
X72690475Y-56777409D02*
X72690475Y-56277409D01*
X73095237Y-56777409D02*
X73095237Y-56277409D01*
X73380951Y-56777409D02*
X73166666Y-56491695D01*
X73380951Y-56277409D02*
X73095237Y-56563123D01*
D11*
X84020335Y-54002143D02*
X84056050Y-54037857D01*
X84056050Y-54037857D02*
X84091764Y-54145000D01*
X84091764Y-54145000D02*
X84091764Y-54216428D01*
X84091764Y-54216428D02*
X84056050Y-54323571D01*
X84056050Y-54323571D02*
X83984621Y-54395000D01*
X83984621Y-54395000D02*
X83913192Y-54430714D01*
X83913192Y-54430714D02*
X83770335Y-54466428D01*
X83770335Y-54466428D02*
X83663192Y-54466428D01*
X83663192Y-54466428D02*
X83520335Y-54430714D01*
X83520335Y-54430714D02*
X83448907Y-54395000D01*
X83448907Y-54395000D02*
X83377478Y-54323571D01*
X83377478Y-54323571D02*
X83341764Y-54216428D01*
X83341764Y-54216428D02*
X83341764Y-54145000D01*
X83341764Y-54145000D02*
X83377478Y-54037857D01*
X83377478Y-54037857D02*
X83413192Y-54002143D01*
X84091764Y-53645000D02*
X84091764Y-53502143D01*
X84091764Y-53502143D02*
X84056050Y-53430714D01*
X84056050Y-53430714D02*
X84020335Y-53395000D01*
X84020335Y-53395000D02*
X83913192Y-53323571D01*
X83913192Y-53323571D02*
X83770335Y-53287857D01*
X83770335Y-53287857D02*
X83484621Y-53287857D01*
X83484621Y-53287857D02*
X83413192Y-53323571D01*
X83413192Y-53323571D02*
X83377478Y-53359286D01*
X83377478Y-53359286D02*
X83341764Y-53430714D01*
X83341764Y-53430714D02*
X83341764Y-53573571D01*
X83341764Y-53573571D02*
X83377478Y-53645000D01*
X83377478Y-53645000D02*
X83413192Y-53680714D01*
X83413192Y-53680714D02*
X83484621Y-53716428D01*
X83484621Y-53716428D02*
X83663192Y-53716428D01*
X83663192Y-53716428D02*
X83734621Y-53680714D01*
X83734621Y-53680714D02*
X83770335Y-53645000D01*
X83770335Y-53645000D02*
X83806050Y-53573571D01*
X83806050Y-53573571D02*
X83806050Y-53430714D01*
X83806050Y-53430714D02*
X83770335Y-53359286D01*
X83770335Y-53359286D02*
X83734621Y-53323571D01*
X83734621Y-53323571D02*
X83663192Y-53287857D01*
X83663192Y-52859285D02*
X83627478Y-52930714D01*
X83627478Y-52930714D02*
X83591764Y-52966428D01*
X83591764Y-52966428D02*
X83520335Y-53002142D01*
X83520335Y-53002142D02*
X83484621Y-53002142D01*
X83484621Y-53002142D02*
X83413192Y-52966428D01*
X83413192Y-52966428D02*
X83377478Y-52930714D01*
X83377478Y-52930714D02*
X83341764Y-52859285D01*
X83341764Y-52859285D02*
X83341764Y-52716428D01*
X83341764Y-52716428D02*
X83377478Y-52645000D01*
X83377478Y-52645000D02*
X83413192Y-52609285D01*
X83413192Y-52609285D02*
X83484621Y-52573571D01*
X83484621Y-52573571D02*
X83520335Y-52573571D01*
X83520335Y-52573571D02*
X83591764Y-52609285D01*
X83591764Y-52609285D02*
X83627478Y-52645000D01*
X83627478Y-52645000D02*
X83663192Y-52716428D01*
X83663192Y-52716428D02*
X83663192Y-52859285D01*
X83663192Y-52859285D02*
X83698907Y-52930714D01*
X83698907Y-52930714D02*
X83734621Y-52966428D01*
X83734621Y-52966428D02*
X83806050Y-53002142D01*
X83806050Y-53002142D02*
X83948907Y-53002142D01*
X83948907Y-53002142D02*
X84020335Y-52966428D01*
X84020335Y-52966428D02*
X84056050Y-52930714D01*
X84056050Y-52930714D02*
X84091764Y-52859285D01*
X84091764Y-52859285D02*
X84091764Y-52716428D01*
X84091764Y-52716428D02*
X84056050Y-52645000D01*
X84056050Y-52645000D02*
X84020335Y-52609285D01*
X84020335Y-52609285D02*
X83948907Y-52573571D01*
X83948907Y-52573571D02*
X83806050Y-52573571D01*
X83806050Y-52573571D02*
X83734621Y-52609285D01*
X83734621Y-52609285D02*
X83698907Y-52645000D01*
X83698907Y-52645000D02*
X83663192Y-52716428D01*
D13*
X73595238Y-55765504D02*
X73761905Y-55765504D01*
X73833333Y-56027409D02*
X73595238Y-56027409D01*
X73595238Y-56027409D02*
X73595238Y-55527409D01*
X73595238Y-55527409D02*
X73833333Y-55527409D01*
X74000000Y-55527409D02*
X74333333Y-56027409D01*
X74333333Y-55527409D02*
X74000000Y-56027409D01*
X74523809Y-56027409D02*
X74523809Y-55527409D01*
X74642857Y-56075028D02*
X75023809Y-56075028D01*
X75142856Y-56027409D02*
X75142856Y-55527409D01*
X75142856Y-55527409D02*
X75261904Y-55527409D01*
X75261904Y-55527409D02*
X75333332Y-55551219D01*
X75333332Y-55551219D02*
X75380951Y-55598838D01*
X75380951Y-55598838D02*
X75404761Y-55646457D01*
X75404761Y-55646457D02*
X75428570Y-55741695D01*
X75428570Y-55741695D02*
X75428570Y-55813123D01*
X75428570Y-55813123D02*
X75404761Y-55908361D01*
X75404761Y-55908361D02*
X75380951Y-55955980D01*
X75380951Y-55955980D02*
X75333332Y-56003600D01*
X75333332Y-56003600D02*
X75261904Y-56027409D01*
X75261904Y-56027409D02*
X75142856Y-56027409D01*
D15*
%TO.C,Y1*%
X53800000Y-58225000D02*
X53800000Y-59825000D01*
X53800000Y-59825000D02*
X56200000Y-59825000D01*
X56200000Y-58225000D02*
X53800000Y-58225000D01*
D16*
%TO.C,TP3*%
X84525000Y-52625000D02*
G75*
G02*
X83975000Y-52625000I-275000J0D01*
G01*
X83975000Y-52625000D02*
G75*
G02*
X84525000Y-52625000I275000J0D01*
G01*
D15*
%TO.C,R60*%
X52131141Y-62645000D02*
X51823859Y-62645000D01*
X52131141Y-63405000D02*
X51823859Y-63405000D01*
D16*
%TO.C,TP3*%
X86025000Y-52625000D02*
G75*
G02*
X85475000Y-52625000I-275000J0D01*
G01*
X85475000Y-52625000D02*
G75*
G02*
X86025000Y-52625000I275000J0D01*
G01*
D15*
%TO.C,C102*%
X53890000Y-61107836D02*
X53890000Y-60892164D01*
X54610000Y-61107836D02*
X54610000Y-60892164D01*
%TO.C,TP1*%
X49950000Y-63000000D02*
G75*
G02*
X48550000Y-63000000I-700000J0D01*
G01*
X48550000Y-63000000D02*
G75*
G02*
X49950000Y-63000000I700000J0D01*
G01*
%TO.C,TP6*%
X76300000Y-54000000D02*
G75*
G02*
X75700000Y-54000000I-300000J0D01*
G01*
X75700000Y-54000000D02*
G75*
G02*
X76300000Y-54000000I300000J0D01*
G01*
%TO.C,TP15*%
X72300000Y-53200000D02*
G75*
G02*
X71700000Y-53200000I-300000J0D01*
G01*
X71700000Y-53200000D02*
G75*
G02*
X72300000Y-53200000I300000J0D01*
G01*
%TO.C,U10*%
X71826247Y-50882421D02*
X71260562Y-50316735D01*
X71826247Y-50882421D02*
X72391933Y-51448106D01*
X74032421Y-48676247D02*
X73466735Y-48110562D01*
X74032421Y-48676247D02*
X74598106Y-49241933D01*
X73480877Y-47728724D02*
X73077826Y-47792364D01*
X73141466Y-47389313D01*
X73480877Y-47728724D01*
G36*
X73480877Y-47728724D02*
G01*
X73077826Y-47792364D01*
X73141466Y-47389313D01*
X73480877Y-47728724D01*
G37*
%TO.C,C101*%
X55340000Y-61107836D02*
X55340000Y-60892164D01*
X56060000Y-61107836D02*
X56060000Y-60892164D01*
%TO.C,D31*%
X53700000Y-63735000D02*
X55985000Y-63735000D01*
X55985000Y-62265000D02*
X53700000Y-62265000D01*
X55985000Y-63735000D02*
X55985000Y-62265000D01*
%TO.C,TP13*%
X81900000Y-51600000D02*
G75*
G02*
X81300000Y-51600000I-300000J0D01*
G01*
X81300000Y-51600000D02*
G75*
G02*
X81900000Y-51600000I300000J0D01*
G01*
D16*
%TO.C,TP7*%
X74275000Y-53000000D02*
G75*
G02*
X73725000Y-53000000I-275000J0D01*
G01*
X73725000Y-53000000D02*
G75*
G02*
X74275000Y-53000000I275000J0D01*
G01*
%TO.C,TP3*%
X57275000Y-58000000D02*
G75*
G02*
X56725000Y-58000000I-275000J0D01*
G01*
X56725000Y-58000000D02*
G75*
G02*
X57275000Y-58000000I275000J0D01*
G01*
D15*
%TO.C,TP11*%
X77050000Y-53500000D02*
G75*
G02*
X76450000Y-53500000I-300000J0D01*
G01*
X76450000Y-53500000D02*
G75*
G02*
X77050000Y-53500000I300000J0D01*
G01*
D16*
%TO.C,TP5*%
X73275000Y-55000000D02*
G75*
G02*
X72725000Y-55000000I-275000J0D01*
G01*
X72725000Y-55000000D02*
G75*
G02*
X73275000Y-55000000I275000J0D01*
G01*
D15*
%TO.C,U1*%
X59990000Y-44135000D02*
X59990000Y-44380000D01*
X59990000Y-62255000D02*
X59990000Y-62010000D01*
X63850000Y-44135000D02*
X59990000Y-44135000D01*
X63850000Y-44135000D02*
X67710000Y-44135000D01*
X63850000Y-62255000D02*
X59990000Y-62255000D01*
X63850000Y-62255000D02*
X67710000Y-62255000D01*
X67710000Y-44135000D02*
X67710000Y-44380000D01*
X67710000Y-62010000D02*
X69525000Y-62010000D01*
X67710000Y-62255000D02*
X67710000Y-62010000D01*
%TO.C,TP16*%
X72300000Y-55750000D02*
G75*
G02*
X71700000Y-55750000I-300000J0D01*
G01*
X71700000Y-55750000D02*
G75*
G02*
X72300000Y-55750000I300000J0D01*
G01*
D16*
%TO.C,TP12*%
X81875000Y-53000000D02*
G75*
G02*
X81325000Y-53000000I-275000J0D01*
G01*
X81325000Y-53000000D02*
G75*
G02*
X81875000Y-53000000I275000J0D01*
G01*
D15*
%TO.C,C98*%
X82440000Y-53412164D02*
X82440000Y-53627836D01*
X83160000Y-53412164D02*
X83160000Y-53627836D01*
D16*
%TO.C,TP3*%
X79875000Y-54000000D02*
G75*
G02*
X79325000Y-54000000I-275000J0D01*
G01*
X79325000Y-54000000D02*
G75*
G02*
X79875000Y-54000000I275000J0D01*
G01*
D15*
%TO.C,TP17*%
X74800000Y-55000000D02*
G75*
G02*
X74200000Y-55000000I-300000J0D01*
G01*
X74200000Y-55000000D02*
G75*
G02*
X74800000Y-55000000I300000J0D01*
G01*
D16*
%TO.C,TP2*%
X74275000Y-54000000D02*
G75*
G02*
X73725000Y-54000000I-275000J0D01*
G01*
X73725000Y-54000000D02*
G75*
G02*
X74275000Y-54000000I275000J0D01*
G01*
%TO.C,TP10*%
X75275000Y-53000000D02*
G75*
G02*
X74725000Y-53000000I-275000J0D01*
G01*
X74725000Y-53000000D02*
G75*
G02*
X75275000Y-53000000I275000J0D01*
G01*
%TO.C,TP4*%
X79075000Y-54000000D02*
G75*
G02*
X78525000Y-54000000I-275000J0D01*
G01*
X78525000Y-54000000D02*
G75*
G02*
X79075000Y-54000000I275000J0D01*
G01*
%TO.C,TP14*%
X73275000Y-54000000D02*
G75*
G02*
X72725000Y-54000000I-275000J0D01*
G01*
X72725000Y-54000000D02*
G75*
G02*
X73275000Y-54000000I275000J0D01*
G01*
%TD*%
M02*
