%TF.GenerationSoftware,KiCad,Pcbnew,8.99.0-unknown-3024a7c569~178~ubuntu22.04.1*%
%TF.CreationDate,2024-05-13T18:01:12+10:00*%
%TF.ProjectId,MXBreakout,4d584272-6561-46b6-9f75-742e6b696361,rev?*%
%TF.SameCoordinates,Original*%
%TF.FileFunction,Copper,L2,Bot*%
%TF.FilePolarity,Positive*%
%FSLAX46Y46*%
G04 Gerber Fmt 4.6, Leading zero omitted, Abs format (unit mm)*
G04 Created by KiCad (PCBNEW 8.99.0-unknown-3024a7c569~178~ubuntu22.04.1) date 2024-05-13 18:01:12*
%MOMM*%
%LPD*%
G01*
G04 APERTURE LIST*
%TA.AperFunction,ComponentPad*%
%ADD10C,0.500000*%
%TD*%
%TA.AperFunction,ComponentPad*%
%ADD11C,0.600000*%
%TD*%
%TA.AperFunction,ViaPad*%
%ADD12C,0.800000*%
%TD*%
%TA.AperFunction,ViaPad*%
%ADD13C,0.500000*%
%TD*%
%TA.AperFunction,ViaPad*%
%ADD14C,0.600000*%
%TD*%
%TA.AperFunction,Conductor*%
%ADD15C,0.200000*%
%TD*%
%TA.AperFunction,Conductor*%
%ADD16C,0.250000*%
%TD*%
G04 APERTURE END LIST*
D10*
%TO.P,TP3,1,1*%
%TO.N,GND*%
X84250000Y-52625000D03*
%TD*%
%TO.P,TP3,1,1*%
%TO.N,GND*%
X85750000Y-52625000D03*
%TD*%
%TO.P,TP7,1,1*%
%TO.N,Net-(U10-RST)*%
X74000000Y-53000000D03*
%TD*%
%TO.P,TP3,1,1*%
%TO.N,GND*%
X57000000Y-58000000D03*
%TD*%
%TO.P,TP5,1,1*%
%TO.N,/DATA3*%
X73000000Y-55000000D03*
%TD*%
%TO.P,TP12,1,1*%
%TO.N,/POWER*%
X81600000Y-53000000D03*
%TD*%
D11*
%TO.P,REF\u002A\u002A,1*%
%TO.N,GND*%
X46000000Y-64500000D03*
%TD*%
D10*
%TO.P,TP3,1,1*%
%TO.N,/DATA1*%
X79600000Y-54000000D03*
%TD*%
%TO.P,TP2,1,1*%
%TO.N,/DATA0*%
X74000000Y-54000000D03*
%TD*%
%TO.P,TP10,1,1*%
%TO.N,/RESET*%
X75000000Y-53000000D03*
%TD*%
%TO.P,TP4,1,1*%
%TO.N,/DATA2*%
X78800000Y-54000000D03*
%TD*%
%TO.P,TP14,1,1*%
%TO.N,/SOFT*%
X73000000Y-54000000D03*
%TD*%
D12*
%TO.N,GND*%
X50000000Y-61525000D03*
X75000000Y-56525000D03*
X52500000Y-61525000D03*
X62500000Y-51525000D03*
X80000000Y-51525000D03*
X65000000Y-51525000D03*
X52500000Y-59025000D03*
X50000000Y-59025000D03*
X62500000Y-49025000D03*
X65000000Y-49025000D03*
X65000000Y-54025000D03*
X47500000Y-64025000D03*
X82500000Y-51525000D03*
X72500000Y-59025000D03*
X62500000Y-54025000D03*
X47500000Y-61525000D03*
X77500000Y-51525000D03*
D13*
%TO.N,/DATA0*%
X70500000Y-48750000D03*
%TO.N,/DATA1*%
X70500000Y-47475000D03*
%TO.N,/DATA2*%
X70500000Y-46210000D03*
D14*
%TO.N,+3.3V*%
X81800000Y-55800000D03*
X81800000Y-54800000D03*
D12*
X78000000Y-55250000D03*
X70500000Y-54500000D03*
%TD*%
D15*
%TO.N,/DATA0*%
X74000000Y-54000000D02*
X70800000Y-50800000D01*
X70800000Y-49050000D02*
X70500000Y-48750000D01*
X70800000Y-50800000D02*
X70800000Y-49050000D01*
%TO.N,/DATA1*%
X78075000Y-52275000D02*
X76362500Y-52275000D01*
X79600000Y-53800000D02*
X78075000Y-52275000D01*
X76362500Y-52275000D02*
X71562500Y-47475000D01*
X79600000Y-54000000D02*
X79600000Y-53800000D01*
X71562500Y-47475000D02*
X70500000Y-47475000D01*
%TO.N,/DATA2*%
X69450000Y-46905000D02*
X69450000Y-47726409D01*
X69450000Y-47726409D02*
X69778591Y-48055000D01*
X70500000Y-46210000D02*
X70145000Y-46210000D01*
X71680052Y-48055000D02*
X77625052Y-54000000D01*
X77625052Y-54000000D02*
X78800000Y-54000000D01*
X69778591Y-48055000D02*
X71680052Y-48055000D01*
X70145000Y-46210000D02*
X69450000Y-46905000D01*
D16*
%TO.N,+3.3V*%
X70500000Y-54500000D02*
X71655000Y-55655000D01*
X77595000Y-55655000D02*
X78000000Y-55250000D01*
X71655000Y-55655000D02*
X77595000Y-55655000D01*
%TD*%
%TA.AperFunction,Conductor*%
%TO.N,GND*%
G36*
X69650956Y-44176560D02*
G01*
X69691287Y-44181870D01*
X69722549Y-44190245D01*
X69752565Y-44202678D01*
X69780600Y-44218863D01*
X69812841Y-44243602D01*
X69825036Y-44254297D01*
X76223115Y-50652376D01*
X76223118Y-50652382D01*
X76251421Y-50680684D01*
X76251421Y-50680685D01*
X76303690Y-50732953D01*
X76426613Y-50815086D01*
X76563198Y-50871659D01*
X76708195Y-50900499D01*
X76782114Y-50900498D01*
X76812461Y-50900497D01*
X85609371Y-50900421D01*
X85609396Y-50900423D01*
X85623814Y-50900422D01*
X85623816Y-50900423D01*
X85656357Y-50900421D01*
X85659866Y-50900421D01*
X85676036Y-50901480D01*
X85716361Y-50906788D01*
X85747630Y-50915168D01*
X85777622Y-50927593D01*
X85805655Y-50943780D01*
X85838029Y-50968626D01*
X85850216Y-50979317D01*
X85875604Y-51004711D01*
X85883936Y-51013045D01*
X85883994Y-51013093D01*
X86145726Y-51274825D01*
X86156432Y-51287034D01*
X86181187Y-51319305D01*
X86197365Y-51347335D01*
X86209796Y-51377354D01*
X86218171Y-51408621D01*
X86223520Y-51449276D01*
X86224580Y-51465456D01*
X86224578Y-51512994D01*
X86224581Y-51513025D01*
X86224581Y-52834680D01*
X86223520Y-52850867D01*
X86218208Y-52891210D01*
X86209831Y-52922473D01*
X86197396Y-52952496D01*
X86181215Y-52980526D01*
X86156509Y-53012728D01*
X86145809Y-53024929D01*
X82575061Y-56595676D01*
X82562867Y-56606371D01*
X82530598Y-56631132D01*
X82502561Y-56647318D01*
X82472550Y-56659748D01*
X82441284Y-56668125D01*
X82400917Y-56673439D01*
X82384733Y-56674500D01*
X82122509Y-56674500D01*
X82055470Y-56654815D01*
X82009715Y-56602011D01*
X81999771Y-56532853D01*
X82010789Y-56496698D01*
X82025403Y-56466350D01*
X82050499Y-56356399D01*
X82050500Y-56356391D01*
X82050500Y-56301668D01*
X82070185Y-56234629D01*
X82107458Y-56197354D01*
X82131128Y-56182143D01*
X82225377Y-56073373D01*
X82285165Y-55942457D01*
X82305647Y-55800000D01*
X82285165Y-55657543D01*
X82225377Y-55526627D01*
X82225375Y-55526625D01*
X82225374Y-55526622D01*
X82131133Y-55417862D01*
X82131128Y-55417857D01*
X82129869Y-55417048D01*
X82110055Y-55404314D01*
X82064302Y-55351512D01*
X82054358Y-55282353D01*
X82083383Y-55218797D01*
X82110058Y-55195684D01*
X82131125Y-55182145D01*
X82131125Y-55182144D01*
X82131128Y-55182143D01*
X82225377Y-55073373D01*
X82285165Y-54942457D01*
X82305647Y-54800000D01*
X82285165Y-54657543D01*
X82225377Y-54526627D01*
X82225375Y-54526625D01*
X82225374Y-54526622D01*
X82131133Y-54417862D01*
X82131129Y-54417858D01*
X82131128Y-54417857D01*
X82107458Y-54402645D01*
X82061705Y-54349841D01*
X82050500Y-54298331D01*
X82050500Y-54293608D01*
X82050499Y-54293600D01*
X82025403Y-54183649D01*
X81976467Y-54082033D01*
X81976466Y-54082030D01*
X81912263Y-54001525D01*
X81906146Y-53993854D01*
X81876753Y-53970413D01*
X81817969Y-53923533D01*
X81817966Y-53923532D01*
X81716350Y-53874596D01*
X81606399Y-53849500D01*
X81606393Y-53849500D01*
X81599828Y-53849500D01*
X80744170Y-53849500D01*
X80700000Y-53849500D01*
X80643607Y-53849500D01*
X80643600Y-53849500D01*
X80533649Y-53874596D01*
X80432033Y-53923532D01*
X80432030Y-53923533D01*
X80343854Y-53993854D01*
X80276079Y-54078839D01*
X80218890Y-54118979D01*
X80149078Y-54121828D01*
X80088809Y-54086481D01*
X80057217Y-54024162D01*
X80055133Y-54001525D01*
X80055133Y-53999999D01*
X80051762Y-53976552D01*
X80050500Y-53958906D01*
X80050500Y-53940692D01*
X80050498Y-53940683D01*
X80044004Y-53916451D01*
X80041044Y-53902013D01*
X80037103Y-53874597D01*
X80036697Y-53871774D01*
X80029713Y-53856481D01*
X80022734Y-53837069D01*
X80019799Y-53826114D01*
X80003826Y-53798450D01*
X79998427Y-53787975D01*
X79982884Y-53753941D01*
X79982883Y-53753940D01*
X79982882Y-53753937D01*
X79976385Y-53746439D01*
X79962709Y-53727233D01*
X79960488Y-53723386D01*
X79933062Y-53695960D01*
X79927046Y-53689498D01*
X79918656Y-53679815D01*
X79898049Y-53656033D01*
X79895511Y-53654402D01*
X79883106Y-53644404D01*
X79883064Y-53644460D01*
X79876617Y-53639513D01*
X79862050Y-53631103D01*
X79836369Y-53611397D01*
X79224971Y-52999999D01*
X81144867Y-52999999D01*
X81148238Y-53023445D01*
X81149500Y-53041092D01*
X81149500Y-53059310D01*
X81155991Y-53083537D01*
X81158952Y-53097976D01*
X81163301Y-53128222D01*
X81163302Y-53128225D01*
X81170286Y-53143518D01*
X81177264Y-53162927D01*
X81177267Y-53162940D01*
X81180201Y-53173886D01*
X81196170Y-53201545D01*
X81201574Y-53212027D01*
X81217118Y-53246063D01*
X81223612Y-53253558D01*
X81237291Y-53272767D01*
X81239510Y-53276612D01*
X81266920Y-53304022D01*
X81272952Y-53310500D01*
X81301951Y-53343967D01*
X81304485Y-53345595D01*
X81316897Y-53355598D01*
X81316941Y-53355542D01*
X81323381Y-53360483D01*
X81323387Y-53360489D01*
X81362871Y-53383285D01*
X81362878Y-53383289D01*
X81367918Y-53386361D01*
X81410930Y-53414004D01*
X81412226Y-53414595D01*
X81421171Y-53417751D01*
X81426107Y-53419795D01*
X81426114Y-53419799D01*
X81474940Y-53432881D01*
X81476778Y-53433374D01*
X81479580Y-53434160D01*
X81535228Y-53450500D01*
X81664772Y-53450500D01*
X81720426Y-53434157D01*
X81723243Y-53433368D01*
X81748402Y-53426627D01*
X81773886Y-53419799D01*
X81773892Y-53419795D01*
X81778821Y-53417754D01*
X81787768Y-53414597D01*
X81789062Y-53414005D01*
X81789069Y-53414004D01*
X81832114Y-53386339D01*
X81837086Y-53383309D01*
X81876613Y-53360489D01*
X81876618Y-53360483D01*
X81883068Y-53355536D01*
X81883111Y-53355593D01*
X81895525Y-53345588D01*
X81898049Y-53343967D01*
X81927054Y-53310491D01*
X81933060Y-53304040D01*
X81960489Y-53276613D01*
X81962708Y-53272767D01*
X81976391Y-53253553D01*
X81982882Y-53246063D01*
X81998428Y-53212018D01*
X82003822Y-53201555D01*
X82019799Y-53173886D01*
X82022734Y-53162931D01*
X82029715Y-53143513D01*
X82036697Y-53128226D01*
X82041046Y-53097976D01*
X82044007Y-53083537D01*
X82050500Y-53059309D01*
X82050500Y-53041092D01*
X82051762Y-53023445D01*
X82055133Y-52999999D01*
X82051762Y-52976552D01*
X82050500Y-52958906D01*
X82050500Y-52940692D01*
X82047648Y-52930049D01*
X82044004Y-52916451D01*
X82041044Y-52902013D01*
X82039491Y-52891210D01*
X82036697Y-52871774D01*
X82029713Y-52856481D01*
X82022734Y-52837069D01*
X82019799Y-52826114D01*
X82003826Y-52798450D01*
X81998427Y-52787975D01*
X81982884Y-52753941D01*
X81982882Y-52753938D01*
X81982882Y-52753937D01*
X81976385Y-52746439D01*
X81962709Y-52727233D01*
X81960489Y-52723387D01*
X81933062Y-52695960D01*
X81927046Y-52689498D01*
X81927034Y-52689484D01*
X81898049Y-52656033D01*
X81898047Y-52656032D01*
X81898048Y-52656032D01*
X81895508Y-52654400D01*
X81883101Y-52644401D01*
X81883059Y-52644458D01*
X81876617Y-52639515D01*
X81876613Y-52639511D01*
X81859933Y-52629881D01*
X81837115Y-52616706D01*
X81832078Y-52613636D01*
X81789068Y-52585995D01*
X81787773Y-52585404D01*
X81778845Y-52582254D01*
X81773887Y-52580200D01*
X81723195Y-52566617D01*
X81720358Y-52565821D01*
X81664772Y-52549500D01*
X81535228Y-52549500D01*
X81479584Y-52565837D01*
X81476747Y-52566633D01*
X81426112Y-52580201D01*
X81421148Y-52582257D01*
X81412223Y-52585405D01*
X81410932Y-52585995D01*
X81396632Y-52595185D01*
X81370749Y-52611819D01*
X81367923Y-52613635D01*
X81362887Y-52616704D01*
X81323388Y-52639509D01*
X81316942Y-52644456D01*
X81316900Y-52644401D01*
X81304501Y-52654392D01*
X81301956Y-52656027D01*
X81301951Y-52656032D01*
X81272965Y-52689484D01*
X81266936Y-52695960D01*
X81239511Y-52723386D01*
X81237283Y-52727245D01*
X81223618Y-52746435D01*
X81217117Y-52753937D01*
X81201574Y-52787971D01*
X81196169Y-52798454D01*
X81180202Y-52826110D01*
X81177265Y-52837069D01*
X81170290Y-52856472D01*
X81163302Y-52871774D01*
X81163301Y-52871780D01*
X81158952Y-52902023D01*
X81155990Y-52916464D01*
X81149501Y-52940683D01*
X81149500Y-52940691D01*
X81149500Y-52958906D01*
X81148238Y-52976552D01*
X81144867Y-52999999D01*
X79224971Y-52999999D01*
X78259512Y-52034541D01*
X78259504Y-52034535D01*
X78190995Y-51994982D01*
X78190990Y-51994979D01*
X78165513Y-51988152D01*
X78114562Y-51974500D01*
X78114560Y-51974500D01*
X76538333Y-51974500D01*
X76471294Y-51954815D01*
X76450652Y-51938181D01*
X71747011Y-47234540D01*
X71737306Y-47228937D01*
X71696565Y-47205415D01*
X71678490Y-47194979D01*
X71653013Y-47188152D01*
X71602062Y-47174500D01*
X71602060Y-47174500D01*
X70892343Y-47174500D01*
X70825304Y-47154815D01*
X70798631Y-47131704D01*
X70798050Y-47131034D01*
X70798049Y-47131033D01*
X70689069Y-47060996D01*
X70689065Y-47060994D01*
X70689064Y-47060994D01*
X70564774Y-47024500D01*
X70564772Y-47024500D01*
X70435228Y-47024500D01*
X70435226Y-47024500D01*
X70310935Y-47060994D01*
X70310932Y-47060995D01*
X70310931Y-47060996D01*
X70259677Y-47093934D01*
X70201950Y-47131033D01*
X70117119Y-47228936D01*
X70117118Y-47228937D01*
X70063302Y-47346774D01*
X70044867Y-47475000D01*
X70062592Y-47598283D01*
X70052648Y-47667442D01*
X70006893Y-47720246D01*
X69939854Y-47739930D01*
X69872814Y-47720245D01*
X69852173Y-47703611D01*
X69786819Y-47638257D01*
X69753334Y-47576934D01*
X69750500Y-47550576D01*
X69750500Y-47080832D01*
X69770185Y-47013793D01*
X69786815Y-46993155D01*
X70145937Y-46634032D01*
X70207258Y-46600549D01*
X70276949Y-46605533D01*
X70300651Y-46617397D01*
X70310931Y-46624004D01*
X70310933Y-46624004D01*
X70310934Y-46624005D01*
X70435225Y-46660499D01*
X70435227Y-46660500D01*
X70435228Y-46660500D01*
X70564773Y-46660500D01*
X70564773Y-46660499D01*
X70689069Y-46624004D01*
X70798049Y-46553967D01*
X70882882Y-46456063D01*
X70936697Y-46338226D01*
X70955133Y-46210000D01*
X70936697Y-46081774D01*
X70882882Y-45963937D01*
X70798049Y-45866033D01*
X70689069Y-45795996D01*
X70689065Y-45795994D01*
X70689064Y-45795994D01*
X70564774Y-45759500D01*
X70564772Y-45759500D01*
X70435228Y-45759500D01*
X70435226Y-45759500D01*
X70310935Y-45795994D01*
X70310932Y-45795995D01*
X70310931Y-45795996D01*
X70238277Y-45842687D01*
X70201949Y-45866034D01*
X70201369Y-45866704D01*
X70200620Y-45867184D01*
X70195246Y-45871842D01*
X70194576Y-45871069D01*
X70142591Y-45904477D01*
X70107657Y-45909500D01*
X70105438Y-45909500D01*
X70067224Y-45919739D01*
X70029009Y-45929979D01*
X69993015Y-45950760D01*
X69970194Y-45963937D01*
X69965341Y-45966738D01*
X69960488Y-45969540D01*
X69209541Y-46720487D01*
X69209535Y-46720495D01*
X69169982Y-46789004D01*
X69169979Y-46789009D01*
X69156326Y-46839962D01*
X69149500Y-46865438D01*
X69149500Y-47765971D01*
X69159739Y-47804184D01*
X69169979Y-47842400D01*
X69169981Y-47842403D01*
X69196885Y-47889001D01*
X69196886Y-47889003D01*
X69209537Y-47910916D01*
X69209539Y-47910919D01*
X69209540Y-47910920D01*
X69538131Y-48239511D01*
X69594080Y-48295460D01*
X69594082Y-48295461D01*
X69594086Y-48295464D01*
X69662595Y-48335017D01*
X69662602Y-48335021D01*
X69739029Y-48355500D01*
X69991959Y-48355500D01*
X70058998Y-48375185D01*
X70104753Y-48427989D01*
X70114697Y-48497147D01*
X70104753Y-48531012D01*
X70063302Y-48621774D01*
X70044867Y-48750000D01*
X70063302Y-48878225D01*
X70088779Y-48934011D01*
X70117118Y-48996063D01*
X70201951Y-49093967D01*
X70310931Y-49164004D01*
X70410435Y-49193220D01*
X70469212Y-49230993D01*
X70498238Y-49294548D01*
X70499500Y-49312197D01*
X70499500Y-50839562D01*
X70515808Y-50900423D01*
X70519979Y-50915989D01*
X70530285Y-50933840D01*
X70530287Y-50933842D01*
X70559539Y-50984510D01*
X72933781Y-53358752D01*
X72967266Y-53420075D01*
X72962282Y-53489767D01*
X72920410Y-53545700D01*
X72881098Y-53565392D01*
X72879650Y-53565818D01*
X72876747Y-53566633D01*
X72826112Y-53580201D01*
X72821148Y-53582257D01*
X72812223Y-53585405D01*
X72810932Y-53585995D01*
X72785658Y-53602237D01*
X72767925Y-53613634D01*
X72767923Y-53613635D01*
X72762887Y-53616704D01*
X72723388Y-53639509D01*
X72716942Y-53644456D01*
X72716900Y-53644401D01*
X72704501Y-53654392D01*
X72701956Y-53656027D01*
X72701951Y-53656032D01*
X72672965Y-53689484D01*
X72666936Y-53695960D01*
X72639511Y-53723386D01*
X72637283Y-53727245D01*
X72623618Y-53746435D01*
X72617117Y-53753937D01*
X72601574Y-53787971D01*
X72596169Y-53798454D01*
X72580202Y-53826110D01*
X72577265Y-53837069D01*
X72570290Y-53856472D01*
X72563302Y-53871774D01*
X72563301Y-53871780D01*
X72558952Y-53902023D01*
X72555990Y-53916464D01*
X72549501Y-53940683D01*
X72549500Y-53940691D01*
X72549500Y-53958906D01*
X72548238Y-53976552D01*
X72544867Y-53999999D01*
X72548238Y-54023445D01*
X72549500Y-54041092D01*
X72549500Y-54059310D01*
X72555991Y-54083537D01*
X72558952Y-54097976D01*
X72563301Y-54128222D01*
X72563302Y-54128225D01*
X72570286Y-54143518D01*
X72577264Y-54162927D01*
X72577267Y-54162940D01*
X72580201Y-54173886D01*
X72596170Y-54201545D01*
X72601574Y-54212027D01*
X72617118Y-54246063D01*
X72623612Y-54253558D01*
X72637291Y-54272767D01*
X72639510Y-54276612D01*
X72666920Y-54304022D01*
X72672952Y-54310500D01*
X72701951Y-54343967D01*
X72704485Y-54345595D01*
X72716897Y-54355598D01*
X72716941Y-54355542D01*
X72723381Y-54360483D01*
X72723387Y-54360489D01*
X72762871Y-54383285D01*
X72762878Y-54383289D01*
X72767903Y-54386351D01*
X72782425Y-54395684D01*
X72828179Y-54448487D01*
X72838123Y-54517646D01*
X72809098Y-54581201D01*
X72782427Y-54604313D01*
X72767927Y-54613632D01*
X72762887Y-54616704D01*
X72723388Y-54639509D01*
X72716942Y-54644456D01*
X72716900Y-54644401D01*
X72704501Y-54654392D01*
X72701956Y-54656027D01*
X72701951Y-54656032D01*
X72672965Y-54689484D01*
X72666936Y-54695960D01*
X72639511Y-54723386D01*
X72637283Y-54727245D01*
X72623618Y-54746435D01*
X72617117Y-54753937D01*
X72601574Y-54787971D01*
X72596169Y-54798454D01*
X72580202Y-54826110D01*
X72577265Y-54837069D01*
X72570290Y-54856472D01*
X72563302Y-54871774D01*
X72563301Y-54871780D01*
X72558952Y-54902023D01*
X72555990Y-54916464D01*
X72549501Y-54940683D01*
X72549500Y-54940691D01*
X72549500Y-54958906D01*
X72548238Y-54976552D01*
X72544867Y-54999999D01*
X72548238Y-55023445D01*
X72549500Y-55041092D01*
X72549500Y-55059310D01*
X72555991Y-55083537D01*
X72558952Y-55097976D01*
X72563301Y-55128222D01*
X72563302Y-55128225D01*
X72570286Y-55143518D01*
X72577263Y-55162923D01*
X72580069Y-55173396D01*
X72578414Y-55243245D01*
X72539256Y-55301112D01*
X72475031Y-55328622D01*
X72460298Y-55329500D01*
X71841188Y-55329500D01*
X71774149Y-55309815D01*
X71753507Y-55293181D01*
X71132011Y-54671685D01*
X71098526Y-54610362D01*
X71096753Y-54567818D01*
X71105682Y-54500000D01*
X71105682Y-54499998D01*
X71086671Y-54355598D01*
X71085044Y-54343238D01*
X71024536Y-54197159D01*
X70928282Y-54071718D01*
X70802841Y-53975464D01*
X70718872Y-53940683D01*
X70656762Y-53914956D01*
X70656760Y-53914955D01*
X70500001Y-53894318D01*
X70499999Y-53894318D01*
X70343239Y-53914955D01*
X70343237Y-53914956D01*
X70197160Y-53975463D01*
X70071718Y-54071718D01*
X69975463Y-54197160D01*
X69914956Y-54343237D01*
X69914955Y-54343239D01*
X69894318Y-54499998D01*
X69894318Y-54500001D01*
X69914955Y-54656760D01*
X69914956Y-54656762D01*
X69969304Y-54787971D01*
X69975464Y-54802841D01*
X70071718Y-54928282D01*
X70197159Y-55024536D01*
X70343238Y-55085044D01*
X70405478Y-55093238D01*
X70499999Y-55105682D01*
X70500000Y-55105682D01*
X70500001Y-55105682D01*
X70558446Y-55097987D01*
X70567818Y-55096753D01*
X70636853Y-55107518D01*
X70671685Y-55132011D01*
X71390194Y-55850520D01*
X71390204Y-55850531D01*
X71394534Y-55854861D01*
X71394535Y-55854862D01*
X71455138Y-55915465D01*
X71501890Y-55942457D01*
X71501891Y-55942458D01*
X71529356Y-55958315D01*
X71529359Y-55958317D01*
X71529361Y-55958317D01*
X71529362Y-55958318D01*
X71612147Y-55980501D01*
X71612149Y-55980501D01*
X71705449Y-55980501D01*
X71705465Y-55980500D01*
X77637851Y-55980500D01*
X77637853Y-55980500D01*
X77720639Y-55958318D01*
X77794862Y-55915465D01*
X77828315Y-55882012D01*
X77889637Y-55848526D01*
X77932181Y-55846753D01*
X78000000Y-55855682D01*
X78156762Y-55835044D01*
X78302841Y-55774536D01*
X78428282Y-55678282D01*
X78524536Y-55552841D01*
X78585044Y-55406762D01*
X78602178Y-55276613D01*
X78605682Y-55250001D01*
X78605682Y-55249998D01*
X78585044Y-55093239D01*
X78585044Y-55093238D01*
X78524536Y-54947159D01*
X78428282Y-54821718D01*
X78302841Y-54725464D01*
X78297824Y-54723386D01*
X78156762Y-54664956D01*
X78156760Y-54664955D01*
X78000001Y-54644318D01*
X77999999Y-54644318D01*
X77843239Y-54664955D01*
X77843237Y-54664956D01*
X77697160Y-54725463D01*
X77571718Y-54821718D01*
X77475463Y-54947160D01*
X77414956Y-55093237D01*
X77414955Y-55093239D01*
X77398046Y-55221685D01*
X77369780Y-55285582D01*
X77311455Y-55324053D01*
X77275107Y-55329500D01*
X73539702Y-55329500D01*
X73472663Y-55309815D01*
X73426908Y-55257011D01*
X73416964Y-55187853D01*
X73419926Y-55173412D01*
X73422732Y-55162938D01*
X73429715Y-55143513D01*
X73436697Y-55128226D01*
X73441046Y-55097976D01*
X73444007Y-55083537D01*
X73450500Y-55059309D01*
X73450500Y-55041092D01*
X73451762Y-55023445D01*
X73455133Y-54999999D01*
X73451762Y-54976552D01*
X73450500Y-54958906D01*
X73450500Y-54940692D01*
X73450498Y-54940683D01*
X73444004Y-54916451D01*
X73441044Y-54902013D01*
X73436929Y-54873387D01*
X73436697Y-54871774D01*
X73429713Y-54856481D01*
X73422734Y-54837069D01*
X73419799Y-54826114D01*
X73403826Y-54798450D01*
X73398427Y-54787975D01*
X73382884Y-54753941D01*
X73382883Y-54753940D01*
X73382882Y-54753937D01*
X73376385Y-54746439D01*
X73362709Y-54727233D01*
X73361688Y-54725464D01*
X73360489Y-54723387D01*
X73333062Y-54695960D01*
X73327046Y-54689498D01*
X73311611Y-54671685D01*
X73298049Y-54656033D01*
X73298047Y-54656032D01*
X73298048Y-54656032D01*
X73295508Y-54654400D01*
X73283101Y-54644401D01*
X73283059Y-54644458D01*
X73276617Y-54639515D01*
X73276613Y-54639511D01*
X73259933Y-54629881D01*
X73237115Y-54616706D01*
X73232075Y-54613634D01*
X73217572Y-54604313D01*
X73171818Y-54551508D01*
X73161877Y-54482349D01*
X73190903Y-54418794D01*
X73217569Y-54395687D01*
X73232103Y-54386346D01*
X73237086Y-54383309D01*
X73276613Y-54360489D01*
X73276618Y-54360483D01*
X73283068Y-54355536D01*
X73283111Y-54355593D01*
X73295525Y-54345588D01*
X73298049Y-54343967D01*
X73327054Y-54310491D01*
X73333060Y-54304040D01*
X73360489Y-54276613D01*
X73362708Y-54272767D01*
X73376391Y-54253553D01*
X73382882Y-54246063D01*
X73387204Y-54236598D01*
X73432953Y-54183795D01*
X73499991Y-54164106D01*
X73567031Y-54183786D01*
X73612790Y-54236587D01*
X73617118Y-54246063D01*
X73623612Y-54253558D01*
X73637291Y-54272767D01*
X73639510Y-54276612D01*
X73666920Y-54304022D01*
X73672952Y-54310500D01*
X73701951Y-54343967D01*
X73704485Y-54345595D01*
X73716897Y-54355598D01*
X73716941Y-54355542D01*
X73723381Y-54360483D01*
X73723387Y-54360489D01*
X73762871Y-54383285D01*
X73762878Y-54383289D01*
X73767918Y-54386361D01*
X73810930Y-54414004D01*
X73812226Y-54414595D01*
X73821171Y-54417751D01*
X73826107Y-54419795D01*
X73826114Y-54419799D01*
X73874940Y-54432881D01*
X73876778Y-54433374D01*
X73879580Y-54434160D01*
X73935228Y-54450500D01*
X74064772Y-54450500D01*
X74120426Y-54434157D01*
X74123243Y-54433368D01*
X74173886Y-54419799D01*
X74173892Y-54419795D01*
X74178821Y-54417754D01*
X74187768Y-54414597D01*
X74189062Y-54414005D01*
X74189069Y-54414004D01*
X74232114Y-54386339D01*
X74237086Y-54383309D01*
X74276613Y-54360489D01*
X74276618Y-54360483D01*
X74283068Y-54355536D01*
X74283111Y-54355593D01*
X74295525Y-54345588D01*
X74298049Y-54343967D01*
X74327054Y-54310491D01*
X74333060Y-54304040D01*
X74360489Y-54276613D01*
X74362708Y-54272767D01*
X74376391Y-54253553D01*
X74382882Y-54246063D01*
X74398428Y-54212018D01*
X74403822Y-54201555D01*
X74419799Y-54173886D01*
X74422734Y-54162931D01*
X74429715Y-54143513D01*
X74436697Y-54128226D01*
X74441046Y-54097976D01*
X74444007Y-54083537D01*
X74450500Y-54059309D01*
X74450500Y-54041092D01*
X74451762Y-54023445D01*
X74455133Y-53999999D01*
X74451762Y-53976552D01*
X74450500Y-53958906D01*
X74450500Y-53940692D01*
X74450498Y-53940683D01*
X74444004Y-53916451D01*
X74441044Y-53902013D01*
X74437103Y-53874597D01*
X74436697Y-53871774D01*
X74429713Y-53856481D01*
X74422734Y-53837069D01*
X74419799Y-53826114D01*
X74403826Y-53798450D01*
X74398427Y-53787975D01*
X74382884Y-53753941D01*
X74382883Y-53753940D01*
X74382882Y-53753937D01*
X74376385Y-53746439D01*
X74362709Y-53727233D01*
X74360488Y-53723386D01*
X74333062Y-53695960D01*
X74327046Y-53689498D01*
X74327034Y-53689484D01*
X74298049Y-53656033D01*
X74298047Y-53656032D01*
X74298048Y-53656032D01*
X74295508Y-53654400D01*
X74283101Y-53644401D01*
X74283059Y-53644458D01*
X74276617Y-53639515D01*
X74276613Y-53639511D01*
X74243187Y-53620212D01*
X74237115Y-53616706D01*
X74232075Y-53613634D01*
X74217572Y-53604313D01*
X74171818Y-53551508D01*
X74161877Y-53482349D01*
X74190903Y-53418794D01*
X74217569Y-53395687D01*
X74232103Y-53386346D01*
X74237086Y-53383309D01*
X74276613Y-53360489D01*
X74276618Y-53360483D01*
X74283068Y-53355536D01*
X74283111Y-53355593D01*
X74295525Y-53345588D01*
X74298049Y-53343967D01*
X74327054Y-53310491D01*
X74333060Y-53304040D01*
X74360489Y-53276613D01*
X74362708Y-53272767D01*
X74376391Y-53253553D01*
X74382882Y-53246063D01*
X74387204Y-53236598D01*
X74432953Y-53183795D01*
X74499991Y-53164106D01*
X74567031Y-53183786D01*
X74612790Y-53236587D01*
X74617118Y-53246063D01*
X74623612Y-53253558D01*
X74637291Y-53272767D01*
X74639510Y-53276612D01*
X74666920Y-53304022D01*
X74672952Y-53310500D01*
X74701951Y-53343967D01*
X74704485Y-53345595D01*
X74716897Y-53355598D01*
X74716941Y-53355542D01*
X74723381Y-53360483D01*
X74723387Y-53360489D01*
X74762871Y-53383285D01*
X74762878Y-53383289D01*
X74767918Y-53386361D01*
X74810930Y-53414004D01*
X74812226Y-53414595D01*
X74821171Y-53417751D01*
X74826107Y-53419795D01*
X74826114Y-53419799D01*
X74874940Y-53432881D01*
X74876778Y-53433374D01*
X74879580Y-53434160D01*
X74935228Y-53450500D01*
X75064772Y-53450500D01*
X75120426Y-53434157D01*
X75123243Y-53433368D01*
X75148402Y-53426627D01*
X75173886Y-53419799D01*
X75173892Y-53419795D01*
X75178821Y-53417754D01*
X75187768Y-53414597D01*
X75189062Y-53414005D01*
X75189069Y-53414004D01*
X75232114Y-53386339D01*
X75237086Y-53383309D01*
X75276613Y-53360489D01*
X75276618Y-53360483D01*
X75283068Y-53355536D01*
X75283111Y-53355593D01*
X75295525Y-53345588D01*
X75298049Y-53343967D01*
X75327054Y-53310491D01*
X75333060Y-53304040D01*
X75360489Y-53276613D01*
X75362708Y-53272767D01*
X75376391Y-53253553D01*
X75382882Y-53246063D01*
X75398428Y-53212018D01*
X75403822Y-53201555D01*
X75419799Y-53173886D01*
X75422734Y-53162931D01*
X75429715Y-53143513D01*
X75436697Y-53128226D01*
X75441046Y-53097976D01*
X75444007Y-53083537D01*
X75450500Y-53059309D01*
X75450500Y-53041092D01*
X75451762Y-53023445D01*
X75455133Y-52999999D01*
X75451762Y-52976552D01*
X75450500Y-52958906D01*
X75450500Y-52940692D01*
X75447648Y-52930049D01*
X75444004Y-52916451D01*
X75441044Y-52902013D01*
X75439491Y-52891210D01*
X75436697Y-52871774D01*
X75429713Y-52856481D01*
X75422734Y-52837069D01*
X75419799Y-52826114D01*
X75403826Y-52798450D01*
X75398427Y-52787975D01*
X75382884Y-52753941D01*
X75382882Y-52753938D01*
X75382882Y-52753937D01*
X75376385Y-52746439D01*
X75362709Y-52727233D01*
X75360489Y-52723387D01*
X75333062Y-52695960D01*
X75327046Y-52689498D01*
X75327034Y-52689484D01*
X75298049Y-52656033D01*
X75298047Y-52656032D01*
X75298048Y-52656032D01*
X75295508Y-52654400D01*
X75283101Y-52644401D01*
X75283059Y-52644458D01*
X75276617Y-52639515D01*
X75276613Y-52639511D01*
X75259933Y-52629881D01*
X75237115Y-52616706D01*
X75232078Y-52613636D01*
X75189068Y-52585995D01*
X75187773Y-52585404D01*
X75178845Y-52582254D01*
X75173887Y-52580200D01*
X75123195Y-52566617D01*
X75120358Y-52565821D01*
X75064772Y-52549500D01*
X74935228Y-52549500D01*
X74879584Y-52565837D01*
X74876747Y-52566633D01*
X74826112Y-52580201D01*
X74821148Y-52582257D01*
X74812223Y-52585405D01*
X74810932Y-52585995D01*
X74796632Y-52595185D01*
X74770749Y-52611819D01*
X74767923Y-52613635D01*
X74762887Y-52616704D01*
X74723388Y-52639509D01*
X74716942Y-52644456D01*
X74716900Y-52644401D01*
X74704501Y-52654392D01*
X74701956Y-52656027D01*
X74701951Y-52656032D01*
X74672965Y-52689484D01*
X74666936Y-52695960D01*
X74639511Y-52723386D01*
X74637283Y-52727245D01*
X74623618Y-52746435D01*
X74617116Y-52753938D01*
X74612790Y-52763411D01*
X74567031Y-52816212D01*
X74499990Y-52835892D01*
X74432952Y-52816203D01*
X74387205Y-52763403D01*
X74382882Y-52753937D01*
X74376385Y-52746439D01*
X74362709Y-52727233D01*
X74360489Y-52723387D01*
X74333062Y-52695960D01*
X74327046Y-52689498D01*
X74327034Y-52689484D01*
X74298049Y-52656033D01*
X74298047Y-52656032D01*
X74298048Y-52656032D01*
X74295508Y-52654400D01*
X74283101Y-52644401D01*
X74283059Y-52644458D01*
X74276617Y-52639515D01*
X74276613Y-52639511D01*
X74259933Y-52629881D01*
X74237115Y-52616706D01*
X74232078Y-52613636D01*
X74189068Y-52585995D01*
X74187773Y-52585404D01*
X74178845Y-52582254D01*
X74173887Y-52580200D01*
X74123195Y-52566617D01*
X74120358Y-52565821D01*
X74064772Y-52549500D01*
X73935228Y-52549500D01*
X73879584Y-52565837D01*
X73876747Y-52566633D01*
X73826112Y-52580201D01*
X73821148Y-52582257D01*
X73812223Y-52585405D01*
X73810932Y-52585995D01*
X73796632Y-52595185D01*
X73770749Y-52611819D01*
X73767923Y-52613635D01*
X73762887Y-52616704D01*
X73723388Y-52639509D01*
X73716942Y-52644456D01*
X73716900Y-52644401D01*
X73704501Y-52654392D01*
X73701956Y-52656027D01*
X73701951Y-52656032D01*
X73672965Y-52689484D01*
X73666936Y-52695960D01*
X73639511Y-52723386D01*
X73637283Y-52727245D01*
X73623618Y-52746435D01*
X73617117Y-52753937D01*
X73601574Y-52787971D01*
X73596169Y-52798454D01*
X73580202Y-52826110D01*
X73577265Y-52837069D01*
X73570290Y-52856472D01*
X73563299Y-52871781D01*
X73561674Y-52877316D01*
X73523894Y-52936090D01*
X73460335Y-52965108D01*
X73391177Y-52955157D01*
X73355020Y-52930049D01*
X71136819Y-50711848D01*
X71103334Y-50650525D01*
X71100500Y-50624167D01*
X71100500Y-49010439D01*
X71096648Y-48996062D01*
X71080021Y-48934011D01*
X71047814Y-48878226D01*
X71040464Y-48865495D01*
X71040458Y-48865487D01*
X70989381Y-48814410D01*
X70955896Y-48753087D01*
X70954324Y-48744375D01*
X70951596Y-48725403D01*
X70936697Y-48621774D01*
X70895247Y-48531012D01*
X70885303Y-48461853D01*
X70914328Y-48398298D01*
X70973106Y-48360523D01*
X71008041Y-48355500D01*
X71504219Y-48355500D01*
X71571258Y-48375185D01*
X71591900Y-48391819D01*
X77440541Y-54240460D01*
X77509064Y-54280022D01*
X77585490Y-54300500D01*
X78407658Y-54300500D01*
X78474697Y-54320185D01*
X78501368Y-54343294D01*
X78501951Y-54343967D01*
X78504485Y-54345595D01*
X78516897Y-54355598D01*
X78516941Y-54355542D01*
X78523381Y-54360483D01*
X78523387Y-54360489D01*
X78562871Y-54383285D01*
X78562878Y-54383289D01*
X78567918Y-54386361D01*
X78610930Y-54414004D01*
X78612226Y-54414595D01*
X78621171Y-54417751D01*
X78626107Y-54419795D01*
X78626114Y-54419799D01*
X78674940Y-54432881D01*
X78676778Y-54433374D01*
X78679580Y-54434160D01*
X78735228Y-54450500D01*
X78864772Y-54450500D01*
X78920426Y-54434157D01*
X78923243Y-54433368D01*
X78973886Y-54419799D01*
X78973892Y-54419795D01*
X78978821Y-54417754D01*
X78987768Y-54414597D01*
X78989062Y-54414005D01*
X78989069Y-54414004D01*
X79032114Y-54386339D01*
X79037086Y-54383309D01*
X79076613Y-54360489D01*
X79076618Y-54360483D01*
X79083068Y-54355536D01*
X79083111Y-54355593D01*
X79095525Y-54345588D01*
X79098049Y-54343967D01*
X79106284Y-54334463D01*
X79165061Y-54296686D01*
X79234930Y-54296684D01*
X79293709Y-54334455D01*
X79301951Y-54343967D01*
X79304485Y-54345595D01*
X79316897Y-54355598D01*
X79316941Y-54355542D01*
X79323381Y-54360483D01*
X79323387Y-54360489D01*
X79362871Y-54383285D01*
X79362878Y-54383289D01*
X79367918Y-54386361D01*
X79410930Y-54414004D01*
X79412226Y-54414595D01*
X79421171Y-54417751D01*
X79426107Y-54419795D01*
X79426114Y-54419799D01*
X79474940Y-54432881D01*
X79476778Y-54433374D01*
X79479580Y-54434160D01*
X79535228Y-54450500D01*
X79664772Y-54450500D01*
X79720426Y-54434157D01*
X79723243Y-54433368D01*
X79773886Y-54419799D01*
X79773892Y-54419795D01*
X79778821Y-54417754D01*
X79787768Y-54414597D01*
X79789062Y-54414005D01*
X79789069Y-54414004D01*
X79832114Y-54386339D01*
X79837086Y-54383309D01*
X79876613Y-54360489D01*
X79876618Y-54360483D01*
X79883068Y-54355536D01*
X79883111Y-54355593D01*
X79895525Y-54345588D01*
X79898049Y-54343967D01*
X79927054Y-54310491D01*
X79933060Y-54304040D01*
X79960489Y-54276613D01*
X79962708Y-54272767D01*
X79976391Y-54253553D01*
X79981795Y-54247316D01*
X80040577Y-54209548D01*
X80110447Y-54209555D01*
X80169221Y-54247335D01*
X80198240Y-54310894D01*
X80199500Y-54328529D01*
X80199500Y-56356399D01*
X80224596Y-56466350D01*
X80239211Y-56496698D01*
X80250563Y-56565639D01*
X80222841Y-56629774D01*
X80164846Y-56668740D01*
X80127491Y-56674500D01*
X75796463Y-56674500D01*
X75796417Y-56674504D01*
X75783193Y-56674504D01*
X75746944Y-56681714D01*
X75638194Y-56703344D01*
X75501615Y-56759915D01*
X75378691Y-56842048D01*
X75368722Y-56852017D01*
X69775064Y-62445674D01*
X69762869Y-62456369D01*
X69730597Y-62481132D01*
X69702561Y-62497318D01*
X69672550Y-62509748D01*
X69641284Y-62518125D01*
X69600917Y-62523439D01*
X69584733Y-62524500D01*
X57146463Y-62524500D01*
X57146417Y-62524504D01*
X57133193Y-62524504D01*
X57096944Y-62531714D01*
X56988194Y-62553344D01*
X56851615Y-62609915D01*
X56728691Y-62692048D01*
X56718722Y-62702017D01*
X55405635Y-64015103D01*
X55405617Y-64015112D01*
X55317043Y-64103689D01*
X55317038Y-64103696D01*
X55234910Y-64226614D01*
X55178339Y-64363194D01*
X55149499Y-64508193D01*
X55149500Y-64555831D01*
X55149500Y-64590244D01*
X55147973Y-64609642D01*
X55140361Y-64657702D01*
X55128372Y-64694600D01*
X55110766Y-64729153D01*
X55087963Y-64760538D01*
X55060538Y-64787963D01*
X55029153Y-64810766D01*
X54994600Y-64828372D01*
X54957702Y-64840361D01*
X54922884Y-64845875D01*
X54909640Y-64847973D01*
X54890244Y-64849500D01*
X45759756Y-64849500D01*
X45740359Y-64847973D01*
X45692297Y-64840361D01*
X45655400Y-64828372D01*
X45620845Y-64810765D01*
X45589461Y-64787963D01*
X45562036Y-64760538D01*
X45539235Y-64729156D01*
X45521625Y-64694595D01*
X45509639Y-64657706D01*
X45502025Y-64609631D01*
X45500500Y-64590244D01*
X45500500Y-62990227D01*
X45501561Y-62974043D01*
X45501925Y-62971275D01*
X45506870Y-62933710D01*
X45515244Y-62902454D01*
X45527681Y-62872426D01*
X45543856Y-62844408D01*
X45568612Y-62812144D01*
X45579286Y-62799973D01*
X48246067Y-60133192D01*
X60249499Y-60133192D01*
X60249500Y-60201850D01*
X60249500Y-61455830D01*
X60249500Y-61500000D01*
X60249500Y-61573918D01*
X60249500Y-61573920D01*
X60249499Y-61573920D01*
X60278340Y-61718907D01*
X60278343Y-61718917D01*
X60334912Y-61855488D01*
X60334919Y-61855501D01*
X60417048Y-61978415D01*
X60417051Y-61978419D01*
X60521580Y-62082948D01*
X60521584Y-62082951D01*
X60644498Y-62165080D01*
X60644511Y-62165087D01*
X60781082Y-62221656D01*
X60781087Y-62221658D01*
X60781091Y-62221658D01*
X60781092Y-62221659D01*
X60926079Y-62250500D01*
X60926082Y-62250500D01*
X65573920Y-62250500D01*
X65671462Y-62231096D01*
X65718913Y-62221658D01*
X65855495Y-62165084D01*
X65978416Y-62082951D01*
X66082951Y-61978416D01*
X66165084Y-61855495D01*
X66221658Y-61718913D01*
X66250500Y-61573918D01*
X66250500Y-61500000D01*
X66250500Y-61455830D01*
X66250500Y-61009755D01*
X66252025Y-60990369D01*
X66259639Y-60942291D01*
X66271624Y-60905406D01*
X66289237Y-60870840D01*
X66312033Y-60839464D01*
X66339464Y-60812033D01*
X66370840Y-60789237D01*
X66405406Y-60771624D01*
X66442291Y-60759639D01*
X66490368Y-60752025D01*
X66509756Y-60750500D01*
X67073920Y-60750500D01*
X67171462Y-60731096D01*
X67218913Y-60721658D01*
X67355495Y-60665084D01*
X67478416Y-60582951D01*
X67582951Y-60478416D01*
X67665084Y-60355495D01*
X67721658Y-60218913D01*
X67738709Y-60133193D01*
X67750500Y-60073920D01*
X67750500Y-55926079D01*
X67721659Y-55781092D01*
X67721658Y-55781091D01*
X67721658Y-55781087D01*
X67721656Y-55781082D01*
X67665087Y-55644511D01*
X67665080Y-55644498D01*
X67582951Y-55521584D01*
X67582948Y-55521580D01*
X67478419Y-55417051D01*
X67478415Y-55417048D01*
X67355501Y-55334919D01*
X67355488Y-55334912D01*
X67218917Y-55278343D01*
X67218907Y-55278340D01*
X67073920Y-55249500D01*
X67073918Y-55249500D01*
X67049828Y-55249500D01*
X61544170Y-55249500D01*
X61500000Y-55249500D01*
X61426082Y-55249500D01*
X61426080Y-55249500D01*
X61281092Y-55278340D01*
X61281082Y-55278343D01*
X61144511Y-55334912D01*
X61144498Y-55334919D01*
X61021584Y-55417048D01*
X61021580Y-55417051D01*
X60917051Y-55521580D01*
X60917048Y-55521584D01*
X60834919Y-55644498D01*
X60834912Y-55644511D01*
X60778343Y-55781082D01*
X60778340Y-55781092D01*
X60749500Y-55926079D01*
X60749500Y-59284772D01*
X60748439Y-59300959D01*
X60743129Y-59341289D01*
X60734753Y-59372550D01*
X60722323Y-59402562D01*
X60706135Y-59430601D01*
X60681393Y-59462845D01*
X60670705Y-59475033D01*
X60663519Y-59482220D01*
X60663513Y-59482226D01*
X60505633Y-59640104D01*
X60505615Y-59640114D01*
X60417043Y-59728689D01*
X60417038Y-59728696D01*
X60334910Y-59851614D01*
X60278339Y-59988194D01*
X60275991Y-60000000D01*
X60249499Y-60133192D01*
X48246067Y-60133192D01*
X50024942Y-58354317D01*
X50037124Y-58343633D01*
X50069407Y-58318863D01*
X50097434Y-58302683D01*
X50127449Y-58290250D01*
X50158710Y-58281874D01*
X50199090Y-58276559D01*
X50215267Y-58275500D01*
X53107147Y-58275500D01*
X53107181Y-58275495D01*
X53116807Y-58275496D01*
X53261803Y-58246656D01*
X53398386Y-58190084D01*
X53521307Y-58107952D01*
X53521310Y-58107949D01*
X53521315Y-58107945D01*
X53538343Y-58090917D01*
X53538344Y-58090917D01*
X56532012Y-55097246D01*
X56532019Y-55097242D01*
X56544365Y-55084897D01*
X56544382Y-55084887D01*
X56580690Y-55048578D01*
X56632957Y-54996309D01*
X56715089Y-54873387D01*
X56771661Y-54736803D01*
X56800501Y-54591808D01*
X56800500Y-54517889D01*
X56800500Y-54500000D01*
X56800500Y-46845221D01*
X60249459Y-46845221D01*
X60249476Y-46946159D01*
X60251829Y-46957960D01*
X60252034Y-46958634D01*
X60268727Y-47042478D01*
X60306469Y-47133558D01*
X60306472Y-47133561D01*
X60353871Y-47204476D01*
X60354373Y-47205415D01*
X60360876Y-47215145D01*
X60392240Y-47246502D01*
X60392255Y-47246516D01*
X60711348Y-47565609D01*
X60711400Y-47565670D01*
X60713157Y-47567426D01*
X60713611Y-47568258D01*
X60723950Y-47580357D01*
X60723974Y-47580390D01*
X60721302Y-47582333D01*
X60746659Y-47628739D01*
X60749500Y-47655131D01*
X60749500Y-48306399D01*
X60774596Y-48416350D01*
X60823532Y-48517966D01*
X60823533Y-48517969D01*
X60870413Y-48576753D01*
X60893854Y-48606146D01*
X60913451Y-48621774D01*
X60982030Y-48676466D01*
X60982033Y-48676467D01*
X61083649Y-48725403D01*
X61193600Y-48750499D01*
X61193605Y-48750499D01*
X61193607Y-48750500D01*
X61193609Y-48750500D01*
X66306391Y-48750500D01*
X66306393Y-48750500D01*
X66306395Y-48750499D01*
X66306399Y-48750499D01*
X66374362Y-48734986D01*
X66416351Y-48725403D01*
X66517967Y-48676467D01*
X66517967Y-48676466D01*
X66517969Y-48676466D01*
X66539896Y-48658978D01*
X66606146Y-48606146D01*
X66666064Y-48531012D01*
X66676466Y-48517969D01*
X66676467Y-48517966D01*
X66683224Y-48503937D01*
X66725403Y-48416351D01*
X66750500Y-48306393D01*
X66750500Y-48250000D01*
X66750500Y-48205830D01*
X66750500Y-45655131D01*
X66770185Y-45588092D01*
X66775191Y-45581880D01*
X66775245Y-45581803D01*
X66775508Y-45581486D01*
X66786836Y-45567433D01*
X66789209Y-45565060D01*
X66789541Y-45564662D01*
X66796936Y-45557267D01*
X66862808Y-45443148D01*
X66896903Y-45315869D01*
X66896900Y-45184103D01*
X66862797Y-45056826D01*
X66796919Y-44942711D01*
X66703754Y-44849530D01*
X66589648Y-44783634D01*
X66589647Y-44783633D01*
X66589646Y-44783633D01*
X66589645Y-44783632D01*
X66462381Y-44749512D01*
X66462380Y-44749511D01*
X66462377Y-44749511D01*
X66462348Y-44749510D01*
X66458130Y-44749510D01*
X66458021Y-44749500D01*
X66446275Y-44749500D01*
X66396494Y-44749500D01*
X66396295Y-44749499D01*
X66341558Y-44749490D01*
X66341444Y-44749500D01*
X60693600Y-44749500D01*
X60583649Y-44774596D01*
X60482033Y-44823532D01*
X60482030Y-44823533D01*
X60393854Y-44893854D01*
X60323533Y-44982030D01*
X60323532Y-44982033D01*
X60274596Y-45083649D01*
X60249500Y-45193600D01*
X60249500Y-46841444D01*
X60249490Y-46841558D01*
X60249490Y-46845116D01*
X60249459Y-46845221D01*
X56800500Y-46845221D01*
X56800500Y-45440227D01*
X56801561Y-45424043D01*
X56806870Y-45383713D01*
X56815244Y-45352454D01*
X56827681Y-45322426D01*
X56843856Y-45294408D01*
X56868612Y-45262144D01*
X56879286Y-45249973D01*
X57874942Y-44254317D01*
X57887124Y-44243633D01*
X57919407Y-44218863D01*
X57947434Y-44202683D01*
X57977449Y-44190250D01*
X58008710Y-44181874D01*
X58049090Y-44176559D01*
X58065267Y-44175500D01*
X58101273Y-44175500D01*
X69598727Y-44175500D01*
X69634773Y-44175500D01*
X69650956Y-44176560D01*
G37*
%TD.AperFunction*%
%TD*%
%TA.AperFunction,NonConductor*%
G36*
X77966206Y-52595185D02*
G01*
X77986848Y-52611819D01*
X78733781Y-53358752D01*
X78767266Y-53420075D01*
X78762282Y-53489767D01*
X78720410Y-53545700D01*
X78681098Y-53565392D01*
X78679650Y-53565818D01*
X78676747Y-53566633D01*
X78626112Y-53580201D01*
X78621148Y-53582257D01*
X78612223Y-53585405D01*
X78610932Y-53585995D01*
X78585658Y-53602237D01*
X78567925Y-53613634D01*
X78567923Y-53613635D01*
X78562887Y-53616704D01*
X78523388Y-53639509D01*
X78516942Y-53644456D01*
X78516900Y-53644401D01*
X78504501Y-53654392D01*
X78501956Y-53656027D01*
X78501950Y-53656033D01*
X78501369Y-53656704D01*
X78500622Y-53657183D01*
X78495249Y-53661840D01*
X78494579Y-53661067D01*
X78442591Y-53694477D01*
X78407657Y-53699500D01*
X77800885Y-53699500D01*
X77733846Y-53679815D01*
X77713204Y-53663181D01*
X76837204Y-52787181D01*
X76803719Y-52725858D01*
X76808703Y-52656166D01*
X76850575Y-52600233D01*
X76916039Y-52575816D01*
X76924885Y-52575500D01*
X77899167Y-52575500D01*
X77966206Y-52595185D01*
G37*
%TD.AperFunction*%
M02*
