%TF.GenerationSoftware,KiCad,Pcbnew,8.99.0-unknown-3024a7c569~178~ubuntu22.04.1*%
%TF.CreationDate,2024-05-13T18:01:12+10:00*%
%TF.ProjectId,MXBreakout,4d584272-6561-46b6-9f75-742e6b696361,rev?*%
%TF.SameCoordinates,Original*%
%TF.FileFunction,Legend,Top*%
%TF.FilePolarity,Positive*%
%FSLAX46Y46*%
G04 Gerber Fmt 4.6, Leading zero omitted, Abs format (unit mm)*
G04 Created by KiCad (PCBNEW 8.99.0-unknown-3024a7c569~178~ubuntu22.04.1) date 2024-05-13 18:01:12*
%MOMM*%
%LPD*%
G01*
G04 APERTURE LIST*
%ADD10C,0.150000*%
%ADD11C,0.100000*%
%ADD12C,0.050000*%
%ADD13C,0.075000*%
%ADD14C,0.120000*%
%ADD15C,0.025000*%
G04 APERTURE END LIST*
D10*
X66800000Y-61225000D02*
G75*
G02*
X66400000Y-61225000I-200000J0D01*
G01*
X66400000Y-61225000D02*
G75*
G02*
X66800000Y-61225000I200000J0D01*
G01*
D11*
X54642857Y-57484621D02*
X54642857Y-57841764D01*
X54392857Y-57091764D02*
X54642857Y-57484621D01*
X54642857Y-57484621D02*
X54892857Y-57091764D01*
X55535714Y-57841764D02*
X55107143Y-57841764D01*
X55321428Y-57841764D02*
X55321428Y-57091764D01*
X55321428Y-57091764D02*
X55250000Y-57198907D01*
X55250000Y-57198907D02*
X55178571Y-57270335D01*
X55178571Y-57270335D02*
X55107143Y-57306050D01*
X51852499Y-64536764D02*
X51602499Y-64179621D01*
X51423928Y-64536764D02*
X51423928Y-63786764D01*
X51423928Y-63786764D02*
X51709642Y-63786764D01*
X51709642Y-63786764D02*
X51781071Y-63822478D01*
X51781071Y-63822478D02*
X51816785Y-63858192D01*
X51816785Y-63858192D02*
X51852499Y-63929621D01*
X51852499Y-63929621D02*
X51852499Y-64036764D01*
X51852499Y-64036764D02*
X51816785Y-64108192D01*
X51816785Y-64108192D02*
X51781071Y-64143907D01*
X51781071Y-64143907D02*
X51709642Y-64179621D01*
X51709642Y-64179621D02*
X51423928Y-64179621D01*
X52566785Y-64536764D02*
X52138214Y-64536764D01*
X52352499Y-64536764D02*
X52352499Y-63786764D01*
X52352499Y-63786764D02*
X52281071Y-63893907D01*
X52281071Y-63893907D02*
X52209642Y-63965335D01*
X52209642Y-63965335D02*
X52138214Y-64001050D01*
D12*
X53681090Y-61083333D02*
X53704900Y-61107142D01*
X53704900Y-61107142D02*
X53728709Y-61178571D01*
X53728709Y-61178571D02*
X53728709Y-61226190D01*
X53728709Y-61226190D02*
X53704900Y-61297618D01*
X53704900Y-61297618D02*
X53657280Y-61345237D01*
X53657280Y-61345237D02*
X53609661Y-61369047D01*
X53609661Y-61369047D02*
X53514423Y-61392856D01*
X53514423Y-61392856D02*
X53442995Y-61392856D01*
X53442995Y-61392856D02*
X53347757Y-61369047D01*
X53347757Y-61369047D02*
X53300138Y-61345237D01*
X53300138Y-61345237D02*
X53252519Y-61297618D01*
X53252519Y-61297618D02*
X53228709Y-61226190D01*
X53228709Y-61226190D02*
X53228709Y-61178571D01*
X53228709Y-61178571D02*
X53252519Y-61107142D01*
X53252519Y-61107142D02*
X53276328Y-61083333D01*
X53276328Y-60892856D02*
X53252519Y-60869047D01*
X53252519Y-60869047D02*
X53228709Y-60821428D01*
X53228709Y-60821428D02*
X53228709Y-60702380D01*
X53228709Y-60702380D02*
X53252519Y-60654761D01*
X53252519Y-60654761D02*
X53276328Y-60630952D01*
X53276328Y-60630952D02*
X53323947Y-60607142D01*
X53323947Y-60607142D02*
X53371566Y-60607142D01*
X53371566Y-60607142D02*
X53442995Y-60630952D01*
X53442995Y-60630952D02*
X53728709Y-60916666D01*
X53728709Y-60916666D02*
X53728709Y-60607142D01*
D11*
X47648907Y-63839285D02*
X47684621Y-63732142D01*
X47684621Y-63732142D02*
X47720335Y-63696428D01*
X47720335Y-63696428D02*
X47791764Y-63660714D01*
X47791764Y-63660714D02*
X47898907Y-63660714D01*
X47898907Y-63660714D02*
X47970335Y-63696428D01*
X47970335Y-63696428D02*
X48006050Y-63732142D01*
X48006050Y-63732142D02*
X48041764Y-63803571D01*
X48041764Y-63803571D02*
X48041764Y-64089285D01*
X48041764Y-64089285D02*
X47291764Y-64089285D01*
X47291764Y-64089285D02*
X47291764Y-63839285D01*
X47291764Y-63839285D02*
X47327478Y-63767857D01*
X47327478Y-63767857D02*
X47363192Y-63732142D01*
X47363192Y-63732142D02*
X47434621Y-63696428D01*
X47434621Y-63696428D02*
X47506050Y-63696428D01*
X47506050Y-63696428D02*
X47577478Y-63732142D01*
X47577478Y-63732142D02*
X47613192Y-63767857D01*
X47613192Y-63767857D02*
X47648907Y-63839285D01*
X47648907Y-63839285D02*
X47648907Y-64089285D01*
X47827478Y-63374999D02*
X47827478Y-63017857D01*
X48041764Y-63446428D02*
X47291764Y-63196428D01*
X47291764Y-63196428D02*
X48041764Y-62946428D01*
X47291764Y-62803571D02*
X47291764Y-62375000D01*
X48041764Y-62589285D02*
X47291764Y-62589285D01*
X47291764Y-62232142D02*
X47291764Y-61803571D01*
X48041764Y-62017856D02*
X47291764Y-62017856D01*
D13*
X75380952Y-55127409D02*
X75380952Y-55532171D01*
X75380952Y-55532171D02*
X75404762Y-55579790D01*
X75404762Y-55579790D02*
X75428571Y-55603600D01*
X75428571Y-55603600D02*
X75476190Y-55627409D01*
X75476190Y-55627409D02*
X75571428Y-55627409D01*
X75571428Y-55627409D02*
X75619047Y-55603600D01*
X75619047Y-55603600D02*
X75642857Y-55579790D01*
X75642857Y-55579790D02*
X75666666Y-55532171D01*
X75666666Y-55532171D02*
X75666666Y-55127409D01*
X76166667Y-55627409D02*
X75880953Y-55627409D01*
X76023810Y-55627409D02*
X76023810Y-55127409D01*
X76023810Y-55127409D02*
X75976191Y-55198838D01*
X75976191Y-55198838D02*
X75928572Y-55246457D01*
X75928572Y-55246457D02*
X75880953Y-55270266D01*
X76476190Y-55127409D02*
X76523809Y-55127409D01*
X76523809Y-55127409D02*
X76571428Y-55151219D01*
X76571428Y-55151219D02*
X76595238Y-55175028D01*
X76595238Y-55175028D02*
X76619047Y-55222647D01*
X76619047Y-55222647D02*
X76642857Y-55317885D01*
X76642857Y-55317885D02*
X76642857Y-55436933D01*
X76642857Y-55436933D02*
X76619047Y-55532171D01*
X76619047Y-55532171D02*
X76595238Y-55579790D01*
X76595238Y-55579790D02*
X76571428Y-55603600D01*
X76571428Y-55603600D02*
X76523809Y-55627409D01*
X76523809Y-55627409D02*
X76476190Y-55627409D01*
X76476190Y-55627409D02*
X76428571Y-55603600D01*
X76428571Y-55603600D02*
X76404762Y-55579790D01*
X76404762Y-55579790D02*
X76380952Y-55532171D01*
X76380952Y-55532171D02*
X76357143Y-55436933D01*
X76357143Y-55436933D02*
X76357143Y-55317885D01*
X76357143Y-55317885D02*
X76380952Y-55222647D01*
X76380952Y-55222647D02*
X76404762Y-55175028D01*
X76404762Y-55175028D02*
X76428571Y-55151219D01*
X76428571Y-55151219D02*
X76476190Y-55127409D01*
X70083333Y-52603600D02*
X70154761Y-52627409D01*
X70154761Y-52627409D02*
X70273809Y-52627409D01*
X70273809Y-52627409D02*
X70321428Y-52603600D01*
X70321428Y-52603600D02*
X70345237Y-52579790D01*
X70345237Y-52579790D02*
X70369047Y-52532171D01*
X70369047Y-52532171D02*
X70369047Y-52484552D01*
X70369047Y-52484552D02*
X70345237Y-52436933D01*
X70345237Y-52436933D02*
X70321428Y-52413123D01*
X70321428Y-52413123D02*
X70273809Y-52389314D01*
X70273809Y-52389314D02*
X70178571Y-52365504D01*
X70178571Y-52365504D02*
X70130952Y-52341695D01*
X70130952Y-52341695D02*
X70107142Y-52317885D01*
X70107142Y-52317885D02*
X70083333Y-52270266D01*
X70083333Y-52270266D02*
X70083333Y-52222647D01*
X70083333Y-52222647D02*
X70107142Y-52175028D01*
X70107142Y-52175028D02*
X70130952Y-52151219D01*
X70130952Y-52151219D02*
X70178571Y-52127409D01*
X70178571Y-52127409D02*
X70297618Y-52127409D01*
X70297618Y-52127409D02*
X70369047Y-52151219D01*
X70583332Y-52627409D02*
X70583332Y-52127409D01*
X70583332Y-52365504D02*
X70869046Y-52365504D01*
X70869046Y-52627409D02*
X70869046Y-52127409D01*
X71107142Y-52127409D02*
X71107142Y-52532171D01*
X71107142Y-52532171D02*
X71130952Y-52579790D01*
X71130952Y-52579790D02*
X71154761Y-52603600D01*
X71154761Y-52603600D02*
X71202380Y-52627409D01*
X71202380Y-52627409D02*
X71297618Y-52627409D01*
X71297618Y-52627409D02*
X71345237Y-52603600D01*
X71345237Y-52603600D02*
X71369047Y-52579790D01*
X71369047Y-52579790D02*
X71392856Y-52532171D01*
X71392856Y-52532171D02*
X71392856Y-52127409D01*
X71559524Y-52127409D02*
X71845238Y-52127409D01*
X71702381Y-52627409D02*
X71702381Y-52127409D01*
X72011904Y-52627409D02*
X72011904Y-52127409D01*
X72011904Y-52127409D02*
X72130952Y-52127409D01*
X72130952Y-52127409D02*
X72202380Y-52151219D01*
X72202380Y-52151219D02*
X72249999Y-52198838D01*
X72249999Y-52198838D02*
X72273809Y-52246457D01*
X72273809Y-52246457D02*
X72297618Y-52341695D01*
X72297618Y-52341695D02*
X72297618Y-52413123D01*
X72297618Y-52413123D02*
X72273809Y-52508361D01*
X72273809Y-52508361D02*
X72249999Y-52555980D01*
X72249999Y-52555980D02*
X72202380Y-52603600D01*
X72202380Y-52603600D02*
X72130952Y-52627409D01*
X72130952Y-52627409D02*
X72011904Y-52627409D01*
X72607142Y-52127409D02*
X72702380Y-52127409D01*
X72702380Y-52127409D02*
X72749999Y-52151219D01*
X72749999Y-52151219D02*
X72797618Y-52198838D01*
X72797618Y-52198838D02*
X72821428Y-52294076D01*
X72821428Y-52294076D02*
X72821428Y-52460742D01*
X72821428Y-52460742D02*
X72797618Y-52555980D01*
X72797618Y-52555980D02*
X72749999Y-52603600D01*
X72749999Y-52603600D02*
X72702380Y-52627409D01*
X72702380Y-52627409D02*
X72607142Y-52627409D01*
X72607142Y-52627409D02*
X72559523Y-52603600D01*
X72559523Y-52603600D02*
X72511904Y-52555980D01*
X72511904Y-52555980D02*
X72488095Y-52460742D01*
X72488095Y-52460742D02*
X72488095Y-52294076D01*
X72488095Y-52294076D02*
X72511904Y-52198838D01*
X72511904Y-52198838D02*
X72559523Y-52151219D01*
X72559523Y-52151219D02*
X72607142Y-52127409D01*
X72988095Y-52127409D02*
X73107143Y-52627409D01*
X73107143Y-52627409D02*
X73202381Y-52270266D01*
X73202381Y-52270266D02*
X73297619Y-52627409D01*
X73297619Y-52627409D02*
X73416667Y-52127409D01*
X73607143Y-52627409D02*
X73607143Y-52127409D01*
X73607143Y-52127409D02*
X73892857Y-52627409D01*
X73892857Y-52627409D02*
X73892857Y-52127409D01*
D11*
X71168597Y-47644062D02*
X71454807Y-47930272D01*
X71454807Y-47930272D02*
X71505315Y-47947108D01*
X71505315Y-47947108D02*
X71538986Y-47947108D01*
X71538986Y-47947108D02*
X71589494Y-47930272D01*
X71589494Y-47930272D02*
X71656837Y-47862929D01*
X71656837Y-47862929D02*
X71673673Y-47812421D01*
X71673673Y-47812421D02*
X71673673Y-47778749D01*
X71673673Y-47778749D02*
X71656837Y-47728242D01*
X71656837Y-47728242D02*
X71370628Y-47442032D01*
X72077735Y-47442031D02*
X71875704Y-47644062D01*
X71976719Y-47543047D02*
X71623166Y-47189493D01*
X71623166Y-47189493D02*
X71640002Y-47273673D01*
X71640002Y-47273673D02*
X71640002Y-47341016D01*
X71640002Y-47341016D02*
X71623166Y-47391524D01*
X71943047Y-46869612D02*
X71976719Y-46835940D01*
X71976719Y-46835940D02*
X72027227Y-46819104D01*
X72027227Y-46819104D02*
X72060899Y-46819104D01*
X72060899Y-46819104D02*
X72111406Y-46835940D01*
X72111406Y-46835940D02*
X72195586Y-46886448D01*
X72195586Y-46886448D02*
X72279765Y-46970627D01*
X72279765Y-46970627D02*
X72330273Y-47054807D01*
X72330273Y-47054807D02*
X72347108Y-47105314D01*
X72347108Y-47105314D02*
X72347108Y-47138986D01*
X72347108Y-47138986D02*
X72330273Y-47189494D01*
X72330273Y-47189494D02*
X72296601Y-47223165D01*
X72296601Y-47223165D02*
X72246093Y-47240001D01*
X72246093Y-47240001D02*
X72212421Y-47240001D01*
X72212421Y-47240001D02*
X72161914Y-47223165D01*
X72161914Y-47223165D02*
X72077734Y-47172658D01*
X72077734Y-47172658D02*
X71993555Y-47088478D01*
X71993555Y-47088478D02*
X71943047Y-47004299D01*
X71943047Y-47004299D02*
X71926211Y-46953791D01*
X71926211Y-46953791D02*
X71926211Y-46920120D01*
X71926211Y-46920120D02*
X71943047Y-46869612D01*
D12*
X56681090Y-61083333D02*
X56704900Y-61107142D01*
X56704900Y-61107142D02*
X56728709Y-61178571D01*
X56728709Y-61178571D02*
X56728709Y-61226190D01*
X56728709Y-61226190D02*
X56704900Y-61297618D01*
X56704900Y-61297618D02*
X56657280Y-61345237D01*
X56657280Y-61345237D02*
X56609661Y-61369047D01*
X56609661Y-61369047D02*
X56514423Y-61392856D01*
X56514423Y-61392856D02*
X56442995Y-61392856D01*
X56442995Y-61392856D02*
X56347757Y-61369047D01*
X56347757Y-61369047D02*
X56300138Y-61345237D01*
X56300138Y-61345237D02*
X56252519Y-61297618D01*
X56252519Y-61297618D02*
X56228709Y-61226190D01*
X56228709Y-61226190D02*
X56228709Y-61178571D01*
X56228709Y-61178571D02*
X56252519Y-61107142D01*
X56252519Y-61107142D02*
X56276328Y-61083333D01*
X56728709Y-60607142D02*
X56728709Y-60892856D01*
X56728709Y-60749999D02*
X56228709Y-60749999D01*
X56228709Y-60749999D02*
X56300138Y-60797618D01*
X56300138Y-60797618D02*
X56347757Y-60845237D01*
X56347757Y-60845237D02*
X56371566Y-60892856D01*
D11*
X53946428Y-64771764D02*
X53946428Y-64021764D01*
X53946428Y-64021764D02*
X54124999Y-64021764D01*
X54124999Y-64021764D02*
X54232142Y-64057478D01*
X54232142Y-64057478D02*
X54303571Y-64128907D01*
X54303571Y-64128907D02*
X54339285Y-64200335D01*
X54339285Y-64200335D02*
X54374999Y-64343192D01*
X54374999Y-64343192D02*
X54374999Y-64450335D01*
X54374999Y-64450335D02*
X54339285Y-64593192D01*
X54339285Y-64593192D02*
X54303571Y-64664621D01*
X54303571Y-64664621D02*
X54232142Y-64736050D01*
X54232142Y-64736050D02*
X54124999Y-64771764D01*
X54124999Y-64771764D02*
X53946428Y-64771764D01*
X55089285Y-64771764D02*
X54660714Y-64771764D01*
X54874999Y-64771764D02*
X54874999Y-64021764D01*
X54874999Y-64021764D02*
X54803571Y-64128907D01*
X54803571Y-64128907D02*
X54732142Y-64200335D01*
X54732142Y-64200335D02*
X54660714Y-64236050D01*
D13*
X80445237Y-52627409D02*
X80445237Y-52127409D01*
X80445237Y-52127409D02*
X80635713Y-52127409D01*
X80635713Y-52127409D02*
X80683332Y-52151219D01*
X80683332Y-52151219D02*
X80707142Y-52175028D01*
X80707142Y-52175028D02*
X80730951Y-52222647D01*
X80730951Y-52222647D02*
X80730951Y-52294076D01*
X80730951Y-52294076D02*
X80707142Y-52341695D01*
X80707142Y-52341695D02*
X80683332Y-52365504D01*
X80683332Y-52365504D02*
X80635713Y-52389314D01*
X80635713Y-52389314D02*
X80445237Y-52389314D01*
X81040475Y-52127409D02*
X81135713Y-52127409D01*
X81135713Y-52127409D02*
X81183332Y-52151219D01*
X81183332Y-52151219D02*
X81230951Y-52198838D01*
X81230951Y-52198838D02*
X81254761Y-52294076D01*
X81254761Y-52294076D02*
X81254761Y-52460742D01*
X81254761Y-52460742D02*
X81230951Y-52555980D01*
X81230951Y-52555980D02*
X81183332Y-52603600D01*
X81183332Y-52603600D02*
X81135713Y-52627409D01*
X81135713Y-52627409D02*
X81040475Y-52627409D01*
X81040475Y-52627409D02*
X80992856Y-52603600D01*
X80992856Y-52603600D02*
X80945237Y-52555980D01*
X80945237Y-52555980D02*
X80921428Y-52460742D01*
X80921428Y-52460742D02*
X80921428Y-52294076D01*
X80921428Y-52294076D02*
X80945237Y-52198838D01*
X80945237Y-52198838D02*
X80992856Y-52151219D01*
X80992856Y-52151219D02*
X81040475Y-52127409D01*
X81421428Y-52127409D02*
X81540476Y-52627409D01*
X81540476Y-52627409D02*
X81635714Y-52270266D01*
X81635714Y-52270266D02*
X81730952Y-52627409D01*
X81730952Y-52627409D02*
X81850000Y-52127409D01*
X82040476Y-52365504D02*
X82207143Y-52365504D01*
X82278571Y-52627409D02*
X82040476Y-52627409D01*
X82040476Y-52627409D02*
X82040476Y-52127409D01*
X82040476Y-52127409D02*
X82278571Y-52127409D01*
X82778571Y-52627409D02*
X82611905Y-52389314D01*
X82492857Y-52627409D02*
X82492857Y-52127409D01*
X82492857Y-52127409D02*
X82683333Y-52127409D01*
X82683333Y-52127409D02*
X82730952Y-52151219D01*
X82730952Y-52151219D02*
X82754762Y-52175028D01*
X82754762Y-52175028D02*
X82778571Y-52222647D01*
X82778571Y-52222647D02*
X82778571Y-52294076D01*
X82778571Y-52294076D02*
X82754762Y-52341695D01*
X82754762Y-52341695D02*
X82730952Y-52365504D01*
X82730952Y-52365504D02*
X82683333Y-52389314D01*
X82683333Y-52389314D02*
X82492857Y-52389314D01*
X76273809Y-53627409D02*
X76107143Y-53389314D01*
X75988095Y-53627409D02*
X75988095Y-53127409D01*
X75988095Y-53127409D02*
X76178571Y-53127409D01*
X76178571Y-53127409D02*
X76226190Y-53151219D01*
X76226190Y-53151219D02*
X76250000Y-53175028D01*
X76250000Y-53175028D02*
X76273809Y-53222647D01*
X76273809Y-53222647D02*
X76273809Y-53294076D01*
X76273809Y-53294076D02*
X76250000Y-53341695D01*
X76250000Y-53341695D02*
X76226190Y-53365504D01*
X76226190Y-53365504D02*
X76178571Y-53389314D01*
X76178571Y-53389314D02*
X75988095Y-53389314D01*
X76488095Y-53365504D02*
X76654762Y-53365504D01*
X76726190Y-53627409D02*
X76488095Y-53627409D01*
X76488095Y-53627409D02*
X76488095Y-53127409D01*
X76488095Y-53127409D02*
X76726190Y-53127409D01*
X76916667Y-53603600D02*
X76988095Y-53627409D01*
X76988095Y-53627409D02*
X77107143Y-53627409D01*
X77107143Y-53627409D02*
X77154762Y-53603600D01*
X77154762Y-53603600D02*
X77178571Y-53579790D01*
X77178571Y-53579790D02*
X77202381Y-53532171D01*
X77202381Y-53532171D02*
X77202381Y-53484552D01*
X77202381Y-53484552D02*
X77178571Y-53436933D01*
X77178571Y-53436933D02*
X77154762Y-53413123D01*
X77154762Y-53413123D02*
X77107143Y-53389314D01*
X77107143Y-53389314D02*
X77011905Y-53365504D01*
X77011905Y-53365504D02*
X76964286Y-53341695D01*
X76964286Y-53341695D02*
X76940476Y-53317885D01*
X76940476Y-53317885D02*
X76916667Y-53270266D01*
X76916667Y-53270266D02*
X76916667Y-53222647D01*
X76916667Y-53222647D02*
X76940476Y-53175028D01*
X76940476Y-53175028D02*
X76964286Y-53151219D01*
X76964286Y-53151219D02*
X77011905Y-53127409D01*
X77011905Y-53127409D02*
X77130952Y-53127409D01*
X77130952Y-53127409D02*
X77202381Y-53151219D01*
X77416666Y-53365504D02*
X77583333Y-53365504D01*
X77654761Y-53627409D02*
X77416666Y-53627409D01*
X77416666Y-53627409D02*
X77416666Y-53127409D01*
X77416666Y-53127409D02*
X77654761Y-53127409D01*
X77797619Y-53127409D02*
X78083333Y-53127409D01*
X77940476Y-53627409D02*
X77940476Y-53127409D01*
D10*
X70389164Y-60946428D02*
X70996307Y-60946428D01*
X70996307Y-60946428D02*
X71067735Y-60910714D01*
X71067735Y-60910714D02*
X71103450Y-60875000D01*
X71103450Y-60875000D02*
X71139164Y-60803571D01*
X71139164Y-60803571D02*
X71139164Y-60660714D01*
X71139164Y-60660714D02*
X71103450Y-60589285D01*
X71103450Y-60589285D02*
X71067735Y-60553571D01*
X71067735Y-60553571D02*
X70996307Y-60517857D01*
X70996307Y-60517857D02*
X70389164Y-60517857D01*
X71139164Y-59767857D02*
X71139164Y-60196428D01*
X71139164Y-59982143D02*
X70389164Y-59982143D01*
X70389164Y-59982143D02*
X70496307Y-60053571D01*
X70496307Y-60053571D02*
X70567735Y-60125000D01*
X70567735Y-60125000D02*
X70603450Y-60196428D01*
D13*
X70392857Y-56765504D02*
X70559524Y-56765504D01*
X70630952Y-57027409D02*
X70392857Y-57027409D01*
X70392857Y-57027409D02*
X70392857Y-56527409D01*
X70392857Y-56527409D02*
X70630952Y-56527409D01*
X70797619Y-56527409D02*
X71130952Y-57027409D01*
X71130952Y-56527409D02*
X70797619Y-57027409D01*
X71321428Y-57027409D02*
X71321428Y-56527409D01*
X71440476Y-57075028D02*
X71821428Y-57075028D01*
X72226189Y-56979790D02*
X72202380Y-57003600D01*
X72202380Y-57003600D02*
X72130951Y-57027409D01*
X72130951Y-57027409D02*
X72083332Y-57027409D01*
X72083332Y-57027409D02*
X72011904Y-57003600D01*
X72011904Y-57003600D02*
X71964285Y-56955980D01*
X71964285Y-56955980D02*
X71940475Y-56908361D01*
X71940475Y-56908361D02*
X71916666Y-56813123D01*
X71916666Y-56813123D02*
X71916666Y-56741695D01*
X71916666Y-56741695D02*
X71940475Y-56646457D01*
X71940475Y-56646457D02*
X71964285Y-56598838D01*
X71964285Y-56598838D02*
X72011904Y-56551219D01*
X72011904Y-56551219D02*
X72083332Y-56527409D01*
X72083332Y-56527409D02*
X72130951Y-56527409D01*
X72130951Y-56527409D02*
X72202380Y-56551219D01*
X72202380Y-56551219D02*
X72226189Y-56575028D01*
X72678570Y-57027409D02*
X72440475Y-57027409D01*
X72440475Y-57027409D02*
X72440475Y-56527409D01*
X72845237Y-57027409D02*
X72845237Y-56527409D01*
X73130951Y-57027409D02*
X72916666Y-56741695D01*
X73130951Y-56527409D02*
X72845237Y-56813123D01*
D11*
X84020335Y-53645000D02*
X84056050Y-53680714D01*
X84056050Y-53680714D02*
X84091764Y-53787857D01*
X84091764Y-53787857D02*
X84091764Y-53859285D01*
X84091764Y-53859285D02*
X84056050Y-53966428D01*
X84056050Y-53966428D02*
X83984621Y-54037857D01*
X83984621Y-54037857D02*
X83913192Y-54073571D01*
X83913192Y-54073571D02*
X83770335Y-54109285D01*
X83770335Y-54109285D02*
X83663192Y-54109285D01*
X83663192Y-54109285D02*
X83520335Y-54073571D01*
X83520335Y-54073571D02*
X83448907Y-54037857D01*
X83448907Y-54037857D02*
X83377478Y-53966428D01*
X83377478Y-53966428D02*
X83341764Y-53859285D01*
X83341764Y-53859285D02*
X83341764Y-53787857D01*
X83341764Y-53787857D02*
X83377478Y-53680714D01*
X83377478Y-53680714D02*
X83413192Y-53645000D01*
X83341764Y-53395000D02*
X83341764Y-52930714D01*
X83341764Y-52930714D02*
X83627478Y-53180714D01*
X83627478Y-53180714D02*
X83627478Y-53073571D01*
X83627478Y-53073571D02*
X83663192Y-53002143D01*
X83663192Y-53002143D02*
X83698907Y-52966428D01*
X83698907Y-52966428D02*
X83770335Y-52930714D01*
X83770335Y-52930714D02*
X83948907Y-52930714D01*
X83948907Y-52930714D02*
X84020335Y-52966428D01*
X84020335Y-52966428D02*
X84056050Y-53002143D01*
X84056050Y-53002143D02*
X84091764Y-53073571D01*
X84091764Y-53073571D02*
X84091764Y-53287857D01*
X84091764Y-53287857D02*
X84056050Y-53359285D01*
X84056050Y-53359285D02*
X84020335Y-53395000D01*
D13*
X73095238Y-55765504D02*
X73261905Y-55765504D01*
X73333333Y-56027409D02*
X73095238Y-56027409D01*
X73095238Y-56027409D02*
X73095238Y-55527409D01*
X73095238Y-55527409D02*
X73333333Y-55527409D01*
X73500000Y-55527409D02*
X73833333Y-56027409D01*
X73833333Y-55527409D02*
X73500000Y-56027409D01*
X74023809Y-56027409D02*
X74023809Y-55527409D01*
X74142857Y-56075028D02*
X74523809Y-56075028D01*
X74642856Y-56027409D02*
X74642856Y-55527409D01*
X74642856Y-55527409D02*
X74761904Y-55527409D01*
X74761904Y-55527409D02*
X74833332Y-55551219D01*
X74833332Y-55551219D02*
X74880951Y-55598838D01*
X74880951Y-55598838D02*
X74904761Y-55646457D01*
X74904761Y-55646457D02*
X74928570Y-55741695D01*
X74928570Y-55741695D02*
X74928570Y-55813123D01*
X74928570Y-55813123D02*
X74904761Y-55908361D01*
X74904761Y-55908361D02*
X74880951Y-55955980D01*
X74880951Y-55955980D02*
X74833332Y-56003600D01*
X74833332Y-56003600D02*
X74761904Y-56027409D01*
X74761904Y-56027409D02*
X74642856Y-56027409D01*
D14*
%TO.C,Y1*%
X53800000Y-58225000D02*
X53800000Y-59825000D01*
X53800000Y-59825000D02*
X56200000Y-59825000D01*
X56200000Y-58225000D02*
X53800000Y-58225000D01*
D15*
%TO.C,TP3*%
X84525000Y-52625000D02*
G75*
G02*
X83975000Y-52625000I-275000J0D01*
G01*
X83975000Y-52625000D02*
G75*
G02*
X84525000Y-52625000I275000J0D01*
G01*
D14*
%TO.C,R1*%
X52131141Y-62645000D02*
X51823859Y-62645000D01*
X52131141Y-63405000D02*
X51823859Y-63405000D01*
D15*
%TO.C,TP3*%
X86025000Y-52625000D02*
G75*
G02*
X85475000Y-52625000I-275000J0D01*
G01*
X85475000Y-52625000D02*
G75*
G02*
X86025000Y-52625000I275000J0D01*
G01*
D14*
%TO.C,C2*%
X53890000Y-61107836D02*
X53890000Y-60892164D01*
X54610000Y-61107836D02*
X54610000Y-60892164D01*
%TO.C,TP1*%
X49950000Y-63000000D02*
G75*
G02*
X48550000Y-63000000I-700000J0D01*
G01*
X48550000Y-63000000D02*
G75*
G02*
X49950000Y-63000000I700000J0D01*
G01*
%TO.C,TP6*%
X76300000Y-54600000D02*
G75*
G02*
X75700000Y-54600000I-300000J0D01*
G01*
X75700000Y-54600000D02*
G75*
G02*
X76300000Y-54600000I300000J0D01*
G01*
%TO.C,TP15*%
X72300000Y-53200000D02*
G75*
G02*
X71700000Y-53200000I-300000J0D01*
G01*
X71700000Y-53200000D02*
G75*
G02*
X72300000Y-53200000I300000J0D01*
G01*
%TO.C,U10*%
X71826247Y-50882421D02*
X71260562Y-50316735D01*
X71826247Y-50882421D02*
X72391933Y-51448106D01*
X74032421Y-48676247D02*
X73466735Y-48110562D01*
X74032421Y-48676247D02*
X74598106Y-49241933D01*
X73480877Y-47728724D02*
X73077826Y-47792364D01*
X73141466Y-47389313D01*
X73480877Y-47728724D01*
G36*
X73480877Y-47728724D02*
G01*
X73077826Y-47792364D01*
X73141466Y-47389313D01*
X73480877Y-47728724D01*
G37*
%TO.C,C1*%
X55340000Y-61107836D02*
X55340000Y-60892164D01*
X56060000Y-61107836D02*
X56060000Y-60892164D01*
%TO.C,D1*%
X53700000Y-63735000D02*
X55985000Y-63735000D01*
X55985000Y-62265000D02*
X53700000Y-62265000D01*
X55985000Y-63735000D02*
X55985000Y-62265000D01*
%TO.C,TP13*%
X81900000Y-51600000D02*
G75*
G02*
X81300000Y-51600000I-300000J0D01*
G01*
X81300000Y-51600000D02*
G75*
G02*
X81900000Y-51600000I300000J0D01*
G01*
D15*
%TO.C,TP7*%
X74275000Y-53000000D02*
G75*
G02*
X73725000Y-53000000I-275000J0D01*
G01*
X73725000Y-53000000D02*
G75*
G02*
X74275000Y-53000000I275000J0D01*
G01*
%TO.C,TP3*%
X57275000Y-58000000D02*
G75*
G02*
X56725000Y-58000000I-275000J0D01*
G01*
X56725000Y-58000000D02*
G75*
G02*
X57275000Y-58000000I275000J0D01*
G01*
D14*
%TO.C,TP11*%
X77300000Y-54200000D02*
G75*
G02*
X76700000Y-54200000I-300000J0D01*
G01*
X76700000Y-54200000D02*
G75*
G02*
X77300000Y-54200000I300000J0D01*
G01*
D15*
%TO.C,TP5*%
X73275000Y-55000000D02*
G75*
G02*
X72725000Y-55000000I-275000J0D01*
G01*
X72725000Y-55000000D02*
G75*
G02*
X73275000Y-55000000I275000J0D01*
G01*
D14*
%TO.C,U1*%
X59990000Y-44135000D02*
X59990000Y-44380000D01*
X59990000Y-62255000D02*
X59990000Y-62010000D01*
X63850000Y-44135000D02*
X59990000Y-44135000D01*
X63850000Y-44135000D02*
X67710000Y-44135000D01*
X63850000Y-62255000D02*
X59990000Y-62255000D01*
X63850000Y-62255000D02*
X67710000Y-62255000D01*
X67710000Y-44135000D02*
X67710000Y-44380000D01*
X67710000Y-62010000D02*
X69525000Y-62010000D01*
X67710000Y-62255000D02*
X67710000Y-62010000D01*
%TO.C,TP16*%
X72050000Y-56000000D02*
G75*
G02*
X71450000Y-56000000I-300000J0D01*
G01*
X71450000Y-56000000D02*
G75*
G02*
X72050000Y-56000000I300000J0D01*
G01*
D15*
%TO.C,TP12*%
X81875000Y-53000000D02*
G75*
G02*
X81325000Y-53000000I-275000J0D01*
G01*
X81325000Y-53000000D02*
G75*
G02*
X81875000Y-53000000I275000J0D01*
G01*
D14*
%TO.C,C3*%
X82440000Y-53412164D02*
X82440000Y-53627836D01*
X83160000Y-53412164D02*
X83160000Y-53627836D01*
D15*
%TO.C,REF\u002A\u002A*%
X46350000Y-64500000D02*
G75*
G02*
X45650000Y-64500000I-350000J0D01*
G01*
X45650000Y-64500000D02*
G75*
G02*
X46350000Y-64500000I350000J0D01*
G01*
%TO.C,TP3*%
X79875000Y-54000000D02*
G75*
G02*
X79325000Y-54000000I-275000J0D01*
G01*
X79325000Y-54000000D02*
G75*
G02*
X79875000Y-54000000I275000J0D01*
G01*
D14*
%TO.C,TP17*%
X74300000Y-55000000D02*
G75*
G02*
X73700000Y-55000000I-300000J0D01*
G01*
X73700000Y-55000000D02*
G75*
G02*
X74300000Y-55000000I300000J0D01*
G01*
D15*
%TO.C,TP2*%
X74275000Y-54000000D02*
G75*
G02*
X73725000Y-54000000I-275000J0D01*
G01*
X73725000Y-54000000D02*
G75*
G02*
X74275000Y-54000000I275000J0D01*
G01*
%TO.C,TP10*%
X75275000Y-53000000D02*
G75*
G02*
X74725000Y-53000000I-275000J0D01*
G01*
X74725000Y-53000000D02*
G75*
G02*
X75275000Y-53000000I275000J0D01*
G01*
%TO.C,TP4*%
X79075000Y-54000000D02*
G75*
G02*
X78525000Y-54000000I-275000J0D01*
G01*
X78525000Y-54000000D02*
G75*
G02*
X79075000Y-54000000I275000J0D01*
G01*
%TO.C,TP14*%
X73275000Y-54000000D02*
G75*
G02*
X72725000Y-54000000I-275000J0D01*
G01*
X72725000Y-54000000D02*
G75*
G02*
X73275000Y-54000000I275000J0D01*
G01*
%TD*%
M02*
