%TF.GenerationSoftware,KiCad,Pcbnew,8.99.0-unknown-3024a7c569~178~ubuntu22.04.1*%
%TF.CreationDate,2024-05-13T18:01:12+10:00*%
%TF.ProjectId,MXBreakout,4d584272-6561-46b6-9f75-742e6b696361,rev?*%
%TF.SameCoordinates,Original*%
%TF.FileFunction,Legend,Bot*%
%TF.FilePolarity,Positive*%
%FSLAX46Y46*%
G04 Gerber Fmt 4.6, Leading zero omitted, Abs format (unit mm)*
G04 Created by KiCad (PCBNEW 8.99.0-unknown-3024a7c569~178~ubuntu22.04.1) date 2024-05-13 18:01:12*
%MOMM*%
%LPD*%
G01*
G04 APERTURE LIST*
%ADD10C,0.000000*%
%ADD11C,0.300000*%
%ADD12C,0.100000*%
G04 APERTURE END LIST*
D10*
G36*
X69861524Y-57805235D02*
G01*
X69889183Y-57806179D01*
X69915085Y-57807589D01*
X69937655Y-57809421D01*
X69955318Y-57811630D01*
X70001569Y-57820182D01*
X70024525Y-57825278D01*
X70047515Y-57830972D01*
X70070649Y-57837305D01*
X70094039Y-57844316D01*
X70142026Y-57860533D01*
X70192362Y-57879942D01*
X70245930Y-57902861D01*
X70303616Y-57929608D01*
X70366304Y-57960502D01*
X70463274Y-58011459D01*
X70564279Y-58068518D01*
X70668624Y-58131233D01*
X70775615Y-58199156D01*
X70884557Y-58271842D01*
X70994756Y-58348844D01*
X71105517Y-58429716D01*
X71216146Y-58514010D01*
X71295106Y-58576302D01*
X71370712Y-58637956D01*
X71441962Y-58698073D01*
X71507849Y-58755751D01*
X71567370Y-58810089D01*
X71619520Y-58860184D01*
X71642517Y-58883360D01*
X71663294Y-58905137D01*
X71681726Y-58925404D01*
X71697688Y-58944046D01*
X71710695Y-58960197D01*
X71723002Y-58976385D01*
X71734616Y-58992630D01*
X71745550Y-59008952D01*
X71755811Y-59025371D01*
X71765411Y-59041907D01*
X71774358Y-59058581D01*
X71782663Y-59075412D01*
X71790336Y-59092421D01*
X71797385Y-59109628D01*
X71803822Y-59127053D01*
X71809656Y-59144716D01*
X71814897Y-59162638D01*
X71819554Y-59180838D01*
X71823637Y-59199337D01*
X71827157Y-59218155D01*
X71829396Y-59231599D01*
X71831115Y-59243687D01*
X71832354Y-59255312D01*
X71833155Y-59267367D01*
X71833558Y-59280745D01*
X71833607Y-59296339D01*
X71833341Y-59315042D01*
X71832802Y-59337746D01*
X71831270Y-59374284D01*
X71830038Y-59391941D01*
X71828486Y-59409250D01*
X71826604Y-59426253D01*
X71824387Y-59442993D01*
X71821825Y-59459514D01*
X71818911Y-59475859D01*
X71815638Y-59492072D01*
X71811997Y-59508196D01*
X71807981Y-59524274D01*
X71803582Y-59540351D01*
X71798792Y-59556469D01*
X71793604Y-59572671D01*
X71782002Y-59605505D01*
X71769655Y-59638313D01*
X71777768Y-59643957D01*
X71787947Y-59651495D01*
X71799813Y-59660999D01*
X71827719Y-59685039D01*
X71859711Y-59714347D01*
X71894009Y-59747189D01*
X71928836Y-59781834D01*
X71962415Y-59816548D01*
X71992967Y-59849601D01*
X72018716Y-59879260D01*
X72035681Y-59899976D01*
X72050725Y-59918915D01*
X72064040Y-59936348D01*
X72075822Y-59952550D01*
X72086264Y-59967792D01*
X72091043Y-59975139D01*
X72095561Y-59982348D01*
X72099840Y-59989454D01*
X72103907Y-59996491D01*
X72111496Y-60010493D01*
X72114378Y-60016155D01*
X72116941Y-60021372D01*
X72118103Y-60023818D01*
X72119187Y-60026157D01*
X72120193Y-60028390D01*
X72121121Y-60030519D01*
X72121971Y-60032545D01*
X72122744Y-60034470D01*
X72123440Y-60036295D01*
X72124060Y-60038020D01*
X72124604Y-60039649D01*
X72125072Y-60041181D01*
X72125465Y-60042619D01*
X72125784Y-60043963D01*
X72126028Y-60045216D01*
X72126198Y-60046377D01*
X72126294Y-60047450D01*
X72126317Y-60048434D01*
X72126267Y-60049332D01*
X72126145Y-60050145D01*
X72125950Y-60050874D01*
X72125826Y-60051207D01*
X72125684Y-60051520D01*
X72125525Y-60051813D01*
X72125347Y-60052086D01*
X72125152Y-60052338D01*
X72124939Y-60052571D01*
X72124708Y-60052785D01*
X72124460Y-60052978D01*
X72124194Y-60053153D01*
X72123911Y-60053308D01*
X72123292Y-60053563D01*
X72122604Y-60053743D01*
X72121847Y-60053850D01*
X72121021Y-60053885D01*
X72120048Y-60053503D01*
X72118346Y-60052382D01*
X72112918Y-60048075D01*
X72105059Y-60041272D01*
X72095092Y-60032278D01*
X72070122Y-60008939D01*
X72040588Y-59980507D01*
X72013738Y-59954128D01*
X71990890Y-59932061D01*
X71970093Y-59912598D01*
X71949395Y-59894033D01*
X71926845Y-59874657D01*
X71900491Y-59852763D01*
X71828568Y-59794594D01*
X71799134Y-59770957D01*
X71773535Y-59750232D01*
X71754551Y-59734665D01*
X71748408Y-59729520D01*
X71744960Y-59726507D01*
X71743973Y-59725599D01*
X71743000Y-59724728D01*
X71742046Y-59723899D01*
X71741118Y-59723117D01*
X71740221Y-59722387D01*
X71739361Y-59721714D01*
X71738542Y-59721101D01*
X71737772Y-59720554D01*
X71737056Y-59720078D01*
X71736399Y-59719676D01*
X71735807Y-59719354D01*
X71735538Y-59719224D01*
X71735286Y-59719116D01*
X71735054Y-59719030D01*
X71734842Y-59718966D01*
X71734650Y-59718927D01*
X71734480Y-59718911D01*
X71734331Y-59718920D01*
X71734205Y-59718954D01*
X71734103Y-59719013D01*
X71734024Y-59719099D01*
X71733377Y-59720082D01*
X71732023Y-59722401D01*
X71727542Y-59730432D01*
X71721274Y-59741969D01*
X71713915Y-59755788D01*
X71694278Y-59791086D01*
X71673004Y-59826655D01*
X71650192Y-59862377D01*
X71625942Y-59898134D01*
X71600351Y-59933808D01*
X71573521Y-59969282D01*
X71545550Y-60004437D01*
X71516536Y-60039157D01*
X71486581Y-60073322D01*
X71455782Y-60106816D01*
X71424238Y-60139520D01*
X71392050Y-60171316D01*
X71359316Y-60202087D01*
X71326136Y-60231715D01*
X71292608Y-60260083D01*
X71258832Y-60287071D01*
X71220993Y-60315546D01*
X71182536Y-60342608D01*
X71143537Y-60368224D01*
X71104073Y-60392364D01*
X71064220Y-60414995D01*
X71024056Y-60436085D01*
X70983656Y-60455602D01*
X70943096Y-60473514D01*
X70902454Y-60489789D01*
X70861806Y-60504395D01*
X70821228Y-60517299D01*
X70780796Y-60528470D01*
X70740588Y-60537876D01*
X70700680Y-60545485D01*
X70661148Y-60551264D01*
X70622068Y-60555182D01*
X70603995Y-60556324D01*
X70586222Y-60556971D01*
X70568756Y-60557125D01*
X70551599Y-60556789D01*
X70534755Y-60555964D01*
X70518229Y-60554652D01*
X70502024Y-60552855D01*
X70486144Y-60550574D01*
X70470594Y-60547812D01*
X70455376Y-60544570D01*
X70440496Y-60540850D01*
X70425956Y-60536653D01*
X70411762Y-60531983D01*
X70397916Y-60526839D01*
X70384423Y-60521225D01*
X70371287Y-60515142D01*
X70358512Y-60508592D01*
X70346101Y-60501576D01*
X70334059Y-60494097D01*
X70322390Y-60486156D01*
X70311097Y-60477756D01*
X70300184Y-60468897D01*
X70289656Y-60459582D01*
X70279516Y-60449812D01*
X70269768Y-60439590D01*
X70260416Y-60428917D01*
X70251464Y-60417794D01*
X70242917Y-60406225D01*
X70234777Y-60394210D01*
X70227050Y-60381751D01*
X70219738Y-60368851D01*
X70212846Y-60355510D01*
X70205992Y-60341197D01*
X70199704Y-60327028D01*
X70193961Y-60312897D01*
X70188742Y-60298702D01*
X70184024Y-60284337D01*
X70179788Y-60269698D01*
X70176011Y-60254681D01*
X70172674Y-60239182D01*
X70169753Y-60223095D01*
X70167230Y-60206317D01*
X70165081Y-60188743D01*
X70163286Y-60170269D01*
X70160674Y-60130202D01*
X70159224Y-60085283D01*
X70158628Y-60038393D01*
X70159152Y-59993400D01*
X70161090Y-59946581D01*
X70164736Y-59894209D01*
X70170383Y-59832561D01*
X70178323Y-59757910D01*
X70202263Y-59554705D01*
X70220254Y-59403936D01*
X70231896Y-59304232D01*
X70238124Y-59246049D01*
X70243308Y-59191881D01*
X70247437Y-59141529D01*
X70250500Y-59094793D01*
X70252485Y-59051471D01*
X70253383Y-59011363D01*
X70253182Y-58974270D01*
X70251872Y-58939989D01*
X70249442Y-58908322D01*
X70245880Y-58879066D01*
X70241176Y-58852023D01*
X70235319Y-58826990D01*
X70228299Y-58803768D01*
X70220104Y-58782157D01*
X70210723Y-58761955D01*
X70200146Y-58742963D01*
X70192521Y-58730905D01*
X70184188Y-58718732D01*
X70174740Y-58705930D01*
X70163766Y-58691987D01*
X70150857Y-58676390D01*
X70135604Y-58658627D01*
X70117598Y-58638185D01*
X70096430Y-58614552D01*
X70058214Y-58571846D01*
X70041651Y-58552994D01*
X70026651Y-58535634D01*
X70013117Y-58519637D01*
X70000950Y-58504872D01*
X69990051Y-58491207D01*
X69980322Y-58478512D01*
X69971663Y-58466656D01*
X69963976Y-58455509D01*
X69957162Y-58444940D01*
X69951124Y-58434817D01*
X69945761Y-58425011D01*
X69940975Y-58415390D01*
X69936668Y-58405824D01*
X69932741Y-58396182D01*
X69927683Y-58382503D01*
X69925511Y-58376238D01*
X69923563Y-58370286D01*
X69921828Y-58364595D01*
X69920295Y-58359112D01*
X69918953Y-58353783D01*
X69917792Y-58348557D01*
X69916800Y-58343381D01*
X69915966Y-58338201D01*
X69915281Y-58332966D01*
X69914732Y-58327622D01*
X69914310Y-58322117D01*
X69914003Y-58316398D01*
X69913691Y-58304107D01*
X69913790Y-58296420D01*
X69914152Y-58289034D01*
X69914773Y-58281954D01*
X69915647Y-58275183D01*
X69916772Y-58268723D01*
X69918143Y-58262577D01*
X69919756Y-58256749D01*
X69921606Y-58251240D01*
X69923690Y-58246055D01*
X69926003Y-58241195D01*
X69928542Y-58236664D01*
X69931302Y-58232465D01*
X69934279Y-58228601D01*
X69937469Y-58225074D01*
X69940867Y-58221887D01*
X69944471Y-58219044D01*
X69948274Y-58216547D01*
X69952274Y-58214399D01*
X69956467Y-58212603D01*
X69960847Y-58211162D01*
X69965412Y-58210079D01*
X69970156Y-58209357D01*
X69975076Y-58208998D01*
X69980167Y-58209006D01*
X69985426Y-58209384D01*
X69990848Y-58210134D01*
X69996430Y-58211259D01*
X70002166Y-58212762D01*
X70008054Y-58214646D01*
X70014088Y-58216915D01*
X70020264Y-58219570D01*
X70026580Y-58222616D01*
X70042100Y-58231155D01*
X70057659Y-58241108D01*
X70073188Y-58252391D01*
X70088619Y-58264922D01*
X70103882Y-58278615D01*
X70118909Y-58293390D01*
X70133631Y-58309161D01*
X70147979Y-58325847D01*
X70161885Y-58343364D01*
X70175280Y-58361629D01*
X70188095Y-58380558D01*
X70200262Y-58400068D01*
X70211711Y-58420077D01*
X70222374Y-58440501D01*
X70232183Y-58461256D01*
X70241068Y-58482260D01*
X70247321Y-58498678D01*
X70253125Y-58515312D01*
X70258492Y-58532244D01*
X70263437Y-58549558D01*
X70267972Y-58567337D01*
X70272111Y-58585665D01*
X70279257Y-58624297D01*
X70284980Y-58666122D01*
X70289388Y-58711803D01*
X70292589Y-58762007D01*
X70294691Y-58817399D01*
X70295286Y-58897474D01*
X70292309Y-58999477D01*
X70284173Y-59158166D01*
X70269291Y-59408302D01*
X70261161Y-59556048D01*
X70255846Y-59686781D01*
X70253384Y-59802045D01*
X70253812Y-59903381D01*
X70255122Y-59949308D01*
X70257167Y-59992332D01*
X70259954Y-60032644D01*
X70263486Y-60070438D01*
X70267769Y-60105907D01*
X70272807Y-60139243D01*
X70278604Y-60170639D01*
X70285165Y-60200288D01*
X70293601Y-60232544D01*
X70302975Y-60262030D01*
X70313400Y-60288828D01*
X70319040Y-60301246D01*
X70324985Y-60313022D01*
X70331249Y-60324169D01*
X70337845Y-60334695D01*
X70344787Y-60344611D01*
X70352089Y-60353928D01*
X70359765Y-60362656D01*
X70367829Y-60370805D01*
X70376296Y-60378386D01*
X70385178Y-60385408D01*
X70394490Y-60391883D01*
X70404247Y-60397820D01*
X70414461Y-60403230D01*
X70425147Y-60408124D01*
X70436318Y-60412511D01*
X70447990Y-60416402D01*
X70460175Y-60419807D01*
X70472887Y-60422736D01*
X70486142Y-60425201D01*
X70499951Y-60427211D01*
X70529293Y-60429908D01*
X70561025Y-60430910D01*
X70595257Y-60430299D01*
X70608082Y-60429641D01*
X70621523Y-60428739D01*
X70635335Y-60427614D01*
X70649276Y-60426286D01*
X70663102Y-60424777D01*
X70676567Y-60423106D01*
X70689429Y-60421294D01*
X70701443Y-60419363D01*
X70739708Y-60412013D01*
X70776930Y-60403278D01*
X70813231Y-60393086D01*
X70848734Y-60381368D01*
X70883560Y-60368051D01*
X70917833Y-60353066D01*
X70951675Y-60336342D01*
X70985209Y-60317807D01*
X71018557Y-60297391D01*
X71051841Y-60275024D01*
X71085183Y-60250634D01*
X71118708Y-60224150D01*
X71152536Y-60195502D01*
X71186790Y-60164620D01*
X71221594Y-60131431D01*
X71257068Y-60095866D01*
X71301724Y-60048656D01*
X71322743Y-60025425D01*
X71342915Y-60002413D01*
X71362255Y-59979595D01*
X71380782Y-59956947D01*
X71398513Y-59934446D01*
X71415466Y-59912069D01*
X71431658Y-59889790D01*
X71447107Y-59867587D01*
X71461830Y-59845435D01*
X71475846Y-59823312D01*
X71489171Y-59801192D01*
X71501823Y-59779053D01*
X71513820Y-59756871D01*
X71525180Y-59734621D01*
X71535854Y-59712529D01*
X71545667Y-59691033D01*
X71554643Y-59670035D01*
X71562805Y-59649436D01*
X71570178Y-59629140D01*
X71576786Y-59609048D01*
X71582651Y-59589060D01*
X71587798Y-59569080D01*
X71592250Y-59549009D01*
X71596031Y-59528749D01*
X71599166Y-59508202D01*
X71601677Y-59487269D01*
X71603589Y-59465852D01*
X71604925Y-59443854D01*
X71605710Y-59421175D01*
X71605966Y-59397719D01*
X71605230Y-59362520D01*
X71603022Y-59327701D01*
X71599343Y-59293259D01*
X71594192Y-59259193D01*
X71587569Y-59225500D01*
X71579474Y-59192181D01*
X71569908Y-59159232D01*
X71558870Y-59126653D01*
X71546360Y-59094442D01*
X71532378Y-59062597D01*
X71516925Y-59031117D01*
X71500000Y-59000000D01*
X71481603Y-58969245D01*
X71461735Y-58938850D01*
X71440394Y-58908814D01*
X71417582Y-58879135D01*
X71400362Y-58858720D01*
X71378970Y-58835137D01*
X71354361Y-58809322D01*
X71327492Y-58782209D01*
X71299316Y-58754733D01*
X71270788Y-58727827D01*
X71242864Y-58702425D01*
X71216499Y-58679463D01*
X71162903Y-58635115D01*
X71105760Y-58589461D01*
X71045756Y-58543012D01*
X70983577Y-58496283D01*
X70919911Y-58449785D01*
X70855442Y-58404032D01*
X70790857Y-58359535D01*
X70726843Y-58316807D01*
X70623044Y-58249713D01*
X70527546Y-58190226D01*
X70439556Y-58137916D01*
X70358279Y-58092353D01*
X70319910Y-58071967D01*
X70282922Y-58053106D01*
X70247216Y-58035717D01*
X70212692Y-58019746D01*
X70179251Y-58005140D01*
X70146794Y-57991844D01*
X70115222Y-57979805D01*
X70084435Y-57968969D01*
X70049414Y-57957748D01*
X70017055Y-57948789D01*
X70001227Y-57945078D01*
X69985291Y-57941838D01*
X69968986Y-57939038D01*
X69952055Y-57936645D01*
X69934240Y-57934629D01*
X69915281Y-57932957D01*
X69872901Y-57930521D01*
X69822848Y-57929086D01*
X69763054Y-57928399D01*
X69708512Y-57927627D01*
X69657706Y-57926459D01*
X69616360Y-57925026D01*
X69601021Y-57924251D01*
X69590193Y-57923460D01*
X69580197Y-57922686D01*
X69567241Y-57921961D01*
X69534631Y-57920726D01*
X69496729Y-57919888D01*
X69457902Y-57919580D01*
X69432203Y-57919652D01*
X69410205Y-57919894D01*
X69391208Y-57920342D01*
X69374514Y-57921035D01*
X69359424Y-57922008D01*
X69345239Y-57923300D01*
X69331261Y-57924948D01*
X69316791Y-57926988D01*
X69290099Y-57931244D01*
X69263498Y-57936196D01*
X69237029Y-57941830D01*
X69210731Y-57948133D01*
X69184647Y-57955088D01*
X69158816Y-57962682D01*
X69133279Y-57970900D01*
X69108078Y-57979728D01*
X69083254Y-57989152D01*
X69058846Y-57999156D01*
X69034896Y-58009726D01*
X69011445Y-58020849D01*
X68988533Y-58032509D01*
X68966202Y-58044692D01*
X68944492Y-58057383D01*
X68923443Y-58070569D01*
X68903587Y-58083839D01*
X68883956Y-58097870D01*
X68864527Y-58112685D01*
X68845276Y-58128308D01*
X68826179Y-58144765D01*
X68807215Y-58162079D01*
X68788359Y-58180275D01*
X68769588Y-58199377D01*
X68750879Y-58219408D01*
X68732210Y-58240395D01*
X68713555Y-58262360D01*
X68694893Y-58285328D01*
X68676200Y-58309323D01*
X68657452Y-58334370D01*
X68638627Y-58360493D01*
X68619702Y-58387716D01*
X68576938Y-58449614D01*
X68558316Y-58476040D01*
X68541187Y-58499850D01*
X68525289Y-58521342D01*
X68510363Y-58540816D01*
X68496147Y-58558572D01*
X68482383Y-58574908D01*
X68468809Y-58590124D01*
X68455164Y-58604519D01*
X68441189Y-58618392D01*
X68426622Y-58632042D01*
X68411204Y-58645768D01*
X68394674Y-58659871D01*
X68376771Y-58674648D01*
X68357235Y-58690399D01*
X68343211Y-58701694D01*
X68330339Y-58712202D01*
X68318564Y-58721976D01*
X68307830Y-58731073D01*
X68298081Y-58739548D01*
X68289264Y-58747456D01*
X68281322Y-58754852D01*
X68274200Y-58761793D01*
X68267843Y-58768332D01*
X68262195Y-58774525D01*
X68257202Y-58780428D01*
X68252807Y-58786096D01*
X68248956Y-58791584D01*
X68245594Y-58796947D01*
X68242664Y-58802241D01*
X68240113Y-58807521D01*
X68236187Y-58816745D01*
X68233028Y-58825712D01*
X68230668Y-58834548D01*
X68229138Y-58843378D01*
X68228471Y-58852325D01*
X68228696Y-58861515D01*
X68229847Y-58871072D01*
X68231955Y-58881120D01*
X68235050Y-58891784D01*
X68239165Y-58903188D01*
X68244332Y-58915458D01*
X68250580Y-58928717D01*
X68257943Y-58943090D01*
X68266452Y-58958702D01*
X68276138Y-58975678D01*
X68287032Y-58994141D01*
X68295892Y-59009221D01*
X68304594Y-59024298D01*
X68312916Y-59038969D01*
X68320634Y-59052834D01*
X68327526Y-59065492D01*
X68333367Y-59076542D01*
X68337936Y-59085582D01*
X68341007Y-59092213D01*
X68344964Y-59102214D01*
X68348366Y-59111995D01*
X68351214Y-59121586D01*
X68353509Y-59131013D01*
X68355249Y-59140306D01*
X68356436Y-59149493D01*
X68357068Y-59158603D01*
X68357147Y-59167663D01*
X68356671Y-59176703D01*
X68355642Y-59185751D01*
X68354059Y-59194835D01*
X68351921Y-59203983D01*
X68349230Y-59213224D01*
X68345985Y-59222587D01*
X68342185Y-59232100D01*
X68337832Y-59241791D01*
X68331156Y-59255152D01*
X68323909Y-59268381D01*
X68315421Y-59282471D01*
X68305024Y-59298412D01*
X68292047Y-59317197D01*
X68275821Y-59339819D01*
X68230941Y-59400541D01*
X68199547Y-59443039D01*
X68170627Y-59483554D01*
X68142847Y-59524167D01*
X68114877Y-59566964D01*
X68085385Y-59614026D01*
X68053041Y-59667439D01*
X67974471Y-59801649D01*
X67918247Y-59898707D01*
X67868638Y-59983330D01*
X67856809Y-60003415D01*
X67846285Y-60021426D01*
X67837009Y-60037495D01*
X67828923Y-60051758D01*
X67821967Y-60064345D01*
X67816083Y-60075392D01*
X67813525Y-60080379D01*
X67811213Y-60085031D01*
X67809140Y-60089365D01*
X67807299Y-60093396D01*
X67805681Y-60097143D01*
X67804281Y-60100620D01*
X67803091Y-60103846D01*
X67802103Y-60106836D01*
X67801310Y-60109608D01*
X67800704Y-60112178D01*
X67800280Y-60114563D01*
X67800028Y-60116779D01*
X67799942Y-60118843D01*
X67800015Y-60120772D01*
X67800239Y-60122582D01*
X67800607Y-60124290D01*
X67801112Y-60125913D01*
X67801747Y-60127468D01*
X67802503Y-60128971D01*
X67803374Y-60130438D01*
X67804285Y-60131750D01*
X67805187Y-60132913D01*
X67806115Y-60133938D01*
X67807100Y-60134831D01*
X67808176Y-60135603D01*
X67809377Y-60136261D01*
X67810734Y-60136815D01*
X67812282Y-60137273D01*
X67814052Y-60137645D01*
X67816079Y-60137938D01*
X67818396Y-60138162D01*
X67821035Y-60138326D01*
X67827412Y-60138507D01*
X67835477Y-60138552D01*
X67841859Y-60138392D01*
X67849693Y-60137935D01*
X67858675Y-60137212D01*
X67868506Y-60136259D01*
X67878881Y-60135107D01*
X67889501Y-60133789D01*
X67900063Y-60132340D01*
X67910266Y-60130791D01*
X67923326Y-60128806D01*
X67936895Y-60127087D01*
X67950852Y-60125631D01*
X67965078Y-60124441D01*
X67993857Y-60122853D01*
X68022273Y-60122324D01*
X68036044Y-60122456D01*
X68049365Y-60122853D01*
X68062115Y-60123515D01*
X68074175Y-60124441D01*
X68085425Y-60125631D01*
X68095744Y-60127087D01*
X68105013Y-60128806D01*
X68113113Y-60130791D01*
X68120259Y-60132845D01*
X68127269Y-60135034D01*
X68134133Y-60137353D01*
X68140839Y-60139798D01*
X68147375Y-60142362D01*
X68153730Y-60145041D01*
X68159894Y-60147830D01*
X68165853Y-60150723D01*
X68171598Y-60153715D01*
X68177116Y-60156801D01*
X68182396Y-60159976D01*
X68187428Y-60163235D01*
X68192199Y-60166573D01*
X68196698Y-60169984D01*
X68200914Y-60173463D01*
X68204835Y-60177005D01*
X68214695Y-60187094D01*
X68218980Y-60192230D01*
X68222831Y-60197442D01*
X68226245Y-60202741D01*
X68229220Y-60208136D01*
X68231752Y-60213639D01*
X68233840Y-60219261D01*
X68235480Y-60225012D01*
X68236670Y-60230902D01*
X68237407Y-60236944D01*
X68237689Y-60243146D01*
X68237512Y-60249521D01*
X68236874Y-60256079D01*
X68235772Y-60262830D01*
X68234204Y-60269785D01*
X68232166Y-60276955D01*
X68229657Y-60284351D01*
X68223211Y-60299864D01*
X68214845Y-60316407D01*
X68204537Y-60334068D01*
X68192266Y-60352932D01*
X68178009Y-60373084D01*
X68161745Y-60394611D01*
X68143452Y-60417599D01*
X68132343Y-60430928D01*
X68121257Y-60443780D01*
X68110217Y-60456135D01*
X68099244Y-60467969D01*
X68088363Y-60479262D01*
X68077595Y-60489991D01*
X68066964Y-60500136D01*
X68056492Y-60509674D01*
X68046202Y-60518584D01*
X68036116Y-60526843D01*
X68026258Y-60534431D01*
X68016650Y-60541325D01*
X68007315Y-60547504D01*
X67998275Y-60552946D01*
X67989554Y-60557629D01*
X67981174Y-60561532D01*
X67976362Y-60563517D01*
X67971337Y-60565239D01*
X67966127Y-60566699D01*
X67960757Y-60567899D01*
X67955255Y-60568841D01*
X67949647Y-60569526D01*
X67943961Y-60569955D01*
X67938223Y-60570131D01*
X67932461Y-60570055D01*
X67926700Y-60569728D01*
X67920968Y-60569152D01*
X67915293Y-60568329D01*
X67909700Y-60567259D01*
X67904216Y-60565946D01*
X67898869Y-60564389D01*
X67893685Y-60562591D01*
X67891715Y-60561814D01*
X67889781Y-60561074D01*
X67887895Y-60560375D01*
X67886067Y-60559719D01*
X67884310Y-60559111D01*
X67882635Y-60558554D01*
X67881052Y-60558052D01*
X67879574Y-60557608D01*
X67878212Y-60557226D01*
X67876976Y-60556910D01*
X67875880Y-60556663D01*
X67874933Y-60556489D01*
X67874147Y-60556391D01*
X67873534Y-60556374D01*
X67873296Y-60556396D01*
X67873105Y-60556440D01*
X67872963Y-60556506D01*
X67872871Y-60556593D01*
X67872663Y-60557065D01*
X67872692Y-60557807D01*
X67873424Y-60560051D01*
X67874987Y-60563215D01*
X67877297Y-60567188D01*
X67880276Y-60571860D01*
X67883841Y-60577119D01*
X67892406Y-60588961D01*
X67902344Y-60601828D01*
X67913005Y-60614835D01*
X67923741Y-60627098D01*
X67928934Y-60632674D01*
X67933902Y-60637732D01*
X67946827Y-60650364D01*
X67953210Y-60656267D01*
X67959583Y-60661925D01*
X67965979Y-60667362D01*
X67972430Y-60672602D01*
X67978968Y-60677666D01*
X67985628Y-60682579D01*
X67992440Y-60687364D01*
X67999438Y-60692044D01*
X68006654Y-60696643D01*
X68014120Y-60701183D01*
X68021870Y-60705688D01*
X68029935Y-60710181D01*
X68047143Y-60719224D01*
X68071310Y-60730705D01*
X68096326Y-60741070D01*
X68122208Y-60750321D01*
X68148969Y-60758460D01*
X68176626Y-60765486D01*
X68205193Y-60771401D01*
X68234684Y-60776206D01*
X68265116Y-60779902D01*
X68296503Y-60782490D01*
X68328859Y-60783971D01*
X68362201Y-60784347D01*
X68396542Y-60783617D01*
X68431899Y-60781784D01*
X68468285Y-60778848D01*
X68505716Y-60774810D01*
X68544207Y-60769671D01*
X68589466Y-60762526D01*
X68635426Y-60754093D01*
X68681904Y-60744436D01*
X68728716Y-60733616D01*
X68775678Y-60721695D01*
X68822609Y-60708732D01*
X68869323Y-60694792D01*
X68915638Y-60679933D01*
X68961370Y-60664220D01*
X69006336Y-60647711D01*
X69050352Y-60630471D01*
X69093234Y-60612558D01*
X69134800Y-60594036D01*
X69174866Y-60574966D01*
X69213248Y-60555409D01*
X69249763Y-60535427D01*
X69278305Y-60518948D01*
X69305823Y-60502372D01*
X69332469Y-60485576D01*
X69358391Y-60468438D01*
X69383740Y-60450834D01*
X69408668Y-60432642D01*
X69433323Y-60413741D01*
X69457858Y-60394007D01*
X69482421Y-60373318D01*
X69507163Y-60351552D01*
X69532235Y-60328585D01*
X69557787Y-60304297D01*
X69583970Y-60278563D01*
X69610933Y-60251262D01*
X69667804Y-60191469D01*
X69699665Y-60157194D01*
X69727159Y-60127880D01*
X69747378Y-60106637D01*
X69753849Y-60100012D01*
X69757410Y-60096571D01*
X69766582Y-60087752D01*
X69761643Y-60103627D01*
X69760225Y-60107988D01*
X69757906Y-60114508D01*
X69751060Y-60132731D01*
X69742097Y-60155717D01*
X69732010Y-60180885D01*
X69714803Y-60224768D01*
X69700381Y-60263926D01*
X69694167Y-60281910D01*
X69688590Y-60298924D01*
X69683630Y-60315041D01*
X69679270Y-60330331D01*
X69675488Y-60344863D01*
X69672265Y-60358711D01*
X69669582Y-60371943D01*
X69667419Y-60384631D01*
X69665756Y-60396846D01*
X69664573Y-60408658D01*
X69663851Y-60420138D01*
X69663571Y-60431358D01*
X69663663Y-60444990D01*
X69663942Y-60451129D01*
X69664437Y-60457006D01*
X69665189Y-60462760D01*
X69666244Y-60468534D01*
X69667645Y-60474467D01*
X69669436Y-60480702D01*
X69671661Y-60487380D01*
X69674365Y-60494640D01*
X69677590Y-60502626D01*
X69681381Y-60511477D01*
X69690836Y-60532339D01*
X69703082Y-60558357D01*
X69719515Y-60593371D01*
X69735196Y-60628119D01*
X69750496Y-60663529D01*
X69765788Y-60700527D01*
X69781444Y-60740038D01*
X69797836Y-60782989D01*
X69834316Y-60882913D01*
X69855734Y-60943871D01*
X69877343Y-61007433D01*
X69898275Y-61070846D01*
X69917659Y-61131357D01*
X69934630Y-61186212D01*
X69948318Y-61232659D01*
X69957855Y-61267944D01*
X69960796Y-61280540D01*
X69962374Y-61289313D01*
X69964138Y-61304483D01*
X69957082Y-61288960D01*
X69954876Y-61283618D01*
X69951537Y-61274535D01*
X69942089Y-61247112D01*
X69929996Y-61210627D01*
X69916513Y-61169016D01*
X69886379Y-61075112D01*
X69859197Y-60993917D01*
X69834149Y-60923387D01*
X69810415Y-60861482D01*
X69798785Y-60833125D01*
X69787177Y-60806158D01*
X69775488Y-60780325D01*
X69763617Y-60755373D01*
X69751460Y-60731044D01*
X69738915Y-60707085D01*
X69712255Y-60659252D01*
X69691868Y-60625488D01*
X69666967Y-60586453D01*
X69639552Y-60545045D01*
X69611625Y-60504162D01*
X69585186Y-60466702D01*
X69562236Y-60435563D01*
X69552695Y-60423270D01*
X69544776Y-60413643D01*
X69538730Y-60407046D01*
X69534807Y-60403841D01*
X69530174Y-60401820D01*
X69525124Y-60400527D01*
X69519638Y-60399969D01*
X69513696Y-60400153D01*
X69507278Y-60401088D01*
X69500366Y-60402780D01*
X69492939Y-60405239D01*
X69484977Y-60408471D01*
X69476462Y-60412484D01*
X69467373Y-60417287D01*
X69457691Y-60422886D01*
X69447396Y-60429290D01*
X69436468Y-60436507D01*
X69424888Y-60444543D01*
X69412636Y-60453408D01*
X69399693Y-60463107D01*
X69301974Y-60537191D01*
X69280143Y-60553221D01*
X69257502Y-60568660D01*
X69233637Y-60583743D01*
X69208135Y-60598706D01*
X69180583Y-60613786D01*
X69150566Y-60629216D01*
X69117672Y-60645234D01*
X69081488Y-60662074D01*
X69010833Y-60692976D01*
X68939120Y-60721567D01*
X68866778Y-60747718D01*
X68794239Y-60771303D01*
X68721930Y-60792192D01*
X68650283Y-60810257D01*
X68579728Y-60825371D01*
X68510693Y-60837405D01*
X68485142Y-60840587D01*
X68455043Y-60843220D01*
X68421967Y-60845249D01*
X68387486Y-60846621D01*
X68353170Y-60847282D01*
X68320590Y-60847178D01*
X68291318Y-60846255D01*
X68266924Y-60844460D01*
X68231770Y-60840005D01*
X68196732Y-60833936D01*
X68161876Y-60826286D01*
X68127268Y-60817087D01*
X68092974Y-60806370D01*
X68059061Y-60794169D01*
X68025594Y-60780514D01*
X67992639Y-60765438D01*
X67960264Y-60748973D01*
X67928533Y-60731151D01*
X67897513Y-60712004D01*
X67867271Y-60691564D01*
X67837872Y-60669863D01*
X67809382Y-60646934D01*
X67781868Y-60622807D01*
X67755396Y-60597516D01*
X67746891Y-60588882D01*
X67738699Y-60580303D01*
X67730812Y-60571767D01*
X67723222Y-60563263D01*
X67715918Y-60554780D01*
X67708894Y-60546307D01*
X67702138Y-60537831D01*
X67695644Y-60529342D01*
X67689402Y-60520828D01*
X67683404Y-60512277D01*
X67677640Y-60503680D01*
X67672102Y-60495023D01*
X67666781Y-60486296D01*
X67661668Y-60477487D01*
X67656755Y-60468586D01*
X67652032Y-60459580D01*
X67644139Y-60443551D01*
X67637125Y-60427971D01*
X67630982Y-60412785D01*
X67625706Y-60397937D01*
X67621290Y-60383373D01*
X67617727Y-60369036D01*
X67615012Y-60354873D01*
X67613138Y-60340826D01*
X67612100Y-60326841D01*
X67611890Y-60312863D01*
X67612503Y-60298837D01*
X67613932Y-60284707D01*
X67616172Y-60270417D01*
X67619216Y-60255913D01*
X67623057Y-60241140D01*
X67627691Y-60226041D01*
X67634581Y-60207114D01*
X67643442Y-60185980D01*
X67666849Y-60137461D01*
X67697466Y-60081219D01*
X67734847Y-60017990D01*
X67778544Y-59948511D01*
X67828112Y-59873517D01*
X67883104Y-59793743D01*
X67943074Y-59709927D01*
X67981527Y-59656436D01*
X68013100Y-59611337D01*
X68026597Y-59591446D01*
X68038721Y-59573067D01*
X68049588Y-59556005D01*
X68059314Y-59540064D01*
X68068015Y-59525050D01*
X68075807Y-59510766D01*
X68082804Y-59497017D01*
X68089124Y-59483609D01*
X68094881Y-59470345D01*
X68100192Y-59457031D01*
X68105173Y-59443470D01*
X68109938Y-59429469D01*
X68117989Y-59404057D01*
X68124076Y-59381689D01*
X68126473Y-59370602D01*
X68128486Y-59359023D01*
X68130150Y-59346535D01*
X68131501Y-59332719D01*
X68133409Y-59299437D01*
X68134494Y-59255836D01*
X68135338Y-59124316D01*
X68135484Y-59059972D01*
X68135713Y-59010606D01*
X68135884Y-58990794D01*
X68136107Y-58973832D01*
X68136392Y-58959422D01*
X68136749Y-58947265D01*
X68137189Y-58937064D01*
X68137722Y-58928521D01*
X68138358Y-58921336D01*
X68139108Y-58915212D01*
X68139982Y-58909851D01*
X68140991Y-58904955D01*
X68142144Y-58900225D01*
X68143452Y-58895363D01*
X68147577Y-58880782D01*
X68149722Y-58874039D01*
X68151979Y-58867549D01*
X68154391Y-58861228D01*
X68157001Y-58854993D01*
X68159852Y-58848761D01*
X68162987Y-58842446D01*
X68166448Y-58835967D01*
X68170279Y-58829238D01*
X68174522Y-58822176D01*
X68179220Y-58814698D01*
X68190154Y-58798157D01*
X68203424Y-58778946D01*
X68235257Y-58732672D01*
X68251204Y-58708420D01*
X68268379Y-58681536D01*
X68310034Y-58614194D01*
X68367466Y-58519302D01*
X68408756Y-58451572D01*
X68445639Y-58392528D01*
X68479000Y-58340900D01*
X68509723Y-58295420D01*
X68538694Y-58254818D01*
X68552798Y-58235950D01*
X68566796Y-58217826D01*
X68580798Y-58200286D01*
X68594915Y-58183173D01*
X68623935Y-58149591D01*
X68647330Y-58124350D01*
X68671806Y-58099867D01*
X68697263Y-58076205D01*
X68723600Y-58053426D01*
X68750717Y-58031594D01*
X68778512Y-58010771D01*
X68806884Y-57991022D01*
X68835734Y-57972408D01*
X68864960Y-57954993D01*
X68894461Y-57938841D01*
X68924137Y-57924013D01*
X68953887Y-57910573D01*
X68983610Y-57898584D01*
X69013205Y-57888109D01*
X69042572Y-57879212D01*
X69071610Y-57871955D01*
X69093152Y-57867522D01*
X69114368Y-57863945D01*
X69136815Y-57861121D01*
X69162053Y-57858946D01*
X69191641Y-57857316D01*
X69227135Y-57856129D01*
X69322082Y-57854668D01*
X69413259Y-57853528D01*
X69445703Y-57852355D01*
X69474703Y-57850303D01*
X69504249Y-57847010D01*
X69538330Y-57842117D01*
X69636054Y-57826094D01*
X69676216Y-57819644D01*
X69713930Y-57813923D01*
X69744898Y-57809524D01*
X69764818Y-57807043D01*
X69783755Y-57805663D01*
X69807234Y-57804932D01*
X69833682Y-57804805D01*
X69861524Y-57805235D01*
G37*
G36*
X68986201Y-58866576D02*
G01*
X68994423Y-58866876D01*
X69003171Y-58867449D01*
X69022457Y-58869430D01*
X69044479Y-58872548D01*
X69069660Y-58876832D01*
X69098421Y-58882310D01*
X69129848Y-58888876D01*
X69159220Y-58895497D01*
X69186608Y-58902202D01*
X69212082Y-58909022D01*
X69235712Y-58915987D01*
X69257568Y-58923126D01*
X69277721Y-58930470D01*
X69296241Y-58938049D01*
X69313199Y-58945892D01*
X69328664Y-58954030D01*
X69335859Y-58958219D01*
X69342707Y-58962493D01*
X69349217Y-58966855D01*
X69355398Y-58971309D01*
X69361258Y-58975860D01*
X69366807Y-58980511D01*
X69372053Y-58985265D01*
X69377005Y-58990127D01*
X69381672Y-58995099D01*
X69386062Y-59000187D01*
X69390185Y-59005393D01*
X69394049Y-59010721D01*
X69395537Y-59012969D01*
X69396955Y-59015210D01*
X69398301Y-59017436D01*
X69399572Y-59019640D01*
X69400764Y-59021815D01*
X69401875Y-59023955D01*
X69402901Y-59026050D01*
X69403839Y-59028096D01*
X69404685Y-59030083D01*
X69405438Y-59032005D01*
X69406094Y-59033855D01*
X69406650Y-59035625D01*
X69407102Y-59037309D01*
X69407448Y-59038898D01*
X69407684Y-59040386D01*
X69407807Y-59041766D01*
X69408513Y-59053760D01*
X69385582Y-59055877D01*
X69383158Y-59056112D01*
X69380661Y-59056416D01*
X69378108Y-59056786D01*
X69375517Y-59057216D01*
X69370290Y-59058239D01*
X69365121Y-59059449D01*
X69360151Y-59060807D01*
X69357784Y-59061530D01*
X69355519Y-59062276D01*
X69353374Y-59063041D01*
X69351367Y-59063821D01*
X69349515Y-59064609D01*
X69347835Y-59065402D01*
X69346092Y-59066419D01*
X69343925Y-59067864D01*
X69338448Y-59071934D01*
X69331656Y-59077401D01*
X69323802Y-59084055D01*
X69315138Y-59091685D01*
X69305915Y-59100079D01*
X69296387Y-59109027D01*
X69286804Y-59118318D01*
X69278078Y-59126778D01*
X69269861Y-59134585D01*
X69262107Y-59141771D01*
X69254773Y-59148371D01*
X69247813Y-59154416D01*
X69241182Y-59159941D01*
X69234836Y-59164977D01*
X69228728Y-59169559D01*
X69222815Y-59173720D01*
X69217052Y-59177491D01*
X69211392Y-59180908D01*
X69205792Y-59184001D01*
X69200207Y-59186806D01*
X69194591Y-59189354D01*
X69188900Y-59191678D01*
X69183088Y-59193813D01*
X69176027Y-59195951D01*
X69168756Y-59197607D01*
X69161303Y-59198785D01*
X69153697Y-59199490D01*
X69145967Y-59199729D01*
X69138142Y-59199506D01*
X69130250Y-59198825D01*
X69122322Y-59197694D01*
X69114385Y-59196115D01*
X69106469Y-59194095D01*
X69098602Y-59191640D01*
X69090814Y-59188753D01*
X69083134Y-59185440D01*
X69075590Y-59181707D01*
X69068211Y-59177558D01*
X69061027Y-59172999D01*
X69052931Y-59167262D01*
X69044551Y-59160670D01*
X69035931Y-59153278D01*
X69027116Y-59145141D01*
X69018152Y-59136313D01*
X69009086Y-59126850D01*
X68999961Y-59116806D01*
X68990824Y-59106236D01*
X68981720Y-59095195D01*
X68972694Y-59083737D01*
X68963793Y-59071917D01*
X68955061Y-59059790D01*
X68946544Y-59047412D01*
X68938288Y-59034836D01*
X68930337Y-59022117D01*
X68922738Y-59009310D01*
X68917844Y-59000528D01*
X68913352Y-58991921D01*
X68909267Y-58983506D01*
X68905595Y-58975300D01*
X68902340Y-58967322D01*
X68899508Y-58959589D01*
X68897104Y-58952119D01*
X68895133Y-58944928D01*
X68893600Y-58938035D01*
X68892511Y-58931458D01*
X68891870Y-58925213D01*
X68891682Y-58919319D01*
X68891954Y-58913792D01*
X68892264Y-58911173D01*
X68892690Y-58908651D01*
X68893233Y-58906231D01*
X68893895Y-58903913D01*
X68894675Y-58901701D01*
X68895574Y-58899596D01*
X68896784Y-58897295D01*
X68898289Y-58895025D01*
X68900081Y-58892793D01*
X68902150Y-58890606D01*
X68904485Y-58888471D01*
X68907077Y-58886394D01*
X68909916Y-58884382D01*
X68912992Y-58882442D01*
X68916296Y-58880581D01*
X68919817Y-58878805D01*
X68923546Y-58877121D01*
X68927473Y-58875536D01*
X68931588Y-58874056D01*
X68935881Y-58872688D01*
X68940343Y-58871439D01*
X68944963Y-58870316D01*
X68951136Y-58869051D01*
X68957518Y-58868039D01*
X68964163Y-58867281D01*
X68971124Y-58866782D01*
X68978452Y-58866546D01*
X68986201Y-58866576D01*
G37*
D11*
X68600000Y-50100828D02*
X68600000Y-49100828D01*
X68600000Y-49243685D02*
X68528571Y-49172257D01*
X68528571Y-49172257D02*
X68385714Y-49100828D01*
X68385714Y-49100828D02*
X68171428Y-49100828D01*
X68171428Y-49100828D02*
X68028571Y-49172257D01*
X68028571Y-49172257D02*
X67957143Y-49315114D01*
X67957143Y-49315114D02*
X67957143Y-50100828D01*
X67957143Y-49315114D02*
X67885714Y-49172257D01*
X67885714Y-49172257D02*
X67742857Y-49100828D01*
X67742857Y-49100828D02*
X67528571Y-49100828D01*
X67528571Y-49100828D02*
X67385714Y-49172257D01*
X67385714Y-49172257D02*
X67314285Y-49315114D01*
X67314285Y-49315114D02*
X67314285Y-50100828D01*
X66742857Y-50100828D02*
X65957143Y-49100828D01*
X66742857Y-49100828D02*
X65957143Y-50100828D01*
X65385714Y-50100828D02*
X65385714Y-48600828D01*
X65385714Y-49315114D02*
X64528571Y-49315114D01*
X64528571Y-50100828D02*
X64528571Y-48600828D01*
X63599999Y-50100828D02*
X63742856Y-50029400D01*
X63742856Y-50029400D02*
X63814285Y-49957971D01*
X63814285Y-49957971D02*
X63885713Y-49815114D01*
X63885713Y-49815114D02*
X63885713Y-49386542D01*
X63885713Y-49386542D02*
X63814285Y-49243685D01*
X63814285Y-49243685D02*
X63742856Y-49172257D01*
X63742856Y-49172257D02*
X63599999Y-49100828D01*
X63599999Y-49100828D02*
X63385713Y-49100828D01*
X63385713Y-49100828D02*
X63242856Y-49172257D01*
X63242856Y-49172257D02*
X63171428Y-49243685D01*
X63171428Y-49243685D02*
X63099999Y-49386542D01*
X63099999Y-49386542D02*
X63099999Y-49815114D01*
X63099999Y-49815114D02*
X63171428Y-49957971D01*
X63171428Y-49957971D02*
X63242856Y-50029400D01*
X63242856Y-50029400D02*
X63385713Y-50100828D01*
X63385713Y-50100828D02*
X63599999Y-50100828D01*
X61814285Y-49100828D02*
X61814285Y-50100828D01*
X62457142Y-49100828D02*
X62457142Y-49886542D01*
X62457142Y-49886542D02*
X62385713Y-50029400D01*
X62385713Y-50029400D02*
X62242856Y-50100828D01*
X62242856Y-50100828D02*
X62028570Y-50100828D01*
X62028570Y-50100828D02*
X61885713Y-50029400D01*
X61885713Y-50029400D02*
X61814285Y-49957971D01*
X61099999Y-49100828D02*
X61099999Y-50100828D01*
X61099999Y-49243685D02*
X61028570Y-49172257D01*
X61028570Y-49172257D02*
X60885713Y-49100828D01*
X60885713Y-49100828D02*
X60671427Y-49100828D01*
X60671427Y-49100828D02*
X60528570Y-49172257D01*
X60528570Y-49172257D02*
X60457142Y-49315114D01*
X60457142Y-49315114D02*
X60457142Y-50100828D01*
X59099999Y-50100828D02*
X59099999Y-48600828D01*
X59099999Y-50029400D02*
X59242856Y-50100828D01*
X59242856Y-50100828D02*
X59528570Y-50100828D01*
X59528570Y-50100828D02*
X59671427Y-50029400D01*
X59671427Y-50029400D02*
X59742856Y-49957971D01*
X59742856Y-49957971D02*
X59814284Y-49815114D01*
X59814284Y-49815114D02*
X59814284Y-49386542D01*
X59814284Y-49386542D02*
X59742856Y-49243685D01*
X59742856Y-49243685D02*
X59671427Y-49172257D01*
X59671427Y-49172257D02*
X59528570Y-49100828D01*
X59528570Y-49100828D02*
X59242856Y-49100828D01*
X59242856Y-49100828D02*
X59099999Y-49172257D01*
D12*
X68885713Y-51280640D02*
X68885713Y-50530640D01*
X68885713Y-50530640D02*
X68635713Y-51066354D01*
X68635713Y-51066354D02*
X68385713Y-50530640D01*
X68385713Y-50530640D02*
X68385713Y-51280640D01*
X68099999Y-50530640D02*
X67599999Y-51280640D01*
X67599999Y-50530640D02*
X68099999Y-51280640D01*
X66742855Y-51280640D02*
X66742855Y-50780640D01*
X66742855Y-50923497D02*
X66707141Y-50852068D01*
X66707141Y-50852068D02*
X66671427Y-50816354D01*
X66671427Y-50816354D02*
X66599998Y-50780640D01*
X66599998Y-50780640D02*
X66528569Y-50780640D01*
X65992855Y-51244926D02*
X66064283Y-51280640D01*
X66064283Y-51280640D02*
X66207141Y-51280640D01*
X66207141Y-51280640D02*
X66278569Y-51244926D01*
X66278569Y-51244926D02*
X66314283Y-51173497D01*
X66314283Y-51173497D02*
X66314283Y-50887783D01*
X66314283Y-50887783D02*
X66278569Y-50816354D01*
X66278569Y-50816354D02*
X66207141Y-50780640D01*
X66207141Y-50780640D02*
X66064283Y-50780640D01*
X66064283Y-50780640D02*
X65992855Y-50816354D01*
X65992855Y-50816354D02*
X65957141Y-50887783D01*
X65957141Y-50887783D02*
X65957141Y-50959211D01*
X65957141Y-50959211D02*
X66314283Y-51030640D01*
X65528569Y-51280640D02*
X65599998Y-51244926D01*
X65599998Y-51244926D02*
X65635712Y-51173497D01*
X65635712Y-51173497D02*
X65635712Y-50530640D01*
X65135712Y-51280640D02*
X65207141Y-51244926D01*
X65207141Y-51244926D02*
X65242855Y-51209211D01*
X65242855Y-51209211D02*
X65278569Y-51137783D01*
X65278569Y-51137783D02*
X65278569Y-50923497D01*
X65278569Y-50923497D02*
X65242855Y-50852068D01*
X65242855Y-50852068D02*
X65207141Y-50816354D01*
X65207141Y-50816354D02*
X65135712Y-50780640D01*
X65135712Y-50780640D02*
X65028569Y-50780640D01*
X65028569Y-50780640D02*
X64957141Y-50816354D01*
X64957141Y-50816354D02*
X64921427Y-50852068D01*
X64921427Y-50852068D02*
X64885712Y-50923497D01*
X64885712Y-50923497D02*
X64885712Y-51137783D01*
X64885712Y-51137783D02*
X64921427Y-51209211D01*
X64921427Y-51209211D02*
X64957141Y-51244926D01*
X64957141Y-51244926D02*
X65028569Y-51280640D01*
X65028569Y-51280640D02*
X65135712Y-51280640D01*
X64242856Y-51244926D02*
X64314284Y-51280640D01*
X64314284Y-51280640D02*
X64457141Y-51280640D01*
X64457141Y-51280640D02*
X64528570Y-51244926D01*
X64528570Y-51244926D02*
X64564284Y-51209211D01*
X64564284Y-51209211D02*
X64599998Y-51137783D01*
X64599998Y-51137783D02*
X64599998Y-50923497D01*
X64599998Y-50923497D02*
X64564284Y-50852068D01*
X64564284Y-50852068D02*
X64528570Y-50816354D01*
X64528570Y-50816354D02*
X64457141Y-50780640D01*
X64457141Y-50780640D02*
X64314284Y-50780640D01*
X64314284Y-50780640D02*
X64242856Y-50816354D01*
X63599999Y-51280640D02*
X63599999Y-50887783D01*
X63599999Y-50887783D02*
X63635713Y-50816354D01*
X63635713Y-50816354D02*
X63707141Y-50780640D01*
X63707141Y-50780640D02*
X63849999Y-50780640D01*
X63849999Y-50780640D02*
X63921427Y-50816354D01*
X63599999Y-51244926D02*
X63671427Y-51280640D01*
X63671427Y-51280640D02*
X63849999Y-51280640D01*
X63849999Y-51280640D02*
X63921427Y-51244926D01*
X63921427Y-51244926D02*
X63957141Y-51173497D01*
X63957141Y-51173497D02*
X63957141Y-51102068D01*
X63957141Y-51102068D02*
X63921427Y-51030640D01*
X63921427Y-51030640D02*
X63849999Y-50994926D01*
X63849999Y-50994926D02*
X63671427Y-50994926D01*
X63671427Y-50994926D02*
X63599999Y-50959211D01*
X63349999Y-50780640D02*
X63064285Y-50780640D01*
X63242856Y-50530640D02*
X63242856Y-51173497D01*
X63242856Y-51173497D02*
X63207142Y-51244926D01*
X63207142Y-51244926D02*
X63135713Y-51280640D01*
X63135713Y-51280640D02*
X63064285Y-51280640D01*
X62814285Y-51280640D02*
X62814285Y-50780640D01*
X62814285Y-50530640D02*
X62849999Y-50566354D01*
X62849999Y-50566354D02*
X62814285Y-50602068D01*
X62814285Y-50602068D02*
X62778571Y-50566354D01*
X62778571Y-50566354D02*
X62814285Y-50530640D01*
X62814285Y-50530640D02*
X62814285Y-50602068D01*
X62349999Y-51280640D02*
X62421428Y-51244926D01*
X62421428Y-51244926D02*
X62457142Y-51209211D01*
X62457142Y-51209211D02*
X62492856Y-51137783D01*
X62492856Y-51137783D02*
X62492856Y-50923497D01*
X62492856Y-50923497D02*
X62457142Y-50852068D01*
X62457142Y-50852068D02*
X62421428Y-50816354D01*
X62421428Y-50816354D02*
X62349999Y-50780640D01*
X62349999Y-50780640D02*
X62242856Y-50780640D01*
X62242856Y-50780640D02*
X62171428Y-50816354D01*
X62171428Y-50816354D02*
X62135714Y-50852068D01*
X62135714Y-50852068D02*
X62099999Y-50923497D01*
X62099999Y-50923497D02*
X62099999Y-51137783D01*
X62099999Y-51137783D02*
X62135714Y-51209211D01*
X62135714Y-51209211D02*
X62171428Y-51244926D01*
X62171428Y-51244926D02*
X62242856Y-51280640D01*
X62242856Y-51280640D02*
X62349999Y-51280640D01*
X61778571Y-50780640D02*
X61778571Y-51280640D01*
X61778571Y-50852068D02*
X61742857Y-50816354D01*
X61742857Y-50816354D02*
X61671428Y-50780640D01*
X61671428Y-50780640D02*
X61564285Y-50780640D01*
X61564285Y-50780640D02*
X61492857Y-50816354D01*
X61492857Y-50816354D02*
X61457143Y-50887783D01*
X61457143Y-50887783D02*
X61457143Y-51280640D01*
X60635714Y-50780640D02*
X60350000Y-50780640D01*
X60528571Y-51280640D02*
X60528571Y-50637783D01*
X60528571Y-50637783D02*
X60492857Y-50566354D01*
X60492857Y-50566354D02*
X60421428Y-50530640D01*
X60421428Y-50530640D02*
X60350000Y-50530640D01*
X59992857Y-51280640D02*
X60064286Y-51244926D01*
X60064286Y-51244926D02*
X60100000Y-51173497D01*
X60100000Y-51173497D02*
X60100000Y-50530640D01*
X59421429Y-51244926D02*
X59492857Y-51280640D01*
X59492857Y-51280640D02*
X59635715Y-51280640D01*
X59635715Y-51280640D02*
X59707143Y-51244926D01*
X59707143Y-51244926D02*
X59742857Y-51173497D01*
X59742857Y-51173497D02*
X59742857Y-50887783D01*
X59742857Y-50887783D02*
X59707143Y-50816354D01*
X59707143Y-50816354D02*
X59635715Y-50780640D01*
X59635715Y-50780640D02*
X59492857Y-50780640D01*
X59492857Y-50780640D02*
X59421429Y-50816354D01*
X59421429Y-50816354D02*
X59385715Y-50887783D01*
X59385715Y-50887783D02*
X59385715Y-50959211D01*
X59385715Y-50959211D02*
X59742857Y-51030640D01*
X59135715Y-51280640D02*
X58742858Y-50780640D01*
X59135715Y-50780640D02*
X58742858Y-51280640D01*
X69457142Y-52416669D02*
X69492856Y-52452384D01*
X69492856Y-52452384D02*
X69599999Y-52488098D01*
X69599999Y-52488098D02*
X69671427Y-52488098D01*
X69671427Y-52488098D02*
X69778570Y-52452384D01*
X69778570Y-52452384D02*
X69849999Y-52380955D01*
X69849999Y-52380955D02*
X69885713Y-52309526D01*
X69885713Y-52309526D02*
X69921427Y-52166669D01*
X69921427Y-52166669D02*
X69921427Y-52059526D01*
X69921427Y-52059526D02*
X69885713Y-51916669D01*
X69885713Y-51916669D02*
X69849999Y-51845241D01*
X69849999Y-51845241D02*
X69778570Y-51773812D01*
X69778570Y-51773812D02*
X69671427Y-51738098D01*
X69671427Y-51738098D02*
X69599999Y-51738098D01*
X69599999Y-51738098D02*
X69492856Y-51773812D01*
X69492856Y-51773812D02*
X69457142Y-51809526D01*
X69135713Y-52488098D02*
X69135713Y-51988098D01*
X69135713Y-52130955D02*
X69099999Y-52059526D01*
X69099999Y-52059526D02*
X69064285Y-52023812D01*
X69064285Y-52023812D02*
X68992856Y-51988098D01*
X68992856Y-51988098D02*
X68921427Y-51988098D01*
X68385713Y-52452384D02*
X68457141Y-52488098D01*
X68457141Y-52488098D02*
X68599999Y-52488098D01*
X68599999Y-52488098D02*
X68671427Y-52452384D01*
X68671427Y-52452384D02*
X68707141Y-52380955D01*
X68707141Y-52380955D02*
X68707141Y-52095241D01*
X68707141Y-52095241D02*
X68671427Y-52023812D01*
X68671427Y-52023812D02*
X68599999Y-51988098D01*
X68599999Y-51988098D02*
X68457141Y-51988098D01*
X68457141Y-51988098D02*
X68385713Y-52023812D01*
X68385713Y-52023812D02*
X68349999Y-52095241D01*
X68349999Y-52095241D02*
X68349999Y-52166669D01*
X68349999Y-52166669D02*
X68707141Y-52238098D01*
X67707142Y-52488098D02*
X67707142Y-52095241D01*
X67707142Y-52095241D02*
X67742856Y-52023812D01*
X67742856Y-52023812D02*
X67814284Y-51988098D01*
X67814284Y-51988098D02*
X67957142Y-51988098D01*
X67957142Y-51988098D02*
X68028570Y-52023812D01*
X67707142Y-52452384D02*
X67778570Y-52488098D01*
X67778570Y-52488098D02*
X67957142Y-52488098D01*
X67957142Y-52488098D02*
X68028570Y-52452384D01*
X68028570Y-52452384D02*
X68064284Y-52380955D01*
X68064284Y-52380955D02*
X68064284Y-52309526D01*
X68064284Y-52309526D02*
X68028570Y-52238098D01*
X68028570Y-52238098D02*
X67957142Y-52202384D01*
X67957142Y-52202384D02*
X67778570Y-52202384D01*
X67778570Y-52202384D02*
X67707142Y-52166669D01*
X67457142Y-51988098D02*
X67171428Y-51988098D01*
X67349999Y-51738098D02*
X67349999Y-52380955D01*
X67349999Y-52380955D02*
X67314285Y-52452384D01*
X67314285Y-52452384D02*
X67242856Y-52488098D01*
X67242856Y-52488098D02*
X67171428Y-52488098D01*
X66635714Y-52452384D02*
X66707142Y-52488098D01*
X66707142Y-52488098D02*
X66850000Y-52488098D01*
X66850000Y-52488098D02*
X66921428Y-52452384D01*
X66921428Y-52452384D02*
X66957142Y-52380955D01*
X66957142Y-52380955D02*
X66957142Y-52095241D01*
X66957142Y-52095241D02*
X66921428Y-52023812D01*
X66921428Y-52023812D02*
X66850000Y-51988098D01*
X66850000Y-51988098D02*
X66707142Y-51988098D01*
X66707142Y-51988098D02*
X66635714Y-52023812D01*
X66635714Y-52023812D02*
X66600000Y-52095241D01*
X66600000Y-52095241D02*
X66600000Y-52166669D01*
X66600000Y-52166669D02*
X66957142Y-52238098D01*
X65957143Y-52488098D02*
X65957143Y-51738098D01*
X65957143Y-52452384D02*
X66028571Y-52488098D01*
X66028571Y-52488098D02*
X66171428Y-52488098D01*
X66171428Y-52488098D02*
X66242857Y-52452384D01*
X66242857Y-52452384D02*
X66278571Y-52416669D01*
X66278571Y-52416669D02*
X66314285Y-52345241D01*
X66314285Y-52345241D02*
X66314285Y-52130955D01*
X66314285Y-52130955D02*
X66278571Y-52059526D01*
X66278571Y-52059526D02*
X66242857Y-52023812D01*
X66242857Y-52023812D02*
X66171428Y-51988098D01*
X66171428Y-51988098D02*
X66028571Y-51988098D01*
X66028571Y-51988098D02*
X65957143Y-52023812D01*
X65028571Y-52488098D02*
X65028571Y-51738098D01*
X65028571Y-52023812D02*
X64957143Y-51988098D01*
X64957143Y-51988098D02*
X64814285Y-51988098D01*
X64814285Y-51988098D02*
X64742857Y-52023812D01*
X64742857Y-52023812D02*
X64707143Y-52059526D01*
X64707143Y-52059526D02*
X64671428Y-52130955D01*
X64671428Y-52130955D02*
X64671428Y-52345241D01*
X64671428Y-52345241D02*
X64707143Y-52416669D01*
X64707143Y-52416669D02*
X64742857Y-52452384D01*
X64742857Y-52452384D02*
X64814285Y-52488098D01*
X64814285Y-52488098D02*
X64957143Y-52488098D01*
X64957143Y-52488098D02*
X65028571Y-52452384D01*
X64421429Y-51988098D02*
X64242857Y-52488098D01*
X64064286Y-51988098D02*
X64242857Y-52488098D01*
X64242857Y-52488098D02*
X64314286Y-52666669D01*
X64314286Y-52666669D02*
X64350000Y-52702384D01*
X64350000Y-52702384D02*
X64421429Y-52738098D01*
X62742856Y-52130955D02*
X62778571Y-52095241D01*
X62778571Y-52095241D02*
X62849999Y-52059526D01*
X62849999Y-52059526D02*
X62921428Y-52059526D01*
X62921428Y-52059526D02*
X62992856Y-52095241D01*
X62992856Y-52095241D02*
X63028571Y-52130955D01*
X63028571Y-52130955D02*
X63064285Y-52202384D01*
X63064285Y-52202384D02*
X63064285Y-52273812D01*
X63064285Y-52273812D02*
X63028571Y-52345241D01*
X63028571Y-52345241D02*
X62992856Y-52380955D01*
X62992856Y-52380955D02*
X62921428Y-52416669D01*
X62921428Y-52416669D02*
X62849999Y-52416669D01*
X62849999Y-52416669D02*
X62778571Y-52380955D01*
X62778571Y-52380955D02*
X62742856Y-52345241D01*
X62742856Y-52059526D02*
X62742856Y-52345241D01*
X62742856Y-52345241D02*
X62707142Y-52380955D01*
X62707142Y-52380955D02*
X62671428Y-52380955D01*
X62671428Y-52380955D02*
X62599999Y-52345241D01*
X62599999Y-52345241D02*
X62564285Y-52273812D01*
X62564285Y-52273812D02*
X62564285Y-52095241D01*
X62564285Y-52095241D02*
X62635714Y-51988098D01*
X62635714Y-51988098D02*
X62742856Y-51916669D01*
X62742856Y-51916669D02*
X62885714Y-51880955D01*
X62885714Y-51880955D02*
X63028571Y-51916669D01*
X63028571Y-51916669D02*
X63135714Y-51988098D01*
X63135714Y-51988098D02*
X63207142Y-52095241D01*
X63207142Y-52095241D02*
X63242856Y-52238098D01*
X63242856Y-52238098D02*
X63207142Y-52380955D01*
X63207142Y-52380955D02*
X63135714Y-52488098D01*
X63135714Y-52488098D02*
X63028571Y-52559526D01*
X63028571Y-52559526D02*
X62885714Y-52595241D01*
X62885714Y-52595241D02*
X62742856Y-52559526D01*
X62742856Y-52559526D02*
X62635714Y-52488098D01*
X62349999Y-51738098D02*
X62099999Y-52488098D01*
X62099999Y-52488098D02*
X61849999Y-51738098D01*
X61492856Y-52488098D02*
X61564285Y-52452384D01*
X61564285Y-52452384D02*
X61599999Y-52416669D01*
X61599999Y-52416669D02*
X61635713Y-52345241D01*
X61635713Y-52345241D02*
X61635713Y-52130955D01*
X61635713Y-52130955D02*
X61599999Y-52059526D01*
X61599999Y-52059526D02*
X61564285Y-52023812D01*
X61564285Y-52023812D02*
X61492856Y-51988098D01*
X61492856Y-51988098D02*
X61385713Y-51988098D01*
X61385713Y-51988098D02*
X61314285Y-52023812D01*
X61314285Y-52023812D02*
X61278571Y-52059526D01*
X61278571Y-52059526D02*
X61242856Y-52130955D01*
X61242856Y-52130955D02*
X61242856Y-52345241D01*
X61242856Y-52345241D02*
X61278571Y-52416669D01*
X61278571Y-52416669D02*
X61314285Y-52452384D01*
X61314285Y-52452384D02*
X61385713Y-52488098D01*
X61385713Y-52488098D02*
X61492856Y-52488098D01*
X60992857Y-52488098D02*
X60600000Y-51988098D01*
X60992857Y-51988098D02*
X60600000Y-52488098D01*
X60028571Y-52452384D02*
X60099999Y-52488098D01*
X60099999Y-52488098D02*
X60242857Y-52488098D01*
X60242857Y-52488098D02*
X60314285Y-52452384D01*
X60314285Y-52452384D02*
X60349999Y-52380955D01*
X60349999Y-52380955D02*
X60349999Y-52095241D01*
X60349999Y-52095241D02*
X60314285Y-52023812D01*
X60314285Y-52023812D02*
X60242857Y-51988098D01*
X60242857Y-51988098D02*
X60099999Y-51988098D01*
X60099999Y-51988098D02*
X60028571Y-52023812D01*
X60028571Y-52023812D02*
X59992857Y-52095241D01*
X59992857Y-52095241D02*
X59992857Y-52166669D01*
X59992857Y-52166669D02*
X60349999Y-52238098D01*
X59564285Y-52488098D02*
X59635714Y-52452384D01*
X59635714Y-52452384D02*
X59671428Y-52380955D01*
X59671428Y-52380955D02*
X59671428Y-51738098D01*
X59385714Y-51738098D02*
X58957143Y-51738098D01*
X59171428Y-52488098D02*
X59171428Y-51738098D01*
X58421428Y-52452384D02*
X58492856Y-52488098D01*
X58492856Y-52488098D02*
X58635714Y-52488098D01*
X58635714Y-52488098D02*
X58707142Y-52452384D01*
X58707142Y-52452384D02*
X58742856Y-52380955D01*
X58742856Y-52380955D02*
X58742856Y-52095241D01*
X58742856Y-52095241D02*
X58707142Y-52023812D01*
X58707142Y-52023812D02*
X58635714Y-51988098D01*
X58635714Y-51988098D02*
X58492856Y-51988098D01*
X58492856Y-51988098D02*
X58421428Y-52023812D01*
X58421428Y-52023812D02*
X58385714Y-52095241D01*
X58385714Y-52095241D02*
X58385714Y-52166669D01*
X58385714Y-52166669D02*
X58742856Y-52238098D01*
X58064285Y-52488098D02*
X58064285Y-51738098D01*
X57992857Y-52202384D02*
X57778571Y-52488098D01*
X57778571Y-51988098D02*
X58064285Y-52273812D01*
X68242856Y-52945556D02*
X68064284Y-53695556D01*
X68064284Y-53695556D02*
X67921427Y-53159842D01*
X67921427Y-53159842D02*
X67778570Y-53695556D01*
X67778570Y-53695556D02*
X67599999Y-52945556D01*
X67314284Y-53695556D02*
X67314284Y-53195556D01*
X67314284Y-52945556D02*
X67349998Y-52981270D01*
X67349998Y-52981270D02*
X67314284Y-53016984D01*
X67314284Y-53016984D02*
X67278570Y-52981270D01*
X67278570Y-52981270D02*
X67314284Y-52945556D01*
X67314284Y-52945556D02*
X67314284Y-53016984D01*
X67064284Y-53195556D02*
X66778570Y-53195556D01*
X66957141Y-52945556D02*
X66957141Y-53588413D01*
X66957141Y-53588413D02*
X66921427Y-53659842D01*
X66921427Y-53659842D02*
X66849998Y-53695556D01*
X66849998Y-53695556D02*
X66778570Y-53695556D01*
X66528570Y-53695556D02*
X66528570Y-52945556D01*
X66207142Y-53695556D02*
X66207142Y-53302699D01*
X66207142Y-53302699D02*
X66242856Y-53231270D01*
X66242856Y-53231270D02*
X66314284Y-53195556D01*
X66314284Y-53195556D02*
X66421427Y-53195556D01*
X66421427Y-53195556D02*
X66492856Y-53231270D01*
X66492856Y-53231270D02*
X66528570Y-53266984D01*
X65278570Y-53695556D02*
X65278570Y-52945556D01*
X64957142Y-53695556D02*
X64957142Y-53302699D01*
X64957142Y-53302699D02*
X64992856Y-53231270D01*
X64992856Y-53231270D02*
X65064284Y-53195556D01*
X65064284Y-53195556D02*
X65171427Y-53195556D01*
X65171427Y-53195556D02*
X65242856Y-53231270D01*
X65242856Y-53231270D02*
X65278570Y-53266984D01*
X64314285Y-53659842D02*
X64385713Y-53695556D01*
X64385713Y-53695556D02*
X64528571Y-53695556D01*
X64528571Y-53695556D02*
X64599999Y-53659842D01*
X64599999Y-53659842D02*
X64635713Y-53588413D01*
X64635713Y-53588413D02*
X64635713Y-53302699D01*
X64635713Y-53302699D02*
X64599999Y-53231270D01*
X64599999Y-53231270D02*
X64528571Y-53195556D01*
X64528571Y-53195556D02*
X64385713Y-53195556D01*
X64385713Y-53195556D02*
X64314285Y-53231270D01*
X64314285Y-53231270D02*
X64278571Y-53302699D01*
X64278571Y-53302699D02*
X64278571Y-53374127D01*
X64278571Y-53374127D02*
X64635713Y-53445556D01*
X63849999Y-53695556D02*
X63921428Y-53659842D01*
X63921428Y-53659842D02*
X63957142Y-53588413D01*
X63957142Y-53588413D02*
X63957142Y-52945556D01*
X63564285Y-53195556D02*
X63564285Y-53945556D01*
X63564285Y-53231270D02*
X63492857Y-53195556D01*
X63492857Y-53195556D02*
X63349999Y-53195556D01*
X63349999Y-53195556D02*
X63278571Y-53231270D01*
X63278571Y-53231270D02*
X63242857Y-53266984D01*
X63242857Y-53266984D02*
X63207142Y-53338413D01*
X63207142Y-53338413D02*
X63207142Y-53552699D01*
X63207142Y-53552699D02*
X63242857Y-53624127D01*
X63242857Y-53624127D02*
X63278571Y-53659842D01*
X63278571Y-53659842D02*
X63349999Y-53695556D01*
X63349999Y-53695556D02*
X63492857Y-53695556D01*
X63492857Y-53695556D02*
X63564285Y-53659842D01*
X62421428Y-53195556D02*
X62135714Y-53195556D01*
X62314285Y-53695556D02*
X62314285Y-53052699D01*
X62314285Y-53052699D02*
X62278571Y-52981270D01*
X62278571Y-52981270D02*
X62207142Y-52945556D01*
X62207142Y-52945556D02*
X62135714Y-52945556D01*
X61885714Y-53695556D02*
X61885714Y-53195556D01*
X61885714Y-53338413D02*
X61850000Y-53266984D01*
X61850000Y-53266984D02*
X61814286Y-53231270D01*
X61814286Y-53231270D02*
X61742857Y-53195556D01*
X61742857Y-53195556D02*
X61671428Y-53195556D01*
X61314285Y-53695556D02*
X61385714Y-53659842D01*
X61385714Y-53659842D02*
X61421428Y-53624127D01*
X61421428Y-53624127D02*
X61457142Y-53552699D01*
X61457142Y-53552699D02*
X61457142Y-53338413D01*
X61457142Y-53338413D02*
X61421428Y-53266984D01*
X61421428Y-53266984D02*
X61385714Y-53231270D01*
X61385714Y-53231270D02*
X61314285Y-53195556D01*
X61314285Y-53195556D02*
X61207142Y-53195556D01*
X61207142Y-53195556D02*
X61135714Y-53231270D01*
X61135714Y-53231270D02*
X61100000Y-53266984D01*
X61100000Y-53266984D02*
X61064285Y-53338413D01*
X61064285Y-53338413D02*
X61064285Y-53552699D01*
X61064285Y-53552699D02*
X61100000Y-53624127D01*
X61100000Y-53624127D02*
X61135714Y-53659842D01*
X61135714Y-53659842D02*
X61207142Y-53695556D01*
X61207142Y-53695556D02*
X61314285Y-53695556D01*
X60742857Y-53695556D02*
X60742857Y-53195556D01*
X60742857Y-53266984D02*
X60707143Y-53231270D01*
X60707143Y-53231270D02*
X60635714Y-53195556D01*
X60635714Y-53195556D02*
X60528571Y-53195556D01*
X60528571Y-53195556D02*
X60457143Y-53231270D01*
X60457143Y-53231270D02*
X60421429Y-53302699D01*
X60421429Y-53302699D02*
X60421429Y-53695556D01*
X60421429Y-53302699D02*
X60385714Y-53231270D01*
X60385714Y-53231270D02*
X60314286Y-53195556D01*
X60314286Y-53195556D02*
X60207143Y-53195556D01*
X60207143Y-53195556D02*
X60135714Y-53231270D01*
X60135714Y-53231270D02*
X60100000Y-53302699D01*
X60100000Y-53302699D02*
X60100000Y-53695556D01*
X70421427Y-54545871D02*
X70457142Y-54510157D01*
X70457142Y-54510157D02*
X70528570Y-54474442D01*
X70528570Y-54474442D02*
X70599999Y-54474442D01*
X70599999Y-54474442D02*
X70671427Y-54510157D01*
X70671427Y-54510157D02*
X70707142Y-54545871D01*
X70707142Y-54545871D02*
X70742856Y-54617300D01*
X70742856Y-54617300D02*
X70742856Y-54688728D01*
X70742856Y-54688728D02*
X70707142Y-54760157D01*
X70707142Y-54760157D02*
X70671427Y-54795871D01*
X70671427Y-54795871D02*
X70599999Y-54831585D01*
X70599999Y-54831585D02*
X70528570Y-54831585D01*
X70528570Y-54831585D02*
X70457142Y-54795871D01*
X70457142Y-54795871D02*
X70421427Y-54760157D01*
X70421427Y-54474442D02*
X70421427Y-54760157D01*
X70421427Y-54760157D02*
X70385713Y-54795871D01*
X70385713Y-54795871D02*
X70349999Y-54795871D01*
X70349999Y-54795871D02*
X70278570Y-54760157D01*
X70278570Y-54760157D02*
X70242856Y-54688728D01*
X70242856Y-54688728D02*
X70242856Y-54510157D01*
X70242856Y-54510157D02*
X70314285Y-54403014D01*
X70314285Y-54403014D02*
X70421427Y-54331585D01*
X70421427Y-54331585D02*
X70564285Y-54295871D01*
X70564285Y-54295871D02*
X70707142Y-54331585D01*
X70707142Y-54331585D02*
X70814285Y-54403014D01*
X70814285Y-54403014D02*
X70885713Y-54510157D01*
X70885713Y-54510157D02*
X70921427Y-54653014D01*
X70921427Y-54653014D02*
X70885713Y-54795871D01*
X70885713Y-54795871D02*
X70814285Y-54903014D01*
X70814285Y-54903014D02*
X70707142Y-54974442D01*
X70707142Y-54974442D02*
X70564285Y-55010157D01*
X70564285Y-55010157D02*
X70421427Y-54974442D01*
X70421427Y-54974442D02*
X70314285Y-54903014D01*
X69778570Y-54545871D02*
X69778570Y-54903014D01*
X70028570Y-54153014D02*
X69778570Y-54545871D01*
X69778570Y-54545871D02*
X69528570Y-54153014D01*
X69314284Y-54224442D02*
X69278570Y-54188728D01*
X69278570Y-54188728D02*
X69207142Y-54153014D01*
X69207142Y-54153014D02*
X69028570Y-54153014D01*
X69028570Y-54153014D02*
X68957142Y-54188728D01*
X68957142Y-54188728D02*
X68921427Y-54224442D01*
X68921427Y-54224442D02*
X68885713Y-54295871D01*
X68885713Y-54295871D02*
X68885713Y-54367300D01*
X68885713Y-54367300D02*
X68921427Y-54474442D01*
X68921427Y-54474442D02*
X69349999Y-54903014D01*
X69349999Y-54903014D02*
X68885713Y-54903014D01*
X68564284Y-54903014D02*
X68564284Y-54153014D01*
X68135713Y-54903014D02*
X68457141Y-54474442D01*
X68135713Y-54153014D02*
X68564284Y-54581585D01*
X66921427Y-54903014D02*
X66921427Y-54510157D01*
X66921427Y-54510157D02*
X66957141Y-54438728D01*
X66957141Y-54438728D02*
X67028569Y-54403014D01*
X67028569Y-54403014D02*
X67171427Y-54403014D01*
X67171427Y-54403014D02*
X67242855Y-54438728D01*
X66921427Y-54867300D02*
X66992855Y-54903014D01*
X66992855Y-54903014D02*
X67171427Y-54903014D01*
X67171427Y-54903014D02*
X67242855Y-54867300D01*
X67242855Y-54867300D02*
X67278569Y-54795871D01*
X67278569Y-54795871D02*
X67278569Y-54724442D01*
X67278569Y-54724442D02*
X67242855Y-54653014D01*
X67242855Y-54653014D02*
X67171427Y-54617300D01*
X67171427Y-54617300D02*
X66992855Y-54617300D01*
X66992855Y-54617300D02*
X66921427Y-54581585D01*
X66564284Y-54403014D02*
X66564284Y-54903014D01*
X66564284Y-54474442D02*
X66528570Y-54438728D01*
X66528570Y-54438728D02*
X66457141Y-54403014D01*
X66457141Y-54403014D02*
X66349998Y-54403014D01*
X66349998Y-54403014D02*
X66278570Y-54438728D01*
X66278570Y-54438728D02*
X66242856Y-54510157D01*
X66242856Y-54510157D02*
X66242856Y-54903014D01*
X65564285Y-54903014D02*
X65564285Y-54153014D01*
X65564285Y-54867300D02*
X65635713Y-54903014D01*
X65635713Y-54903014D02*
X65778570Y-54903014D01*
X65778570Y-54903014D02*
X65849999Y-54867300D01*
X65849999Y-54867300D02*
X65885713Y-54831585D01*
X65885713Y-54831585D02*
X65921427Y-54760157D01*
X65921427Y-54760157D02*
X65921427Y-54545871D01*
X65921427Y-54545871D02*
X65885713Y-54474442D01*
X65885713Y-54474442D02*
X65849999Y-54438728D01*
X65849999Y-54438728D02*
X65778570Y-54403014D01*
X65778570Y-54403014D02*
X65635713Y-54403014D01*
X65635713Y-54403014D02*
X65564285Y-54438728D01*
X64171427Y-54545871D02*
X64207142Y-54510157D01*
X64207142Y-54510157D02*
X64278570Y-54474442D01*
X64278570Y-54474442D02*
X64349999Y-54474442D01*
X64349999Y-54474442D02*
X64421427Y-54510157D01*
X64421427Y-54510157D02*
X64457142Y-54545871D01*
X64457142Y-54545871D02*
X64492856Y-54617300D01*
X64492856Y-54617300D02*
X64492856Y-54688728D01*
X64492856Y-54688728D02*
X64457142Y-54760157D01*
X64457142Y-54760157D02*
X64421427Y-54795871D01*
X64421427Y-54795871D02*
X64349999Y-54831585D01*
X64349999Y-54831585D02*
X64278570Y-54831585D01*
X64278570Y-54831585D02*
X64207142Y-54795871D01*
X64207142Y-54795871D02*
X64171427Y-54760157D01*
X64171427Y-54474442D02*
X64171427Y-54760157D01*
X64171427Y-54760157D02*
X64135713Y-54795871D01*
X64135713Y-54795871D02*
X64099999Y-54795871D01*
X64099999Y-54795871D02*
X64028570Y-54760157D01*
X64028570Y-54760157D02*
X63992856Y-54688728D01*
X63992856Y-54688728D02*
X63992856Y-54510157D01*
X63992856Y-54510157D02*
X64064285Y-54403014D01*
X64064285Y-54403014D02*
X64171427Y-54331585D01*
X64171427Y-54331585D02*
X64314285Y-54295871D01*
X64314285Y-54295871D02*
X64457142Y-54331585D01*
X64457142Y-54331585D02*
X64564285Y-54403014D01*
X64564285Y-54403014D02*
X64635713Y-54510157D01*
X64635713Y-54510157D02*
X64671427Y-54653014D01*
X64671427Y-54653014D02*
X64635713Y-54795871D01*
X64635713Y-54795871D02*
X64564285Y-54903014D01*
X64564285Y-54903014D02*
X64457142Y-54974442D01*
X64457142Y-54974442D02*
X64314285Y-55010157D01*
X64314285Y-55010157D02*
X64171427Y-54974442D01*
X64171427Y-54974442D02*
X64064285Y-54903014D01*
X63528570Y-54545871D02*
X63528570Y-54903014D01*
X63778570Y-54153014D02*
X63528570Y-54545871D01*
X63528570Y-54545871D02*
X63278570Y-54153014D01*
X63099999Y-54403014D02*
X62921427Y-54903014D01*
X62921427Y-54903014D02*
X62742856Y-54403014D01*
X62171427Y-54867300D02*
X62242855Y-54903014D01*
X62242855Y-54903014D02*
X62385713Y-54903014D01*
X62385713Y-54903014D02*
X62457141Y-54867300D01*
X62457141Y-54867300D02*
X62492855Y-54795871D01*
X62492855Y-54795871D02*
X62492855Y-54510157D01*
X62492855Y-54510157D02*
X62457141Y-54438728D01*
X62457141Y-54438728D02*
X62385713Y-54403014D01*
X62385713Y-54403014D02*
X62242855Y-54403014D01*
X62242855Y-54403014D02*
X62171427Y-54438728D01*
X62171427Y-54438728D02*
X62135713Y-54510157D01*
X62135713Y-54510157D02*
X62135713Y-54581585D01*
X62135713Y-54581585D02*
X62492855Y-54653014D01*
X61707141Y-54903014D02*
X61778570Y-54867300D01*
X61778570Y-54867300D02*
X61814284Y-54795871D01*
X61814284Y-54795871D02*
X61814284Y-54153014D01*
X61528570Y-54403014D02*
X61242856Y-54403014D01*
X61421427Y-54153014D02*
X61421427Y-54795871D01*
X61421427Y-54795871D02*
X61385713Y-54867300D01*
X61385713Y-54867300D02*
X61314284Y-54903014D01*
X61314284Y-54903014D02*
X61242856Y-54903014D01*
X60671428Y-54903014D02*
X60671428Y-54510157D01*
X60671428Y-54510157D02*
X60707142Y-54438728D01*
X60707142Y-54438728D02*
X60778570Y-54403014D01*
X60778570Y-54403014D02*
X60921428Y-54403014D01*
X60921428Y-54403014D02*
X60992856Y-54438728D01*
X60671428Y-54867300D02*
X60742856Y-54903014D01*
X60742856Y-54903014D02*
X60921428Y-54903014D01*
X60921428Y-54903014D02*
X60992856Y-54867300D01*
X60992856Y-54867300D02*
X61028570Y-54795871D01*
X61028570Y-54795871D02*
X61028570Y-54724442D01*
X61028570Y-54724442D02*
X60992856Y-54653014D01*
X60992856Y-54653014D02*
X60921428Y-54617300D01*
X60921428Y-54617300D02*
X60742856Y-54617300D01*
X60742856Y-54617300D02*
X60671428Y-54581585D01*
X60207142Y-54903014D02*
X60278571Y-54867300D01*
X60278571Y-54867300D02*
X60314285Y-54795871D01*
X60314285Y-54795871D02*
X60314285Y-54153014D01*
X59528571Y-54188728D02*
X59600000Y-54153014D01*
X59600000Y-54153014D02*
X59707142Y-54153014D01*
X59707142Y-54153014D02*
X59814285Y-54188728D01*
X59814285Y-54188728D02*
X59885714Y-54260157D01*
X59885714Y-54260157D02*
X59921428Y-54331585D01*
X59921428Y-54331585D02*
X59957142Y-54474442D01*
X59957142Y-54474442D02*
X59957142Y-54581585D01*
X59957142Y-54581585D02*
X59921428Y-54724442D01*
X59921428Y-54724442D02*
X59885714Y-54795871D01*
X59885714Y-54795871D02*
X59814285Y-54867300D01*
X59814285Y-54867300D02*
X59707142Y-54903014D01*
X59707142Y-54903014D02*
X59635714Y-54903014D01*
X59635714Y-54903014D02*
X59528571Y-54867300D01*
X59528571Y-54867300D02*
X59492857Y-54831585D01*
X59492857Y-54831585D02*
X59492857Y-54581585D01*
X59492857Y-54581585D02*
X59635714Y-54581585D01*
X59171428Y-54903014D02*
X59171428Y-54403014D01*
X59171428Y-54545871D02*
X59135714Y-54474442D01*
X59135714Y-54474442D02*
X59100000Y-54438728D01*
X59100000Y-54438728D02*
X59028571Y-54403014D01*
X59028571Y-54403014D02*
X58957142Y-54403014D01*
X58707142Y-54903014D02*
X58707142Y-54403014D01*
X58707142Y-54153014D02*
X58742856Y-54188728D01*
X58742856Y-54188728D02*
X58707142Y-54224442D01*
X58707142Y-54224442D02*
X58671428Y-54188728D01*
X58671428Y-54188728D02*
X58707142Y-54153014D01*
X58707142Y-54153014D02*
X58707142Y-54224442D01*
X58457142Y-54403014D02*
X58171428Y-54403014D01*
X58349999Y-54903014D02*
X58349999Y-54260157D01*
X58349999Y-54260157D02*
X58314285Y-54188728D01*
X58314285Y-54188728D02*
X58242856Y-54153014D01*
X58242856Y-54153014D02*
X58171428Y-54153014D01*
X58028571Y-54403014D02*
X57742857Y-54403014D01*
X57921428Y-54903014D02*
X57921428Y-54260157D01*
X57921428Y-54260157D02*
X57885714Y-54188728D01*
X57885714Y-54188728D02*
X57814285Y-54153014D01*
X57814285Y-54153014D02*
X57742857Y-54153014D01*
X57492857Y-54903014D02*
X57492857Y-54403014D01*
X57492857Y-54153014D02*
X57528571Y-54188728D01*
X57528571Y-54188728D02*
X57492857Y-54224442D01*
X57492857Y-54224442D02*
X57457143Y-54188728D01*
X57457143Y-54188728D02*
X57492857Y-54153014D01*
X57492857Y-54153014D02*
X57492857Y-54224442D01*
X57135714Y-54403014D02*
X57135714Y-54903014D01*
X57135714Y-54474442D02*
X57100000Y-54438728D01*
X57100000Y-54438728D02*
X57028571Y-54403014D01*
X57028571Y-54403014D02*
X56921428Y-54403014D01*
X56921428Y-54403014D02*
X56850000Y-54438728D01*
X56850000Y-54438728D02*
X56814286Y-54510157D01*
X56814286Y-54510157D02*
X56814286Y-54903014D01*
M02*
