%TF.GenerationSoftware,KiCad,Pcbnew,9.0.1-unknown-202504212220~56345a4158~ubuntu24.04.1*%
%TF.CreationDate,2025-05-22T21:20:13+10:00*%
%TF.ProjectId,MXBreakout,4d584272-6561-46b6-9f75-742e6b696361,rev?*%
%TF.SameCoordinates,Original*%
%TF.FileFunction,Copper,L2,Bot*%
%TF.FilePolarity,Positive*%
%FSLAX46Y46*%
G04 Gerber Fmt 4.6, Leading zero omitted, Abs format (unit mm)*
G04 Created by KiCad (PCBNEW 9.0.1-unknown-202504212220~56345a4158~ubuntu24.04.1) date 2025-05-22 21:20:13*
%MOMM*%
%LPD*%
G01*
G04 APERTURE LIST*
%TA.AperFunction,ComponentPad*%
%ADD10C,0.600000*%
%TD*%
%TA.AperFunction,ViaPad*%
%ADD11C,0.600000*%
%TD*%
%TA.AperFunction,ViaPad*%
%ADD12C,0.800000*%
%TD*%
%TA.AperFunction,ViaPad*%
%ADD13C,0.500000*%
%TD*%
%TA.AperFunction,Conductor*%
%ADD14C,0.200000*%
%TD*%
G04 APERTURE END LIST*
D10*
%TO.P,TP3,1,1*%
%TO.N,GND*%
X84250000Y-52625000D03*
%TD*%
%TO.P,TP3,1,1*%
%TO.N,GND*%
X85750000Y-52625000D03*
%TD*%
%TO.P,TP7,1,1*%
%TO.N,Net-(U10-RST)*%
X74000000Y-53000000D03*
%TD*%
%TO.P,TP3,1,1*%
%TO.N,GND*%
X57000000Y-58000000D03*
%TD*%
%TO.P,TP5,1,1*%
%TO.N,/DATA3*%
X73000000Y-55000000D03*
%TD*%
%TO.P,TP12,1,1*%
%TO.N,/POWER*%
X81600000Y-53000000D03*
%TD*%
%TO.P,TP3,1,1*%
%TO.N,/DATA1*%
X79600000Y-54000000D03*
%TD*%
%TO.P,TP2,1,1*%
%TO.N,/DATA0*%
X74000000Y-54000000D03*
%TD*%
%TO.P,TP10,1,1*%
%TO.N,/RESET*%
X75000000Y-53000000D03*
%TD*%
%TO.P,TP4,1,1*%
%TO.N,/DATA2*%
X78800000Y-54000000D03*
%TD*%
%TO.P,TP14,1,1*%
%TO.N,/SOFT*%
X73000000Y-54000000D03*
%TD*%
D11*
%TO.N,GND*%
X71800000Y-49300000D03*
D12*
X73500000Y-56000000D03*
X52500000Y-61500000D03*
X65000000Y-52500000D03*
X83000000Y-51500000D03*
X79500000Y-55500000D03*
X62500000Y-50000000D03*
X65000000Y-50000000D03*
X50000000Y-60000000D03*
X62500000Y-52500000D03*
X80000000Y-52500000D03*
X85000000Y-51500000D03*
X72000000Y-59000000D03*
D13*
X58700000Y-46215000D03*
D12*
X50000000Y-61500000D03*
X52500000Y-60000000D03*
D13*
%TO.N,/DATA0*%
X70500000Y-48750000D03*
%TO.N,/DATA1*%
X70500000Y-47475000D03*
%TO.N,/DATA2*%
X70500000Y-46210000D03*
D11*
%TO.N,+3.3V*%
X81800000Y-55800000D03*
X81800000Y-54800000D03*
%TD*%
D14*
%TO.N,/DATA0*%
X74000000Y-54000000D02*
X70800000Y-50800000D01*
X70800000Y-49050000D02*
X70500000Y-48750000D01*
X70800000Y-50800000D02*
X70800000Y-49050000D01*
%TO.N,/DATA1*%
X78075000Y-52275000D02*
X76362500Y-52275000D01*
X79600000Y-53800000D02*
X78075000Y-52275000D01*
X76362500Y-52275000D02*
X71562500Y-47475000D01*
X79600000Y-54000000D02*
X79600000Y-53800000D01*
X71562500Y-47475000D02*
X70500000Y-47475000D01*
%TO.N,/DATA2*%
X69450000Y-46905000D02*
X69450000Y-47726409D01*
X69450000Y-47726409D02*
X69778591Y-48055000D01*
X70500000Y-46210000D02*
X70145000Y-46210000D01*
X71680052Y-48055000D02*
X77625052Y-54000000D01*
X77625052Y-54000000D02*
X78800000Y-54000000D01*
X69778591Y-48055000D02*
X71680052Y-48055000D01*
X70145000Y-46210000D02*
X69450000Y-46905000D01*
%TD*%
%TA.AperFunction,Conductor*%
%TO.N,GND*%
G36*
X69341851Y-44251096D02*
G01*
X69469856Y-44263703D01*
X69493685Y-44268443D01*
X69610913Y-44304006D01*
X69633369Y-44313308D01*
X69741400Y-44371056D01*
X69761610Y-44384561D01*
X69861030Y-44466162D01*
X69861183Y-44466287D01*
X69870194Y-44474455D01*
X69873553Y-44477814D01*
X69873556Y-44477819D01*
X69873557Y-44477819D01*
X69905874Y-44510139D01*
X69905895Y-44510156D01*
X76073964Y-50678225D01*
X76074096Y-50678333D01*
X76099569Y-50703808D01*
X76258807Y-50819512D01*
X76258812Y-50819514D01*
X76258816Y-50819517D01*
X76280427Y-50830529D01*
X76434186Y-50908879D01*
X76434188Y-50908879D01*
X76434189Y-50908880D01*
X76434191Y-50908881D01*
X76599233Y-50962509D01*
X76621387Y-50969708D01*
X76815800Y-51000500D01*
X76864386Y-51000500D01*
X85291620Y-51000500D01*
X85329699Y-51000500D01*
X85341851Y-51001096D01*
X85469856Y-51013703D01*
X85493685Y-51018443D01*
X85610913Y-51054006D01*
X85633369Y-51063308D01*
X85741400Y-51121056D01*
X85761611Y-51134562D01*
X85861183Y-51216287D01*
X85870210Y-51224471D01*
X85875667Y-51229930D01*
X85883828Y-51238937D01*
X85965418Y-51338368D01*
X85978921Y-51358579D01*
X86036660Y-51466615D01*
X86045961Y-51489072D01*
X86081518Y-51606305D01*
X86086259Y-51630143D01*
X86098903Y-51758544D01*
X86099500Y-51770696D01*
X86099500Y-52450389D01*
X86099498Y-52450395D01*
X86099499Y-52477576D01*
X86099499Y-52488730D01*
X86098951Y-52500381D01*
X86087359Y-52623207D01*
X86082997Y-52646102D01*
X86050256Y-52758944D01*
X86041684Y-52780624D01*
X85988399Y-52885347D01*
X85975920Y-52905040D01*
X85900593Y-53002304D01*
X85893275Y-53010912D01*
X85893234Y-53010956D01*
X85893156Y-53011038D01*
X85892972Y-53011236D01*
X85107099Y-53849500D01*
X84491098Y-54506567D01*
X84430886Y-54542011D01*
X84361070Y-54539276D01*
X84303815Y-54499230D01*
X84291203Y-54480073D01*
X84278875Y-54456938D01*
X84268738Y-54437915D01*
X84222983Y-54385111D01*
X84222977Y-54385104D01*
X84205395Y-54367160D01*
X84205394Y-54367159D01*
X84205392Y-54367157D01*
X84205390Y-54367156D01*
X84205388Y-54367154D01*
X84125578Y-54322511D01*
X84125573Y-54322509D01*
X84058541Y-54302826D01*
X84058537Y-54302825D01*
X84058536Y-54302825D01*
X84000638Y-54294500D01*
X84000634Y-54294500D01*
X82149591Y-54294500D01*
X82082552Y-54274815D01*
X82036797Y-54222011D01*
X82028700Y-54198091D01*
X82025404Y-54183650D01*
X81976467Y-54082033D01*
X81976466Y-54082030D01*
X81934648Y-54029594D01*
X81906146Y-53993854D01*
X81872817Y-53967275D01*
X81817969Y-53923533D01*
X81817966Y-53923532D01*
X81716350Y-53874596D01*
X81606399Y-53849500D01*
X81606393Y-53849500D01*
X81599828Y-53849500D01*
X80744170Y-53849500D01*
X80700000Y-53849500D01*
X80643607Y-53849500D01*
X80643600Y-53849500D01*
X80533649Y-53874596D01*
X80432033Y-53923532D01*
X80432030Y-53923533D01*
X80343853Y-53993854D01*
X80321446Y-54021952D01*
X80264257Y-54062092D01*
X80194445Y-54064941D01*
X80134176Y-54029594D01*
X80102584Y-53967275D01*
X80100500Y-53944638D01*
X80100500Y-53934110D01*
X80100500Y-53934108D01*
X80066392Y-53806814D01*
X80000500Y-53692686D01*
X79907314Y-53599500D01*
X79793188Y-53533609D01*
X79793185Y-53533607D01*
X79793186Y-53533607D01*
X79778002Y-53529539D01*
X79722417Y-53497446D01*
X79159079Y-52934108D01*
X81099500Y-52934108D01*
X81099500Y-53065891D01*
X81133608Y-53193187D01*
X81166554Y-53250250D01*
X81199500Y-53307314D01*
X81292686Y-53400500D01*
X81406814Y-53466392D01*
X81534108Y-53500500D01*
X81534110Y-53500500D01*
X81665890Y-53500500D01*
X81665892Y-53500500D01*
X81793186Y-53466392D01*
X81907314Y-53400500D01*
X82000500Y-53307314D01*
X82066392Y-53193186D01*
X82100500Y-53065892D01*
X82100500Y-52934108D01*
X82066392Y-52806814D01*
X82000500Y-52692686D01*
X81907314Y-52599500D01*
X81850250Y-52566554D01*
X81793187Y-52533608D01*
X81729539Y-52516554D01*
X81665892Y-52499500D01*
X81534108Y-52499500D01*
X81406812Y-52533608D01*
X81292686Y-52599500D01*
X81292683Y-52599502D01*
X81199502Y-52692683D01*
X81199500Y-52692686D01*
X81133608Y-52806812D01*
X81099500Y-52934108D01*
X79159079Y-52934108D01*
X78259512Y-52034541D01*
X78259504Y-52034535D01*
X78190995Y-51994982D01*
X78190990Y-51994979D01*
X78165513Y-51988152D01*
X78114562Y-51974500D01*
X78114560Y-51974500D01*
X76538333Y-51974500D01*
X76471294Y-51954815D01*
X76450652Y-51938181D01*
X71747012Y-47234541D01*
X71747007Y-47234537D01*
X71737565Y-47229086D01*
X71737564Y-47229086D01*
X71718861Y-47218288D01*
X71678491Y-47194980D01*
X71678490Y-47194979D01*
X71653013Y-47188152D01*
X71602062Y-47174500D01*
X71602060Y-47174500D01*
X70887964Y-47174500D01*
X70820925Y-47154815D01*
X70800283Y-47138181D01*
X70776615Y-47114513D01*
X70776613Y-47114511D01*
X70673886Y-47055201D01*
X70559309Y-47024500D01*
X70440691Y-47024500D01*
X70326114Y-47055201D01*
X70326112Y-47055201D01*
X70326112Y-47055202D01*
X70223387Y-47114511D01*
X70223384Y-47114513D01*
X70139513Y-47198384D01*
X70139511Y-47198387D01*
X70111732Y-47246502D01*
X70080201Y-47301114D01*
X70049500Y-47415691D01*
X70049500Y-47415693D01*
X70049500Y-47534308D01*
X70063921Y-47588129D01*
X70062258Y-47657979D01*
X70023095Y-47715841D01*
X69958866Y-47743345D01*
X69889964Y-47731758D01*
X69856465Y-47707903D01*
X69786819Y-47638257D01*
X69753334Y-47576934D01*
X69750500Y-47550576D01*
X69750500Y-47080832D01*
X69770185Y-47013793D01*
X69786815Y-46993155D01*
X70147292Y-46632677D01*
X70208613Y-46599194D01*
X70278304Y-46604178D01*
X70296970Y-46612972D01*
X70326114Y-46629799D01*
X70440691Y-46660500D01*
X70440694Y-46660500D01*
X70559306Y-46660500D01*
X70559309Y-46660500D01*
X70673886Y-46629799D01*
X70776613Y-46570489D01*
X70860489Y-46486613D01*
X70919799Y-46383886D01*
X70950500Y-46269309D01*
X70950500Y-46150691D01*
X70919799Y-46036114D01*
X70860489Y-45933387D01*
X70776613Y-45849511D01*
X70673886Y-45790201D01*
X70559309Y-45759500D01*
X70440691Y-45759500D01*
X70326114Y-45790201D01*
X70326112Y-45790201D01*
X70326112Y-45790202D01*
X70223387Y-45849511D01*
X70223384Y-45849513D01*
X70199717Y-45873181D01*
X70138394Y-45906666D01*
X70112036Y-45909500D01*
X70105438Y-45909500D01*
X70054486Y-45923152D01*
X70029010Y-45929979D01*
X69969934Y-45964087D01*
X69969933Y-45964086D01*
X69960492Y-45969537D01*
X69960487Y-45969541D01*
X69209541Y-46720487D01*
X69209535Y-46720495D01*
X69169982Y-46789004D01*
X69169979Y-46789009D01*
X69156326Y-46839962D01*
X69149500Y-46865438D01*
X69149500Y-47765971D01*
X69159739Y-47804184D01*
X69169979Y-47842400D01*
X69169981Y-47842403D01*
X69200232Y-47894798D01*
X69200233Y-47894799D01*
X69207838Y-47907973D01*
X69209541Y-47910922D01*
X69504450Y-48205830D01*
X69538131Y-48239511D01*
X69594080Y-48295460D01*
X69594082Y-48295461D01*
X69594086Y-48295464D01*
X69662595Y-48335017D01*
X69662602Y-48335021D01*
X69739029Y-48355500D01*
X69992798Y-48355500D01*
X70059837Y-48375185D01*
X70105592Y-48427989D01*
X70115536Y-48497147D01*
X70100185Y-48541500D01*
X70080202Y-48576110D01*
X70080201Y-48576114D01*
X70049500Y-48690691D01*
X70049500Y-48809309D01*
X70080201Y-48923886D01*
X70139511Y-49026613D01*
X70223387Y-49110489D01*
X70326114Y-49169799D01*
X70407595Y-49191631D01*
X70467253Y-49227994D01*
X70497783Y-49290841D01*
X70499500Y-49311405D01*
X70499500Y-50839562D01*
X70501963Y-50848752D01*
X70519979Y-50915990D01*
X70550991Y-50969702D01*
X70550993Y-50969709D01*
X70550994Y-50969709D01*
X70559538Y-50984508D01*
X70559541Y-50984513D01*
X72892986Y-53317957D01*
X72926471Y-53379280D01*
X72921487Y-53448972D01*
X72879615Y-53504905D01*
X72837401Y-53525412D01*
X72806814Y-53533608D01*
X72806813Y-53533608D01*
X72806811Y-53533609D01*
X72692686Y-53599500D01*
X72692683Y-53599502D01*
X72599502Y-53692683D01*
X72599500Y-53692686D01*
X72533608Y-53806812D01*
X72499500Y-53934108D01*
X72499500Y-54065891D01*
X72533608Y-54193187D01*
X72546682Y-54215831D01*
X72599500Y-54307314D01*
X72599502Y-54307316D01*
X72692687Y-54400501D01*
X72694158Y-54401630D01*
X72695083Y-54402897D01*
X72698433Y-54406247D01*
X72697910Y-54406769D01*
X72735356Y-54458060D01*
X72739506Y-54527807D01*
X72705289Y-54588725D01*
X72694158Y-54598370D01*
X72692687Y-54599498D01*
X72599502Y-54692683D01*
X72599500Y-54692686D01*
X72533608Y-54806812D01*
X72499500Y-54934108D01*
X72499500Y-55065891D01*
X72533608Y-55193187D01*
X72556768Y-55233301D01*
X72599500Y-55307314D01*
X72692686Y-55400500D01*
X72806814Y-55466392D01*
X72934108Y-55500500D01*
X72934110Y-55500500D01*
X73065890Y-55500500D01*
X73065892Y-55500500D01*
X73193186Y-55466392D01*
X73307314Y-55400500D01*
X73400500Y-55307314D01*
X73466392Y-55193186D01*
X73500500Y-55065892D01*
X73500500Y-54934108D01*
X73466392Y-54806814D01*
X73400500Y-54692686D01*
X73307314Y-54599500D01*
X73307311Y-54599498D01*
X73305847Y-54598375D01*
X73304921Y-54597107D01*
X73301567Y-54593753D01*
X73302090Y-54593229D01*
X73295760Y-54584560D01*
X73282068Y-54574311D01*
X73275585Y-54556930D01*
X73264645Y-54541947D01*
X73263628Y-54524871D01*
X73257651Y-54508847D01*
X73261594Y-54490721D01*
X73260491Y-54472201D01*
X73268943Y-54456938D01*
X73272503Y-54440574D01*
X73288086Y-54422371D01*
X73293653Y-54412319D01*
X73302955Y-54403016D01*
X73307314Y-54400500D01*
X73400500Y-54307314D01*
X73403017Y-54302953D01*
X73412317Y-54293654D01*
X73436132Y-54280649D01*
X73458043Y-54264649D01*
X73466342Y-54264154D01*
X73473640Y-54260169D01*
X73500704Y-54262104D01*
X73527789Y-54260489D01*
X73535039Y-54264559D01*
X73543332Y-54265153D01*
X73565053Y-54281413D01*
X73588711Y-54294697D01*
X73598368Y-54305840D01*
X73599496Y-54307310D01*
X73599499Y-54307313D01*
X73599500Y-54307314D01*
X73692686Y-54400500D01*
X73806814Y-54466392D01*
X73934108Y-54500500D01*
X73934110Y-54500500D01*
X74065890Y-54500500D01*
X74065892Y-54500500D01*
X74193186Y-54466392D01*
X74307314Y-54400500D01*
X74400500Y-54307314D01*
X74466392Y-54193186D01*
X74500500Y-54065892D01*
X74500500Y-53934108D01*
X74466392Y-53806814D01*
X74400500Y-53692686D01*
X74307314Y-53599500D01*
X74307311Y-53599498D01*
X74305847Y-53598375D01*
X74304921Y-53597107D01*
X74301567Y-53593753D01*
X74302090Y-53593229D01*
X74295759Y-53584559D01*
X74282068Y-53574310D01*
X74275585Y-53556931D01*
X74264645Y-53541947D01*
X74263627Y-53524870D01*
X74257651Y-53508846D01*
X74261594Y-53490720D01*
X74260491Y-53472201D01*
X74268942Y-53456940D01*
X74272503Y-53440573D01*
X74288089Y-53422367D01*
X74293654Y-53412319D01*
X74302958Y-53403014D01*
X74307314Y-53400500D01*
X74400500Y-53307314D01*
X74403014Y-53302958D01*
X74412319Y-53293654D01*
X74436131Y-53280651D01*
X74458053Y-53264645D01*
X74466349Y-53264150D01*
X74473642Y-53260169D01*
X74500707Y-53262104D01*
X74527799Y-53260491D01*
X74535044Y-53264560D01*
X74543334Y-53265153D01*
X74565058Y-53281416D01*
X74588719Y-53294704D01*
X74598375Y-53305847D01*
X74599498Y-53307311D01*
X74599500Y-53307314D01*
X74692686Y-53400500D01*
X74806814Y-53466392D01*
X74934108Y-53500500D01*
X74934110Y-53500500D01*
X75065890Y-53500500D01*
X75065892Y-53500500D01*
X75193186Y-53466392D01*
X75307314Y-53400500D01*
X75400500Y-53307314D01*
X75466392Y-53193186D01*
X75500500Y-53065892D01*
X75500500Y-52934108D01*
X75466392Y-52806814D01*
X75400500Y-52692686D01*
X75307314Y-52599500D01*
X75250250Y-52566554D01*
X75193187Y-52533608D01*
X75129539Y-52516554D01*
X75065892Y-52499500D01*
X74934108Y-52499500D01*
X74806812Y-52533608D01*
X74692686Y-52599500D01*
X74692683Y-52599502D01*
X74599498Y-52692687D01*
X74598370Y-52694158D01*
X74597102Y-52695083D01*
X74593753Y-52698433D01*
X74593230Y-52697910D01*
X74541940Y-52735356D01*
X74472193Y-52739506D01*
X74411275Y-52705289D01*
X74401630Y-52694158D01*
X74400501Y-52692687D01*
X74307316Y-52599502D01*
X74307314Y-52599500D01*
X74250250Y-52566554D01*
X74193187Y-52533608D01*
X74129539Y-52516554D01*
X74065892Y-52499500D01*
X73934108Y-52499500D01*
X73806812Y-52533608D01*
X73692686Y-52599500D01*
X73692683Y-52599502D01*
X73599502Y-52692683D01*
X73599500Y-52692686D01*
X73533609Y-52806811D01*
X73525413Y-52837400D01*
X73489047Y-52897060D01*
X73426200Y-52927588D01*
X73356824Y-52919293D01*
X73317957Y-52892986D01*
X71136819Y-50711848D01*
X71103334Y-50650525D01*
X71100500Y-50624167D01*
X71100500Y-49010439D01*
X71080020Y-48934009D01*
X71080017Y-48934004D01*
X71040464Y-48865495D01*
X71040458Y-48865487D01*
X70986819Y-48811848D01*
X70953334Y-48750525D01*
X70950500Y-48724167D01*
X70950500Y-48690693D01*
X70950500Y-48690691D01*
X70919799Y-48576114D01*
X70919797Y-48576110D01*
X70899815Y-48541500D01*
X70883342Y-48473600D01*
X70906194Y-48407573D01*
X70961115Y-48364383D01*
X71007202Y-48355500D01*
X71504219Y-48355500D01*
X71571258Y-48375185D01*
X71591900Y-48391819D01*
X77440541Y-54240460D01*
X77509064Y-54280022D01*
X77585490Y-54300500D01*
X78341324Y-54300500D01*
X78408363Y-54320185D01*
X78429005Y-54336819D01*
X78492686Y-54400500D01*
X78606814Y-54466392D01*
X78734108Y-54500500D01*
X78734110Y-54500500D01*
X78865890Y-54500500D01*
X78865892Y-54500500D01*
X78993186Y-54466392D01*
X79107314Y-54400500D01*
X79112319Y-54395495D01*
X79173642Y-54362010D01*
X79243334Y-54366994D01*
X79287681Y-54395495D01*
X79292686Y-54400500D01*
X79406814Y-54466392D01*
X79534108Y-54500500D01*
X79534110Y-54500500D01*
X79665890Y-54500500D01*
X79665892Y-54500500D01*
X79793186Y-54466392D01*
X79907314Y-54400500D01*
X79987819Y-54319995D01*
X80049142Y-54286510D01*
X80118834Y-54291494D01*
X80174767Y-54333366D01*
X80199184Y-54398830D01*
X80199500Y-54407676D01*
X80199500Y-56356389D01*
X80200089Y-56361618D01*
X80188033Y-56430440D01*
X80140683Y-56481819D01*
X80076868Y-56499500D01*
X76103593Y-56499500D01*
X76103502Y-56499508D01*
X76065795Y-56499508D01*
X75871393Y-56530296D01*
X75871385Y-56530298D01*
X75684198Y-56591117D01*
X75684186Y-56591122D01*
X75508815Y-56680475D01*
X75508804Y-56680482D01*
X75349572Y-56796168D01*
X75349567Y-56796173D01*
X75297775Y-56847961D01*
X75297768Y-56847971D01*
X69870079Y-62275657D01*
X69861056Y-62283835D01*
X69761631Y-62365419D01*
X69741420Y-62378921D01*
X69633384Y-62436660D01*
X69610927Y-62445961D01*
X69493694Y-62481518D01*
X69469856Y-62486259D01*
X69341455Y-62498903D01*
X69329303Y-62499500D01*
X57603593Y-62499500D01*
X57603502Y-62499508D01*
X57565795Y-62499508D01*
X57371393Y-62530296D01*
X57371385Y-62530298D01*
X57184198Y-62591117D01*
X57184186Y-62591122D01*
X57008815Y-62680475D01*
X57008804Y-62680482D01*
X56849573Y-62796168D01*
X56815210Y-62830529D01*
X55120090Y-64525648D01*
X55111067Y-64533826D01*
X55011631Y-64615419D01*
X54991420Y-64628921D01*
X54883384Y-64686660D01*
X54860927Y-64695961D01*
X54743694Y-64731518D01*
X54719856Y-64736259D01*
X54591455Y-64748903D01*
X54579303Y-64749500D01*
X48170301Y-64749500D01*
X48158148Y-64748903D01*
X48144202Y-64747529D01*
X48030141Y-64736296D01*
X48006302Y-64731554D01*
X47889075Y-64695996D01*
X47866616Y-64686694D01*
X47758577Y-64628947D01*
X47738365Y-64615442D01*
X47639013Y-64533908D01*
X47629995Y-64525735D01*
X47474330Y-64370069D01*
X47466158Y-64361052D01*
X47384565Y-64261629D01*
X47371060Y-64241417D01*
X47313314Y-64133379D01*
X47304014Y-64110926D01*
X47268451Y-63993687D01*
X47263712Y-63969860D01*
X47251096Y-63841750D01*
X47250500Y-63829600D01*
X47250500Y-61420301D01*
X47251097Y-61408148D01*
X47255407Y-61364386D01*
X47263703Y-61280141D01*
X47268443Y-61256316D01*
X47304007Y-61139082D01*
X47313306Y-61116634D01*
X47371059Y-61008594D01*
X47384558Y-60988393D01*
X47466302Y-60888798D01*
X47474452Y-60879807D01*
X47477814Y-60876445D01*
X47477822Y-60876441D01*
X47477821Y-60876440D01*
X47511436Y-60842830D01*
X47511459Y-60842800D01*
X48221067Y-60133192D01*
X60249499Y-60133192D01*
X60249500Y-60201850D01*
X60249500Y-61455830D01*
X60249500Y-61500000D01*
X60249500Y-61573918D01*
X60249500Y-61573920D01*
X60249499Y-61573920D01*
X60278340Y-61718907D01*
X60278343Y-61718917D01*
X60334912Y-61855488D01*
X60334919Y-61855501D01*
X60417048Y-61978415D01*
X60417051Y-61978419D01*
X60521580Y-62082948D01*
X60521584Y-62082951D01*
X60644498Y-62165080D01*
X60644511Y-62165087D01*
X60781082Y-62221656D01*
X60781087Y-62221658D01*
X60781091Y-62221658D01*
X60781092Y-62221659D01*
X60926079Y-62250500D01*
X60926082Y-62250500D01*
X65573920Y-62250500D01*
X65671462Y-62231096D01*
X65718913Y-62221658D01*
X65855495Y-62165084D01*
X65978416Y-62082951D01*
X66082951Y-61978416D01*
X66165084Y-61855495D01*
X66221658Y-61718913D01*
X66250500Y-61573918D01*
X66250500Y-61500000D01*
X66250500Y-61455830D01*
X66250500Y-61009755D01*
X66252025Y-60990369D01*
X66259639Y-60942291D01*
X66271624Y-60905406D01*
X66289237Y-60870840D01*
X66312033Y-60839464D01*
X66339464Y-60812033D01*
X66370840Y-60789237D01*
X66405406Y-60771624D01*
X66442291Y-60759639D01*
X66490368Y-60752025D01*
X66509756Y-60750500D01*
X67073920Y-60750500D01*
X67171462Y-60731096D01*
X67218913Y-60721658D01*
X67355495Y-60665084D01*
X67478416Y-60582951D01*
X67582951Y-60478416D01*
X67665084Y-60355495D01*
X67721658Y-60218913D01*
X67738709Y-60133193D01*
X67750500Y-60073920D01*
X67750500Y-55926079D01*
X67721659Y-55781092D01*
X67721658Y-55781091D01*
X67721658Y-55781087D01*
X67721656Y-55781082D01*
X67665087Y-55644511D01*
X67665080Y-55644498D01*
X67582951Y-55521584D01*
X67582948Y-55521580D01*
X67478419Y-55417051D01*
X67478415Y-55417048D01*
X67355501Y-55334919D01*
X67355488Y-55334912D01*
X67218917Y-55278343D01*
X67218907Y-55278340D01*
X67073920Y-55249500D01*
X67073918Y-55249500D01*
X67049828Y-55249500D01*
X61544170Y-55249500D01*
X61500000Y-55249500D01*
X61426082Y-55249500D01*
X61426080Y-55249500D01*
X61281092Y-55278340D01*
X61281082Y-55278343D01*
X61144511Y-55334912D01*
X61144498Y-55334919D01*
X61021584Y-55417048D01*
X61021580Y-55417051D01*
X60917051Y-55521580D01*
X60917048Y-55521584D01*
X60834919Y-55644498D01*
X60834912Y-55644511D01*
X60778343Y-55781082D01*
X60778340Y-55781092D01*
X60749500Y-55926079D01*
X60749500Y-59284772D01*
X60748439Y-59300959D01*
X60743129Y-59341289D01*
X60734753Y-59372550D01*
X60722323Y-59402562D01*
X60706135Y-59430601D01*
X60681393Y-59462845D01*
X60670705Y-59475033D01*
X60663519Y-59482220D01*
X60663513Y-59482226D01*
X60505633Y-59640104D01*
X60505615Y-59640114D01*
X60417043Y-59728689D01*
X60417038Y-59728696D01*
X60334910Y-59851614D01*
X60278339Y-59988194D01*
X60275991Y-60000000D01*
X60249499Y-60133192D01*
X48221067Y-60133192D01*
X49879919Y-58474341D01*
X49888920Y-58466183D01*
X49988371Y-58384577D01*
X50008575Y-58371080D01*
X50116619Y-58313337D01*
X50139070Y-58304038D01*
X50256305Y-58268480D01*
X50280141Y-58263740D01*
X50336874Y-58258154D01*
X50408546Y-58251097D01*
X50420697Y-58250500D01*
X52897728Y-58250500D01*
X52898105Y-58250462D01*
X52934195Y-58250463D01*
X53128599Y-58219678D01*
X53128601Y-58219677D01*
X53128603Y-58219677D01*
X53174427Y-58204789D01*
X53315794Y-58158863D01*
X53491172Y-58069515D01*
X53650415Y-57953835D01*
X53684779Y-57919475D01*
X53684790Y-57919471D01*
X53720009Y-57884252D01*
X53751244Y-57853021D01*
X53751244Y-57853019D01*
X53760615Y-57843650D01*
X53760635Y-57843624D01*
X56419471Y-55184789D01*
X56419471Y-55184788D01*
X56428506Y-55175754D01*
X56428608Y-55175627D01*
X56453808Y-55150431D01*
X56569512Y-54991193D01*
X56658879Y-54815814D01*
X56719708Y-54628613D01*
X56750500Y-54434200D01*
X56750500Y-54335782D01*
X56750500Y-54320286D01*
X56750500Y-46845221D01*
X60249459Y-46845221D01*
X60249476Y-46946159D01*
X60251829Y-46957960D01*
X60252034Y-46958634D01*
X60268727Y-47042478D01*
X60306469Y-47133558D01*
X60306471Y-47133560D01*
X60360654Y-47214624D01*
X60360860Y-47215121D01*
X60361240Y-47215501D01*
X60361257Y-47215526D01*
X60364020Y-47218288D01*
X60392240Y-47246502D01*
X60392255Y-47246516D01*
X60711539Y-47565800D01*
X60713372Y-47567641D01*
X60721318Y-47582270D01*
X60723950Y-47580357D01*
X60723974Y-47580390D01*
X60721338Y-47582306D01*
X60729936Y-47598134D01*
X60746659Y-47628739D01*
X60746683Y-47628963D01*
X60746723Y-47629037D01*
X60746710Y-47629213D01*
X60749500Y-47655131D01*
X60749500Y-48306399D01*
X60774596Y-48416350D01*
X60823532Y-48517966D01*
X60823533Y-48517969D01*
X60869901Y-48576110D01*
X60893854Y-48606146D01*
X60930710Y-48635538D01*
X60982030Y-48676466D01*
X60982033Y-48676467D01*
X61083649Y-48725403D01*
X61193600Y-48750499D01*
X61193605Y-48750499D01*
X61193607Y-48750500D01*
X61193609Y-48750500D01*
X66306391Y-48750500D01*
X66306393Y-48750500D01*
X66306395Y-48750499D01*
X66306399Y-48750499D01*
X66374362Y-48734986D01*
X66416351Y-48725403D01*
X66517967Y-48676467D01*
X66517967Y-48676466D01*
X66517969Y-48676466D01*
X66539896Y-48658978D01*
X66606146Y-48606146D01*
X66658978Y-48539896D01*
X66676466Y-48517969D01*
X66676467Y-48517966D01*
X66697936Y-48473387D01*
X66725403Y-48416351D01*
X66750500Y-48306393D01*
X66750500Y-48250000D01*
X66750500Y-48205830D01*
X66750500Y-45655131D01*
X66758946Y-45626364D01*
X66764976Y-45596988D01*
X66769282Y-45591165D01*
X66770185Y-45588092D01*
X66785794Y-45568487D01*
X66788525Y-45565691D01*
X66788647Y-45565622D01*
X66789209Y-45565060D01*
X66789541Y-45564662D01*
X66796936Y-45557267D01*
X66862808Y-45443148D01*
X66896903Y-45315869D01*
X66896900Y-45184103D01*
X66862797Y-45056826D01*
X66796919Y-44942711D01*
X66703754Y-44849530D01*
X66589648Y-44783634D01*
X66589647Y-44783633D01*
X66589646Y-44783633D01*
X66589645Y-44783632D01*
X66462381Y-44749512D01*
X66462380Y-44749511D01*
X66462377Y-44749511D01*
X66462348Y-44749510D01*
X66458130Y-44749510D01*
X66458130Y-44749509D01*
X66446293Y-44749507D01*
X66446275Y-44749500D01*
X66396496Y-44749500D01*
X66396494Y-44749500D01*
X66396295Y-44749499D01*
X66341558Y-44749490D01*
X66341444Y-44749500D01*
X60693600Y-44749500D01*
X60583649Y-44774596D01*
X60482033Y-44823532D01*
X60482030Y-44823533D01*
X60393854Y-44893854D01*
X60323533Y-44982030D01*
X60323532Y-44982033D01*
X60274596Y-45083649D01*
X60249500Y-45193600D01*
X60249500Y-46841444D01*
X60249490Y-46841558D01*
X60249490Y-46845116D01*
X60249459Y-46845221D01*
X56750500Y-46845221D01*
X56750500Y-45670300D01*
X56751097Y-45658147D01*
X56757120Y-45596988D01*
X56763703Y-45530140D01*
X56768445Y-45506302D01*
X56804005Y-45389069D01*
X56813301Y-45366624D01*
X56871055Y-45258570D01*
X56884556Y-45238367D01*
X56966092Y-45139012D01*
X56974255Y-45130004D01*
X57629935Y-44474325D01*
X57638930Y-44466171D01*
X57738374Y-44384561D01*
X57758578Y-44371062D01*
X57866628Y-44313310D01*
X57889069Y-44304015D01*
X58006314Y-44268450D01*
X58030137Y-44263712D01*
X58158250Y-44251096D01*
X58170399Y-44250500D01*
X58208380Y-44250500D01*
X69291620Y-44250500D01*
X69329699Y-44250500D01*
X69341851Y-44251096D01*
G37*
%TD.AperFunction*%
%TD*%
%TA.AperFunction,Conductor*%
%TO.N,+3.3V*%
G36*
X84067677Y-54519685D02*
G01*
X84113432Y-54572489D01*
X84123376Y-54641647D01*
X84094351Y-54705203D01*
X84088319Y-54711681D01*
X82736319Y-56063681D01*
X82674996Y-56097166D01*
X82648638Y-56100000D01*
X81924500Y-56100000D01*
X81857461Y-56080315D01*
X81811706Y-56027511D01*
X81800500Y-55976000D01*
X81800500Y-54624000D01*
X81820185Y-54556961D01*
X81872989Y-54511206D01*
X81924500Y-54500000D01*
X84000638Y-54500000D01*
X84067677Y-54519685D01*
G37*
%TD.AperFunction*%
%TD*%
%TA.AperFunction,Conductor*%
%TO.N,/DATA0*%
G36*
X73657949Y-53512576D02*
G01*
X73968713Y-53657953D01*
X74154373Y-53744806D01*
X74160414Y-53751416D01*
X74160013Y-53760362D01*
X74159164Y-53761872D01*
X74002015Y-53998734D01*
X73998734Y-54002015D01*
X73761872Y-54159164D01*
X73753084Y-54160883D01*
X73745655Y-54155883D01*
X73744806Y-54154373D01*
X73671997Y-53998734D01*
X73512576Y-53657951D01*
X73512176Y-53649007D01*
X73514900Y-53644724D01*
X73644723Y-53514901D01*
X73652995Y-53511475D01*
X73657949Y-53512576D01*
G37*
%TD.AperFunction*%
%TD*%
M02*
