%TF.GenerationSoftware,KiCad,Pcbnew,8.99.0-unknown-3024a7c569~178~ubuntu22.04.1*%
%TF.CreationDate,2024-05-13T18:01:12+10:00*%
%TF.ProjectId,MXBreakout,4d584272-6561-46b6-9f75-742e6b696361,rev?*%
%TF.SameCoordinates,Original*%
%TF.FileFunction,Copper,L1,Top*%
%TF.FilePolarity,Positive*%
%FSLAX46Y46*%
G04 Gerber Fmt 4.6, Leading zero omitted, Abs format (unit mm)*
G04 Created by KiCad (PCBNEW 8.99.0-unknown-3024a7c569~178~ubuntu22.04.1) date 2024-05-13 18:01:12*
%MOMM*%
%LPD*%
G01*
G04 APERTURE LIST*
G04 Aperture macros list*
%AMRoundRect*
0 Rectangle with rounded corners*
0 $1 Rounding radius*
0 $2 $3 $4 $5 $6 $7 $8 $9 X,Y pos of 4 corners*
0 Add a 4 corners polygon primitive as box body*
4,1,4,$2,$3,$4,$5,$6,$7,$8,$9,$2,$3,0*
0 Add four circle primitives for the rounded corners*
1,1,$1+$1,$2,$3*
1,1,$1+$1,$4,$5*
1,1,$1+$1,$6,$7*
1,1,$1+$1,$8,$9*
0 Add four rect primitives between the rounded corners*
20,1,$1+$1,$2,$3,$4,$5,0*
20,1,$1+$1,$4,$5,$6,$7,0*
20,1,$1+$1,$6,$7,$8,$9,0*
20,1,$1+$1,$8,$9,$2,$3,0*%
G04 Aperture macros list end*
%TA.AperFunction,SMDPad,CuDef*%
%ADD10R,0.600000X1.100000*%
%TD*%
%TA.AperFunction,ComponentPad*%
%ADD11C,0.500000*%
%TD*%
%TA.AperFunction,SMDPad,CuDef*%
%ADD12RoundRect,0.135000X0.135000X0.185000X-0.135000X0.185000X-0.135000X-0.185000X0.135000X-0.185000X0*%
%TD*%
%TA.AperFunction,SMDPad,CuDef*%
%ADD13RoundRect,0.140000X0.170000X-0.140000X0.170000X0.140000X-0.170000X0.140000X-0.170000X-0.140000X0*%
%TD*%
%TA.AperFunction,SMDPad,CuDef*%
%ADD14C,1.000000*%
%TD*%
%TA.AperFunction,SMDPad,CuDef*%
%ADD15C,0.500000*%
%TD*%
%TA.AperFunction,SMDPad,CuDef*%
%ADD16RoundRect,0.150000X-0.468458X0.256326X0.256326X-0.468458X0.468458X-0.256326X-0.256326X0.468458X0*%
%TD*%
%TA.AperFunction,SMDPad,CuDef*%
%ADD17RoundRect,0.218750X0.218750X0.256250X-0.218750X0.256250X-0.218750X-0.256250X0.218750X-0.256250X0*%
%TD*%
%TA.AperFunction,SMDPad,CuDef*%
%ADD18RoundRect,0.150000X0.875000X0.150000X-0.875000X0.150000X-0.875000X-0.150000X0.875000X-0.150000X0*%
%TD*%
%TA.AperFunction,SMDPad,CuDef*%
%ADD19RoundRect,0.140000X-0.170000X0.140000X-0.170000X-0.140000X0.170000X-0.140000X0.170000X0.140000X0*%
%TD*%
%TA.AperFunction,ComponentPad*%
%ADD20C,0.600000*%
%TD*%
%TA.AperFunction,ViaPad*%
%ADD21C,0.800000*%
%TD*%
%TA.AperFunction,ViaPad*%
%ADD22C,0.500000*%
%TD*%
%TA.AperFunction,ViaPad*%
%ADD23C,0.600000*%
%TD*%
%TA.AperFunction,Conductor*%
%ADD24C,0.250000*%
%TD*%
%TA.AperFunction,Conductor*%
%ADD25C,0.200000*%
%TD*%
G04 APERTURE END LIST*
D10*
%TO.P,Y1,1,1*%
%TO.N,Net-(U1-X_2)*%
X54300000Y-59025000D03*
%TO.P,Y1,2,2*%
%TO.N,Net-(U1-X_1)*%
X55700000Y-59025000D03*
%TD*%
D11*
%TO.P,TP3,1,1*%
%TO.N,GND*%
X84250000Y-52625000D03*
%TD*%
D12*
%TO.P,R1,1*%
%TO.N,Net-(D1-A)*%
X52487500Y-63025000D03*
%TO.P,R1,2*%
%TO.N,/BATT*%
X51467500Y-63025000D03*
%TD*%
D11*
%TO.P,TP3,1,1*%
%TO.N,GND*%
X85750000Y-52625000D03*
%TD*%
D13*
%TO.P,C2,1*%
%TO.N,GND*%
X54250000Y-61480000D03*
%TO.P,C2,2*%
%TO.N,Net-(U1-X_2)*%
X54250000Y-60520000D03*
%TD*%
D14*
%TO.P,TP1,1,1*%
%TO.N,/BATT*%
X49250000Y-63000000D03*
%TD*%
D15*
%TO.P,TP6,1,1*%
%TO.N,Net-(U10-RST)*%
X76000000Y-54600000D03*
%TD*%
%TO.P,TP15,1,1*%
%TO.N,/SOFT*%
X72000000Y-53200000D03*
%TD*%
D16*
%TO.P,U10,1,GND*%
%TO.N,GND*%
X72796751Y-48303249D03*
%TO.P,U10,2,GND*%
X72125000Y-48975000D03*
%TO.P,U10,3,GND*%
X71453249Y-49646751D03*
%TO.P,U10,4,RST*%
%TO.N,Net-(U10-RST)*%
X73061917Y-51255419D03*
%TO.P,U10,5,3.3V*%
%TO.N,+3.3V*%
X74405419Y-49911917D03*
%TD*%
D13*
%TO.P,C1,1*%
%TO.N,GND*%
X55700000Y-61480000D03*
%TO.P,C1,2*%
%TO.N,Net-(U1-X_1)*%
X55700000Y-60520000D03*
%TD*%
D17*
%TO.P,D1,1,K*%
%TO.N,Net-(D1-K)*%
X55287500Y-63000000D03*
%TO.P,D1,2,A*%
%TO.N,Net-(D1-A)*%
X53712500Y-63000000D03*
%TD*%
D15*
%TO.P,TP13,1,1*%
%TO.N,/POWER*%
X81600000Y-51600000D03*
%TD*%
D11*
%TO.P,TP7,1,1*%
%TO.N,Net-(U10-RST)*%
X74000000Y-53000000D03*
%TD*%
%TO.P,TP3,1,1*%
%TO.N,GND*%
X57000000Y-58000000D03*
%TD*%
D15*
%TO.P,TP11,1,1*%
%TO.N,/RESET*%
X77000000Y-54200000D03*
%TD*%
D11*
%TO.P,TP5,1,1*%
%TO.N,/DATA3*%
X73000000Y-55000000D03*
%TD*%
D18*
%TO.P,U1,1*%
%TO.N,N/C*%
X69000000Y-61450000D03*
%TO.P,U1,2*%
X69000000Y-60180000D03*
%TO.P,U1,3*%
X69000000Y-58910000D03*
%TO.P,U1,4,GND*%
%TO.N,GND*%
X69000000Y-57640000D03*
%TO.P,U1,5*%
%TO.N,N/C*%
X69000000Y-56370000D03*
%TO.P,U1,6*%
X69000000Y-55100000D03*
%TO.P,U1,7*%
X69000000Y-53830000D03*
%TO.P,U1,8*%
X69000000Y-52560000D03*
%TO.P,U1,9*%
X69000000Y-51290000D03*
%TO.P,U1,10*%
X69000000Y-50020000D03*
%TO.P,U1,11,DATA0*%
%TO.N,/DATA0*%
X69000000Y-48750000D03*
%TO.P,U1,12,DATA1*%
%TO.N,/DATA1*%
X69000000Y-47480000D03*
%TO.P,U1,13,DATA2*%
%TO.N,/DATA2*%
X69000000Y-46210000D03*
%TO.P,U1,14,DATA3*%
%TO.N,/DATA3*%
X69000000Y-44940000D03*
%TO.P,U1,15*%
%TO.N,N/C*%
X58700000Y-44945000D03*
%TO.P,U1,16,GND*%
%TO.N,GND*%
X58700000Y-46215000D03*
%TO.P,U1,17,VDD*%
%TO.N,+3.3V*%
X58700000Y-47485000D03*
%TO.P,U1,18*%
%TO.N,N/C*%
X58700000Y-48755000D03*
%TO.P,U1,19*%
X58700000Y-50025000D03*
%TO.P,U1,20,U22*%
%TO.N,unconnected-(U1-U22-Pad20)*%
X58700000Y-51295000D03*
%TO.P,U1,21*%
%TO.N,N/C*%
X58700000Y-52565000D03*
%TO.P,U1,22,X_2*%
%TO.N,Net-(U1-X_2)*%
X58700000Y-53835000D03*
%TO.P,U1,23,X_1*%
%TO.N,Net-(U1-X_1)*%
X58700000Y-55105000D03*
%TO.P,U1,24,VDD*%
%TO.N,+3.3V*%
X58700000Y-56375000D03*
%TO.P,U1,25,VDD*%
X58700000Y-57645000D03*
%TO.P,U1,26,BATT*%
%TO.N,Net-(D1-K)*%
X58700000Y-58915000D03*
%TO.P,U1,27,VDD*%
%TO.N,+3.3V*%
X58700000Y-60185000D03*
%TO.P,U1,28*%
%TO.N,N/C*%
X58700000Y-61455000D03*
%TD*%
D15*
%TO.P,TP16,1,1*%
%TO.N,/DATA3*%
X71750000Y-56000000D03*
%TD*%
D11*
%TO.P,TP12,1,1*%
%TO.N,/POWER*%
X81600000Y-53000000D03*
%TD*%
D19*
%TO.P,C3,1*%
%TO.N,GND*%
X82800000Y-53040000D03*
%TO.P,C3,2*%
%TO.N,+3.3V*%
X82800000Y-54000000D03*
%TD*%
D20*
%TO.P,REF\u002A\u002A,1*%
%TO.N,GND*%
X46000000Y-64500000D03*
%TD*%
D11*
%TO.P,TP3,1,1*%
%TO.N,/DATA1*%
X79600000Y-54000000D03*
%TD*%
D15*
%TO.P,TP17,1,1*%
%TO.N,/DATA0*%
X74000000Y-55000000D03*
%TD*%
D11*
%TO.P,TP2,1,1*%
%TO.N,/DATA0*%
X74000000Y-54000000D03*
%TD*%
%TO.P,TP10,1,1*%
%TO.N,/RESET*%
X75000000Y-53000000D03*
%TD*%
%TO.P,TP4,1,1*%
%TO.N,/DATA2*%
X78800000Y-54000000D03*
%TD*%
%TO.P,TP14,1,1*%
%TO.N,/SOFT*%
X73000000Y-54000000D03*
%TD*%
D21*
%TO.N,GND*%
X50000000Y-61525000D03*
X75000000Y-56525000D03*
X52500000Y-61525000D03*
X62500000Y-51525000D03*
X80000000Y-51525000D03*
X65000000Y-51525000D03*
X52500000Y-59025000D03*
X50000000Y-59025000D03*
X62500000Y-49025000D03*
X65000000Y-49025000D03*
X65000000Y-54025000D03*
X47500000Y-64025000D03*
X82500000Y-51525000D03*
X72500000Y-59025000D03*
X62500000Y-54025000D03*
X47500000Y-61525000D03*
X77500000Y-51525000D03*
D22*
%TO.N,/DATA0*%
X70500000Y-48750000D03*
%TO.N,/DATA1*%
X70500000Y-47475000D03*
%TO.N,/DATA2*%
X70500000Y-46210000D03*
D23*
%TO.N,+3.3V*%
X81800000Y-55800000D03*
X81800000Y-54800000D03*
D21*
X78000000Y-55250000D03*
X70500000Y-54500000D03*
%TD*%
D24*
%TO.N,Net-(U1-X_1)*%
X55700000Y-59025000D02*
X55700000Y-60475000D01*
X55700000Y-59025000D02*
X55700000Y-57400000D01*
X55700000Y-57400000D02*
X58000000Y-55100000D01*
X58000000Y-55100000D02*
X59200000Y-55100000D01*
%TO.N,Net-(U1-X_2)*%
X54300000Y-59025000D02*
X54300000Y-57700000D01*
X54300000Y-57700000D02*
X58170000Y-53830000D01*
X54300000Y-59025000D02*
X54300000Y-60495000D01*
X58170000Y-53830000D02*
X59200000Y-53830000D01*
%TO.N,Net-(D1-K)*%
X57590000Y-58910000D02*
X56425000Y-60075000D01*
X56425000Y-60075000D02*
X56425000Y-62175000D01*
X56425000Y-62175000D02*
X55575000Y-63025000D01*
X59200000Y-58910000D02*
X57590000Y-58910000D01*
X55575000Y-63025000D02*
X55250000Y-63025000D01*
%TO.N,Net-(D1-A)*%
X53675000Y-63025000D02*
X52487500Y-63025000D01*
%TO.N,/BATT*%
X51467500Y-63025000D02*
X49250000Y-63025000D01*
D25*
%TO.N,/DATA0*%
X70500000Y-48750000D02*
X68500000Y-48750000D01*
X74000000Y-54000000D02*
X74000000Y-55000000D01*
%TO.N,/DATA1*%
X68505000Y-47475000D02*
X68500000Y-47480000D01*
X70500000Y-47475000D02*
X68505000Y-47475000D01*
%TO.N,/DATA2*%
X70500000Y-46210000D02*
X68500000Y-46210000D01*
%TO.N,/DATA3*%
X72000000Y-55000000D02*
X72000000Y-55750000D01*
X70200000Y-49400000D02*
X71000000Y-50200000D01*
X67175000Y-45525000D02*
X67175000Y-49090552D01*
X67175000Y-49090552D02*
X67484448Y-49400000D01*
X67760000Y-44940000D02*
X67175000Y-45525000D01*
X72000000Y-55750000D02*
X71750000Y-56000000D01*
X67484448Y-49400000D02*
X70200000Y-49400000D01*
X71000000Y-54000000D02*
X72000000Y-55000000D01*
X71000000Y-50200000D02*
X71000000Y-54000000D01*
X72000000Y-55000000D02*
X73000000Y-55000000D01*
X68500000Y-44940000D02*
X67760000Y-44940000D01*
D24*
%TO.N,+3.3V*%
X61500000Y-54500000D02*
X60550000Y-54500000D01*
X81800000Y-55800000D02*
X82550000Y-55800000D01*
X60550000Y-57025000D02*
X60550000Y-59260908D01*
X78000000Y-53839878D02*
X78000000Y-53823690D01*
X70475000Y-54475000D02*
X66475305Y-54475000D01*
X60550000Y-59260908D02*
X59630908Y-60180000D01*
X78000000Y-53839878D02*
X78000000Y-55250000D01*
X58700000Y-57025000D02*
X58700000Y-57640000D01*
X60550000Y-54500000D02*
X60550000Y-56825000D01*
X77739878Y-53839878D02*
X74405419Y-50505419D01*
X70500000Y-54500000D02*
X70475000Y-54475000D01*
X58700000Y-56370000D02*
X58700000Y-57025000D01*
X61750000Y-54750000D02*
X61500000Y-54500000D01*
X82550000Y-55800000D02*
X82800000Y-55550000D01*
X78000000Y-53823690D02*
X78478690Y-53345000D01*
X59200000Y-47480000D02*
X60224999Y-47480000D01*
X60550000Y-47805001D02*
X60550000Y-54500000D01*
X74405419Y-50505419D02*
X74405419Y-49911917D01*
X60224999Y-47480000D02*
X60550000Y-47805001D01*
X66200305Y-54750000D02*
X61750000Y-54750000D01*
X82455000Y-53655000D02*
X82800000Y-54000000D01*
X58700000Y-57025000D02*
X60550000Y-57025000D01*
X80720000Y-53345000D02*
X81030000Y-53655000D01*
X78000000Y-53839878D02*
X77739878Y-53839878D01*
X82800000Y-55550000D02*
X82800000Y-54000000D01*
X60550000Y-56825000D02*
X60550000Y-57025000D01*
X81030000Y-53655000D02*
X82455000Y-53655000D01*
X59630908Y-60180000D02*
X59200000Y-60180000D01*
X66475305Y-54475000D02*
X66200305Y-54750000D01*
X82800000Y-54800000D02*
X81800000Y-54800000D01*
X78478690Y-53345000D02*
X80720000Y-53345000D01*
D25*
%TO.N,Net-(U10-RST)*%
X74000000Y-52193502D02*
X74000000Y-53000000D01*
X74000000Y-52193502D02*
X73061917Y-51255419D01*
X74000000Y-53000000D02*
X75600000Y-54600000D01*
X75600000Y-54600000D02*
X76000000Y-54600000D01*
D24*
%TO.N,/RESET*%
X75000000Y-53000000D02*
X75800000Y-53000000D01*
X75800000Y-53000000D02*
X77000000Y-54200000D01*
%TO.N,/POWER*%
X81600000Y-51600000D02*
X81600000Y-53000000D01*
%TO.N,/SOFT*%
X72200000Y-53200000D02*
X73000000Y-54000000D01*
X72000000Y-53200000D02*
X72200000Y-53200000D01*
%TD*%
%TA.AperFunction,Conductor*%
%TO.N,GND*%
G36*
X55293834Y-57269007D02*
G01*
X55349767Y-57310879D01*
X55374184Y-57376343D01*
X55374500Y-57385189D01*
X55374500Y-58184619D01*
X55354815Y-58251658D01*
X55319392Y-58287720D01*
X55255448Y-58330446D01*
X55211132Y-58396769D01*
X55211131Y-58396770D01*
X55199500Y-58455247D01*
X55199500Y-59594752D01*
X55211131Y-59653229D01*
X55211132Y-59653230D01*
X55238660Y-59694427D01*
X55255448Y-59719552D01*
X55319392Y-59762279D01*
X55364196Y-59815888D01*
X55374500Y-59865379D01*
X55374500Y-60002598D01*
X55354815Y-60069637D01*
X55338181Y-60090279D01*
X55246776Y-60181683D01*
X55196027Y-60290514D01*
X55189500Y-60340097D01*
X55189500Y-60699894D01*
X55189501Y-60699900D01*
X55196028Y-60749487D01*
X55246776Y-60858316D01*
X55331684Y-60943224D01*
X55440513Y-60993972D01*
X55490099Y-61000500D01*
X55909900Y-61000499D01*
X55959317Y-60993994D01*
X56028352Y-61004760D01*
X56080607Y-61051141D01*
X56099500Y-61116933D01*
X56099500Y-61988810D01*
X56079815Y-62055849D01*
X56063181Y-62076491D01*
X55808577Y-62331095D01*
X55747254Y-62364580D01*
X55677562Y-62359596D01*
X55664602Y-62353899D01*
X55637417Y-62340047D01*
X55539251Y-62324500D01*
X55539246Y-62324500D01*
X55035754Y-62324500D01*
X55035749Y-62324500D01*
X54937582Y-62340047D01*
X54889435Y-62364580D01*
X54819249Y-62400342D01*
X54819248Y-62400343D01*
X54819243Y-62400346D01*
X54725346Y-62494243D01*
X54725343Y-62494248D01*
X54725342Y-62494249D01*
X54720532Y-62503690D01*
X54665047Y-62612582D01*
X54649500Y-62710748D01*
X54649500Y-63289251D01*
X54665047Y-63387417D01*
X54673527Y-63404059D01*
X54725342Y-63505751D01*
X54725344Y-63505753D01*
X54725346Y-63505756D01*
X54819243Y-63599653D01*
X54819245Y-63599654D01*
X54819249Y-63599658D01*
X54937580Y-63659951D01*
X54937581Y-63659951D01*
X54937583Y-63659952D01*
X54937582Y-63659952D01*
X55035749Y-63675500D01*
X55445876Y-63675500D01*
X55512915Y-63695185D01*
X55558670Y-63747989D01*
X55568614Y-63817147D01*
X55539589Y-63880703D01*
X55533557Y-63887181D01*
X55405635Y-64015103D01*
X55405617Y-64015112D01*
X55317043Y-64103689D01*
X55317038Y-64103696D01*
X55234910Y-64226614D01*
X55178339Y-64363194D01*
X55149499Y-64508193D01*
X55149500Y-64555831D01*
X55149500Y-64590244D01*
X55147973Y-64609642D01*
X55140361Y-64657702D01*
X55128372Y-64694600D01*
X55110766Y-64729153D01*
X55087963Y-64760538D01*
X55060538Y-64787963D01*
X55029153Y-64810766D01*
X54994600Y-64828372D01*
X54957702Y-64840361D01*
X54922884Y-64845875D01*
X54909640Y-64847973D01*
X54890244Y-64849500D01*
X45759756Y-64849500D01*
X45740359Y-64847973D01*
X45692297Y-64840361D01*
X45655400Y-64828372D01*
X45620845Y-64810765D01*
X45589461Y-64787963D01*
X45562036Y-64760538D01*
X45539235Y-64729156D01*
X45521625Y-64694595D01*
X45509639Y-64657706D01*
X45502025Y-64609631D01*
X45500500Y-64590244D01*
X45500500Y-63000000D01*
X48544355Y-63000000D01*
X48564859Y-63168869D01*
X48564860Y-63168874D01*
X48625182Y-63327931D01*
X48687475Y-63418177D01*
X48721817Y-63467929D01*
X48802117Y-63539068D01*
X48849150Y-63580736D01*
X48999773Y-63659789D01*
X48999775Y-63659790D01*
X49164944Y-63700500D01*
X49335056Y-63700500D01*
X49500225Y-63659790D01*
X49614800Y-63599656D01*
X49650849Y-63580736D01*
X49650850Y-63580734D01*
X49650852Y-63580734D01*
X49778183Y-63467929D01*
X49822270Y-63404057D01*
X49876552Y-63360069D01*
X49924319Y-63350500D01*
X50950441Y-63350500D01*
X51017480Y-63370185D01*
X51052016Y-63403377D01*
X51053434Y-63405402D01*
X51053435Y-63405404D01*
X51137096Y-63489065D01*
X51244327Y-63539068D01*
X51293183Y-63545500D01*
X51293184Y-63545500D01*
X51641817Y-63545500D01*
X51658101Y-63543356D01*
X51690673Y-63539068D01*
X51797904Y-63489065D01*
X51881565Y-63405404D01*
X51881565Y-63405403D01*
X51889236Y-63397733D01*
X51892064Y-63400561D01*
X51930477Y-63369843D01*
X51999974Y-63362635D01*
X52062335Y-63394143D01*
X52065593Y-63397903D01*
X52065764Y-63397733D01*
X52073435Y-63405404D01*
X52157096Y-63489065D01*
X52264327Y-63539068D01*
X52313183Y-63545500D01*
X52313184Y-63545500D01*
X52661817Y-63545500D01*
X52678101Y-63543356D01*
X52710673Y-63539068D01*
X52817904Y-63489065D01*
X52901565Y-63405404D01*
X52901565Y-63405403D01*
X52909236Y-63397733D01*
X52911479Y-63399976D01*
X52952157Y-63367452D01*
X53021654Y-63360249D01*
X53084014Y-63391763D01*
X53109653Y-63425895D01*
X53150342Y-63505751D01*
X53150344Y-63505753D01*
X53150346Y-63505756D01*
X53244243Y-63599653D01*
X53244245Y-63599654D01*
X53244249Y-63599658D01*
X53362580Y-63659951D01*
X53362581Y-63659951D01*
X53362583Y-63659952D01*
X53362582Y-63659952D01*
X53460749Y-63675500D01*
X53460754Y-63675500D01*
X53964251Y-63675500D01*
X54062417Y-63659952D01*
X54062418Y-63659951D01*
X54062420Y-63659951D01*
X54180751Y-63599658D01*
X54274658Y-63505751D01*
X54334951Y-63387420D01*
X54334951Y-63387418D01*
X54334952Y-63387417D01*
X54350500Y-63289251D01*
X54350500Y-62710748D01*
X54334952Y-62612582D01*
X54308636Y-62560935D01*
X54274658Y-62494249D01*
X54274654Y-62494245D01*
X54274653Y-62494243D01*
X54180756Y-62400346D01*
X54180753Y-62400344D01*
X54180751Y-62400342D01*
X54062420Y-62340049D01*
X54062419Y-62340048D01*
X54062416Y-62340047D01*
X54062417Y-62340047D01*
X53964251Y-62324500D01*
X53964246Y-62324500D01*
X53460754Y-62324500D01*
X53460749Y-62324500D01*
X53362582Y-62340047D01*
X53314435Y-62364580D01*
X53244249Y-62400342D01*
X53244248Y-62400343D01*
X53244243Y-62400346D01*
X53150346Y-62494243D01*
X53150341Y-62494250D01*
X53093103Y-62606584D01*
X53045128Y-62657379D01*
X52977307Y-62674174D01*
X52911172Y-62651636D01*
X52894938Y-62637969D01*
X52817904Y-62560935D01*
X52801625Y-62553344D01*
X52710673Y-62510932D01*
X52710671Y-62510931D01*
X52710672Y-62510931D01*
X52661817Y-62504500D01*
X52661816Y-62504500D01*
X52313184Y-62504500D01*
X52313183Y-62504500D01*
X52264328Y-62510931D01*
X52157095Y-62560935D01*
X52065764Y-62652267D01*
X52062940Y-62649443D01*
X52024458Y-62680183D01*
X51954958Y-62687352D01*
X51892614Y-62655808D01*
X51889401Y-62652101D01*
X51889236Y-62652267D01*
X51797904Y-62560935D01*
X51781625Y-62553344D01*
X51690673Y-62510932D01*
X51690671Y-62510931D01*
X51690672Y-62510931D01*
X51641817Y-62504500D01*
X51641816Y-62504500D01*
X51293184Y-62504500D01*
X51293183Y-62504500D01*
X51244328Y-62510931D01*
X51137095Y-62560935D01*
X51053436Y-62644594D01*
X51052016Y-62646623D01*
X51048986Y-62649044D01*
X51045764Y-62652267D01*
X51045404Y-62651907D01*
X50997439Y-62690248D01*
X50950441Y-62699500D01*
X49958832Y-62699500D01*
X49891793Y-62679815D01*
X49856782Y-62645941D01*
X49855854Y-62644596D01*
X49778183Y-62532071D01*
X49650852Y-62419266D01*
X49650849Y-62419263D01*
X49500226Y-62340210D01*
X49335056Y-62299500D01*
X49164944Y-62299500D01*
X48999773Y-62340210D01*
X48849150Y-62419263D01*
X48721816Y-62532072D01*
X48625182Y-62672068D01*
X48564860Y-62831125D01*
X48564859Y-62831130D01*
X48544355Y-63000000D01*
X45500500Y-63000000D01*
X45500500Y-62990227D01*
X45501561Y-62974043D01*
X45501925Y-62971275D01*
X45506870Y-62933710D01*
X45515244Y-62902454D01*
X45527681Y-62872426D01*
X45543856Y-62844408D01*
X45568612Y-62812144D01*
X45579286Y-62799973D01*
X50024942Y-58354317D01*
X50037124Y-58343633D01*
X50069407Y-58318863D01*
X50097434Y-58302683D01*
X50127449Y-58290250D01*
X50158710Y-58281874D01*
X50199090Y-58276559D01*
X50215267Y-58275500D01*
X53107147Y-58275500D01*
X53107181Y-58275495D01*
X53116807Y-58275496D01*
X53261803Y-58246656D01*
X53398386Y-58190084D01*
X53521307Y-58107952D01*
X53521310Y-58107949D01*
X53521315Y-58107945D01*
X53538343Y-58090917D01*
X53538344Y-58090917D01*
X53762820Y-57866440D01*
X53824142Y-57832956D01*
X53893833Y-57837940D01*
X53949767Y-57879811D01*
X53974184Y-57945276D01*
X53974500Y-57954122D01*
X53974500Y-58184619D01*
X53954815Y-58251658D01*
X53919392Y-58287720D01*
X53855448Y-58330446D01*
X53811132Y-58396769D01*
X53811131Y-58396770D01*
X53799500Y-58455247D01*
X53799500Y-59594752D01*
X53811131Y-59653229D01*
X53811132Y-59653230D01*
X53838660Y-59694427D01*
X53855448Y-59719552D01*
X53919392Y-59762279D01*
X53964196Y-59815888D01*
X53974500Y-59865379D01*
X53974500Y-59974498D01*
X53954815Y-60041537D01*
X53902907Y-60086879D01*
X53881684Y-60096775D01*
X53796776Y-60181683D01*
X53746027Y-60290514D01*
X53739500Y-60340097D01*
X53739500Y-60699894D01*
X53739501Y-60699900D01*
X53746028Y-60749487D01*
X53796776Y-60858316D01*
X53881684Y-60943224D01*
X53990513Y-60993972D01*
X54040099Y-61000500D01*
X54459900Y-61000499D01*
X54509487Y-60993972D01*
X54618316Y-60943224D01*
X54703224Y-60858316D01*
X54753972Y-60749487D01*
X54760500Y-60699901D01*
X54760499Y-60340100D01*
X54753972Y-60290513D01*
X54703224Y-60181684D01*
X54661819Y-60140279D01*
X54628334Y-60078956D01*
X54625500Y-60052598D01*
X54625500Y-59865379D01*
X54645185Y-59798340D01*
X54680606Y-59762280D01*
X54744552Y-59719552D01*
X54788867Y-59653231D01*
X54788867Y-59653229D01*
X54788868Y-59653229D01*
X54800499Y-59594752D01*
X54800500Y-59594750D01*
X54800500Y-58455249D01*
X54800499Y-58455247D01*
X54788868Y-58396770D01*
X54788867Y-58396769D01*
X54744551Y-58330446D01*
X54680608Y-58287720D01*
X54635804Y-58234108D01*
X54625500Y-58184619D01*
X54625500Y-57886189D01*
X54645185Y-57819150D01*
X54661819Y-57798508D01*
X55162819Y-57297508D01*
X55224142Y-57264023D01*
X55293834Y-57269007D01*
G37*
%TD.AperFunction*%
%TA.AperFunction,Conductor*%
G36*
X74608800Y-54044832D02*
G01*
X74644978Y-54069949D01*
X75415489Y-54840460D01*
X75484012Y-54880022D01*
X75560438Y-54900500D01*
X75607657Y-54900500D01*
X75674696Y-54920185D01*
X75701369Y-54943296D01*
X75701949Y-54943965D01*
X75701951Y-54943967D01*
X75810931Y-55014004D01*
X75824929Y-55018114D01*
X75935225Y-55050499D01*
X75935227Y-55050500D01*
X75935228Y-55050500D01*
X76064773Y-55050500D01*
X76064773Y-55050499D01*
X76189069Y-55014004D01*
X76298049Y-54943967D01*
X76382882Y-54846063D01*
X76436697Y-54728226D01*
X76455133Y-54600000D01*
X76455133Y-54599999D01*
X76455133Y-54591580D01*
X76474818Y-54524541D01*
X76527622Y-54478786D01*
X76596780Y-54468842D01*
X76660336Y-54497867D01*
X76672847Y-54510379D01*
X76701948Y-54543965D01*
X76701950Y-54543966D01*
X76701951Y-54543967D01*
X76810931Y-54614004D01*
X76935225Y-54650499D01*
X76935227Y-54650500D01*
X76935228Y-54650500D01*
X77064773Y-54650500D01*
X77064773Y-54650499D01*
X77189069Y-54614004D01*
X77298049Y-54543967D01*
X77382882Y-54446063D01*
X77436697Y-54328226D01*
X77436697Y-54328225D01*
X77437706Y-54326016D01*
X77483461Y-54273212D01*
X77550500Y-54253528D01*
X77617540Y-54273213D01*
X77663294Y-54326017D01*
X77674500Y-54377528D01*
X77674500Y-54681699D01*
X77654815Y-54748738D01*
X77625988Y-54780074D01*
X77571720Y-54821715D01*
X77475463Y-54947160D01*
X77414956Y-55093237D01*
X77414955Y-55093239D01*
X77394318Y-55249998D01*
X77394318Y-55250001D01*
X77414955Y-55406760D01*
X77414956Y-55406762D01*
X77462518Y-55521588D01*
X77475464Y-55552841D01*
X77571718Y-55678282D01*
X77697159Y-55774536D01*
X77843238Y-55835044D01*
X77921619Y-55845363D01*
X77999999Y-55855682D01*
X78000000Y-55855682D01*
X78000001Y-55855682D01*
X78063584Y-55847311D01*
X78156762Y-55835044D01*
X78302841Y-55774536D01*
X78428282Y-55678282D01*
X78524536Y-55552841D01*
X78585044Y-55406762D01*
X78602178Y-55276613D01*
X78605682Y-55250001D01*
X78605682Y-55249998D01*
X78585044Y-55093239D01*
X78585044Y-55093238D01*
X78524536Y-54947159D01*
X78428282Y-54821718D01*
X78428280Y-54821716D01*
X78428279Y-54821715D01*
X78374012Y-54780074D01*
X78332810Y-54723646D01*
X78325500Y-54681699D01*
X78325500Y-54460091D01*
X78345185Y-54393052D01*
X78397989Y-54347297D01*
X78467147Y-54337353D01*
X78515579Y-54357756D01*
X78516348Y-54356425D01*
X78523386Y-54360488D01*
X78523387Y-54360489D01*
X78552899Y-54377528D01*
X78562878Y-54383289D01*
X78567918Y-54386361D01*
X78610930Y-54414004D01*
X78612226Y-54414595D01*
X78621171Y-54417751D01*
X78626107Y-54419795D01*
X78626114Y-54419799D01*
X78674940Y-54432881D01*
X78676778Y-54433374D01*
X78679580Y-54434160D01*
X78735228Y-54450500D01*
X78864772Y-54450500D01*
X78920426Y-54434157D01*
X78923243Y-54433368D01*
X78973886Y-54419799D01*
X78973892Y-54419795D01*
X78978821Y-54417754D01*
X78987768Y-54414597D01*
X78989062Y-54414005D01*
X78989069Y-54414004D01*
X79032114Y-54386339D01*
X79037086Y-54383309D01*
X79076613Y-54360489D01*
X79076618Y-54360483D01*
X79083068Y-54355536D01*
X79083111Y-54355593D01*
X79095525Y-54345588D01*
X79098049Y-54343967D01*
X79106284Y-54334463D01*
X79165061Y-54296686D01*
X79234930Y-54296684D01*
X79293709Y-54334455D01*
X79301951Y-54343967D01*
X79304485Y-54345595D01*
X79316897Y-54355598D01*
X79316941Y-54355542D01*
X79323381Y-54360483D01*
X79323387Y-54360489D01*
X79362871Y-54383285D01*
X79362878Y-54383289D01*
X79367918Y-54386361D01*
X79410930Y-54414004D01*
X79412226Y-54414595D01*
X79421171Y-54417751D01*
X79426107Y-54419795D01*
X79426114Y-54419799D01*
X79474940Y-54432881D01*
X79476778Y-54433374D01*
X79479580Y-54434160D01*
X79535228Y-54450500D01*
X79664772Y-54450500D01*
X79720426Y-54434157D01*
X79723243Y-54433368D01*
X79773886Y-54419799D01*
X79773892Y-54419795D01*
X79778821Y-54417754D01*
X79787768Y-54414597D01*
X79789062Y-54414005D01*
X79789069Y-54414004D01*
X79832114Y-54386339D01*
X79837086Y-54383309D01*
X79876613Y-54360489D01*
X79876618Y-54360483D01*
X79883068Y-54355536D01*
X79883111Y-54355593D01*
X79895525Y-54345588D01*
X79898049Y-54343967D01*
X79927054Y-54310491D01*
X79933060Y-54304040D01*
X79960489Y-54276613D01*
X79962708Y-54272767D01*
X79976391Y-54253553D01*
X79981795Y-54247316D01*
X80040577Y-54209548D01*
X80110447Y-54209555D01*
X80169221Y-54247335D01*
X80198240Y-54310894D01*
X80199500Y-54328529D01*
X80199500Y-56356399D01*
X80224596Y-56466350D01*
X80239211Y-56496698D01*
X80250563Y-56565639D01*
X80222841Y-56629774D01*
X80164846Y-56668740D01*
X80127491Y-56674500D01*
X75796463Y-56674500D01*
X75796417Y-56674504D01*
X75783193Y-56674504D01*
X75746944Y-56681714D01*
X75638194Y-56703344D01*
X75501615Y-56759915D01*
X75378691Y-56842048D01*
X75368722Y-56852017D01*
X70428034Y-61792704D01*
X70366711Y-61826189D01*
X70297019Y-61821205D01*
X70241086Y-61779333D01*
X70216669Y-61713869D01*
X70217649Y-61687145D01*
X70225500Y-61633260D01*
X70225500Y-61266739D01*
X70216302Y-61203608D01*
X70215573Y-61198607D01*
X70164198Y-61093517D01*
X70164196Y-61093515D01*
X70164196Y-61093514D01*
X70081485Y-61010803D01*
X69976391Y-60959426D01*
X69908261Y-60949500D01*
X69908260Y-60949500D01*
X68091740Y-60949500D01*
X68091739Y-60949500D01*
X68023608Y-60959426D01*
X67918514Y-61010803D01*
X67835803Y-61093514D01*
X67784426Y-61198608D01*
X67774500Y-61266739D01*
X67774500Y-61633260D01*
X67784426Y-61701391D01*
X67835803Y-61806485D01*
X67918514Y-61889196D01*
X67918515Y-61889196D01*
X67918517Y-61889198D01*
X68023607Y-61940573D01*
X68057673Y-61945536D01*
X68091739Y-61950500D01*
X68091740Y-61950500D01*
X69908261Y-61950500D01*
X69962145Y-61942649D01*
X70031322Y-61952462D01*
X70084212Y-61998117D01*
X70104023Y-62065119D01*
X70084464Y-62132196D01*
X70067704Y-62153034D01*
X69775064Y-62445674D01*
X69762869Y-62456369D01*
X69730597Y-62481132D01*
X69702561Y-62497318D01*
X69672550Y-62509748D01*
X69641284Y-62518125D01*
X69600917Y-62523439D01*
X69584733Y-62524500D01*
X57146463Y-62524500D01*
X57146417Y-62524504D01*
X57133193Y-62524504D01*
X57096944Y-62531714D01*
X56988194Y-62553344D01*
X56851615Y-62609915D01*
X56728691Y-62692048D01*
X56718722Y-62702017D01*
X56137181Y-63283557D01*
X56075858Y-63317042D01*
X56006166Y-63312058D01*
X55950233Y-63270186D01*
X55925816Y-63204722D01*
X55925500Y-63195876D01*
X55925500Y-63186187D01*
X55945185Y-63119148D01*
X55961815Y-63098510D01*
X56614652Y-62445672D01*
X56614657Y-62445669D01*
X56624860Y-62435465D01*
X56624862Y-62435465D01*
X56685465Y-62374862D01*
X56728318Y-62300638D01*
X56728623Y-62299500D01*
X56750501Y-62217852D01*
X56750501Y-62132147D01*
X56750501Y-62124552D01*
X56750500Y-62124534D01*
X56750500Y-61271739D01*
X57474500Y-61271739D01*
X57474500Y-61638260D01*
X57484426Y-61706391D01*
X57535803Y-61811485D01*
X57618514Y-61894196D01*
X57618515Y-61894196D01*
X57618517Y-61894198D01*
X57723607Y-61945573D01*
X57757423Y-61950500D01*
X57791739Y-61955500D01*
X57791740Y-61955500D01*
X59608261Y-61955500D01*
X59642577Y-61950500D01*
X59676393Y-61945573D01*
X59781483Y-61894198D01*
X59864198Y-61811483D01*
X59915573Y-61706393D01*
X59925500Y-61638260D01*
X59925500Y-61271740D01*
X59924771Y-61266740D01*
X59915573Y-61203608D01*
X59913129Y-61198608D01*
X59864198Y-61098517D01*
X59864196Y-61098515D01*
X59864196Y-61098514D01*
X59781485Y-61015803D01*
X59676391Y-60964426D01*
X59608261Y-60954500D01*
X59608260Y-60954500D01*
X57791740Y-60954500D01*
X57791739Y-60954500D01*
X57723608Y-60964426D01*
X57618514Y-61015803D01*
X57535803Y-61098514D01*
X57484426Y-61203608D01*
X57474500Y-61271739D01*
X56750500Y-61271739D01*
X56750500Y-60261187D01*
X56770185Y-60194148D01*
X56786815Y-60173510D01*
X57547594Y-59412730D01*
X57608915Y-59379247D01*
X57678606Y-59384231D01*
X57689716Y-59389004D01*
X57723607Y-59405573D01*
X57757423Y-59410500D01*
X57791739Y-59415500D01*
X57791740Y-59415500D01*
X59608258Y-59415500D01*
X59608260Y-59415500D01*
X59620989Y-59413645D01*
X59690165Y-59423457D01*
X59743056Y-59469111D01*
X59762868Y-59536113D01*
X59743311Y-59603190D01*
X59726549Y-59624030D01*
X59702265Y-59648314D01*
X59640942Y-59681799D01*
X59612747Y-59683803D01*
X59612747Y-59684500D01*
X57791739Y-59684500D01*
X57723608Y-59694426D01*
X57618514Y-59745803D01*
X57535803Y-59828514D01*
X57484426Y-59933608D01*
X57474500Y-60001739D01*
X57474500Y-60368260D01*
X57484426Y-60436391D01*
X57535803Y-60541485D01*
X57618514Y-60624196D01*
X57618515Y-60624196D01*
X57618517Y-60624198D01*
X57723607Y-60675573D01*
X57757423Y-60680500D01*
X57791739Y-60685500D01*
X57791740Y-60685500D01*
X59608261Y-60685500D01*
X59642577Y-60680500D01*
X59676393Y-60675573D01*
X59781483Y-60624198D01*
X59864198Y-60541483D01*
X59915573Y-60436393D01*
X59923410Y-60382602D01*
X59952554Y-60319104D01*
X59958420Y-60312814D01*
X60037820Y-60233414D01*
X60099142Y-60199930D01*
X60168834Y-60204914D01*
X60224767Y-60246786D01*
X60249184Y-60312250D01*
X60249500Y-60321096D01*
X60249500Y-61455830D01*
X60249500Y-61500000D01*
X60249500Y-61573918D01*
X60249500Y-61573920D01*
X60249499Y-61573920D01*
X60278340Y-61718907D01*
X60278343Y-61718917D01*
X60334912Y-61855488D01*
X60334919Y-61855501D01*
X60417048Y-61978415D01*
X60417051Y-61978419D01*
X60521580Y-62082948D01*
X60521584Y-62082951D01*
X60644498Y-62165080D01*
X60644511Y-62165087D01*
X60771898Y-62217852D01*
X60781087Y-62221658D01*
X60781091Y-62221658D01*
X60781092Y-62221659D01*
X60926079Y-62250500D01*
X60926082Y-62250500D01*
X65573920Y-62250500D01*
X65671462Y-62231096D01*
X65718913Y-62221658D01*
X65855495Y-62165084D01*
X65978416Y-62082951D01*
X66082951Y-61978416D01*
X66165084Y-61855495D01*
X66221658Y-61718913D01*
X66250500Y-61573918D01*
X66250500Y-61500000D01*
X66250500Y-61455830D01*
X66250500Y-61009755D01*
X66252025Y-60990369D01*
X66259639Y-60942291D01*
X66271624Y-60905406D01*
X66289237Y-60870840D01*
X66312033Y-60839464D01*
X66339464Y-60812033D01*
X66370840Y-60789237D01*
X66405406Y-60771624D01*
X66442291Y-60759639D01*
X66490368Y-60752025D01*
X66509756Y-60750500D01*
X67073920Y-60750500D01*
X67171462Y-60731096D01*
X67218913Y-60721658D01*
X67355495Y-60665084D01*
X67478416Y-60582951D01*
X67582951Y-60478416D01*
X67592775Y-60463712D01*
X67646384Y-60418906D01*
X67715709Y-60410196D01*
X67778738Y-60440348D01*
X67807279Y-60478140D01*
X67835800Y-60536482D01*
X67918514Y-60619196D01*
X67918515Y-60619196D01*
X67918517Y-60619198D01*
X68023607Y-60670573D01*
X68057673Y-60675536D01*
X68091739Y-60680500D01*
X68091740Y-60680500D01*
X69908261Y-60680500D01*
X69930971Y-60677191D01*
X69976393Y-60670573D01*
X70081483Y-60619198D01*
X70164198Y-60536483D01*
X70215573Y-60431393D01*
X70225500Y-60363260D01*
X70225500Y-59996740D01*
X70215573Y-59928607D01*
X70164198Y-59823517D01*
X70164196Y-59823515D01*
X70164196Y-59823514D01*
X70081485Y-59740803D01*
X69976391Y-59689426D01*
X69908261Y-59679500D01*
X69908260Y-59679500D01*
X68091740Y-59679500D01*
X68091739Y-59679500D01*
X68023608Y-59689426D01*
X67928960Y-59735697D01*
X67860087Y-59747456D01*
X67795790Y-59720112D01*
X67756483Y-59662348D01*
X67750500Y-59624296D01*
X67750500Y-59465703D01*
X67770185Y-59398664D01*
X67822989Y-59352909D01*
X67892147Y-59342965D01*
X67928956Y-59354301D01*
X68019702Y-59398664D01*
X68023607Y-59400573D01*
X68091739Y-59410500D01*
X68091740Y-59410500D01*
X69908261Y-59410500D01*
X69930971Y-59407191D01*
X69976393Y-59400573D01*
X70081483Y-59349198D01*
X70164198Y-59266483D01*
X70215573Y-59161393D01*
X70225500Y-59093260D01*
X70225500Y-58726740D01*
X70215573Y-58658607D01*
X70164198Y-58553517D01*
X70164196Y-58553515D01*
X70164196Y-58553514D01*
X70081485Y-58470803D01*
X70049664Y-58455247D01*
X69976393Y-58419427D01*
X69976391Y-58419426D01*
X69908261Y-58409500D01*
X69908260Y-58409500D01*
X68091740Y-58409500D01*
X68091739Y-58409500D01*
X68023608Y-58419426D01*
X67960839Y-58450112D01*
X67950332Y-58455249D01*
X67928960Y-58465697D01*
X67860087Y-58477456D01*
X67795790Y-58450112D01*
X67756483Y-58392348D01*
X67750500Y-58354296D01*
X67750500Y-56925703D01*
X67770185Y-56858664D01*
X67822989Y-56812909D01*
X67892147Y-56802965D01*
X67928956Y-56814301D01*
X68019702Y-56858664D01*
X68023607Y-56860573D01*
X68091739Y-56870500D01*
X68091740Y-56870500D01*
X69908261Y-56870500D01*
X69930971Y-56867191D01*
X69976393Y-56860573D01*
X70081483Y-56809198D01*
X70164198Y-56726483D01*
X70215573Y-56621393D01*
X70225500Y-56553260D01*
X70225500Y-56186740D01*
X70215573Y-56118607D01*
X70164198Y-56013517D01*
X70164196Y-56013515D01*
X70164196Y-56013514D01*
X70081485Y-55930803D01*
X69976391Y-55879426D01*
X69908261Y-55869500D01*
X69908260Y-55869500D01*
X68091740Y-55869500D01*
X68091739Y-55869500D01*
X68023607Y-55879426D01*
X68023606Y-55879426D01*
X67910907Y-55934521D01*
X67842034Y-55946279D01*
X67777737Y-55918936D01*
X67738431Y-55861171D01*
X67734831Y-55847311D01*
X67725052Y-55798150D01*
X67721658Y-55781087D01*
X67721656Y-55781082D01*
X67665087Y-55644511D01*
X67665080Y-55644498D01*
X67642162Y-55610199D01*
X67637436Y-55595107D01*
X67631292Y-55591383D01*
X67619735Y-55576634D01*
X67582954Y-55521588D01*
X67582948Y-55521580D01*
X67478419Y-55417051D01*
X67478415Y-55417048D01*
X67355501Y-55334919D01*
X67355488Y-55334912D01*
X67218917Y-55278343D01*
X67218907Y-55278340D01*
X67073920Y-55249500D01*
X67073918Y-55249500D01*
X67049828Y-55249500D01*
X66448921Y-55249500D01*
X66381882Y-55229815D01*
X66336127Y-55177011D01*
X66326183Y-55107853D01*
X66355208Y-55044297D01*
X66386919Y-55018114D01*
X66390384Y-55016112D01*
X66400167Y-55010465D01*
X66573813Y-54836817D01*
X66635134Y-54803334D01*
X66661493Y-54800500D01*
X67650500Y-54800500D01*
X67717539Y-54820185D01*
X67763294Y-54872989D01*
X67774500Y-54924500D01*
X67774500Y-55283260D01*
X67784426Y-55351391D01*
X67834238Y-55453284D01*
X67834574Y-55455256D01*
X67918514Y-55539196D01*
X67918515Y-55539196D01*
X67918517Y-55539198D01*
X68023607Y-55590573D01*
X68039242Y-55592851D01*
X68091739Y-55600500D01*
X68091740Y-55600500D01*
X69908261Y-55600500D01*
X69930971Y-55597191D01*
X69976393Y-55590573D01*
X70081483Y-55539198D01*
X70164198Y-55456483D01*
X70215573Y-55351393D01*
X70225500Y-55283260D01*
X70225500Y-55210938D01*
X70245185Y-55143899D01*
X70297989Y-55098144D01*
X70365684Y-55087999D01*
X70405486Y-55093239D01*
X70499999Y-55105682D01*
X70500000Y-55105682D01*
X70500001Y-55105682D01*
X70594514Y-55093239D01*
X70656762Y-55085044D01*
X70802841Y-55024536D01*
X70928282Y-54928282D01*
X71024536Y-54802841D01*
X71057007Y-54724448D01*
X71100848Y-54670045D01*
X71167142Y-54647980D01*
X71234841Y-54665259D01*
X71259249Y-54684220D01*
X71663181Y-55088152D01*
X71696666Y-55149475D01*
X71699500Y-55175833D01*
X71699500Y-55452483D01*
X71679815Y-55519522D01*
X71627011Y-55565277D01*
X71610435Y-55571460D01*
X71560934Y-55585994D01*
X71451950Y-55656033D01*
X71367118Y-55753937D01*
X71367117Y-55753938D01*
X71313302Y-55871774D01*
X71294867Y-56000000D01*
X71313302Y-56128225D01*
X71361590Y-56233959D01*
X71367118Y-56246063D01*
X71451951Y-56343967D01*
X71560931Y-56414004D01*
X71685225Y-56450499D01*
X71685227Y-56450500D01*
X71685228Y-56450500D01*
X71814773Y-56450500D01*
X71814773Y-56450499D01*
X71939069Y-56414004D01*
X72048049Y-56343967D01*
X72132882Y-56246063D01*
X72186697Y-56128226D01*
X72204324Y-56005624D01*
X72233349Y-55942069D01*
X72239373Y-55935597D01*
X72240460Y-55934511D01*
X72245776Y-55925304D01*
X72280021Y-55865989D01*
X72300500Y-55789562D01*
X72300500Y-55424500D01*
X72320185Y-55357461D01*
X72372989Y-55311706D01*
X72424500Y-55300500D01*
X72607658Y-55300500D01*
X72674697Y-55320185D01*
X72701368Y-55343294D01*
X72701951Y-55343967D01*
X72704485Y-55345595D01*
X72716897Y-55355598D01*
X72716941Y-55355542D01*
X72723381Y-55360483D01*
X72723387Y-55360489D01*
X72762871Y-55383285D01*
X72762878Y-55383289D01*
X72767915Y-55386359D01*
X72773310Y-55389826D01*
X72810930Y-55414004D01*
X72812226Y-55414595D01*
X72821171Y-55417751D01*
X72826107Y-55419795D01*
X72826114Y-55419799D01*
X72874940Y-55432881D01*
X72876778Y-55433374D01*
X72879580Y-55434160D01*
X72935228Y-55450500D01*
X73064772Y-55450500D01*
X73120426Y-55434157D01*
X73123243Y-55433368D01*
X73173886Y-55419799D01*
X73173892Y-55419795D01*
X73178821Y-55417754D01*
X73187768Y-55414597D01*
X73189062Y-55414005D01*
X73189069Y-55414004D01*
X73232114Y-55386339D01*
X73237086Y-55383309D01*
X73276613Y-55360489D01*
X73276618Y-55360483D01*
X73283068Y-55355536D01*
X73283111Y-55355593D01*
X73295525Y-55345588D01*
X73298049Y-55343967D01*
X73327054Y-55310491D01*
X73333060Y-55304040D01*
X73360489Y-55276613D01*
X73362708Y-55272767D01*
X73376387Y-55253557D01*
X73382882Y-55246063D01*
X73387204Y-55236598D01*
X73432953Y-55183795D01*
X73499991Y-55164106D01*
X73567031Y-55183786D01*
X73612790Y-55236587D01*
X73612792Y-55236591D01*
X73617117Y-55246062D01*
X73701370Y-55343296D01*
X73701951Y-55343967D01*
X73810931Y-55414004D01*
X73879619Y-55434172D01*
X73935225Y-55450499D01*
X73935227Y-55450500D01*
X73935228Y-55450500D01*
X74064773Y-55450500D01*
X74064773Y-55450499D01*
X74189069Y-55414004D01*
X74298049Y-55343967D01*
X74382882Y-55246063D01*
X74436697Y-55128226D01*
X74455133Y-55000000D01*
X74436697Y-54871774D01*
X74382882Y-54753937D01*
X74382880Y-54753935D01*
X74382879Y-54753932D01*
X74330786Y-54693812D01*
X74301762Y-54630256D01*
X74300500Y-54612611D01*
X74300500Y-54387964D01*
X74320185Y-54320925D01*
X74336819Y-54300283D01*
X74347151Y-54289950D01*
X74360489Y-54276613D01*
X74362708Y-54272767D01*
X74376391Y-54253553D01*
X74382882Y-54246063D01*
X74398428Y-54212018D01*
X74403822Y-54201555D01*
X74419799Y-54173886D01*
X74422734Y-54162931D01*
X74429715Y-54143513D01*
X74436697Y-54128226D01*
X74436698Y-54128217D01*
X74438317Y-54122704D01*
X74476087Y-54063923D01*
X74539641Y-54034893D01*
X74608800Y-54044832D01*
G37*
%TD.AperFunction*%
%TA.AperFunction,Conductor*%
G36*
X57393834Y-56269006D02*
G01*
X57449767Y-56310878D01*
X57474184Y-56376342D01*
X57474500Y-56385188D01*
X57474500Y-56558260D01*
X57484426Y-56626391D01*
X57535803Y-56731485D01*
X57618514Y-56814196D01*
X57618515Y-56814196D01*
X57618517Y-56814198D01*
X57723607Y-56865573D01*
X57757423Y-56870500D01*
X57791739Y-56875500D01*
X57791740Y-56875500D01*
X58250500Y-56875500D01*
X58317539Y-56895185D01*
X58363294Y-56947989D01*
X58374500Y-56999500D01*
X58374500Y-57020500D01*
X58354815Y-57087539D01*
X58302011Y-57133294D01*
X58250500Y-57144500D01*
X57791739Y-57144500D01*
X57723608Y-57154426D01*
X57618514Y-57205803D01*
X57535803Y-57288514D01*
X57484426Y-57393608D01*
X57474500Y-57461739D01*
X57474500Y-57828260D01*
X57484426Y-57896391D01*
X57535803Y-58001485D01*
X57618514Y-58084196D01*
X57618515Y-58084196D01*
X57618517Y-58084198D01*
X57723607Y-58135573D01*
X57757673Y-58140536D01*
X57791739Y-58145500D01*
X57791740Y-58145500D01*
X59608261Y-58145500D01*
X59630971Y-58142191D01*
X59676393Y-58135573D01*
X59781483Y-58084198D01*
X59864198Y-58001483D01*
X59915573Y-57896393D01*
X59925500Y-57828260D01*
X59925500Y-57474500D01*
X59945185Y-57407461D01*
X59997989Y-57361706D01*
X60049500Y-57350500D01*
X60100500Y-57350500D01*
X60167539Y-57370185D01*
X60213294Y-57422989D01*
X60224500Y-57474500D01*
X60224500Y-59074718D01*
X60204815Y-59141757D01*
X60188181Y-59162399D01*
X60134030Y-59216550D01*
X60072707Y-59250035D01*
X60003015Y-59245051D01*
X59947082Y-59203179D01*
X59922665Y-59137715D01*
X59923645Y-59110990D01*
X59925500Y-59098259D01*
X59925500Y-58731739D01*
X59915573Y-58663608D01*
X59913129Y-58658608D01*
X59864198Y-58558517D01*
X59864196Y-58558515D01*
X59864196Y-58558514D01*
X59781485Y-58475803D01*
X59676391Y-58424426D01*
X59608261Y-58414500D01*
X59608260Y-58414500D01*
X57791740Y-58414500D01*
X57791739Y-58414500D01*
X57723608Y-58424426D01*
X57618514Y-58475803D01*
X57528536Y-58565782D01*
X57527580Y-58564826D01*
X57481046Y-58601323D01*
X57467210Y-58605918D01*
X57464363Y-58606680D01*
X57464361Y-58606681D01*
X57440834Y-58620265D01*
X57427250Y-58628108D01*
X57390138Y-58649535D01*
X57390135Y-58649537D01*
X56412181Y-59627492D01*
X56350858Y-59660977D01*
X56281166Y-59655993D01*
X56225233Y-59614121D01*
X56200816Y-59548657D01*
X56200500Y-59539811D01*
X56200500Y-58455249D01*
X56200499Y-58455247D01*
X56188868Y-58396770D01*
X56188867Y-58396769D01*
X56144551Y-58330446D01*
X56080608Y-58287720D01*
X56035804Y-58234108D01*
X56025500Y-58184619D01*
X56025500Y-57586188D01*
X56045185Y-57519149D01*
X56061814Y-57498512D01*
X57262819Y-56297506D01*
X57324142Y-56264022D01*
X57393834Y-56269006D01*
G37*
%TD.AperFunction*%
%TA.AperFunction,Conductor*%
G36*
X69650956Y-44176560D02*
G01*
X69691287Y-44181870D01*
X69722552Y-44190247D01*
X69748364Y-44200938D01*
X69802769Y-44244778D01*
X69824835Y-44311071D01*
X69807557Y-44378771D01*
X69756421Y-44426383D01*
X69700914Y-44439500D01*
X68091739Y-44439500D01*
X68023608Y-44449426D01*
X67918514Y-44500803D01*
X67835805Y-44583512D01*
X67832923Y-44587550D01*
X67777949Y-44630674D01*
X67732003Y-44639500D01*
X67720438Y-44639500D01*
X67689867Y-44647691D01*
X67644008Y-44659979D01*
X67644007Y-44659980D01*
X67594427Y-44688606D01*
X67594426Y-44688607D01*
X67575490Y-44699539D01*
X67575487Y-44699541D01*
X67089770Y-45185258D01*
X67028447Y-45218743D01*
X66958755Y-45213759D01*
X66902822Y-45171887D01*
X66882315Y-45129670D01*
X66862797Y-45056826D01*
X66796919Y-44942711D01*
X66703754Y-44849530D01*
X66589648Y-44783634D01*
X66589647Y-44783633D01*
X66589646Y-44783633D01*
X66589645Y-44783632D01*
X66462381Y-44749512D01*
X66462380Y-44749511D01*
X66462377Y-44749511D01*
X66462348Y-44749510D01*
X66458130Y-44749510D01*
X66458021Y-44749500D01*
X66446275Y-44749500D01*
X66396494Y-44749500D01*
X66396295Y-44749499D01*
X66341558Y-44749490D01*
X66341444Y-44749500D01*
X60693600Y-44749500D01*
X60583649Y-44774596D01*
X60482033Y-44823532D01*
X60482030Y-44823533D01*
X60393854Y-44893854D01*
X60323533Y-44982030D01*
X60323532Y-44982033D01*
X60274596Y-45083649D01*
X60249500Y-45193600D01*
X60249500Y-46841444D01*
X60249490Y-46841558D01*
X60249490Y-46845116D01*
X60249459Y-46845221D01*
X60249476Y-46946159D01*
X60251829Y-46957958D01*
X60252034Y-46958633D01*
X60261522Y-47006286D01*
X60255307Y-47075879D01*
X60212455Y-47131064D01*
X60146569Y-47154321D01*
X60139909Y-47154500D01*
X59941544Y-47154500D01*
X59874505Y-47134815D01*
X59853863Y-47118181D01*
X59781485Y-47045803D01*
X59676391Y-46994426D01*
X59608261Y-46984500D01*
X59608260Y-46984500D01*
X57791740Y-46984500D01*
X57791739Y-46984500D01*
X57723608Y-46994426D01*
X57618514Y-47045803D01*
X57535803Y-47128514D01*
X57484426Y-47233608D01*
X57474500Y-47301739D01*
X57474500Y-47668260D01*
X57484426Y-47736391D01*
X57535803Y-47841485D01*
X57618514Y-47924196D01*
X57618515Y-47924196D01*
X57618517Y-47924198D01*
X57723607Y-47975573D01*
X57757423Y-47980500D01*
X57791739Y-47985500D01*
X57791740Y-47985500D01*
X59608261Y-47985500D01*
X59642577Y-47980500D01*
X59676393Y-47975573D01*
X59781483Y-47924198D01*
X59816677Y-47889004D01*
X59863863Y-47841819D01*
X59925186Y-47808334D01*
X59951544Y-47805500D01*
X60038809Y-47805500D01*
X60105848Y-47825185D01*
X60126490Y-47841818D01*
X60188181Y-47903508D01*
X60221666Y-47964831D01*
X60224500Y-47991190D01*
X60224500Y-56575500D01*
X60204815Y-56642539D01*
X60152011Y-56688294D01*
X60100500Y-56699500D01*
X60048297Y-56699500D01*
X59981258Y-56679815D01*
X59935503Y-56627011D01*
X59926271Y-56562810D01*
X59925176Y-56562731D01*
X59925500Y-56558262D01*
X59925500Y-56191739D01*
X59915573Y-56123608D01*
X59913129Y-56118608D01*
X59864198Y-56018517D01*
X59864196Y-56018515D01*
X59864196Y-56018514D01*
X59781485Y-55935803D01*
X59676391Y-55884426D01*
X59608261Y-55874500D01*
X59608260Y-55874500D01*
X57985189Y-55874500D01*
X57918150Y-55854815D01*
X57872395Y-55802011D01*
X57862451Y-55732853D01*
X57891476Y-55669297D01*
X57897508Y-55662819D01*
X57918508Y-55641819D01*
X57979831Y-55608334D01*
X58006189Y-55605500D01*
X59608261Y-55605500D01*
X59642577Y-55600500D01*
X59676393Y-55595573D01*
X59781483Y-55544198D01*
X59864198Y-55461483D01*
X59915573Y-55356393D01*
X59925500Y-55288260D01*
X59925500Y-54921740D01*
X59925273Y-54920185D01*
X59919422Y-54880022D01*
X59915573Y-54853607D01*
X59864198Y-54748517D01*
X59864196Y-54748515D01*
X59864196Y-54748514D01*
X59781485Y-54665803D01*
X59676391Y-54614426D01*
X59608261Y-54604500D01*
X59608260Y-54604500D01*
X58155189Y-54604500D01*
X58088150Y-54584815D01*
X58042395Y-54532011D01*
X58032451Y-54462853D01*
X58061476Y-54399297D01*
X58067508Y-54392819D01*
X58088508Y-54371819D01*
X58149831Y-54338334D01*
X58176189Y-54335500D01*
X59608261Y-54335500D01*
X59630971Y-54332191D01*
X59676393Y-54325573D01*
X59781483Y-54274198D01*
X59864198Y-54191483D01*
X59915573Y-54086393D01*
X59925500Y-54018260D01*
X59925500Y-53651740D01*
X59924771Y-53646740D01*
X59915573Y-53583608D01*
X59915573Y-53583607D01*
X59864198Y-53478517D01*
X59864196Y-53478515D01*
X59864196Y-53478514D01*
X59781485Y-53395803D01*
X59676391Y-53344426D01*
X59608261Y-53334500D01*
X59608260Y-53334500D01*
X57791740Y-53334500D01*
X57791739Y-53334500D01*
X57723608Y-53344426D01*
X57618514Y-53395803D01*
X57535803Y-53478514D01*
X57484426Y-53583608D01*
X57474500Y-53651739D01*
X57474500Y-54013810D01*
X57454815Y-54080849D01*
X57438181Y-54101491D01*
X57012181Y-54527491D01*
X56950858Y-54560976D01*
X56881166Y-54555992D01*
X56825233Y-54514120D01*
X56800816Y-54448656D01*
X56800500Y-54439810D01*
X56800500Y-52381739D01*
X57474500Y-52381739D01*
X57474500Y-52748260D01*
X57484426Y-52816391D01*
X57535803Y-52921485D01*
X57618514Y-53004196D01*
X57618515Y-53004196D01*
X57618517Y-53004198D01*
X57723607Y-53055573D01*
X57749235Y-53059307D01*
X57791739Y-53065500D01*
X57791740Y-53065500D01*
X59608261Y-53065500D01*
X59650744Y-53059310D01*
X59676393Y-53055573D01*
X59781483Y-53004198D01*
X59864198Y-52921483D01*
X59915573Y-52816393D01*
X59925500Y-52748260D01*
X59925500Y-52381740D01*
X59924771Y-52376740D01*
X59915573Y-52313608D01*
X59913129Y-52308608D01*
X59864198Y-52208517D01*
X59864196Y-52208515D01*
X59864196Y-52208514D01*
X59781485Y-52125803D01*
X59676391Y-52074426D01*
X59608261Y-52064500D01*
X59608260Y-52064500D01*
X57791740Y-52064500D01*
X57791739Y-52064500D01*
X57723608Y-52074426D01*
X57618514Y-52125803D01*
X57535803Y-52208514D01*
X57484426Y-52313608D01*
X57474500Y-52381739D01*
X56800500Y-52381739D01*
X56800500Y-51111739D01*
X57474500Y-51111739D01*
X57474500Y-51478260D01*
X57484426Y-51546391D01*
X57535803Y-51651485D01*
X57618514Y-51734196D01*
X57618515Y-51734196D01*
X57618517Y-51734198D01*
X57723607Y-51785573D01*
X57757423Y-51790500D01*
X57791739Y-51795500D01*
X57791740Y-51795500D01*
X59608261Y-51795500D01*
X59642577Y-51790500D01*
X59676393Y-51785573D01*
X59781483Y-51734198D01*
X59864198Y-51651483D01*
X59915573Y-51546393D01*
X59925500Y-51478260D01*
X59925500Y-51111740D01*
X59924771Y-51106740D01*
X59915573Y-51043608D01*
X59913129Y-51038608D01*
X59864198Y-50938517D01*
X59864196Y-50938515D01*
X59864196Y-50938514D01*
X59781485Y-50855803D01*
X59676391Y-50804426D01*
X59608261Y-50794500D01*
X59608260Y-50794500D01*
X57791740Y-50794500D01*
X57791739Y-50794500D01*
X57723608Y-50804426D01*
X57618514Y-50855803D01*
X57535803Y-50938514D01*
X57484426Y-51043608D01*
X57474500Y-51111739D01*
X56800500Y-51111739D01*
X56800500Y-49841739D01*
X57474500Y-49841739D01*
X57474500Y-50208260D01*
X57484426Y-50276391D01*
X57535803Y-50381485D01*
X57618514Y-50464196D01*
X57618515Y-50464196D01*
X57618517Y-50464198D01*
X57723607Y-50515573D01*
X57757423Y-50520500D01*
X57791739Y-50525500D01*
X57791740Y-50525500D01*
X59608261Y-50525500D01*
X59642577Y-50520500D01*
X59676393Y-50515573D01*
X59781483Y-50464198D01*
X59864198Y-50381483D01*
X59915573Y-50276393D01*
X59925500Y-50208260D01*
X59925500Y-49841740D01*
X59924771Y-49836740D01*
X59915573Y-49773608D01*
X59915573Y-49773607D01*
X59864198Y-49668517D01*
X59864196Y-49668515D01*
X59864196Y-49668514D01*
X59781485Y-49585803D01*
X59676391Y-49534426D01*
X59608261Y-49524500D01*
X59608260Y-49524500D01*
X57791740Y-49524500D01*
X57791739Y-49524500D01*
X57723608Y-49534426D01*
X57618514Y-49585803D01*
X57535803Y-49668514D01*
X57484426Y-49773608D01*
X57474500Y-49841739D01*
X56800500Y-49841739D01*
X56800500Y-48571739D01*
X57474500Y-48571739D01*
X57474500Y-48938260D01*
X57484426Y-49006391D01*
X57535803Y-49111485D01*
X57618514Y-49194196D01*
X57618515Y-49194196D01*
X57618517Y-49194198D01*
X57723607Y-49245573D01*
X57746318Y-49248882D01*
X57791739Y-49255500D01*
X57791740Y-49255500D01*
X59608261Y-49255500D01*
X59630971Y-49252191D01*
X59676393Y-49245573D01*
X59781483Y-49194198D01*
X59864198Y-49111483D01*
X59915573Y-49006393D01*
X59925500Y-48938260D01*
X59925500Y-48571740D01*
X59924771Y-48566740D01*
X59915573Y-48503608D01*
X59913129Y-48498608D01*
X59864198Y-48398517D01*
X59864196Y-48398515D01*
X59864196Y-48398514D01*
X59781485Y-48315803D01*
X59676391Y-48264426D01*
X59608261Y-48254500D01*
X59608260Y-48254500D01*
X57791740Y-48254500D01*
X57791739Y-48254500D01*
X57723608Y-48264426D01*
X57618514Y-48315803D01*
X57535803Y-48398514D01*
X57484426Y-48503608D01*
X57474500Y-48571739D01*
X56800500Y-48571739D01*
X56800500Y-45440227D01*
X56801561Y-45424043D01*
X56806806Y-45384198D01*
X56806870Y-45383710D01*
X56815244Y-45352454D01*
X56827681Y-45322426D01*
X56843856Y-45294408D01*
X56868612Y-45262144D01*
X56879286Y-45249973D01*
X57262819Y-44866441D01*
X57324142Y-44832956D01*
X57393834Y-44837940D01*
X57449767Y-44879812D01*
X57474184Y-44945276D01*
X57474500Y-44954122D01*
X57474500Y-45128260D01*
X57484426Y-45196391D01*
X57535803Y-45301485D01*
X57618514Y-45384196D01*
X57618515Y-45384196D01*
X57618517Y-45384198D01*
X57723607Y-45435573D01*
X57755549Y-45440227D01*
X57791739Y-45445500D01*
X57791740Y-45445500D01*
X59608261Y-45445500D01*
X59642577Y-45440500D01*
X59676393Y-45435573D01*
X59781483Y-45384198D01*
X59864198Y-45301483D01*
X59915573Y-45196393D01*
X59925500Y-45128260D01*
X59925500Y-44761740D01*
X59924771Y-44756740D01*
X59920536Y-44727673D01*
X59915573Y-44693607D01*
X59864198Y-44588517D01*
X59864196Y-44588515D01*
X59864196Y-44588514D01*
X59781485Y-44505803D01*
X59676391Y-44454426D01*
X59608261Y-44444500D01*
X59608260Y-44444500D01*
X57990645Y-44444500D01*
X57923606Y-44424815D01*
X57877851Y-44372011D01*
X57867907Y-44302853D01*
X57896932Y-44239297D01*
X57915141Y-44222138D01*
X57917890Y-44220027D01*
X57919386Y-44218879D01*
X57947434Y-44202683D01*
X57977449Y-44190250D01*
X58008710Y-44181874D01*
X58049090Y-44176559D01*
X58065267Y-44175500D01*
X58101273Y-44175500D01*
X69598727Y-44175500D01*
X69634773Y-44175500D01*
X69650956Y-44176560D01*
G37*
%TD.AperFunction*%
%TA.AperFunction,Conductor*%
G36*
X70430703Y-44860410D02*
G01*
X70437181Y-44866442D01*
X76223115Y-50652376D01*
X76223118Y-50652382D01*
X76251421Y-50680684D01*
X76251421Y-50680685D01*
X76303690Y-50732953D01*
X76426613Y-50815086D01*
X76563198Y-50871659D01*
X76708195Y-50900499D01*
X76782114Y-50900498D01*
X76812461Y-50900497D01*
X85609371Y-50900421D01*
X85609396Y-50900423D01*
X85623814Y-50900422D01*
X85623816Y-50900423D01*
X85656357Y-50900421D01*
X85659866Y-50900421D01*
X85676036Y-50901480D01*
X85716361Y-50906788D01*
X85747630Y-50915168D01*
X85777622Y-50927593D01*
X85805655Y-50943780D01*
X85838029Y-50968626D01*
X85850221Y-50979321D01*
X85883936Y-51013045D01*
X85883994Y-51013093D01*
X86145726Y-51274825D01*
X86156432Y-51287034D01*
X86181187Y-51319305D01*
X86197365Y-51347335D01*
X86209796Y-51377354D01*
X86218171Y-51408621D01*
X86223520Y-51449276D01*
X86224580Y-51465456D01*
X86224578Y-51512994D01*
X86224581Y-51513025D01*
X86224581Y-52834680D01*
X86223520Y-52850867D01*
X86218208Y-52891210D01*
X86209831Y-52922473D01*
X86197396Y-52952496D01*
X86181215Y-52980526D01*
X86156509Y-53012728D01*
X86145809Y-53024929D01*
X82575061Y-56595676D01*
X82562867Y-56606371D01*
X82535969Y-56627011D01*
X82530598Y-56631132D01*
X82502561Y-56647318D01*
X82472550Y-56659748D01*
X82441284Y-56668125D01*
X82400917Y-56673439D01*
X82384733Y-56674500D01*
X82122509Y-56674500D01*
X82055470Y-56654815D01*
X82009715Y-56602011D01*
X81999771Y-56532853D01*
X82010789Y-56496698D01*
X82025403Y-56466350D01*
X82050499Y-56356399D01*
X82050500Y-56356391D01*
X82050500Y-56301668D01*
X82070185Y-56234629D01*
X82107458Y-56197354D01*
X82131128Y-56182143D01*
X82143126Y-56168296D01*
X82201903Y-56130523D01*
X82236838Y-56125500D01*
X82592851Y-56125500D01*
X82592853Y-56125500D01*
X82675639Y-56103318D01*
X82749862Y-56060465D01*
X83060465Y-55749862D01*
X83060674Y-55749500D01*
X83103318Y-55675638D01*
X83125500Y-55592853D01*
X83125500Y-54517402D01*
X83145185Y-54450363D01*
X83161819Y-54429721D01*
X83206774Y-54384766D01*
X83253224Y-54338316D01*
X83303972Y-54229487D01*
X83310500Y-54179901D01*
X83310499Y-53820100D01*
X83303972Y-53770513D01*
X83253224Y-53661684D01*
X83168316Y-53576776D01*
X83059487Y-53526028D01*
X83059485Y-53526027D01*
X83059486Y-53526027D01*
X83009902Y-53519500D01*
X83009901Y-53519500D01*
X82831189Y-53519500D01*
X82764150Y-53499815D01*
X82743508Y-53483181D01*
X82654864Y-53394537D01*
X82654862Y-53394535D01*
X82595895Y-53360490D01*
X82580640Y-53351682D01*
X82534898Y-53339426D01*
X82497853Y-53329500D01*
X82497852Y-53329500D01*
X82139702Y-53329500D01*
X82072663Y-53309815D01*
X82026908Y-53257011D01*
X82016964Y-53187853D01*
X82019926Y-53173412D01*
X82022732Y-53162938D01*
X82029715Y-53143513D01*
X82036697Y-53128226D01*
X82041046Y-53097976D01*
X82044007Y-53083537D01*
X82050500Y-53059309D01*
X82050500Y-53041092D01*
X82051762Y-53023445D01*
X82055133Y-52999999D01*
X82051762Y-52976552D01*
X82050500Y-52958906D01*
X82050500Y-52940692D01*
X82050498Y-52940683D01*
X82044004Y-52916451D01*
X82041044Y-52902013D01*
X82039491Y-52891210D01*
X82036697Y-52871774D01*
X82029713Y-52856481D01*
X82022734Y-52837069D01*
X82019799Y-52826114D01*
X82003826Y-52798450D01*
X81998427Y-52787975D01*
X81982884Y-52753941D01*
X81982882Y-52753938D01*
X81982882Y-52753937D01*
X81976385Y-52746439D01*
X81962709Y-52727233D01*
X81960489Y-52723387D01*
X81960487Y-52723385D01*
X81960486Y-52723383D01*
X81955539Y-52716935D01*
X81956970Y-52715836D01*
X81928334Y-52663393D01*
X81925500Y-52637035D01*
X81925500Y-51958535D01*
X81945185Y-51891496D01*
X81955783Y-51877336D01*
X81982882Y-51846063D01*
X82036697Y-51728226D01*
X82055133Y-51600000D01*
X82036697Y-51471774D01*
X81982882Y-51353937D01*
X81898049Y-51256033D01*
X81789069Y-51185996D01*
X81789065Y-51185994D01*
X81789064Y-51185994D01*
X81664774Y-51149500D01*
X81664772Y-51149500D01*
X81535228Y-51149500D01*
X81535226Y-51149500D01*
X81410935Y-51185994D01*
X81410932Y-51185995D01*
X81410931Y-51185996D01*
X81359677Y-51218934D01*
X81301950Y-51256033D01*
X81217118Y-51353937D01*
X81217117Y-51353938D01*
X81163302Y-51471774D01*
X81144867Y-51600000D01*
X81163302Y-51728225D01*
X81191743Y-51790500D01*
X81217118Y-51846063D01*
X81244213Y-51877333D01*
X81273238Y-51940888D01*
X81274500Y-51958535D01*
X81274500Y-52637034D01*
X81254815Y-52704073D01*
X81244455Y-52716930D01*
X81244461Y-52716935D01*
X81239511Y-52723385D01*
X81237283Y-52727245D01*
X81223618Y-52746435D01*
X81217117Y-52753937D01*
X81201574Y-52787971D01*
X81196169Y-52798454D01*
X81180202Y-52826110D01*
X81177265Y-52837069D01*
X81170290Y-52856472D01*
X81163302Y-52871774D01*
X81163301Y-52871780D01*
X81158952Y-52902023D01*
X81155990Y-52916464D01*
X81149501Y-52940683D01*
X81149500Y-52940691D01*
X81149500Y-52958906D01*
X81148238Y-52976552D01*
X81144867Y-52999999D01*
X81144867Y-53008869D01*
X81141515Y-53008869D01*
X81133857Y-53061959D01*
X81088079Y-53114742D01*
X81021031Y-53134397D01*
X80954000Y-53114683D01*
X80933405Y-53098078D01*
X80919864Y-53084537D01*
X80919862Y-53084535D01*
X80880347Y-53061721D01*
X80845640Y-53041682D01*
X80804246Y-53030591D01*
X80762853Y-53019500D01*
X78521543Y-53019500D01*
X78435837Y-53019500D01*
X78353049Y-53041682D01*
X78278828Y-53084535D01*
X78278825Y-53084537D01*
X77949526Y-53413837D01*
X77888203Y-53447322D01*
X77818511Y-53442338D01*
X77774164Y-53413837D01*
X75036746Y-50676419D01*
X75003261Y-50615096D01*
X75008245Y-50545404D01*
X75036746Y-50501057D01*
X75078607Y-50459196D01*
X75145237Y-50392566D01*
X75186394Y-50337369D01*
X75224377Y-50226732D01*
X75224377Y-50109755D01*
X75186394Y-49999117D01*
X75183757Y-49995580D01*
X75145238Y-49943922D01*
X74373413Y-49172097D01*
X74318222Y-49130944D01*
X74318221Y-49130943D01*
X74318219Y-49130942D01*
X74207581Y-49092959D01*
X74090604Y-49092959D01*
X73984586Y-49129356D01*
X73979964Y-49130943D01*
X73924771Y-49172097D01*
X73665599Y-49431269D01*
X73624445Y-49486462D01*
X73624444Y-49486465D01*
X73586461Y-49597102D01*
X73586461Y-49714079D01*
X73606898Y-49773608D01*
X73624443Y-49824714D01*
X73624446Y-49824720D01*
X73665599Y-49879911D01*
X74043600Y-50257912D01*
X74077085Y-50319235D01*
X74079919Y-50345593D01*
X74079919Y-50548271D01*
X74102101Y-50631059D01*
X74123527Y-50668169D01*
X74144954Y-50705281D01*
X74144956Y-50705283D01*
X75902492Y-52462819D01*
X75935977Y-52524142D01*
X75930993Y-52593834D01*
X75889121Y-52649767D01*
X75823657Y-52674184D01*
X75814811Y-52674500D01*
X75363194Y-52674500D01*
X75296155Y-52654815D01*
X75296140Y-52654806D01*
X75295496Y-52654392D01*
X75283101Y-52644402D01*
X75283059Y-52644458D01*
X75276617Y-52639515D01*
X75276613Y-52639511D01*
X75259933Y-52629881D01*
X75237115Y-52616706D01*
X75232078Y-52613636D01*
X75189068Y-52585995D01*
X75187773Y-52585404D01*
X75178845Y-52582254D01*
X75173887Y-52580200D01*
X75123195Y-52566617D01*
X75120358Y-52565821D01*
X75064772Y-52549500D01*
X74935228Y-52549500D01*
X74879584Y-52565837D01*
X74876747Y-52566633D01*
X74826112Y-52580201D01*
X74821148Y-52582257D01*
X74812223Y-52585405D01*
X74810932Y-52585995D01*
X74798734Y-52593834D01*
X74770413Y-52612035D01*
X74767923Y-52613635D01*
X74762887Y-52616704D01*
X74723388Y-52639509D01*
X74716942Y-52644456D01*
X74716900Y-52644401D01*
X74704501Y-52654392D01*
X74701956Y-52656027D01*
X74701951Y-52656032D01*
X74672965Y-52689484D01*
X74666936Y-52695960D01*
X74639511Y-52723386D01*
X74637283Y-52727245D01*
X74623618Y-52746435D01*
X74617116Y-52753938D01*
X74612790Y-52763411D01*
X74567031Y-52816212D01*
X74499990Y-52835892D01*
X74432952Y-52816203D01*
X74387205Y-52763403D01*
X74382882Y-52753937D01*
X74376385Y-52746439D01*
X74362709Y-52727233D01*
X74360489Y-52723387D01*
X74360487Y-52723385D01*
X74360486Y-52723383D01*
X74336819Y-52699716D01*
X74303334Y-52638393D01*
X74300500Y-52612035D01*
X74300500Y-52153942D01*
X74300500Y-52153940D01*
X74280022Y-52077514D01*
X74240460Y-52008991D01*
X73914686Y-51683217D01*
X73881201Y-51621894D01*
X73880059Y-51575121D01*
X73880875Y-51570232D01*
X73880875Y-51453258D01*
X73865551Y-51408621D01*
X73842892Y-51342619D01*
X73801735Y-51287423D01*
X73029913Y-50515601D01*
X73029911Y-50515599D01*
X72974720Y-50474446D01*
X72974719Y-50474445D01*
X72974717Y-50474444D01*
X72864079Y-50436461D01*
X72747102Y-50436461D01*
X72666310Y-50464198D01*
X72636462Y-50474445D01*
X72581269Y-50515599D01*
X72322097Y-50774771D01*
X72280943Y-50829964D01*
X72280942Y-50829967D01*
X72242959Y-50940604D01*
X72242959Y-51057581D01*
X72274516Y-51149500D01*
X72280941Y-51168216D01*
X72280944Y-51168222D01*
X72322097Y-51223413D01*
X73093922Y-51995238D01*
X73145580Y-52033757D01*
X73149117Y-52036394D01*
X73259755Y-52074377D01*
X73259757Y-52074377D01*
X73376730Y-52074377D01*
X73376732Y-52074377D01*
X73376733Y-52074376D01*
X73381619Y-52073561D01*
X73450985Y-52081940D01*
X73489715Y-52108188D01*
X73663181Y-52281654D01*
X73696666Y-52342977D01*
X73699500Y-52369335D01*
X73699500Y-52612034D01*
X73679815Y-52679073D01*
X73663183Y-52699714D01*
X73639510Y-52723386D01*
X73637283Y-52727245D01*
X73623618Y-52746435D01*
X73617117Y-52753937D01*
X73601574Y-52787971D01*
X73596169Y-52798454D01*
X73580202Y-52826110D01*
X73577265Y-52837069D01*
X73570290Y-52856472D01*
X73563302Y-52871774D01*
X73563301Y-52871780D01*
X73558952Y-52902023D01*
X73555990Y-52916464D01*
X73549501Y-52940683D01*
X73549500Y-52940691D01*
X73549500Y-52958906D01*
X73548238Y-52976552D01*
X73544867Y-52999999D01*
X73548238Y-53023445D01*
X73549500Y-53041092D01*
X73549500Y-53059310D01*
X73555991Y-53083537D01*
X73558952Y-53097976D01*
X73563301Y-53128222D01*
X73563302Y-53128225D01*
X73570286Y-53143518D01*
X73577264Y-53162927D01*
X73578050Y-53165862D01*
X73580201Y-53173886D01*
X73594296Y-53198300D01*
X73596169Y-53201543D01*
X73601574Y-53212027D01*
X73617118Y-53246063D01*
X73623612Y-53253558D01*
X73637291Y-53272767D01*
X73639510Y-53276612D01*
X73666920Y-53304022D01*
X73672952Y-53310500D01*
X73701951Y-53343967D01*
X73704485Y-53345595D01*
X73716897Y-53355598D01*
X73716941Y-53355542D01*
X73723381Y-53360483D01*
X73723387Y-53360489D01*
X73762871Y-53383285D01*
X73762878Y-53383289D01*
X73767903Y-53386351D01*
X73782425Y-53395684D01*
X73828179Y-53448487D01*
X73838123Y-53517646D01*
X73809098Y-53581201D01*
X73782427Y-53604313D01*
X73767927Y-53613632D01*
X73762887Y-53616704D01*
X73723388Y-53639509D01*
X73716942Y-53644456D01*
X73716900Y-53644401D01*
X73704501Y-53654392D01*
X73701956Y-53656027D01*
X73701951Y-53656032D01*
X73672965Y-53689484D01*
X73666936Y-53695960D01*
X73639511Y-53723386D01*
X73637283Y-53727245D01*
X73623618Y-53746435D01*
X73617116Y-53753938D01*
X73612790Y-53763411D01*
X73567031Y-53816212D01*
X73499990Y-53835892D01*
X73432952Y-53816203D01*
X73387205Y-53763403D01*
X73382882Y-53753937D01*
X73376385Y-53746439D01*
X73362709Y-53727233D01*
X73360488Y-53723386D01*
X73333062Y-53695960D01*
X73327046Y-53689498D01*
X73313669Y-53674060D01*
X73298049Y-53656033D01*
X73298047Y-53656032D01*
X73298048Y-53656032D01*
X73295508Y-53654400D01*
X73283101Y-53644401D01*
X73283059Y-53644458D01*
X73276617Y-53639515D01*
X73276613Y-53639511D01*
X73246348Y-53622037D01*
X73237115Y-53616706D01*
X73232078Y-53613636D01*
X73189068Y-53585995D01*
X73187773Y-53585404D01*
X73178845Y-53582254D01*
X73173887Y-53580200D01*
X73123195Y-53566617D01*
X73120358Y-53565821D01*
X73064772Y-53549500D01*
X73064771Y-53549500D01*
X73061189Y-53549500D01*
X73057751Y-53548490D01*
X73055994Y-53548238D01*
X73056030Y-53547985D01*
X72994150Y-53529815D01*
X72973508Y-53513181D01*
X72399864Y-52939537D01*
X72399862Y-52939535D01*
X72399859Y-52939533D01*
X72399855Y-52939530D01*
X72358967Y-52915923D01*
X72327257Y-52889741D01*
X72298049Y-52856033D01*
X72189069Y-52785996D01*
X72189065Y-52785994D01*
X72189064Y-52785994D01*
X72064774Y-52749500D01*
X72064772Y-52749500D01*
X71935228Y-52749500D01*
X71935226Y-52749500D01*
X71810935Y-52785994D01*
X71810932Y-52785995D01*
X71810931Y-52785996D01*
X71763928Y-52816203D01*
X71701950Y-52856033D01*
X71617118Y-52953937D01*
X71617117Y-52953938D01*
X71563302Y-53071774D01*
X71547238Y-53183509D01*
X71541486Y-53196104D01*
X71543477Y-53199202D01*
X71547238Y-53216490D01*
X71563302Y-53328225D01*
X71605123Y-53419799D01*
X71617118Y-53446063D01*
X71701951Y-53543967D01*
X71810931Y-53614004D01*
X71923972Y-53647195D01*
X71935225Y-53650499D01*
X71935227Y-53650500D01*
X71935228Y-53650500D01*
X72064770Y-53650500D01*
X72064772Y-53650500D01*
X72091118Y-53642763D01*
X72160985Y-53642763D01*
X72213733Y-53674060D01*
X72513181Y-53973508D01*
X72546666Y-54034831D01*
X72548431Y-54051250D01*
X72548439Y-54051249D01*
X72549500Y-54059310D01*
X72555991Y-54083537D01*
X72558952Y-54097976D01*
X72563301Y-54128222D01*
X72563302Y-54128225D01*
X72570286Y-54143518D01*
X72577264Y-54162927D01*
X72577267Y-54162940D01*
X72580201Y-54173886D01*
X72596170Y-54201545D01*
X72601574Y-54212027D01*
X72617118Y-54246063D01*
X72623612Y-54253558D01*
X72637288Y-54272763D01*
X72637548Y-54273213D01*
X72639510Y-54276612D01*
X72666920Y-54304022D01*
X72672952Y-54310500D01*
X72701951Y-54343967D01*
X72704485Y-54345595D01*
X72716897Y-54355598D01*
X72716941Y-54355542D01*
X72723381Y-54360483D01*
X72723387Y-54360489D01*
X72762871Y-54383285D01*
X72762878Y-54383289D01*
X72767903Y-54386351D01*
X72782425Y-54395684D01*
X72828179Y-54448487D01*
X72838123Y-54517646D01*
X72809098Y-54581201D01*
X72782427Y-54604313D01*
X72767927Y-54613632D01*
X72762887Y-54616704D01*
X72723388Y-54639509D01*
X72716942Y-54644456D01*
X72716900Y-54644401D01*
X72704501Y-54654392D01*
X72701956Y-54656027D01*
X72701950Y-54656033D01*
X72701369Y-54656704D01*
X72700622Y-54657183D01*
X72695249Y-54661840D01*
X72694579Y-54661067D01*
X72642591Y-54694477D01*
X72607657Y-54699500D01*
X72175833Y-54699500D01*
X72108794Y-54679815D01*
X72088152Y-54663181D01*
X71336819Y-53911848D01*
X71303334Y-53850525D01*
X71300500Y-53824167D01*
X71300500Y-53234137D01*
X71310042Y-53201640D01*
X71301762Y-53183509D01*
X71300500Y-53165862D01*
X71300500Y-50160439D01*
X71297658Y-50149833D01*
X71280021Y-50084011D01*
X71247161Y-50027095D01*
X71240464Y-50015495D01*
X71240458Y-50015487D01*
X70604868Y-49379897D01*
X70571383Y-49318574D01*
X70576367Y-49248882D01*
X70618239Y-49192949D01*
X70657614Y-49173239D01*
X70689069Y-49164004D01*
X70798049Y-49093967D01*
X70882882Y-48996063D01*
X70936697Y-48878226D01*
X70955133Y-48750000D01*
X70936697Y-48621774D01*
X70882882Y-48503937D01*
X70798049Y-48406033D01*
X70689069Y-48335996D01*
X70689065Y-48335994D01*
X70689064Y-48335994D01*
X70564774Y-48299500D01*
X70564772Y-48299500D01*
X70435228Y-48299500D01*
X70435226Y-48299500D01*
X70310933Y-48335994D01*
X70310932Y-48335994D01*
X70270649Y-48361883D01*
X70203609Y-48381567D01*
X70136570Y-48361882D01*
X70115930Y-48345248D01*
X70081485Y-48310803D01*
X69976391Y-48259426D01*
X69908261Y-48249500D01*
X69908260Y-48249500D01*
X68091740Y-48249500D01*
X68091739Y-48249500D01*
X68023608Y-48259426D01*
X67918514Y-48310803D01*
X67835803Y-48393514D01*
X67784426Y-48498608D01*
X67774500Y-48566739D01*
X67774500Y-48933257D01*
X67777208Y-48951847D01*
X67767393Y-49021024D01*
X67721736Y-49073913D01*
X67654733Y-49093722D01*
X67587657Y-49074162D01*
X67566822Y-49057403D01*
X67511819Y-49002400D01*
X67478334Y-48941077D01*
X67475500Y-48914719D01*
X67475500Y-47296739D01*
X67774500Y-47296739D01*
X67774500Y-47663260D01*
X67784426Y-47731391D01*
X67835803Y-47836485D01*
X67918514Y-47919196D01*
X67918515Y-47919196D01*
X67918517Y-47919198D01*
X68023607Y-47970573D01*
X68057673Y-47975536D01*
X68091739Y-47980500D01*
X68091740Y-47980500D01*
X69908261Y-47980500D01*
X69930971Y-47977191D01*
X69976393Y-47970573D01*
X70081483Y-47919198D01*
X70118973Y-47881707D01*
X70180293Y-47848222D01*
X70249985Y-47853205D01*
X70273688Y-47865069D01*
X70310931Y-47889004D01*
X70413758Y-47919196D01*
X70435225Y-47925499D01*
X70435227Y-47925500D01*
X70435228Y-47925500D01*
X70564773Y-47925500D01*
X70564773Y-47925499D01*
X70689069Y-47889004D01*
X70798049Y-47818967D01*
X70882882Y-47721063D01*
X70936697Y-47603226D01*
X70955133Y-47475000D01*
X70936697Y-47346774D01*
X70882882Y-47228937D01*
X70798049Y-47131033D01*
X70689069Y-47060996D01*
X70689065Y-47060994D01*
X70689064Y-47060994D01*
X70564774Y-47024500D01*
X70564772Y-47024500D01*
X70435228Y-47024500D01*
X70435226Y-47024500D01*
X70310936Y-47060993D01*
X70310931Y-47060995D01*
X70310931Y-47060996D01*
X70267605Y-47088840D01*
X70200565Y-47108523D01*
X70133526Y-47088837D01*
X70112886Y-47072204D01*
X70081485Y-47040803D01*
X69976391Y-46989426D01*
X69908261Y-46979500D01*
X69908260Y-46979500D01*
X68091740Y-46979500D01*
X68091739Y-46979500D01*
X68023608Y-46989426D01*
X67918514Y-47040803D01*
X67835803Y-47123514D01*
X67784426Y-47228608D01*
X67774500Y-47296739D01*
X67475500Y-47296739D01*
X67475500Y-46026739D01*
X67774500Y-46026739D01*
X67774500Y-46393260D01*
X67784426Y-46461391D01*
X67835803Y-46566485D01*
X67918514Y-46649196D01*
X67918515Y-46649196D01*
X67918517Y-46649198D01*
X68023607Y-46700573D01*
X68057673Y-46705536D01*
X68091739Y-46710500D01*
X68091740Y-46710500D01*
X69908261Y-46710500D01*
X69930971Y-46707191D01*
X69976393Y-46700573D01*
X70081483Y-46649198D01*
X70115929Y-46614752D01*
X70177251Y-46581266D01*
X70246943Y-46586250D01*
X70270646Y-46598114D01*
X70310931Y-46624004D01*
X70310933Y-46624004D01*
X70310934Y-46624005D01*
X70435225Y-46660499D01*
X70435227Y-46660500D01*
X70435228Y-46660500D01*
X70564773Y-46660500D01*
X70564773Y-46660499D01*
X70689069Y-46624004D01*
X70798049Y-46553967D01*
X70882882Y-46456063D01*
X70936697Y-46338226D01*
X70955133Y-46210000D01*
X70936697Y-46081774D01*
X70882882Y-45963937D01*
X70798049Y-45866033D01*
X70689069Y-45795996D01*
X70689065Y-45795994D01*
X70689064Y-45795994D01*
X70564774Y-45759500D01*
X70564772Y-45759500D01*
X70435228Y-45759500D01*
X70435226Y-45759500D01*
X70310933Y-45795994D01*
X70310932Y-45795994D01*
X70270649Y-45821883D01*
X70203609Y-45841567D01*
X70136570Y-45821882D01*
X70115930Y-45805248D01*
X70081485Y-45770803D01*
X69976391Y-45719426D01*
X69908261Y-45709500D01*
X69908260Y-45709500D01*
X68091740Y-45709500D01*
X68091739Y-45709500D01*
X68023608Y-45719426D01*
X67918514Y-45770803D01*
X67835803Y-45853514D01*
X67784426Y-45958608D01*
X67774500Y-46026739D01*
X67475500Y-46026739D01*
X67475500Y-45700832D01*
X67495185Y-45633793D01*
X67511815Y-45613155D01*
X67744463Y-45380506D01*
X67805786Y-45347022D01*
X67875478Y-45352006D01*
X67909632Y-45373956D01*
X67910153Y-45373227D01*
X67918513Y-45379195D01*
X67918514Y-45379195D01*
X67918517Y-45379198D01*
X68023607Y-45430573D01*
X68057673Y-45435536D01*
X68091739Y-45440500D01*
X68091740Y-45440500D01*
X69908261Y-45440500D01*
X69930971Y-45437191D01*
X69976393Y-45430573D01*
X70081483Y-45379198D01*
X70164198Y-45296483D01*
X70215573Y-45191393D01*
X70225500Y-45123260D01*
X70225500Y-44954122D01*
X70245185Y-44887084D01*
X70297989Y-44841329D01*
X70367147Y-44831385D01*
X70430703Y-44860410D01*
G37*
%TD.AperFunction*%
%TA.AperFunction,Conductor*%
G36*
X66840824Y-48539056D02*
G01*
X66872416Y-48601375D01*
X66874500Y-48624013D01*
X66874500Y-49130114D01*
X66883581Y-49164004D01*
X66894979Y-49206542D01*
X66894982Y-49206547D01*
X66934535Y-49275056D01*
X66934539Y-49275061D01*
X66934540Y-49275063D01*
X67299937Y-49640460D01*
X67368460Y-49680022D01*
X67444886Y-49700500D01*
X67651062Y-49700500D01*
X67718101Y-49720185D01*
X67763856Y-49772989D01*
X67774737Y-49833465D01*
X67774500Y-49836734D01*
X67774500Y-50203260D01*
X67784426Y-50271391D01*
X67835803Y-50376485D01*
X67918514Y-50459196D01*
X67918515Y-50459196D01*
X67918517Y-50459198D01*
X68023607Y-50510573D01*
X68057673Y-50515536D01*
X68091739Y-50520500D01*
X68091740Y-50520500D01*
X69908261Y-50520500D01*
X69930971Y-50517191D01*
X69976393Y-50510573D01*
X70081483Y-50459198D01*
X70164198Y-50376483D01*
X70215573Y-50271393D01*
X70225500Y-50203260D01*
X70225500Y-50149833D01*
X70245185Y-50082794D01*
X70297989Y-50037039D01*
X70367147Y-50027095D01*
X70430703Y-50056120D01*
X70437181Y-50062152D01*
X70663181Y-50288152D01*
X70696666Y-50349475D01*
X70699500Y-50375833D01*
X70699500Y-53779187D01*
X70679815Y-53846226D01*
X70627011Y-53891981D01*
X70559316Y-53902126D01*
X70500003Y-53894318D01*
X70499999Y-53894318D01*
X70365685Y-53912000D01*
X70296649Y-53901234D01*
X70244394Y-53854854D01*
X70225500Y-53789061D01*
X70225500Y-53646739D01*
X70219318Y-53604313D01*
X70215573Y-53578607D01*
X70164198Y-53473517D01*
X70164196Y-53473515D01*
X70164196Y-53473514D01*
X70081485Y-53390803D01*
X69976391Y-53339426D01*
X69908261Y-53329500D01*
X69908260Y-53329500D01*
X68091740Y-53329500D01*
X68091739Y-53329500D01*
X68023608Y-53339426D01*
X67918514Y-53390803D01*
X67835803Y-53473514D01*
X67784426Y-53578608D01*
X67774500Y-53646739D01*
X67774500Y-54013265D01*
X67774737Y-54016535D01*
X67774500Y-54017629D01*
X67774500Y-54017747D01*
X67774475Y-54017747D01*
X67759951Y-54084822D01*
X67710594Y-54134275D01*
X67651062Y-54149500D01*
X66525770Y-54149500D01*
X66525754Y-54149499D01*
X66518158Y-54149499D01*
X66432452Y-54149499D01*
X66391059Y-54160590D01*
X66349664Y-54171682D01*
X66315372Y-54191482D01*
X66315370Y-54191483D01*
X66275446Y-54214533D01*
X66275444Y-54214534D01*
X66221909Y-54268069D01*
X66221908Y-54268068D01*
X66101796Y-54388181D01*
X66040473Y-54421666D01*
X66014115Y-54424500D01*
X61936189Y-54424500D01*
X61869150Y-54404815D01*
X61848508Y-54388181D01*
X61699864Y-54239537D01*
X61699862Y-54239535D01*
X61652221Y-54212029D01*
X61625640Y-54196682D01*
X61577543Y-54183795D01*
X61542853Y-54174500D01*
X61542852Y-54174500D01*
X60999500Y-54174500D01*
X60932461Y-54154815D01*
X60886706Y-54102011D01*
X60875500Y-54050500D01*
X60875500Y-52376739D01*
X67774500Y-52376739D01*
X67774500Y-52743260D01*
X67784426Y-52811391D01*
X67835803Y-52916485D01*
X67918514Y-52999196D01*
X67918515Y-52999196D01*
X67918517Y-52999198D01*
X68023607Y-53050573D01*
X68057673Y-53055536D01*
X68091739Y-53060500D01*
X68091740Y-53060500D01*
X69908261Y-53060500D01*
X69930971Y-53057191D01*
X69976393Y-53050573D01*
X70081483Y-52999198D01*
X70164198Y-52916483D01*
X70215573Y-52811393D01*
X70225500Y-52743260D01*
X70225500Y-52376740D01*
X70215573Y-52308607D01*
X70164198Y-52203517D01*
X70164196Y-52203515D01*
X70164196Y-52203514D01*
X70081485Y-52120803D01*
X69976391Y-52069426D01*
X69908261Y-52059500D01*
X69908260Y-52059500D01*
X68091740Y-52059500D01*
X68091739Y-52059500D01*
X68023608Y-52069426D01*
X67918514Y-52120803D01*
X67835803Y-52203514D01*
X67784426Y-52308608D01*
X67774500Y-52376739D01*
X60875500Y-52376739D01*
X60875500Y-51106739D01*
X67774500Y-51106739D01*
X67774500Y-51473260D01*
X67784426Y-51541391D01*
X67835803Y-51646485D01*
X67918514Y-51729196D01*
X67918515Y-51729196D01*
X67918517Y-51729198D01*
X68023607Y-51780573D01*
X68057673Y-51785536D01*
X68091739Y-51790500D01*
X68091740Y-51790500D01*
X69908261Y-51790500D01*
X69930971Y-51787191D01*
X69976393Y-51780573D01*
X70081483Y-51729198D01*
X70164198Y-51646483D01*
X70215573Y-51541393D01*
X70225500Y-51473260D01*
X70225500Y-51106740D01*
X70215573Y-51038607D01*
X70164198Y-50933517D01*
X70164196Y-50933515D01*
X70164196Y-50933514D01*
X70081485Y-50850803D01*
X69976391Y-50799426D01*
X69908261Y-50789500D01*
X69908260Y-50789500D01*
X68091740Y-50789500D01*
X68091739Y-50789500D01*
X68023608Y-50799426D01*
X67918514Y-50850803D01*
X67835803Y-50933514D01*
X67784426Y-51038608D01*
X67774500Y-51106739D01*
X60875500Y-51106739D01*
X60875500Y-48822509D01*
X60895185Y-48755470D01*
X60947989Y-48709715D01*
X61017147Y-48699771D01*
X61053302Y-48710789D01*
X61083649Y-48725403D01*
X61193600Y-48750499D01*
X61193605Y-48750499D01*
X61193607Y-48750500D01*
X61193609Y-48750500D01*
X66306391Y-48750500D01*
X66306393Y-48750500D01*
X66306395Y-48750499D01*
X66306399Y-48750499D01*
X66374362Y-48734986D01*
X66416351Y-48725403D01*
X66517967Y-48676467D01*
X66517967Y-48676466D01*
X66517969Y-48676466D01*
X66539896Y-48658978D01*
X66606146Y-48606146D01*
X66653554Y-48546699D01*
X66710742Y-48506559D01*
X66780554Y-48503710D01*
X66840824Y-48539056D01*
G37*
%TD.AperFunction*%
%TD*%
%TA.AperFunction,NonConductor*%
G36*
X80481220Y-53690185D02*
G01*
X80526975Y-53742989D01*
X80536919Y-53812147D01*
X80507894Y-53875703D01*
X80467983Y-53906220D01*
X80432033Y-53923532D01*
X80432030Y-53923533D01*
X80343854Y-53993854D01*
X80276079Y-54078839D01*
X80218890Y-54118979D01*
X80149078Y-54121828D01*
X80088809Y-54086481D01*
X80057217Y-54024162D01*
X80055133Y-54001525D01*
X80055133Y-53999999D01*
X80051762Y-53976552D01*
X80050500Y-53958906D01*
X80050500Y-53940692D01*
X80048347Y-53932658D01*
X80044004Y-53916451D01*
X80041044Y-53902013D01*
X80036697Y-53871776D01*
X80036696Y-53871771D01*
X80033780Y-53865387D01*
X80029713Y-53856481D01*
X80022733Y-53837066D01*
X80019926Y-53826588D01*
X80021591Y-53756739D01*
X80060756Y-53698878D01*
X80124986Y-53671376D01*
X80139702Y-53670500D01*
X80414181Y-53670500D01*
X80481220Y-53690185D01*
G37*
%TD.AperFunction*%
%TA.AperFunction,NonConductor*%
G36*
X75680850Y-53345185D02*
G01*
X75701492Y-53361819D01*
X76322614Y-53982941D01*
X76356099Y-54044264D01*
X76351115Y-54113956D01*
X76309243Y-54169889D01*
X76243779Y-54194306D01*
X76198282Y-54186098D01*
X76197579Y-54188494D01*
X76064774Y-54149500D01*
X76064772Y-54149500D01*
X75935228Y-54149500D01*
X75935226Y-54149500D01*
X75810933Y-54185994D01*
X75810932Y-54185995D01*
X75773260Y-54210205D01*
X75706220Y-54229889D01*
X75639181Y-54210203D01*
X75618541Y-54193570D01*
X75066217Y-53641246D01*
X75032732Y-53579923D01*
X75037716Y-53510231D01*
X75079588Y-53454298D01*
X75118936Y-53434596D01*
X75120372Y-53434174D01*
X75123243Y-53433368D01*
X75148402Y-53426627D01*
X75173886Y-53419799D01*
X75173892Y-53419795D01*
X75178821Y-53417754D01*
X75187768Y-53414597D01*
X75189062Y-53414005D01*
X75189069Y-53414004D01*
X75232114Y-53386339D01*
X75237086Y-53383309D01*
X75276613Y-53360489D01*
X75276618Y-53360483D01*
X75283068Y-53355536D01*
X75283114Y-53355597D01*
X75295623Y-53345525D01*
X75296272Y-53345108D01*
X75363193Y-53325500D01*
X75613811Y-53325500D01*
X75680850Y-53345185D01*
G37*
%TD.AperFunction*%
%TA.AperFunction,NonConductor*%
G36*
X73567031Y-54183786D02*
G01*
X73612790Y-54236587D01*
X73612792Y-54236591D01*
X73617116Y-54246059D01*
X73617118Y-54246063D01*
X73623612Y-54253558D01*
X73637288Y-54272763D01*
X73637548Y-54273213D01*
X73639510Y-54276612D01*
X73663181Y-54300283D01*
X73696666Y-54361606D01*
X73699500Y-54387964D01*
X73699500Y-54612611D01*
X73679815Y-54679650D01*
X73669214Y-54693812D01*
X73617120Y-54753932D01*
X73617116Y-54753940D01*
X73612793Y-54763406D01*
X73567037Y-54816209D01*
X73499997Y-54835892D01*
X73432958Y-54816206D01*
X73387207Y-54763406D01*
X73382884Y-54753942D01*
X73382882Y-54753938D01*
X73382882Y-54753937D01*
X73376385Y-54746439D01*
X73362709Y-54727233D01*
X73361102Y-54724449D01*
X73360489Y-54723387D01*
X73333065Y-54695963D01*
X73327046Y-54689498D01*
X73320288Y-54681699D01*
X73298049Y-54656033D01*
X73298047Y-54656032D01*
X73298048Y-54656032D01*
X73295508Y-54654400D01*
X73283101Y-54644401D01*
X73283059Y-54644458D01*
X73276617Y-54639515D01*
X73276613Y-54639511D01*
X73259933Y-54629881D01*
X73237115Y-54616706D01*
X73232075Y-54613634D01*
X73217572Y-54604313D01*
X73171818Y-54551508D01*
X73161877Y-54482349D01*
X73190903Y-54418794D01*
X73217569Y-54395687D01*
X73232103Y-54386346D01*
X73237086Y-54383309D01*
X73276613Y-54360489D01*
X73276618Y-54360483D01*
X73283068Y-54355536D01*
X73283111Y-54355593D01*
X73295525Y-54345588D01*
X73298049Y-54343967D01*
X73327054Y-54310491D01*
X73333060Y-54304040D01*
X73360489Y-54276613D01*
X73362708Y-54272767D01*
X73376391Y-54253553D01*
X73382882Y-54246063D01*
X73387204Y-54236598D01*
X73432953Y-54183795D01*
X73499991Y-54164106D01*
X73567031Y-54183786D01*
G37*
%TD.AperFunction*%
%TA.AperFunction,NonConductor*%
G36*
X61380850Y-54845185D02*
G01*
X61401492Y-54861819D01*
X61489534Y-54949861D01*
X61489535Y-54949862D01*
X61550138Y-55010465D01*
X61550139Y-55010466D01*
X61550141Y-55010467D01*
X61563384Y-55018113D01*
X61611600Y-55068680D01*
X61624823Y-55137287D01*
X61598855Y-55202152D01*
X61541940Y-55242680D01*
X61501384Y-55249500D01*
X61426080Y-55249500D01*
X61281092Y-55278340D01*
X61281082Y-55278343D01*
X61144511Y-55334912D01*
X61144498Y-55334919D01*
X61068391Y-55385773D01*
X61001713Y-55406651D01*
X60934333Y-55388166D01*
X60887643Y-55336187D01*
X60875500Y-55282671D01*
X60875500Y-54949500D01*
X60895185Y-54882461D01*
X60947989Y-54836706D01*
X60999500Y-54825500D01*
X61313811Y-54825500D01*
X61380850Y-54845185D01*
G37*
%TD.AperFunction*%
M02*
