%TF.GenerationSoftware,KiCad,Pcbnew,9.0.1-unknown-202504212220~56345a4158~ubuntu24.04.1*%
%TF.CreationDate,2025-05-10T20:44:28+10:00*%
%TF.ProjectId,MXBreakout,4d584272-6561-46b6-9f75-742e6b696361,rev?*%
%TF.SameCoordinates,Original*%
%TF.FileFunction,Profile,NP*%
%FSLAX46Y46*%
G04 Gerber Fmt 4.6, Leading zero omitted, Abs format (unit mm)*
G04 Created by KiCad (PCBNEW 9.0.1-unknown-202504212220~56345a4158~ubuntu24.04.1) date 2025-05-10 20:44:28*
%MOMM*%
%LPD*%
G01*
G04 APERTURE LIST*
%TA.AperFunction,Profile*%
%ADD10C,0.100000*%
%TD*%
G04 APERTURE END LIST*
D10*
X47457107Y-64707107D02*
X47292893Y-64542893D01*
X47292893Y-64542893D02*
G75*
G02*
X47000010Y-63835786I707107J707093D01*
G01*
X75457107Y-57042893D02*
X70042893Y-62457107D01*
X60926777Y-47426777D02*
G75*
G02*
X61000033Y-47603553I-176777J-176823D01*
G01*
X86042893Y-51042893D02*
X86057107Y-51057107D01*
X48164214Y-65000000D02*
G75*
G02*
X47457100Y-64707114I-14J1000000D01*
G01*
X76914214Y-50750000D02*
G75*
G02*
X76207121Y-50457093I-14J999900D01*
G01*
X86079537Y-53178494D02*
X83027555Y-56433941D01*
X60573224Y-47073224D02*
G75*
G02*
X60499967Y-46896447I176776J176824D01*
G01*
X53542893Y-57707107D02*
G75*
G02*
X52835786Y-57999961I-707093J707207D01*
G01*
X60500000Y-45250000D02*
G75*
G02*
X60750000Y-45000000I250000J0D01*
G01*
X86057107Y-51057107D02*
G75*
G02*
X86349961Y-51764214I-707207J-707093D01*
G01*
X49707107Y-58292893D02*
G75*
G02*
X50414214Y-58000039I707093J-707207D01*
G01*
X67500000Y-60000000D02*
G75*
G02*
X67000000Y-60500000I-500000J0D01*
G01*
X60500000Y-60207107D02*
G75*
G02*
X60646443Y-59853551I500000J7D01*
G01*
X66000000Y-61000000D02*
G75*
G02*
X66500000Y-60500000I500000J0D01*
G01*
X69335786Y-62750000D02*
X57664214Y-62750000D01*
X80450000Y-54350000D02*
G75*
G02*
X80700000Y-54100000I250000J0D01*
G01*
X60500000Y-45250000D02*
X60500000Y-46896447D01*
X86350000Y-51764214D02*
X86350000Y-52494553D01*
X60573224Y-47073224D02*
X60926777Y-47426777D01*
X66396447Y-45000000D02*
G75*
G02*
X66573201Y-45426753I-47J-250000D01*
G01*
X86350000Y-52494553D02*
G75*
G02*
X86079561Y-53178516I-1000000J-47D01*
G01*
X80700000Y-56550000D02*
G75*
G02*
X80450000Y-56300000I0J250000D01*
G01*
X57457107Y-44292893D02*
G75*
G02*
X58164214Y-44000010I707093J-707107D01*
G01*
X80450000Y-56300000D02*
X80450000Y-54350000D01*
X67000000Y-55500000D02*
G75*
G02*
X67500000Y-56000000I0J-500000D01*
G01*
X81550000Y-54100000D02*
G75*
G02*
X81800000Y-54350000I0J-250000D01*
G01*
X50414214Y-58000000D02*
X52835786Y-58000000D01*
X61000000Y-59292893D02*
G75*
G02*
X60853556Y-59646450I-500000J-7D01*
G01*
X66500000Y-48250000D02*
G75*
G02*
X66250000Y-48500000I-250000J0D01*
G01*
X82298018Y-56750000D02*
X76164214Y-56750000D01*
X66500000Y-45603553D02*
G75*
G02*
X66573247Y-45426799I250000J-47D01*
G01*
X56500000Y-45664214D02*
G75*
G02*
X56792886Y-44957100I1000000J14D01*
G01*
X66500000Y-60500000D02*
X67000000Y-60500000D01*
X56957107Y-63042893D02*
X55292893Y-64707107D01*
X56792893Y-44957107D02*
X57457107Y-44292893D01*
X70042893Y-62457107D02*
G75*
G02*
X69335786Y-62749961I-707093J707207D01*
G01*
X47000000Y-61414214D02*
G75*
G02*
X47292907Y-60707121I999900J14D01*
G01*
X75457107Y-57042893D02*
G75*
G02*
X76164214Y-56750010I707093J-707107D01*
G01*
X81800000Y-56300000D02*
G75*
G02*
X81550000Y-56550000I-250000J0D01*
G01*
X61000000Y-56000000D02*
G75*
G02*
X61500000Y-55500000I500000J0D01*
G01*
X60500000Y-60207107D02*
X60500000Y-61500000D01*
X54585786Y-65000000D02*
X48164214Y-65000000D01*
X69335786Y-44000000D02*
G75*
G02*
X70042879Y-44292907I14J-999900D01*
G01*
X76914214Y-50750000D02*
X85335786Y-50750000D01*
X61000000Y-62000000D02*
G75*
G02*
X60500000Y-61500000I0J500000D01*
G01*
X61250000Y-48500000D02*
G75*
G02*
X61000000Y-48250000I0J250000D01*
G01*
X67500000Y-60000000D02*
X67500000Y-56000000D01*
X55292893Y-64707107D02*
G75*
G02*
X54585786Y-64999961I-707093J707207D01*
G01*
X56957107Y-63042893D02*
G75*
G02*
X57664214Y-62750010I707093J-707107D01*
G01*
X67000000Y-55500000D02*
X61500000Y-55500000D01*
X53542893Y-57707107D02*
X56207107Y-55042893D01*
X81550000Y-56550000D02*
X80700000Y-56550000D01*
X61000000Y-47603553D02*
X61000000Y-48250000D01*
X61000000Y-62000000D02*
X65500000Y-62000000D01*
X58164214Y-44000000D02*
X69335786Y-44000000D01*
X60853553Y-59646447D02*
X60646446Y-59853554D01*
X85335786Y-50750000D02*
G75*
G02*
X86042879Y-51042907I14J-999900D01*
G01*
X66000000Y-61500000D02*
X66000000Y-61000000D01*
X66396447Y-45000000D02*
X60750000Y-45000000D01*
X56500000Y-54335786D02*
X56500000Y-45664214D01*
X81800000Y-54350000D02*
X81800000Y-56300000D01*
X66000000Y-61500000D02*
G75*
G02*
X65500000Y-62000000I-500000J0D01*
G01*
X47292893Y-60707107D02*
X49707107Y-58292893D01*
X47000000Y-63835786D02*
X47000000Y-61414214D01*
X70042893Y-44292893D02*
X76207107Y-50457107D01*
X61000000Y-56000000D02*
X61000000Y-59292893D01*
X83027555Y-56433941D02*
G75*
G02*
X82298018Y-56750013I-729555J683941D01*
G01*
X61250000Y-48500000D02*
X66250000Y-48500000D01*
X80700000Y-54100000D02*
X81550000Y-54100000D01*
X66500000Y-48250000D02*
X66500000Y-45603553D01*
X56500000Y-54335786D02*
G75*
G02*
X56207093Y-55042879I-999900J-14D01*
G01*
M02*
