%TF.GenerationSoftware,KiCad,Pcbnew,8.99.0-unknown-3024a7c569~178~ubuntu22.04.1*%
%TF.CreationDate,2024-05-13T18:01:15+10:00*%
%TF.ProjectId,MXBreakout,4d584272-6561-46b6-9f75-742e6b696361,rev?*%
%TF.SameCoordinates,Original*%
%TF.FileFunction,Drillmap*%
%TF.FilePolarity,Positive*%
%FSLAX45Y45*%
G04 Gerber Fmt 4.5, Leading zero omitted, Abs format (unit mm)*
G04 Created by KiCad (PCBNEW 8.99.0-unknown-3024a7c569~178~ubuntu22.04.1) date 2024-05-13 18:01:15*
%MOMM*%
%LPD*%
G01*
G04 APERTURE LIST*
%ADD10C,0.100000*%
%ADD11C,0.200000*%
G04 APERTURE END LIST*
D10*
X6092678Y-4742678D02*
G75*
G02*
X6100003Y-4760355I-17678J-17682D01*
G01*
X5020711Y-5802500D02*
X5304289Y-5802500D01*
X6057322Y-4707322D02*
G75*
G02*
X6049997Y-4689645I17678J17682D01*
G01*
X6050000Y-4525000D02*
G75*
G02*
X6075000Y-4500000I25000J0D01*
G01*
X7678211Y-5065000D02*
G75*
G02*
X7642855Y-5050355I-1J50000D01*
G01*
X6750000Y-6000000D02*
G75*
G02*
X6700000Y-6050000I-50000J0D01*
G01*
X8566797Y-5064992D02*
G75*
G02*
X8602152Y-5079638I3J-49988D01*
G01*
X6050000Y-6020711D02*
G75*
G02*
X6064644Y-5985355I50000J1D01*
G01*
X5805711Y-4392500D02*
X6964289Y-4392500D01*
X8647508Y-5145703D02*
X8647508Y-5284281D01*
X5770355Y-4407145D02*
G75*
G02*
X5805711Y-4392501I35355J-35355D01*
G01*
X6600000Y-6100000D02*
G75*
G02*
X6650000Y-6050000I50000J0D01*
G01*
X8045000Y-5435000D02*
G75*
G02*
X8070000Y-5410000I25000J0D01*
G01*
X6050000Y-4525000D02*
X6050000Y-4689645D01*
X6964289Y-4392500D02*
G75*
G02*
X6999645Y-4407144I1J-50000D01*
G01*
X6959289Y-6277500D02*
X5720711Y-6277500D01*
X7678211Y-5065000D02*
X8566797Y-5064992D01*
X6057322Y-4707322D02*
X6092678Y-4742678D01*
X6639645Y-4500000D02*
G75*
G02*
X6657320Y-4542675I-5J-25000D01*
G01*
X5339645Y-5787855D02*
G75*
G02*
X5304289Y-5802499I-35355J35355D01*
G01*
X8070000Y-5655000D02*
G75*
G02*
X8045000Y-5630000I0J25000D01*
G01*
X5540000Y-6460000D02*
G75*
G02*
X5490000Y-6510000I-50000J0D01*
G01*
X8045000Y-5630000D02*
X8045000Y-5435000D01*
X6700000Y-5550000D02*
G75*
G02*
X6750000Y-5600000I0J-50000D01*
G01*
X8155000Y-5410000D02*
G75*
G02*
X8180000Y-5435000I0J-25000D01*
G01*
X6100000Y-5929289D02*
G75*
G02*
X6085356Y-5964645I-50000J-1D01*
G01*
X6650000Y-4825000D02*
G75*
G02*
X6625000Y-4850000I-25000J0D01*
G01*
X6650000Y-4560355D02*
G75*
G02*
X6657325Y-4542680I25000J-5D01*
G01*
X6650000Y-6050000D02*
X6700000Y-6050000D01*
X5655000Y-4543211D02*
G75*
G02*
X5669644Y-4507855I50000J1D01*
G01*
X8180000Y-5630000D02*
G75*
G02*
X8155000Y-5655000I-25000J0D01*
G01*
X6100000Y-5600000D02*
G75*
G02*
X6150000Y-5550000I50000J0D01*
G01*
X6050000Y-6020711D02*
X6050000Y-6150000D01*
X6100000Y-6200000D02*
G75*
G02*
X6050000Y-6150000I0J50000D01*
G01*
X6125000Y-4850000D02*
G75*
G02*
X6100000Y-4825000I0J25000D01*
G01*
X5339645Y-5787855D02*
X5640355Y-5487145D01*
X6750000Y-6000000D02*
X6750000Y-5600000D01*
X4575000Y-6510000D02*
G75*
G02*
X4525000Y-6460000I0J50000D01*
G01*
X6994645Y-6262855D02*
G75*
G02*
X6959289Y-6277499I-35355J35355D01*
G01*
X8632864Y-5110347D02*
G75*
G02*
X8647504Y-5145703I-35364J-35353D01*
G01*
X6700000Y-5550000D02*
X6150000Y-5550000D01*
X8155000Y-5655000D02*
X8070000Y-5655000D01*
X6100000Y-4760355D02*
X6100000Y-4825000D01*
X4539645Y-6262855D02*
X4985355Y-5817145D01*
X5540000Y-6458211D02*
X5540000Y-6460000D01*
X6100000Y-6200000D02*
X6550000Y-6200000D01*
X5655000Y-5451789D02*
G75*
G02*
X5640356Y-5487145I-50000J-1D01*
G01*
X8274645Y-5677855D02*
G75*
G02*
X8239289Y-5692499I-35355J35355D01*
G01*
X6085355Y-5964645D02*
X6064645Y-5985355D01*
X7550355Y-5707145D02*
G75*
G02*
X7585711Y-5692500I35355J-35355D01*
G01*
X5490000Y-6510000D02*
X4575000Y-6510000D01*
X6999645Y-4407145D02*
X7642855Y-5050355D01*
X6600000Y-6150000D02*
X6600000Y-6100000D01*
X5540000Y-6458211D02*
G75*
G02*
X5554644Y-6422855I50000J1D01*
G01*
X8239289Y-5692500D02*
X7585711Y-5692500D01*
X6639645Y-4500000D02*
X6075000Y-4500000D01*
X5669645Y-4507855D02*
X5770355Y-4407145D01*
X8632863Y-5319637D02*
X8274645Y-5677855D01*
X8647508Y-5284281D02*
G75*
G02*
X8632865Y-5319638I-50008J1D01*
G01*
X8180000Y-5435000D02*
X8180000Y-5630000D01*
X7550355Y-5707145D02*
X6994645Y-6262855D01*
X6600000Y-6150000D02*
G75*
G02*
X6550000Y-6200000I-50000J0D01*
G01*
X5655000Y-5451789D02*
X5655000Y-4543211D01*
X8602153Y-5079637D02*
X8632864Y-5110347D01*
X6100000Y-5600000D02*
X6100000Y-5929289D01*
X4525000Y-6460000D02*
X4525000Y-6298211D01*
X4525000Y-6298211D02*
G75*
G02*
X4539644Y-6262855I50000J1D01*
G01*
X6125000Y-4850000D02*
X6625000Y-4850000D01*
X5685355Y-6292145D02*
G75*
G02*
X5720711Y-6277500I35355J-35355D01*
G01*
X8070000Y-5410000D02*
X8155000Y-5410000D01*
X6650000Y-4825000D02*
X6650000Y-4560355D01*
X5685355Y-6292145D02*
X5554645Y-6422855D01*
X4985355Y-5817145D02*
G75*
G02*
X5020711Y-5802500I35355J-35355D01*
G01*
D11*
X4780777Y-6826484D02*
X4780777Y-6626484D01*
X4780777Y-6626484D02*
X4828396Y-6626484D01*
X4828396Y-6626484D02*
X4856967Y-6636008D01*
X4856967Y-6636008D02*
X4876015Y-6655055D01*
X4876015Y-6655055D02*
X4885539Y-6674103D01*
X4885539Y-6674103D02*
X4895063Y-6712198D01*
X4895063Y-6712198D02*
X4895063Y-6740769D01*
X4895063Y-6740769D02*
X4885539Y-6778865D01*
X4885539Y-6778865D02*
X4876015Y-6797912D01*
X4876015Y-6797912D02*
X4856967Y-6816960D01*
X4856967Y-6816960D02*
X4828396Y-6826484D01*
X4828396Y-6826484D02*
X4780777Y-6826484D01*
X4980777Y-6826484D02*
X4980777Y-6693150D01*
X4980777Y-6731246D02*
X4990301Y-6712198D01*
X4990301Y-6712198D02*
X4999824Y-6702674D01*
X4999824Y-6702674D02*
X5018872Y-6693150D01*
X5018872Y-6693150D02*
X5037920Y-6693150D01*
X5104586Y-6826484D02*
X5104586Y-6693150D01*
X5104586Y-6626484D02*
X5095063Y-6636008D01*
X5095063Y-6636008D02*
X5104586Y-6645531D01*
X5104586Y-6645531D02*
X5114110Y-6636008D01*
X5114110Y-6636008D02*
X5104586Y-6626484D01*
X5104586Y-6626484D02*
X5104586Y-6645531D01*
X5228396Y-6826484D02*
X5209348Y-6816960D01*
X5209348Y-6816960D02*
X5199824Y-6797912D01*
X5199824Y-6797912D02*
X5199824Y-6626484D01*
X5333158Y-6826484D02*
X5314110Y-6816960D01*
X5314110Y-6816960D02*
X5304586Y-6797912D01*
X5304586Y-6797912D02*
X5304586Y-6626484D01*
X5561729Y-6826484D02*
X5561729Y-6626484D01*
X5561729Y-6626484D02*
X5628396Y-6769341D01*
X5628396Y-6769341D02*
X5695062Y-6626484D01*
X5695062Y-6626484D02*
X5695062Y-6826484D01*
X5876015Y-6826484D02*
X5876015Y-6721722D01*
X5876015Y-6721722D02*
X5866491Y-6702674D01*
X5866491Y-6702674D02*
X5847443Y-6693150D01*
X5847443Y-6693150D02*
X5809348Y-6693150D01*
X5809348Y-6693150D02*
X5790301Y-6702674D01*
X5876015Y-6816960D02*
X5856967Y-6826484D01*
X5856967Y-6826484D02*
X5809348Y-6826484D01*
X5809348Y-6826484D02*
X5790301Y-6816960D01*
X5790301Y-6816960D02*
X5780777Y-6797912D01*
X5780777Y-6797912D02*
X5780777Y-6778865D01*
X5780777Y-6778865D02*
X5790301Y-6759817D01*
X5790301Y-6759817D02*
X5809348Y-6750293D01*
X5809348Y-6750293D02*
X5856967Y-6750293D01*
X5856967Y-6750293D02*
X5876015Y-6740769D01*
X5971253Y-6693150D02*
X5971253Y-6893150D01*
X5971253Y-6702674D02*
X5990301Y-6693150D01*
X5990301Y-6693150D02*
X6028396Y-6693150D01*
X6028396Y-6693150D02*
X6047443Y-6702674D01*
X6047443Y-6702674D02*
X6056967Y-6712198D01*
X6056967Y-6712198D02*
X6066491Y-6731246D01*
X6066491Y-6731246D02*
X6066491Y-6788388D01*
X6066491Y-6788388D02*
X6056967Y-6807436D01*
X6056967Y-6807436D02*
X6047443Y-6816960D01*
X6047443Y-6816960D02*
X6028396Y-6826484D01*
X6028396Y-6826484D02*
X5990301Y-6826484D01*
X5990301Y-6826484D02*
X5971253Y-6816960D01*
X6152205Y-6807436D02*
X6161729Y-6816960D01*
X6161729Y-6816960D02*
X6152205Y-6826484D01*
X6152205Y-6826484D02*
X6142682Y-6816960D01*
X6142682Y-6816960D02*
X6152205Y-6807436D01*
X6152205Y-6807436D02*
X6152205Y-6826484D01*
X6152205Y-6702674D02*
X6161729Y-6712198D01*
X6161729Y-6712198D02*
X6152205Y-6721722D01*
X6152205Y-6721722D02*
X6142682Y-6712198D01*
X6142682Y-6712198D02*
X6152205Y-6702674D01*
X6152205Y-6702674D02*
X6152205Y-6721722D01*
M02*
